<svg width="225" height="207" viewBox="0 0 225 207" fill="none" xmlns="http://www.w3.org/2000/svg">
<g clip-path="url(#clip0_3273_14754)">
<path d="M240.169 174.005H-12.6404V174.13H240.169V174.005Z" fill="#EBEBEB"/>
<path d="M107.198 151.602H9.5638C7.97262 151.602 6.67773 150.315 6.67773 148.735V12.3874C6.67773 10.8066 7.97262 9.52014 9.5638 9.52014H107.198C108.789 9.52014 110.084 10.8066 110.084 12.3874V148.735C110.084 150.315 108.789 151.602 107.198 151.602ZM9.5638 9.64623C8.04189 9.64623 6.80414 10.8759 6.80414 12.3879V148.735C6.80414 150.247 8.04189 151.477 9.5638 151.477H107.198C108.72 151.477 109.957 150.247 109.957 148.735V12.3874C109.957 10.8759 108.72 9.64572 107.198 9.64572L9.5638 9.64623Z" fill="#EBEBEB"/>
<path d="M216.561 151.602H118.928C117.336 151.602 116.042 150.315 116.042 148.735V12.3874C116.042 10.8066 117.337 9.52014 118.928 9.52014H216.561C218.153 9.52014 219.447 10.8066 219.447 12.3874V148.735C219.448 150.315 218.153 151.602 216.561 151.602ZM118.928 9.64623C117.406 9.64623 116.168 10.8759 116.168 12.3879V148.735C116.168 150.247 117.406 151.477 118.928 151.477H216.561C218.083 151.477 219.321 150.247 219.321 148.735V12.3874C219.321 10.8759 218.083 9.64572 216.561 9.64572L118.928 9.64623Z" fill="#EBEBEB"/>
<path d="M26.4317 178.789H13.2871V178.914H26.4317V178.789Z" fill="#EBEBEB"/>
<path d="M83.5179 177.426H60.7515V177.551H83.5179V177.426Z" fill="#EBEBEB"/>
<path d="M57.6753 183.453H26.9377V183.579H57.6753V183.453Z" fill="#EBEBEB"/>
<path d="M214.241 182.609H204.516V182.735H214.241V182.609Z" fill="#EBEBEB"/>
<path d="M200.014 182.609H172.057V182.735H200.014V182.609Z" fill="#EBEBEB"/>
<path d="M154.979 180.489H117.327V180.614H154.979V180.489Z" fill="#EBEBEB"/>
<path d="M121.28 119.81H100.019V174.005H121.28V119.81Z" fill="#F0F0F0"/>
<path d="M23.941 174.005H100.019V119.809H23.941V174.005Z" fill="#F5F5F5"/>
<path d="M28.6034 168.726H41.302V157.691H28.6034V168.726Z" fill="white"/>
<path d="M28.6034 153.64H41.302V142.605H28.6034V153.64Z" fill="#EBEBEB"/>
<path opacity="0.7" d="M121.28 126.806H23.7192V128.982H121.28V126.806Z" fill="#E6E6E6"/>
<path d="M122.453 118.759H100.019V127.537H122.453V118.759Z" fill="#F0F0F0"/>
<path d="M22.768 127.536L100.019 127.536V118.758L22.768 118.758V127.536Z" fill="#F5F5F5"/>
<path d="M113.219 102.191H96.6973V118.895H113.219V102.191Z" fill="#F0F0F0"/>
<path d="M39.1645 118.895H96.6978V102.191H39.1645V118.895Z" fill="#F5F5F5"/>
<path opacity="0.7" d="M113.219 104.709H38.9917V106.058H113.219V104.709Z" fill="#E6E6E6"/>
<path d="M114.131 101.374H96.6975V105.277H114.131V101.374Z" fill="#F0F0F0"/>
<path d="M38.2526 105.278L96.6975 105.278V101.375H38.2526V105.278Z" fill="#F5F5F5"/>
<path d="M132.679 174.005H148.854V92.6907H132.679V174.005Z" fill="#E6E6E6"/>
<path d="M136.142 174.005H132.679V168.239H139.773L136.142 174.005Z" fill="#F0F0F0"/>
<path d="M186.635 174.005H202.811V92.6907H186.635V174.005Z" fill="#E6E6E6"/>
<path d="M132.679 172.841H189.658V92.6908H132.679V172.841Z" fill="#F0F0F0"/>
<path d="M135.366 118.223H186.971V96.2429H135.366V118.223Z" fill="#E6E6E6"/>
<path d="M164.56 106.765C164.56 108.626 163.042 110.135 161.168 110.135C159.295 110.135 157.777 108.626 157.777 106.765C157.777 104.904 159.295 103.395 161.168 103.395C163.042 103.395 164.56 104.904 164.56 106.765Z" fill="#FAFAFA"/>
<path d="M186.194 174.005H189.658V168.239H182.563L186.194 174.005Z" fill="#F0F0F0"/>
<path d="M186.971 121.775H135.365V169.288H186.971V121.775Z" fill="#E6E6E6"/>
<path d="M179.844 132.226C181.717 132.226 183.236 130.718 183.236 128.857C183.236 126.996 181.717 125.487 179.844 125.487C177.971 125.487 176.452 126.996 176.452 128.857C176.452 130.718 177.971 132.226 179.844 132.226Z" fill="#FAFAFA"/>
<path d="M197.316 83.6383V17.8452L30.9466 17.8452V83.6383L197.316 83.6383Z" fill="#E6E6E6"/>
<path d="M196.581 83.6387V17.8456L30.2117 17.8456V83.6387L196.581 83.6387Z" fill="#F0F0F0"/>
<path d="M192.348 22.0511H34.4458V79.4323H192.348V22.0511Z" fill="white"/>
<path d="M52.8592 45.9614L47.3035 55.5222H58.4154L52.8592 45.9614Z" fill="#E6E6E6"/>
<path d="M81.6837 46.2351H72.6104V55.2493H81.6837V46.2351Z" fill="#E6E6E6"/>
<path d="M101.435 44.9768L95.3333 49.3807L97.6636 56.5072H105.206L107.536 49.3807L101.435 44.9768Z" fill="#E6E6E6"/>
<path d="M128.93 45.2219H122.514L119.307 50.742L122.514 56.262H128.93L132.138 50.742L128.93 45.2219Z" fill="#E6E6E6"/>
<path d="M150.01 44.6835L144.994 47.0836L143.755 52.476L147.226 56.8001H152.794L156.265 52.476L155.026 47.0836L150.01 44.6835Z" fill="#E6E6E6"/>
<path d="M176.752 44.8533H171.842L168.37 48.3027V53.1813L171.842 56.6308H176.752L180.225 53.1813V48.3027L176.752 44.8533Z" fill="#E6E6E6"/>
<path d="M113.764 196.691C167.907 196.691 211.798 194.145 211.798 191.003C211.798 187.862 167.907 185.315 113.764 185.315C59.6214 185.315 15.7302 187.862 15.7302 191.003C15.7302 194.145 59.6214 196.691 113.764 196.691Z" fill="#F5F5F5"/>
<path d="M77.8663 46.2732H161.118C162.894 46.2732 164.257 47.7169 164.147 49.4816L157.36 158.15C157.25 159.915 155.706 161.358 153.93 161.358H70.6785C68.9022 161.358 67.5391 159.915 67.6493 158.15L74.4367 49.4816C74.5464 47.7169 76.0901 46.2732 77.8663 46.2732Z" fill="#F07C33"/>
<path opacity="0.4" d="M77.8663 46.2732H161.118C162.894 46.2732 164.257 47.7169 164.147 49.4816L157.36 158.15C157.25 159.915 155.706 161.358 153.93 161.358H70.6785C68.9022 161.358 67.5391 159.915 67.6493 158.15L74.4367 49.4816C74.5464 47.7169 76.0901 46.2732 77.8663 46.2732Z" fill="black"/>
<path d="M75.954 46.2732H159.206C160.982 46.2732 162.345 47.7169 162.235 49.4816L155.448 158.15C155.338 159.915 153.794 161.358 152.018 161.358H68.7656C66.9894 161.358 65.6262 159.915 65.7365 158.15L72.5239 49.4816C72.6341 47.7169 74.1778 46.2732 75.954 46.2732Z" fill="#F07C33"/>
<path opacity="0.4" d="M70.249 155.491L151.28 156.456L157.854 51.2085H76.7624L70.249 155.491Z" fill="black"/>
<path d="M67.8818 154.426C95.2358 154.426 122.589 154.426 149.943 154.426C154.465 113.282 155.853 91.0701 156.47 49.9266C129.116 49.9266 101.762 49.9266 74.4089 49.9266C73.792 91.0701 72.4046 113.282 67.8818 154.426Z" fill="white"/>
<path opacity="0.3" d="M146.669 78.5461H132.54C132.252 78.5461 131.977 78.4281 131.78 78.2196C131.582 78.0111 131.481 77.7308 131.498 77.4455L132.375 63.4085C132.409 62.862 132.865 62.436 133.417 62.436H147.546C147.834 62.436 148.109 62.5541 148.306 62.7625C148.504 62.971 148.605 63.2513 148.588 63.5366L147.711 77.5736C147.677 78.1201 147.22 78.5461 146.669 78.5461ZM133.65 76.473H145.688L146.436 64.5091H134.397L133.65 76.473Z" fill="#F07C33"/>
<path opacity="0.3" d="M145.334 99.9281H131.205C130.917 99.9281 130.642 99.81 130.445 99.6016C130.247 99.3931 130.146 99.1128 130.163 98.8275L131.04 84.79C131.074 84.2435 131.53 83.8175 132.081 83.8175H146.211C146.498 83.8175 146.773 83.9356 146.971 84.144C147.168 84.3525 147.27 84.6328 147.252 84.9181L146.375 98.9556C146.341 99.5026 145.885 99.9281 145.334 99.9281ZM132.315 97.855H144.354L145.101 85.8906H133.062L132.315 97.855Z" fill="#F07C33"/>
<path opacity="0.3" d="M143.999 121.31H129.869C129.582 121.31 129.306 121.192 129.109 120.984C128.912 120.775 128.81 120.495 128.828 120.209L129.704 106.172C129.739 105.625 130.195 105.199 130.746 105.199H144.875C145.163 105.199 145.438 105.318 145.635 105.526C145.833 105.734 145.934 106.015 145.917 106.3L145.04 120.338C145.005 120.884 144.55 121.31 143.999 121.31ZM130.979 119.237H143.018L143.766 107.273H131.727L130.979 119.237Z" fill="#F07C33"/>
<path opacity="0.3" d="M142.663 142.692H128.534C128.246 142.692 127.971 142.574 127.774 142.365C127.576 142.157 127.475 141.876 127.492 141.591L128.368 127.554C128.403 127.007 128.859 126.581 129.41 126.581H143.54C143.827 126.581 144.102 126.699 144.299 126.908C144.497 127.116 144.599 127.396 144.581 127.682L143.704 141.719C143.67 142.266 143.214 142.692 142.663 142.692ZM129.644 140.619H141.683L142.43 128.654H130.391L129.644 140.619Z" fill="#F07C33"/>
<path opacity="0.3" d="M88.2182 68.6549H120.218C121.19 68.6549 122.034 67.8652 122.094 66.9003C122.154 65.9353 121.409 65.1456 120.438 65.1456H88.4377C87.4664 65.1456 86.622 65.9353 86.5618 66.9003C86.5011 67.8652 87.2469 68.6549 88.2182 68.6549Z" fill="#F07C33"/>
<path opacity="0.3" d="M93.8549 75.8365H119.77C120.741 75.8365 121.586 75.0469 121.646 74.0819C121.706 73.1169 120.961 72.3273 119.989 72.3273H94.0744C93.1031 72.3273 92.2587 73.1169 92.1985 74.0819C92.1379 75.0469 92.8831 75.8365 93.8549 75.8365Z" fill="#F07C33"/>
<path opacity="0.3" d="M86.6535 93.7089H118.654C119.625 93.7089 120.371 94.4985 120.31 95.4635C120.25 96.4285 119.405 97.2181 118.434 97.2181H86.434C85.4627 97.2181 84.717 96.4285 84.7776 95.4635C84.8383 94.4985 85.6822 93.7089 86.6535 93.7089Z" fill="#F07C33"/>
<path opacity="0.3" d="M93.1869 86.5271H119.102C120.073 86.5271 120.819 87.3168 120.758 88.2817C120.698 89.2467 119.854 90.0363 118.882 90.0363H92.9675C91.9962 90.0363 91.2504 89.2467 91.3111 88.2817C91.3712 87.3168 92.2156 86.5271 93.1869 86.5271Z" fill="#F07C33"/>
<path opacity="0.3" d="M85.5476 111.418H117.548C118.519 111.418 119.363 110.629 119.423 109.664C119.484 108.699 118.738 107.909 117.767 107.909H85.767C84.7957 107.909 83.9513 108.699 83.8912 109.664C83.8305 110.629 84.5758 111.418 85.5476 111.418Z" fill="#F07C33"/>
<path opacity="0.3" d="M104.223 118.6H117.099C118.07 118.6 118.915 117.81 118.975 116.845C119.035 115.88 118.29 115.091 117.318 115.091H104.443C103.471 115.091 102.627 115.88 102.567 116.845C102.507 117.81 103.252 118.6 104.223 118.6Z" fill="#F07C33"/>
<path opacity="0.3" d="M91.1837 118.6H97.9742C98.9455 118.6 99.7898 117.81 99.85 116.845C99.9102 115.88 99.1649 115.091 98.1936 115.091H91.4032C90.4319 115.091 89.5875 115.88 89.5273 116.845C89.4672 117.81 90.2124 118.6 91.1837 118.6Z" fill="#F07C33"/>
<path opacity="0.3" d="M84.2118 132.8H116.212C117.183 132.8 118.028 132.011 118.088 131.046C118.148 130.081 117.403 129.291 116.431 129.291H84.4312C83.46 129.291 82.6156 130.081 82.5554 131.046C82.4952 132.011 83.2405 132.8 84.2118 132.8Z" fill="#F07C33"/>
<path opacity="0.3" d="M89.8483 139.982H115.763C116.735 139.982 117.579 139.192 117.639 138.227C117.699 137.262 116.954 136.472 115.983 136.472H90.0678C89.0965 136.472 88.2521 137.262 88.1919 138.227C88.1313 139.192 88.877 139.982 89.8483 139.982Z" fill="#F07C33"/>
<path d="M138.897 74.7043C138.694 74.7043 138.489 74.6455 138.309 74.5235L132.865 70.8289C132.39 70.5059 132.267 69.8614 132.592 69.3887C132.917 68.9165 133.565 68.7939 134.042 69.1179L138.693 72.2746C140.39 70.2396 145.236 64.7216 149.266 62.9363C149.789 62.7038 150.408 62.9378 150.643 63.4613C150.878 63.9837 150.641 64.597 150.115 64.8301C145.716 66.7781 139.777 74.2341 139.717 74.309C139.513 74.5672 139.207 74.7043 138.897 74.7043Z" fill="#F07C33"/>
<path d="M136.361 95.6709C136.099 95.6709 135.839 95.574 135.637 95.3806L130.897 90.8421C130.483 90.4447 130.47 89.7887 130.87 89.3768C131.271 88.9649 131.931 88.9533 132.345 89.3496L136.379 93.213C138.374 91.4408 143.972 86.7154 148.189 85.5696C148.745 85.4179 149.318 85.7445 149.47 86.296C149.622 86.8481 149.295 87.4177 148.739 87.5689C144.127 88.8217 137.145 95.3228 137.076 95.3881C136.875 95.5765 136.617 95.6709 136.361 95.6709Z" fill="#F07C33"/>
<path opacity="0.4" d="M127.499 52.4161L129.038 52.4312C130.743 52.4478 132.147 51.0769 132.159 49.3846L132.179 46.5836C132.18 46.4093 132.044 46.2732 131.868 46.2732H127.581C127.391 46.2732 127.231 46.4314 127.229 46.6198L127.191 52.1057C127.19 52.2785 127.324 52.4141 127.499 52.4161Z" fill="black"/>
<path d="M104.231 41.1907H130.049C131.65 41.1907 132.784 42.4927 132.568 44.0836L131.791 49.7985C131.574 51.3899 130.087 52.6919 128.486 52.6919H102.668C101.066 52.6919 99.9324 51.3899 100.149 49.7985L100.925 44.0836C101.141 42.4927 102.629 41.1907 104.231 41.1907Z" fill="#F07C33"/>
<path opacity="0.6" d="M104.231 41.1907H130.049C131.65 41.1907 132.784 42.4927 132.568 44.0836L131.791 49.7985C131.574 51.3899 130.087 52.6919 128.486 52.6919H102.668C101.066 52.6919 99.9324 51.3899 100.149 49.7985L100.925 44.0836C101.141 42.4927 102.629 41.1907 104.231 41.1907Z" fill="white"/>
<path opacity="0.5" d="M129.378 43.9545H117.773C117.341 43.9545 116.991 43.6069 116.991 43.1774C116.991 42.7484 117.341 42.4003 117.773 42.4003H129.378C129.81 42.4003 130.16 42.7479 130.16 43.1774C130.16 43.6064 129.81 43.9545 129.378 43.9545Z" fill="white"/>
<path opacity="0.5" d="M113.884 43.9545H112.659C112.227 43.9545 111.877 43.6069 111.877 43.1774C111.877 42.7484 112.227 42.4003 112.659 42.4003H113.884C114.315 42.4003 114.666 42.7479 114.666 43.1774C114.666 43.6064 114.315 43.9545 113.884 43.9545Z" fill="white"/>
</g>
<defs>
<clipPath id="clip0_3273_14754">
<rect width="225" height="207" fill="white"/>
</clipPath>
</defs>
</svg>
