<svg width="19" height="19" viewBox="0 0 19 19" fill="none" xmlns="http://www.w3.org/2000/svg">
<g clip-path="url(#clip0_3577_1835)">
<path d="M7.12499 9.5H17.4167M17.4167 9.5L14.6458 7.125M17.4167 9.5L14.6458 11.875" stroke="#F07C33" stroke-width="1.5" stroke-linecap="round" stroke-linejoin="round"/>
<path d="M11.8734 5.54183C11.8639 3.81995 11.7871 2.88737 11.1791 2.27937C10.4832 1.5835 9.36383 1.5835 7.125 1.5835H6.33333C4.0937 1.5835 2.97429 1.5835 2.27841 2.27937C1.58333 2.97445 1.58333 4.09466 1.58333 6.3335V12.6668C1.58333 14.9057 1.58333 16.0259 2.27841 16.721C2.8872 17.3297 3.81979 17.4057 5.54166 17.4152M11.8734 13.4585C11.8639 15.1804 11.7871 16.113 11.1791 16.721C10.6717 17.2292 9.93779 17.3662 8.70833 17.4034" stroke="#F07C33" stroke-width="1.5" stroke-linecap="round"/>
</g>
<defs>
<clipPath id="clip0_3577_1835">
<rect width="19" height="19" fill="white" transform="matrix(-1 0 0 1 19 0)"/>
</clipPath>
</defs>
</svg>
