<svg version="1.1" id="Layer_1" xmlns="http://www.w3.org/2000/svg" xmlns:xlink="http://www.w3.org/1999/xlink" x="0px" y="0px"
	 width="100%" viewBox="0 0 76 76" enable-background="new 0 0 76 76" xml:space="preserve">
<path fill="#000000" opacity="1.000000" stroke="none" 
	d="
M48.000000,77.000000 
	C32.000000,77.000000 16.500000,77.000000 1.000000,77.000000 
	C1.000000,51.666668 1.000000,26.333334 1.000000,1.000000 
	C26.333334,1.000000 51.666668,1.000000 77.000000,1.000000 
	C77.000000,26.333334 77.000000,51.666668 77.000000,77.000000 
	C67.500000,77.000000 58.000000,77.000000 48.000000,77.000000 
M27.264709,62.697800 
	C30.836172,63.413033 34.407635,64.128265 38.833519,64.975883 
	C43.898361,63.369926 48.963203,61.763969 54.566383,59.956673 
	C54.767540,59.642830 54.968697,59.328987 55.775204,58.750549 
	C61.149364,55.833351 61.353992,47.970230 67.896141,46.049145 
	C68.461655,45.883080 68.539726,44.057041 68.982445,42.337231 
	C68.935745,41.889446 68.889046,41.441666 68.977119,40.266624 
	C68.889450,39.618843 68.839088,38.963398 68.707870,38.324562 
	C68.010300,34.928307 64.775894,31.191664 70.366760,28.673182 
	C70.992088,28.391493 70.922554,25.531145 70.398811,24.164122 
	C70.129845,23.462091 67.737122,22.778078 67.034126,23.227575 
	C66.021744,23.874893 65.316040,25.513046 65.137413,26.818375 
	C64.933060,28.311644 65.449364,29.903536 65.697861,31.798042 
	C63.414589,29.886013 61.746292,28.488974 60.713982,27.005745 
	C61.054470,26.812744 61.394958,26.619743 61.735447,26.426743 
	C61.177628,26.246565 60.619804,26.066389 60.018761,25.143915 
	C58.723358,23.082911 57.427956,21.021906 55.887928,18.379484 
	C55.292759,18.231104 54.697586,18.082724 53.789276,17.288719 
	C47.335773,11.883512 39.416714,11.980680 32.134758,13.301732 
	C22.257267,15.093652 16.265165,22.468636 12.172921,31.632971 
	C11.729033,30.008877 12.086650,28.531685 11.854009,27.154179 
	C11.646942,25.928097 11.060337,24.415424 10.128407,23.771862 
	C9.363691,23.243774 7.159276,23.392467 6.807102,23.975065 
	C6.123779,25.105484 5.911349,27.928947 6.166156,28.011711 
	C12.254488,29.989241 9.879661,33.472977 8.070350,37.045387 
	C7.679821,37.816475 8.109814,39.003124 8.040388,40.498283 
	C8.079294,40.665283 8.118200,40.832283 8.020896,41.798622 
	C8.478662,43.106670 8.889006,45.525078 9.401700,45.546974 
	C13.477728,45.721050 13.779870,49.148285 15.295827,51.615788 
	C16.288103,53.230915 17.696146,54.590611 19.071423,56.547077 
	C19.349310,56.723454 19.627197,56.899830 20.126247,57.624271 
	C20.729599,58.109962 21.332951,58.595654 22.198292,59.702850 
	C23.764788,60.477654 25.331282,61.252460 27.264709,62.697800 
z"/>
<path fill="#F07D34" opacity="1.000000" stroke="none" 
	d="
M8.161856,39.998360 
	C8.109814,39.003124 7.679821,37.816475 8.070350,37.045387 
	C9.879661,33.472977 12.254488,29.989241 6.166156,28.011711 
	C5.911349,27.928947 6.123779,25.105484 6.807102,23.975065 
	C7.159276,23.392467 9.363691,23.243774 10.128407,23.771862 
	C11.060337,24.415424 11.646942,25.928097 11.854009,27.154179 
	C12.086650,28.531685 11.729033,30.008877 12.172921,31.632971 
	C16.265165,22.468636 22.257267,15.093652 32.134758,13.301732 
	C39.416714,11.980680 47.335773,11.883512 53.471771,17.625900 
	C45.214149,17.963081 37.274036,17.963081 29.333925,17.963081 
	C29.353315,18.487574 29.372704,19.012068 29.392094,19.536560 
	C38.327141,21.663418 47.228382,20.154711 56.132549,18.960901 
	C57.427956,21.021906 58.723358,23.082911 59.590576,25.536201 
	C56.742352,25.967657 54.322304,26.006826 51.531509,26.037655 
	C47.765217,26.945724 44.369675,27.862133 40.713905,28.622112 
	C39.310486,28.573395 38.167286,28.681107 36.607288,28.849915 
	C33.746799,28.396553 31.303112,27.882093 28.759153,27.288769 
	C28.518326,27.111582 28.369207,27.028658 27.824173,26.948090 
	C21.380596,28.854645 22.250355,34.562935 20.665630,39.236816 
	C20.334227,39.970882 20.164785,40.485291 19.545872,41.000298 
	C16.399496,41.000755 13.702598,41.000614 10.766490,40.804649 
	C9.738807,40.405334 8.950331,40.201847 8.161856,39.998360 
z"/>
<path fill="#ED7B33" opacity="1.000000" stroke="none" 
	d="
M11.005698,41.000477 
	C13.702598,41.000614 16.399496,41.000755 19.754040,41.000336 
	C20.411682,40.999775 20.827900,40.999584 20.926319,41.357773 
	C22.675591,44.884369 24.326445,48.052773 26.134350,51.367607 
	C26.512070,51.698338 26.749477,51.857704 27.341763,52.145874 
	C29.340727,52.776176 30.989428,53.591297 32.665169,53.651314 
	C35.293320,53.745438 38.164162,52.570362 40.536648,53.271439 
	C47.877689,55.440739 51.587914,51.285542 55.156036,46.102451 
	C55.486080,45.426414 55.602192,44.667145 55.737518,43.652817 
	C55.861984,43.263611 55.967247,43.129463 56.489777,42.998474 
	C60.886101,43.001785 64.865166,43.001934 68.844223,43.002087 
	C68.539726,44.057041 68.461655,45.883080 67.896141,46.049145 
	C61.353992,47.970230 61.149364,55.833351 54.992157,58.864452 
	C43.451511,59.012688 32.693905,59.047016 21.936302,59.081345 
	C21.332951,58.595654 20.729599,58.109962 20.488718,57.331215 
	C27.656361,57.025841 34.464092,57.120453 41.265663,56.957645 
	C44.850876,56.871826 48.425339,56.336731 52.171608,55.990376 
	C52.467163,55.805424 52.595760,55.634590 52.724358,55.463757 
	C52.482162,55.641308 52.239971,55.818863 51.529259,55.996300 
	C40.346481,56.019032 29.632223,56.041870 18.917969,56.064713 
	C17.696146,54.590611 16.288103,53.230915 15.295827,51.615788 
	C13.779870,49.148285 13.477728,45.721050 9.401700,45.546974 
	C8.889006,45.525078 8.478662,43.106670 8.445001,41.399864 
	C9.581303,41.000900 10.293501,41.000687 11.005698,41.000477 
M60.097191,48.370251 
	C60.097191,48.370251 59.834312,48.561001 59.834312,48.561001 
	C59.834312,48.561001 60.174904,48.532684 60.097191,48.370251 
z"/>
<path fill="#EF7B33" opacity="1.000000" stroke="none" 
	d="
M60.077999,27.091934 
	C61.746292,28.488974 63.414589,29.886013 65.697861,31.798042 
	C65.449364,29.903536 64.933060,28.311644 65.137413,26.818375 
	C65.316040,25.513046 66.021744,23.874893 67.034126,23.227575 
	C67.737122,22.778078 70.129845,23.462091 70.398811,24.164122 
	C70.922554,25.531145 70.992088,28.391493 70.366760,28.673182 
	C64.775894,31.191664 68.010300,34.928307 68.707870,38.324562 
	C68.839088,38.963398 68.889450,39.618843 68.459351,40.629646 
	C64.044029,40.992382 60.146481,40.992100 56.185928,40.555088 
	C55.633221,35.802326 55.143520,31.486296 55.105518,27.130497 
	C57.064148,27.091129 58.571072,27.091530 60.077999,27.091934 
M64.134392,38.249973 
	C64.116875,37.691261 64.099365,37.132549 64.081848,36.573837 
	C63.639622,36.667000 63.197399,36.760162 62.755173,36.853321 
	C63.050621,37.348808 63.346066,37.844296 64.134392,38.249973 
z"/>
<path fill="#F07C33" opacity="1.000000" stroke="none" 
	d="
M54.028042,60.158012 
	C48.963203,61.763969 43.898361,63.369926 38.232777,64.654892 
	C36.759327,62.968510 35.886620,61.603130 35.477158,60.167122 
	C41.969612,60.117001 47.998829,60.137505 54.028042,60.158012 
z"/>
<path fill="#F18846" opacity="1.000000" stroke="none" 
	d="
M56.010239,18.670193 
	C47.228382,20.154711 38.327141,21.663418 29.392094,19.536560 
	C29.372704,19.012068 29.353315,18.487574 29.333925,17.963081 
	C37.274036,17.963081 45.214149,17.963081 53.628342,17.948711 
	C54.697586,18.082724 55.292759,18.231104 56.010239,18.670193 
z"/>
<path fill="#F07E36" opacity="1.000000" stroke="none" 
	d="
M35.013912,60.237747 
	C35.886620,61.603130 36.759327,62.968510 37.805565,64.588699 
	C34.407635,64.128265 30.836172,63.413033 27.053926,62.059990 
	C29.566732,61.027367 32.290321,60.632557 35.013912,60.237747 
z"/>
<path fill="#F39960" opacity="1.000000" stroke="none" 
	d="
M35.477158,60.167122 
	C32.290321,60.632557 29.566732,61.027367 26.870461,61.724724 
	C25.331282,61.252460 23.764788,60.477654 22.067297,59.392097 
	C32.693905,59.047016 43.451511,59.012688 54.689484,58.996750 
	C54.968697,59.328987 54.767540,59.642830 54.297211,60.057343 
	C47.998829,60.137505 41.969612,60.117001 35.477158,60.167122 
z"/>
<path fill="#F29255" opacity="1.000000" stroke="none" 
	d="
M18.994694,56.305893 
	C29.632223,56.041870 40.346481,56.019032 51.530407,55.998131 
	C52.000076,56.000076 52.004654,56.004494 52.004654,56.004494 
	C48.425339,56.336731 44.850876,56.871826 41.265663,56.957645 
	C34.464092,57.120453 27.656361,57.025841 20.378136,57.057182 
	C19.627197,56.899830 19.349310,56.723454 18.994694,56.305893 
z"/>
<path fill="#EF8644" opacity="1.000000" stroke="none" 
	d="
M56.248932,40.991817 
	C60.146481,40.992100 64.044029,40.992382 68.391968,40.993271 
	C68.889046,41.441666 68.935745,41.889446 68.913330,42.669659 
	C64.865166,43.001934 60.886101,43.001785 56.469624,42.660889 
	C56.104450,41.877369 56.176689,41.434593 56.248932,40.991817 
z"/>
<path fill="#F39A62" opacity="1.000000" stroke="none" 
	d="
M60.395988,27.048840 
	C58.571072,27.091530 57.064148,27.091129 54.785404,27.096531 
	C53.309811,26.750223 52.606037,26.398109 51.902260,26.045996 
	C54.322304,26.006826 56.742352,25.967657 59.612190,25.907349 
	C60.619804,26.066389 61.177628,26.246565 61.735447,26.426743 
	C61.394958,26.619743 61.054470,26.812744 60.395988,27.048840 
z"/>
<path fill="#F07E37" opacity="1.000000" stroke="none" 
	d="
M10.766490,40.804649 
	C10.293501,41.000687 9.581303,41.000900 8.513105,41.000198 
	C8.118200,40.832283 8.079294,40.665283 8.101122,40.248322 
	C8.950331,40.201847 9.738807,40.405334 10.766490,40.804649 
z"/>
<path fill="#030201" opacity="1.000000" stroke="none" 
	d="
M51.531509,26.037655 
	C52.606037,26.398109 53.309811,26.750223 54.333702,27.136299 
	C55.143520,31.486296 55.633221,35.802326 56.185925,40.555088 
	C56.176689,41.434593 56.104450,41.877369 56.052361,42.657730 
	C55.967247,43.129463 55.861984,43.263611 55.536407,43.860222 
	C55.191429,44.888191 55.066769,45.453701 54.942108,46.019215 
	C51.587914,51.285542 47.877689,55.440739 40.536648,53.271439 
	C38.164162,52.570362 35.293320,53.745438 32.665169,53.651314 
	C30.989428,53.591297 29.340727,52.776176 27.260582,51.912529 
	C26.635448,51.190674 26.347460,51.089256 25.977299,51.221180 
	C24.326445,48.052773 22.675591,44.884369 20.994444,41.029667 
	C20.918633,39.901299 20.873114,39.459229 20.827595,39.017155 
	C22.250355,34.562935 21.380596,28.854645 27.868629,27.106255 
	C28.300434,27.277456 28.553904,27.484333 28.553904,27.484333 
	C28.553904,27.484333 28.859425,27.367634 28.859425,27.367634 
	C31.303112,27.882093 33.746799,28.396553 36.997444,28.931561 
	C38.860981,28.894251 39.917557,28.836397 40.974133,28.778542 
	C44.369675,27.862133 47.765217,26.945724 51.531509,26.037655 
M29.595831,46.970127 
	C31.056475,45.343708 33.633686,43.778725 33.727310,42.077091 
	C33.884663,39.217293 32.462795,36.270603 31.705313,33.360474 
	C30.380684,33.803368 28.443926,33.841080 27.836512,34.758720 
	C25.085794,38.914326 25.893517,43.043839 29.595831,46.970127 
M48.892895,46.239586 
	C49.193016,42.687252 49.782188,39.118328 49.579945,35.594830 
	C49.532333,34.765327 46.815781,34.089020 45.327042,33.342239 
	C44.577000,36.569134 43.266712,39.795383 43.262978,43.023140 
	C43.260239,45.393757 44.952034,47.789848 48.892895,46.239586 
z"/>
<path fill="#ED7C34" opacity="1.000000" stroke="none" 
	d="
M40.713905,28.622112 
	C39.917557,28.836397 38.860981,28.894251 37.414246,28.870462 
	C38.167286,28.681107 39.310486,28.573395 40.713905,28.622112 
z"/>
<path fill="#F07E37" opacity="1.000000" stroke="none" 
	d="
M20.665630,39.236816 
	C20.873114,39.459229 20.918633,39.901299 20.896027,40.671478 
	C20.827900,40.999584 20.411682,40.999775 20.203514,40.999733 
	C20.164785,40.485291 20.334227,39.970882 20.665630,39.236816 
z"/>
<path fill="#ED7C34" opacity="1.000000" stroke="none" 
	d="
M28.759153,27.288769 
	C28.859425,27.367634 28.553904,27.484333 28.553904,27.484333 
	C28.553904,27.484333 28.300434,27.277456 28.255980,27.119293 
	C28.369207,27.028658 28.518326,27.111582 28.759153,27.288769 
z"/>
<path fill="#EF8644" opacity="1.000000" stroke="none" 
	d="
M55.156036,46.102451 
	C55.066769,45.453701 55.191429,44.888191 55.517197,44.115273 
	C55.602192,44.667145 55.486080,45.426414 55.156036,46.102451 
z"/>
<path fill="#F29255" opacity="1.000000" stroke="none" 
	d="
M60.136047,48.451469 
	C60.174904,48.532684 59.834312,48.561001 59.834312,48.561001 
	C59.834312,48.561001 60.097191,48.370251 60.136047,48.451469 
z"/>
<path fill="#F29255" opacity="1.000000" stroke="none" 
	d="
M51.998924,55.998245 
	C52.239971,55.818863 52.482162,55.641308 52.724358,55.463757 
	C52.595760,55.634590 52.467163,55.805424 52.171608,55.990376 
	C52.004654,56.004494 52.000076,56.000076 51.998924,55.998245 
z"/>
<path fill="#EC7B33" opacity="1.000000" stroke="none" 
	d="
M26.134350,51.367607 
	C26.347460,51.089256 26.635448,51.190674 26.922443,51.758781 
	C26.749477,51.857704 26.512070,51.698338 26.134350,51.367607 
z"/>
<path fill="#ED7C34" opacity="1.000000" stroke="none" 
	d="
M63.887955,38.294876 
	C63.346066,37.844296 63.050621,37.348808 62.755173,36.853321 
	C63.197399,36.760162 63.639622,36.667000 64.081848,36.573837 
	C64.099365,37.132549 64.116875,37.691261 63.887955,38.294876 
z"/>
<path fill="#F08039" opacity="1.000000" stroke="none" 
	d="
M29.190025,46.931320 
	C25.893517,43.043839 25.085794,38.914326 27.836512,34.758720 
	C28.443926,33.841080 30.380684,33.803368 31.705313,33.360474 
	C32.462795,36.270603 33.884663,39.217293 33.727310,42.077091 
	C33.633686,43.778725 31.056475,45.343708 29.190025,46.931320 
z"/>
<path fill="#F07F39" opacity="1.000000" stroke="none" 
	d="
M48.604828,46.545349 
	C44.952034,47.789848 43.260239,45.393757 43.262978,43.023140 
	C43.266712,39.795383 44.577000,36.569134 45.327042,33.342239 
	C46.815781,34.089020 49.532333,34.765327 49.579945,35.594830 
	C49.782188,39.118328 49.193016,42.687252 48.604828,46.545349 
z"/>
</svg>