<svg version="1.1" id="Layer_1" xmlns="http://www.w3.org/2000/svg" xmlns:xlink="http://www.w3.org/1999/xlink" x="0px" y="0px"
	 width="100%" viewBox="0 0 238 90" enable-background="new 0 0 238 90" xml:space="preserve">
<path fill="#000000" opacity="1.000000" stroke="none" 
	d="
M239.000000,63.000000 
	C239.000000,72.320755 239.000000,81.641510 239.000000,90.981133 
	C159.786163,90.981133 80.572319,90.981133 1.000000,90.981133 
	C1.000000,71.647247 1.000000,52.292282 1.356910,32.470345 
	C3.100622,30.886953 4.487425,29.770535 6.686761,28.000000 
	C3.944808,28.000000 2.472404,28.000000 1.000000,28.000000 
	C1.000000,19.012796 1.000000,10.025592 1.000000,1.061263 
	C80.333359,1.061263 159.666702,1.061263 239.000000,1.061263 
	C239.000000,15.102578 239.000000,29.082630 238.583496,43.529343 
	C237.099930,43.686081 236.051422,43.256088 234.962448,43.087696 
	C230.946625,42.466694 227.267761,43.340324 225.442596,47.195206 
	C223.612289,51.061039 225.572571,53.961384 228.876556,56.132576 
	C228.570892,56.458900 228.450653,56.591316 228.056686,56.595512 
	C226.436234,57.523537 225.089539,58.579784 223.555527,59.782944 
	C228.148682,65.671890 233.602982,64.190643 239.000000,63.000000 
M64.973595,33.770977 
	C64.942352,34.497505 64.911102,35.224033 64.339157,36.169273 
	C63.891243,36.455219 63.443333,36.741165 62.791142,36.310188 
	C61.206032,33.174965 59.620918,30.039745 57.718323,26.277737 
	C54.554901,23.545006 52.186241,19.480360 46.989487,19.168955 
	C37.758446,13.772220 24.654495,15.476298 17.231323,23.255930 
	C14.534829,26.837101 11.838335,30.418272 9.003427,34.699730 
	C8.644945,35.337585 8.286465,35.975437 7.691476,37.034115 
	C7.084095,35.334480 6.656747,34.138638 6.229399,32.942791 
	C5.812885,33.049141 5.396371,33.155487 4.979857,33.261837 
	C5.286561,35.150135 5.593264,37.038433 5.979224,38.984917 
	C5.979224,38.984917 5.918620,38.908607 5.142003,39.004982 
	C1.892293,41.962524 2.641419,45.420361 3.458909,49.085884 
	C3.128761,49.264488 3.032485,49.528328 3.191754,50.617428 
	C8.216768,54.117790 10.645299,59.882431 15.062317,64.581238 
	C15.369656,64.772903 15.676994,64.964577 16.267376,65.762909 
	C29.983427,80.488365 54.521008,73.467354 60.943478,58.391708 
	C61.567333,56.927307 62.376842,54.656586 63.458733,54.423344 
	C68.615051,53.311733 68.252998,49.756401 67.978508,45.166454 
	C67.359627,42.123058 66.740746,39.079666 66.704323,35.805820 
	C67.502319,35.223080 68.300323,34.640335 69.767509,33.716846 
	C69.882965,32.025898 69.998413,30.334948 70.113869,28.643999 
	C68.429451,28.585533 66.538353,28.063395 65.154861,28.680063 
	C64.538094,28.954981 64.942780,31.521500 64.973595,33.770977 
M187.472977,59.002430 
	C189.297333,59.336540 192.378998,59.178223 192.735077,60.087383 
	C194.579269,64.796219 197.977234,64.324867 201.888336,63.661392 
	C198.372192,54.650551 194.971100,45.725391 191.326340,36.900879 
	C190.939850,35.965149 189.126404,35.136440 187.971588,35.132008 
	C186.742996,35.127289 184.780228,35.859222 184.393097,36.790970 
	C180.726044,45.616913 177.326675,54.554062 173.850220,63.459194 
	C174.152039,63.900948 174.453842,64.342697 174.755661,64.784447 
	C177.031433,63.815212 180.746857,63.339714 181.283798,61.774113 
	C182.407257,58.498314 184.383804,59.041466 187.472977,59.002430 
M80.933647,62.262543 
	C81.215424,62.838085 81.587250,63.939159 81.765175,63.908672 
	C83.757660,63.567242 87.183502,63.466976 87.453781,62.515247 
	C89.226761,56.271816 94.051758,59.477749 97.389427,59.260345 
	C98.904533,59.161663 100.598701,61.811939 102.704971,63.644424 
	C103.779945,63.644424 105.817787,63.644424 108.395905,63.644424 
	C105.042046,55.210873 101.716179,47.330025 98.798477,39.300861 
	C97.406883,35.471375 95.321556,34.035118 91.524796,35.307499 
	C88.003891,44.060863 84.501625,52.767883 80.933647,62.262543 
M137.264725,63.739639 
	C142.051819,63.739639 146.838928,63.739639 151.648529,63.739639 
	C151.648529,53.677177 151.648529,43.953411 151.648529,34.224693 
	C149.368042,34.224693 147.429672,34.224693 145.058075,34.224693 
	C145.058075,37.536350 145.058075,40.633049 145.058075,43.826473 
	C138.250015,42.276802 133.353180,44.261040 131.472824,49.051708 
	C129.268005,54.669048 131.157410,59.812981 137.264725,63.739639 
M113.669685,63.195282 
	C118.587364,63.532810 123.505043,63.870335 128.713226,64.227798 
	C128.713226,53.921497 128.713226,44.192406 128.713226,34.301552 
	C126.447746,34.301552 124.401039,34.301552 121.883347,34.301552 
	C121.883347,37.660004 121.883347,40.720142 121.883347,43.338028 
	C119.327850,43.338028 116.790009,42.579563 115.284126,43.503334 
	C112.544960,45.183655 109.122231,47.483765 108.324341,50.209972 
	C106.941757,54.934032 107.306183,60.194199 113.669685,63.195282 
M214.584015,63.112492 
	C216.904343,63.461761 219.224655,63.811031 221.726868,64.187683 
	C221.726868,53.756519 221.726868,44.033699 221.726868,34.315331 
	C219.723755,34.315331 218.000168,34.315331 215.837311,34.315331 
	C215.837311,37.684868 215.837311,40.745670 215.837311,42.526417 
	C211.956940,43.426193 208.389114,43.466908 205.744308,45.049831 
	C201.706131,47.466686 199.379547,51.966965 202.373444,58.829453 
	C204.652695,64.053879 208.926010,64.715607 214.584015,63.112492 
M166.597000,45.902527 
	C165.622284,48.433891 164.647568,50.965256 163.594696,53.699593 
	C159.447937,43.246037 159.447937,43.246037 152.926193,44.757912 
	C154.840637,49.268494 156.499924,53.855148 158.692886,58.170612 
	C161.338226,63.376320 155.940628,67.002190 156.213318,73.217506 
	C159.057556,71.712135 162.130295,71.144272 162.966843,69.463448 
	C167.014938,61.329876 170.462173,52.897251 174.662506,43.341923 
	C171.373154,44.123508 169.172806,44.646339 166.597000,45.902527 
z"/>
<path fill="#EF7C32" opacity="1.000000" stroke="none" 
	d="
M229.061966,55.938671 
	C225.572571,53.961384 223.612289,51.061039 225.442596,47.195206 
	C227.267761,43.340324 230.946625,42.466694 234.962448,43.087696 
	C236.051422,43.256088 237.099930,43.686081 238.583496,43.998001 
	C239.000000,50.021152 239.000000,56.042305 239.000000,62.531731 
	C233.602982,64.190643 228.148682,65.671890 223.555527,59.782944 
	C225.089539,58.579784 226.436234,57.523537 228.287048,56.839813 
	C230.251144,57.750774 231.711151,58.289211 233.171143,58.827644 
	C233.357346,58.284878 233.543549,57.742111 233.729752,57.199345 
	C232.173828,56.779121 230.617889,56.358898 229.061966,55.938671 
z"/>
<path fill="#F0945A" opacity="1.000000" stroke="none" 
	d="
M1.000000,28.399996 
	C2.472404,28.000000 3.944808,28.000000 6.686761,28.000000 
	C4.487425,29.770535 3.100622,30.886953 1.356910,32.001686 
	C1.000000,30.933331 1.000000,29.866661 1.000000,28.399996 
z"/>
<path fill="#EF7C32" opacity="1.000000" stroke="none" 
	d="
M187.025269,59.002438 
	C184.383804,59.041466 182.407257,58.498314 181.283798,61.774113 
	C180.746857,63.339714 177.031433,63.815212 174.755661,64.784447 
	C174.453842,64.342697 174.152039,63.900948 173.850220,63.459194 
	C177.326675,54.554062 180.726044,45.616913 184.393097,36.790970 
	C184.780228,35.859222 186.742996,35.127289 187.971588,35.132008 
	C189.126404,35.136440 190.939850,35.965149 191.326340,36.900879 
	C194.971100,45.725391 198.372192,54.650551 201.888336,63.661392 
	C197.977234,64.324867 194.579269,64.796219 192.735077,60.087383 
	C192.378998,59.178223 189.297333,59.336540 187.025269,59.002438 
z"/>
<path fill="#EF7C32" opacity="1.000000" stroke="none" 
	d="
M80.966507,61.868721 
	C84.501625,52.767883 88.003891,44.060863 91.524796,35.307499 
	C95.321556,34.035118 97.406883,35.471375 98.798477,39.300861 
	C101.716179,47.330025 105.042046,55.210873 108.395905,63.644424 
	C105.817787,63.644424 103.779945,63.644424 102.704971,63.644424 
	C100.598701,61.811939 98.904533,59.161663 97.389427,59.260345 
	C94.051758,59.477749 89.226761,56.271816 87.453781,62.515247 
	C87.183502,63.466976 83.757660,63.567242 81.765175,63.908672 
	C81.587250,63.939159 81.215424,62.838085 80.966507,61.868721 
z"/>
<path fill="#EF7C32" opacity="1.000000" stroke="none" 
	d="
M136.966492,63.467987 
	C131.157410,59.812981 129.268005,54.669048 131.472824,49.051708 
	C133.353180,44.261040 138.250015,42.276802 145.058075,43.826473 
	C145.058075,40.633049 145.058075,37.536350 145.058075,34.224693 
	C147.429672,34.224693 149.368042,34.224693 151.648529,34.224693 
	C151.648529,43.953411 151.648529,53.677177 151.648529,63.739639 
	C146.838928,63.739639 142.051819,63.739639 136.966492,63.467987 
M144.319244,56.180752 
	C146.095047,53.836510 145.975983,51.484413 143.321381,50.247753 
	C141.963715,49.615284 139.018768,49.775944 138.452637,50.651897 
	C137.530899,52.078110 137.166611,55.420208 138.020401,56.083733 
	C139.395432,57.152340 141.953278,56.698982 144.319244,56.180752 
z"/>
<path fill="#EF7C32" opacity="1.000000" stroke="none" 
	d="
M113.282776,63.086014 
	C107.306183,60.194199 106.941757,54.934032 108.324341,50.209972 
	C109.122231,47.483765 112.544960,45.183655 115.284126,43.503334 
	C116.790009,42.579563 119.327850,43.338028 121.883347,43.338028 
	C121.883347,40.720142 121.883347,37.660004 121.883347,34.301552 
	C124.401039,34.301552 126.447746,34.301552 128.713226,34.301552 
	C128.713226,44.192406 128.713226,53.921497 128.713226,64.227798 
	C123.505043,63.870335 118.587364,63.532810 113.282776,63.086014 
M114.014565,54.476295 
	C114.725418,57.482964 116.925072,58.661762 119.551094,57.811977 
	C120.794083,57.409740 122.512878,54.992149 122.219307,54.044006 
	C121.584152,51.992718 119.790398,50.300167 117.959152,47.748245 
	C116.128189,50.506950 115.069595,52.101933 114.014565,54.476295 
z"/>
<path fill="#F07C33" opacity="1.000000" stroke="none" 
	d="
M214.234375,63.364616 
	C208.926010,64.715607 204.652695,64.053879 202.373444,58.829453 
	C199.379547,51.966965 201.706131,47.466686 205.744308,45.049831 
	C208.389114,43.466908 211.956940,43.426193 215.837311,42.526417 
	C215.837311,40.745670 215.837311,37.684868 215.837311,34.315331 
	C218.000168,34.315331 219.723755,34.315331 221.726868,34.315331 
	C221.726868,44.033699 221.726868,53.756519 221.726868,64.187683 
	C219.224655,63.811031 216.904343,63.461761 214.234375,63.364616 
M215.933426,55.177395 
	C214.729355,53.151649 213.525284,51.125904 212.321213,49.100155 
	C210.902451,50.030392 208.587708,50.739094 208.289215,51.946327 
	C207.906555,53.493973 208.748764,56.599358 209.777847,56.952785 
	C211.400635,57.510124 213.618515,56.334660 215.933426,55.177395 
z"/>
<path fill="#E87934" opacity="1.000000" stroke="none" 
	d="
M67.843628,45.994778 
	C68.252998,49.756401 68.615051,53.311733 63.458733,54.423344 
	C62.376842,54.656586 61.567333,56.927307 60.943478,58.391708 
	C54.521008,73.467354 29.983427,80.488365 16.512478,65.405457 
	C18.520594,65.351898 20.283607,65.655785 22.239079,66.173965 
	C22.956589,66.597092 23.481644,66.805908 24.005722,67.005310 
	C24.004744,66.995895 23.986012,66.993248 24.113770,67.204475 
	C24.451979,67.677299 24.709412,67.878899 25.007984,68.009010 
	C25.002144,67.997513 24.976351,67.997581 25.319714,68.232391 
	C32.778198,68.311287 39.893322,68.155380 47.342209,67.924774 
	C51.025791,64.942764 55.761456,63.551350 54.940575,57.025162 
	C54.646191,54.684761 55.589054,48.614979 61.207993,47.797554 
	C58.835197,48.171661 56.462399,48.545769 54.060135,48.487495 
	C54.175335,46.631599 54.320007,45.208088 54.578712,43.565788 
	C54.534870,42.583466 54.376995,41.819931 54.137276,40.801060 
	C54.070038,40.367561 54.084641,40.189400 54.328712,40.007122 
	C54.558182,40.003006 55.017086,39.993385 55.421539,39.996883 
	C58.237404,41.083927 60.678139,42.107704 63.050159,43.271534 
	C64.696930,44.079517 66.249161,45.080193 67.843628,45.994778 
M57.710934,46.615372 
	C57.553654,46.156521 57.396370,45.697666 57.239086,45.238815 
	C56.809914,45.413128 56.380741,45.587437 55.951569,45.761749 
	C56.378426,46.101223 56.805286,46.440697 57.710934,46.615372 
z"/>
<path fill="#EF7C32" opacity="1.000000" stroke="none" 
	d="
M166.784729,45.535851 
	C169.172806,44.646339 171.373154,44.123508 174.662506,43.341923 
	C170.462173,52.897251 167.014938,61.329876 162.966843,69.463448 
	C162.130295,71.144272 159.057556,71.712135 156.213318,73.217506 
	C155.940628,67.002190 161.338226,63.376320 158.692886,58.170612 
	C156.499924,53.855148 154.840637,49.268494 152.926193,44.757912 
	C159.447937,43.246037 159.447937,43.246037 163.594696,53.699593 
	C164.647568,50.965256 165.622284,48.433891 166.784729,45.535851 
z"/>
<path fill="#ED7C35" opacity="1.000000" stroke="none" 
	d="
M3.898810,48.941784 
	C2.641419,45.420361 1.892293,41.962524 5.710910,39.120953 
	C6.858955,39.161880 7.438092,39.086838 8.073502,38.975990 
	C8.129773,38.940186 7.988119,38.982933 7.640005,38.976593 
	C6.827917,38.955750 6.363942,38.941242 5.899968,38.926731 
	C5.593264,37.038433 5.286561,35.150135 4.979857,33.261837 
	C5.396371,33.155487 5.812885,33.049141 6.229399,32.942791 
	C6.656747,34.138638 7.084095,35.334480 7.691476,37.034115 
	C8.286465,35.975437 8.644945,35.337585 9.437661,34.343254 
	C11.606410,32.996048 13.676696,32.325031 14.996238,30.939186 
	C16.944185,28.893354 18.358028,26.338970 20.332481,24.001593 
	C21.109852,24.002674 21.554066,24.003319 22.026684,24.335283 
	C22.704710,25.442974 23.354330,26.219343 24.456463,26.995945 
	C27.028114,27.016642 29.147253,27.037106 31.216984,27.361923 
	C30.794870,28.118275 30.422163,28.570271 29.633511,29.020206 
	C26.140511,29.622742 22.165255,28.328384 20.914471,33.166794 
	C20.595934,33.619083 20.335913,33.822369 19.722397,34.087265 
	C18.044020,35.173458 16.719137,36.198048 15.394257,37.222637 
	C16.207996,37.820629 17.021734,38.418621 17.844044,39.408958 
	C17.257696,42.806683 16.662783,45.812065 15.603665,48.866859 
	C11.392577,48.924782 7.645694,48.933281 3.898810,48.941784 
z"/>
<path fill="#F0823D" opacity="1.000000" stroke="none" 
	d="
M21.998278,24.003963 
	C21.554066,24.003319 21.109852,24.002674 20.102043,23.805649 
	C18.979042,23.391850 18.419638,23.174431 17.860231,22.957014 
	C24.654495,15.476298 37.758446,13.772220 46.758038,19.735126 
	C45.146683,21.761021 43.766777,23.220741 41.892612,25.203306 
	C46.634983,25.907848 50.319393,26.455217 53.535980,27.003571 
	C48.590897,27.029484 44.113636,27.054411 39.446251,26.795883 
	C38.171520,24.273138 37.086914,22.033852 36.002304,19.794563 
	C35.514236,19.778797 35.026169,19.763029 34.538097,19.747263 
	C33.447529,22.184032 32.356960,24.620800 31.266392,27.057570 
	C29.147253,27.037106 27.028114,27.016642 24.427284,26.664881 
	C23.296490,25.557045 22.647385,24.780504 21.998278,24.003963 
z"/>
<path fill="#EF7F36" opacity="1.000000" stroke="none" 
	d="
M39.636372,27.079338 
	C44.113636,27.054411 48.590897,27.029484 53.756935,27.193529 
	C55.642406,27.223177 56.839108,27.063850 58.035805,26.904522 
	C59.620918,30.039745 61.206032,33.174965 62.559708,36.878120 
	C59.885448,37.630196 57.442623,37.814335 54.972839,37.616508 
	C54.235260,31.862051 51.585434,29.043898 45.785278,29.950745 
	C43.879349,30.248734 41.885445,29.984024 39.964397,29.611393 
	C39.876808,28.523886 39.756588,27.801611 39.636372,27.079338 
z"/>
<path fill="#EF7F38" opacity="1.000000" stroke="none" 
	d="
M57.877064,26.591129 
	C56.839108,27.063850 55.642406,27.223177 54.224754,27.192543 
	C50.319393,26.455217 46.634983,25.907848 41.892612,25.203306 
	C43.766777,23.220741 45.146683,21.761021 46.819519,20.125225 
	C52.186241,19.480360 54.554901,23.545006 57.877064,26.591129 
z"/>
<path fill="#E87934" opacity="1.000000" stroke="none" 
	d="
M14.905497,64.049759 
	C10.645299,59.882431 8.216768,54.117790 3.578407,50.272682 
	C6.640334,49.989849 9.315609,50.051754 11.993606,50.521164 
	C11.454843,56.426254 15.184222,59.953644 17.599998,63.937378 
	C16.445454,63.993347 15.675475,64.021553 14.905497,64.049759 
z"/>
<path fill="#EF7F38" opacity="1.000000" stroke="none" 
	d="
M54.999794,37.998474 
	C57.442623,37.814335 59.885448,37.630196 62.661850,37.236580 
	C63.443333,36.741165 63.891243,36.455219 64.920021,36.081173 
	C65.707886,36.007473 65.914879,36.021870 66.121864,36.036270 
	C66.740746,39.079666 67.359627,42.123058 67.911072,45.580616 
	C66.249161,45.080193 64.696930,44.079517 63.050159,43.271534 
	C60.678139,42.107704 58.237404,41.083927 55.414913,39.664532 
	C55.002487,38.885281 55.001141,38.441875 54.999794,37.998474 
z"/>
<path fill="#ED7E39" opacity="1.000000" stroke="none" 
	d="
M17.545776,23.106472 
	C18.419638,23.174431 18.979042,23.391850 19.768885,23.805212 
	C18.358028,26.338970 16.944185,28.893354 14.996238,30.939186 
	C13.676696,32.325031 11.606410,32.996048 9.506868,33.993111 
	C11.838335,30.418272 14.534829,26.837101 17.545776,23.106472 
z"/>
<path fill="#EF7C32" opacity="1.000000" stroke="none" 
	d="
M64.883865,33.047951 
	C64.942780,31.521500 64.538094,28.954981 65.154861,28.680063 
	C66.538353,28.063395 68.429451,28.585533 70.113861,28.643999 
	C69.998413,30.334948 69.882965,32.025898 69.099281,33.738632 
	C67.248657,33.522926 66.066261,33.285439 64.883865,33.047951 
z"/>
<path fill="#F3A371" opacity="1.000000" stroke="none" 
	d="
M14.983907,64.315498 
	C15.675475,64.021553 16.445454,63.993347 17.973408,63.963661 
	C19.476002,63.911213 20.220621,63.860249 21.368370,63.852730 
	C22.848539,63.893227 23.925581,63.890274 25.464041,63.915253 
	C29.640945,63.943188 33.356434,63.943188 37.071918,63.943188 
	C37.048523,64.121407 37.025127,64.299622 37.001728,64.477837 
	C32.334892,64.985298 27.668058,65.492760 22.762638,65.988556 
	C22.524052,65.976906 22.046623,65.959663 22.046623,65.959663 
	C20.283607,65.655785 18.520594,65.351898 16.370956,65.102127 
	C15.676994,64.964577 15.369656,64.772903 14.983907,64.315498 
z"/>
<path fill="#F3A371" opacity="1.000000" stroke="none" 
	d="
M11.990883,50.113663 
	C9.315609,50.051754 6.640334,49.989849 3.567570,49.902672 
	C3.032485,49.528328 3.128761,49.264488 3.678860,49.013832 
	C7.645694,48.933281 11.392577,48.924782 15.876867,49.006485 
	C16.100094,49.454254 15.585917,49.811821 14.689334,50.121681 
	C13.534914,50.087204 12.762898,50.100433 11.990883,50.113663 
z"/>
<path fill="#E47834" opacity="1.000000" stroke="none" 
	d="
M64.928726,33.409462 
	C66.066261,33.285439 67.248657,33.522926 68.764687,33.909004 
	C68.300323,34.640335 67.502319,35.223080 66.413094,35.921043 
	C65.914879,36.021870 65.707886,36.007473 65.190369,35.971817 
	C64.911102,35.224033 64.942352,34.497505 64.928726,33.409462 
z"/>
<path fill="#000000" opacity="1.000000" stroke="none" 
	d="
M228.876556,56.132576 
	C230.617889,56.358898 232.173828,56.779121 233.729752,57.199345 
	C233.543549,57.742111 233.357346,58.284878 233.171143,58.827644 
	C231.711151,58.289211 230.251144,57.750774 228.560791,56.968037 
	C228.450653,56.591316 228.570892,56.458900 228.876556,56.132576 
z"/>
<path fill="#000000" opacity="1.000000" stroke="none" 
	d="
M144.165344,56.534672 
	C141.953278,56.698982 139.395432,57.152340 138.020401,56.083733 
	C137.166611,55.420208 137.530899,52.078110 138.452637,50.651897 
	C139.018768,49.775944 141.963715,49.615284 143.321381,50.247753 
	C145.975983,51.484413 146.095047,53.836510 144.165344,56.534672 
z"/>
<path fill="#000000" opacity="1.000000" stroke="none" 
	d="
M114.012787,54.086601 
	C115.069595,52.101933 116.128189,50.506950 117.959152,47.748245 
	C119.790398,50.300167 121.584152,51.992718 122.219307,54.044006 
	C122.512878,54.992149 120.794083,57.409740 119.551094,57.811977 
	C116.925072,58.661762 114.725418,57.482964 114.012787,54.086601 
z"/>
<path fill="#000000" opacity="1.000000" stroke="none" 
	d="
M215.758972,55.535042 
	C213.618515,56.334660 211.400635,57.510124 209.777847,56.952785 
	C208.748764,56.599358 207.906555,53.493973 208.289215,51.946327 
	C208.587708,50.739094 210.902451,50.030392 212.321213,49.100159 
	C213.525284,51.125904 214.729355,53.151649 215.758972,55.535042 
z"/>
<path fill="#090707" opacity="1.000000" stroke="none" 
	d="
M15.071737,50.169388 
	C15.585917,49.811821 16.100094,49.454254 16.341072,48.957066 
	C16.662783,45.812065 17.257696,42.806683 18.051956,39.130295 
	C18.859497,36.981411 19.467695,35.503536 20.075893,34.025658 
	C20.335913,33.822369 20.595934,33.619083 21.221428,33.022797 
	C22.663570,32.439602 23.740242,32.249401 24.919724,32.301186 
	C25.323219,32.672493 25.623905,32.801807 25.863955,33.012550 
	C25.803320,33.093979 25.886591,33.279163 26.034798,33.621353 
	C28.870531,34.490128 31.685385,35.793468 34.218513,35.378216 
	C39.171444,34.566288 44.921181,36.896767 49.318504,32.232880 
	C50.387260,33.499088 51.126648,34.646431 51.734680,35.940804 
	C51.750195,36.373085 51.897064,36.658329 52.044498,36.956554 
	C52.045063,36.969532 52.070652,36.974079 52.065285,37.285400 
	C52.407791,38.064644 52.755669,38.532574 53.303345,39.132080 
	C53.675812,39.533607 53.874512,39.782799 54.099243,40.011238 
	C54.084641,40.189400 54.070038,40.367561 54.080635,40.699505 
	C54.105835,40.853291 53.894142,40.949581 53.737869,41.184906 
	C53.743156,42.278564 53.904713,43.136902 54.191399,43.990845 
	C54.316521,43.986450 54.464676,43.784576 54.464676,43.784576 
	C54.320007,45.208088 54.175335,46.631599 53.911781,48.749046 
	C53.782310,50.038158 53.771721,50.633331 53.544029,51.356155 
	C53.220406,51.911304 53.113880,52.338814 52.718231,53.039902 
	C50.226166,55.874138 48.348801,60.170898 45.756794,60.656994 
	C39.046154,61.915474 32.020531,61.494350 25.104107,61.401829 
	C22.413342,58.314304 19.739130,55.568760 16.967865,52.557590 
	C16.271120,51.584438 15.671428,50.876911 15.071737,50.169388 
M44.516850,54.946259 
	C49.694565,51.640980 50.754551,42.508018 46.119453,39.058369 
	C45.298481,38.447365 42.619205,39.048016 41.777073,39.976814 
	C38.423756,43.675236 39.564487,51.030605 44.516850,54.946259 
M30.961952,49.093029 
	C30.948616,44.913273 31.726654,40.428162 26.860882,38.065872 
	C21.006449,43.106895 21.325132,52.120251 27.861631,55.111485 
	C28.869379,53.427029 29.913649,51.681526 30.961952,49.093029 
z"/>
<path fill="#ED7E39" opacity="1.000000" stroke="none" 
	d="
M53.761127,51.228508 
	C53.771721,50.633331 53.782310,50.038158 53.941254,49.181427 
	C56.462399,48.545769 58.835197,48.171661 61.207993,47.797554 
	C55.589054,48.614979 54.646191,54.684761 54.940575,57.025162 
	C55.761456,63.551350 51.025791,64.942764 46.872711,67.922096 
	C39.038422,67.995277 32.007385,67.996429 24.976351,67.997581 
	C24.976351,67.997581 25.002144,67.997513 24.869640,67.806686 
	C24.524794,67.362450 24.274418,67.154907 23.986012,66.993248 
	C23.986012,66.993248 24.004744,66.995895 23.873821,66.803055 
	C23.537975,66.355446 23.290751,66.152115 23.001223,66.000214 
	C27.668058,65.492760 32.334892,64.985298 37.001728,64.477837 
	C37.025127,64.299622 37.048523,64.121407 37.071918,63.943188 
	C33.356434,63.943188 29.640945,63.943188 25.478685,63.558594 
	C25.061497,62.697269 25.091080,62.220539 25.120663,61.743813 
	C32.020531,61.494350 39.046154,61.915474 45.756794,60.656994 
	C48.348801,60.170898 50.226166,55.874138 52.900700,52.932472 
	C53.501896,52.110474 53.631512,51.669491 53.761127,51.228508 
z"/>
<path fill="#E47834" opacity="1.000000" stroke="none" 
	d="
M54.328712,40.007122 
	C53.874512,39.782799 53.675812,39.533607 53.304836,38.810127 
	C52.761238,37.895752 52.415947,37.434917 52.070652,36.974079 
	C52.070652,36.974079 52.045063,36.969532 52.071301,36.658012 
	C52.020374,36.162254 51.943207,35.978012 51.866035,35.793774 
	C51.126648,34.646431 50.387260,33.499088 48.986862,32.113365 
	C40.981476,34.506527 33.480362,34.633221 25.886591,33.279163 
	C25.886591,33.279163 25.803320,33.093979 25.701077,32.842262 
	C25.355793,32.387535 25.095154,32.210419 24.816912,32.059200 
	C23.740242,32.249401 22.663570,32.439602 21.279945,32.773796 
	C22.165255,28.328384 26.140511,29.622742 29.721401,29.369213 
	C33.460743,29.805731 36.696259,29.891178 39.931770,29.976625 
	C41.885445,29.984024 43.879349,30.248734 45.785278,29.950745 
	C51.585434,29.043898 54.235260,31.862051 54.972839,37.616508 
	C55.001141,38.441875 55.002487,38.885281 55.010460,39.661034 
	C55.017086,39.993385 54.558182,40.003006 54.328712,40.007122 
z"/>
<path fill="#F0945A" opacity="1.000000" stroke="none" 
	d="
M25.319714,68.232391 
	C32.007385,67.996429 39.038422,67.995277 46.538952,67.996811 
	C39.893322,68.155380 32.778198,68.311287 25.319714,68.232391 
z"/>
<path fill="#EF7F38" opacity="1.000000" stroke="none" 
	d="
M57.471542,46.697769 
	C56.805286,46.440697 56.378426,46.101223 55.951569,45.761749 
	C56.380741,45.587437 56.809914,45.413128 57.239086,45.238815 
	C57.396370,45.697666 57.553654,46.156521 57.471542,46.697769 
z"/>
<path fill="#E47834" opacity="1.000000" stroke="none" 
	d="
M54.162476,40.954845 
	C54.376995,41.819931 54.534870,42.583466 54.578712,43.565788 
	C54.464676,43.784576 54.316521,43.986450 54.287308,43.611626 
	C54.136776,42.474392 54.015461,41.711987 53.894142,40.949581 
	C53.894142,40.949581 54.105835,40.853291 54.162476,40.954845 
z"/>
<path fill="#F0945A" opacity="1.000000" stroke="none" 
	d="
M22.762638,65.988564 
	C23.290751,66.152115 23.537975,66.355446 23.874798,66.812469 
	C23.481644,66.805908 22.956589,66.597092 22.239079,66.173965 
	C22.046623,65.959663 22.524052,65.976906 22.762638,65.988564 
z"/>
<path fill="#F0945A" opacity="1.000000" stroke="none" 
	d="
M24.113770,67.204475 
	C24.274418,67.154907 24.524794,67.362450 24.875481,67.818192 
	C24.709412,67.878899 24.451979,67.677299 24.113770,67.204475 
z"/>
<path fill="#F5E6DD" opacity="1.000000" stroke="none" 
	d="
M39.964397,29.611393 
	C36.696259,29.891178 33.460743,29.805731 30.137342,29.371277 
	C30.422163,28.570271 30.794870,28.118275 31.216984,27.361923 
	C32.356960,24.620800 33.447529,22.184032 34.538097,19.747263 
	C35.026169,19.763029 35.514236,19.778797 36.002304,19.794563 
	C37.086914,22.033852 38.171520,24.273138 39.446251,26.795883 
	C39.756588,27.801611 39.876808,28.523886 39.964397,29.611393 
z"/>
<path fill="#ED7E39" opacity="1.000000" stroke="none" 
	d="
M19.722397,34.087265 
	C19.467695,35.503536 18.859497,36.981411 18.043386,38.737953 
	C17.021734,38.418621 16.207996,37.820629 15.394257,37.222637 
	C16.719137,36.198048 18.044020,35.173458 19.722397,34.087265 
z"/>
<path fill="#ED7E39" opacity="1.000000" stroke="none" 
	d="
M22.026684,24.335285 
	C22.647385,24.780504 23.296490,25.557045 23.974771,26.664650 
	C23.354330,26.219343 22.704710,25.442974 22.026684,24.335285 
z"/>
<path fill="#ED7E39" opacity="1.000000" stroke="none" 
	d="
M8.017229,39.011791 
	C7.438092,39.086838 6.858955,39.161880 6.099218,39.072765 
	C5.918620,38.908607 5.979224,38.984917 5.939596,38.955826 
	C6.363942,38.941242 6.827917,38.955750 7.646148,38.984940 
	C8.000404,38.999622 8.017229,39.011791 8.017229,39.011791 
z"/>
<path fill="#ED7E39" opacity="1.000000" stroke="none" 
	d="
M7.994262,38.991280 
	C7.988119,38.982933 8.129773,38.940186 8.073502,38.975990 
	C8.017229,39.011791 8.000404,38.999622 7.994262,38.991280 
z"/>
<path fill="#ED7C35" opacity="1.000000" stroke="none" 
	d="
M14.689333,50.121681 
	C15.671428,50.876911 16.271120,51.584438 16.956911,52.967552 
	C18.350422,57.031860 19.657831,60.420570 20.965242,63.809284 
	C20.220621,63.860249 19.476002,63.911213 18.357973,63.935894 
	C15.184222,59.953644 11.454843,56.426254 11.993606,50.521164 
	C12.762898,50.100433 13.534914,50.087204 14.689333,50.121681 
z"/>
<path fill="#EF7F38" opacity="1.000000" stroke="none" 
	d="
M21.368370,63.852730 
	C19.657831,60.420570 18.350422,57.031860 17.053965,53.233185 
	C19.739130,55.568760 22.413342,58.314304 25.104107,61.401829 
	C25.091080,62.220539 25.061497,62.697269 25.017269,63.530659 
	C23.925581,63.890274 22.848539,63.893227 21.368370,63.852730 
z"/>
<path fill="#EF7F36" opacity="1.000000" stroke="none" 
	d="
M44.130482,54.905487 
	C39.564487,51.030605 38.423756,43.675236 41.777073,39.976814 
	C42.619205,39.048016 45.298481,38.447365 46.119453,39.058369 
	C50.754551,42.508018 49.694565,51.640980 44.130482,54.905487 
z"/>
<path fill="#F18440" opacity="1.000000" stroke="none" 
	d="
M30.959934,49.514526 
	C29.913649,51.681526 28.869379,53.427029 27.861631,55.111485 
	C21.325132,52.120251 21.006449,43.106895 26.860882,38.065872 
	C31.726654,40.428162 30.948616,44.913273 30.959934,49.514526 
z"/>
<path fill="#3E322D" opacity="1.000000" stroke="none" 
	d="
M26.034798,33.621353 
	C33.480362,34.633221 40.981476,34.506527 48.657486,31.994505 
	C44.921181,36.896767 39.171444,34.566288 34.218513,35.378216 
	C31.685385,35.793468 28.870531,34.490128 26.034798,33.621353 
z"/>
<path fill="#3E322D" opacity="1.000000" stroke="none" 
	d="
M53.737869,41.184906 
	C54.015461,41.711987 54.136776,42.474392 54.162182,43.616020 
	C53.904713,43.136902 53.743156,42.278564 53.737869,41.184906 
z"/>
<path fill="#3E322D" opacity="1.000000" stroke="none" 
	d="
M52.065285,37.285400 
	C52.415947,37.434917 52.761238,37.895752 53.105042,38.678547 
	C52.755669,38.532574 52.407791,38.064644 52.065285,37.285400 
z"/>
<path fill="#E47834" opacity="1.000000" stroke="none" 
	d="
M53.544029,51.356155 
	C53.631512,51.669491 53.501896,52.110474 53.189819,52.658890 
	C53.113880,52.338814 53.220406,51.911304 53.544029,51.356155 
z"/>
<path fill="#3E322D" opacity="1.000000" stroke="none" 
	d="
M51.734680,35.940804 
	C51.943207,35.978012 52.020374,36.162254 52.070736,36.645035 
	C51.897064,36.658329 51.750195,36.373085 51.734680,35.940804 
z"/>
<path fill="#ED7E39" opacity="1.000000" stroke="none" 
	d="
M24.919724,32.301186 
	C25.095154,32.210419 25.355793,32.387535 25.761711,32.760838 
	C25.623905,32.801807 25.323219,32.672493 24.919724,32.301186 
z"/>
</svg>