<svg width="728" height="496" viewBox="0 0 728 496" fill="none" xmlns="http://www.w3.org/2000/svg">
<path d="M537.102 4.57799C510.428 8.9204 503.034 32.5437 523.69 49.3097C530.497 54.8425 540.204 59.4532 554.053 61.7501C606.815 70.502 634.798 47.1637 613.656 16.901C600.562 -1.77635 563.526 0.218826 537.102 4.57799Z" fill="#CCE1F7"/>
<path d="M366.279 411.741C238.387 411.741 126.525 406.157 65.8818 397.841C64.6229 397.734 63.3681 398.09 62.3536 398.844C61.3391 399.597 60.6347 400.694 60.3731 401.931C60.1114 403.167 60.3105 404.456 60.9329 405.555C61.5553 406.655 62.5581 407.489 63.7525 407.901C105.165 419.721 163.795 420.543 201.234 424.567C265.8 431.524 359.673 429.596 366.262 452.096C372.851 474.596 373.505 498.421 307.698 495.068C236.292 491.429 248.179 452.096 248.179 452.096C181.953 453.991 24.3524 438.482 6.91569 411.673C-10.3198 385.166 21.2674 379.047 22.0051 378.913C48.6799 365.5 192.65 355.172 366.262 355.172C558.837 355.172 714.995 367.83 714.995 383.439C714.995 399.049 558.853 411.741 366.279 411.741Z" fill="#FFE1CE"/>
<path d="M628.197 0H111.267C98.7665 0 88.6328 10.1337 88.6328 22.6341V325.965C88.6328 338.466 98.7665 348.599 111.267 348.599H628.197C640.698 348.599 650.831 338.466 650.831 325.965V22.6341C650.831 10.1337 640.698 0 628.197 0Z" fill="#294350"/>
<path d="M625.864 38.0585V310.54C625.864 314.391 624.334 318.084 621.611 320.807C618.889 323.53 615.195 325.059 611.345 325.059H128.131C124.872 325.063 121.707 323.971 119.144 321.958C118.498 321.447 117.893 320.886 117.334 320.281C114.93 317.609 113.615 314.134 113.645 310.54V38.0585C113.645 34.2077 115.175 30.5146 117.898 27.7917C120.621 25.0688 124.314 23.5391 128.164 23.5391H611.345C613.813 23.5376 616.24 24.1668 618.397 25.3669C620.554 26.567 622.368 28.2982 623.668 30.3964C625.109 32.6918 625.87 35.3483 625.864 38.0585Z" fill="white"/>
<path d="M289.441 227.783H269.573V253.384H220.952V227.783H143.66V195.843L206.902 104.301H258.424L202.207 188.818H222.444V166.033H269.573V188.818H289.374L289.441 227.783Z" fill="#F07C33"/>
<path d="M296.395 178.808C296.395 129.415 324.561 100.812 363.945 100.812C403.328 100.812 431.428 129.315 431.428 178.741C431.428 228.167 403.328 256.737 363.945 256.737C324.561 256.737 296.395 228.234 296.395 178.808ZM380.929 178.808C380.929 150.071 373.686 141.118 363.895 141.118C354.103 141.118 346.86 150.071 346.86 178.808C346.86 207.545 354.153 216.498 363.945 216.498C373.736 216.498 380.979 207.545 380.979 178.808H380.929Z" fill="#F07C33"/>
<path d="M588.122 227.783H568.322V253.384H519.566V227.783H442.258V195.843L505.499 104.301H557.021L500.822 188.818H521.058V166.033H568.322V188.818H588.122V227.783Z" fill="#F07C33"/>
<path d="M703.342 336.476V338.421C703.34 344.211 702.197 349.943 699.979 355.291C697.761 360.639 694.511 365.498 690.414 369.59C686.318 373.681 681.456 376.926 676.105 379.138C670.754 381.35 665.02 382.486 659.231 382.482H80.2493C74.4551 382.484 68.7172 381.345 63.3634 379.129C58.0097 376.913 53.1449 373.664 49.047 369.568C44.9491 365.472 41.6983 360.608 39.4805 355.255C37.2626 349.902 36.1211 344.165 36.1211 338.371V336.426L703.342 336.476Z" fill="#294350"/>
<g style="mix-blend-mode:screen">
<path d="M294.949 336.477V336.912C294.949 340.417 297.28 343.25 300.18 343.25H436.387C439.271 343.25 441.602 340.417 441.602 336.912V336.477H294.949Z" fill="#01305A"/>
</g>
<path opacity="0.2" d="M625.864 38.0585V54.1371H113.645V38.0585C113.634 35.0877 114.548 32.1873 116.26 29.7592C117.595 27.8384 119.375 26.2694 121.448 25.1862C123.521 24.103 125.825 23.5378 128.164 23.5391H611.344C615.191 23.5523 618.876 25.0863 621.596 27.8063C624.316 30.5264 625.85 34.2118 625.864 38.0585Z" fill="#01305A"/>
<path d="M502.115 35.5625H230.422C229.727 35.5625 229.164 36.1255 229.164 36.82V42.4366C229.164 43.131 229.727 43.694 230.422 43.694H502.115C502.81 43.694 503.372 43.131 503.372 42.4366V36.82C503.372 36.1255 502.81 35.5625 502.115 35.5625Z" fill="white"/>
<path d="M163.691 39.6153V42.6332C163.69 42.8292 163.638 43.0214 163.54 43.191C163.442 43.3605 163.301 43.5015 163.132 43.5998C162.962 43.6981 162.77 43.7503 162.574 43.7514C162.378 43.7524 162.185 43.7022 162.015 43.6057L159.399 42.0967L156.784 40.5878C156.613 40.4891 156.471 40.3473 156.373 40.1767C156.274 40.006 156.223 39.8124 156.223 39.6153C156.223 39.4183 156.274 39.2247 156.373 39.054C156.471 38.8833 156.613 38.7416 156.784 38.6429L159.399 37.1507L162.015 35.6418C162.185 35.5453 162.378 35.4951 162.574 35.4961C162.77 35.4971 162.962 35.5494 163.132 35.6477C163.301 35.746 163.442 35.8869 163.54 36.0565C163.638 36.226 163.69 36.4183 163.691 36.6142V39.6153Z" fill="#01305A"/>
<path d="M177.355 39.6153V42.6332C177.356 42.8292 177.409 43.0214 177.507 43.191C177.605 43.3605 177.746 43.5015 177.915 43.5998C178.085 43.6981 178.277 43.7503 178.473 43.7514C178.669 43.7524 178.862 43.7022 179.032 43.6057L181.648 42.0967L184.246 40.5878C184.417 40.4891 184.559 40.3473 184.657 40.1767C184.755 40.006 184.807 39.8124 184.807 39.6153C184.807 39.4183 184.755 39.2247 184.657 39.054C184.559 38.8833 184.417 38.7416 184.246 38.6429L181.648 37.1507L179.032 35.6418C178.862 35.5453 178.669 35.4951 178.473 35.4961C178.277 35.4971 178.085 35.5494 177.915 35.6477C177.746 35.746 177.605 35.8869 177.507 36.0565C177.409 36.226 177.356 36.4183 177.355 36.6142V39.6153Z" fill="#01305A"/>
<path opacity="0.2" d="M623.231 29.7593H116.227C117.561 27.8385 119.341 26.2694 121.414 25.1862C123.487 24.103 125.791 23.5378 128.13 23.5391H611.344C613.681 23.5363 615.984 24.1009 618.054 25.1843C620.125 26.2678 621.901 27.8377 623.231 29.7593Z" fill="#01305A"/>
<path opacity="0.1" d="M521.056 301.788H211.555C208.647 301.788 205.858 300.633 203.801 298.577C201.745 296.52 200.59 293.731 200.59 290.823C200.59 289.384 200.874 287.959 201.425 286.63C201.976 285.3 202.784 284.093 203.802 283.076C204.821 282.059 206.03 281.253 207.36 280.704C208.69 280.154 210.116 279.873 211.555 279.875H521.056C522.495 279.873 523.92 280.154 525.251 280.704C526.581 281.253 527.79 282.059 528.808 283.076C529.827 284.093 530.635 285.3 531.186 286.63C531.737 287.959 532.021 289.384 532.021 290.823C532.021 293.731 530.866 296.52 528.809 298.577C526.753 300.633 523.964 301.788 521.056 301.788Z" fill="#01305A"/>
<path d="M563.177 249.512C561.07 253.588 558.759 257.555 556.253 261.399C539.638 286.548 527.281 281.166 520.642 273.403C518.501 270.901 516.728 268.107 515.377 265.104C513.953 261.988 512.977 258.686 512.477 255.296L515.562 256C519.217 257.677 525.269 259.991 529.762 259.353C530.334 259.264 530.896 259.118 531.439 258.917C535.463 257.392 540.945 249.478 544.651 243.442C547.082 239.502 548.758 236.367 548.758 236.367L563.177 249.512Z" fill="#FFC0AD"/>
<path d="M563.181 249.508C561.074 253.584 558.763 257.552 556.257 261.395C551.637 255.881 547.728 249.809 544.621 243.321C547.052 239.381 548.729 236.246 548.729 236.246L563.181 249.508Z" fill="#FDA084"/>
<path d="M533.35 260.095C533.35 260.095 529.997 270.372 515.377 265.125C513.953 262.008 512.977 258.706 512.477 255.316L515.562 256.021C519.217 257.697 525.269 260.011 529.762 259.374L533.35 260.095Z" fill="#FDA084"/>
<path d="M669.642 286.329C666.288 305.677 650.562 291.476 649.204 276.37C648.917 272.974 648.806 269.566 648.869 266.159C648.869 263.041 649.087 260.023 649.304 257.29C649.304 256.77 649.305 256.251 649.422 255.748C650.009 249.175 650.83 244.565 650.83 244.565L661.125 231.906C661.125 231.906 662.315 235.461 663.857 240.91C665.266 245.939 666.959 252.646 668.25 259.637C668.636 261.767 668.988 263.913 669.29 266.059C670.411 272.761 670.529 279.592 669.642 286.329Z" fill="#FFC0AD"/>
<path d="M663.858 240.91C660.806 246.526 655.776 253.97 649.305 257.29C649.305 256.77 649.305 256.251 649.422 255.748C650.009 249.175 650.83 244.565 650.83 244.565L661.125 231.906C661.125 231.906 662.315 235.461 663.858 240.91Z" fill="#FDA084"/>
<path d="M669.284 266.061C665.562 268.325 653.357 267.251 648.863 266.162C648.863 262.44 649.148 258.868 649.417 255.75L668.245 259.64C668.597 261.769 668.983 263.915 669.284 266.061Z" fill="#FDA084"/>
<path d="M561.078 201.406C561.078 201.406 546.19 227.695 543.742 236.615C543.742 236.615 553.902 253.616 563.14 255.493L566.494 243.908C566.494 243.908 566.913 207.559 561.078 201.406Z" fill="#FAA26A"/>
<path d="M593.772 187.861L561.078 201.408L575.53 313.472C575.53 313.472 620.547 319.793 643.818 313.472V201.408L611.963 187.207L593.772 187.861Z" fill="#FAA26A"/>
<path d="M587.098 248.924C593.663 255.707 601.924 260.61 611.023 263.124C611.122 263.152 611.225 263.157 611.326 263.141C611.427 263.124 611.523 263.086 611.607 263.028C611.692 262.971 611.763 262.896 611.815 262.808C611.868 262.721 611.901 262.623 611.912 262.521C611.93 262.356 611.89 262.19 611.798 262.052C611.706 261.914 611.568 261.813 611.409 261.766C602.545 259.318 594.499 254.542 588.104 247.934C588.012 247.843 587.897 247.78 587.771 247.75C587.646 247.72 587.514 247.725 587.391 247.765C587.268 247.805 587.159 247.877 587.075 247.975C586.99 248.073 586.935 248.193 586.914 248.32C586.894 248.428 586.9 248.539 586.932 248.644C586.964 248.749 587.021 248.845 587.098 248.924Z" fill="#F07C33"/>
<path d="M587.368 238.298C587.368 238.41 587.397 238.52 587.452 238.617C587.837 239.292 588.257 239.947 588.71 240.579C592.601 246.017 598.311 249.882 604.805 251.476H604.973C605.131 251.483 605.286 251.429 605.408 251.327C605.529 251.225 605.608 251.081 605.629 250.924C605.65 250.767 605.611 250.607 605.521 250.477C605.431 250.347 605.295 250.255 605.14 250.219C601.697 249.378 598.458 247.855 595.613 245.742C592.768 243.628 590.375 240.966 588.576 237.913C588.498 237.79 588.383 237.695 588.246 237.645C588.11 237.595 587.961 237.592 587.822 237.636C587.684 237.681 587.564 237.77 587.482 237.89C587.4 238.01 587.36 238.153 587.368 238.298Z" fill="#F07C33"/>
<path d="M588.542 209.123C588.547 209.213 588.572 209.301 588.614 209.381C588.656 209.461 588.715 209.531 588.787 209.586C588.858 209.642 588.94 209.682 589.028 209.703C589.116 209.724 589.207 209.726 589.296 209.71C595.812 208.396 601.962 205.679 607.32 201.746C610.589 199.408 613.527 196.638 616.055 193.514C616.155 193.375 616.198 193.203 616.173 193.033C616.148 192.864 616.057 192.711 615.921 192.608C615.853 192.556 615.775 192.518 615.693 192.497C615.61 192.476 615.524 192.471 615.44 192.483C615.355 192.496 615.274 192.525 615.201 192.57C615.128 192.614 615.065 192.673 615.015 192.742C608.374 200.745 599.231 206.278 589.062 208.452C588.906 208.477 588.766 208.56 588.669 208.685C588.573 208.809 588.527 208.966 588.542 209.123Z" fill="#F07C33"/>
<path d="M538.315 384.736L541.819 366.695H529.831L526.914 383.73C528.637 384.689 530.543 385.274 532.507 385.448C534.472 385.621 536.451 385.378 538.315 384.736Z" fill="#FFC0AD"/>
<path d="M530.1 384.544C530.1 384.544 527.451 381.057 525.372 381.191C523.293 381.325 507.366 394.319 501.9 395.426C496.434 396.532 497.524 400.59 498.547 402.652C499.569 404.714 542.44 401.361 542.44 401.361C542.44 401.361 543.48 388.585 542.021 384.695C540.562 380.806 534.476 385.433 530.1 384.544Z" fill="#00528A"/>
<path d="M521.332 393.57C521.526 393.645 521.742 393.645 521.936 393.57C522.111 393.466 522.238 393.296 522.288 393.098C522.339 392.9 522.308 392.69 522.204 392.514C521.224 390.812 519.828 389.388 518.147 388.373C517.296 387.923 516.338 387.715 515.378 387.771C514.417 387.827 513.49 388.145 512.698 388.691C512.537 388.814 512.43 388.996 512.402 389.197C512.374 389.398 512.426 389.602 512.547 389.764C512.673 389.927 512.857 390.033 513.061 390.061C513.265 390.09 513.471 390.037 513.637 389.915C514.204 389.548 514.86 389.341 515.536 389.314C516.211 389.288 516.881 389.443 517.476 389.764C518.85 390.664 519.998 391.869 520.829 393.285C520.889 393.365 520.964 393.431 521.051 393.48C521.137 393.529 521.233 393.56 521.332 393.57Z" fill="white"/>
<path d="M523.594 391.367C523.788 391.441 524.003 391.441 524.198 391.367C524.286 391.316 524.363 391.249 524.426 391.168C524.488 391.088 524.533 390.996 524.56 390.898C524.586 390.8 524.593 390.697 524.58 390.596C524.567 390.495 524.534 390.398 524.483 390.31C523.498 388.612 522.103 387.188 520.425 386.169C519.572 385.719 518.611 385.511 517.648 385.568C516.685 385.624 515.755 385.942 514.96 386.488C514.879 386.548 514.812 386.625 514.761 386.712C514.711 386.799 514.678 386.896 514.666 386.996C514.653 387.096 514.661 387.197 514.689 387.294C514.716 387.391 514.762 387.482 514.825 387.561C514.949 387.722 515.13 387.828 515.331 387.856C515.532 387.885 515.736 387.833 515.898 387.712C516.467 387.347 517.121 387.14 517.796 387.11C518.47 387.081 519.14 387.23 519.738 387.544C521.123 388.437 522.273 389.65 523.091 391.082C523.215 391.238 523.396 391.34 523.594 391.367Z" fill="white"/>
<path d="M518.225 395.363C518.321 395.404 518.423 395.426 518.527 395.426C518.631 395.426 518.734 395.404 518.829 395.363C518.917 395.312 518.995 395.245 519.057 395.164C519.119 395.084 519.165 394.992 519.191 394.894C519.218 394.796 519.225 394.693 519.211 394.592C519.198 394.492 519.165 394.394 519.114 394.306C518.111 392.617 516.713 391.196 515.04 390.165C514.188 389.721 513.231 389.515 512.271 389.572C511.312 389.628 510.385 389.943 509.591 390.484C509.511 390.545 509.443 390.622 509.392 390.71C509.342 390.798 509.309 390.895 509.296 390.995C509.282 391.095 509.289 391.197 509.315 391.295C509.342 391.393 509.387 391.485 509.448 391.565C509.51 391.646 509.587 391.713 509.675 391.764C509.762 391.814 509.859 391.847 509.96 391.86C510.06 391.874 510.162 391.867 510.26 391.841C510.358 391.815 510.449 391.769 510.53 391.708C511.098 391.341 511.753 391.133 512.429 391.107C513.104 391.08 513.774 391.236 514.369 391.557C515.748 392.451 516.897 393.657 517.722 395.078C517.782 395.157 517.858 395.224 517.944 395.273C518.031 395.322 518.126 395.352 518.225 395.363Z" fill="white"/>
<path d="M592.684 302.195C592.684 302.195 572.179 251.277 559.437 253.272C539.687 256.39 526.492 316.983 528.101 373.552L541.648 374.323C541.648 374.323 556.738 321.057 559.521 307.091C559.521 307.091 569.983 343.356 593.506 338.309C610.926 334.57 599.575 316.731 592.684 302.195Z" fill="#263238"/>
<path d="M540.032 371.99L538.355 371.688C538.355 371.487 541.994 351.67 546.37 331.634C555.272 290.775 558.626 288.864 559.782 288.227C560.099 288.026 560.459 287.904 560.833 287.872C561.206 287.84 561.582 287.898 561.929 288.042C564.158 289.015 565.282 293.793 566.958 301.003C569.708 312.739 573.464 328.65 583.808 335.339L582.903 336.765C571.955 329.706 568.115 313.292 565.315 301.388C563.957 295.654 562.683 290.239 561.241 289.652C561.157 289.652 560.973 289.535 560.604 289.753C555.993 292.318 545.783 340.352 540.032 371.99Z" fill="#F07C33"/>
<path d="M526.763 369.387L543.361 370.778L543.68 370.812L542.774 376.311L526.461 375.171L526.763 369.387Z" fill="#F07C33"/>
<path d="M587.435 338.561C587.435 338.561 611.276 343.138 642.897 337.454C640.53 324.954 634.156 313.566 624.739 305.012L582.103 308.097C579.421 318.156 581.416 328.316 587.435 338.561Z" fill="#263238"/>
<path d="M580.626 380.703C578.264 380.15 575.866 379.769 573.45 379.562C571.907 379.663 562.082 391.684 558.629 392.506C552.375 394.032 552.794 403.89 556.667 404.242C567.833 405.164 586.645 399.615 586.645 399.615C586.645 399.615 587.818 386.889 586.896 382.949C585.974 379.009 583.794 381.725 580.626 380.703Z" fill="#00528A"/>
<path d="M583.965 381.564L588.107 365.352H576.136L573.453 380.994C573.453 380.994 577.36 383.677 583.965 381.564Z" fill="#FFC0AD"/>
<path d="M571.909 391.905C572.013 391.924 572.12 391.922 572.224 391.899C572.328 391.876 572.426 391.832 572.512 391.771C572.673 391.648 572.78 391.466 572.808 391.265C572.836 391.064 572.784 390.86 572.663 390.698C571.498 389.117 569.96 387.85 568.187 387.009C567.291 386.659 566.318 386.559 565.371 386.718C564.423 386.878 563.536 387.291 562.805 387.914C562.664 388.061 562.586 388.256 562.586 388.459C562.586 388.662 562.664 388.858 562.805 389.004C562.949 389.149 563.145 389.23 563.35 389.23C563.554 389.23 563.75 389.149 563.894 389.004C564.423 388.584 565.054 388.311 565.723 388.214C566.391 388.117 567.074 388.199 567.7 388.451C569.183 389.184 570.47 390.258 571.456 391.586C571.564 391.743 571.725 391.855 571.909 391.905Z" fill="white"/>
<path d="M573.941 389.495C574.044 389.511 574.15 389.507 574.251 389.481C574.352 389.455 574.446 389.408 574.528 389.344C574.611 389.285 574.682 389.211 574.735 389.125C574.789 389.039 574.824 388.943 574.84 388.843C574.856 388.743 574.851 388.64 574.826 388.542C574.801 388.444 574.757 388.351 574.696 388.271C573.534 386.692 571.995 385.43 570.219 384.599C569.326 384.245 568.353 384.141 567.405 384.297C566.457 384.454 565.57 384.865 564.837 385.487C564.695 385.629 564.613 385.821 564.609 386.022C564.606 386.223 564.681 386.417 564.819 386.563C564.956 386.71 565.146 386.797 565.347 386.806C565.547 386.814 565.744 386.745 565.894 386.611C566.42 386.186 567.05 385.91 567.719 385.809C568.388 385.709 569.072 385.789 569.7 386.041C571.188 386.772 572.476 387.854 573.455 389.193C573.577 389.347 573.749 389.454 573.941 389.495Z" fill="white"/>
<path d="M569.023 394.021C569.128 394.04 569.235 394.038 569.339 394.015C569.443 393.992 569.541 393.949 569.627 393.887C569.788 393.764 569.894 393.582 569.923 393.381C569.951 393.18 569.899 392.976 569.778 392.814C568.613 391.233 567.075 389.966 565.301 389.125C564.406 388.779 563.433 388.68 562.486 388.84C561.539 388.999 560.653 389.41 559.92 390.031C559.777 390.172 559.695 390.364 559.692 390.565C559.688 390.766 559.763 390.96 559.901 391.106C560.038 391.253 560.228 391.34 560.429 391.349C560.629 391.357 560.826 391.288 560.976 391.154C561.501 390.726 562.131 390.447 562.801 390.347C563.47 390.247 564.155 390.328 564.782 390.584C566.264 391.317 567.551 392.391 568.537 393.719C568.657 393.876 568.83 393.983 569.023 394.021Z" fill="white"/>
<path d="M639.98 338.293C636.356 339.127 632.568 338.906 629.066 337.656C613.272 332.023 606.012 307.041 606.012 307.041C603.296 321.007 587.57 374.239 587.57 374.239L585.122 373.921L583.445 373.686L574.173 372.462C572.346 317.721 586.195 256.341 605.928 253.222C618.671 251.21 639.192 302.145 639.192 302.145C646.049 316.732 657.4 334.571 639.98 338.293Z" fill="#263238"/>
<path d="M631.549 338.363C630.707 338.181 629.879 337.946 629.067 337.659C623.25 328.303 620.232 315.226 617.784 304.697C615.856 296.314 614.011 288.4 611.614 287.042C611.44 286.941 611.246 286.881 611.045 286.867C610.845 286.852 610.644 286.883 610.457 286.958C608.412 287.612 603.6 294.402 594.328 332.226C589.919 350.283 586.247 368.257 585.124 373.94C584.889 375.08 584.755 375.734 584.755 375.768L583.078 375.449C583.078 375.449 583.196 374.812 583.413 373.773C584.537 368.206 588.209 350.082 592.668 331.858C603.549 287.428 608.345 285.852 609.921 285.332C610.329 285.19 610.764 285.137 611.195 285.177C611.626 285.218 612.043 285.351 612.419 285.567C615.487 287.243 617.13 294.436 619.427 304.311C621.992 315.427 625.211 329.242 631.549 338.363Z" fill="#F07C33"/>
<path d="M573.052 368.648L589.432 371.633L589.751 371.7L588.309 377.082L572.18 374.366L573.052 368.648Z" fill="#F07C33"/>
<path d="M643.823 201.406L665.032 232.122C665.032 232.122 655.61 249.877 646.388 251.738C646.388 251.738 636.781 234.972 635.658 226.388C634.535 217.803 640.52 202.094 643.823 201.406Z" fill="#FAA26A"/>
<path d="M583.094 153.824C583.094 165.745 590.437 173.943 602.358 173.943C614.279 173.943 622.595 165.124 622.595 153.204C622.595 141.283 615.536 132.246 603.615 132.246C589.23 132.263 583.094 141.92 583.094 153.824Z" fill="#01305A"/>
<path d="M583.711 147.256C583.711 147.256 574.842 138.471 578.162 134.329C581.481 130.188 585.807 134.145 587.132 130.188C588.456 126.231 588.959 121.151 594.358 123.213C599.756 125.276 599.991 128.679 605.138 125.661C610.285 122.643 609.162 127.74 613.689 130.004C618.216 132.267 621.368 131.882 620.63 136.207C619.892 140.533 624.972 141.438 622.893 146.267C620.814 151.095 618.383 148.631 618.383 148.631L583.711 147.256Z" fill="#01305A"/>
<path d="M585.699 158.971C585.699 158.971 582.345 154.545 579.931 158.2C577.517 161.855 580.954 172.636 586.973 169.936L585.699 158.971Z" fill="#FDA084"/>
<path d="M585.662 166.673C585.549 166.675 585.439 166.639 585.349 166.573C585.258 166.506 585.191 166.412 585.159 166.304C584.798 165.255 584.218 164.293 583.458 163.484C582.698 162.675 581.774 162.036 580.749 161.61C580.686 161.588 580.628 161.553 580.578 161.508C580.528 161.462 580.488 161.408 580.46 161.347C580.432 161.286 580.417 161.22 580.414 161.153C580.412 161.086 580.423 161.019 580.447 160.956C580.47 160.893 580.505 160.835 580.55 160.785C580.595 160.736 580.65 160.696 580.711 160.667C580.772 160.639 580.837 160.624 580.905 160.621C580.972 160.619 581.038 160.63 581.101 160.654C582.279 161.134 583.339 161.863 584.207 162.793C585.076 163.722 585.732 164.829 586.131 166.036C586.149 166.1 586.154 166.167 586.146 166.233C586.138 166.298 586.117 166.362 586.084 166.42C586.051 166.477 586.007 166.528 585.955 166.569C585.903 166.609 585.843 166.639 585.779 166.657L585.662 166.673Z" fill="#FF7972"/>
<path d="M582.172 164.991C582.075 164.996 581.98 164.967 581.903 164.907C581.845 164.873 581.794 164.827 581.754 164.773C581.714 164.718 581.686 164.656 581.67 164.591C581.654 164.525 581.652 164.457 581.663 164.39C581.675 164.324 581.699 164.26 581.736 164.203C582.232 163.536 582.89 163.005 583.647 162.661C583.774 162.609 583.916 162.608 584.044 162.658C584.172 162.708 584.276 162.805 584.334 162.929C584.385 163.054 584.386 163.193 584.336 163.318C584.286 163.444 584.189 163.544 584.066 163.6C583.486 163.849 582.982 164.248 582.607 164.756C582.56 164.829 582.495 164.888 582.419 164.929C582.343 164.97 582.258 164.991 582.172 164.991Z" fill="#FF7972"/>
<path d="M619.833 158.971C619.833 158.971 623.186 154.545 625.6 158.2C628.015 161.855 624.578 172.636 618.559 169.936L619.833 158.971Z" fill="#FDA084"/>
<path d="M619.863 166.673C619.975 166.675 620.085 166.639 620.176 166.573C620.267 166.506 620.333 166.412 620.366 166.304C620.727 165.255 621.307 164.293 622.067 163.484C622.827 162.675 623.75 162.036 624.775 161.61C624.839 161.588 624.897 161.553 624.946 161.508C624.996 161.462 625.036 161.408 625.064 161.347C625.092 161.286 625.108 161.22 625.11 161.153C625.112 161.086 625.101 161.019 625.077 160.956C625.055 160.893 625.02 160.835 624.975 160.785C624.929 160.736 624.875 160.696 624.814 160.667C624.753 160.639 624.687 160.624 624.62 160.621C624.553 160.619 624.486 160.63 624.423 160.654C623.245 161.134 622.185 161.863 621.317 162.793C620.449 163.722 619.792 164.829 619.393 166.036C619.376 166.1 619.371 166.167 619.379 166.233C619.387 166.298 619.408 166.362 619.441 166.42C619.473 166.477 619.517 166.528 619.569 166.569C619.622 166.609 619.682 166.639 619.746 166.657L619.863 166.673Z" fill="#FF7972"/>
<path d="M623.334 164.991C623.431 164.996 623.526 164.967 623.602 164.907C623.661 164.873 623.711 164.827 623.751 164.773C623.791 164.718 623.82 164.656 623.836 164.591C623.851 164.525 623.854 164.457 623.842 164.39C623.831 164.324 623.807 164.26 623.77 164.203C623.273 163.536 622.616 163.005 621.859 162.661C621.732 162.609 621.59 162.608 621.462 162.658C621.334 162.708 621.23 162.805 621.171 162.929C621.12 163.054 621.12 163.193 621.17 163.318C621.22 163.444 621.317 163.544 621.44 163.6C622.02 163.849 622.523 164.248 622.898 164.756C622.946 164.829 623.01 164.888 623.087 164.929C623.163 164.97 623.248 164.991 623.334 164.991Z" fill="#FF7972"/>
<path d="M610.907 179.16V189.874C610.907 189.874 607.704 195.339 603.379 195.708C599.053 196.077 595.23 191.014 595.23 191.014V179.915L610.907 179.16Z" fill="#FFC0AD"/>
<path d="M610.907 179.16V183.905C608.006 187.141 602.859 187.946 595.23 186.805V179.915L610.907 179.16Z" fill="#FDA084"/>
<path d="M583.927 158.623C584.078 160.99 584.363 163.347 584.782 165.681C586.224 173.595 589.46 181.374 596.519 183.856C612.312 189.506 617.962 175.959 620.226 168.045C620.477 167.174 620.695 166.201 620.896 165.162C621.248 163.267 621.534 161.171 621.751 159.059C622.003 156.494 622.171 153.895 622.288 151.615C622.398 149.269 621.765 146.948 620.48 144.982C619.194 143.017 617.322 141.507 615.129 140.666C608.657 138.168 598.816 136.207 589.477 141.488C587.785 142.447 586.372 143.828 585.376 145.498C584.379 147.167 583.834 149.067 583.793 151.011C583.693 153.174 583.726 155.789 583.927 158.623Z" fill="#FFC0AD"/>
<path d="M583.926 158.621C584.076 160.988 584.362 163.345 584.781 165.68C586.223 173.593 589.459 181.373 596.517 183.854C612.311 189.504 617.961 175.957 620.224 168.044C620.476 167.172 620.694 166.199 620.895 165.16C621.247 163.265 621.532 161.17 621.75 159.057H619.436C618.95 160.532 616.385 169.485 615.546 170.793C613.753 166.484 604.632 169.335 604.632 169.335C604.089 169.505 603.524 169.595 602.955 169.603C602.385 169.593 601.82 169.497 601.279 169.318C601.279 169.318 592.258 166.333 590.397 170.441C589.576 169.167 586.608 160.029 586.072 159.057L583.926 158.621ZM602.804 171.229C613.115 169.838 611.489 175.404 611.489 175.404C610.602 176.229 609.636 176.965 608.605 177.6C606.762 178.691 604.661 179.269 602.519 179.277C600.943 179.193 600.507 179.528 596.5 177.366C595.723 176.905 595.013 176.341 594.388 175.689C594.203 174.683 592.46 169.553 602.804 171.229Z" fill="#01305A"/>
<path d="M595.988 160.368C595.988 161.508 595.401 162.447 594.663 162.447C593.926 162.447 593.355 161.508 593.355 160.368C593.355 159.228 593.942 158.289 594.663 158.289C595.384 158.289 595.988 159.228 595.988 160.368Z" fill="#01305A"/>
<path d="M611.589 160.337C611.589 161.477 611.003 162.399 610.282 162.399C609.561 162.399 608.957 161.477 608.957 160.337C608.957 159.197 609.544 158.258 610.282 158.258C611.019 158.258 611.589 159.18 611.589 160.337Z" fill="#01305A"/>
<path d="M588.995 155.301C588.995 155.301 593.321 151.947 597.512 152.584L597.713 154.764C597.713 154.764 592.097 155.837 589.632 157.732C589.144 157.02 588.919 156.16 588.995 155.301Z" fill="#01305A"/>
<path d="M615.941 155.301C615.941 155.301 611.615 151.947 607.424 152.584L607.223 154.764C607.223 154.764 612.839 155.837 615.304 157.732C615.792 157.02 616.017 156.16 615.941 155.301Z" fill="#01305A"/>
<path d="M602.947 168.395C603.581 168.378 604.207 168.242 604.791 167.993C604.853 167.969 604.909 167.933 604.956 167.886C605.004 167.84 605.041 167.785 605.066 167.723C605.091 167.662 605.103 167.597 605.102 167.53C605.101 167.464 605.087 167.399 605.059 167.339C605.035 167.277 604.999 167.221 604.953 167.173C604.907 167.125 604.852 167.087 604.792 167.06C604.731 167.034 604.665 167.02 604.599 167.018C604.533 167.017 604.467 167.029 604.405 167.054C603.936 167.238 602.829 167.54 602.36 167.255C602.281 167.201 602.216 167.129 602.172 167.044C602.128 166.959 602.106 166.864 602.108 166.769C601.924 164.991 602.41 159.04 602.41 158.972C602.42 158.837 602.376 158.704 602.288 158.6C602.2 158.497 602.076 158.432 601.941 158.419C601.875 158.415 601.808 158.423 601.746 158.444C601.683 158.465 601.625 158.499 601.575 158.542C601.525 158.586 601.484 158.639 601.455 158.698C601.426 158.758 601.409 158.823 601.404 158.889C601.154 161.547 601.047 164.216 601.086 166.886C601.109 167.135 601.187 167.375 601.314 167.59C601.442 167.804 601.616 167.988 601.823 168.127C602.166 168.317 602.555 168.41 602.947 168.395Z" fill="#FDA084"/>
<path d="M602.24 172.117C601.481 172.136 600.759 172.442 600.218 172.975C599.678 173.507 599.36 174.225 599.33 174.983C599.301 175.741 599.56 176.482 600.057 177.055C600.554 177.628 601.251 177.991 602.005 178.069H602.877C603.631 177.992 604.327 177.631 604.824 177.059C605.322 176.488 605.583 175.748 605.555 174.991C605.528 174.234 605.213 173.516 604.675 172.982C604.137 172.448 603.416 172.139 602.659 172.117H602.24Z" fill="white"/>
<path d="M621.657 159.059H619.343C619.595 156.745 619.963 152.654 618.052 152.067C612.033 150.223 619.829 145.981 617.113 143.852C614.397 141.723 607.64 142.645 602.946 142.494C598.216 142.262 593.476 142.374 588.762 142.829C586.918 143.248 587.94 146.316 588.611 148.697C589.282 151.078 586.348 153.727 585.845 156.158C585.726 157.121 585.726 158.095 585.845 159.059H583.933C583.699 156.058 583.665 153.274 583.699 151.011C583.739 149.067 584.285 147.167 585.281 145.498C586.277 143.828 587.691 142.446 589.382 141.488C598.721 136.207 608.563 138.135 615.034 140.666C617.227 141.507 619.1 143.017 620.385 144.982C621.67 146.948 622.303 149.269 622.193 151.615C622.11 153.895 621.942 156.493 621.657 159.059Z" fill="#01305A"/>
<path d="M726.958 337.367C724.091 348.533 716.077 357.017 703.804 361.879C700.854 363.038 697.815 363.958 694.717 364.629L695.002 364.243C696.922 361.594 698.536 358.737 699.813 355.726C707.928 352.775 717.133 346.974 720.05 335.607C722.85 324.675 718.373 308.295 708.532 293.909C700.752 282.509 683.098 262.808 652.231 258.986C625.288 255.633 607.785 259.757 592.326 263.362C579.199 266.43 566.809 269.33 551.635 266.715C542.383 264.981 533.28 262.531 524.407 259.388C510.525 254.794 501.354 251.76 486.801 257.712C462.239 267.771 451.274 309.485 451.173 309.904L444.266 308.144C444.752 306.283 456.203 262.54 484.085 251.139C501.086 244.181 512.369 247.903 526.654 252.631C535.209 255.649 543.988 257.992 552.909 259.64C566.658 262.054 577.824 259.438 590.767 256.404C606.779 252.665 624.953 248.423 653.154 251.911C666.198 253.48 678.696 258.073 689.653 265.323C699.42 271.834 707.844 280.161 714.467 289.852C725.482 306.132 730.294 324.323 726.958 337.367Z" fill="#294350"/>
<path d="M383.574 375.776L399.552 325.243C402.83 314.929 410.065 306.336 419.671 301.351C429.277 296.366 440.469 295.395 450.789 298.652C455.91 300.266 460.662 302.873 464.774 306.325C468.886 309.777 472.278 314.005 474.755 318.768C477.233 323.531 478.747 328.735 479.212 334.084C479.677 339.433 479.083 344.821 477.464 349.939L461.486 400.456L383.574 375.776Z" fill="#F07C33"/>
<path d="M383.594 375.524L394.099 343.259C397.376 332.944 404.612 324.352 414.218 319.367C423.824 314.381 435.015 313.411 445.336 316.668C450.456 318.282 455.208 320.889 459.321 324.341C463.433 327.792 466.825 332.02 469.302 336.783C471.779 341.546 473.294 346.751 473.758 352.1C474.223 357.448 473.629 362.836 472.01 367.955L461.858 400.153L383.594 375.524Z" fill="#ECCEBC" fill-opacity="0.3"/>
<path d="M508.955 256.1C510.147 253.508 511.531 251.008 513.096 248.622C514.504 246.442 517.774 245.386 518.126 247.985C518.411 250.047 516.935 251.606 516.634 253.618C516.634 253.618 517.355 252.478 518.964 249.511C520.423 246.811 522.418 247.013 522.72 249.058C523.022 251.103 522.435 250.902 521.948 252.411C521.311 254.339 520.423 256.754 520.423 256.754C521.074 254.579 522.114 252.54 523.491 250.735C524.581 249.259 525.654 247.633 527.263 249.913C528.085 251.053 527.012 254.172 526.14 257.508C526.14 257.508 527.817 253.048 530.114 251.891C531.874 250.986 532.779 251.791 532.092 254.239C531.508 256.258 530.803 258.24 529.979 260.174C529.309 262.052 526.844 264.734 524.95 264.114C523.055 263.494 522.569 262.135 521.244 262.035C519.92 261.934 517.774 262.035 516.868 261.23C515.931 260.455 514.728 260.077 513.515 260.174C511.922 260.09 508.871 258.112 508.955 256.1Z" fill="#FFC0AD"/>
<path d="M647.285 259.206C648.066 256.458 649.052 253.774 650.236 251.175C651.292 248.811 653.941 247.1 654.712 249.632C655.299 251.627 654.478 253.539 654.495 255.567C654.495 255.567 655.031 254.327 656.171 251.141C657.194 248.257 659.189 248.157 659.793 250.118C660.396 252.08 659.793 251.979 659.558 253.472C659.223 255.483 658.703 257.998 658.703 257.998C659.025 255.751 659.74 253.577 660.815 251.577C661.67 249.9 662.492 248.224 664.42 250.185C665.392 251.191 664.822 254.444 664.42 257.864C664.42 257.864 664.822 253.773 666.851 252.298C668.528 251.124 670.104 251.191 669.802 253.723C669.53 255.807 669.132 257.873 668.612 259.91C668.243 261.871 666.231 264.939 664.202 264.587C662.173 264.235 661.553 262.995 660.212 263.095C658.87 263.196 656.859 263.649 655.769 262.978C654.714 262.352 653.456 262.165 652.265 262.458C650.823 262.676 647.503 261.201 647.285 259.206Z" fill="#FFC0AD"/>
<path d="M375.612 424.631C375.612 425.965 375.082 427.245 374.139 428.188C373.196 429.131 371.916 429.661 370.582 429.661H350.547V419.602H370.582C371.916 419.602 373.196 420.131 374.139 421.075C375.082 422.018 375.612 423.297 375.612 424.631Z" fill="#00528A"/>
<path d="M375.612 460.409C375.611 461.742 375.08 463.021 374.137 463.963C373.194 464.907 371.916 465.437 370.582 465.439H350.547V455.379H370.582C371.916 455.379 373.196 455.909 374.139 456.852C375.082 457.795 375.612 459.075 375.612 460.409Z" fill="#00528A"/>
<path d="M359.684 419.602H350.547V429.661H359.684V419.602Z" fill="#01305A"/>
<path d="M359.684 455.367H350.547V465.427H359.684V455.367Z" fill="#01305A"/>
<path d="M271.041 436.638L270.756 444.602C187.714 441.685 123.298 435.632 79.3379 426.595C41.6311 418.849 18.0748 408.89 7.14336 396.165C4.47039 393.201 2.4681 389.696 1.27312 385.888C0.0781457 382.081 -0.281409 378.06 0.218993 374.101C1.8956 360.403 14.0677 350.293 36.4504 343.922C36.7748 346.566 37.3359 349.175 38.127 351.718C23.0376 356.044 9.62473 363.22 8.09903 375.023C7.72015 377.889 7.97415 380.804 8.84316 383.562C9.71216 386.319 11.175 388.853 13.1288 390.984C22.6687 402.15 45.4705 411.506 80.8636 418.782C124.472 427.752 188.434 433.737 271.041 436.638Z" fill="#294350"/>
<path d="M350.548 483.379H297.55C286.714 483.379 276.321 479.074 268.659 471.412C260.996 463.749 256.691 453.357 256.691 442.52C256.691 431.682 260.996 421.288 268.658 413.623C276.32 405.957 286.712 401.649 297.55 401.645H350.548V483.379Z" fill="#F07C33"/>
<path d="M714.084 122.614V149.724C714.079 151.447 713.392 153.097 712.172 154.314C710.953 155.53 709.301 156.213 707.578 156.213H658.37L643.448 161.461C643.106 161.585 642.736 161.608 642.381 161.528C642.026 161.447 641.702 161.266 641.447 161.006C641.193 160.746 641.018 160.418 640.945 160.062C640.872 159.705 640.903 159.335 641.034 158.996L646.668 144.493V122.614C646.668 121.762 646.835 120.918 647.161 120.131C647.487 119.344 647.965 118.628 648.568 118.026C649.17 117.423 649.886 116.945 650.673 116.619C651.46 116.293 652.304 116.125 653.156 116.125H707.511C708.37 116.116 709.222 116.278 710.018 116.6C710.813 116.921 711.538 117.398 712.149 118.001C712.76 118.604 713.245 119.322 713.577 120.114C713.909 120.906 714.082 121.755 714.084 122.614Z" fill="#F07C33"/>
<g style="mix-blend-mode:screen">
<path d="M666.62 141.537C669.213 141.537 671.315 139.436 671.315 136.843C671.315 134.25 669.213 132.148 666.62 132.148C664.028 132.148 661.926 134.25 661.926 136.843C661.926 139.436 664.028 141.537 666.62 141.537Z" fill="#FF7C78"/>
<path d="M681.476 141.537C684.068 141.537 686.17 139.436 686.17 136.843C686.17 134.25 684.068 132.148 681.476 132.148C678.883 132.148 676.781 134.25 676.781 136.843C676.781 139.436 678.883 141.537 681.476 141.537Z" fill="#FF7C78"/>
<path d="M696.347 141.537C698.94 141.537 701.041 139.436 701.041 136.843C701.041 134.25 698.94 132.148 696.347 132.148C693.754 132.148 691.652 134.25 691.652 136.843C691.652 139.436 693.754 141.537 696.347 141.537Z" fill="#FF7C78"/>
</g>
<path d="M339.809 118.292C333.241 117.562 318.026 122.67 309.707 148.941" stroke="#FE9959" stroke-width="4.37844" stroke-linecap="round"/>
<path d="M381.951 209.691C382.316 211.151 381.295 214.946 374.289 218.448" stroke="#FE9959" stroke-width="4.37844" stroke-linecap="round"/>
</svg>
