<svg width="171" height="41" viewBox="0 0 171 41" fill="none" xmlns="http://www.w3.org/2000/svg">
<g clip-path="url(#clip0_234_8415)">
<path d="M22.3161 40.985C11.3729 40.4238 5.8311 31.6318 4.42812 27.3059C1.90272 27.3059 0.569908 24.5 0.219176 23.097C-0.903209 17.7657 2.55748 15.9651 4.42812 15.7313C5.8311 4.50745 17.4057 1.23383 23.0176 1C36.2057 1.2806 41.3733 11.4055 42.3086 16.4328C45.9564 15.8716 46.1668 20.6418 45.8161 23.097C45.8161 27.0253 43.0101 27.5398 41.6071 27.3059C37.6788 38.8104 27.1097 41.2188 22.3161 40.985Z" fill="#F07D34"/>
<path d="M40.5552 8.45742C39.1522 7.05441 38.8014 3.54696 42.3089 4.24848C44.4134 4.94993 44.4134 8.45742 40.5552 8.45742Z" fill="#F07D34"/>
<path d="M39.5029 10.5619L40.5552 8.45742M40.5552 8.45742C39.1522 7.05441 38.8014 3.54696 42.3089 4.24848C44.4134 4.94993 44.4134 8.45742 40.5552 8.45742Z" stroke="#F07D34"/>
<path d="M6.18702 7.75601C7.59 6.35299 7.94075 2.84554 4.43329 3.54706C2.32882 4.24852 2.32882 7.75601 6.18702 7.75601Z" fill="#F07D34"/>
<path d="M7.23926 9.86048L6.18702 7.75601M6.18702 7.75601C7.59 6.35299 7.94075 2.84554 4.43329 3.54706C2.32882 4.24852 2.32882 7.75601 6.18702 7.75601Z" stroke="#F07D34"/>
<path d="M30.1324 33.2687H15.7518C12.9459 32.1463 10.8414 28.1244 10.1399 26.2538C7.61452 18.3971 11.6598 13.8608 13.9981 12.5747C15.6817 13.1359 17.7394 13.7439 18.5578 13.9777H28.0279C29.9921 13.1359 31.6523 12.6916 32.2368 12.5747C37.007 15.6613 36.5627 22.9802 35.7443 26.2538C34.0607 30.1821 31.3015 32.5672 30.1324 33.2687Z" fill="white"/>
<ellipse cx="16.3538" cy="22.0449" rx="2.80596" ry="5.26118" fill="#F07D34"/>
<ellipse cx="28.2786" cy="22.0449" rx="2.80596" ry="5.26118" fill="#F07D34"/>
<mask id="path-9-inside-1_234_8415" fill="white">
<ellipse cx="17.7572" cy="20.9927" rx="0.701491" ry="2.80596"/>
</mask>
<ellipse cx="17.7572" cy="20.9927" rx="0.701491" ry="2.80596" fill="#D9D9D9"/>
<path d="M17.4586 20.9927C17.4586 21.7104 17.385 22.3266 17.283 22.7343C17.2302 22.9458 17.1831 23.0461 17.1693 23.0694C17.116 23.1596 17.2822 22.7987 17.7572 22.7987V24.7987C18.4258 24.7987 18.7765 24.2808 18.8911 24.087C19.0452 23.8263 19.1493 23.5156 19.2233 23.2194C19.3753 22.6115 19.4586 21.8247 19.4586 20.9927H17.4586ZM17.7572 22.7987C18.2321 22.7987 18.3983 23.1596 18.345 23.0694C18.3312 23.0461 18.2842 22.9458 18.2313 22.7343C18.1293 22.3266 18.0557 21.7104 18.0557 20.9927H16.0557C16.0557 21.8247 16.139 22.6115 16.291 23.2194C16.365 23.5156 16.4691 23.8263 16.6232 24.087C16.7378 24.2808 17.0885 24.7987 17.7572 24.7987V22.7987ZM18.0557 20.9927C18.0557 20.275 18.1293 19.6588 18.2313 19.2512C18.2842 19.0396 18.3312 18.9394 18.345 18.9161C18.3983 18.8259 18.2321 19.1868 17.7572 19.1868V17.1868C17.0885 17.1868 16.7378 17.7047 16.6232 17.8984C16.4691 18.1591 16.365 18.4698 16.291 18.7661C16.139 19.374 16.0557 20.1608 16.0557 20.9927H18.0557ZM17.7572 19.1868C17.2822 19.1868 17.116 18.8259 17.1693 18.9161C17.1831 18.9394 17.2302 19.0396 17.283 19.2512C17.385 19.6588 17.4586 20.275 17.4586 20.9927H19.4586C19.4586 20.1608 19.3753 19.374 19.2233 18.7661C19.1493 18.4698 19.0452 18.1591 18.8911 17.8984C18.7765 17.7047 18.4258 17.1868 17.7572 17.1868V19.1868Z" fill="white" mask="url(#path-9-inside-1_234_8415)"/>
<mask id="path-11-inside-2_234_8415" fill="white">
<ellipse cx="29.682" cy="20.9927" rx="0.701491" ry="2.80596"/>
</mask>
<ellipse cx="29.682" cy="20.9927" rx="0.701491" ry="2.80596" fill="#D9D9D9"/>
<path d="M29.3835 20.9927C29.3835 21.7104 29.3098 22.3266 29.2078 22.7343C29.155 22.9458 29.1079 23.0461 29.0941 23.0694C29.0408 23.1596 29.207 22.7987 29.682 22.7987V24.7987C30.3506 24.7987 30.7014 24.2808 30.8159 24.087C30.97 23.8263 31.0741 23.5156 31.1481 23.2194C31.3001 22.6115 31.3835 21.8247 31.3835 20.9927H29.3835ZM29.682 22.7987C30.1569 22.7987 30.3231 23.1596 30.2698 23.0694C30.256 23.0461 30.209 22.9458 30.1561 22.7343C30.0542 22.3266 29.9805 21.7104 29.9805 20.9927H27.9805C27.9805 21.8247 28.0638 22.6115 28.2158 23.2194C28.2899 23.5156 28.3939 23.8263 28.548 24.087C28.6626 24.2808 29.0133 24.7987 29.682 24.7987V22.7987ZM29.9805 20.9927C29.9805 20.275 30.0542 19.6588 30.1561 19.2512C30.209 19.0396 30.256 18.9394 30.2698 18.9161C30.3231 18.8259 30.1569 19.1868 29.682 19.1868V17.1868C29.0133 17.1868 28.6626 17.7047 28.548 17.8984C28.3939 18.1591 28.2899 18.4698 28.2158 18.7661C28.0638 19.374 27.9805 20.1608 27.9805 20.9927H29.9805ZM29.682 19.1868C29.207 19.1868 29.0408 18.8259 29.0941 18.9161C29.1079 18.9394 29.155 19.0396 29.2078 19.2512C29.3098 19.6588 29.3835 20.275 29.3835 20.9927H31.3835C31.3835 20.1608 31.3001 19.374 31.1481 18.7661C31.0741 18.4698 30.97 18.1591 30.8159 17.8984C30.7014 17.7047 30.3506 17.1868 29.682 17.1868V19.1868Z" fill="white" mask="url(#path-11-inside-2_234_8415)"/>
<path opacity="0.5" d="M34.3726 29.7612L34.4878 29.6652L34.4428 29.6112H34.3726V29.7612ZM36.1263 31.8657L36.0111 31.9617L36.0561 32.0157H36.1263V31.8657ZM37.08 31.8657C37.08 32.3075 37.4382 32.6657 37.88 32.6657C38.3219 32.6657 38.68 32.3075 38.68 31.8657C38.68 31.4239 38.3219 31.0657 37.88 31.0657C37.4382 31.0657 37.08 31.4239 37.08 31.8657ZM20.3428 29.9112H34.3726V29.6112H20.3428V29.9112ZM34.2574 29.8573L36.0111 31.9617L36.2416 31.7697L34.4878 29.6652L34.2574 29.8573ZM36.1263 32.0157H37.88V31.7157H36.1263V32.0157Z" fill="white" fill-opacity="0.55"/>
<path d="M27.1518 14.7014H24.6206L24.1928 13.0959H21.4155L20.9819 14.7014H18.4389L21.2339 6.09985H24.3217L27.1518 14.7014ZM23.7182 11.1975L23.3491 9.79126C23.0952 8.89673 22.9096 8.13696 22.7925 7.51196C22.7573 7.71118 22.687 8.03931 22.5815 8.49634C22.4878 8.93774 22.2592 9.83813 21.896 11.1975H23.7182Z" fill="white"/>
<path opacity="0.5" d="M25.604 36.7761L25.7193 36.6801L25.6743 36.6261H25.604V36.7761ZM27.3578 38.8806L27.2425 38.9766L27.2875 39.0306H27.3578V38.8806ZM28.3115 38.8806C28.3115 39.3224 28.6697 39.6806 29.1115 39.6806C29.5533 39.6806 29.9115 39.3224 29.9115 38.8806C29.9115 38.4388 29.5533 38.0806 29.1115 38.0806C28.6697 38.0806 28.3115 38.4388 28.3115 38.8806ZM11.5742 36.9261H25.604V36.6261H11.5742V36.9261ZM25.4888 36.8722L27.2425 38.9766L27.473 38.7846L25.7193 36.6801L25.4888 36.8722ZM27.3578 39.0306H29.1115V38.7306H27.3578V39.0306Z" fill="white" fill-opacity="0.4"/>
<path opacity="0.5" d="M24.2017 8.36572L24.3169 8.26969L24.2719 8.21572H24.2017V8.36572ZM25.9554 10.4702L25.8402 10.5662L25.8852 10.6202H25.9554V10.4702ZM26.9091 10.4702C26.9091 10.912 27.2673 11.2702 27.7091 11.2702C28.151 11.2702 28.5091 10.912 28.5091 10.4702C28.5091 10.0284 28.151 9.6702 27.7091 9.6702C27.2673 9.6702 26.9091 10.0284 26.9091 10.4702ZM10.1719 8.51572H24.2017V8.21572H10.1719V8.51572ZM24.0865 8.46175L25.8402 10.5662L26.0707 10.3742L24.3169 8.26969L24.0865 8.46175ZM25.9554 10.6202H27.7091V10.3202H25.9554V10.6202Z" fill="white" fill-opacity="0.4"/>
<path opacity="0.5" d="M28.7613 3.10449L28.8765 3.00846L28.8315 2.95449H28.7613V3.10449ZM30.515 5.20896L30.3998 5.30499L30.4447 5.35896H30.515V5.20896ZM31.4687 5.20896C31.4687 5.65079 31.8269 6.00896 32.2687 6.00896C32.7105 6.00896 33.0687 5.65079 33.0687 5.20896C33.0687 4.76714 32.7105 4.40896 32.2687 4.40896C31.8269 4.40896 31.4687 4.76714 31.4687 5.20896ZM14.7314 3.25449H28.7613V2.95449H14.7314V3.25449ZM28.646 3.20052L30.3998 5.30499L30.6302 5.11294L28.8765 3.00846L28.646 3.20052ZM30.515 5.35896H32.2687V5.05896H30.515V5.35896Z" fill="white" fill-opacity="0.4"/>
<path opacity="0.5" d="M18.5898 35.0222V34.8722H18.4398V35.0222H18.5898ZM31.8197 35.0222C31.8197 35.464 32.1778 35.8222 32.6197 35.8222C33.0615 35.8222 33.4197 35.464 33.4197 35.0222C33.4197 34.5804 33.0615 34.2222 32.6197 34.2222C32.1778 34.2222 31.8197 34.5804 31.8197 35.0222ZM18.7398 36.7759V35.0222H18.4398V36.7759H18.7398ZM18.5898 35.1722H27.0077V34.8722H18.5898V35.1722ZM27.0077 35.1722H32.6197V34.8722H27.0077V35.1722Z" fill="white" fill-opacity="0.4"/>
<path opacity="0.5" d="M14.3809 4.50757V4.35757H14.2309V4.50757H14.3809ZM27.6107 4.50757C27.6107 4.9494 27.9688 5.30757 28.4107 5.30757C28.8525 5.30757 29.2107 4.9494 29.2107 4.50757C29.2107 4.06574 28.8525 3.70757 28.4107 3.70757C27.9688 3.70757 27.6107 4.06574 27.6107 4.50757ZM14.5309 6.2613V4.50757H14.2309V6.2613H14.5309ZM14.3809 4.65757H22.7987V4.35757H14.3809V4.65757ZM22.7987 4.65757H28.4107V4.35757H22.7987V4.65757Z" fill="white" fill-opacity="0.4"/>
<path opacity="0.5" d="M32.2686 17.8357V17.6857H32.1186V17.8357H32.2686ZM42.6924 17.8357C42.6924 18.2775 43.0506 18.6357 43.4924 18.6357C43.9342 18.6357 44.2924 18.2775 44.2924 17.8357C44.2924 17.3939 43.9342 17.0357 43.4924 17.0357C43.0506 17.0357 42.6924 17.3939 42.6924 17.8357ZM32.4186 19.9402V17.8357H32.1186V19.9402H32.4186ZM32.2686 17.9857H39.0029V17.6857H32.2686V17.9857ZM39.0029 17.9857H43.4924V17.6857H39.0029V17.9857Z" fill="white" fill-opacity="0.4"/>
<path opacity="0.5" d="M22.7982 38.5297H22.9482V38.3797H22.7982V38.5297ZM16.1341 38.5297H15.9841V38.6797H16.1341V38.5297ZM16.1341 35.0222H16.2841V34.8722H16.1341V35.0222ZM10.4236 35.0222C10.4236 35.464 10.7818 35.8222 11.2236 35.8222C11.6655 35.8222 12.0236 35.464 12.0236 35.0222C12.0236 34.5804 11.6655 34.2222 11.2236 34.2222C10.7818 34.2222 10.4236 34.5804 10.4236 35.0222ZM22.9482 40.6341V38.5297H22.6482V40.6341H22.9482ZM22.7982 38.3797H16.1341V38.6797H22.7982V38.3797ZM16.2841 38.5297V35.0222H15.9841V38.5297H16.2841ZM16.1341 34.8722H11.2236V35.1722H16.1341V34.8722Z" fill="white" fill-opacity="0.4"/>
<path opacity="0.5" d="M21.3959 10.1193H21.5459V9.96927H21.3959V10.1193ZM14.7317 10.1193H14.5817V10.2693H14.7317V10.1193ZM14.7317 6.61182H14.8817V6.46182H14.7317V6.61182ZM9.02129 6.61182C9.02129 7.05364 9.37946 7.41182 9.82129 7.41182C10.2631 7.41182 10.6213 7.05364 10.6213 6.61182C10.6213 6.16999 10.2631 5.81182 9.82129 5.81182C9.37946 5.81182 9.02129 6.16999 9.02129 6.61182ZM21.5459 12.2237V10.1193H21.2459V12.2237H21.5459ZM21.3959 9.96927H14.7317V10.2693H21.3959V9.96927ZM14.8817 10.1193V6.61182H14.5817V10.1193H14.8817ZM14.7317 6.46182H9.82129V6.76182H14.7317V6.46182Z" fill="white" fill-opacity="0.4"/>
<path opacity="0.5" d="M12.2758 24.1493H12.4258V23.9993H12.2758V24.1493ZM5.61161 24.1493H5.46161V24.2993H5.61161V24.1493ZM5.61161 20.6418H5.76161V20.4918H5.61161V20.6418ZM-0.0988281 20.6418C-0.0988281 21.0837 0.259344 21.4418 0.701172 21.4418C1.143 21.4418 1.50117 21.0837 1.50117 20.6418C1.50117 20.2 1.143 19.8418 0.701172 19.8418C0.259344 19.8418 -0.0988281 20.2 -0.0988281 20.6418ZM12.4258 26.2538V24.1493H12.1258V26.2538H12.4258ZM12.2758 23.9993H5.61161V24.2993H12.2758V23.9993ZM5.76161 24.1493V20.6418H5.46161V24.1493H5.76161ZM5.61161 20.4918H0.701172V20.7918H5.61161V20.4918Z" fill="white" fill-opacity="0.4"/>
<path opacity="0.5" d="M10.522 25.3769H10.672V25.2269H10.522V25.3769ZM4.8676 25.3769H4.7176V25.5269H4.8676V25.3769ZM4.8676 22.7463H5.0176V22.5963H4.8676V22.7463ZM-0.0988281 22.7463C-0.0988281 23.1882 0.259344 23.5463 0.701172 23.5463C1.143 23.5463 1.50117 23.1882 1.50117 22.7463C1.50117 22.3045 1.143 21.9463 0.701172 21.9463C0.259344 21.9463 -0.0988281 22.3045 -0.0988281 22.7463ZM10.672 26.9553V25.3769H10.372V26.9553H10.672ZM10.522 25.2269H4.8676V25.5269H10.522V25.2269ZM5.0176 25.3769V22.7463H4.7176V25.3769H5.0176ZM4.8676 22.5963H0.701172V22.8963H4.8676V22.5963Z" fill="white" fill-opacity="0.4"/>
<path opacity="0.5" d="M7.36523 32.5671H14.0294" stroke="white" strokeWidth="0.3"/>
<path opacity="0.5" d="M4.91016 14.3284H11.5743" stroke="white" strokeWidth="0.3"/>
<path opacity="0.5" d="M10.3891 29.7612H10.5391V29.6112H10.3891V29.7612ZM10.3891 33.9702H10.2391V34.1202H10.3891V33.9702ZM12.5287 33.9702C12.5287 34.412 12.8869 34.7702 13.3287 34.7702C13.7705 34.7702 14.1287 34.412 14.1287 33.9702C14.1287 33.5283 13.7705 33.1702 13.3287 33.1702C12.8869 33.1702 12.5287 33.5283 12.5287 33.9702ZM5.6123 29.9112H10.3891V29.6112H5.6123V29.9112ZM10.2391 29.7612V33.9702H10.5391V29.7612H10.2391ZM10.3891 34.1202H13.3287V33.8202H10.3891V34.1202Z" fill="white" fill-opacity="0.55"/>
<path opacity="0.5" d="M27.3251 12.2239H27.4751V12.0739H27.3251V12.2239ZM27.3251 16.4328H27.1751V16.5828H27.3251V16.4328ZM39.8868 16.4328C39.8868 16.8747 40.245 17.2328 40.6868 17.2328C41.1287 17.2328 41.4868 16.8747 41.4868 16.4328C41.4868 15.991 41.1287 15.6328 40.6868 15.6328C40.245 15.6328 39.8868 15.991 39.8868 16.4328ZM5.6123 12.3739H27.3251V12.0739H5.6123V12.3739ZM27.1751 12.2239V16.4328H27.4751V12.2239H27.1751ZM27.3251 16.5828H40.6868V16.2828H27.3251V16.5828Z" fill="white" fill-opacity="0.55"/>
<path opacity="0.5" d="M4.91016 28.3582H10.8728" stroke="white" strokeWidth="0.3"/>
<path opacity="0.5" d="M35.4248 26.9551L41.0367 27.3058" stroke="white" strokeWidth="0.3"/>
<path opacity="0.5" d="M44.0954 24.8507C44.0954 25.2925 44.4536 25.6507 44.8954 25.6507C45.3373 25.6507 45.6954 25.2925 45.6954 24.8507C45.6954 24.4089 45.3373 24.0507 44.8954 24.0507C44.4536 24.0507 44.0954 24.4089 44.0954 24.8507ZM39.7152 24.8507H39.5652V25.0007H39.7152V24.8507ZM39.7152 21.3433H39.8652V21.1933H39.7152V21.3433ZM44.8954 24.7007H39.7152V25.0007H44.8954V24.7007ZM39.8652 24.8507V21.3433H39.5652V24.8507H39.8652ZM39.7152 21.1933H36.4775V21.4933H39.7152V21.1933Z" fill="white" fill-opacity="0.55"/>
<path opacity="0.5" d="M42.6921 22.7462C42.6921 23.1881 43.0503 23.5462 43.4921 23.5462C43.9339 23.5462 44.2921 23.1881 44.2921 22.7462C44.2921 22.3044 43.9339 21.9462 43.4921 21.9462C43.0503 21.9462 42.6921 22.3044 42.6921 22.7462ZM38.3119 22.7462H38.1619V22.8962H38.3119V22.7462ZM38.3119 19.2388H38.4619V19.0888H38.3119V19.2388ZM43.4921 22.5962H38.3119V22.8962H43.4921V22.5962ZM38.4619 22.7462V19.2388H38.1619V22.7462H38.4619ZM38.3119 19.0888H35.0742V19.3888H38.3119V19.0888Z" fill="white" fill-opacity="0.55"/>
<path opacity="0.5" d="M38.4832 11.5225C38.4832 11.9643 38.8413 12.3225 39.2832 12.3225C39.725 12.3225 40.0832 11.9643 40.0832 11.5225C40.0832 11.0806 39.725 10.7225 39.2832 10.7225C38.8413 10.7225 38.4832 11.0806 38.4832 11.5225ZM8.27334 11.5225V11.3725H8.12334V11.5225H8.27334ZM8.27334 17.8359L8.30067 17.9834L8.42334 17.9606V17.8359H8.27334ZM39.2832 11.3725H8.27334V11.6725H39.2832V11.3725ZM8.12334 11.5225V17.8359H8.42334V11.5225H8.12334ZM8.24601 17.6884L0.673845 19.0914L0.728499 19.3864L8.30067 17.9834L8.24601 17.6884Z" fill="white" fill-opacity="0.55"/>
<path opacity="0.5" d="M36.3791 7.31348C36.3791 7.7553 36.7373 8.11348 37.1791 8.11348C37.6209 8.11348 37.9791 7.7553 37.9791 7.31348C37.9791 6.87165 37.6209 6.51348 37.1791 6.51348C36.7373 6.51348 36.3791 6.87165 36.3791 7.31348ZM37.1791 7.16348H8.41797V7.46348H37.1791V7.16348Z" fill="white" fill-opacity="0.55"/>
<path d="M68.948 26H64.7293L64.0164 23.3242H59.3875L58.6648 26H54.4266L59.0848 11.6641H64.2313L68.948 26ZM63.2254 20.1602L62.6102 17.8164C62.187 16.3255 61.8777 15.0592 61.6824 14.0176C61.6238 14.3496 61.5066 14.8965 61.3309 15.6582C61.1746 16.3939 60.7938 17.8945 60.1883 20.1602H63.2254ZM82.1008 26H79.2199L78.3996 24.6035H78.2531C77.6021 25.6647 76.6223 26.1953 75.3137 26.1953C75.2811 26.1953 75.2453 26.1953 75.2063 26.1953C74.0799 26.1953 73.162 25.681 72.4523 24.6523C71.7427 23.6237 71.3879 22.2207 71.3879 20.4434C71.3944 18.666 71.759 17.276 72.4816 16.2734C73.2043 15.2513 74.1971 14.7402 75.4602 14.7402C76.0917 14.7402 76.6385 14.8672 77.1008 15.1211C77.563 15.375 77.9829 15.7917 78.3605 16.3711H78.4387C78.315 15.5117 78.2531 14.6426 78.2531 13.7637V10.8047H82.1008V26ZM78.5754 20.5215C78.5754 19.5579 78.4354 18.8678 78.1555 18.4512C77.882 18.028 77.4426 17.8164 76.8371 17.8164C76.3358 17.8164 75.9452 18.054 75.6652 18.5293C75.3918 18.998 75.2551 19.6654 75.2551 20.5312C75.2551 21.3971 75.3951 22.0547 75.675 22.5039C75.9549 22.9531 76.3749 23.1777 76.9348 23.1777C77.4947 23.1777 77.9016 22.9922 78.1555 22.6211C78.4159 22.2435 78.5559 21.6445 78.5754 20.8242V20.5215ZM96.5719 26H93.691L92.8707 24.6035H92.7242C92.0732 25.6647 91.0934 26.1953 89.7848 26.1953C89.7522 26.1953 89.7164 26.1953 89.6773 26.1953C88.551 26.1953 87.6331 25.681 86.9234 24.6523C86.2138 23.6237 85.859 22.2207 85.859 20.4434C85.8655 18.666 86.2301 17.276 86.9527 16.2734C87.6754 15.2513 88.6682 14.7402 89.9313 14.7402C90.5628 14.7402 91.1096 14.8672 91.5719 15.1211C92.0341 15.375 92.454 15.7917 92.8316 16.3711H92.9098C92.7861 15.5117 92.7242 14.6426 92.7242 13.7637V10.8047H96.5719V26ZM93.0465 20.5215C93.0465 19.5579 92.9065 18.8678 92.6266 18.4512C92.3531 18.028 91.9137 17.8164 91.3082 17.8164C90.8069 17.8164 90.4163 18.054 90.1363 18.5293C89.8629 18.998 89.7262 19.6654 89.7262 20.5312C89.7262 21.3971 89.8661 22.0547 90.1461 22.5039C90.426 22.9531 90.846 23.1777 91.4059 23.1777C91.9658 23.1777 92.3727 22.9922 92.6266 22.6211C92.887 22.2435 93.027 21.6445 93.0465 20.8242V20.5215ZM102.059 30.8047C101.57 30.8047 101.049 30.7493 100.496 30.6387V27.6406C100.841 27.7188 101.206 27.7578 101.59 27.7578C102.306 27.7578 102.853 27.5072 103.23 27.0059C103.419 26.765 103.621 26.3776 103.836 25.8438L99.4805 14.9355H103.504L105.379 21.2832C105.477 21.6478 105.538 22.0482 105.564 22.4844H105.643C105.688 22.0417 105.766 21.6478 105.877 21.3027L107.801 14.9355H111.697L107.322 26.7031C106.762 28.2005 106.072 29.2585 105.252 29.877C104.438 30.4954 103.374 30.8047 102.059 30.8047ZM127.829 26H123.61L122.897 23.3242H118.268L117.545 26H113.307L117.965 11.6641H123.112L127.829 26ZM122.106 20.1602L121.491 17.8164C121.067 16.3255 120.758 15.0592 120.563 14.0176C120.504 14.3496 120.387 14.8965 120.211 15.6582C120.055 16.3939 119.674 17.8945 119.069 20.1602H122.106ZM140.981 26H138.1L137.28 24.6035H137.134C136.483 25.6647 135.503 26.1953 134.194 26.1953C134.162 26.1953 134.126 26.1953 134.087 26.1953C132.96 26.1953 132.042 25.681 131.333 24.6523C130.623 23.6237 130.268 22.2207 130.268 20.4434C130.275 18.666 130.639 17.276 131.362 16.2734C132.085 15.2513 133.078 14.7402 134.341 14.7402C134.972 14.7402 135.519 14.8672 135.981 15.1211C136.443 15.375 136.863 15.7917 137.241 16.3711H137.319C137.195 15.5117 137.134 14.6426 137.134 13.7637V10.8047H140.981V26ZM137.456 20.5215C137.456 19.5579 137.316 18.8678 137.036 18.4512C136.762 18.028 136.323 17.8164 135.718 17.8164C135.216 17.8164 134.826 18.054 134.546 18.5293C134.272 18.998 134.136 19.6654 134.136 20.5312C134.136 21.3971 134.276 22.0547 134.555 22.5039C134.835 22.9531 135.255 23.1777 135.815 23.1777C136.375 23.1777 136.782 22.9922 137.036 22.6211C137.296 22.2435 137.436 21.6445 137.456 20.8242V20.5215ZM148.929 23.4219C149.756 23.4219 150.169 23.2331 150.169 22.8555C150.169 22.6602 150.052 22.4876 149.818 22.3379C149.583 22.1751 148.913 21.8757 147.806 21.4395C146.784 21.0163 146.071 20.541 145.667 20.0137C145.27 19.4798 145.071 18.8092 145.071 18.002C145.071 16.9798 145.465 16.1823 146.253 15.6094C147.047 15.0299 148.135 14.7402 149.515 14.7402C150.895 14.7402 152.285 15.0527 153.685 15.6777L152.65 18.1387C152.122 17.9043 151.582 17.709 151.029 17.5527C150.482 17.3965 150.023 17.3184 149.652 17.3184C149.027 17.3184 148.714 17.4714 148.714 17.7773C148.714 17.9661 148.821 18.1289 149.036 18.2656C149.297 18.4089 149.928 18.679 150.931 19.0762C151.706 19.3952 152.282 19.7077 152.659 20.0137C153.402 20.6126 153.773 21.4883 153.773 22.6406C153.773 23.793 153.369 24.6751 152.562 25.2871C151.761 25.8926 150.602 26.1953 149.085 26.1953C148.284 26.1953 147.575 26.1497 146.956 26.0586C146.338 25.9674 145.716 25.8079 145.091 25.5801V22.5234C145.69 22.7904 146.344 23.0085 147.054 23.1777C147.77 23.3405 148.395 23.4219 148.929 23.4219Z" fill="#F07C33"/>
</g>
<defs>
<clipPath id="clip0_234_8415">
<rect width="170" height="41" fill="white" transform="translate(0.015625)"/>
</clipPath>
</defs>
</svg>
