<svg width="225" height="201" viewBox="0 0 225 201" fill="none" xmlns="http://www.w3.org/2000/svg">
<path fill-rule="evenodd" clip-rule="evenodd" d="M21.8169 97.2695C15.0852 103.899 15.0021 114.73 21.6312 121.461C28.2603 128.193 39.0914 128.276 45.8231 121.647L67.3344 100.464L38.1215 133.379C32.6954 139.493 32.9358 148.766 38.6716 154.591C44.6915 160.704 54.5272 160.779 60.6402 154.76L80.7055 135L57.166 162.278C52.1241 168.121 52.4114 176.855 57.8263 182.354C63.5678 188.184 72.9486 188.256 78.779 182.515L91.1503 170.332C90.379 176 92.1484 181.952 96.4727 186.343C103.884 193.869 115.992 193.962 123.518 186.551L147.834 162.605L140.605 173.488C137.211 178.597 137.863 185.385 142.166 189.755C147.189 194.856 155.396 194.919 160.497 189.896L210.739 140.419C215.758 135.477 215.82 127.402 210.878 122.384C206.525 117.963 199.622 117.317 194.524 120.852L180.024 130.905L202.505 108.767C210.031 101.356 210.124 89.247 202.713 81.7214C198.389 77.3301 192.465 75.4695 186.786 76.1537L199.998 63.1429C205.835 57.395 205.907 48.0036 200.159 42.1667C194.747 36.6713 186.027 36.2402 180.1 41.1749L153.465 63.3489L180.843 36.3881C186.958 30.3661 187.034 20.5269 181.012 14.4117C175.277 8.58825 166.012 8.20215 159.812 13.5283L126.905 41.8008L131.541 37.235C138.273 30.6059 138.356 19.7748 131.727 13.0431C125.098 6.31142 114.267 6.2283 107.535 12.8574L67.3098 52.4698L74.19 43.6478C79.0799 37.3778 78.5646 28.4544 72.9855 22.7889C66.8462 16.5547 56.8156 16.4777 50.5814 22.6169L12.629 59.9911C6.44226 66.0836 6.36585 76.0378 12.4583 82.2245C18.0629 87.9158 27.0445 88.5 33.3391 83.5825L44.8376 74.5996L21.8169 97.2695Z" fill="#E6E6E6"/>
<path d="M52.29 170.157H172.712" stroke="#313131" stroke-width="2" stroke-linecap="round"/>
<path d="M177.147 170.157H183.458" stroke="#313131" stroke-width="2" stroke-linecap="round"/>
<path d="M160.772 164.017H166.742" stroke="#313131" stroke-width="2" stroke-linecap="round"/>
<path d="M156.167 164.188H68.835" stroke="#313131" stroke-width="2" stroke-linecap="round"/>
<path d="M64.4004 164.017H58.4307" stroke="#313131" stroke-width="2" stroke-linecap="round"/>
<path d="M47.6846 170.157H41.0322" stroke="#313131" stroke-width="2" stroke-linecap="round"/>
<circle cx="193.511" cy="134.734" r="3.52391" fill="#F6A76E"/>
<circle cx="156.776" cy="7.53157" r="5.22395" fill="#F6A76E"/>
<circle cx="29.3819" cy="106.971" r="6.18948" fill="#F6A76E"/>
<path d="M218.949 137.385C219.428 138.125 220.294 138.686 221.063 139.074C220.221 139.093 219.224 139.235 218.467 139.72C217.611 140.269 216.851 141.398 216.318 142.342C216.206 142.539 216.104 142.73 216.011 142.91C216.004 142.711 215.992 142.498 215.975 142.276C215.889 141.199 215.652 139.852 214.998 138.985C214.527 138.361 213.746 137.866 213.021 137.504C213.831 137.494 214.752 137.361 215.444 136.907C215.861 136.634 216.255 136.205 216.606 135.736C216.959 135.264 217.283 134.733 217.556 134.238C217.708 133.963 217.845 133.698 217.964 133.458C217.985 133.697 218.012 133.96 218.046 134.236C218.114 134.771 218.212 135.358 218.355 135.908C218.496 136.454 218.687 136.981 218.949 137.385Z" stroke="#F56206" stroke-width="0.585896"/>
<path d="M14.6539 151.853C15.1333 152.594 15.9993 153.155 16.7677 153.542C15.926 153.561 14.9287 153.704 14.1724 154.189C13.3165 154.738 12.5562 155.867 12.0227 156.811C11.9115 157.007 11.8088 157.199 11.7157 157.378C11.7088 157.179 11.6975 156.966 11.6799 156.745C11.5943 155.668 11.3567 154.321 10.7035 153.454C10.2325 152.829 9.45147 152.334 8.72625 151.973C9.53577 151.962 10.4567 151.83 11.1492 151.376C11.5662 151.103 11.9597 150.674 12.3107 150.205C12.6644 149.733 12.988 149.202 13.2612 148.707C13.4133 148.432 13.5506 148.166 13.6695 147.927C13.69 148.166 13.7168 148.429 13.7514 148.704C13.8188 149.24 13.9168 149.827 14.0597 150.377C14.2015 150.922 14.3923 151.45 14.6539 151.853Z" stroke="#F56206" stroke-width="0.585896"/>
<path d="M54.6832 7.14057C55.1626 7.88066 56.0286 8.44211 56.797 8.82943C55.9553 8.84847 54.958 8.99101 54.2017 9.47623C53.3458 10.0253 52.5855 11.1541 52.052 12.0978C51.9408 12.2946 51.8381 12.4858 51.745 12.6655C51.7381 12.4666 51.7268 12.2535 51.7092 12.0321C51.6236 10.955 51.386 9.60785 50.7328 8.74133C50.2618 8.1166 49.4808 7.62136 48.7556 7.26009C49.5651 7.24942 50.486 7.11699 51.1785 6.66309C51.5955 6.38971 51.989 5.96095 52.34 5.49202C52.6937 5.01962 53.0172 4.48882 53.2905 3.99433C53.4426 3.71903 53.5799 3.4536 53.6988 3.21386C53.7193 3.45274 53.7461 3.71588 53.7807 3.99143C53.8481 4.52707 53.9461 5.11427 54.089 5.66375C54.2308 6.20945 54.4216 6.73675 54.6832 7.14057Z" stroke="#F56206" stroke-width="0.585896"/>
<path d="M10.0563 44.0068C10.5357 44.7469 11.4016 45.3083 12.1701 45.6956C11.3284 45.7147 10.3311 45.8572 9.57472 46.3424C8.71883 46.8915 7.95854 48.0203 7.42507 48.964C7.31384 49.1608 7.21111 49.352 7.11806 49.5317C7.11116 49.3328 7.09982 49.1197 7.08222 48.8983C6.99668 47.8213 6.759 46.4741 6.10581 45.6075C5.63489 44.9828 4.85381 44.4876 4.1286 44.1263C4.93812 44.1156 5.85908 43.9832 6.55152 43.5293C6.96857 43.2559 7.36201 42.8272 7.71307 42.3582C8.06673 41.8858 8.3903 41.355 8.66352 40.8605C8.81563 40.5852 8.9529 40.3198 9.07182 40.0801C9.09238 40.319 9.1191 40.5821 9.15376 40.8576C9.22115 41.3933 9.31915 41.9805 9.462 42.53C9.60388 43.0757 9.79469 43.603 10.0563 44.0068Z" stroke="#F56206" stroke-width="0.585896"/>
<path d="M118.045 192.677C118.524 193.417 119.39 193.978 120.158 194.366C119.317 194.385 118.319 194.527 117.563 195.012C116.707 195.561 115.947 196.69 115.413 197.634C115.302 197.831 115.199 198.022 115.106 198.202C115.099 198.003 115.088 197.79 115.071 197.568C114.985 196.491 114.747 195.144 114.094 194.277C113.623 193.653 112.842 193.157 112.117 192.796C112.926 192.786 113.847 192.653 114.54 192.199C114.957 191.926 115.35 191.497 115.701 191.028C116.055 190.556 116.379 190.025 116.652 189.53C116.804 189.255 116.941 188.99 117.06 188.75C117.081 188.989 117.107 189.252 117.142 189.528C117.209 190.063 117.307 190.65 117.45 191.2C117.592 191.746 117.783 192.273 118.045 192.677Z" stroke="#F56206" stroke-width="0.585896"/>
<circle cx="169.996" cy="37.6458" r="2.1558" stroke="#F56206" stroke-width="0.831544"/>
<circle cx="38.1429" cy="65.8665" r="2.1558" stroke="#F56206" stroke-width="0.831544"/>
<path d="M152.687 73.6883C156.571 77.6674 159.331 82.6054 160.684 87.9987C159.88 88.9246 158.963 89.114 157.881 88.4869C157.524 88.2544 157.107 88.1306 156.681 88.1306C156.256 88.1306 155.839 88.2544 155.482 88.4869C153.887 89.5181 152.077 90.1284 150.456 91.0922C148.554 92.2245 147.376 92.0351 146.248 90.2505C145.726 89.4087 145.334 88.7984 144.379 89.7075C144.177 89.8969 143.819 90.1284 143.621 90.0063C141.757 89.0214 139.496 89.8464 137.644 88.4911C136.079 87.3421 134.202 86.7149 132.173 87.6157C131.112 88.0039 129.963 88.0813 128.86 87.8387C126.205 87.38 123.549 87.8724 120.91 87.5188C114.596 87.321 108.308 87.2411 102.016 87.5652C99.0274 87.5904 96.0181 88.066 93.0508 87.7503C85.3863 86.938 77.8102 87.8472 70.2173 88.5921C69.3123 88.6805 68.4032 88.5921 67.4983 88.6174C65.9199 88.6426 64.9729 87.944 64.7793 86.3572C65.9283 82.6365 67.5951 79.202 70.2004 76.2557C71.4631 74.6942 73.0414 74.1092 75.007 74.7026C76.0937 74.9869 77.2435 74.9086 78.2816 74.4796C81.0258 73.5283 82.0696 74.227 82.0696 77.1228C82.0696 78.4528 82.5242 78.5959 83.5512 78.0656C84.1326 77.8151 84.6419 77.423 85.0327 76.925C85.7609 75.8517 86.8173 75.5865 87.979 75.7086C88.9554 75.8096 89.7131 75.4055 90.5043 74.972C91.7923 75.1824 92.8024 75.9906 93.7957 76.6935C97.2597 79.1473 101.258 79.9217 105.286 80.6667C106.877 80.612 108.418 80.9908 109.794 81.1297C110.257 81.2307 109.887 81.6179 109.983 81.3528C110.03 81.2307 110.017 81.1592 109.95 81.1507C108.38 80.9655 106.822 80.6246 105.223 80.6541C102.811 80.1027 100.336 79.8123 98.0089 78.92C97.4491 78.7053 96.7462 78.7053 96.4431 78.0445C96.7209 75.4182 98.051 74.3743 100.543 73.9492C106.098 73.0064 111.701 73.2674 117.277 72.9727C118.012 72.9103 118.75 73.0346 119.423 73.3341C120.097 73.6336 120.683 74.0986 121.129 74.6858C122.236 76.0537 123.519 76.18 125.072 75.6581C126.335 75.2372 127.526 74.6353 128.743 74.1008C130.102 73.5073 131.196 73.6799 131.891 75.1067C132.021 76.3694 130.809 76.302 130.207 76.8408C126.748 78.9242 122.959 80.0438 118.982 80.5951C122.981 80.0354 126.79 78.9116 130.266 76.8071C131.327 76.3862 132.076 75.5739 132.859 74.7994C133.44 74.227 133.949 73.5031 134.963 73.6925C140.351 74.8079 145.734 74.1765 151.117 73.6462C151.637 73.544 152.173 73.5584 152.687 73.6883Z" fill="#F07C33"/>
<path d="M131.564 75.3662C130.533 74.676 129.544 74.7012 128.42 75.2694C126.804 76.0859 125.078 76.6836 123.445 77.4623C122.237 78.0389 121.53 77.4623 121.075 76.5068C120.095 74.4024 118.516 73.8257 116.281 74.0614C114.263 74.2705 112.228 74.2775 110.208 74.0825C106.664 73.75 103.314 75.1011 99.8077 75.0548C98.0525 75.0295 97.7495 76.9656 96.6846 77.9084C96.0364 78.485 95.5229 77.9084 95.001 77.6769C92.9218 76.7341 91.0909 75.3704 89.1801 74.1456C86.3712 71.6631 84.5661 68.2399 84.1041 64.5198C84.062 64.3262 84.0199 64.1326 83.9736 63.9347C86.0781 62.9625 88.0353 61.5819 90.3628 61.06C91.8823 60.7107 93.2123 61.2999 94.5086 61.9565C95.0053 62.2091 95.4851 62.7478 96.0112 62.6216C98.5366 62.0113 101.205 62.5626 103.634 61.5399C104.592 61.1199 105.626 60.8994 106.672 60.8917C113.407 60.8917 120.099 60.8454 126.812 60.8917C129.072 60.9127 131.291 61.2789 133.126 62.7394C133.841 63.3076 134.342 63.2781 134.847 62.529C135.175 62.0449 135.6 61.6872 136.249 61.8808C137.65 62.1544 138.871 62.8446 140.108 63.5054C140.062 63.7032 140.02 63.9011 139.974 64.0989C139.132 68.9139 136.543 72.5757 132.49 75.2442C132.221 75.4462 131.913 75.644 131.564 75.3662Z" fill="#F07C33"/>
<path d="M156.013 139.659L151.829 143.552C148.395 143.329 144.96 143.552 141.597 142.176C139.619 141.334 137.683 142.828 136.168 144.222C134.164 146.057 133.992 146.158 131.765 144.508C130.551 143.658 129.087 143.237 127.607 143.312C121.434 143.312 115.261 143.312 109.088 143.312C107.404 143.312 105.72 143.06 104.071 142.98C100.804 142.833 97.492 143.161 95.7579 146.566C94.4952 149.066 92.2644 149.247 89.9537 149.436C79.7765 149.288 71.9198 144.939 66.3837 136.389C65.8996 134.911 66.2869 133.813 67.7684 133.19C67.962 133.106 68.1893 133.038 68.303 132.874C69.6288 130.812 71.5438 129.979 73.9387 130.126C75.1172 130.185 75.9337 130.997 76.8555 131.565C79.0652 132.925 81.6242 133.333 83.9686 134.318C84.2095 134.515 84.4399 134.724 84.6589 134.945C85.9468 136.397 87.6809 136.439 89.2887 136.073C92.0077 135.459 94.7225 135.829 97.4372 135.795C99.0198 135.77 99.3607 136.814 98.4516 138.194C96.8985 140.556 94.7309 142.365 92.879 144.466C94.6425 142.946 95.8883 140.833 98.2622 140.025C98.9861 139.777 99.1292 138.931 98.9819 138.203C98.561 136.216 100.152 135.677 101.314 135.892C103.069 136.225 104.681 135.745 106.364 135.745C115.905 135.745 125.432 135.745 134.947 135.745C136.012 135.745 137.195 135.635 137.052 137.281C137.005 137.816 136.551 138.098 136.248 138.476C135.734 139.116 135.078 139.684 135.019 140.623C135.781 140.854 136.206 140.282 136.702 139.95C138.411 138.742 139.741 137.045 141.644 136.073C142.225 135.778 142.25 135.177 142.385 134.638C143.079 133.48 144.224 133.325 145.411 133.249C145.746 133.226 146.083 133.259 146.408 133.346C148.976 136.174 152.414 135.341 155.605 135.492C156.8 135.547 157.949 135.513 157.739 137.231C157.082 137.984 156.156 138.54 156.013 139.659Z" fill="#F07C33"/>
<path d="M89.9736 149.437C93.0504 149.34 94.3594 147.071 95.5758 144.777C96.2955 143.418 97.3898 143.052 98.783 142.53C101.86 141.376 104.806 142.176 107.828 142.235C114.68 142.366 121.541 142.298 128.401 142.265C130.022 142.265 131.436 142.572 132.568 143.822C133.553 144.908 134.332 144.811 135.224 143.544C136.638 141.532 139.29 141.515 141.163 140.177C141.516 139.924 142.005 140.227 142.249 140.598C143.356 142.231 145.043 142.201 146.744 142.281C148.507 142.374 150.397 142.1 151.841 143.544C147.488 147.125 142.088 149.193 136.457 149.437C133.178 149.609 129.887 149.538 126.6 149.483C125.08 149.458 124.495 150.005 124.495 151.562C124.571 154.635 124.495 157.711 124.495 160.788C123.99 161.781 123.022 161.76 122.138 161.777C115.669 161.87 109.196 161.882 102.731 161.777C101.738 161.777 100.534 161.84 100.357 160.35L100.546 160.371C101.313 159.298 102.483 159.395 103.59 159.361C108.405 159.222 113.22 159.412 118.03 159.61C119.348 159.7 120.663 159.408 121.818 158.768C123.401 156.726 123.418 153.363 121.818 151.192C120.766 150.468 119.562 150.501 118.376 150.497C113.485 150.497 108.59 150.497 103.699 150.497C102.592 150.497 101.447 150.586 100.462 149.887C97.011 149.079 93.4671 149.773 89.9736 149.437Z" fill="#F07C33"/>
<path d="M100.493 149.849C101.705 149.39 102.976 149.571 104.222 149.571C109.868 149.554 115.513 149.554 121.159 149.571C121.992 149.62 122.821 149.717 123.642 149.862C123.964 153.337 123.964 156.834 123.642 160.308L100.539 160.342L100.493 149.849Z" fill="#455A64"/>
<path d="M121.399 86.3811C123.498 86.2365 125.607 86.3198 127.688 86.6294C129.523 86.9409 131.332 87.2523 133.248 86.4821C134.641 85.9181 136.194 86.5452 137.402 87.4459C138.34 88.1237 139.453 88.5194 140.609 88.5866C142.402 88.8012 143.778 89.1422 145.054 87.2692C145.748 86.2464 146.821 86.9661 147.036 88.2372C147.528 91.1456 147.827 91.2298 150.403 89.8661C152.255 88.8812 154.233 88.1446 155.875 86.7894C155.993 86.6797 156.132 86.5954 156.284 86.5419C156.436 86.4883 156.597 86.4666 156.758 86.4781C156.919 86.4895 157.075 86.5339 157.218 86.6084C157.361 86.683 157.487 86.7861 157.588 86.9114C158.43 87.8753 159.553 87.8584 160.652 88.0015C162.251 92.1263 162.251 92.1263 166.641 92.2484C167.332 92.2694 168.03 92.2484 168.645 92.644C168.199 93.5279 167.382 93.229 166.671 93.2543C165.686 93.288 164.773 93.3848 164.284 94.3991C163.257 96.2511 164.368 97.8631 164.848 99.5424C164.918 100.432 164.759 101.325 164.385 102.135C164.261 102.82 164.206 103.515 164.221 104.21C164.221 104.884 164.04 105.473 163.291 105.65C162.988 105.746 162.661 105.738 162.362 105.629C162.064 105.519 161.81 105.313 161.641 105.044C160.799 103.68 159.793 103.074 158.173 103.848C157.39 104.223 156.641 103.743 156.19 103.074C155.61 102.211 154.726 101.836 153.863 101.39C151.586 98.5912 149.191 95.9185 146.203 93.8141C145.138 93.2122 144.203 92.3873 143.017 91.9916C136.893 89.3274 130.36 88.5234 123.82 87.7237C122.856 87.6396 121.58 87.9342 121.399 86.3811Z" fill="#F07C33"/>
<path d="M136.272 61.8914C135.582 62.931 134.643 63.9959 136.903 64.6988C135.514 65.4858 134.319 65.5826 133.482 64.543C131.735 62.3712 129.315 62.0177 126.865 61.9588C120.131 61.8535 113.396 61.6389 106.662 62.0513C103.716 62.2323 100.69 63.0909 97.7013 63.6465C96.1693 63.9327 94.8855 64.442 93.585 62.8258C92.9031 61.984 91.3543 61.8283 90.3525 61.058C94.9319 58.7263 99.8774 57.5772 104.911 56.988C107.121 56.7312 108.32 56.2262 108.114 53.8313C108.081 53.4609 108.371 53.0611 108.51 52.6738C110.299 55.7969 110.854 55.961 115.598 54.7783C116.221 56.5629 117.736 56.7144 119.31 56.8828C124.391 57.4236 129.366 58.6996 134.079 60.6708C134.835 61.0311 135.568 61.4388 136.272 61.8914Z" fill="#F07C33"/>
<path d="M64.7169 86.3202C66.0216 87.6839 67.7389 87.8312 69.3888 87.5324C72.9478 86.9394 76.5474 86.6228 80.1553 86.5854C84.0612 86.5012 87.9881 85.8362 91.9403 86.8337C94.3983 87.4566 97.0247 86.3665 99.5879 86.1813C100.362 86.1266 101.107 86.0088 101.835 86.3665C101.739 87.806 100.573 87.6292 99.6679 87.747C96.0674 88.1515 92.4945 88.7727 88.9688 89.6074C83.991 90.767 79.3476 93.0584 75.3991 96.3038C74.7173 96.8594 74.0775 97.6002 73.0295 97.436C70.0412 97.0151 67.1118 96.691 64.2623 98.2778C62.8523 99.0691 61.7369 98.2273 61.0803 96.8384C61.0382 93.7911 60.7815 93.5133 57.6669 93.2439C57.1197 93.1976 56.5305 93.2439 56.2695 92.5999C57.7974 91.9181 59.4136 92.2674 60.9877 92.2464C62.3051 92.2464 63.0249 91.7371 63.3574 90.4492C63.7446 89.0602 64.2665 87.7092 64.7169 86.3202Z" fill="#F07C33"/>
<path d="M163.628 102.247L163.527 99.3387C164.369 99.0273 164.684 99.5408 164.891 100.181C165.097 100.82 165.168 101.548 165.396 102.201C165.661 102.979 164.924 104.305 166.111 104.499C166.54 104.558 166.976 104.527 167.393 104.41C167.809 104.293 168.197 104.091 168.532 103.818C168.868 103.544 169.143 103.204 169.341 102.82C169.539 102.435 169.656 102.014 169.685 101.582C169.79 99.8985 169.659 98.2444 169.76 96.5777C169.811 95.7738 169.71 94.831 170.825 94.5742C171.246 95.2687 171.179 96.0516 171.179 96.8134C171.179 106.3 171.179 115.789 171.179 125.278C171.179 127.147 170.88 128.797 168.62 129.176C166.537 128.913 164.428 128.926 162.348 129.214L161.928 129.29C161.768 129.198 161.634 129.07 161.535 128.915C161.436 128.76 161.376 128.584 161.359 128.401C161.688 124.773 162.765 121.267 163.106 117.639C163.169 116.949 163.342 116.276 163.161 115.581C163.546 112.971 163.575 110.32 163.245 107.702C163.072 106.481 163.817 105.597 163.813 104.495C163.796 103.746 163.994 102.971 163.628 102.247Z" fill="#455A64"/>
<path d="M63.035 129.265L62.6141 129.202C60.5325 128.93 58.4244 128.93 56.3427 129.202C54.8359 129.042 53.9984 128.217 53.8174 126.71C54.213 122.038 53.8889 117.358 53.99 112.682C54.0152 111.491 53.99 110.304 53.99 109.113C54.8318 107.147 55.5473 105.102 56.9362 103.418C57.3318 102.844 57.9359 102.447 58.6198 102.311C60.4675 102.033 61.0315 102.454 61.1115 104.336C61.1115 104.895 61.1115 105.455 61.1115 106.019C61.886 110.851 61.3598 115.754 61.9533 120.595C62.6183 122.842 62.9171 125.174 63.4937 127.447C63.7168 128.116 63.7673 128.802 63.035 129.265Z" fill="#455A64"/>
<path d="M90.3944 75.5034C90.0871 75.7812 89.7798 76.3073 89.4768 76.3031C86.4842 76.3031 84.847 78.8916 82.3932 79.8976C81.6776 80.1922 80.9579 80.7394 80.2887 80.0196C79.6195 79.2999 80.2887 78.7317 80.5707 78.1214C80.9916 77.2291 81.5261 76.2442 80.7096 75.4108C79.893 74.5775 78.9965 75.2299 78.1842 75.6213C77.7305 75.8828 77.2243 76.04 76.7023 76.0815C76.1804 76.123 75.6557 76.0477 75.1664 75.8612C74.3581 75.5242 73.482 75.3814 72.6085 75.4443C71.7351 75.5071 70.8884 75.7739 70.1367 76.2232C72.0139 72.8308 74.8928 70.3896 77.9359 68.1336C79.9015 66.6731 81.9554 65.3431 83.9715 63.9541L84.0809 64.0509C85.0069 67.839 86.5516 71.3029 89.3337 74.1229C89.7798 74.4975 90.3944 74.7585 90.3944 75.5034Z" fill="#F07C33"/>
<path d="M63.034 129.266C62.2301 126.509 61.4641 123.744 61.2031 120.848C61.4214 120.267 61.8102 119.765 62.3185 119.409C64.0953 118.414 65.7737 117.252 67.3313 115.94C68.1731 116.016 68.5014 116.622 68.594 117.355C68.9433 120.28 69.9956 122.986 71.1194 125.667C71.7472 126.781 72.4651 127.841 73.266 128.837C73.8258 129.447 74.255 130.099 73.9562 130.983C70.3828 131.311 68.4846 133.976 66.3801 136.379C64.9381 134.176 63.8118 131.782 63.034 129.266Z" fill="#F07C33"/>
<path d="M152.684 73.6902C151.524 74.6083 150.065 75.0654 148.589 74.9739C144.767 74.8729 140.95 75.942 137.115 74.9739C136.231 74.7509 135.331 74.6541 134.59 74.0859C134.943 72.5454 136.273 71.6573 137.086 70.4367C138.496 68.3322 139.093 65.9331 140.032 63.6477L140.171 63.5088C144.805 66.2951 149.241 69.3718 152.684 73.6902Z" fill="#F07C33"/>
<path d="M161.948 128.398C161.948 128.696 161.948 128.991 161.919 129.29C160.761 132.064 159.857 134.972 157.748 137.249C155.9 135.843 153.476 136.146 151.805 136.639C148.543 137.594 147.596 135.591 146.304 133.692C146.35 132.552 147.529 132.346 148.042 131.588C148.463 131.197 148.829 130.717 149.254 130.325C150.753 129.526 151.965 128.334 153.362 127.379C153.593 127.392 153.823 127.424 154.048 127.476C155.909 127.387 157.76 127.312 159.617 127.408C160.505 127.442 161.439 127.442 161.948 128.398Z" fill="#F07C33"/>
<path d="M170.826 94.5764C170.801 97.3094 170.777 100.04 170.755 102.767C170.755 103.727 170.658 104.627 169.492 104.905C168.158 105.225 166.504 104.951 166.18 107.01C166.108 107.477 165.502 107.241 165.241 106.816C164.695 105.916 164.404 104.884 164.399 103.832C164.353 102.3 164.235 100.755 163.507 99.3494C162.946 97.4243 162.563 95.4518 162.362 93.4568C164.547 92.5898 166.832 93.2674 169.059 93.0359C169.488 93.042 169.901 93.2001 170.225 93.4822C170.549 93.7643 170.762 94.152 170.826 94.5764Z" fill="#455A64"/>
<path d="M115.615 54.7714C115.657 56.0888 115.043 56.6444 113.725 56.4297C113.381 56.4023 113.035 56.4023 112.69 56.4297C108.721 56.4297 108.721 56.4297 108.527 52.6837L108.83 51.783C109.904 51.501 110.708 50.9875 110.977 49.7838C111.13 49.089 111.529 48.4731 112.101 48.0497C111.783 48.3669 111.487 48.7043 111.213 49.0598C110.712 49.6659 110.527 50.9749 109.529 50.5835C108.687 50.251 109.192 49.0851 109.15 48.2938C109.108 47.5025 108.982 46.6102 109.293 45.7979L109.365 42.5949C109.647 42.174 109.504 41.6521 109.55 41.1765C109.643 40.2632 109.129 38.9373 110.325 38.6511C111.634 38.3186 113.182 37.8809 114.319 39.2825C114.748 44.4342 115.18 49.5972 115.615 54.7714Z" fill="#455A64"/>
<path d="M114.305 39.2562C113.837 39.3736 113.355 39.4204 112.874 39.3951C110.163 38.7974 109.422 40.3084 109.351 42.5854C109.452 40.4305 108.846 38.7637 107.213 37.0801C104.624 34.4159 105.361 30.3753 108.358 28.0941C111.043 26.0485 115.058 26.7219 117.066 29.5546C117.558 30.2345 117.909 31.0065 118.097 31.8246C118.285 32.6428 118.307 33.4904 118.162 34.3172C118.016 35.1439 117.706 35.933 117.249 36.6376C116.793 37.3421 116.199 37.9478 115.504 38.4186L114.305 39.2562Z" fill="#F07C33"/>
<path d="M56.2998 92.6123C57.6719 92.6502 59.0482 92.7722 60.4119 92.7007C62.0955 92.6123 62.9373 93.0458 62.306 94.9062C62.2056 95.375 62.159 95.8537 62.167 96.333C61.5189 97.3095 62.7395 98.1976 62.306 99.1656C62.1039 99.978 61.4642 100.428 60.8118 100.79C59.1143 101.678 57.5349 102.775 56.1104 104.056C55.4496 104.65 54.5531 105.538 54.006 103.867C53.9049 100.967 54.2122 98.0671 53.8418 95.1755C53.9765 93.673 55.0371 93.0332 56.2998 92.6123Z" fill="#455A64"/>
<path d="M109.277 45.7885V49.5387C110.329 47.7583 112.408 47.2196 113.683 45.6875C112.896 48.4949 111.928 51.1591 109.828 53.2636C109.045 52.9984 109.34 52.1103 108.826 51.761C108.851 49.7702 108.755 47.7541 109.277 45.7885Z" fill="#455A64"/>
<path d="M53.8232 95.1748C54.6314 98.2221 53.9748 101.337 54.2441 104.409C55.8225 105.811 54.8923 107.204 54.2441 108.618C54.2441 113.767 54.2441 118.913 54.2441 124.057C54.2441 124.957 54.3493 125.875 53.8611 126.708L53.8232 95.1748Z" fill="#404040"/>
<path d="M169.101 93.0415C166.916 93.9043 164.635 93.2856 162.404 93.4624C162.93 92.3386 163.953 92.8605 164.766 92.7931C166.062 92.6795 167.367 92.6879 168.667 92.6416L169.101 93.0415Z" fill="#4B4B4B"/>
<path d="M156.011 139.661C154.778 137.863 154.778 137.863 157.741 137.236C157.394 138.186 156.797 139.024 156.011 139.661Z" fill="#F07C33"/>
<path d="M56.3262 129.183C58.3752 128.595 60.5484 128.595 62.5975 129.183H56.3262Z" fill="#474747"/>
<path d="M162.368 129.214C164.413 128.608 166.588 128.595 168.639 129.176L162.368 129.214Z" fill="#4A4A4A"/>
<path d="M73.2537 96.9032C80.6109 89.6302 90.0516 87.7488 99.7995 86.6629C100.486 86.5871 101.172 86.4693 101.858 86.3682C108.373 86.0863 114.905 86.0694 121.4 86.3682C126.539 87.0333 131.716 87.45 136.754 88.7547C139.195 89.3861 141.662 89.9753 143.821 91.3727C144.242 93.5571 143.471 95.2365 141.552 95.9352C140.588 96.2887 139.94 97.3073 138.778 97.1979C133.252 95.186 127.452 94.702 121.673 94.1043C117.016 93.5838 112.33 93.3687 107.645 93.4603C102.261 93.6809 96.9084 94.3853 91.651 95.5648C88.9671 96.086 86.3357 96.8481 83.7887 97.8418C77.5763 100.392 72.8454 104.538 69.7729 110.54C69.5204 111.041 69.2678 111.542 69.0237 112.047C68.7796 112.552 68.3966 113.045 67.761 112.889C67.2012 112.763 67.155 112.215 67.0497 111.723C66.7846 110.481 67.0792 109.198 66.7804 107.973C66.5741 103.604 69.634 98.3806 73.2537 96.9032Z" fill="#0F0F0F"/>
<path d="M90.3936 75.5046L89.1772 74.4861C88.8321 73.9768 88.8784 73.6696 89.5981 73.6948C91.8078 75.3784 93.9965 77.104 96.7197 77.9037C99.3461 79.3727 102.36 79.4947 105.163 80.3576C105.47 80.5133 105.47 80.6648 105.163 80.8205C99.8764 80.2948 94.8024 78.4685 90.3936 75.5046Z" fill="#838383"/>
<path d="M139.985 63.6553C139.539 67.8432 137.266 71.084 134.56 74.0934C133.221 75.1709 131.958 76.3536 130.351 77.065C130.178 76.9429 129.93 76.8966 129.93 76.6441L131.575 75.3814C135.155 73.0148 137.779 69.4546 138.979 65.3346C139.164 64.6907 139.08 63.8615 139.985 63.6553Z" fill="#888888"/>
<path d="M129.921 76.627L130.342 77.0478C125.712 79.7963 120.662 80.8569 115.333 80.9243C120.43 80.2172 125.392 79.1481 129.921 76.627Z" fill="#7D7D7D"/>
<path d="M105.127 80.8233C105.127 80.6676 105.127 80.5119 105.127 80.3604C107.059 80.3656 108.983 80.5915 110.864 81.0338C108.519 81.4757 106.836 80.8738 105.127 80.8233Z" fill="#6B6B6B"/>
<path d="M89.5527 73.6769L89.1318 74.4681C86.4423 71.4756 84.1947 68.2684 84.0811 64.0342C84.3141 64.1201 84.5175 64.2714 84.6668 64.47C84.8161 64.6686 84.905 64.906 84.9228 65.1538C85.5458 68.4999 87.3093 71.2231 89.5527 73.6769Z" fill="#8E8E8E"/>
<path d="M67.6284 107.727V112.542C69.8044 108 72.1193 104.355 75.5707 101.498C81.1265 96.893 87.7345 95.0747 94.6455 93.9215C98.5094 93.2691 102.415 92.844 106.287 92.4315C109.655 92.0738 113.127 92.4904 116.536 92.7177C121.764 93.0713 127.021 93.3112 132.172 94.3634C134.555 94.8517 137.03 95.1126 139.197 96.3795C140.371 96.3374 141.558 95.7355 142.72 96.4384C144.362 97.1371 145.797 98.2146 147.413 98.9638C149.004 100.441 150.044 102.331 151.201 104.124C152.464 106.09 154.051 107.807 155.385 109.718C155.536 109.932 155.898 109.886 156.172 109.835C156.854 109.549 156.664 107.967 157.973 108.606C159.333 110.5 158.554 112.647 158.706 114.684C158.285 117.967 157.956 121.288 156.576 124.365C155.911 125.846 155.414 127.53 153.495 127.972L153.146 128.081C151.752 128.969 151.041 130.543 149.749 131.528L148.486 132.219C147.278 132.539 146.327 133.481 145.056 133.654C144.239 133.338 144.324 132.61 144.383 131.857C142.59 133.237 141.23 135.072 138.818 135.152C137.423 134.969 136.016 134.897 134.609 134.938C119.884 134.938 105.152 134.938 90.4156 134.938C88.5174 134.938 86.6275 134.938 84.7756 135.451C84.3718 135.478 83.9694 135.381 83.6224 135.173C80.0658 134.559 76.8881 133.048 73.9418 131.023C73.3483 130.577 72.7422 130.144 72.637 129.319C72.4388 128.739 72.4259 128.113 72.6001 127.526C72.7744 126.939 73.1271 126.421 73.6093 126.044C74.8467 124.95 75.2171 123.153 76.5555 122.071C76.8565 121.766 77.1801 121.485 77.5236 121.229C76.3535 122.576 74.4258 123.658 73.3147 125.531C72.5991 126.718 71.7363 127.016 70.5325 126.335C68.3481 123.262 67.944 119.63 67.279 116.077C66.9817 115.962 66.7283 115.756 66.5545 115.489C66.3808 115.221 66.2956 114.906 66.311 114.587C66.1763 112.352 65.8901 110.101 66.896 107.967C66.9735 107.85 67.0878 107.763 67.2206 107.72C67.3535 107.676 67.4971 107.679 67.6284 107.727Z" fill="#455A64"/>
<path d="M142.981 135.09C142.745 137.805 139.917 138.12 138.541 139.821C137.164 141.521 135.102 142.346 132.741 143.141C133.162 140.523 134.651 138.688 136.423 136.773C134.176 135.978 132.071 136.479 130.043 136.449C122.265 136.323 114.47 136.373 106.704 136.407C104.894 136.407 103.118 136.828 101.275 136.613C100.227 136.491 99.2291 136.862 100.311 138.297C100.485 138.505 100.603 138.755 100.652 139.023C100.701 139.29 100.679 139.566 100.59 139.822C100.5 140.079 100.346 140.308 100.141 140.487C99.9365 140.666 99.6889 140.789 99.4226 140.843C96.2533 141.572 94.9906 144.568 92.5957 146.172C92.4821 146.248 92.3979 146.37 92.2885 146.454C91.7497 146.875 91.1605 147.603 90.4913 146.955C89.9062 146.387 90.6091 145.818 90.9416 145.322C91.8236 143.968 92.9 142.751 94.1362 141.71C95.7903 140.364 96.6405 138.377 98.5556 136.563C95.6494 136.271 92.7205 136.288 89.8178 136.613C87.806 136.858 85.7478 137.219 84.0811 135.544C85.0702 134.867 86.1855 134.905 87.3177 134.909C104.608 134.947 121.898 134.825 139.189 134.985C139.464 135.011 139.742 134.983 140.006 134.902C140.27 134.821 140.516 134.689 140.729 134.513C141.107 134.301 141.551 134.243 141.971 134.35C142.39 134.458 142.752 134.723 142.981 135.09Z" fill="#F07C33"/>
<path d="M140.901 135.191C139.912 135.683 138.847 135.545 137.807 135.545C119.902 135.545 101.998 135.545 84.0928 135.545L83.6719 135.145L84.5137 135.086C85.139 134.766 85.843 134.631 86.5423 134.699C103.939 134.699 121.336 134.699 138.733 134.699C138.942 134.705 139.15 134.725 139.356 134.757C139.857 134.968 140.48 134.652 140.901 135.191Z" fill="#AEAEAE"/>
<path d="M140.903 135.191L139.64 135.086C139.542 135.001 139.513 134.917 139.552 134.833C139.586 134.753 139.619 134.711 139.653 134.711C140.916 133.448 142.111 132.08 143.441 130.898C144.535 129.938 145.806 129.168 147.099 130.898C146.619 131.819 145.095 132.072 145.099 133.448C145.226 133.625 145.52 133.629 145.567 133.869L142.995 135.077L140.903 135.191Z" fill="#455A64"/>
<path d="M145.551 133.882C145.311 133.823 145.092 133.743 145.084 133.461C146.115 132.741 147.05 131.777 148.502 132.198C147.971 132.994 147.016 133.158 146.3 133.68L145.551 133.882Z" fill="#455A64"/>
<path d="M123.646 160.326C123.646 156.846 123.646 153.364 123.646 149.879C124.576 151.041 124.108 152.404 124.066 153.667C123.974 155.893 124.626 158.158 123.646 160.326Z" fill="#0F0F0F"/>
<path d="M116.575 159.655C116.44 159.622 115.523 160.03 115.733 159.129C115.844 158.691 116.093 158.3 116.443 158.014C116.793 157.728 117.226 157.563 117.678 157.542C118.276 157.513 119.29 157.984 119.113 158.645C118.869 159.542 117.897 159.878 116.575 159.655Z" fill="#455A64"/>
<path d="M157.691 114.857C157.569 112.753 158.07 110.619 157.341 108.544C157.1 108.497 156.877 108.381 156.701 108.21C156.524 108.039 156.402 107.82 156.348 107.58C155.733 105.647 154.973 103.763 154.075 101.944C153.76 101.338 153.68 100.749 154.256 100.235C154.677 100.463 155.3 100.589 155.519 100.947C156.47 102.681 157.506 103.228 159.412 102.058C160.216 101.565 161.445 102.117 161.938 103.287C162.194 103.876 162.236 104.933 163.112 104.714C163.92 104.512 163.491 103.514 163.604 102.866C163.629 102.659 163.639 102.451 163.634 102.243C164.375 106.73 164.821 111.229 164.055 115.766C163.019 118.805 160.481 118.111 158.385 117.761C156.761 117.492 157.602 115.909 157.691 114.857Z" fill="#F07C33"/>
<path d="M154.257 100.24C155.654 102.87 157.203 105.442 157.342 108.548C157.304 109.626 157.451 110.754 157.173 111.764C156.921 112.694 156.618 112.008 156.462 111.566C154.778 108.712 152.598 106.225 150.771 103.476C149.778 101.978 148.187 100.951 146.781 99.8062L142.572 97.2514C142.084 95.8793 143.166 93.8548 144.719 93.4002C145.363 93.215 146.02 92.8951 146.735 93.0761C149.833 94.8649 152.005 97.5797 154.257 100.24Z" fill="#111111"/>
<path d="M146.731 93.0758C145.624 93.9765 144.589 94.995 143.364 95.74C143.098 95.8872 142.879 96.1079 142.735 96.3759C142.591 96.6439 142.528 96.9478 142.552 97.2511L139.185 96.3714C141.516 95.4412 142.758 93.5051 143.814 91.3838C144.898 91.7302 145.893 92.3075 146.731 93.0758Z" fill="#212121"/>
<path d="M67.6289 107.726C67.524 107.739 67.4199 107.759 67.3174 107.785C66.7997 110.016 64.7921 110.955 63.239 112.171C61.9131 113.215 60.7515 112.39 60.7136 110.656C60.6757 108.922 60.7136 107.179 60.7136 105.441C60.7515 103.248 60.0654 100.984 61.3828 98.9212L62.1531 96.3327C62.4056 97.7553 63.2979 97.8101 64.287 97.1956C67.2332 95.3562 70.2216 95.7056 73.2478 96.9009C71.1434 99.6283 68.9968 102.318 67.974 105.706C67.7477 106.356 67.6311 107.038 67.6289 107.726Z" fill="#F07C33"/>
<path d="M157.692 114.857C157.6 116.28 157.81 116.52 159.586 116.613C161.362 116.705 162.655 116.533 164.073 115.771C164.079 120.067 163.368 124.335 161.968 128.398C159.153 128.17 156.291 128.877 153.513 127.951C156.152 123.991 157.141 119.491 157.692 114.857Z" fill="#F07C33"/>
<path d="M60.8973 105.606C60.8973 107.126 60.8973 108.649 60.952 110.169C61.0152 111.583 62.2147 112.227 62.8839 111.17C64.0035 109.399 65.8975 108.969 67.316 107.803C67.1476 110.563 67.1476 113.331 67.316 116.091C67.3959 117.45 67.0845 118.393 65.5187 118.839C63.953 119.285 62.846 120.577 61.2298 120.885C60.2659 115.884 60.548 110.825 60.5732 105.783C60.5816 105.526 60.6953 105.463 60.8973 105.606Z" fill="#F07C33"/>
<path d="M60.8954 105.607L60.5545 105.767C60.2262 104.955 61.1395 103.591 59.78 103.317C58.4205 103.044 57.3304 103.919 56.9053 105.232C56.4213 106.731 55.4238 107.728 54.2158 108.6C54.2158 107.202 54.2158 105.805 54.2158 104.391C56.6738 102.648 58.5131 100.106 61.371 98.9189L60.8954 105.607Z" fill="#455A64"/>
<path d="M70.5508 126.33C72.992 124.92 74.3641 122.319 76.7127 120.795C77.5118 120.241 78.2738 119.635 78.9939 118.981C79.4485 118.594 79.7473 118.796 80.0377 119.158C80.3282 119.52 80.9342 119.827 80.5891 120.126C79.7473 120.867 79.7726 122.58 78.2279 122.475C77.9143 122.43 77.5947 122.493 77.3222 122.655C77.0496 122.816 76.8406 123.066 76.7295 123.363C75.8877 125.724 73.6654 127.083 72.6637 129.297C71.7823 128.447 71.0659 127.441 70.5508 126.33Z" fill="#455A64"/>
<path d="M149.736 131.509C150.818 130.305 151.193 128.415 153.133 128.062C152.309 129.478 151.141 130.664 149.736 131.509Z" fill="#455A64"/>
<path d="M112.103 37.0751C109.856 37.0288 108.1 35.3915 108.138 33.3418C108.193 30.5091 109.523 29.1328 112.162 29.1328C114.035 29.1328 116.06 31.3467 116.038 33.3418C116.032 33.8472 115.924 34.3462 115.721 34.8093C115.518 35.2724 115.225 35.6902 114.858 36.0381C114.491 36.386 114.058 36.657 113.585 36.8351C113.112 37.0132 112.608 37.0948 112.103 37.0751Z" fill="#FFAA75"/>
<path d="M61.3873 93.0701C60.9201 93.6215 60.4866 93.4489 60.1246 93.4573C59.0387 93.4868 57.9486 93.4573 56.6943 93.4573C57.1699 92.9018 57.6035 93.0785 57.957 93.0659C59.0513 93.0533 60.1415 93.0701 61.3873 93.0701Z" fill="#484848"/>
<path d="M114.757 129.299C111.348 129.472 108.023 129.324 105.14 127.127C103.705 126.101 102.628 124.649 102.063 122.977C101.752 122.009 101.642 121.008 102.484 120.229C103.326 119.45 104.168 119.88 105.052 120.17C107.639 121.078 110.385 121.446 113.12 121.252C114.572 120.991 115.965 120.738 117.329 119.959C118.878 119.076 120.696 119.644 122.38 119.985L123.146 121.361C123.52 122.59 123.373 123.676 122.304 124.526C121.213 125.822 119.969 126.981 118.6 127.978C118.551 128.147 118.466 128.304 118.352 128.438C118.239 128.573 118.098 128.682 117.939 128.759C117.781 128.836 117.608 128.879 117.432 128.885C117.255 128.891 117.08 128.86 116.917 128.794L115.595 129.181C115.554 129.252 115.498 129.313 115.431 129.359C115.363 129.405 115.286 129.434 115.205 129.446C115.124 129.457 115.042 129.45 114.964 129.424C114.887 129.399 114.816 129.356 114.757 129.299Z" fill="#263238"/>
<path d="M123.612 112.017C123.372 111.596 122.997 111.213 122.909 110.755C122.311 107.686 125.253 102.964 128.507 101.697C131.76 100.43 135.148 101.655 137.228 104.803C138.438 106.693 139.114 108.874 139.185 111.117C136.659 113.065 135.611 112.665 134.862 109.496C134.635 108.553 134.441 107.589 133.772 106.823C132.333 106.887 132.48 105.611 132.089 104.803C129.929 104.117 128.086 105.645 127.459 108.671C127.286 109.479 127.156 110.296 127.004 111.108C126.941 112.08 126.499 112.821 125.548 113.086C124.597 113.352 123.969 112.872 123.612 112.017Z" fill="#263238"/>
<path d="M98.8101 103.13C100.497 104.93 101.593 107.204 101.95 109.645C102.139 110.95 101.744 111.91 100.367 112.128C99.1047 112.326 98.1788 111.863 97.8884 110.483C97.598 109.102 97.3749 107.722 96.6257 106.501C94.9674 103.79 92.7618 103.782 91.1077 106.467C90.4543 107.628 90.026 108.902 89.845 110.222C89.5967 111.59 88.8139 112.381 87.3534 112.124C85.775 111.851 85.6403 110.702 85.876 109.401C86.5158 105.819 88.1615 102.966 91.6549 101.459C93.4858 100.983 95.3335 101.345 97.1728 101.324C98.3177 101.316 98.5702 102.246 98.8101 103.13Z" fill="#263238"/>
<path d="M139.636 134.711V135.086C127.009 135.114 114.382 135.141 101.756 135.166C96.0063 135.166 90.2611 135.12 84.499 135.094C85.1472 134.253 86.0732 134.286 86.9907 134.286H137.38C138.163 134.286 138.933 134.286 139.636 134.711Z" fill="#455A64"/>
<path d="M98.8114 103.132C96.707 101.322 94.2237 101.226 91.6562 101.449C91.9845 101.327 92.3339 101.057 92.6285 101.108C96.8627 101.861 98.7567 98.6203 101.072 96.1539C102.469 94.6639 103.879 93.2455 105.996 92.8499C106.493 92.7573 106.989 92.7362 107.292 93.2413C107.562 93.6622 107.364 94.2851 107.023 94.3062C104.052 94.5124 103.778 97.3703 102.343 99.0454C101.173 100.422 99.5438 101.394 98.8114 103.132Z" fill="#455A64"/>
<path d="M123.61 112.016C124.94 112.504 126.085 112.293 126.977 111.119C127.554 112.184 126.851 114.028 125.554 114.162C123.795 114.352 123.227 115.475 122.73 116.822C122.377 117.787 121.76 118.633 120.95 119.263L122.372 119.983C120.352 119.68 118.584 120.724 116.644 120.998C115.48 121.222 114.293 121.307 113.108 121.25C115.933 120.324 118.058 118.531 119.759 116.119C120.84 114.583 122.642 113.682 123.61 112.016Z" fill="#455A64"/>
<path d="M146.795 99.8047C151.319 102.447 154.752 106.617 156.475 111.564C154.6 110.091 153.014 108.281 151.799 106.228C150.334 103.936 148.658 101.786 146.795 99.8047Z" fill="#455A64"/>
<path d="M139.181 111.144C139.363 110.852 139.482 110.525 139.53 110.185C139.577 109.844 139.553 109.497 139.458 109.166C139.366 108.69 139.273 108.126 139.964 108.051C140.506 107.992 140.843 108.404 141.041 108.863C141.225 109.275 141.284 109.732 141.209 110.177C141.134 110.622 140.929 111.034 140.62 111.363C140.081 111.999 139.551 111.86 139.181 111.127V111.144Z" fill="#455A64"/>
<path d="M132.062 104.815C132.463 105.023 132.818 105.309 133.107 105.656C133.396 106.003 133.613 106.404 133.745 106.836C133.531 107.442 133.324 108.153 132.483 107.8C131.83 107.526 131.279 107.012 131.506 106.171C131.661 105.707 131.847 105.254 132.062 104.815Z" fill="#455A64"/>
<path d="M122.298 124.524C122.58 123.468 122.858 122.42 123.14 121.359C124.318 122.664 124.038 123.719 122.298 124.524Z" fill="#455A64"/>
<path d="M128.165 113.919C128.611 113.919 129.006 114.02 129.006 114.416C129.006 115.005 128.51 115.169 128.021 115.22C127.643 115.257 127.335 115.072 127.407 114.643C127.445 114.46 127.537 114.292 127.673 114.163C127.808 114.033 127.98 113.948 128.165 113.919Z" fill="#455A64"/>
<path d="M114.758 129.298L115.566 129.18C114.551 130.998 112.893 129.554 111.597 129.958C112.607 129.533 113.777 129.862 114.758 129.298Z" fill="#455A64"/>
<path d="M116.909 128.792L118.593 127.976C119.228 128.75 118.593 129.28 118.088 129.558C117.482 129.907 117.208 129.192 116.909 128.792Z" fill="#455A64"/>
<path d="M114.776 33.3406C114.776 34.94 113.513 36.127 111.8 36.169C110.339 36.2069 109.22 34.9316 109.216 33.2228C109.207 32.8383 109.279 32.4564 109.429 32.102C109.578 31.7475 109.8 31.4286 110.081 31.1659C110.362 30.9033 110.695 30.703 111.059 30.578C111.422 30.453 111.808 30.4062 112.191 30.4407C113.904 30.6006 114.835 31.556 114.776 33.3406Z" fill="#FFC9A8"/>
</svg>
