<svg width="100" height="56" viewBox="0 0 100 56" fill="none" xmlns="http://www.w3.org/2000/svg">
<path d="M0.265364 55.137C1.74363 44.3448 22.0958 24.061 38.752 16.2584C56.7853 7.68737 68.2669 6.263 93.637 9.62455C92.8685 8.24756 92.1212 7.18864 91.6184 6.13219C90.9709 4.87868 90.397 3.60145 89.994 2.35041C89.8755 1.98245 90.3244 1.10677 90.7423 0.890939C91.1601 0.675107 92.062 0.953175 92.3277 1.27372C94.7903 4.37936 97.1056 7.53241 99.5183 10.7353C100.266 11.7943 100.109 12.8196 98.976 13.5906C94.5719 16.309 90.1915 19.101 85.6901 21.7695C84.6574 22.3459 83.2379 22.4782 81.7661 22.9524C81.9242 19.4086 84.692 18.9232 86.3446 17.4973C88.047 15.9741 90.0152 14.7715 92.3064 13.0586C84.8708 10.9052 77.8357 10.2473 70.7646 10.7382C44.8537 12.5058 24.3647 24.5485 8.2947 44.5088C6.21439 47.1285 4.44968 49.9713 2.46667 52.6408C1.89671 53.3931 1.27934 53.9981 0.265364 55.137Z" fill="black"/>
</svg>
