<svg width="113" height="92" viewBox="0 0 113 92" fill="none" xmlns="http://www.w3.org/2000/svg">
<path d="M-7.93806e-05 90.9951C13.2171 95.2656 47.7783 83.1007 65.9552 68.2791C85.7766 52.3004 93.7633 39.8965 103.933 8.88858C105.09 10.5331 105.893 11.9774 106.829 13.1393C107.911 14.5765 109.061 15.9423 110.275 17.0973C110.633 17.437 111.887 17.4055 112.366 17.0448C112.845 16.6841 113.024 15.4941 112.803 15.0115C110.597 10.4645 108.255 6.06042 105.909 1.51692C105.106 0.0726943 103.841 -0.313938 102.329 0.560843C96.7697 4.11741 91.1392 7.60603 85.5836 11.302C84.3502 12.1698 83.4131 13.7274 82.0543 15.1562C86.2132 16.9346 88.3018 14.023 90.8541 12.9129C93.5457 11.7993 96.0161 10.2032 99.2512 8.51803C97.6129 18.2521 94.4778 26.6989 90.0029 34.5517C73.6414 63.3442 48.4731 80.2242 16.6519 87.6481C12.4915 88.5894 8.24922 89.0446 4.08535 89.8465C2.90588 90.0854 1.86929 90.4601 -7.93806e-05 90.9951Z" fill="black"/>
</svg>
