<svg width="358" height="320" viewBox="0 0 358 320" fill="none" xmlns="http://www.w3.org/2000/svg">
<path d="M38.5362 47.3567L38.0158 272.209L319.267 272.86L319.788 48.0077L38.5362 47.3567Z" fill="#EBEBEB"/>
<path d="M319.72 47.9912C319.72 47.9912 319.257 48.0102 318.371 48.0155C317.467 48.0202 316.157 48.0269 314.437 48.0361C310.959 48.0427 305.841 48.0484 299.182 48.0593C285.842 48.0587 266.347 48.0576 241.63 48.0578C192.235 48.0069 121.988 47.9284 38.4773 47.8401L38.9678 47.3507C38.8338 114.269 38.6787 190.988 38.5146 272.169L38.5146 272.191L37.9707 271.643C142.091 271.915 238.857 272.164 319.211 272.375L318.756 272.829C319.01 205.082 319.215 148.929 319.361 109.687C319.457 90.0499 319.532 74.6516 319.581 64.1379C319.617 58.8939 319.641 54.8703 319.661 52.1363C319.683 49.4168 319.72 47.9912 319.72 47.9912C319.72 47.9912 319.75 49.3532 319.76 52.0412C319.767 54.7558 319.772 58.7521 319.786 63.9579C319.788 74.4479 319.793 89.814 319.798 109.408C319.765 148.72 319.717 204.973 319.663 272.839L319.662 273.293L319.207 273.292C238.855 273.136 142.088 272.947 37.9682 272.746L37.4206 272.746L37.4212 272.202L37.4206 272.176C37.6252 190.992 37.8177 114.274 37.9891 47.3569L37.9917 46.8684L38.4802 46.8711C122.118 47.1612 192.475 47.4071 241.947 47.5792C266.616 47.6914 286.073 47.7772 299.387 47.8383C306.006 47.8789 311.089 47.9088 314.546 47.932C316.244 47.9488 317.535 47.9602 318.427 47.9688C319.292 47.9708 319.72 47.9912 319.72 47.9912Z" fill="#E0E0E0"/>
<path d="M48.1984 61.5349L47.7435 258.078L309.236 258.683L309.69 62.1401L48.1984 61.5349Z" fill="#F5F5F5"/>
<path d="M47.6952 258.064L139.301 136.106L195.702 212.664L234.167 171.893L309.179 258.657L47.6952 258.064Z" fill="#E0E0E0"/>
<path d="M219.925 121.325C219.899 132.696 210.659 141.892 199.289 141.866C187.918 141.84 178.722 132.604 178.748 121.23C178.774 109.859 188.011 100.663 199.385 100.689C210.755 100.715 219.952 109.955 219.925 121.325Z" fill="#E0E0E0"/>
</svg>
