<svg width="224" height="201" viewBox="0 0 224 201" fill="none" xmlns="http://www.w3.org/2000/svg">
<path fill-rule="evenodd" clip-rule="evenodd" d="M21.3177 97.1992C14.586 103.828 14.5029 114.659 21.132 121.391C27.7611 128.123 38.5922 128.206 45.3239 121.577L66.8345 100.394L37.6226 133.309C32.1964 139.423 32.4369 148.696 38.1727 154.52C44.1926 160.633 54.0282 160.709 60.1413 154.689L80.2117 134.924L56.6673 162.208C51.6254 168.051 51.9127 176.785 57.3276 182.284C63.0691 188.114 72.4499 188.186 78.2803 182.445L90.651 170.262C89.8799 175.93 91.6494 181.882 95.9735 186.273C103.385 193.798 115.493 193.891 123.019 186.48L147.335 162.535L140.106 173.418C136.712 178.527 137.363 185.315 141.667 189.685C146.69 194.786 154.897 194.849 159.998 189.826L210.24 140.349C215.259 135.407 215.321 127.332 210.379 122.314C206.026 117.893 199.123 117.246 194.025 120.781L179.525 130.835L202.006 108.696C209.532 101.285 209.625 89.1767 202.214 81.651C197.89 77.26 191.966 75.3994 186.287 76.0833L199.499 63.0728C205.336 57.3249 205.408 47.9335 199.66 42.0966C194.248 36.6012 185.528 36.1701 179.601 41.1048L152.961 63.2834L180.344 36.3173C186.459 30.2953 186.535 20.4561 180.513 14.341C174.778 8.51751 165.513 8.13141 159.313 13.4576L126.407 41.7291L131.042 37.1647C137.774 30.5355 137.857 19.7045 131.228 12.9728C124.599 6.24111 113.768 6.15799 107.036 12.7871L66.81 52.4001L73.691 43.5771C78.5809 37.307 78.0656 28.3837 72.4865 22.7182C66.3472 16.484 56.3166 16.407 50.0824 22.5462L12.1299 59.9204C5.94323 66.0128 5.86682 75.967 11.9593 82.1537C17.5639 87.8451 26.5455 88.4292 32.8401 83.5117L44.3398 74.5279L21.3177 97.1992Z" fill="#E6E6E6"/>
<g filter="url(#filter0_d_84_168)">
<circle cx="111.998" cy="100.711" r="58.4414" fill="white"/>
<circle cx="111.998" cy="100.711" r="57.4414" stroke="#313131" stroke-width="2"/>
</g>
<g filter="url(#filter1_d_84_168)">
<circle cx="112" cy="100.711" r="67.4053" stroke="#313131" stroke-width="2" shape-rendering="crispEdges"/>
</g>
<g filter="url(#filter2_d_84_168)">
<circle cx="12.1084" cy="12.1084" r="12.1084" transform="matrix(1 0 0 -1 99.3428 81.2402)" fill="#F56206"/>
<circle cx="12.1084" cy="12.1084" r="11.1084" transform="matrix(1 0 0 -1 99.3428 81.2402)" stroke="#313131" stroke-width="2"/>
</g>
<g filter="url(#filter3_d_84_168)">
<path d="M100.928 133.817C100.618 139.798 105.385 144.818 111.375 144.818C117.42 144.818 122.207 139.709 121.813 133.676L119.083 91.8651C118.808 87.6539 115.312 84.3789 111.092 84.3789C106.83 84.3789 103.315 87.7167 103.095 91.9728L100.928 133.817Z" fill="#F56206"/>
<path d="M101.927 133.868C101.647 139.278 105.958 143.818 111.375 143.818C116.843 143.818 121.172 139.197 120.816 133.741L118.085 91.9303C117.845 88.245 114.785 85.3789 111.092 85.3789C107.363 85.3789 104.286 88.2999 104.094 92.0245L101.927 133.868Z" stroke="#313131" stroke-width="2"/>
</g>
<path d="M55.0449 175.257H175.467" stroke="#313131" stroke-width="2" stroke-linecap="round"/>
<path d="M179.902 175.257H186.213" stroke="#313131" stroke-width="2" stroke-linecap="round"/>
<path d="M163.527 169.116H169.497" stroke="#313131" stroke-width="2" stroke-linecap="round"/>
<path d="M158.922 169.287H71.5898" stroke="#313131" stroke-width="2" stroke-linecap="round"/>
<path d="M67.1553 169.116H61.1855" stroke="#313131" stroke-width="2" stroke-linecap="round"/>
<path d="M50.4395 175.257H43.7871" stroke="#313131" stroke-width="2" stroke-linecap="round"/>
<circle cx="193.011" cy="134.664" r="3.52391" fill="#F6A76E"/>
<circle cx="156.276" cy="7.46125" r="5.22395" fill="#F6A76E"/>
<circle cx="28.8819" cy="106.9" r="6.18948" fill="#F6A76E"/>
<path d="M218.45 137.314C218.929 138.054 219.795 138.616 220.564 139.003C219.722 139.022 218.725 139.165 217.968 139.65C217.112 140.199 216.352 141.328 215.819 142.272C215.707 142.468 215.605 142.66 215.512 142.839C215.505 142.64 215.493 142.427 215.476 142.206C215.39 141.129 215.153 139.782 214.499 138.915C214.028 138.29 213.247 137.795 212.522 137.434C213.332 137.423 214.253 137.291 214.945 136.837C215.362 136.564 215.756 136.135 216.107 135.666C216.46 135.193 216.784 134.663 217.057 134.168C217.209 133.893 217.346 133.627 217.465 133.388C217.486 133.627 217.513 133.89 217.547 134.165C217.615 134.701 217.713 135.288 217.856 135.838C217.997 136.383 218.188 136.911 218.45 137.314Z" stroke="#F56206" stroke-width="0.585896"/>
<path d="M14.1539 151.783C14.6333 152.523 15.4993 153.085 16.2677 153.472C15.426 153.491 14.4287 153.634 13.6724 154.119C12.8165 154.668 12.0562 155.797 11.5227 156.74C11.4115 156.937 11.3088 157.128 11.2157 157.308C11.2088 157.109 11.1975 156.896 11.1799 156.675C11.0943 155.598 10.8567 154.25 10.2035 153.384C9.73254 152.759 8.95147 152.264 8.22625 151.903C9.03577 151.892 9.95673 151.76 10.6492 151.306C11.0662 151.032 11.4597 150.604 11.8107 150.135C12.1644 149.662 12.488 149.131 12.7612 148.637C12.9133 148.362 13.0506 148.096 13.1695 147.856C13.19 148.095 13.2168 148.358 13.2514 148.634C13.3188 149.17 13.4168 149.757 13.5597 150.306C13.7015 150.852 13.8923 151.379 14.1539 151.783Z" stroke="#F56206" stroke-width="0.585896"/>
<path d="M54.1832 7.07025C54.6626 7.81035 55.5286 8.3718 56.297 8.75912C55.4553 8.77816 54.458 8.9207 53.7017 9.40592C52.8458 9.955 52.0855 11.0838 51.552 12.0275C51.4408 12.2243 51.3381 12.4155 51.245 12.5952C51.2381 12.3963 51.2268 12.1832 51.2092 11.9617C51.1236 10.8847 50.886 9.53754 50.2328 8.67101C49.7618 8.04629 48.9808 7.55105 48.2556 7.18977C49.0651 7.17911 49.986 7.04668 50.6785 6.59278C51.0955 6.3194 51.489 5.89063 51.84 5.42171C52.1937 4.94931 52.5172 4.41851 52.7905 3.92402C52.9426 3.64872 53.0799 3.38329 53.1988 3.14354C53.2193 3.38243 53.2461 3.64556 53.2807 3.92112C53.3481 4.45676 53.4461 5.04396 53.589 5.59344C53.7308 6.13914 53.9216 6.66644 54.1832 7.07025Z" stroke="#F56206" stroke-width="0.585896"/>
<path d="M9.55627 43.9365C10.0357 44.6766 10.9016 45.238 11.6701 45.6253C10.8284 45.6444 9.83106 45.7869 9.07472 46.2721C8.21883 46.8212 7.45854 47.95 6.92507 48.8937C6.81384 49.0905 6.71111 49.2817 6.61806 49.4614C6.61116 49.2625 6.59982 49.0494 6.58222 48.828C6.49668 47.7509 6.259 46.4038 5.60581 45.5372C5.13489 44.9125 4.35381 44.4173 3.6286 44.056C4.43812 44.0453 5.35908 43.9129 6.05152 43.459C6.46857 43.1856 6.86201 42.7568 7.21307 42.2879C7.56673 41.8155 7.8903 41.2847 8.16352 40.7902C8.31563 40.5149 8.4529 40.2495 8.57182 40.0098C8.59238 40.2486 8.6191 40.5118 8.65376 40.7873C8.72115 41.323 8.81915 41.9102 8.962 42.4596C9.10388 43.0053 9.29469 43.5327 9.55627 43.9365Z" stroke="#F56206" stroke-width="0.585896"/>
<path d="M117.545 192.606C118.024 193.346 118.89 193.908 119.658 194.295C118.817 194.314 117.819 194.457 117.063 194.942C116.207 195.491 115.447 196.62 114.913 197.564C114.802 197.76 114.699 197.952 114.606 198.131C114.599 197.932 114.588 197.719 114.571 197.498C114.485 196.421 114.247 195.074 113.594 194.207C113.123 193.582 112.342 193.087 111.617 192.726C112.426 192.715 113.347 192.583 114.04 192.129C114.457 191.856 114.85 191.427 115.201 190.958C115.555 190.485 115.879 189.955 116.152 189.46C116.304 189.185 116.441 188.919 116.56 188.68C116.581 188.919 116.607 189.182 116.642 189.457C116.709 189.993 116.807 190.58 116.95 191.13C117.092 191.675 117.283 192.203 117.545 192.606Z" stroke="#F56206" stroke-width="0.585896"/>
<circle cx="169.497" cy="37.5755" r="2.1558" stroke="#F56206" stroke-width="0.831544"/>
<circle cx="37.6429" cy="65.7962" r="2.1558" stroke="#F56206" stroke-width="0.831544"/>
<defs>
<filter id="filter0_d_84_168" x="53.5566" y="42.2695" width="119.883" height="118.883" filterUnits="userSpaceOnUse" color-interpolation-filters="sRGB">
<feFlood flood-opacity="0" result="BackgroundImageFix"/>
<feColorMatrix in="SourceAlpha" type="matrix" values="0 0 0 0 0 0 0 0 0 0 0 0 0 0 0 0 0 0 127 0" result="hardAlpha"/>
<feOffset dx="2" dy="1"/>
<feGaussianBlur stdDeviation="0.5"/>
<feComposite in2="hardAlpha" operator="out"/>
<feColorMatrix type="matrix" values="0 0 0 0 0 0 0 0 0 0 0 0 0 0 0 0 0 0 0.25 0"/>
<feBlend mode="normal" in2="BackgroundImageFix" result="effect1_dropShadow_84_168"/>
<feBlend mode="normal" in="SourceGraphic" in2="effect1_dropShadow_84_168" result="shape"/>
</filter>
<filter id="filter1_d_84_168" x="43.5947" y="32.3057" width="139.811" height="138.811" filterUnits="userSpaceOnUse" color-interpolation-filters="sRGB">
<feFlood flood-opacity="0" result="BackgroundImageFix"/>
<feColorMatrix in="SourceAlpha" type="matrix" values="0 0 0 0 0 0 0 0 0 0 0 0 0 0 0 0 0 0 127 0" result="hardAlpha"/>
<feOffset dx="2" dy="1"/>
<feGaussianBlur stdDeviation="0.5"/>
<feComposite in2="hardAlpha" operator="out"/>
<feColorMatrix type="matrix" values="0 0 0 0 0 0 0 0 0 0 0 0 0 0 0 0 0 0 0.25 0"/>
<feBlend mode="normal" in2="BackgroundImageFix" result="effect1_dropShadow_84_168"/>
<feBlend mode="normal" in="SourceGraphic" in2="effect1_dropShadow_84_168" result="shape"/>
</filter>
<filter id="filter2_d_84_168" x="99.3428" y="57.0234" width="27.2168" height="26.2168" filterUnits="userSpaceOnUse" color-interpolation-filters="sRGB">
<feFlood flood-opacity="0" result="BackgroundImageFix"/>
<feColorMatrix in="SourceAlpha" type="matrix" values="0 0 0 0 0 0 0 0 0 0 0 0 0 0 0 0 0 0 127 0" result="hardAlpha"/>
<feOffset dx="2" dy="1"/>
<feGaussianBlur stdDeviation="0.5"/>
<feComposite in2="hardAlpha" operator="out"/>
<feColorMatrix type="matrix" values="0 0 0 0 0.204167 0 0 0 0 0.203316 0 0 0 0 0.203316 0 0 0 0.25 0"/>
<feBlend mode="normal" in2="BackgroundImageFix" result="effect1_dropShadow_84_168"/>
<feBlend mode="normal" in="SourceGraphic" in2="effect1_dropShadow_84_168" result="shape"/>
</filter>
<filter id="filter3_d_84_168" x="100.914" y="84.3789" width="24.9219" height="62.4395" filterUnits="userSpaceOnUse" color-interpolation-filters="sRGB">
<feFlood flood-opacity="0" result="BackgroundImageFix"/>
<feColorMatrix in="SourceAlpha" type="matrix" values="0 0 0 0 0 0 0 0 0 0 0 0 0 0 0 0 0 0 127 0" result="hardAlpha"/>
<feOffset dx="3" dy="1"/>
<feGaussianBlur stdDeviation="0.5"/>
<feComposite in2="hardAlpha" operator="out"/>
<feColorMatrix type="matrix" values="0 0 0 0 0.203922 0 0 0 0 0.203922 0 0 0 0 0.203922 0 0 0 0.25 0"/>
<feBlend mode="normal" in2="BackgroundImageFix" result="effect1_dropShadow_84_168"/>
<feBlend mode="normal" in="SourceGraphic" in2="effect1_dropShadow_84_168" result="shape"/>
</filter>
</defs>
</svg>
