<svg width="184" height="162" viewBox="0 0 184 162" fill="none" xmlns="http://www.w3.org/2000/svg">
<path d="M157.596 111.601H20.627V111.669H157.596V111.601Z" fill="#EBEBEB"/>
<path d="M44.0714 114.201H34.998V114.269H44.0714V114.201Z" fill="#EBEBEB"/>
<path d="M79.1575 113.46H67.5078V113.528H79.1575V113.46Z" fill="#EBEBEB"/>
<path d="M51.4898 115.159H46.2324V115.227H51.4898V115.159Z" fill="#EBEBEB"/>
<path d="M143.872 116.278H139.699V116.346H143.872V116.278Z" fill="#EBEBEB"/>
<path d="M137.259 116.278H127.865V116.346H137.259V116.278Z" fill="#EBEBEB"/>
<path d="M111.529 114.313H105V114.381H111.529V114.313Z" fill="#EBEBEB"/>
<path d="M85.5544 99.4249H32.6574C31.7953 99.4249 31.0938 98.7257 31.0938 97.8665V23.7614C31.0938 22.9022 31.7953 22.203 32.6574 22.203H85.5544C86.4162 22.203 87.1177 22.9022 87.1177 23.7614V97.8665C87.1177 98.7257 86.4162 99.4249 85.5544 99.4249ZM32.6574 22.2716C31.8328 22.2716 31.1622 22.9399 31.1622 23.7617V97.8668C31.1622 98.6885 31.8328 99.3569 32.6574 99.3569H85.5544C86.3787 99.3569 87.0493 98.6885 87.0493 97.8668V23.7614C87.0493 22.9399 86.3787 22.2713 85.5544 22.2713L32.6574 22.2716Z" fill="#EBEBEB"/>
<path d="M144.806 99.4249H91.9091C91.047 99.4249 90.3457 98.7257 90.3457 97.8665V23.7614C90.3457 22.9022 91.0473 22.203 91.9091 22.203H144.806C145.668 22.203 146.369 22.9022 146.369 23.7614V97.8665C146.37 98.7257 145.668 99.4249 144.806 99.4249ZM91.9091 22.2716C91.0848 22.2716 90.4142 22.9399 90.4142 23.7617V97.8668C90.4142 98.6885 91.0848 99.3569 91.9091 99.3569H144.806C145.63 99.3569 146.301 98.6885 146.301 97.8668V23.7614C146.301 22.9399 145.63 22.2713 144.806 22.2713L91.9091 22.2716Z" fill="#EBEBEB"/>
<path d="M104.863 60.8139L134.412 60.8139V31.2846L104.863 31.2846V60.8139Z" fill="#F0F0F0"/>
<path d="M104.864 31.2851H104.354V60.8144H104.864V31.2851Z" fill="#E0E0E0"/>
<path d="M107.473 58.949H131.805V33.1499H107.473V58.949Z" fill="#FAFAFA"/>
<path d="M117.061 53.3407H124.767C126.437 53.3407 127.554 51.9915 127.263 50.3272L125.764 41.7717C125.473 40.1074 123.883 38.7582 122.213 38.7582H114.507C112.837 38.7582 111.72 40.1074 112.011 41.7717L113.509 50.3272C113.801 51.9915 115.391 53.3407 117.061 53.3407Z" fill="#F0F0F0"/>
<path d="M49.3823 69.7814H42.8086V110.202H49.3823V69.7814Z" fill="#F0F0F0"/>
<path d="M78.231 110.202H43.4805V111.597H78.231V110.202Z" fill="#F0F0F0"/>
<path d="M49.3831 110.202H78.8105V69.7817H49.3831V110.202Z" fill="#F5F5F5"/>
<path d="M50.5644 98.0468H77.625V90.8291H50.5644V98.0468Z" fill="#F0F0F0"/>
<path d="M50.5644 107.493H77.625V100.276H50.5644V107.493Z" fill="#F0F0F0"/>
<path d="M74.4232 91.3761H53.768C53.5905 91.3761 53.4453 91.2314 53.4453 91.0545V90.7081C53.4453 90.5311 53.5905 90.3864 53.768 90.3864H74.4232C74.6007 90.3864 74.7458 90.5311 74.7458 90.7081V91.0545C74.7461 91.2314 74.6007 91.3761 74.4232 91.3761Z" fill="#F5F5F5"/>
<path d="M74.4232 100.823H53.768C53.5905 100.823 53.4453 100.678 53.4453 100.501V100.155C53.4453 99.978 53.5905 99.8333 53.768 99.8333H74.4232C74.6007 99.8333 74.7458 99.978 74.7458 100.155V100.501C74.7461 100.678 74.6007 100.823 74.4232 100.823Z" fill="#F5F5F5"/>
<path d="M50.5644 79.2281H77.625V72.0104H50.5644V79.2281Z" fill="#F0F0F0"/>
<path d="M50.5644 88.6001H77.625V81.3824H50.5644V88.6001Z" fill="#F0F0F0"/>
<path d="M74.4232 72.5577H53.768C53.5905 72.5577 53.4453 72.413 53.4453 72.2361V71.8896C53.4453 71.7127 53.5905 71.568 53.768 71.568H74.4232C74.6007 71.568 74.7458 71.7127 74.7458 71.8896V72.2361C74.7461 72.4127 74.6007 72.5577 74.4232 72.5577Z" fill="#F5F5F5"/>
<path d="M74.4232 81.9295H53.768C53.5905 81.9295 53.4453 81.7848 53.4453 81.6079V81.2614C53.4453 81.0845 53.5905 80.9398 53.768 80.9398H74.4232C74.6007 80.9398 74.7458 81.0845 74.7458 81.2614V81.6079C74.7461 81.7848 74.6007 81.9295 74.4232 81.9295Z" fill="#F5F5F5"/>
<path d="M77.7464 29.0577H40.8438V61.3447H77.7464V29.0577Z" fill="#E6E6E6"/>
<path d="M81.7003 27.8018H38.4541C38.2517 27.8018 38.0879 27.9653 38.0879 28.1668C38.0879 28.3686 38.252 28.5318 38.4541 28.5318H81.7001C81.9025 28.5318 82.0663 28.3683 82.0663 28.1668C82.0666 27.9651 81.9025 27.8018 81.7003 27.8018Z" fill="#E6E6E6"/>
<path d="M79.311 29.0577H41.5742V61.3447H79.311V29.0577Z" fill="#F0F0F0"/>
<path d="M77.7461 61.3447H40.8438V62.3792H78.8249L77.7461 61.3447Z" fill="#E6E6E6"/>
<path d="M81.9204 61.3447H44.1836L45.2624 62.3792H82.9991L81.9204 61.3447Z" fill="#F0F0F0"/>
<path d="M77.1191 59.16V31.2425L43.7667 31.2425L43.7667 59.16L77.1191 59.16Z" fill="#FAFAFA"/>
<path d="M51.3379 59.16L64.2044 31.2426H70.2782L57.4116 59.16H51.3379Z" fill="white"/>
<path d="M58.7168 59.16L71.5834 31.2426H73.9513L61.0847 59.16H58.7168Z" fill="white"/>
<path d="M77.1191 59.16V31.2426H76.8408V59.16H77.1191Z" fill="#E6E6E6"/>
<g opacity="0.4">
<path d="M43.7905 27.1485H40.0176V53.7926H43.7905V27.1485Z" fill="#F0F0F0"/>
<path d="M45.2597 27.1485H42.3203V53.7926H45.2597V27.1485Z" fill="#E6E6E6"/>
<path d="M47.564 27.1485H43.791V53.7926H47.564V27.1485Z" fill="#F0F0F0"/>
<path d="M49.0331 27.1485H46.0938V53.7926H49.0331V27.1485Z" fill="#E6E6E6"/>
<path d="M51.3374 27.1485H47.5645V53.7926H51.3374V27.1485Z" fill="#F0F0F0"/>
</g>
<g opacity="0.4">
<path d="M75.7153 27.1485H73.541V53.7926H75.7153V27.1485Z" fill="#F0F0F0"/>
<path d="M76.5629 27.1485H74.8691V53.7926H76.5629V27.1485Z" fill="#E6E6E6"/>
<path d="M77.8891 27.1485H75.7148V53.7926H77.8891V27.1485Z" fill="#F0F0F0"/>
<path d="M78.7367 27.1485H77.043V53.7926H78.7367V27.1485Z" fill="#E6E6E6"/>
<path d="M80.0629 27.1485H77.8887V53.7926H80.0629V27.1485Z" fill="#F0F0F0"/>
</g>
<path d="M118.382 80.6998C118.291 81.8039 119.115 82.7726 120.223 82.8632C121.331 82.9541 122.302 82.1326 122.393 81.0286C122.485 79.9245 121.66 78.9558 120.553 78.8652C119.445 78.7743 118.473 79.5958 118.382 80.6998Z" fill="#E0E0E0"/>
<path d="M121.669 81.749C121.578 82.8531 122.402 83.8218 123.51 83.9124C124.618 84.0033 125.59 83.1818 125.681 82.0777C125.772 80.9737 124.947 80.005 123.84 79.9144C122.732 79.8235 121.76 80.645 121.669 81.749Z" fill="#E0E0E0"/>
<path d="M125.192 82.1558C125.101 83.2599 125.926 84.2286 127.033 84.3192C128.141 84.4101 129.113 83.5886 129.204 82.4845C129.295 81.3805 128.471 80.4118 127.363 80.3212C126.256 80.2305 125.284 81.0518 125.192 82.1558Z" fill="#E0E0E0"/>
<path d="M114.642 81.749C114.55 82.8531 115.375 83.8218 116.483 83.9124C117.59 84.0033 118.562 83.1818 118.653 82.0777C118.744 80.9737 117.92 80.005 116.812 79.9144C115.705 79.8235 114.733 80.645 114.642 81.749Z" fill="#E0E0E0"/>
<path d="M128.095 81.749C128.004 82.8531 128.828 83.8218 129.936 83.9124C131.043 84.0033 132.015 83.1818 132.106 82.0777C132.198 80.9737 131.373 80.005 130.265 79.9144C129.158 79.8235 128.186 80.645 128.095 81.749Z" fill="#E0E0E0"/>
<path d="M111.939 80.5508C111.848 81.6548 112.672 82.6235 113.779 82.7141C114.887 82.8048 115.859 81.9836 115.95 80.8795C116.041 79.7754 115.217 78.8068 114.109 78.7161C113.002 78.6255 112.03 79.4467 111.939 80.5508Z" fill="#E0E0E0"/>
<path d="M109.087 81.2936C108.996 82.3977 109.82 83.3664 110.928 83.457C112.036 83.5479 113.008 82.7264 113.099 81.6223C113.189 80.5183 112.365 79.5496 111.258 79.459C110.15 79.3683 109.178 80.1896 109.087 81.2936Z" fill="#E0E0E0"/>
<path d="M106.785 81.8337C106.785 81.8337 107.131 90.0454 120.368 90.0454C133.606 90.0454 133.951 81.8337 133.951 81.8337H106.785Z" fill="#F0F0F0"/>
<path d="M141.503 90.0452H138.986V111.601H141.503V90.0452Z" fill="#E6E6E6"/>
<path d="M142.176 90.0452H140.693V111.601H142.176V90.0452Z" fill="#F0F0F0"/>
<path d="M130.794 90.0452H128.277V111.601H130.794V90.0452Z" fill="#E6E6E6"/>
<path d="M131.264 90.0452H129.781V111.601H131.264V90.0452Z" fill="#F0F0F0"/>
<path d="M106.898 92.6589H142.635V90.0453H106.898V92.6589Z" fill="#F0F0F0"/>
<path d="M95.9734 90.0452H93.457V111.601H95.9734V90.0452Z" fill="#E6E6E6"/>
<path d="M96.4452 90.0452H94.9629V111.601H96.4452V90.0452Z" fill="#F0F0F0"/>
<path d="M93.0074 92.6589H105.82V90.0453H93.0074V92.6589Z" fill="#E6E6E6"/>
<path d="M106.682 90.0452H104.166V111.601H106.682V90.0452Z" fill="#E6E6E6"/>
<path d="M107.355 90.0452H105.873V111.601H107.355V90.0452Z" fill="#F0F0F0"/>
<path d="M90.7616 139.205C134.939 139.205 170.752 137.121 170.752 134.55C170.752 131.978 134.939 129.894 90.7616 129.894C46.5843 129.894 10.7715 131.978 10.7715 134.55C10.7715 137.121 46.5843 139.205 90.7616 139.205Z" fill="#F5F5F5"/>
<path d="M134.278 130.467C134.278 132.165 133.051 133.615 131.371 133.893C128.156 134.425 122.585 135.156 116.251 135.156C109.918 135.156 104.347 134.425 101.132 133.893C99.4515 133.615 98.2246 132.165 98.2246 130.467V97.1757H134.278V130.467Z" fill="#787878"/>
<path opacity="0.3" d="M98.2227 97.7649V102.437C100.392 103.238 107.516 103.827 116.248 103.827C124.99 103.827 132.119 103.238 134.278 102.437V97.7649H98.2227Z" fill="black"/>
<path d="M134.956 101.329C134.956 102.384 126.77 103.239 116.25 103.239C105.73 103.239 97.5444 102.384 97.5444 101.329L97.2012 97.1757H135.299L134.956 101.329Z" fill="#787878"/>
<path d="M116.25 99.0856C126.771 99.0856 135.299 98.2307 135.299 97.1762C135.299 96.1216 126.771 95.2667 116.25 95.2667C105.73 95.2667 97.2012 96.1216 97.2012 97.1762C97.2012 98.2307 105.73 99.0856 116.25 99.0856Z" fill="#787878"/>
<path opacity="0.3" d="M116.25 99.0856C126.771 99.0856 135.299 98.2307 135.299 97.1762C135.299 96.1216 126.771 95.2667 116.25 95.2667C105.73 95.2667 97.2012 96.1216 97.2012 97.1762C97.2012 98.2307 105.73 99.0856 116.25 99.0856Z" fill="black"/>
<path opacity="0.2" d="M103.055 128.123C102.286 128.123 101.656 127.496 101.656 126.729V107.637C101.656 106.87 102.286 106.242 103.055 106.242C103.825 106.242 104.454 106.87 104.454 107.637V126.729C104.455 127.496 103.825 128.123 103.055 128.123Z" fill="black"/>
<path opacity="0.2" d="M129.446 128.123C128.676 128.123 128.047 127.496 128.047 126.729V107.637C128.047 106.87 128.676 106.242 129.446 106.242C130.215 106.242 130.845 106.87 130.845 107.637V126.729C130.845 127.496 130.215 128.123 129.446 128.123Z" fill="black"/>
<path opacity="0.2" d="M120.649 128.123C119.88 128.123 119.25 127.496 119.25 126.729V107.637C119.25 106.87 119.88 106.242 120.649 106.242C121.418 106.242 122.048 106.87 122.048 107.637V126.729C122.048 127.496 121.418 128.123 120.649 128.123Z" fill="black"/>
<path opacity="0.2" d="M111.852 128.123C111.083 128.123 110.453 127.496 110.453 126.729V107.637C110.453 106.87 111.083 106.242 111.852 106.242C112.622 106.242 113.251 106.87 113.251 107.637V126.729C113.251 127.496 112.622 128.123 111.852 128.123Z" fill="black"/>
<path d="M71.6018 44.3791C73.5835 38.2271 80.1944 34.8414 86.3672 36.8171C92.54 38.7921 95.9372 45.3808 93.9548 51.5328L89.4194 65.6096L67.0664 58.4566L71.6018 44.3791Z" fill="#F07C33"/>
<path opacity="0.3" d="M71.6018 44.3791C73.5835 38.2271 80.1944 34.8414 86.3672 36.8171C92.54 38.7921 95.9372 45.3808 93.9548 51.5328L89.4194 65.6096L67.0664 58.4566L71.6018 44.3791Z" fill="black"/>
<path d="M49.5399 37.3175L45.4514 50.0082C45.204 50.7756 45.6283 51.5966 46.3975 51.8432L67.0672 58.458L71.6033 44.3784C72.4337 41.7999 74.074 39.7111 76.1598 38.2967C79.0461 36.3304 82.7809 35.6696 86.3666 36.8171L64.3039 29.7562C60.7183 28.6088 56.9834 29.2695 54.0972 31.2358C52.0099 32.6502 50.3703 34.7391 49.5399 37.3175Z" fill="#F07C33"/>
<path d="M68.1455 60.5505L96.8176 69.7257C97.2564 69.8664 97.7266 69.6256 97.8677 69.1875C98.0089 68.7501 97.7673 68.2816 97.3285 68.1409L67.0669 58.4566C66.7846 59.332 67.2678 60.2698 68.1455 60.5505Z" fill="#F07C33"/>
<path opacity="0.2" d="M68.1459 60.5505L79.8627 64.2997C80.3016 64.4404 80.7717 64.1996 80.9129 63.7615C81.0541 63.3241 80.8124 62.8556 80.3729 62.7149L67.0666 58.4566C66.7849 59.332 67.2682 60.2698 68.1459 60.5505Z" fill="black"/>
<path d="M97.9939 57.0331L82.0197 60.3388C81.4462 60.454 80.8852 60.088 80.7655 59.5165L80.0435 56.0462L79.7754 54.7716L80.2457 53.3161C80.3117 53.1064 80.3901 52.9008 80.4809 52.7035C80.4891 52.6747 80.5056 52.6418 80.5221 52.613C80.7903 52.0045 81.1492 51.4535 81.5741 50.9724L82.4075 50.7998L96.1044 47.9668C96.5375 47.8763 96.9666 48.0696 97.2018 48.415C97.276 48.526 97.3297 48.6493 97.3585 48.785L98.8149 55.7831C98.9345 56.3505 98.5632 56.9138 97.9939 57.0331Z" fill="#F07C33"/>
<path opacity="0.3" d="M97.2011 48.415L89.4946 56.2395L87.8444 55.5734L81.425 52.9789L80.5215 52.613C80.7896 52.0045 81.1486 51.4535 81.5735 50.9724L82.4069 50.7998L96.1037 47.9668C96.5369 47.8763 96.966 48.0696 97.2011 48.415Z" fill="black"/>
<path d="M97.2014 48.415L87.8446 55.5734L87.234 56.0421L81.3551 53.1352L80.4805 52.7035C80.4887 52.6747 80.5052 52.6418 80.5217 52.613C80.7899 52.0045 81.1488 51.4535 81.5737 50.9724L82.4071 50.7998L96.104 47.9668C96.5372 47.8763 96.9662 48.0696 97.2014 48.415Z" fill="#F07C33"/>
<path opacity="0.2" d="M97.2014 48.415L87.8446 55.5734L87.234 56.0421L81.3551 53.1352L80.4805 52.7035C80.4887 52.6747 80.5052 52.6418 80.5217 52.613C80.7899 52.0045 81.1488 51.4535 81.5737 50.9724L82.4071 50.7998L96.104 47.9668C96.5372 47.8763 96.9662 48.0696 97.2014 48.415Z" fill="white"/>
<path d="M117.498 71.4539L112.612 76.6823C112.215 77.1079 111.54 77.1317 111.113 76.7354L99.1744 65.6544C98.7474 65.258 98.7235 64.5858 99.1212 64.1606L104.007 58.9322C104.102 58.8302 104.213 58.7509 104.333 58.6962C104.714 58.5194 105.181 58.5778 105.506 58.8792L117.444 69.9601C117.768 70.2611 117.861 70.722 117.711 71.1118C117.664 71.2356 117.593 71.3515 117.498 71.4539Z" fill="#F07C33"/>
<path opacity="0.3" d="M117.712 71.1118L106.852 69.3672L104.334 58.6962C104.714 58.5194 105.181 58.5778 105.506 58.8792L117.445 69.9601C117.769 70.2607 117.861 70.7216 117.712 71.1118Z" fill="black"/>
<path d="M117.712 71.1118L107.139 67.9688L104.334 58.6966C104.714 58.5198 105.181 58.5782 105.506 58.8796L117.445 69.9605C117.769 70.2607 117.861 70.7216 117.712 71.1118Z" fill="#F07C33"/>
<path opacity="0.2" d="M117.712 71.1118L107.139 67.9688L104.334 58.6966C104.714 58.5198 105.181 58.5782 105.506 58.8796L117.445 69.9605C117.769 70.2607 117.861 70.7216 117.712 71.1118Z" fill="white"/>
<path d="M121.739 80.0687L127.11 86.3094C127.544 86.8143 127.46 87.5688 126.932 87.9796L115.283 97.0376C114.954 97.2933 114.411 97.184 114.071 96.7975L109.876 92.0271C109.794 91.9338 109.729 91.8302 109.681 91.7233C109.53 91.3828 109.556 91.0012 109.778 90.7706L120.082 80.0329C120.437 79.6637 120.955 79.5807 121.376 79.7867C121.51 79.852 121.633 79.9458 121.739 80.0687Z" fill="#F07C33"/>
<path opacity="0.3" d="M121.376 79.7872L118.806 91.1416L109.681 91.7234C109.53 91.383 109.556 91.0014 109.778 90.7707L120.082 80.0331C120.437 79.6639 120.955 79.5812 121.376 79.7872Z" fill="black"/>
<path d="M121.375 79.7871L117.083 91.8397L109.681 91.7237C109.53 91.3833 109.556 91.0017 109.778 90.771L120.082 80.0334C120.437 79.6637 120.954 79.5811 121.375 79.7871Z" fill="#F07C33"/>
<path opacity="0.2" d="M121.375 79.7871L117.083 91.8397L109.681 91.7237C109.53 91.3833 109.556 91.0017 109.778 90.771L120.082 80.0334C120.437 79.6637 120.954 79.5811 121.375 79.7871Z" fill="white"/>
<g clip-path="url(#clip0_3092_4824)">
<path d="M57.5158 42.2766C57.2487 42.9225 57.0406 43.637 56.2969 43.8699C56.126 43.9232 55.9699 44.0157 55.841 44.1401C55.7122 44.2644 55.6142 44.417 55.5547 44.5859C55.3885 45.0559 55.6155 45.587 56.0954 45.7566L62.8834 48.157C63.3633 48.3267 63.8736 48.0564 64.0398 47.5864C64.1609 47.2442 64.1137 46.8647 63.9128 46.563C63.4808 45.9144 63.7681 45.2279 63.9664 44.5576C64.2163 43.7158 64.1335 42.8102 63.7349 42.0278C63.3363 41.2453 62.6525 40.6458 61.8246 40.3531C60.9967 40.0603 60.088 40.0967 59.2862 40.4546C58.4843 40.8126 57.8506 41.4648 57.5158 42.2766Z" stroke="white" stroke-linecap="round" stroke-linejoin="round"/>
<path d="M60.9028 47.4569C60.7702 47.832 60.494 48.139 60.135 48.3104C59.776 48.4818 59.3636 48.5036 58.9885 48.371C58.6135 48.2384 58.3065 47.9622 58.135 47.6032C57.9636 47.2442 57.9418 46.8318 58.0744 46.4567M61.4278 39.2234C61.2897 39.6137 61.432 40.2193 61.8223 40.3573C62.2126 40.4953 62.7039 40.1138 62.842 39.7235C62.98 39.3331 62.7127 39.0811 62.3224 38.9431C61.9321 38.8051 61.5658 38.8331 61.4278 39.2234Z" stroke="white" stroke-linecap="round" stroke-linejoin="round"/>
</g>
<defs>
<clipPath id="clip0_3092_4824">
<rect width="12" height="12" fill="white" transform="translate(57 36) rotate(19.4744)"/>
</clipPath>
</defs>
</svg>
