<svg width="24" height="24" viewBox="0 0 24 24" fill="none" xmlns="http://www.w3.org/2000/svg">
<mask id="mask0_48_893" style="mask-type:luminance" maskUnits="userSpaceOnUse" x="1" y="1" width="22" height="22">
<path fill-rule="evenodd" clip-rule="evenodd" d="M21.4517 17.6305C22.435 15.9834 23 14.0577 23 12C23 5.92487 18.0751 1 12 1C5.9249 1 1 5.92487 1 12C1 18.0751 5.9249 23 12 23C14.062 23 15.9915 22.4326 17.6409 21.4455L22.8478 22.8407L21.4517 17.6305Z" fill="white"/>
</mask>
<g mask="url(#mask0_48_893)">
<path d="M21.4516 17.6305L19.9062 16.7078C19.6568 17.1255 19.5871 17.6264 19.7131 18.0963L21.4516 17.6305ZM17.6409 21.4454L18.1068 19.7068C17.6362 19.5807 17.1345 19.6507 16.7164 19.9009L17.6409 21.4454ZM22.8478 22.8407L22.3819 24.5793C23.0031 24.7458 23.6659 24.5682 24.1206 24.1135C24.5753 23.6587 24.7528 22.996 24.5864 22.3748L22.8478 22.8407ZM21.2 12C21.2 13.7239 20.7276 15.3319 19.9062 16.7078L22.9972 18.5531C24.1424 16.6348 24.7999 14.3915 24.7999 12H21.2ZM12 2.79995C17.081 2.79995 21.2 6.91893 21.2 12H24.7999C24.7999 4.93071 19.0692 -0.800049 12 -0.800049V2.79995ZM2.79995 12C2.79995 6.91893 6.91895 2.79995 12 2.79995V-0.800049C4.93075 -0.800049 -0.800049 4.93071 -0.800049 12H2.79995ZM12 21.2C6.91895 21.2 2.79995 17.081 2.79995 12H-0.800049C-0.800049 19.0692 4.93075 24.7999 12 24.7999V21.2ZM16.7164 19.9009C15.3386 20.7255 13.7275 21.2 12 21.2V24.7999C14.3965 24.7999 16.6443 24.1397 18.5653 22.99L16.7164 19.9009ZM17.1749 23.1842L22.3819 24.5793L23.3137 21.1019L18.1068 19.7068L17.1749 23.1842ZM24.5864 22.3748L23.1903 17.1646L19.7131 18.0963L21.1091 23.3064L24.5864 22.3748Z" fill="black"/>
</g>
</svg>
