<svg width="225" height="201" viewBox="0 0 225 201" fill="none" xmlns="http://www.w3.org/2000/svg">
<path fill-rule="evenodd" clip-rule="evenodd" d="M21.7025 97.1826C14.9708 103.812 14.8876 114.643 21.5168 121.374C28.1459 128.106 38.977 128.189 45.7086 121.56L67.2193 100.377L38.0074 133.292C32.5812 139.406 32.8217 148.679 38.5575 154.504C44.5773 160.617 54.413 160.692 60.526 154.672L80.5965 134.908L57.052 162.192C52.0102 168.034 52.2975 176.769 57.7124 182.267C63.4539 188.098 72.8347 188.17 78.665 182.428L91.0358 170.246C90.2647 175.914 92.0341 181.865 96.3583 186.256C103.769 193.782 115.878 193.875 123.403 186.464L147.719 162.518L140.49 173.401C137.097 178.51 137.748 185.298 142.052 189.668C147.075 194.769 155.282 194.832 160.383 189.809L210.625 140.333C215.644 135.39 215.706 127.316 210.763 122.297C206.41 117.877 199.508 117.23 194.41 120.765L179.91 130.818L202.391 108.68C209.917 101.269 210.01 89.1601 202.599 81.6344C198.275 77.2434 192.351 75.3828 186.672 76.0667L199.884 63.0562C205.721 57.3083 205.793 47.9169 200.045 42.08C194.633 36.5846 185.913 36.1535 179.986 41.0882L153.346 63.2668L180.729 36.3007C186.844 30.2787 186.92 20.4395 180.898 14.3244C175.163 8.50091 165.897 8.11481 159.698 13.441L126.792 41.7125L131.427 37.1481C138.158 30.5189 138.242 19.6879 131.612 12.9562C124.983 6.22451 114.152 6.14138 107.421 12.7705L67.1947 52.3835L74.0757 43.5605C78.9657 37.2904 78.4504 28.3671 72.8712 22.7016C66.732 16.4674 56.7013 16.3904 50.4671 22.5296L12.5147 59.9038C6.328 65.9962 6.25159 75.9504 12.344 82.1371C17.9487 87.8285 26.9302 88.4126 33.2249 83.4951L44.7245 74.5113L21.7025 97.1826Z" fill="#E6E6E6"/>
<path d="M52.1758 170.07H172.598" stroke="#313131" stroke-width="2" stroke-linecap="round"/>
<path d="M177.033 170.07H183.344" stroke="#313131" stroke-width="2" stroke-linecap="round"/>
<path d="M160.658 163.93H166.628" stroke="#313131" stroke-width="2" stroke-linecap="round"/>
<path d="M156.053 164.101H68.7207" stroke="#313131" stroke-width="2" stroke-linecap="round"/>
<path d="M64.2861 163.93H58.3164" stroke="#313131" stroke-width="2" stroke-linecap="round"/>
<path d="M47.5703 170.07H40.918" stroke="#313131" stroke-width="2" stroke-linecap="round"/>
<circle cx="193.397" cy="134.647" r="3.52391" fill="#F6A76E"/>
<circle cx="156.661" cy="7.44465" r="5.22395" fill="#F6A76E"/>
<circle cx="29.2676" cy="106.884" r="6.18948" fill="#F6A76E"/>
<path d="M218.835 137.298C219.314 138.038 220.18 138.599 220.948 138.987C220.107 139.006 219.109 139.148 218.353 139.633C217.497 140.183 216.737 141.311 216.203 142.255C216.092 142.452 215.989 142.643 215.896 142.823C215.889 142.624 215.878 142.411 215.861 142.189C215.775 141.112 215.537 139.765 214.884 138.899C214.413 138.274 213.632 137.779 212.907 137.417C213.716 137.407 214.637 137.274 215.33 136.82C215.747 136.547 216.14 136.118 216.491 135.649C216.845 135.177 217.169 134.646 217.442 134.152C217.594 133.876 217.731 133.611 217.85 133.371C217.871 133.61 217.897 133.873 217.932 134.149C217.999 134.684 218.097 135.271 218.24 135.821C218.382 136.367 218.573 136.894 218.835 137.298Z" stroke="#F56206" stroke-width="0.585896"/>
<path d="M14.5397 151.767C15.0191 152.507 15.885 153.068 16.6535 153.455C15.8118 153.474 14.8145 153.617 14.0581 154.102C13.2022 154.651 12.4419 155.78 11.9085 156.724C11.7972 156.921 11.6945 157.112 11.6015 157.292C11.5946 157.093 11.5832 156.88 11.5656 156.658C11.4801 155.581 11.2424 154.234 10.5892 153.367C10.1183 152.743 9.33721 152.247 8.612 151.886C9.42152 151.875 10.3425 151.743 11.0349 151.289C11.452 151.016 11.8454 150.587 12.1965 150.118C12.5501 149.646 12.8737 149.115 13.1469 148.62C13.299 148.345 13.4363 148.08 13.5552 147.84C13.5758 148.079 13.6025 148.342 13.6372 148.617C13.7045 149.153 13.8025 149.74 13.9454 150.29C14.0873 150.835 14.2781 151.363 14.5397 151.767Z" stroke="#F56206" stroke-width="0.585896"/>
<path d="M54.569 7.05365C55.0484 7.79375 55.9143 8.3552 56.6828 8.74252C55.8411 8.76156 54.8438 8.9041 54.0874 9.38931C53.2315 9.9384 52.4712 11.0672 51.9378 12.0109C51.8265 12.2077 51.7238 12.3989 51.6308 12.5786C51.6239 12.3797 51.6125 12.1666 51.5949 11.9451C51.5094 10.8681 51.2717 9.52094 50.6185 8.65441C50.1476 8.02969 49.3665 7.53445 48.6413 7.17317C49.4508 7.16251 50.3718 7.03008 51.0642 6.57618C51.4813 6.3028 51.8747 5.87403 52.2258 5.40511C52.5794 4.93271 52.903 4.40191 53.1762 3.90741C53.3283 3.63212 53.4656 3.36669 53.5845 3.12694C53.6051 3.36583 53.6318 3.62896 53.6665 3.90452C53.7338 4.44016 53.8318 5.02736 53.9747 5.57684C54.1166 6.12254 54.3074 6.64984 54.569 7.05365Z" stroke="#F56206" stroke-width="0.585896"/>
<path d="M9.94201 43.9199C10.4214 44.66 11.2873 45.2214 12.0558 45.6087C11.2141 45.6278 10.2168 45.7703 9.46046 46.2555C8.60457 46.8046 7.84428 47.9334 7.31082 48.8771C7.19958 49.0739 7.09685 49.2651 7.00381 49.4448C6.9969 49.2459 6.98556 49.0328 6.96797 48.8114C6.88242 47.7343 6.64474 46.3871 5.99155 45.5206C5.52063 44.8959 4.73955 44.4007 4.01434 44.0394C4.82386 44.0287 5.74482 43.8963 6.43726 43.4424C6.85431 43.169 7.24775 42.7402 7.59881 42.2713C7.95247 41.7989 8.27604 41.2681 8.54926 40.7736C8.70137 40.4983 8.83864 40.2329 8.95756 39.9932C8.97813 40.232 9.00484 40.4952 9.03951 40.7707C9.10689 41.3064 9.20489 41.8936 9.34774 42.443C9.48962 42.9887 9.68043 43.516 9.94201 43.9199Z" stroke="#F56206" stroke-width="0.585896"/>
<path d="M117.93 192.59C118.41 193.33 119.276 193.891 120.044 194.279C119.202 194.298 118.205 194.44 117.449 194.925C116.593 195.475 115.833 196.603 115.299 197.547C115.188 197.744 115.085 197.935 114.992 198.115C114.985 197.916 114.974 197.703 114.956 197.481C114.871 196.404 114.633 195.057 113.98 194.191C113.509 193.566 112.728 193.071 112.003 192.709C112.812 192.699 113.733 192.566 114.426 192.112C114.843 191.839 115.236 191.41 115.587 190.941C115.941 190.469 116.264 189.938 116.538 189.444C116.69 189.168 116.827 188.903 116.946 188.663C116.966 188.902 116.993 189.165 117.028 189.441C117.095 189.976 117.193 190.563 117.336 191.113C117.478 191.659 117.669 192.186 117.93 192.59Z" stroke="#F56206" stroke-width="0.585896"/>
<circle cx="169.883" cy="37.5589" r="2.1558" stroke="#F56206" stroke-width="0.831544"/>
<circle cx="38.0286" cy="65.7796" r="2.1558" stroke="#F56206" stroke-width="0.831544"/>
<path d="M168.228 75.9959L167.74 75.2813L168.228 75.9959C173.907 72.1182 175.367 64.371 171.489 58.6919C167.612 53.0129 159.864 51.5527 154.185 55.4305L138.24 66.3185C132.561 70.1962 131.101 77.9435 134.978 83.6225C138.856 89.3015 146.603 90.7617 152.282 86.884L168.228 75.9959ZM130.913 55.0218L130.425 54.3072L130.913 55.0218L146.332 44.4933C158.151 36.4232 174.274 39.4622 182.344 51.281C190.414 63.0998 187.375 79.2229 175.556 87.2931L160.137 97.8215C148.318 105.892 132.195 102.853 124.125 91.0339C116.055 79.2151 119.094 63.0919 130.913 55.0218Z" fill="white" stroke="#313131" stroke-width="1.73068"/>
<path d="M99.5004 126.085L99.0125 125.37L99.5004 126.085C105.179 122.207 106.64 114.46 102.762 108.781C98.8842 103.102 91.1369 101.642 85.4579 105.519L69.5121 116.407C63.8331 120.285 62.373 128.032 66.2507 133.711C70.1284 139.39 77.8756 140.851 83.5546 136.973L99.5004 126.085ZM62.1852 105.111L61.6973 104.396L62.1852 105.111L77.6043 94.5822C89.4231 86.5121 105.546 89.551 113.616 101.37C121.687 113.189 118.648 129.312 106.829 137.382L91.4097 147.91C79.5908 155.981 63.4677 152.942 55.3976 141.123C47.3275 129.304 50.3664 113.181 62.1852 105.111Z" fill="white" stroke="#313131" stroke-width="1.73068"/>
<path d="M100.789 124.98C96.438 123.103 92.5504 120.011 89.6798 115.807C81.6097 103.988 84.6486 87.8653 96.4675 79.7952L95.9795 79.0806L96.4675 79.7952L111.887 69.2668C123.705 61.1967 139.829 64.2356 147.899 76.0544C150.125 79.3152 152.035 83.1291 152.671 86.5904C152.598 86.6324 152.517 86.6782 152.43 86.7271C151.964 86.9892 151.309 87.3397 150.556 87.6928C149.019 88.4139 147.193 89.0876 145.743 89.1351C144.317 89.1818 142.479 88.6485 140.92 88.051C140.157 87.7585 139.491 87.4622 139.015 87.2391C138.851 87.162 138.709 87.0938 138.595 87.0378C138.265 85.8904 137.793 84.5628 137.044 83.4654C133.166 77.7864 125.419 76.3262 119.74 80.2039L103.794 91.092C98.1153 94.9697 96.6552 102.717 100.533 108.396C101.574 109.92 102.895 111.142 104.381 112.037C104.416 112.108 104.459 112.201 104.506 112.314C104.642 112.636 104.816 113.126 104.947 113.766C105.208 115.04 105.305 116.922 104.586 119.282C103.786 121.91 102.703 123.375 101.875 124.17C101.458 124.57 101.099 124.809 100.858 124.943C100.834 124.956 100.81 124.969 100.789 124.98ZM133.595 99.912C139.806 102.277 145.868 102.301 149.678 102.242C147.741 105.999 144.78 109.561 141.111 112.067L125.692 122.595C122.792 124.575 118.954 126.072 115.512 126.801C115.652 126.493 115.803 126.147 115.958 125.767C116.606 124.181 117.336 121.986 117.634 119.59C117.928 117.223 117.884 115.026 117.768 113.424C117.71 112.621 117.633 111.964 117.571 111.506C117.562 111.442 117.553 111.382 117.545 111.326L133.595 99.912Z" fill="#F56206" stroke="#313131" stroke-width="1.73068"/>
</svg>
