<svg width="500" height="500" viewBox="0 0 500 500" fill="none" xmlns="http://www.w3.org/2000/svg">
<path d="M92.637 317.145L77.804 317.424L70.289 317.536C67.779 317.583 65.257 317.574 62.74 317.591L62.296 317.594L62.294 317.145L62.24 304.512L62.238 304.01L62.74 304.012L77.688 304.075C82.671 304.08 87.653 304.187 92.636 304.239L92.911 304.242L92.909 304.512C92.89 306.651 92.823 308.78 92.778 310.887L92.637 317.145ZM92.637 317.145L92.495 310.77C92.45 308.667 92.383 306.584 92.364 304.512L92.637 304.785C87.654 304.836 82.672 304.944 77.689 304.949L62.741 305.012L63.24 304.513L63.186 317.146L62.74 316.7C65.206 316.718 67.667 316.708 70.14 316.755L77.573 316.867L92.637 317.145Z" fill="#EBEBEB"/>
<path d="M75.959 333.075L61.126 333.354L53.611 333.466C51.101 333.513 48.579 333.504 46.062 333.521L45.618 333.524L45.616 333.075L45.562 320.442L45.56 319.94L46.062 319.942L61.01 320.005C65.993 320.01 70.975 320.117 75.958 320.169L76.233 320.172L76.231 320.442C76.212 322.581 76.145 324.71 76.1 326.817L75.959 333.075ZM75.959 333.075L75.817 326.7C75.772 324.596 75.705 322.514 75.686 320.442L75.959 320.715C70.976 320.766 65.994 320.874 61.011 320.879L46.063 320.942L46.562 320.443L46.508 333.076L46.062 332.63C48.528 332.648 50.989 332.638 53.462 332.685L60.895 332.797L75.959 333.075Z" fill="#EBEBEB"/>
<path d="M75.959 59.7141L61.126 59.9931L53.611 60.1051C51.101 60.1521 48.579 60.1421 46.062 60.1601L45.618 60.1631L45.616 59.7141L45.562 47.0811L45.56 46.5791L46.062 46.5811L61.01 46.6441C65.993 46.6491 70.975 46.7561 75.958 46.8081L76.233 46.8111L76.231 47.0811C76.212 49.2201 76.145 51.3491 76.1 53.4561L75.959 59.7141ZM75.959 59.7141L75.817 53.3391C75.772 51.2361 75.705 49.1531 75.686 47.0811L75.959 47.3541C70.976 47.4051 65.994 47.5131 61.011 47.5181L46.063 47.5801L46.562 47.0811L46.508 59.7141L46.062 59.2681C48.528 59.2861 50.989 59.2761 53.462 59.3231L60.895 59.4351L75.959 59.7141Z" fill="#EBEBEB"/>
<path d="M453.937 59.7141L439.104 59.9931L431.589 60.1051C429.079 60.1521 426.557 60.1421 424.04 60.1601L423.596 60.1631L423.594 59.7141L423.54 47.0811L423.538 46.5791L424.04 46.5811L438.988 46.6441C443.971 46.6491 448.953 46.7561 453.936 46.8081L454.211 46.8111L454.209 47.0811C454.19 49.2201 454.123 51.3491 454.078 53.4561L453.937 59.7141ZM453.937 59.7141L453.795 53.3391C453.75 51.2361 453.683 49.1531 453.664 47.0811L453.937 47.3541C448.954 47.4051 443.971 47.5131 438.989 47.5181L424.041 47.5811L424.54 47.0821L424.486 59.7151L424.04 59.2691C426.506 59.2871 428.967 59.2771 431.44 59.3241L438.873 59.4361L453.937 59.7141Z" fill="#EBEBEB"/>
<path d="M437.26 75.6443L422.427 75.9233L414.912 76.0353C412.402 76.0823 409.88 76.0723 407.363 76.0903L406.919 76.0933L406.917 75.6443L406.863 63.0113L406.861 62.5093L407.363 62.5113L422.311 62.5743C427.294 62.5793 432.276 62.6863 437.259 62.7383L437.534 62.7413L437.532 63.0113C437.513 65.1503 437.446 67.2793 437.401 69.3863L437.26 75.6443ZM437.26 75.6443L437.118 69.2693C437.073 67.1663 437.006 65.0833 436.987 63.0113L437.26 63.2843C432.277 63.3353 427.295 63.4433 422.312 63.4483L407.364 63.5113L407.863 63.0123L407.809 75.6453L407.363 75.1993C409.829 75.2173 412.29 75.2073 414.763 75.2543L422.196 75.3663L437.26 75.6443Z" fill="#EBEBEB"/>
<path d="M360.692 223.437L345.859 223.716L338.344 223.828C335.834 223.875 333.312 223.866 330.795 223.883L330.351 223.886L330.349 223.437L330.295 210.804L330.293 210.302L330.795 210.304L345.743 210.367C350.726 210.372 355.708 210.48 360.691 210.531L360.966 210.534L360.964 210.804C360.945 212.943 360.878 215.072 360.833 217.179L360.692 223.437ZM360.692 223.437L360.55 217.062C360.505 214.958 360.438 212.876 360.419 210.804L360.692 211.077C355.709 211.128 350.726 211.236 345.744 211.241L330.796 211.304L331.295 210.805L331.241 223.438L330.795 222.993C333.261 223.01 335.722 223.001 338.195 223.048L345.628 223.16L360.692 223.437Z" fill="#EBEBEB"/>
<path d="M344.014 239.367L329.181 239.646L321.666 239.758C319.156 239.805 316.634 239.795 314.117 239.813L313.673 239.816L313.671 239.367L313.617 226.734L313.615 226.232L314.117 226.234L329.065 226.297C334.048 226.302 339.03 226.41 344.013 226.461L344.288 226.464L344.286 226.734C344.267 228.873 344.2 231.002 344.155 233.109L344.014 239.367ZM344.014 239.367L343.872 232.992C343.827 230.889 343.76 228.806 343.741 226.734L344.014 227.007C339.031 227.058 334.049 227.166 329.066 227.171L314.118 227.234L314.617 226.735L314.563 239.368L314.117 238.922C316.583 238.94 319.044 238.93 321.517 238.977L328.95 239.089L344.014 239.367Z" fill="#EBEBEB"/>
<path d="M327.403 223.437L312.57 223.716L305.055 223.828C302.545 223.875 300.023 223.866 297.506 223.883L297.062 223.886L297.06 223.437L297.006 210.804L297.004 210.302L297.506 210.304L312.454 210.367C317.437 210.372 322.419 210.48 327.402 210.531L327.677 210.534L327.675 210.804C327.656 212.943 327.589 215.072 327.544 217.179L327.403 223.437ZM327.403 223.437L327.261 217.062C327.216 214.958 327.149 212.876 327.13 210.804L327.403 211.077C322.42 211.128 317.437 211.236 312.455 211.241L297.507 211.304L298.006 210.805L297.952 223.438L297.506 222.993C299.972 223.01 302.433 223.001 304.906 223.048L312.339 223.16L327.403 223.437Z" fill="#EBEBEB"/>
<path d="M453.937 333.075L439.104 333.354L431.589 333.466C429.079 333.513 426.557 333.504 424.04 333.521L423.596 333.524L423.594 333.075L423.54 320.442L423.538 319.94L424.04 319.942L438.988 320.005C443.971 320.01 448.954 320.117 453.936 320.169L454.211 320.172L454.209 320.442C454.19 322.581 454.123 324.71 454.078 326.817L453.937 333.075ZM453.937 333.075L453.795 326.7C453.75 324.596 453.683 322.514 453.664 320.442L453.937 320.715C448.954 320.766 443.972 320.874 438.989 320.879L424.041 320.942L424.54 320.443L424.486 333.076L424.04 332.63C426.506 332.648 428.967 332.638 431.44 332.685L438.873 332.797L453.937 333.075Z" fill="#EBEBEB"/>
<path d="M199.926 97.281L185.093 97.56L177.578 97.672C175.068 97.719 172.546 97.709 170.029 97.727L169.585 97.73L169.583 97.281L169.529 84.648L169.527 84.146L170.029 84.148L184.977 84.211C189.96 84.216 194.942 84.323 199.925 84.375L200.2 84.378L200.198 84.648C200.179 86.787 200.112 88.916 200.067 91.023L199.926 97.281ZM199.926 97.281L199.784 90.906C199.739 88.803 199.672 86.72 199.653 84.648L199.926 84.921C194.943 84.972 189.961 85.08 184.978 85.085L170.03 85.148L170.529 84.649L170.475 97.282L170.029 96.836C172.495 96.854 174.956 96.844 177.429 96.891L184.862 97.003L199.926 97.281Z" fill="#EBEBEB"/>
<path d="M423.225 180.971L429.112 171.48L426.205 169.68C425.35 169.15 424.887 168.184 424.973 167.182C425.02 166.628 425.038 166.071 425.026 165.512C425.004 164.509 425.528 163.576 426.412 163.102L429.425 161.486L424.145 151.641L421.133 153.257C420.249 153.731 419.182 153.651 418.359 153.078C417.9 152.759 417.426 152.465 416.939 152.198C416.057 151.715 415.508 150.794 415.54 149.79L415.648 146.372L404.485 146.025L404.382 149.455C404.352 150.461 403.735 151.336 402.825 151.766C402.578 151.883 402.333 152.006 402.091 152.136C401.848 152.266 401.61 152.402 401.377 152.543C400.52 153.061 399.455 153.091 398.604 152.564L395.676 150.75L389.789 160.241L392.701 162.048C393.555 162.579 394.018 163.546 393.931 164.548C393.883 165.099 393.865 165.655 393.876 166.211C393.897 167.212 393.373 168.145 392.49 168.618L389.476 170.234L394.756 180.079L397.77 178.463C398.653 177.989 399.719 178.069 400.542 178.64C400.999 178.957 401.472 179.249 401.958 179.514C402.841 179.996 403.391 180.917 403.36 181.922L403.255 185.348L414.418 185.695L414.525 182.268C414.556 181.266 415.171 180.394 416.077 179.965C416.325 179.848 416.572 179.723 416.817 179.592C417.059 179.462 417.298 179.326 417.532 179.185C418.394 178.665 419.463 178.635 420.319 179.166L423.225 180.971ZM413.774 173.923C409.322 176.311 403.782 174.638 401.394 170.186C399.006 165.734 400.674 160.186 405.127 157.798C409.579 155.41 415.131 157.086 417.519 161.538C419.906 165.991 418.226 171.536 413.774 173.923Z" fill="#EBEBEB"/>
<path d="M101.53 288.51L107.417 279.019L104.51 277.218C103.655 276.688 103.192 275.722 103.278 274.72C103.326 274.166 103.343 273.609 103.331 273.05C103.309 272.047 103.833 271.114 104.717 270.64L107.73 269.024L102.45 259.179L99.438 260.795C98.554 261.269 97.487 261.189 96.664 260.616C96.205 260.297 95.731 260.003 95.244 259.736C94.362 259.253 93.813 258.332 93.845 257.328L93.953 253.91L82.79 253.563L82.687 256.993C82.657 257.999 82.04 258.874 81.13 259.304C80.883 259.42 80.638 259.544 80.396 259.674C80.153 259.804 79.915 259.94 79.682 260.081C78.825 260.599 77.76 260.629 76.909 260.102L73.981 258.288L68.094 267.779L71.006 269.586C71.86 270.117 72.323 271.084 72.236 272.086C72.188 272.638 72.17 273.193 72.181 273.749C72.202 274.75 71.678 275.683 70.795 276.156L67.781 277.772L73.061 287.617L76.075 286.001C76.958 285.527 78.024 285.607 78.847 286.178C79.304 286.495 79.777 286.787 80.263 287.052C81.146 287.534 81.696 288.455 81.665 289.46L81.56 292.886L92.723 293.233L92.83 289.806C92.861 288.804 93.476 287.932 94.382 287.504C94.63 287.387 94.877 287.262 95.122 287.131C95.365 287.001 95.603 286.865 95.837 286.724C96.699 286.204 97.768 286.174 98.624 286.705L101.53 288.51ZM92.078 281.462C87.626 283.85 82.086 282.177 79.698 277.725C77.31 273.273 78.978 267.725 83.431 265.337C87.883 262.949 93.435 264.625 95.823 269.077C98.211 273.53 96.53 279.074 92.078 281.462Z" fill="#EBEBEB"/>
<path d="M215.868 106.738L211.958 99.961L209.884 101.159C209.274 101.512 208.524 101.478 207.934 101.093C207.608 100.88 207.27 100.685 206.921 100.507C206.295 100.189 205.892 99.556 205.892 98.854V96.46H198.066V98.855C198.066 99.557 197.663 100.19 197.037 100.508C196.688 100.685 196.35 100.881 196.024 101.094C195.434 101.478 194.684 101.513 194.074 101.16L192 99.962L188.09 106.739L190.173 107.938C190.784 108.29 191.12 108.96 191.084 109.664C191.074 109.855 191.069 110.047 191.069 110.24C191.069 110.433 191.074 110.625 191.084 110.816C191.12 111.517 190.786 112.184 190.179 112.535L188.09 113.742L192 120.519L194.08 119.32C194.69 118.968 195.441 119.003 196.031 119.388C196.356 119.6 196.692 119.795 197.04 119.972C197.665 120.291 198.067 120.923 198.067 121.625V124.021H205.893V121.625C205.893 120.923 206.295 120.291 206.92 119.972C207.267 119.795 207.604 119.6 207.928 119.388C208.518 119.003 209.269 118.968 209.879 119.32L211.959 120.519L215.869 113.742L213.789 112.542C213.18 112.191 212.846 111.523 212.881 110.821C212.891 110.629 212.895 110.436 212.895 110.241C212.895 110.048 212.89 109.856 212.881 109.665C212.845 108.961 213.181 108.29 213.792 107.938L215.868 106.738ZM208.388 110.24C208.388 113.779 205.521 116.646 201.982 116.646C198.443 116.646 195.57 113.779 195.57 110.24C195.57 106.701 198.443 103.828 201.982 103.828C205.521 103.828 208.388 106.701 208.388 110.24Z" fill="#EBEBEB"/>
<path d="M88.835 303.84C75.766 316.634 73.573 336.427 76.327 353.764C76.398 354.157 77.007 354.05 77.007 353.681C77.007 349.734 76.888 345.823 76.9 341.924C76.971 341.745 77.031 341.578 77.103 341.399C80.513 338.919 83.649 336.117 85.593 332.277C87.775 327.985 88.633 323.143 90.303 318.66C90.458 318.231 90 318.357 89.701 318.578C81.752 324.44 79.218 330.75 76.937 339.181C77.044 334.805 77.378 330.429 78.32 326.053C80.037 318.052 83.435 310.123 89.183 304.185C89.396 303.959 89.062 303.613 88.835 303.84Z" fill="#263238"/>
<path d="M91.291 305.331C93.539 305.407 94.949 309 96.701 310.049C97.628 310.607 98.531 310.573 99.182 309.659C100.918 307.236 98.536 304.246 96.296 302.574C97.898 303.233 99.227 304.39 100.954 304.718C102 304.91 102.813 304.522 103.057 303.459C103.818 300.155 99.674 298.685 96.831 298.616C98.209 297.658 102.16 295.053 100.061 293.772C97.934 292.486 93.298 296.211 91.786 297.437C89.564 299.24 86.913 301.935 86.813 304.755C86.683 308.048 89.561 306.022 91.291 305.331Z" fill="#FFC727"/>
<path opacity="0.1" d="M91.291 305.331C93.539 305.407 94.949 309 96.701 310.049C97.628 310.607 98.531 310.573 99.182 309.659C100.918 307.236 98.536 304.246 96.296 302.574C97.898 303.233 99.227 304.39 100.954 304.718C102 304.91 102.813 304.522 103.057 303.459C103.818 300.155 99.674 298.685 96.831 298.616C98.209 297.658 102.16 295.053 100.061 293.772C97.934 292.486 93.298 296.211 91.786 297.437C89.564 299.24 86.913 301.935 86.813 304.755C86.683 308.048 89.561 306.022 91.291 305.331Z" fill="black"/>
<path d="M90.641 305.886C93.516 304.579 99.037 306.46 99.507 305.372C100.459 303.158 96.046 301.638 93.664 301.344C95.858 300.75 100.061 299.803 99.932 297.687C99.774 295.104 93.485 297.325 90.302 299.766C86.292 302.841 86.318 305.808 86.981 306.402C87.89 307.218 90.166 306.102 90.641 305.886Z" fill="#FFC727"/>
<path d="M59.073 302.573C72.618 314.861 75.564 334.556 73.471 351.986C73.415 352.382 72.803 352.298 72.789 351.929C72.639 347.985 72.609 344.072 72.449 340.177C72.371 340.001 72.305 339.837 72.226 339.66C68.724 337.311 65.484 334.631 63.396 330.868C61.052 326.662 60.01 321.857 58.172 317.44C58.001 317.017 58.463 317.125 58.771 317.335C66.937 322.891 69.71 329.1 72.31 337.437C72.036 333.068 71.536 328.708 70.429 324.371C68.409 316.441 64.712 308.647 58.743 302.932C58.518 302.714 58.838 302.355 59.073 302.573Z" fill="#263238"/>
<path d="M56.676 304.157C54.432 304.318 53.161 307.963 51.45 309.077C50.545 309.67 49.642 309.67 48.956 308.782C47.129 306.426 49.395 303.348 51.57 301.592C49.994 302.311 48.71 303.518 46.997 303.912C45.959 304.143 45.132 303.787 44.847 302.734C43.961 299.461 48.046 297.835 50.884 297.658C49.47 296.753 45.423 294.3 47.472 292.94C49.548 291.574 54.323 295.119 55.88 296.288C58.169 298.005 60.92 300.597 61.128 303.411C61.383 306.696 58.431 304.781 56.676 304.157Z" fill="#FFC727"/>
<path opacity="0.1" d="M56.676 304.157C54.432 304.318 53.161 307.963 51.45 309.077C50.545 309.67 49.642 309.67 48.956 308.782C47.129 306.426 49.395 303.348 51.57 301.592C49.994 302.311 48.71 303.518 46.997 303.912C45.959 304.143 45.132 303.787 44.847 302.734C43.961 299.461 48.046 297.835 50.884 297.658C49.47 296.753 45.423 294.3 47.472 292.94C49.548 291.574 54.323 295.119 55.88 296.288C58.169 298.005 60.92 300.597 61.128 303.411C61.383 306.696 58.431 304.781 56.676 304.157Z" fill="black"/>
<path d="M57.347 304.686C54.425 303.489 48.978 305.579 48.468 304.51C47.433 302.333 51.784 300.648 54.153 300.263C51.938 299.753 47.702 298.967 47.751 296.848C47.81 294.261 54.179 296.241 57.453 298.559C61.577 301.479 61.664 304.445 61.024 305.064C60.146 305.913 57.829 304.884 57.347 304.686Z" fill="#FFC727"/>
<path d="M72.925 335.026C73.925 341.502 75.165 348.198 77.131 354.455C77.319 355.025 78.165 354.879 78.078 354.264C77.188 348.277 75.566 342.4 74.677 336.413C73.773 330.355 73.29 324.213 73.637 318.086C74.207 307.997 76.947 297.265 83.531 289.37C83.676 289.183 83.369 288.918 83.22 289.092C70.039 304.46 72.136 323.303 72.148 324.992C70.282 318.629 68.359 311.337 61.301 304.858C60.997 304.578 60.759 304.711 60.81 305.186C62.072 316.987 65.353 323.148 72.195 329.457C72.387 331.327 72.628 333.188 72.925 335.026Z" fill="#263238"/>
<path d="M83.648 291.137C86.019 290.084 89.29 293.103 91.636 293.309C92.878 293.421 93.798 292.931 94.014 291.656C94.596 288.267 90.619 286.365 87.453 285.757C89.447 285.634 91.408 286.166 93.365 285.637C94.547 285.309 95.195 284.498 94.914 283.272C94.04 279.46 89.001 280.021 86.016 281.381C86.964 279.693 89.751 275.001 86.929 274.729C84.075 274.465 81.14 280.663 80.188 282.697C78.79 285.687 77.396 289.816 78.712 292.793C80.235 296.275 82.201 292.724 83.648 291.137Z" fill="#FFC727"/>
<path opacity="0.1" d="M83.648 291.137C86.019 290.084 89.29 293.103 91.636 293.309C92.878 293.421 93.798 292.931 94.014 291.656C94.596 288.267 90.619 286.365 87.453 285.757C89.447 285.634 91.408 286.166 93.365 285.637C94.547 285.309 95.195 284.498 94.914 283.272C94.04 279.46 89.001 280.021 86.016 281.381C86.964 279.693 89.751 275.001 86.929 274.729C84.075 274.465 81.14 280.663 80.188 282.697C78.79 285.687 77.396 289.816 78.712 292.793C80.235 296.275 82.201 292.724 83.648 291.137Z" fill="black"/>
<path d="M83.252 292.04C85.577 289.237 92.253 288.409 92.192 287.044C92.065 284.268 86.722 284.913 84.102 285.806C86.079 284.085 89.963 280.987 88.764 278.857C87.3 276.256 81.893 281.727 79.819 285.862C77.206 291.071 78.726 294.136 79.714 294.419C81.069 294.806 82.869 292.503 83.252 292.04Z" fill="#FFC727"/>
<path d="M64.253 338.578L58.44 382.994H93.814C93.085 379.058 86.501 338.527 86.501 338.527L64.253 338.578Z" fill="#FFC727"/>
<path d="M43.374 383.143L95.03 382.9L146.687 382.812L250 382.644L353.313 382.811L404.969 382.899L456.626 383.143L404.969 383.388L353.313 383.476L250 383.642L146.687 383.475L95.03 383.386L43.374 383.143Z" fill="#263238"/>
<path d="M250 470.115C332.322 470.115 399.057 460.679 399.057 449.04C399.057 437.4 332.322 427.965 250 427.965C167.678 427.965 100.943 437.4 100.943 449.04C100.943 460.679 167.678 470.115 250 470.115Z" fill="#EBEBEB"/>
<path d="M146.885 178.537C142.092 178.537 137.746 177.599 133.845 175.726C129.942 173.853 126.596 171.365 123.801 168.262C121.004 165.162 118.839 161.612 117.304 157.62C115.769 153.628 115 149.542 115 145.363C115 141.001 115.812 136.824 117.441 132.83C119.067 128.838 121.312 125.304 124.168 122.231C127.024 119.158 130.419 116.718 134.352 114.904C138.282 113.093 142.553 112.187 147.161 112.187C151.892 112.187 156.206 113.154 160.109 115.089C164.01 117.023 167.343 119.558 170.108 122.692C172.873 125.827 175.022 129.39 176.559 133.382C178.094 137.376 178.863 141.43 178.863 145.548C178.863 149.912 178.063 154.071 176.468 158.035C174.869 161.998 172.658 165.5 169.832 168.54C167.005 171.581 163.627 174.009 159.696 175.82C155.761 177.631 151.493 178.537 146.885 178.537ZM127.9 145.361C127.9 148.187 128.329 150.922 129.189 153.562C130.049 156.203 131.293 158.539 132.921 160.565C134.548 162.593 136.546 164.22 138.912 165.449C141.275 166.679 143.965 167.293 146.976 167.293C150.047 167.293 152.766 166.663 155.132 165.404C157.497 164.147 159.493 162.47 161.122 160.38C162.749 158.293 163.978 155.943 164.809 153.331C165.639 150.719 166.052 148.064 166.052 145.358C166.052 142.534 165.605 139.799 164.715 137.157C163.823 134.516 162.564 132.182 160.937 130.154C159.308 128.126 157.312 126.515 154.949 125.316C152.583 124.118 149.926 123.518 146.978 123.518C143.906 123.518 141.173 124.148 138.775 125.407C136.38 126.666 134.384 128.324 132.787 130.382C131.188 132.442 129.976 134.776 129.146 137.386C128.316 140.002 127.9 142.657 127.9 145.361Z" fill="#263238"/>
<path d="M209.735 178.998C205.802 178.998 202.271 178.323 199.139 176.97C196.004 175.619 193.347 173.79 191.166 171.488C188.985 169.184 187.311 166.526 186.143 163.515C184.975 160.506 184.391 157.34 184.391 154.023C184.391 150.644 184.975 147.451 186.143 144.439C187.308 141.43 188.985 138.773 191.166 136.469C193.347 134.165 196.004 132.337 199.139 130.985C202.271 129.634 205.802 128.957 209.735 128.957C213.666 128.957 217.183 129.634 220.288 130.985C223.388 132.337 226.032 134.165 228.213 136.469C230.394 138.773 232.068 141.43 233.236 144.439C234.402 147.451 234.986 150.644 234.986 154.023C234.986 157.34 234.402 160.506 233.236 163.515C232.068 166.526 230.41 169.182 228.261 171.488C226.11 173.792 223.468 175.622 220.336 176.97C217.199 178.32 213.666 178.998 209.735 178.998ZM197.108 154.023C197.108 156.174 197.432 158.124 198.076 159.874C198.721 161.626 199.611 163.145 200.747 164.437C201.883 165.726 203.22 166.725 204.755 167.432C206.29 168.139 207.949 168.493 209.733 168.493C211.514 168.493 213.173 168.139 214.708 167.432C216.243 166.727 217.58 165.728 218.716 164.437C219.852 163.145 220.744 161.61 221.388 159.829C222.033 158.047 222.355 156.083 222.355 153.932C222.355 151.844 222.031 149.91 221.388 148.126C220.742 146.344 219.852 144.809 218.716 143.518C217.578 142.226 216.241 141.23 214.708 140.522C213.173 139.815 211.514 139.462 209.733 139.462C207.949 139.462 206.29 139.831 204.755 140.568C203.22 141.305 201.883 142.32 200.747 143.609C199.609 144.9 198.719 146.435 198.076 148.217C197.43 150.001 197.108 151.935 197.108 154.023Z" fill="#263238"/>
<path d="M272.211 178.998C268.402 178.998 265.085 178.154 262.261 176.463C259.434 174.775 257.221 172.487 255.625 169.599V197.706H243.276V129.787H254.057V138.079C255.839 135.255 258.143 133.026 260.97 131.397C263.794 129.771 267.051 128.957 270.735 128.957C273.993 128.957 277.002 129.618 279.767 130.939C282.532 132.26 284.913 134.041 286.909 136.284C288.906 138.526 290.473 141.168 291.611 144.209C292.747 147.25 293.315 150.462 293.315 153.84C293.315 157.342 292.793 160.629 291.748 163.7C290.703 166.773 289.243 169.446 287.37 171.718C285.495 173.993 283.269 175.772 280.689 177.063C278.111 178.352 275.284 178.998 272.211 178.998ZM268.066 168.493C269.91 168.493 271.614 168.093 273.181 167.295C274.746 166.497 276.083 165.422 277.189 164.069C278.293 162.719 279.153 161.152 279.769 159.368C280.385 157.586 280.691 155.745 280.691 153.84C280.691 151.812 280.353 149.923 279.678 148.174C279 146.422 278.065 144.902 276.867 143.611C275.67 142.322 274.255 141.307 272.629 140.57C271 139.833 269.234 139.464 267.332 139.464C266.164 139.464 264.966 139.665 263.739 140.064C262.509 140.463 261.373 141.031 260.328 141.77C259.284 142.507 258.348 143.369 257.518 144.35C256.69 145.334 256.058 146.41 255.629 147.576V158.911C256.736 161.676 258.426 163.964 260.698 165.776C262.966 167.587 265.425 168.493 268.066 168.493Z" fill="#263238"/>
<path d="M319.948 178.998C315.895 178.998 311.93 178.352 308.061 177.064C304.19 175.775 300.873 173.929 298.108 171.534L302.716 163.794C305.666 165.883 308.538 167.464 311.332 168.539C314.129 169.615 316.908 170.151 319.672 170.151C322.127 170.151 324.064 169.691 325.478 168.769C326.89 167.847 327.597 166.526 327.597 164.806C327.597 163.086 326.769 161.827 325.109 161.029C323.45 160.23 320.747 159.309 316.999 158.264C313.867 157.404 311.193 156.573 308.98 155.775C306.767 154.977 304.986 154.071 303.635 153.056C302.283 152.043 301.302 150.875 300.686 149.554C300.07 148.233 299.766 146.65 299.766 144.807C299.766 142.35 300.241 140.139 301.194 138.171C302.146 136.207 303.483 134.53 305.203 133.147C306.923 131.765 308.937 130.707 311.239 129.97C313.543 129.233 316.043 128.863 318.749 128.863C322.373 128.863 325.766 129.386 328.932 130.43C332.096 131.475 334.998 133.163 337.639 135.499L332.662 142.964C330.205 141.12 327.826 139.77 325.519 138.91C323.215 138.05 320.927 137.621 318.655 137.621C316.565 137.621 314.813 138.052 313.401 138.91C311.987 139.77 311.28 141.152 311.28 143.057C311.28 143.917 311.449 144.624 311.789 145.176C312.124 145.728 312.665 146.221 313.401 146.65C314.138 147.081 315.105 147.496 316.303 147.893C317.501 148.295 318.99 148.708 320.772 149.137C324.089 149.997 326.929 150.857 329.295 151.717C331.66 152.577 333.595 153.56 335.1 154.664C336.606 155.77 337.712 157.046 338.42 158.487C339.125 159.931 339.478 161.667 339.478 163.695C339.478 168.427 337.728 172.159 334.224 174.892C330.732 177.632 325.969 178.998 319.948 178.998Z" fill="#263238"/>
<path d="M349.897 153.471V112H362.245V153.471H349.897ZM349.897 178.076V164.16H362.245V178.076H349.897Z" fill="#263238"/>
<path d="M270.601 313.845H235.089V316.754H270.601V313.845Z" fill="#37474F"/>
<path d="M270.601 317.634H235.089V320.543H270.601V317.634Z" fill="#37474F"/>
<path d="M270.601 321.424H235.089V324.333H270.601V321.424Z" fill="#37474F"/>
<path d="M270.601 325.213H235.089V328.122H270.601V325.213Z" fill="#37474F"/>
<path d="M270.601 329.002H235.089V331.911H270.601V329.002Z" fill="#37474F"/>
<path d="M285.974 404.594H218.458V407.503H285.974V404.594Z" fill="#37474F"/>
<path d="M285.974 408.383H218.458V411.292H285.974V408.383Z" fill="#37474F"/>
<path d="M285.974 412.172H218.458V415.081H285.974V412.172Z" fill="#37474F"/>
<path d="M285.974 415.961H218.458V418.87H285.974V415.961Z" fill="#37474F"/>
<path d="M285.974 419.751H218.458V422.66H285.974V419.751Z" fill="#37474F"/>
<path d="M188.834 289.798C188.867 289.405 174.057 284.444 174.057 284.444L174.932 233.558L194.571 229.344L188.834 289.798Z" fill="#FFC727"/>
<path opacity="0.2" d="M188.834 289.798C188.867 289.405 174.057 284.444 174.057 284.444L174.932 233.558L194.571 229.344L188.834 289.798Z" fill="black"/>
<path d="M324.489 309.772C324.593 309.391 340.207 309.83 340.207 309.83L356.897 261.751L339.908 251.036L324.489 309.772Z" fill="#FFC727"/>
<path opacity="0.2" d="M324.489 309.772C324.593 309.391 340.207 309.83 340.207 309.83L356.897 261.751L339.908 251.036L324.489 309.772Z" fill="black"/>
<path d="M185.983 308.536C185.983 308.536 191.474 226.238 196.29 199.165C196.29 199.165 295.707 206.684 349.376 227.197C349.376 227.197 321.707 323.325 320.275 328.095C320.275 328.095 250.267 314.304 185.983 308.536Z" fill="#FFC727"/>
<path opacity="0.1" d="M274.722 210.155C273.106 220.064 271.47 229.97 269.777 239.866L264.653 269.545L264.377 269.126L297.688 277.039L314.326 281.071L330.945 285.183L314.238 281.444L297.55 277.626L264.209 269.838L263.872 269.759L263.933 269.418L269.238 239.771C271.021 229.891 272.862 220.021 274.722 210.155Z" fill="black"/>
<path opacity="0.1" d="M271.067 215.803C271.085 216.711 270.361 217.644 269.321 217.735C268.817 217.783 268.269 217.622 267.859 217.265C267.449 216.908 267.204 216.358 267.201 215.803C267.204 215.248 267.447 214.697 267.858 214.34C268.267 213.98 268.817 213.822 269.321 213.869C270.362 213.96 271.085 214.895 271.067 215.803ZM271.067 215.803C271.063 215.345 270.86 214.895 270.519 214.606C270.177 214.317 269.729 214.199 269.322 214.246C268.483 214.343 267.939 215.096 267.951 215.803C267.938 216.51 268.481 217.267 269.322 217.362C269.729 217.408 270.178 217.29 270.52 217.001C270.86 216.711 271.063 216.261 271.067 215.803Z" fill="black"/>
<path opacity="0.1" d="M269.321 228.048C269.339 228.956 268.615 229.89 267.575 229.98C267.071 230.028 266.523 229.867 266.113 229.51C265.703 229.153 265.458 228.603 265.455 228.048C265.458 227.493 265.701 226.942 266.112 226.585C266.521 226.225 267.071 226.067 267.575 226.114C268.617 226.206 269.34 227.141 269.321 228.048ZM269.321 228.048C269.317 227.59 269.114 227.14 268.773 226.851C268.431 226.562 267.983 226.444 267.576 226.491C266.737 226.588 266.193 227.341 266.205 228.048C266.192 228.755 266.735 229.512 267.576 229.607C267.983 229.653 268.432 229.535 268.774 229.245C269.115 228.957 269.317 228.506 269.321 228.048Z" fill="black"/>
<path opacity="0.1" d="M267.171 240.988C267.189 241.896 266.465 242.83 265.425 242.92C264.921 242.968 264.373 242.808 263.963 242.45C263.553 242.093 263.308 241.543 263.305 240.988C263.308 240.433 263.551 239.882 263.962 239.525C264.371 239.165 264.921 239.006 265.425 239.053C266.467 239.145 267.19 240.08 267.171 240.988ZM267.171 240.988C267.167 240.53 266.964 240.079 266.623 239.79C266.281 239.501 265.833 239.383 265.426 239.43C264.587 239.527 264.043 240.281 264.055 240.988C264.042 241.695 264.585 242.452 265.426 242.547C265.833 242.594 266.282 242.474 266.624 242.185C266.964 241.895 267.167 241.446 267.171 240.988Z" fill="black"/>
<path opacity="0.1" d="M265.021 253.926C265.04 254.834 264.315 255.767 263.275 255.858C262.771 255.905 262.223 255.745 261.813 255.388C261.403 255.031 261.158 254.481 261.155 253.926C261.157 253.371 261.402 252.82 261.812 252.463C262.221 252.103 262.771 251.945 263.275 251.992C264.317 252.083 265.04 253.018 265.021 253.926ZM265.021 253.926C265.017 253.468 264.814 253.018 264.472 252.729C264.13 252.44 263.682 252.322 263.275 252.369C262.436 252.466 261.892 253.219 261.904 253.926C261.891 254.633 262.434 255.39 263.275 255.485C263.682 255.531 264.131 255.413 264.473 255.124C264.814 254.834 265.017 254.384 265.021 253.926Z" fill="black"/>
<path opacity="0.1" d="M272.347 274.561C272.366 275.469 271.641 276.402 270.601 276.493C270.097 276.54 269.549 276.38 269.139 276.023C268.729 275.666 268.484 275.116 268.481 274.561C268.483 274.006 268.727 273.455 269.138 273.098C269.547 272.738 270.097 272.58 270.601 272.627C271.642 272.718 272.365 273.653 272.347 274.561ZM272.347 274.561C272.343 274.103 272.14 273.653 271.798 273.364C271.456 273.075 271.008 272.957 270.601 273.004C269.762 273.101 269.218 273.854 269.23 274.561C269.217 275.268 269.76 276.025 270.601 276.12C271.008 276.167 271.457 276.048 271.799 275.758C272.14 275.469 272.342 275.019 272.347 274.561Z" fill="black"/>
<path opacity="0.1" d="M284.56 277.54C284.579 278.448 283.854 279.382 282.814 279.472C282.31 279.519 281.762 279.359 281.352 279.002C280.942 278.645 280.697 278.095 280.694 277.54C280.697 276.985 280.941 276.434 281.351 276.077C281.76 275.717 282.31 275.559 282.814 275.606C283.856 275.698 284.579 276.632 284.56 277.54ZM284.56 277.54C284.556 277.082 284.353 276.632 284.012 276.343C283.67 276.054 283.222 275.936 282.815 275.983C281.976 276.08 281.432 276.833 281.444 277.54C281.431 278.247 281.974 279.004 282.815 279.099C283.222 279.145 283.671 279.027 284.013 278.737C284.353 278.448 284.556 277.998 284.56 277.54Z" fill="black"/>
<path opacity="0.1" d="M296.774 280.52C296.792 281.428 296.068 282.361 295.028 282.452C294.524 282.499 293.976 282.339 293.566 281.982C293.156 281.625 292.911 281.075 292.908 280.52C292.911 279.965 293.154 279.414 293.565 279.057C293.974 278.697 294.524 278.539 295.028 278.586C296.069 278.677 296.792 279.612 296.774 280.52ZM296.774 280.52C296.77 280.062 296.567 279.612 296.226 279.323C295.884 279.034 295.436 278.916 295.029 278.963C294.19 279.06 293.646 279.813 293.658 280.52C293.645 281.227 294.188 281.984 295.029 282.079C295.436 282.125 295.885 282.007 296.227 281.717C296.567 281.428 296.769 280.977 296.774 280.52Z" fill="black"/>
<path opacity="0.1" d="M308.987 283.499C309.006 284.407 308.281 285.34 307.241 285.431C306.737 285.478 306.189 285.319 305.779 284.961C305.369 284.604 305.124 284.054 305.121 283.499C305.124 282.944 305.367 282.393 305.778 282.036C306.187 281.676 306.737 281.518 307.241 281.565C308.283 281.656 309.005 282.591 308.987 283.499ZM308.987 283.499C308.983 283.041 308.78 282.591 308.439 282.302C308.097 282.013 307.649 281.895 307.242 281.942C306.403 282.039 305.859 282.792 305.871 283.499C305.858 284.206 306.401 284.963 307.242 285.058C307.649 285.104 308.098 284.986 308.44 284.697C308.78 284.407 308.983 283.957 308.987 283.499Z" fill="black"/>
<path opacity="0.1" d="M321.195 286.612C321.144 287.519 320.35 288.394 319.306 288.404C318.8 288.413 318.266 288.211 317.884 287.823C317.502 287.435 317.3 286.869 317.34 286.315C317.385 285.762 317.671 285.232 318.108 284.907C318.544 284.58 319.104 284.464 319.603 284.55C320.635 284.721 321.283 285.709 321.195 286.612ZM321.195 286.612C321.226 286.155 321.058 285.691 320.74 285.376C320.421 285.061 319.983 284.909 319.574 284.925C318.73 284.957 318.129 285.666 318.087 286.372C318.019 287.076 318.503 287.872 319.334 288.032C319.736 288.11 320.193 288.027 320.556 287.764C320.919 287.502 321.156 287.069 321.195 286.612Z" fill="black"/>
<path opacity="0.1" d="M262.871 266.865C262.889 267.773 262.165 268.707 261.125 268.797C260.621 268.845 260.073 268.685 259.663 268.327C259.253 267.97 259.008 267.42 259.005 266.865C259.008 266.31 259.252 265.759 259.662 265.402C260.071 265.042 260.621 264.883 261.125 264.931C262.167 265.022 262.89 265.957 262.871 266.865ZM262.871 266.865C262.867 266.407 262.664 265.957 262.322 265.668C261.98 265.379 261.532 265.261 261.125 265.308C260.286 265.405 259.742 266.158 259.754 266.865C259.741 267.572 260.284 268.329 261.125 268.424C261.532 268.47 261.981 268.352 262.322 268.062C262.665 267.773 262.867 267.323 262.871 266.865Z" fill="black"/>
<path opacity="0.2" d="M242.303 288.304C253.897 277.88 254.845 260.03 244.42 248.436C233.996 236.843 216.146 235.895 204.553 246.319C192.959 256.744 192.011 274.593 202.435 286.187C212.86 297.781 230.709 298.729 242.303 288.304Z" fill="black"/>
<path d="M244.593 275.328C249.02 263.634 243.128 250.565 231.434 246.139C219.74 241.712 206.672 247.604 202.246 259.298C197.819 270.992 203.71 284.06 215.404 288.487C227.098 292.913 240.167 287.022 244.593 275.328Z" fill="#263238"/>
<path d="M222.063 258.988L216.77 258.131L215.913 263.424L221.206 264.281L222.063 258.988Z" fill="#FFC727"/>
<path d="M217.627 252.838L212.334 251.981L211.477 257.274L216.77 258.131L217.627 252.838Z" fill="#FFC727"/>
<path d="M238.799 256.268L233.506 255.41L232.648 260.703L237.941 261.56L238.799 256.268Z" fill="#FFC727"/>
<path d="M214.217 273.89L208.924 273.032L208.067 278.325L213.359 279.182L214.217 273.89Z" fill="#FFC727"/>
<path d="M235.388 277.319L230.095 276.462L229.238 281.755L234.531 282.612L235.388 277.319Z" fill="#FFC727"/>
<path d="M220.367 269.455L215.075 268.598L214.217 273.89L219.51 274.748L220.367 269.455Z" fill="#FFC727"/>
<path d="M226.508 265.079L221.215 264.221L220.358 269.514L225.651 270.371L226.508 265.079Z" fill="#FFC727"/>
<path d="M232.649 260.703L227.356 259.845L226.499 265.138L231.791 265.995L232.649 260.703Z" fill="#FFC727"/>
<path d="M230.959 271.166L225.666 270.309L224.809 275.601L230.101 276.459L230.959 271.166Z" fill="#FFC727"/>
<path d="M321.028 297.021C330.91 284.961 329.144 267.173 317.084 257.291C305.024 247.409 287.237 249.175 277.355 261.235C267.473 273.295 269.238 291.083 281.298 300.965C293.359 310.847 311.146 309.081 321.028 297.021Z" fill="#FFC727"/>
<path opacity="0.2" d="M321.028 297.021C330.91 284.961 329.144 267.173 317.084 257.291C305.024 247.409 287.237 249.175 277.355 261.235C267.473 273.295 269.238 291.083 281.298 300.965C293.359 310.847 311.146 309.081 321.028 297.021Z" fill="black"/>
<path opacity="0.2" d="M326.66 285.672C326.53 286.228 326.382 286.765 326.215 287.302L271.187 275.565C271.317 274.583 271.493 273.601 271.724 272.61C275.328 257.445 290.548 248.07 305.723 251.673C320.889 255.277 330.264 270.497 326.66 285.672Z" fill="black"/>
<path d="M307.915 300.036C319.453 295.215 324.898 281.954 320.078 270.417C315.258 258.879 301.997 253.433 290.459 258.254C278.921 263.074 273.476 276.335 278.296 287.873C283.117 299.411 296.378 304.856 307.915 300.036Z" fill="#263238"/>
<path d="M304.891 266.77L299.674 265.531L293.503 291.496L298.72 292.736L304.891 266.77Z" fill="#FFC727"/>
<path d="M328.298 285.141L270.497 271.404C274.29 255.446 290.306 245.586 306.264 249.378C322.223 253.172 332.091 269.183 328.298 285.141Z" fill="#FFC727"/>
<path opacity="0.2" d="M328.298 285.141L270.497 271.404C274.29 255.446 290.306 245.586 306.264 249.378C322.223 253.172 332.091 269.183 328.298 285.141Z" fill="black"/>
<path opacity="0.1" d="M250.071 295.922C250.217 293.665 251.046 291.376 252.683 289.566C253.49 288.654 254.567 287.938 255.753 287.502C256.945 287.064 258.233 286.987 259.454 287.091C260.697 287.236 261.966 287.674 263.002 288.458C264.018 289.258 264.797 290.301 265.255 291.424C266.198 293.662 266.301 296.054 265.844 298.272C265.468 296.055 264.895 293.902 263.854 292.135C262.821 290.354 261.187 289.247 259.24 289.075C257.254 288.828 255.316 289.361 253.755 290.68C252.194 291.995 251.002 293.878 250.071 295.922Z" fill="black"/>
<path d="M193.716 238.34C193.95 235.324 194.289 232.322 194.575 229.313C194.896 226.309 195.226 223.306 195.591 220.309C195.938 217.309 196.329 214.315 196.713 211.319C197.089 208.323 197.523 205.335 197.925 202.342L198.032 201.543L198.842 201.594C205.356 202.004 211.856 202.53 218.347 203.198C221.592 203.531 224.833 203.908 228.07 204.324C231.301 204.788 234.537 205.216 237.749 205.804L218.232 204.596L198.735 203.335L199.652 202.587C199.209 205.574 198.797 208.565 198.328 211.548C197.866 214.532 197.411 217.517 196.913 220.496C196.433 223.477 195.918 226.454 195.393 229.429C194.834 232.399 194.327 235.377 193.716 238.34Z" fill="white"/>
<path d="M198.411 261.156C199.066 257.53 200.714 254.075 202.928 251.066C203.479 250.309 204.106 249.61 204.709 248.89C205.362 248.216 206.041 247.564 206.711 246.903C207.442 246.309 208.18 245.72 208.93 245.149C209.727 244.644 210.514 244.117 211.324 243.632C212.177 243.222 213.025 242.8 213.886 242.41L216.568 241.482L219.344 240.909C220.276 240.773 221.223 240.744 222.158 240.674C225.922 240.577 229.627 241.38 233.027 242.757C229.408 242.079 225.802 241.703 222.247 242.042C218.701 242.372 215.255 243.432 212.174 245.168C209.069 246.863 206.319 249.201 203.996 251.917C201.683 254.647 199.768 257.739 198.411 261.156Z" fill="white"/>
<path d="M276.287 268.782C277.437 265.281 279.546 262.087 282.154 259.412C282.804 258.739 283.522 258.133 284.219 257.503C284.958 256.926 285.721 256.374 286.476 255.811C287.282 255.323 288.094 254.842 288.916 254.38C289.775 253.99 290.627 253.576 291.497 253.208C292.399 252.92 293.297 252.619 294.203 252.352L296.988 251.803L299.817 251.619C300.759 251.612 301.7 251.715 302.636 251.774C306.378 252.198 309.935 253.505 313.113 255.338C309.622 254.167 306.103 253.296 302.535 253.142C298.977 252.98 295.418 253.554 292.127 254.848C288.818 256.098 285.771 258.034 283.095 260.403C280.425 262.788 278.102 265.585 276.287 268.782Z" fill="white"/>
<path d="M189.141 359.252C181.909 359.252 166.077 357.626 155.889 344.527C142.855 327.769 147.566 295.613 147.772 294.252L153.431 295.111C153.384 295.42 148.887 326.201 160.407 341.013C171.67 355.494 192.099 353.415 192.304 353.39L192.948 359.077C192.725 359.104 191.324 359.252 189.141 359.252Z" fill="#FFC727"/>
<path opacity="0.4" d="M189.141 359.252C181.909 359.252 166.077 357.626 155.889 344.527C142.855 327.769 147.566 295.613 147.772 294.252L153.431 295.111C153.384 295.42 148.887 326.201 160.407 341.013C171.67 355.494 192.099 353.415 192.304 353.39L192.948 359.077C192.725 359.104 191.324 359.252 189.141 359.252Z" fill="white"/>
<path d="M155.097 299.005C154.065 299.005 153.011 298.919 151.938 298.745C142.392 297.199 138.166 291.487 136.301 286.967C134.432 282.437 134 276.957 135.017 270.681L147.123 272.643C146.493 276.531 146.676 279.958 147.638 282.29C148.324 283.954 149.656 285.952 153.899 286.639C155.837 286.953 157.932 286.787 160.126 283.478C161.819 280.924 162.837 277.448 163.193 275.246L175.299 277.207C175.019 278.939 173.832 284.999 170.347 290.255C166.557 295.972 161.222 299.005 155.097 299.005Z" fill="#FFC727"/>
<path d="M201.1 375.633C201.079 375.372 190.844 373.737 190.844 373.737L185.876 340.332L198.273 335.435L201.1 375.633Z" fill="#FFC727"/>
<path opacity="0.2" d="M201.1 375.633C201.079 375.372 190.844 373.737 190.844 373.737L185.876 340.332L198.273 335.435L201.1 375.633Z" fill="black"/>
<path d="M302.296 375.695C302.323 375.435 312.592 374.026 312.592 374.026L318.297 340.739L306.011 335.569L302.296 375.695Z" fill="#FFC727"/>
<path opacity="0.2" d="M302.296 375.695C302.323 375.435 312.592 374.026 312.592 374.026L318.297 340.739L306.011 335.569L302.296 375.695Z" fill="black"/>
<path d="M196.841 327.955C196.841 327.955 279.627 324.415 307.592 329.076C307.592 329.076 299.38 409.182 298.936 410.736C298.936 410.736 216.585 410.514 203.712 410.736C203.712 410.736 196.735 357.469 196.841 327.955Z" fill="#FFC727"/>
<path opacity="0.2" d="M221.987 349.906C221.987 349.906 267.18 348.121 282.447 350.471C282.447 350.471 277.964 390.865 277.722 391.648C277.722 391.648 232.766 391.536 225.739 391.648C225.737 391.648 222.649 364.002 221.987 349.906Z" fill="black"/>
<path opacity="0.2" d="M228.164 391.631C227.129 391.631 226.309 391.644 225.735 391.651C225.735 391.651 222.651 364 221.984 349.904C221.984 349.904 223.012 349.864 224.807 349.804L228.164 391.631Z" fill="black"/>
<path d="M241.494 359.873C238.961 359.075 236.262 360.481 235.464 363.012C234.665 365.548 236.073 368.244 238.606 369.042C241.137 369.84 243.833 368.435 244.631 365.902C245.429 363.372 244.025 360.671 241.494 359.873ZM244.074 365.726C243.373 367.952 241.004 369.186 238.781 368.485C236.558 367.784 235.323 365.416 236.025 363.19C236.726 360.967 239.095 359.732 241.32 360.434C243.54 361.134 244.775 363.503 244.074 365.726ZM241.494 359.873C238.961 359.075 236.262 360.481 235.464 363.012C234.665 365.548 236.073 368.244 238.606 369.042C241.137 369.84 243.833 368.435 244.631 365.902C245.429 363.372 244.025 360.671 241.494 359.873ZM244.074 365.726C243.373 367.952 241.004 369.186 238.781 368.485C236.558 367.784 235.323 365.416 236.025 363.19C236.726 360.967 239.095 359.732 241.32 360.434C243.54 361.134 244.775 363.503 244.074 365.726ZM241.494 359.873C238.961 359.075 236.262 360.481 235.464 363.012C234.665 365.548 236.073 368.244 238.606 369.042C241.137 369.84 243.833 368.435 244.631 365.902C245.429 363.372 244.025 360.671 241.494 359.873ZM244.074 365.726C243.373 367.952 241.004 369.186 238.781 368.485C236.558 367.784 235.323 365.416 236.025 363.19C236.726 360.967 239.095 359.732 241.32 360.434C243.54 361.134 244.775 363.503 244.074 365.726ZM243.096 354.795C237.755 353.113 232.068 356.08 230.385 361.413C228.704 366.749 231.665 372.44 237.004 374.121C242.337 375.801 248.029 372.838 249.71 367.502C251.393 362.169 248.43 356.475 243.096 354.795ZM245.346 366.126C244.425 369.049 241.301 370.677 238.381 369.756C235.461 368.836 233.833 365.712 234.753 362.789C235.674 359.866 238.8 358.241 241.72 359.161C244.638 360.082 246.266 363.206 245.346 366.126ZM244.631 365.903C245.429 363.372 244.025 360.672 241.494 359.874C238.961 359.076 236.262 360.482 235.464 363.013C234.665 365.549 236.073 368.245 238.606 369.043C241.137 369.841 243.833 368.436 244.631 365.903ZM244.074 365.726C243.373 367.952 241.004 369.186 238.781 368.485C236.558 367.784 235.323 365.416 236.025 363.19C236.726 360.967 239.095 359.732 241.32 360.434C243.54 361.134 244.775 363.503 244.074 365.726ZM241.494 359.873C238.961 359.075 236.262 360.481 235.464 363.012C234.665 365.548 236.073 368.244 238.606 369.042C241.137 369.84 243.833 368.435 244.631 365.902C245.429 363.372 244.025 360.671 241.494 359.873ZM244.074 365.726C243.373 367.952 241.004 369.186 238.781 368.485C236.558 367.784 235.323 365.416 236.025 363.19C236.726 360.967 239.095 359.732 241.32 360.434C243.54 361.134 244.775 363.503 244.074 365.726ZM241.494 359.873C238.961 359.075 236.262 360.481 235.464 363.012C234.665 365.548 236.073 368.244 238.606 369.042C241.137 369.84 243.833 368.435 244.631 365.902C245.429 363.372 244.025 360.671 241.494 359.873ZM244.074 365.726C243.373 367.952 241.004 369.186 238.781 368.485C236.558 367.784 235.323 365.416 236.025 363.19C236.726 360.967 239.095 359.732 241.32 360.434C243.54 361.134 244.775 363.503 244.074 365.726Z" fill="#FFC727"/>
<path d="M238.988 374.305L235.273 373.134L234.649 375.829L237.954 376.87L238.988 374.305Z" fill="#FFC727"/>
<path d="M232.311 370.825L230.511 367.37L228.165 368.835L229.765 371.908L232.311 370.825Z" fill="#FFC727"/>
<path d="M230.05 363.642L231.22 359.927L228.526 359.304L227.484 362.608L230.05 363.642Z" fill="#FFC727"/>
<path d="M233.53 356.965L236.985 355.166L235.52 352.819L232.447 354.42L233.53 356.965Z" fill="#FFC727"/>
<path d="M240.712 354.704L244.428 355.875L245.051 353.18L241.747 352.139L240.712 354.704Z" fill="#FFC727"/>
<path d="M247.39 358.184L249.189 361.639L251.536 360.175L249.935 357.102L247.39 358.184Z" fill="#FFC727"/>
<path d="M249.651 365.367L248.48 369.082L251.175 369.706L252.216 366.401L249.651 365.367Z" fill="#FFC727"/>
<path d="M246.171 372.044L242.715 373.844L244.18 376.19L247.253 374.59L246.171 372.044Z" fill="#FFC727"/>
<path d="M257.835 374.012C256.337 373.036 254.332 373.461 253.357 374.957C252.38 376.457 252.806 378.46 254.304 379.436C255.801 380.411 257.803 379.987 258.779 378.489C259.754 376.993 259.332 374.987 257.835 374.012ZM258.45 378.274C257.593 379.591 255.833 379.963 254.518 379.106C253.203 378.25 252.831 376.49 253.688 375.174C254.544 373.859 256.304 373.487 257.62 374.344C258.934 375.2 259.306 376.959 258.45 378.274ZM257.835 374.012C256.337 373.036 254.332 373.461 253.357 374.957C252.38 376.457 252.806 378.46 254.304 379.436C255.801 380.411 257.803 379.987 258.779 378.489C259.754 376.993 259.332 374.987 257.835 374.012ZM258.45 378.274C257.593 379.591 255.833 379.963 254.518 379.106C253.203 378.25 252.831 376.49 253.688 375.174C254.544 373.859 256.304 373.487 257.62 374.344C258.934 375.2 259.306 376.959 258.45 378.274ZM257.835 374.012C256.337 373.036 254.332 373.461 253.357 374.957C252.38 376.457 252.806 378.46 254.304 379.436C255.801 380.411 257.803 379.987 258.779 378.489C259.754 376.993 259.332 374.987 257.835 374.012ZM258.45 378.274C257.593 379.591 255.833 379.963 254.518 379.106C253.203 378.25 252.831 376.49 253.688 375.174C254.544 373.859 256.304 373.487 257.62 374.344C258.934 375.2 259.306 376.959 258.45 378.274ZM259.792 371.009C256.632 368.953 252.408 369.848 250.352 373.003C248.297 376.16 249.188 380.386 252.346 382.441C255.501 384.495 259.728 383.602 261.783 380.446C263.839 377.291 262.947 373.063 259.792 371.009ZM259.202 378.764C258.076 380.493 255.756 380.984 254.029 379.859C252.302 378.734 251.81 376.414 252.936 374.685C254.062 372.956 256.383 372.467 258.11 373.592C259.836 374.716 260.327 377.036 259.202 378.764ZM258.779 378.489C259.754 376.992 259.332 374.988 257.835 374.013C256.337 373.037 254.332 373.462 253.357 374.958C252.38 376.458 252.806 378.461 254.304 379.437C255.801 380.412 257.803 379.987 258.779 378.489ZM258.45 378.274C257.593 379.591 255.833 379.963 254.518 379.106C253.203 378.25 252.831 376.49 253.688 375.174C254.544 373.859 256.304 373.487 257.62 374.344C258.934 375.2 259.306 376.959 258.45 378.274ZM257.835 374.012C256.337 373.036 254.332 373.461 253.357 374.957C252.38 376.457 252.806 378.46 254.304 379.436C255.801 380.411 257.803 379.987 258.779 378.489C259.754 376.993 259.332 374.987 257.835 374.012ZM258.45 378.274C257.593 379.591 255.833 379.963 254.518 379.106C253.203 378.25 252.831 376.49 253.688 375.174C254.544 373.859 256.304 373.487 257.62 374.344C258.934 375.2 259.306 376.959 258.45 378.274ZM257.835 374.012C256.337 373.036 254.332 373.461 253.357 374.957C252.38 376.457 252.806 378.46 254.304 379.436C255.801 380.411 257.803 379.987 258.779 378.489C259.754 376.993 259.332 374.987 257.835 374.012ZM258.45 378.274C257.593 379.591 255.833 379.963 254.518 379.106C253.203 378.25 252.831 376.49 253.688 375.174C254.544 373.859 256.304 373.487 257.62 374.344C258.934 375.2 259.306 376.959 258.45 378.274Z" fill="#DBDBDB"/>
<path d="M253.6 382.918L251.402 381.487L250.511 383.122L252.466 384.395L253.6 382.918Z" fill="#DBDBDB"/>
<path d="M249.899 379.454L249.357 376.888L247.57 377.414L248.053 379.696L249.899 379.454Z" fill="#DBDBDB"/>
<path d="M249.732 374.387L251.163 372.189L249.528 371.298L248.255 373.253L249.732 374.387Z" fill="#DBDBDB"/>
<path d="M253.196 370.686L255.762 370.144L255.236 368.358L252.954 368.84L253.196 370.686Z" fill="#DBDBDB"/>
<path d="M258.263 370.519L260.46 371.95L261.352 370.315L259.397 369.042L258.263 370.519Z" fill="#DBDBDB"/>
<path d="M261.964 373.983L262.506 376.549L264.292 376.023L263.81 373.741L261.964 373.983Z" fill="#DBDBDB"/>
<path d="M262.131 379.05L260.7 381.248L262.335 382.139L263.608 380.184L262.131 379.05Z" fill="#DBDBDB"/>
<path d="M258.667 382.751L256.101 383.293L256.626 385.079L258.909 384.597L258.667 382.751Z" fill="#DBDBDB"/>
<path d="M305.594 401.414L308.776 402.006L317.875 340.379L314.25 339.713L305.594 401.414Z" fill="#FFC727"/>
<path d="M277.721 391.648L282.446 350.471L314.25 339.713C314.25 339.713 305.594 402.08 305.594 401.414L277.721 391.648Z" fill="#FFC727"/>
<path opacity="0.4" d="M277.721 391.648L282.446 350.471L314.25 339.713C314.25 339.713 305.594 402.08 305.594 401.414L277.721 391.648Z" fill="white"/>
<path d="M200.64 352.139C200.122 348.728 199.842 345.289 199.629 341.847C199.531 340.125 199.487 338.401 199.449 336.677C199.415 334.953 199.385 333.227 199.436 331.502L199.45 331.049L199.891 331.025C206.209 330.686 212.523 330.271 218.845 329.995C225.165 329.683 231.485 329.4 237.81 329.202C231.505 329.773 225.197 330.259 218.887 330.717C212.579 331.21 206.264 331.564 199.953 331.994L200.407 331.517L200.381 336.667L200.441 341.819C200.45 343.538 200.481 345.256 200.531 346.975L200.64 352.139Z" fill="white"/>
<path d="M286.882 351.075C288.852 350.139 290.853 349.269 292.878 348.466C294.897 347.644 296.934 346.866 298.995 346.152C301.059 345.447 303.13 344.757 305.236 344.172C307.338 343.58 309.46 343.033 311.628 342.678L312.161 342.591L312.066 343.1C311.567 345.766 311.045 348.428 310.428 351.075C310.659 348.367 310.985 345.673 311.334 342.984L311.772 343.406C309.671 343.907 307.587 344.493 305.509 345.107C303.433 345.728 301.363 346.382 299.299 347.054L286.882 351.075Z" fill="white"/>
<path opacity="0.1" d="M214.403 328.122L214.939 338.421L215.397 348.723L216.191 369.331L216.812 389.945L217.06 400.254L217.23 410.566L216.693 400.267L216.235 389.965L215.442 369.357L214.823 348.743L214.574 338.434L214.403 328.122Z" fill="black"/>
<path opacity="0.1" d="M211.453 334.33C211.651 335.217 211.125 336.275 210.124 336.569C209.639 336.715 209.071 336.667 208.598 336.397C208.125 336.128 207.776 335.638 207.664 335.094C207.557 334.549 207.687 333.961 208.019 333.53C208.349 333.097 208.857 332.832 209.36 332.779C210.398 332.663 211.292 333.437 211.453 334.33ZM211.453 334.33C211.358 333.882 211.07 333.481 210.679 333.265C210.287 333.049 209.824 333.022 209.434 333.149C208.631 333.41 208.246 334.255 208.398 334.947C208.525 335.642 209.207 336.277 210.05 336.204C210.458 336.169 210.875 335.965 211.152 335.613C211.43 335.262 211.539 334.78 211.453 334.33Z" fill="black"/>
<path opacity="0.1" d="M212.162 346.679C212.36 347.566 211.834 348.624 210.833 348.918C210.348 349.064 209.78 349.016 209.307 348.746C208.834 348.477 208.485 347.987 208.373 347.443C208.266 346.898 208.396 346.31 208.728 345.879C209.058 345.446 209.566 345.181 210.069 345.128C211.107 345.012 212.001 345.786 212.162 346.679ZM212.162 346.679C212.067 346.231 211.779 345.83 211.388 345.614C210.996 345.398 210.533 345.371 210.143 345.498C209.34 345.759 208.955 346.605 209.107 347.296C209.234 347.991 209.916 348.626 210.759 348.553C211.167 348.518 211.584 348.313 211.862 347.962C212.139 347.611 212.249 347.129 212.162 346.679Z" fill="black"/>
<path opacity="0.1" d="M212.612 359.788C212.81 360.675 212.284 361.733 211.283 362.027C210.798 362.173 210.23 362.125 209.757 361.855C209.284 361.586 208.935 361.096 208.823 360.552C208.716 360.008 208.846 359.419 209.178 358.988C209.508 358.554 210.016 358.29 210.519 358.237C211.557 358.121 212.451 358.895 212.612 359.788ZM212.612 359.788C212.517 359.34 212.229 358.939 211.838 358.723C211.446 358.507 210.983 358.48 210.593 358.607C209.79 358.868 209.405 359.713 209.557 360.404C209.684 361.1 210.366 361.734 211.209 361.661C211.617 361.626 212.034 361.422 212.311 361.07C212.589 360.719 212.698 360.238 212.612 359.788Z" fill="black"/>
<path opacity="0.1" d="M213.062 372.896C213.26 373.783 212.734 374.841 211.733 375.135C211.248 375.281 210.68 375.233 210.207 374.963C209.734 374.694 209.385 374.204 209.273 373.66C209.166 373.115 209.296 372.527 209.628 372.096C209.958 371.663 210.465 371.398 210.969 371.345C212.007 371.229 212.901 372.003 213.062 372.896ZM213.062 372.896C212.967 372.448 212.68 372.047 212.288 371.831C211.896 371.615 211.433 371.588 211.043 371.715C210.24 371.976 209.855 372.821 210.007 373.513C210.134 374.208 210.816 374.843 211.659 374.77C212.067 374.735 212.484 374.531 212.761 374.179C213.039 373.828 213.148 373.346 213.062 372.896Z" fill="black"/>
<path opacity="0.1" d="M213.512 386.005C213.71 386.892 213.184 387.95 212.183 388.244C211.698 388.39 211.13 388.342 210.657 388.072C210.184 387.803 209.835 387.313 209.723 386.769C209.616 386.224 209.746 385.636 210.078 385.205C210.408 384.772 210.916 384.507 211.419 384.454C212.457 384.338 213.351 385.111 213.512 386.005ZM213.512 386.005C213.417 385.557 213.129 385.156 212.738 384.94C212.346 384.724 211.883 384.697 211.493 384.824C210.69 385.085 210.305 385.93 210.457 386.622C210.584 387.318 211.266 387.952 212.109 387.879C212.517 387.844 212.934 387.64 213.212 387.288C213.489 386.936 213.598 386.454 213.512 386.005Z" fill="black"/>
<path opacity="0.1" d="M213.962 399.113C214.16 400 213.634 401.058 212.633 401.352C212.148 401.498 211.58 401.45 211.107 401.18C210.634 400.911 210.285 400.421 210.173 399.877C210.066 399.333 210.196 398.744 210.528 398.313C210.858 397.879 211.365 397.615 211.869 397.562C212.907 397.446 213.8 398.22 213.962 399.113ZM213.962 399.113C213.867 398.665 213.579 398.264 213.188 398.048C212.796 397.832 212.333 397.805 211.943 397.932C211.14 398.193 210.755 399.038 210.907 399.73C211.034 400.426 211.716 401.06 212.559 400.987C212.967 400.952 213.384 400.747 213.661 400.396C213.939 400.044 214.048 399.563 213.962 399.113Z" fill="black"/>
<path d="M218.009 419.158L171.134 433.362L172.793 438.839L219.668 424.635L218.009 419.158Z" fill="#FFC727"/>
<path opacity="0.4" d="M218.009 419.158L171.134 433.362L172.793 438.839L219.668 424.635L218.009 419.158Z" fill="white"/>
<path d="M195.581 424.094L190.127 425.829L192.704 433.931L198.158 432.196L195.581 424.094Z" fill="#FFC727"/>
<path d="M172.427 446.863L160.331 394.484L123.821 403.14L141.799 454.187L172.427 446.863Z" fill="#FFC727"/>
<path d="M180.528 444.2L172.427 446.863L160.331 394.484L171.983 397.258L180.528 444.2Z" fill="#FFC727"/>
<path opacity="0.2" d="M180.528 444.2L172.427 446.863L160.331 394.484L171.983 397.258L180.528 444.2Z" fill="black"/>
<path d="M218.859 428.108C222.291 428.108 225.073 425.326 225.073 421.894C225.073 418.462 222.291 415.68 218.859 415.68C215.427 415.68 212.645 418.462 212.645 421.894C212.645 425.326 215.427 428.108 218.859 428.108Z" fill="#FFC727"/>
<path d="M282.802 419.006L281.131 424.479L327.976 438.782L329.647 433.308L282.802 419.006Z" fill="#FFC727"/>
<path opacity="0.4" d="M282.802 419.006L281.131 424.479L327.976 438.782L329.647 433.308L282.802 419.006Z" fill="white"/>
<path d="M305.262 423.967L302.667 432.062L308.117 433.809L310.712 425.714L305.262 423.967Z" fill="#FFC727"/>
<path d="M328.357 446.818L340.565 394.464L377.056 403.198L358.97 454.207L328.357 446.818Z" fill="#FFC727"/>
<path d="M320.262 444.137L328.357 446.818L340.565 394.464L328.907 397.214L320.262 444.137Z" fill="#FFC727"/>
<path opacity="0.2" d="M320.262 444.137L328.357 446.818L340.565 394.464L328.907 397.214L320.262 444.137Z" fill="black"/>
<path d="M275.764 421.737C275.757 425.169 278.533 427.957 281.965 427.965C285.397 427.972 288.185 425.196 288.193 421.764C288.2 418.332 285.424 415.544 281.992 415.536C278.559 415.528 275.771 418.305 275.764 421.737Z" fill="#FFC727"/>
<path d="M322.663 357.132C322.81 356.994 337.866 343.029 355.578 347.806C373.69 352.693 388.644 379.973 388.792 380.249L393.826 377.528C393.172 376.317 377.575 347.804 357.067 342.282C336.21 336.657 319.425 352.316 318.72 352.986L322.663 357.132Z" fill="#FFC727"/>
<path opacity="0.4" d="M322.663 357.132C322.81 356.994 337.866 343.029 355.578 347.806C373.69 352.693 388.644 379.973 388.792 380.249L393.826 377.528C393.172 376.317 377.575 347.804 357.067 342.282C336.21 336.657 319.425 352.316 318.72 352.986L322.663 357.132Z" fill="white"/>
<path d="M382.118 407.712L392.964 401.986C391.923 400.015 390.641 396.627 390.455 393.568C390.214 389.604 391.787 388.21 393.522 387.293C397.322 385.286 399.59 386.082 401.139 386.994C403.312 388.277 405.522 390.902 407.361 394.386L418.207 388.66C415.239 383.038 411.594 378.924 407.373 376.432C403.162 373.95 396.348 371.933 387.796 376.447C381.13 379.966 377.727 386.311 378.214 394.312C378.596 400.608 381.299 406.16 382.118 407.712Z" fill="#FFC727"/>
<path d="M324.949 338.022C327.3 336.398 329.706 334.868 332.121 333.352C334.53 331.827 336.979 330.369 339.428 328.911C341.889 327.474 344.351 326.039 346.853 324.67L350.607 322.62C351.877 321.968 353.129 321.287 354.415 320.661C353.245 321.482 352.042 322.247 350.856 323.042L347.244 325.332C344.834 326.857 342.386 328.315 339.936 329.771C337.474 331.207 335.012 332.642 332.51 334.01C330.014 335.39 327.509 336.753 324.949 338.022Z" fill="#263238"/>
<path d="M318.72 361.423C322.086 363.341 325.277 365.506 328.425 367.731C331.555 369.981 334.641 372.292 337.549 374.852C334.181 372.936 330.991 370.771 327.844 368.544C324.716 366.293 321.63 363.982 318.72 361.423Z" fill="#263238"/>
<path d="M324.249 358.545C326.847 359.334 329.405 360.226 331.956 361.133C334.512 362.029 337.04 362.999 339.567 363.969C342.086 364.961 344.604 365.955 347.094 367.021L350.828 368.623C352.059 369.191 353.303 369.727 354.523 370.324C353.221 369.939 351.941 369.493 350.65 369.08L346.815 367.738C344.259 366.841 341.731 365.872 339.205 364.901C336.687 363.908 334.168 362.914 331.679 361.847C329.185 360.79 326.698 359.719 324.249 358.545Z" fill="#263238"/>
<path d="M331.63 340.217C334.12 339.57 336.628 339.031 339.14 338.508C341.649 337.974 344.173 337.518 346.696 337.061C349.223 336.628 351.751 336.197 354.292 335.842L358.104 335.313C359.381 335.173 360.652 334.999 361.935 334.889C360.692 335.223 359.438 335.493 358.189 335.796L354.425 336.599C351.915 337.132 349.392 337.589 346.869 338.044C344.341 338.475 341.814 338.907 339.273 339.261C336.734 339.628 334.191 339.977 331.63 340.217Z" fill="#263238"/>
<path d="M271.622 355.787C272.044 353.764 272.723 351.792 273.601 349.912C274.48 348.034 275.556 346.233 276.906 344.632C278.26 343.048 279.926 341.651 281.931 340.878C283.936 340.131 286.231 340.137 288.242 340.94C290.277 341.733 291.882 343.443 292.747 345.409C293.196 346.391 293.477 347.444 293.593 348.521C293.694 349.596 293.651 350.714 293.223 351.788C293.005 352.316 292.664 352.849 292.118 353.204C291.854 353.388 291.531 353.493 291.214 353.542C290.902 353.587 290.582 353.573 290.218 353.447C289.549 353.162 289.214 352.624 288.926 352.139C288.669 351.635 288.471 351.119 288.336 350.598C287.774 348.511 287.717 346.388 287.816 344.289C288.114 340.108 289.212 335.926 291.465 332.328C292.602 330.55 294.028 328.913 295.801 327.717C297.551 326.513 299.6 325.684 301.692 325.444C302.721 325.195 303.784 325.218 304.835 325.167C305.362 325.111 305.885 325.239 306.41 325.266C306.931 325.335 307.465 325.326 307.972 325.477C310.05 325.85 312.003 326.684 313.827 327.693C315.64 328.738 317.255 330.08 318.729 331.536C320.19 333.007 321.519 334.616 322.587 336.388C320.222 333.013 317.177 330.083 313.587 328.121C311.78 327.182 309.871 326.411 307.86 326.099C307.369 325.962 306.854 325.986 306.352 325.93C305.847 325.915 305.344 325.8 304.838 325.868C303.829 325.942 302.813 325.937 301.828 326.202C299.812 326.486 297.942 327.297 296.296 328.427C294.642 329.559 293.308 331.112 292.236 332.812C290.113 336.251 289.073 340.313 288.814 344.349C288.701 346.366 288.752 348.428 289.256 350.344C289.497 351.26 289.93 352.292 290.561 352.581C290.642 352.589 290.696 352.632 290.794 352.635C290.892 352.627 290.997 352.649 291.09 352.625C291.28 352.594 291.465 352.543 291.624 352.429C291.952 352.223 292.212 351.857 292.387 351.437C292.738 350.587 292.802 349.579 292.714 348.608C292.616 347.631 292.366 346.661 291.962 345.761C291.171 343.962 289.768 342.408 287.95 341.646C286.142 340.878 284.025 340.816 282.148 341.469C280.262 342.146 278.633 343.446 277.275 344.953C274.55 348.003 272.713 351.818 271.622 355.787Z" fill="#263238"/>
<path d="M179.217 381.703C180.182 379.884 181.601 378.31 183.258 377.066C184.913 375.822 186.813 374.857 188.858 374.384C190.892 373.897 193.077 373.889 195.112 374.507C197.148 375.116 198.982 376.31 200.45 377.831C201.928 379.351 203.033 381.197 203.792 383.16C204.537 385.127 204.984 387.234 204.826 389.389C204.719 390.449 204.504 391.594 203.665 392.511C203.249 392.962 202.607 393.26 201.98 393.27C201.378 393.264 200.809 393.175 200.257 392.88C199.708 392.597 199.268 392.105 199.017 391.561C198.762 391.016 198.667 390.439 198.641 389.881C198.601 388.761 198.843 387.697 199.172 386.685C199.843 384.658 200.945 382.832 202.233 381.177C203.528 379.524 205.052 378.052 206.76 376.826C210.148 374.366 214.464 372.999 218.674 373.55C220.752 373.831 222.814 374.431 224.633 375.491C226.468 376.516 228.059 377.939 229.356 379.565C230.652 381.198 231.662 383.033 232.44 384.945C233.218 386.858 233.792 388.855 234.074 390.893C233.234 386.886 231.586 382.994 228.961 379.888C227.661 378.336 226.094 377.004 224.316 376.065C222.553 375.092 220.575 374.57 218.584 374.347C214.584 373.912 210.526 375.187 207.299 377.575C204.076 379.946 201.439 383.255 200.106 386.998C199.792 387.931 199.573 388.907 199.602 389.847C199.624 390.78 199.952 391.676 200.701 392.054C201.054 392.257 201.533 392.336 201.951 392.343C202.356 392.332 202.716 392.171 203.005 391.872C203.589 391.263 203.839 390.267 203.928 389.311C204.085 387.357 203.681 385.336 202.982 383.469C202.274 381.597 201.222 379.851 199.862 378.39C198.505 376.931 196.795 375.793 194.903 375.174C193.014 374.545 190.943 374.493 188.975 374.91C185.038 375.747 181.39 378.209 179.217 381.703Z" fill="#263238"/>
<path d="M122.132 134.45C122.019 130.335 121.146 126.192 119.231 122.582C118.272 120.794 117 119.142 115.33 118.035C113.663 116.953 111.593 116.508 109.654 116.822C107.707 117.128 105.974 118.303 104.776 119.86C104.169 120.638 103.694 121.519 103.366 122.445C103.048 123.367 102.87 124.361 103.008 125.27C103.077 125.719 103.242 126.136 103.512 126.415C103.64 126.564 103.807 126.657 103.984 126.733C104.069 126.778 104.176 126.782 104.269 126.813C104.365 126.833 104.427 126.804 104.508 126.816C105.189 126.686 105.857 125.787 106.309 124.955C107.256 123.215 107.798 121.224 108.169 119.239C108.88 115.258 108.84 111.065 107.599 107.219C106.965 105.312 106.039 103.485 104.703 101.992C103.374 100.502 101.752 99.268 99.862 98.511C98.969 98.019 97.981 97.782 97.019 97.468C96.544 97.282 96.028 97.274 95.534 97.167C95.033 97.102 94.539 96.956 94.029 96.971C92.002 96.794 89.964 97.087 87.985 97.568C84.03 98.617 80.374 100.735 77.272 103.448C78.732 101.983 80.406 100.737 82.176 99.657C83.955 98.595 85.843 97.678 87.853 97.095C89.864 96.55 91.961 96.206 94.067 96.34C94.596 96.314 95.111 96.451 95.634 96.508C96.15 96.606 96.689 96.607 97.187 96.787C98.195 97.088 99.234 97.319 100.173 97.806C102.147 98.538 103.939 99.832 105.351 101.419C106.787 103.003 107.781 104.933 108.461 106.931C109.79 110.962 109.858 115.286 109.149 119.417C108.745 121.479 108.182 123.527 107.139 125.42C106.883 125.894 106.567 126.348 106.198 126.776C105.803 127.178 105.349 127.621 104.632 127.738C104.248 127.773 103.935 127.71 103.642 127.592C103.346 127.468 103.057 127.29 102.845 127.048C102.4 126.573 102.195 125.974 102.11 125.41C101.95 124.266 102.175 123.17 102.53 122.149C102.899 121.13 103.424 120.175 104.094 119.329C105.403 117.627 107.37 116.349 109.535 116.065C111.68 115.765 113.91 116.307 115.679 117.512C117.441 118.741 118.726 120.496 119.663 122.357C120.592 124.234 121.206 126.24 121.612 128.273C122.016 130.307 122.205 132.384 122.132 134.45Z" fill="#263238"/>
<path d="M353.77 192.371C349.742 191.521 345.509 191.403 341.552 192.423C339.59 192.939 337.687 193.79 336.22 195.155C334.779 196.523 333.863 198.433 333.716 200.392C333.559 202.356 334.297 204.316 335.532 205.844C336.146 206.616 336.893 207.283 337.716 207.818C338.538 208.342 339.464 208.748 340.38 208.826C340.833 208.863 341.277 208.8 341.611 208.603C341.785 208.514 341.915 208.373 342.03 208.219C342.094 208.147 342.123 208.044 342.175 207.961C342.217 207.873 342.203 207.805 342.234 207.73C342.267 207.037 341.548 206.178 340.845 205.545C339.374 204.219 337.564 203.227 335.721 202.403C332.016 200.783 327.929 199.843 323.899 200.152C321.897 200.324 319.904 200.798 318.14 201.748C316.381 202.692 314.803 203.982 313.626 205.643C312.939 206.397 312.478 207.302 311.949 208.164C311.657 208.583 311.529 209.082 311.31 209.538C311.129 210.01 310.872 210.456 310.769 210.955C310.124 212.885 309.933 214.935 309.939 216.971C310.036 221.061 311.243 225.111 313.157 228.761C312.073 227 311.252 225.081 310.615 223.108C309.998 221.13 309.546 219.08 309.449 216.989C309.389 214.906 309.543 212.787 310.165 210.77C310.263 210.25 310.516 209.78 310.694 209.285C310.91 208.806 311.037 208.282 311.328 207.84C311.856 206.93 312.323 205.974 313.016 205.174C314.189 203.425 315.865 201.985 317.737 200.982C319.613 199.955 321.721 199.439 323.823 199.244C328.053 198.893 332.274 199.835 336.125 201.488C338.036 202.362 339.896 203.387 341.493 204.844C341.894 205.203 342.262 205.616 342.592 206.076C342.891 206.553 343.215 207.098 343.162 207.823C343.107 208.204 342.972 208.495 342.789 208.752C342.6 209.011 342.358 209.25 342.074 209.4C341.509 209.722 340.878 209.781 340.309 209.732C339.159 209.62 338.146 209.146 337.236 208.563C336.332 207.966 335.525 207.233 334.858 206.384C333.508 204.714 332.725 202.503 332.953 200.332C333.162 198.177 334.21 196.134 335.793 194.695C337.399 193.268 339.405 192.429 341.434 191.952C343.476 191.487 345.57 191.357 347.642 191.437C349.715 191.517 351.778 191.818 353.77 192.371Z" fill="#263238"/>
<path d="M291.86 127.671C291.176 125.302 291.084 122.768 291.469 120.321C291.852 117.874 292.681 115.467 294.035 113.359C295.369 111.249 297.23 109.424 299.481 108.261C301.726 107.089 304.284 106.58 306.802 106.657C309.327 106.725 311.809 107.379 314.094 108.421C316.369 109.478 318.507 110.906 320.162 112.87C320.951 113.859 321.713 115.012 321.759 116.46C321.779 117.175 321.489 117.939 320.976 118.457C320.468 118.943 319.913 119.338 319.214 119.541C318.526 119.752 317.761 119.7 317.106 119.45C316.447 119.202 315.892 118.795 315.411 118.345C314.452 117.431 313.773 116.325 313.212 115.189C312.098 112.904 311.512 110.426 311.23 107.939C310.955 105.448 311.026 102.919 311.459 100.448C312.295 95.52 314.835 90.761 318.88 87.713C320.885 86.216 323.142 85.004 325.578 84.387C327.998 83.726 330.544 83.609 333.012 83.91C335.485 84.216 337.885 84.933 340.154 85.912C342.423 86.892 344.589 88.114 346.544 89.614C342.482 86.866 337.813 84.898 332.956 84.418C330.539 84.172 328.073 84.337 325.753 85.02C323.418 85.66 321.275 86.869 319.373 88.347C317.493 89.852 315.893 91.703 314.724 93.808C313.545 95.908 312.775 98.229 312.368 100.607C311.589 105.355 312.092 110.412 314.097 114.759C314.614 115.828 315.247 116.855 316.073 117.648C316.883 118.438 317.952 118.956 318.953 118.639C319.445 118.511 319.929 118.172 320.307 117.814C320.661 117.451 320.845 116.981 320.839 116.464C320.826 115.414 320.193 114.343 319.463 113.442C317.948 111.622 315.901 110.227 313.729 109.209C311.545 108.196 309.171 107.577 306.772 107.468C304.376 107.358 301.946 107.819 299.797 108.884C297.643 109.938 295.821 111.639 294.485 113.653C291.817 117.687 290.771 122.864 291.86 127.671Z" fill="#263238"/>
<path d="M175.874 381.922C173.633 381.216 171.246 382.46 170.54 384.699C169.833 386.942 171.078 389.327 173.319 390.034C175.558 390.74 177.943 389.497 178.649 387.256C179.355 385.017 178.113 382.627 175.874 381.922ZM178.156 387.099C177.536 389.068 175.44 390.16 173.474 389.54C171.507 388.92 170.415 386.825 171.036 384.856C171.656 382.889 173.751 381.797 175.72 382.418C177.684 383.037 178.776 385.132 178.156 387.099ZM175.874 381.922C173.633 381.216 171.246 382.46 170.54 384.699C169.833 386.942 171.078 389.327 173.319 390.034C175.558 390.74 177.943 389.497 178.649 387.256C179.355 385.017 178.113 382.627 175.874 381.922ZM178.156 387.099C177.536 389.068 175.44 390.16 173.474 389.54C171.507 388.92 170.415 386.825 171.036 384.856C171.656 382.889 173.751 381.797 175.72 382.418C177.684 383.037 178.776 385.132 178.156 387.099ZM175.874 381.922C173.633 381.216 171.246 382.46 170.54 384.699C169.833 386.942 171.078 389.327 173.319 390.034C175.558 390.74 177.943 389.497 178.649 387.256C179.355 385.017 178.113 382.627 175.874 381.922ZM178.156 387.099C177.536 389.068 175.44 390.16 173.474 389.54C171.507 388.92 170.415 386.825 171.036 384.856C171.656 382.889 173.751 381.797 175.72 382.418C177.684 383.037 178.776 385.132 178.156 387.099ZM177.291 377.429C172.566 375.941 167.535 378.566 166.047 383.284C164.56 388.004 167.18 393.039 171.902 394.526C176.62 396.012 181.655 393.391 183.142 388.67C184.631 383.953 182.01 378.915 177.291 377.429ZM179.281 387.453C178.466 390.039 175.703 391.479 173.12 390.665C170.537 389.851 169.096 387.087 169.911 384.502C170.726 381.917 173.491 380.479 176.074 381.293C178.655 382.106 180.095 384.87 179.281 387.453ZM178.649 387.255C179.355 385.016 178.113 382.627 175.874 381.921C173.633 381.215 171.246 382.459 170.54 384.698C169.833 386.941 171.078 389.326 173.319 390.033C175.558 390.739 177.943 389.496 178.649 387.255ZM178.156 387.099C177.536 389.068 175.44 390.16 173.474 389.54C171.507 388.92 170.415 386.825 171.036 384.856C171.656 382.889 173.751 381.797 175.72 382.418C177.684 383.037 178.776 385.132 178.156 387.099ZM175.874 381.922C173.633 381.216 171.246 382.46 170.54 384.699C169.833 386.942 171.078 389.327 173.319 390.034C175.558 390.74 177.943 389.497 178.649 387.256C179.355 385.017 178.113 382.627 175.874 381.922ZM178.156 387.099C177.536 389.068 175.44 390.16 173.474 389.54C171.507 388.92 170.415 386.825 171.036 384.856C171.656 382.889 173.751 381.797 175.72 382.418C177.684 383.037 178.776 385.132 178.156 387.099ZM175.874 381.922C173.633 381.216 171.246 382.46 170.54 384.699C169.833 386.942 171.078 389.327 173.319 390.034C175.558 390.74 177.943 389.497 178.649 387.256C179.355 385.017 178.113 382.627 175.874 381.922ZM178.156 387.099C177.536 389.068 175.44 390.16 173.474 389.54C171.507 388.92 170.415 386.825 171.036 384.856C171.656 382.889 173.751 381.797 175.72 382.418C177.684 383.037 178.776 385.132 178.156 387.099Z" fill="#455A64"/>
<path d="M173.657 394.688L170.37 393.653L169.819 396.037L172.742 396.958L173.657 394.688Z" fill="#455A64"/>
<path d="M167.75 391.61L166.158 388.553L164.083 389.849L165.498 392.568L167.75 391.61Z" fill="#455A64"/>
<path d="M165.75 385.255L166.786 381.968L164.402 381.417L163.481 384.34L165.75 385.255Z" fill="#455A64"/>
<path d="M168.829 379.349L171.885 377.757L170.589 375.681L167.871 377.097L168.829 379.349Z" fill="#455A64"/>
<path d="M175.182 377.349L178.469 378.384L179.021 376.001L176.097 375.08L175.182 377.349Z" fill="#455A64"/>
<path d="M181.089 380.427L182.681 383.484L184.757 382.188L183.341 379.47L181.089 380.427Z" fill="#455A64"/>
<path d="M183.09 386.781L182.054 390.068L184.438 390.62L185.359 387.696L183.09 386.781Z" fill="#455A64"/>
<path d="M180.011 392.688L176.954 394.28L178.25 396.355L180.969 394.94L180.011 392.688Z" fill="#455A64"/>
<path d="M341.674 353.348C346.182 347.274 344.912 338.693 338.838 334.186C332.762 329.677 324.181 330.947 319.674 337.02C315.165 343.096 316.435 351.677 322.511 356.186C328.584 360.694 337.165 359.425 341.674 353.348ZM335.811 348.997C333.704 351.836 329.699 352.429 326.862 350.324C324.023 348.217 323.43 344.212 325.537 341.372C327.642 338.535 331.648 337.942 334.487 340.049C337.323 342.155 337.916 346.16 335.811 348.997Z" fill="#263238"/>
<path d="M324.963 357.299L320.733 354.16L318.745 357.328L322.507 360.12L324.963 357.299Z" fill="#263238"/>
<path d="M317.97 349.898L317.198 344.688L313.552 345.522L314.238 350.157L317.97 349.898Z" fill="#263238"/>
<path d="M318.257 339.72L321.397 335.49L318.229 333.502L315.437 337.264L318.257 339.72Z" fill="#263238"/>
<path d="M325.658 332.728L330.869 331.956L330.035 328.31L325.4 328.996L325.658 332.728Z" fill="#263238"/>
<path d="M335.836 333.014L340.066 336.154L342.054 332.986L338.292 330.194L335.836 333.014Z" fill="#263238"/>
<path d="M342.829 340.416L343.6 345.627L347.246 344.793L346.56 340.158L342.829 340.416Z" fill="#263238"/>
<path d="M342.542 350.594L339.402 354.824L342.57 356.812L345.362 353.05L342.542 350.594Z" fill="#263238"/>
<path d="M335.141 357.586L329.93 358.357L330.764 362.003L335.399 361.318L335.141 357.586Z" fill="#263238"/>
<path d="M325.767 345.843L328.677 349.513L333.311 348.825L335.031 344.472L332.124 340.804L327.49 341.488L325.767 345.843ZM331.283 343.965C331.943 344.455 332.08 345.382 331.59 346.042C331.102 346.699 330.173 346.839 329.513 346.349C328.856 345.861 328.718 344.929 329.206 344.272C329.696 343.613 330.626 343.478 331.283 343.965Z" fill="#263238"/>
<path d="M351.943 86.6007C349.982 85.9827 347.893 87.0717 347.275 89.0307C346.657 90.9937 347.746 93.0807 349.707 93.6987C351.666 94.3167 353.753 93.2287 354.371 91.2677C354.989 89.3087 353.902 87.2177 351.943 86.6007ZM353.94 91.1307C353.397 92.8537 351.564 93.8087 349.842 93.2667C348.121 92.7247 347.166 90.8907 347.708 89.1677C348.25 87.4467 350.084 86.4917 351.807 87.0337C353.527 87.5757 354.483 89.4097 353.94 91.1307ZM351.943 86.6007C349.982 85.9827 347.893 87.0717 347.275 89.0307C346.657 90.9937 347.746 93.0807 349.707 93.6987C351.666 94.3167 353.753 93.2287 354.371 91.2677C354.989 89.3087 353.902 87.2177 351.943 86.6007ZM353.94 91.1307C353.397 92.8537 351.564 93.8087 349.842 93.2667C348.121 92.7247 347.166 90.8907 347.708 89.1677C348.25 87.4467 350.084 86.4917 351.807 87.0337C353.527 87.5757 354.483 89.4097 353.94 91.1307ZM351.943 86.6007C349.982 85.9827 347.893 87.0717 347.275 89.0307C346.657 90.9937 347.746 93.0807 349.707 93.6987C351.666 94.3167 353.753 93.2287 354.371 91.2677C354.989 89.3087 353.902 87.2177 351.943 86.6007ZM353.94 91.1307C353.397 92.8537 351.564 93.8087 349.842 93.2667C348.121 92.7247 347.166 90.8907 347.708 89.1677C348.25 87.4467 350.084 86.4917 351.807 87.0337C353.527 87.5757 354.483 89.4097 353.94 91.1307ZM353.184 82.6697C349.05 81.3677 344.647 83.6647 343.345 87.7927C342.044 91.9227 344.336 96.3287 348.469 97.6297C352.598 98.9307 357.003 96.6367 358.304 92.5057C359.606 88.3777 357.312 83.9697 353.184 82.6697ZM354.925 91.4407C354.212 93.7027 351.794 94.9637 349.533 94.2507C347.272 93.5377 346.012 91.1197 346.725 88.8577C347.438 86.5957 349.858 85.3367 352.118 86.0497C354.377 86.7617 355.637 89.1797 354.925 91.4407ZM354.372 91.2677C354.99 89.3087 353.903 87.2177 351.944 86.6007C349.983 85.9827 347.894 87.0717 347.276 89.0307C346.658 90.9937 347.747 93.0807 349.708 93.6987C351.667 94.3157 353.754 93.2287 354.372 91.2677ZM353.94 91.1307C353.397 92.8537 351.564 93.8087 349.842 93.2667C348.121 92.7247 347.166 90.8907 347.708 89.1677C348.25 87.4467 350.084 86.4917 351.807 87.0337C353.527 87.5757 354.483 89.4097 353.94 91.1307ZM351.943 86.6007C349.982 85.9827 347.893 87.0717 347.275 89.0307C346.657 90.9937 347.746 93.0807 349.707 93.6987C351.666 94.3167 353.753 93.2287 354.371 91.2677C354.989 89.3087 353.902 87.2177 351.943 86.6007ZM353.94 91.1307C353.397 92.8537 351.564 93.8087 349.842 93.2667C348.121 92.7247 347.166 90.8907 347.708 89.1677C348.25 87.4467 350.084 86.4917 351.807 87.0337C353.527 87.5757 354.483 89.4097 353.94 91.1307ZM351.943 86.6007C349.982 85.9827 347.893 87.0717 347.275 89.0307C346.657 90.9937 347.746 93.0807 349.707 93.6987C351.666 94.3167 353.753 93.2287 354.371 91.2677C354.989 89.3087 353.902 87.2177 351.943 86.6007ZM353.94 91.1307C353.397 92.8537 351.564 93.8087 349.842 93.2667C348.121 92.7247 347.166 90.8907 347.708 89.1677C348.25 87.4467 350.084 86.4917 351.807 87.0337C353.527 87.5757 354.483 89.4097 353.94 91.1307Z" fill="#263238"/>
<path d="M350.003 97.7717L347.127 96.8657L346.645 98.9517L349.203 99.7577L350.003 97.7717Z" fill="#263238"/>
<path d="M344.834 95.0778L343.441 92.4038L341.625 93.5368L342.864 95.9158L344.834 95.0778Z" fill="#263238"/>
<path d="M343.084 89.5177L343.991 86.6417L341.905 86.1597L341.099 88.7177L343.084 89.5177Z" fill="#263238"/>
<path d="M345.778 84.3486L348.453 82.9557L347.319 81.1396L344.94 82.3786L345.778 84.3486Z" fill="#263238"/>
<path d="M351.338 82.5988L354.214 83.5048L354.697 81.4188L352.139 80.6128L351.338 82.5988Z" fill="#263238"/>
<path d="M356.507 85.2926L357.9 87.9676L359.716 86.8336L358.477 84.4546L356.507 85.2926Z" fill="#263238"/>
<path d="M358.257 90.853L357.351 93.729L359.437 94.212L360.243 91.654L358.257 90.853Z" fill="#263238"/>
<path d="M355.563 96.022L352.889 97.415L354.022 99.231L356.401 97.992L355.563 96.022Z" fill="#263238"/>
<path d="M313.728 229.466C311.767 228.848 309.678 229.937 309.06 231.896C308.442 233.859 309.531 235.946 311.492 236.564C313.451 237.182 315.538 236.094 316.156 234.133C316.773 232.174 315.687 230.083 313.728 229.466ZM315.724 233.996C315.181 235.719 313.348 236.674 311.627 236.132C309.906 235.59 308.951 233.756 309.493 232.033C310.035 230.312 311.869 229.357 313.592 229.899C315.311 230.441 316.267 232.275 315.724 233.996ZM313.728 229.466C311.767 228.848 309.678 229.937 309.06 231.896C308.442 233.859 309.531 235.946 311.492 236.564C313.451 237.182 315.538 236.094 316.156 234.133C316.773 232.174 315.687 230.083 313.728 229.466ZM315.724 233.996C315.181 235.719 313.348 236.674 311.627 236.132C309.906 235.59 308.951 233.756 309.493 232.033C310.035 230.312 311.869 229.357 313.592 229.899C315.311 230.441 316.267 232.275 315.724 233.996ZM313.728 229.466C311.767 228.848 309.678 229.937 309.06 231.896C308.442 233.859 309.531 235.946 311.492 236.564C313.451 237.182 315.538 236.094 316.156 234.133C316.773 232.174 315.687 230.083 313.728 229.466ZM315.724 233.996C315.181 235.719 313.348 236.674 311.627 236.132C309.906 235.59 308.951 233.756 309.493 232.033C310.035 230.312 311.869 229.357 313.592 229.899C315.311 230.441 316.267 232.275 315.724 233.996ZM314.968 225.535C310.834 224.233 306.431 226.53 305.129 230.658C303.828 234.789 306.12 239.194 310.253 240.495C314.382 241.796 318.787 239.502 320.088 235.371C321.39 231.243 319.096 226.835 314.968 225.535ZM316.709 234.306C315.996 236.568 313.578 237.829 311.317 237.116C309.057 236.404 307.796 233.985 308.509 231.723C309.222 229.461 311.642 228.202 313.902 228.915C316.161 229.627 317.421 232.045 316.709 234.306ZM316.156 234.133C316.773 232.174 315.687 230.083 313.728 229.466C311.767 228.848 309.678 229.937 309.06 231.896C308.442 233.859 309.531 235.946 311.492 236.564C313.451 237.182 315.538 236.094 316.156 234.133ZM315.724 233.996C315.181 235.719 313.348 236.674 311.627 236.132C309.906 235.59 308.951 233.756 309.493 232.033C310.035 230.312 311.869 229.357 313.592 229.899C315.311 230.441 316.267 232.275 315.724 233.996ZM313.728 229.466C311.767 228.848 309.678 229.937 309.06 231.896C308.442 233.859 309.531 235.946 311.492 236.564C313.451 237.182 315.538 236.094 316.156 234.133C316.773 232.174 315.687 230.083 313.728 229.466ZM315.724 233.996C315.181 235.719 313.348 236.674 311.627 236.132C309.906 235.59 308.951 233.756 309.493 232.033C310.035 230.312 311.869 229.357 313.592 229.899C315.311 230.441 316.267 232.275 315.724 233.996ZM313.728 229.466C311.767 228.848 309.678 229.937 309.06 231.896C308.442 233.859 309.531 235.946 311.492 236.564C313.451 237.182 315.538 236.094 316.156 234.133C316.773 232.174 315.687 230.083 313.728 229.466ZM315.724 233.996C315.181 235.719 313.348 236.674 311.627 236.132C309.906 235.59 308.951 233.756 309.493 232.033C310.035 230.312 311.869 229.357 313.592 229.899C315.311 230.441 316.267 232.275 315.724 233.996Z" fill="#263238"/>
<path d="M311.787 240.637L308.911 239.731L308.429 241.817L310.987 242.623L311.787 240.637Z" fill="#263238"/>
<path d="M306.618 237.943L305.226 235.269L303.409 236.402L304.648 238.781L306.618 237.943Z" fill="#263238"/>
<path d="M304.868 232.383L305.775 229.507L303.689 229.025L302.883 231.583L304.868 232.383Z" fill="#263238"/>
<path d="M307.562 227.214L310.237 225.822L309.103 224.005L306.724 225.244L307.562 227.214Z" fill="#263238"/>
<path d="M313.122 225.464L315.998 226.371L316.481 224.285L313.923 223.479L313.122 225.464Z" fill="#263238"/>
<path d="M318.291 228.158L319.684 230.833L321.5 229.699L320.261 227.32L318.291 228.158Z" fill="#263238"/>
<path d="M320.041 233.718L319.135 236.594L321.221 237.077L322.027 234.519L320.041 233.718Z" fill="#263238"/>
<path d="M317.347 238.887L314.673 240.28L315.806 242.096L318.185 240.857L317.347 238.887Z" fill="#263238"/>
<path d="M84.2 111.235C85.742 104.907 81.861 98.5259 75.533 96.9839C69.203 95.4419 62.821 99.3229 61.279 105.651C59.737 111.981 63.618 118.363 69.948 119.905C76.277 121.446 82.658 117.565 84.2 111.235ZM78.092 109.747C77.371 112.705 74.393 114.517 71.437 113.796C68.479 113.075 66.667 110.097 67.388 107.139C68.108 104.183 71.087 102.372 74.045 103.093C77 103.813 78.812 106.791 78.092 109.747Z" fill="#263238"/>
<path d="M72.267 119.965L67.86 118.891L67.344 122.07L71.263 123.025L72.267 119.965Z" fill="#263238"/>
<path d="M64.241 116.437L61.884 112.561L59.271 114.444L61.367 117.891L64.241 116.437Z" fill="#263238"/>
<path d="M61.06 108.266L62.134 103.86L58.955 103.343L58 107.263L61.06 108.266Z" fill="#263238"/>
<path d="M64.589 100.24L68.464 97.883L66.582 95.27L63.135 97.367L64.589 100.24Z" fill="#263238"/>
<path d="M72.759 97.06L77.166 98.134L77.683 94.955L73.763 94L72.759 97.06Z" fill="#263238"/>
<path d="M80.785 100.588L83.142 104.464L85.755 102.581L83.659 99.1338L80.785 100.588Z" fill="#263238"/>
<path d="M83.966 108.759L82.892 113.166L86.071 113.682L87.026 109.762L83.966 108.759Z" fill="#263238"/>
<path d="M80.437 116.785L76.562 119.142L78.445 121.755L81.892 119.658L80.437 116.785Z" fill="#263238"/>
<path d="M69.068 110.608L72.605 112.545L76.05 110.447L75.957 106.418L72.422 104.482L68.975 106.576L69.068 110.608ZM72.815 107.271C73.503 107.438 73.922 108.128 73.754 108.816C73.587 109.501 72.897 109.923 72.209 109.755C71.524 109.588 71.103 108.895 71.27 108.21C71.438 107.523 72.13 107.104 72.815 107.271Z" fill="#263238"/>
</svg>
