<svg width="225" height="201" viewBox="0 0 225 201" fill="none" xmlns="http://www.w3.org/2000/svg">
<path fill-rule="evenodd" clip-rule="evenodd" d="M21.931 97.2012C15.1993 103.83 15.1162 114.661 21.7453 121.393C28.3744 128.125 39.2055 128.208 45.9372 121.579L67.4478 100.396L38.2359 133.311C32.8097 139.425 33.0502 148.698 38.786 154.522C44.8059 160.635 54.6415 160.711 60.7546 154.691L80.825 134.926L57.2806 162.21C52.2387 168.053 52.526 176.787 57.9409 182.286C63.6824 188.116 73.0632 188.188 78.8935 182.447L91.2643 170.264C90.4932 175.932 92.2626 181.884 96.5868 186.275C103.998 193.8 116.106 193.893 123.632 186.482L147.948 162.537L140.719 173.42C137.325 178.529 137.977 185.317 142.28 189.687C147.303 194.788 155.511 194.851 160.611 189.828L210.854 140.351C215.872 135.409 215.934 127.334 210.992 122.315C206.639 117.895 199.736 117.248 194.638 120.783L180.138 130.837L202.62 108.698C210.145 101.287 210.238 89.1787 202.827 81.653C198.503 77.262 192.58 75.4013 186.9 76.0853L200.112 63.0748C205.949 57.3268 206.021 47.9354 200.273 42.0985C194.862 36.6032 186.142 36.172 180.214 41.1067L153.574 63.2854L180.957 36.3193C187.073 30.2973 187.148 20.4581 181.126 14.3429C175.391 8.51946 166.126 8.13336 159.927 13.4595L127.02 41.731L131.655 37.1666C138.387 30.5375 138.47 19.7064 131.841 12.9747C125.212 6.24306 114.381 6.15994 107.649 12.7891L67.4233 52.402L74.3042 43.579C79.1942 37.309 78.6789 28.3856 73.0997 22.7201C66.9605 16.4859 56.9298 16.4089 50.6956 22.5482L12.7432 59.9223C6.55651 66.0148 6.4801 75.969 12.5725 82.1557C18.1772 87.8471 27.1588 88.4312 33.4534 83.5137L44.953 74.5299L21.931 97.2012Z" fill="#E6E6E6"/>
<path d="M55.6582 175.26H176.08" stroke="#313131" stroke-width="2" stroke-linecap="round"/>
<path d="M180.516 175.26H186.826" stroke="#313131" stroke-width="2" stroke-linecap="round"/>
<path d="M164.141 169.119H170.11" stroke="#313131" stroke-width="2" stroke-linecap="round"/>
<path d="M159.535 169.29H72.2031" stroke="#313131" stroke-width="2" stroke-linecap="round"/>
<path d="M67.7686 169.119H61.7988" stroke="#313131" stroke-width="2" stroke-linecap="round"/>
<path d="M51.0527 175.26H44.4004" stroke="#313131" stroke-width="2" stroke-linecap="round"/>
<circle cx="193.625" cy="134.666" r="3.52391" fill="#F6A76E"/>
<circle cx="156.89" cy="7.46321" r="5.22395" fill="#F6A76E"/>
<circle cx="29.4961" cy="106.902" r="6.18948" fill="#F6A76E"/>
<path d="M219.063 137.316C219.543 138.056 220.408 138.618 221.177 139.005C220.335 139.024 219.338 139.167 218.582 139.652C217.726 140.201 216.965 141.33 216.432 142.274C216.321 142.47 216.218 142.662 216.125 142.841C216.118 142.642 216.107 142.429 216.089 142.208C216.004 141.131 215.766 139.784 215.113 138.917C214.642 138.292 213.861 137.797 213.135 137.436C213.945 137.425 214.866 137.293 215.558 136.839C215.975 136.565 216.369 136.137 216.72 135.668C217.074 135.195 217.397 134.665 217.67 134.17C217.822 133.895 217.96 133.629 218.079 133.39C218.099 133.629 218.126 133.892 218.161 134.167C218.228 134.703 218.326 135.29 218.469 135.84C218.611 136.385 218.802 136.913 219.063 137.316Z" stroke="#F56206" stroke-width="0.585896"/>
<path d="M14.7682 151.785C15.2476 152.525 16.1135 153.087 16.882 153.474C16.0403 153.493 15.043 153.636 14.2866 154.121C13.4307 154.67 12.6705 155.799 12.137 156.742C12.0258 156.939 11.923 157.13 11.83 157.31C11.8231 157.111 11.8117 156.898 11.7941 156.677C11.7086 155.6 11.4709 154.252 10.8177 153.386C10.3468 152.761 9.56573 152.266 8.84051 151.905C9.65003 151.894 10.571 151.762 11.2634 151.308C11.6805 151.034 12.0739 150.605 12.425 150.137C12.7786 149.664 13.1022 149.133 13.3754 148.639C13.5275 148.364 13.6648 148.098 13.7837 147.858C13.8043 148.097 13.831 148.36 13.8657 148.636C13.9331 149.172 14.0311 149.759 14.1739 150.308C14.3158 150.854 14.5066 151.381 14.7682 151.785Z" stroke="#F56206" stroke-width="0.585896"/>
<path d="M54.7975 7.07221C55.2769 7.8123 56.1428 8.37375 56.9113 8.76107C56.0696 8.78011 55.0723 8.92265 54.3159 9.40787C53.46 9.95695 52.6997 11.0857 52.1663 12.0294C52.0551 12.2262 51.9523 12.4175 51.8593 12.5972C51.8524 12.3982 51.841 12.1852 51.8234 11.9637C51.7379 10.8867 51.5002 9.53949 50.847 8.67297C50.3761 8.04824 49.595 7.553 48.8698 7.19173C49.6793 7.18107 50.6003 7.04863 51.2927 6.59473C51.7098 6.32135 52.1032 5.89259 52.4543 5.42366C52.8079 4.95126 53.1315 4.42046 53.4047 3.92597C53.5568 3.65067 53.6941 3.38524 53.813 3.1455C53.8336 3.38439 53.8603 3.64752 53.895 3.92307C53.9624 4.45871 54.0604 5.04591 54.2032 5.59539C54.3451 6.14109 54.5359 6.66839 54.7975 7.07221Z" stroke="#F56206" stroke-width="0.585896"/>
<path d="M10.1705 43.9384C10.6499 44.6785 11.5159 45.24 12.2843 45.6273C11.4426 45.6463 10.4453 45.7889 9.68898 46.2741C8.83309 46.8232 8.07279 47.9519 7.53933 48.8956C7.4281 49.0924 7.32536 49.2837 7.23232 49.4634C7.22542 49.2644 7.21407 49.0514 7.19648 48.8299C7.11093 47.7529 6.87326 46.4057 6.22006 45.5392C5.74915 44.9145 4.96807 44.4192 4.24286 44.0579C5.05238 44.0473 5.97333 43.9148 6.66577 43.4609C7.08283 43.1876 7.47627 42.7588 7.82733 42.2899C8.18099 41.8175 8.50455 41.2867 8.77778 40.7922C8.92989 40.5169 9.06716 40.2515 9.18608 40.0117C9.20664 40.2506 9.23336 40.5137 9.26802 40.7893C9.33541 41.3249 9.4334 41.9121 9.57626 42.4616C9.71814 43.0073 9.90894 43.5346 10.1705 43.9384Z" stroke="#F56206" stroke-width="0.585896"/>
<path d="M118.159 192.608C118.638 193.348 119.504 193.91 120.273 194.297C119.431 194.316 118.434 194.459 117.677 194.944C116.821 195.493 116.061 196.622 115.528 197.566C115.416 197.762 115.314 197.954 115.221 198.133C115.214 197.934 115.202 197.721 115.185 197.5C115.099 196.423 114.862 195.076 114.208 194.209C113.737 193.584 112.956 193.089 112.231 192.728C113.041 192.717 113.962 192.585 114.654 192.131C115.071 191.857 115.465 191.429 115.816 190.96C116.169 190.487 116.493 189.957 116.766 189.462C116.918 189.187 117.055 188.921 117.174 188.682C117.195 188.921 117.222 189.184 117.256 189.459C117.324 189.995 117.422 190.582 117.565 191.132C117.706 191.677 117.897 192.205 118.159 192.608Z" stroke="#F56206" stroke-width="0.585896"/>
<circle cx="170.111" cy="37.5774" r="2.1558" stroke="#F56206" stroke-width="0.831544"/>
<circle cx="38.2571" cy="65.7981" r="2.1558" stroke="#F56206" stroke-width="0.831544"/>
<g filter="url(#filter0_d_113_214)">
<circle cx="111.355" cy="100.711" r="58.4414" fill="white"/>
<circle cx="111.355" cy="100.711" r="57.4414" stroke="#313131" stroke-width="2"/>
</g>
<g filter="url(#filter1_d_113_214)">
<circle cx="111.356" cy="100.712" r="67.4053" stroke="#313131" stroke-width="2" shape-rendering="crispEdges"/>
</g>
<g filter="url(#filter2_d_113_214)">
<mask id="path-21-outside-1_113_214" maskUnits="userSpaceOnUse" x="79.1113" y="72.0059" width="65" height="65" fill="black">
<rect fill="white" x="79.1113" y="72.0059" width="65" height="65"/>
<path fill-rule="evenodd" clip-rule="evenodd" d="M82.9722 123.67C80.4969 126.145 80.4969 130.158 82.9722 132.634C85.4475 135.109 89.4608 135.109 91.9361 132.634L111.355 113.214L130.775 132.634C133.251 135.11 137.264 135.11 139.739 132.634C142.214 130.159 142.214 126.146 139.739 123.67L120.319 104.251L139.744 84.8262C142.219 82.3509 142.219 78.3377 139.744 75.8623C137.268 73.387 133.255 73.387 130.78 75.8623L111.355 95.2866L91.9317 75.863C89.4564 73.3877 85.4431 73.3877 82.9678 75.863C80.4925 78.3383 80.4925 82.3516 82.9678 84.8269L102.391 104.251L82.9722 123.67Z"/>
</mask>
<path fill-rule="evenodd" clip-rule="evenodd" d="M82.9722 123.67C80.4969 126.145 80.4969 130.158 82.9722 132.634C85.4475 135.109 89.4608 135.109 91.9361 132.634L111.355 113.214L130.775 132.634C133.251 135.11 137.264 135.11 139.739 132.634C142.214 130.159 142.214 126.146 139.739 123.67L120.319 104.251L139.744 84.8262C142.219 82.3509 142.219 78.3377 139.744 75.8623C137.268 73.387 133.255 73.387 130.78 75.8623L111.355 95.2866L91.9317 75.863C89.4564 73.3877 85.4431 73.3877 82.9678 75.863C80.4925 78.3383 80.4925 82.3516 82.9678 84.8269L102.391 104.251L82.9722 123.67Z" fill="#F56206"/>
<path d="M82.9722 132.634L81.558 134.048H81.558L82.9722 132.634ZM82.9722 123.67L81.558 122.256H81.558L82.9722 123.67ZM91.9361 132.634L90.5219 131.219L91.9361 132.634ZM111.355 113.214L112.77 111.8C112.394 111.425 111.886 111.214 111.355 111.214C110.825 111.214 110.316 111.425 109.941 111.8L111.355 113.214ZM130.775 132.634L129.361 134.049L130.775 132.634ZM120.319 104.251L118.905 102.836C118.53 103.211 118.319 103.72 118.319 104.251C118.319 104.781 118.53 105.29 118.905 105.665L120.319 104.251ZM139.744 84.8262L138.329 83.412L139.744 84.8262ZM139.744 75.8623L138.329 77.2766V77.2766L139.744 75.8623ZM130.78 75.8623L129.365 74.4481V74.4481L130.78 75.8623ZM111.355 95.2866L109.941 96.7009C110.722 97.4819 111.988 97.4819 112.77 96.7009L111.355 95.2866ZM91.9317 75.863L90.5175 77.2772V77.2772L91.9317 75.863ZM82.9678 75.863L84.382 77.2772L82.9678 75.863ZM82.9678 84.8269L81.5536 86.2411H81.5536L82.9678 84.8269ZM102.391 104.251L103.806 105.665C104.587 104.884 104.587 103.617 103.806 102.836L102.391 104.251ZM84.3864 131.219C82.6922 129.525 82.6922 126.778 84.3864 125.084L81.558 122.256C78.3016 125.512 78.3016 130.792 81.558 134.048L84.3864 131.219ZM90.5219 131.219C88.8276 132.914 86.0807 132.914 84.3864 131.219L81.558 134.048C84.8143 137.304 90.094 137.304 93.3503 134.048L90.5219 131.219ZM109.941 111.8L90.5219 131.219L93.3503 134.048L112.77 114.629L109.941 111.8ZM132.189 131.22L112.77 111.8L109.941 114.629L129.361 134.049L132.189 131.22ZM138.325 131.22C136.631 132.914 133.884 132.914 132.189 131.22L129.361 134.049C132.617 137.305 137.897 137.305 141.153 134.049L138.325 131.22ZM138.325 125.085C140.019 126.779 140.019 129.526 138.325 131.22L141.153 134.049C144.41 130.792 144.41 125.513 141.153 122.256L138.325 125.085ZM118.905 105.665L138.325 125.085L141.153 122.256L121.733 102.836L118.905 105.665ZM138.329 83.412L118.905 102.836L121.733 105.665L141.158 86.2404L138.329 83.412ZM138.329 77.2766C140.024 78.9708 140.024 81.7178 138.329 83.412L141.158 86.2404C144.414 82.9841 144.414 77.7045 141.158 74.4481L138.329 77.2766ZM132.194 77.2766C133.888 75.5823 136.635 75.5823 138.329 77.2766L141.158 74.4481C137.901 71.1918 132.622 71.1918 129.365 74.4481L132.194 77.2766ZM112.77 96.7009L132.194 77.2766L129.365 74.4481L109.941 93.8724L112.77 96.7009ZM90.5175 77.2772L109.941 96.7009L112.77 93.8724L93.3459 74.4488L90.5175 77.2772ZM84.382 77.2772C86.0763 75.583 88.8232 75.583 90.5175 77.2772L93.3459 74.4488C90.0896 71.1925 84.81 71.1925 81.5536 74.4488L84.382 77.2772ZM84.382 83.4127C82.6878 81.7184 82.6878 78.9715 84.382 77.2772L81.5536 74.4488C78.2972 77.7052 78.2972 82.9848 81.5536 86.2411L84.382 83.4127ZM103.806 102.836L84.382 83.4127L81.5536 86.2411L100.977 105.665L103.806 102.836ZM84.3864 125.084L103.806 105.665L100.977 102.836L81.558 122.256L84.3864 125.084Z" fill="#313131" mask="url(#path-21-outside-1_113_214)"/>
</g>
<defs>
<filter id="filter0_d_113_214" x="52.9141" y="42.2695" width="119.883" height="118.883" filterUnits="userSpaceOnUse" color-interpolation-filters="sRGB">
<feFlood flood-opacity="0" result="BackgroundImageFix"/>
<feColorMatrix in="SourceAlpha" type="matrix" values="0 0 0 0 0 0 0 0 0 0 0 0 0 0 0 0 0 0 127 0" result="hardAlpha"/>
<feOffset dx="2" dy="1"/>
<feGaussianBlur stdDeviation="0.5"/>
<feComposite in2="hardAlpha" operator="out"/>
<feColorMatrix type="matrix" values="0 0 0 0 0 0 0 0 0 0 0 0 0 0 0 0 0 0 0.25 0"/>
<feBlend mode="normal" in2="BackgroundImageFix" result="effect1_dropShadow_113_214"/>
<feBlend mode="normal" in="SourceGraphic" in2="effect1_dropShadow_113_214" result="shape"/>
</filter>
<filter id="filter1_d_113_214" x="42.9512" y="32.3066" width="139.811" height="138.811" filterUnits="userSpaceOnUse" color-interpolation-filters="sRGB">
<feFlood flood-opacity="0" result="BackgroundImageFix"/>
<feColorMatrix in="SourceAlpha" type="matrix" values="0 0 0 0 0 0 0 0 0 0 0 0 0 0 0 0 0 0 127 0" result="hardAlpha"/>
<feOffset dx="2" dy="1"/>
<feGaussianBlur stdDeviation="0.5"/>
<feComposite in2="hardAlpha" operator="out"/>
<feColorMatrix type="matrix" values="0 0 0 0 0 0 0 0 0 0 0 0 0 0 0 0 0 0 0.25 0"/>
<feBlend mode="normal" in2="BackgroundImageFix" result="effect1_dropShadow_113_214"/>
<feBlend mode="normal" in="SourceGraphic" in2="effect1_dropShadow_113_214" result="shape"/>
</filter>
<filter id="filter2_d_113_214" x="79.1113" y="72.0059" width="68.4883" height="66.4854" filterUnits="userSpaceOnUse" color-interpolation-filters="sRGB">
<feFlood flood-opacity="0" result="BackgroundImageFix"/>
<feColorMatrix in="SourceAlpha" type="matrix" values="0 0 0 0 0 0 0 0 0 0 0 0 0 0 0 0 0 0 127 0" result="hardAlpha"/>
<feOffset dx="3" dy="1"/>
<feGaussianBlur stdDeviation="0.5"/>
<feComposite in2="hardAlpha" operator="out"/>
<feColorMatrix type="matrix" values="0 0 0 0 0.203922 0 0 0 0 0.203922 0 0 0 0 0.203922 0 0 0 0.25 0"/>
<feBlend mode="normal" in2="BackgroundImageFix" result="effect1_dropShadow_113_214"/>
<feBlend mode="normal" in="SourceGraphic" in2="effect1_dropShadow_113_214" result="shape"/>
</filter>
</defs>
</svg>
