<svg width="200" height="200" viewBox="0 0 200 200" fill="none" xmlns="http://www.w3.org/2000/svg">
<g clip-path="url(#clip0_48_2083)">
<path d="M100 0C113.542 0 126.449 2.70182 138.249 7.58464L138.428 7.66602C150.586 12.7279 161.54 20.1335 170.703 29.3132C179.915 38.5091 187.337 49.528 192.415 61.7839C197.314 73.5677 200 86.4909 200 100.016C200 113.558 197.298 126.465 192.415 138.265L192.334 138.444C187.256 150.602 179.867 161.556 170.687 170.719C161.491 179.932 150.472 187.354 138.216 192.432C126.432 197.331 113.509 200.016 99.9837 200.016C86.4583 200.016 73.5352 197.314 61.735 192.432L61.556 192.35C49.3978 187.288 38.444 179.883 29.2806 170.719L29.2969 170.687C20.0846 161.475 12.6628 150.472 7.58464 138.249C2.70182 126.449 0 113.542 0 100C0 86.4583 2.70182 73.5514 7.58464 61.7513L7.66602 61.5723C12.7279 49.4141 20.1335 38.4603 29.2969 29.2969H29.3132C38.5254 20.0846 49.528 12.6628 61.7676 7.58464C73.5514 2.70182 86.4583 0 100 0ZM27.653 153.76L28.0436 153.532C37.6465 148.177 62.6465 146.403 73.0306 139.16C73.7956 138.021 74.6094 136.361 75.4069 134.554C76.5951 131.836 77.6856 128.857 78.3691 126.839C75.472 123.421 72.9818 119.564 70.6055 115.771L62.7441 103.255C59.8796 98.9583 58.3822 95.0521 58.2845 91.8294C58.2357 90.3158 58.4961 88.9486 59.0658 87.7279C59.6517 86.4583 60.5469 85.4004 61.7676 84.5866C62.3372 84.196 62.972 83.8704 63.6719 83.6263C63.151 76.8392 62.972 68.2943 63.2975 61.1328C63.4603 59.4401 63.8021 57.7311 64.2578 56.0384C66.276 48.8607 71.3053 43.0827 77.5391 39.1113C80.9733 36.9141 84.7494 35.2702 88.6719 34.1634C91.1784 33.4473 86.5397 25.472 89.1276 25.1953C101.611 23.9095 121.81 35.319 130.534 44.7428C134.896 49.4629 137.646 55.7292 138.232 64.0137L137.744 84.4238C139.925 85.0911 141.325 86.4746 141.878 88.7044C142.513 91.1947 141.829 94.6777 139.714 99.4466C139.681 99.528 139.632 99.6257 139.583 99.707L130.615 114.469C127.327 119.889 123.975 125.342 119.629 129.622C120.036 130.208 120.443 130.778 120.833 131.348C122.607 133.952 124.398 136.556 126.693 138.883C126.774 138.965 126.839 139.046 126.888 139.128C137.207 146.419 162.321 148.193 171.956 153.564L172.347 153.792C183.529 138.786 190.137 120.182 190.137 100.033C190.137 75.1465 180.046 52.6042 163.737 36.3118C147.461 19.987 124.919 9.89583 100.033 9.89583C75.1465 9.89583 52.6042 19.987 36.3118 36.2956C19.9707 52.5716 9.87956 75.1139 9.87956 100C9.87956 120.15 16.4876 138.753 27.653 153.76Z" fill="black"/>
</g>
<defs>
<clipPath id="clip0_48_2083">
<rect width="200" height="200" fill="white"/>
</clipPath>
</defs>
</svg>
