<svg width="164" height="166" viewBox="0 0 164 166" fill="none" xmlns="http://www.w3.org/2000/svg">
<path d="M99.8067 54.4953C99.8045 54.4931 99.8023 54.4586 99.8001 54.3929C99.7984 54.3177 99.7962 54.2227 99.7931 54.1042C99.7892 53.8391 99.7839 53.4698 99.7774 52.996C99.7686 52.0238 99.7563 50.6264 99.741 48.8642L99.8072 48.9302C94.9394 48.9399 87.1979 48.9556 78.4894 48.9727C78.5376 48.9245 78.3799 49.0807 78.5968 48.8646V48.8659V48.869V48.8747V48.886V48.9088V48.9543V49.0449V49.226V49.5869C78.5968 49.8271 78.5968 50.0664 78.5968 50.3053C78.5968 50.7826 78.5963 51.2565 78.5963 51.7263C78.5959 52.6661 78.595 53.5905 78.5946 54.4962L78.4886 54.3903C84.5592 54.4096 89.8709 54.4266 93.6809 54.4384C95.5787 54.4511 97.1014 54.4616 98.1653 54.4686C98.6828 54.4748 99.0877 54.4791 99.3777 54.4826C99.5083 54.4857 99.6126 54.4879 99.695 54.4896C99.7664 54.4909 99.8041 54.4931 99.8067 54.4953C99.8089 54.4975 99.7756 54.4997 99.7081 54.5023C99.6293 54.5041 99.5293 54.5063 99.404 54.5093C99.1196 54.5128 98.7218 54.5172 98.2144 54.5233C97.1566 54.5303 95.6418 54.5408 93.7545 54.5535C89.9261 54.5658 84.5881 54.5824 78.4881 54.6016L78.3821 54.6021V54.4957C78.3816 53.5901 78.3808 52.6657 78.3803 51.7259C78.3803 51.256 78.3799 50.7822 78.3799 50.3049C78.3799 50.0664 78.3799 49.8267 78.3799 49.5865V49.2255V49.0444V48.9539V48.9084V48.8856V48.8742V48.8685V48.8655V48.8642C78.5972 48.6472 78.4408 48.8042 78.4899 48.7557C87.1984 48.7732 94.9398 48.7885 99.8076 48.7981H99.8742L99.8738 48.8642C99.858 50.6431 99.8457 52.0536 99.8374 53.0349C99.8304 53.5022 99.8251 53.8671 99.8212 54.1282C99.8185 54.242 99.8159 54.333 99.8142 54.4056C99.8111 54.4673 99.8089 54.4975 99.8067 54.4953Z" fill="#E0E0E0"/>
<path d="M45.2419 72.902H23.9229V78.5332H45.2419V72.902Z" fill="#F5F5F5"/>
<path d="M36.2257 84.2829C36.2235 84.2807 36.2213 84.2461 36.2191 84.1805C36.2173 84.1053 36.2151 84.0103 36.2121 83.8918C36.2081 83.6266 36.2029 83.2574 36.1963 82.7836C36.1875 81.8114 36.1753 80.414 36.1599 78.6518L36.2261 78.7178C31.3583 78.7274 23.6169 78.7428 14.9084 78.7603C14.9566 78.7121 14.7988 78.8683 15.0157 78.6522V78.6535V78.6566V78.6623V78.6736V78.6964V78.7419V78.8324V79.0136V79.3745C15.0157 79.6147 15.0157 79.8545 15.0157 80.0929C15.0157 80.5702 15.0153 81.044 15.0153 81.5139C15.0149 82.4537 15.014 83.3781 15.0135 84.2838L14.9075 84.1779C20.9781 84.1971 26.2898 84.2138 30.0998 84.226C31.9976 84.2387 33.5203 84.2492 34.5842 84.2562C35.1017 84.2623 35.507 84.2667 35.7967 84.2702C35.9273 84.2733 36.0315 84.2755 36.1139 84.2772C36.1854 84.2785 36.2235 84.2807 36.2257 84.2829C36.2279 84.2851 36.1946 84.2873 36.1271 84.2899C36.0482 84.2916 35.9483 84.2938 35.823 84.2969C35.5386 84.3004 35.1407 84.3048 34.6333 84.3109C33.5755 84.3179 32.0607 84.3284 30.1734 84.3411C26.345 84.3533 21.007 84.37 14.9071 84.3892L14.801 84.3896V84.2833C14.8006 83.3777 14.7997 82.4532 14.7993 81.5135C14.7993 81.0436 14.7988 80.5698 14.7988 80.0925C14.7988 79.854 14.7988 79.6143 14.7988 79.3741V79.0131V78.832V78.7414V78.6959V78.6732V78.6618V78.6561V78.6531V78.6518C15.0162 78.4348 14.8597 78.5918 14.9088 78.5433C23.6173 78.5608 31.3587 78.5761 36.2265 78.5857H36.2931L36.2927 78.6518C36.2769 80.4307 36.2647 81.8412 36.2563 82.8225C36.2493 83.2898 36.2441 83.6546 36.2401 83.9158C36.2375 84.0296 36.2349 84.1206 36.2331 84.1932C36.23 84.2549 36.2279 84.2851 36.2257 84.2829Z" fill="#E0E0E0"/>
<path d="M160.048 18.3949C160.046 18.3927 160.044 18.3582 160.041 18.2926C160.04 18.2173 160.037 18.1224 160.034 18.0038C160.03 17.7387 160.025 17.3694 160.018 16.8956C160.009 15.9235 159.997 14.5261 159.982 12.7638L160.048 12.8299C155.18 12.8395 147.439 12.8548 138.73 12.8723C138.778 12.8242 138.621 12.9804 138.838 12.7638V12.7651V12.7682V12.7739V12.7852V12.808V12.8535V12.944V13.1252V13.4861C138.838 13.7263 138.838 13.9661 138.838 14.2045C138.838 14.6818 138.837 15.1556 138.837 15.6255C138.837 16.5653 138.836 17.4897 138.835 18.3954L138.729 18.2895C144.8 18.3087 150.112 18.3258 153.922 18.3376C155.819 18.3503 157.342 18.3608 158.406 18.3678C158.924 18.3739 159.328 18.3783 159.619 18.3818C159.749 18.3844 159.853 18.3866 159.936 18.3888C160.008 18.3901 160.046 18.3923 160.048 18.3949C160.05 18.3971 160.017 18.3997 159.949 18.4019C159.87 18.4037 159.771 18.4059 159.645 18.4089C159.361 18.4124 158.963 18.4168 158.456 18.4229C157.398 18.4299 155.883 18.4404 153.996 18.4531C150.167 18.4654 144.829 18.482 138.729 18.5012L138.623 18.5017V18.3954C138.623 17.4897 138.622 16.5653 138.622 15.6255C138.622 15.1556 138.621 14.6818 138.621 14.2045C138.621 13.9661 138.621 13.7263 138.621 13.4861V13.1252V12.944V12.8535V12.808V12.7852V12.7739V12.7682V12.7651V12.7638C138.838 12.5468 138.682 12.7034 138.731 12.6553C147.44 12.6728 155.181 12.6881 160.049 12.6977H160.115L160.115 12.7638C160.099 14.5427 160.087 15.9532 160.079 16.935C160.072 17.4022 160.066 17.7667 160.062 18.0283C160.059 18.1421 160.057 18.2331 160.055 18.3057C160.052 18.3669 160.05 18.3971 160.048 18.3949Z" fill="#E0E0E0"/>
<path d="M162.939 12.7638C162.937 12.7612 162.934 12.7248 162.931 12.6566C162.929 12.5757 162.926 12.4777 162.923 12.3582C162.918 12.0813 162.911 11.7046 162.903 11.229C162.893 10.2416 162.879 8.84723 162.861 7.13264L162.939 7.21052C159.621 7.21839 155.107 7.22933 150.131 7.24114C150.034 7.33783 150.262 7.10902 150.239 7.13308V7.13439V7.13746V7.14314V7.15496V7.17814V7.22452V7.31683V7.50146V7.86984C150.239 8.11441 150.239 8.3581 150.239 8.60004C150.238 9.08392 150.238 9.56212 150.238 10.0333C150.236 10.9753 150.235 11.8888 150.234 12.7638L150.13 12.6605C153.828 12.6802 157.012 12.6973 159.293 12.7095C160.419 12.7218 161.32 12.731 161.962 12.738C162.262 12.7432 162.501 12.7476 162.682 12.7511C162.847 12.755 162.935 12.7594 162.939 12.7638C162.944 12.7682 162.864 12.7721 162.707 12.7765C162.531 12.7795 162.299 12.7839 162.008 12.7896C161.372 12.7966 160.478 12.8062 159.362 12.818C157.063 12.8303 153.856 12.8474 150.13 12.867L150.027 12.8675V12.7638C150.025 11.8888 150.024 10.9753 150.023 10.0333C150.022 9.56212 150.022 9.08392 150.022 8.60004C150.022 8.3581 150.022 8.11441 150.021 7.86984V7.50146V7.31683V7.22452V7.17814V7.15496V7.14314V7.13746V7.13439V7.13308C149.998 7.15583 150.227 6.92702 150.131 7.02414C155.106 7.03595 159.621 7.04689 162.939 7.05477H163.018L163.017 7.13264C162.999 8.86736 162.985 10.2779 162.975 11.2767C162.967 11.7448 162.96 12.1154 162.956 12.3884C162.95 12.64 162.945 12.769 162.939 12.7638Z" fill="#E0E0E0"/>
<path d="M156.849 165.132C156.847 165.13 156.844 165.095 156.842 165.03C156.84 164.954 156.838 164.859 156.835 164.741C156.831 164.476 156.826 164.106 156.819 163.633C156.81 162.66 156.798 161.263 156.783 159.501L156.849 159.567C151.981 159.576 144.239 159.592 135.531 159.609C135.579 159.561 135.421 159.717 135.638 159.501V159.502V159.505V159.511V159.522V159.545V159.59V159.681V159.862V160.223C135.638 160.463 135.638 160.703 135.638 160.941C135.638 161.419 135.638 161.893 135.638 162.362C135.637 163.302 135.637 164.227 135.636 165.132L135.53 165.026C141.601 165.046 146.913 165.063 150.722 165.075C152.62 165.087 154.143 165.098 155.207 165.105C155.724 165.111 156.129 165.115 156.419 165.119C156.55 165.121 156.654 165.124 156.737 165.126C156.808 165.128 156.847 165.13 156.849 165.132C156.851 165.134 156.818 165.136 156.75 165.139C156.671 165.141 156.571 165.143 156.446 165.146C156.162 165.149 155.764 165.154 155.256 165.16C154.199 165.167 152.684 165.177 150.796 165.19C146.968 165.202 141.63 165.219 135.53 165.238L135.424 165.239V165.132C135.424 164.227 135.423 163.302 135.422 162.362C135.422 161.893 135.422 161.419 135.422 160.941C135.422 160.703 135.422 160.463 135.422 160.223V159.862V159.681V159.59V159.545V159.522V159.511V159.505V159.502V159.501C135.639 159.284 135.483 159.44 135.532 159.392C144.24 159.41 151.982 159.425 156.85 159.435H156.916L156.916 159.501C156.9 161.28 156.888 162.69 156.879 163.672C156.872 164.139 156.867 164.504 156.863 164.765C156.86 164.879 156.858 164.97 156.856 165.043C156.853 165.104 156.851 165.134 156.849 165.132Z" fill="#E0E0E0"/>
<path d="M159.738 159.501C159.736 159.498 159.733 159.462 159.73 159.394C159.728 159.313 159.725 159.215 159.722 159.095C159.717 158.818 159.71 158.442 159.702 157.966C159.692 156.979 159.678 155.584 159.66 153.87L159.738 153.947C156.42 153.955 151.906 153.966 146.93 153.978C146.832 154.075 147.061 153.846 147.038 153.87V153.871V153.874V153.88V153.891V153.915V153.961V154.053V154.238V154.606C147.038 154.851 147.038 155.094 147.037 155.336C147.037 155.82 147.037 156.298 147.037 156.769C147.035 157.711 147.034 158.625 147.033 159.5L146.929 159.397C150.627 159.416 153.81 159.433 156.092 159.446C157.217 159.457 158.119 159.467 158.761 159.474C159.061 159.479 159.3 159.484 159.481 159.487C159.646 159.492 159.734 159.497 159.738 159.501C159.743 159.505 159.663 159.509 159.506 159.513C159.33 159.516 159.098 159.521 158.807 159.527C158.171 159.534 157.277 159.543 156.161 159.555C153.862 159.567 150.655 159.584 146.929 159.604L146.825 159.604V159.501C146.824 158.626 146.823 157.712 146.821 156.77C146.821 156.299 146.821 155.821 146.821 155.337C146.821 155.095 146.821 154.851 146.82 154.607V154.239V154.054V153.962V153.916V153.892V153.881V153.875V153.872V153.871C146.796 153.894 147.026 153.665 146.93 153.762C151.905 153.774 156.419 153.785 159.738 153.793H159.817L159.816 153.87C159.798 155.605 159.784 157.016 159.774 158.015C159.765 158.483 159.759 158.853 159.754 159.126C159.749 159.377 159.744 159.506 159.738 159.501Z" fill="#E0E0E0"/>
<path d="M21.4268 25.1833C21.4246 25.1811 21.4225 25.1465 21.4203 25.0809C21.4185 25.0056 21.4163 24.9107 21.4133 24.7921C21.4093 24.527 21.404 24.1578 21.397 23.6839C21.3883 22.7118 21.376 21.3144 21.3607 19.5521L21.4268 19.6182C16.559 19.6278 8.81761 19.6436 0.109108 19.6606C0.157309 19.6125 -0.000436743 19.7687 0.216465 19.5526V19.5539V19.5569V19.5626V19.574V19.5968V19.6423V19.7328V19.9139V20.2749C0.216465 20.5151 0.216465 20.7544 0.216465 20.9933C0.216465 21.4706 0.216027 21.9444 0.216027 22.4143C0.215589 23.3541 0.21471 24.2785 0.214272 25.1841L0.108233 25.0783C6.17885 25.0975 11.491 25.1141 15.3006 25.1264C17.1983 25.1391 18.721 25.1496 19.785 25.1566C20.3025 25.1627 20.7073 25.1671 20.9974 25.1706C21.128 25.1736 21.2323 25.1758 21.3147 25.1776C21.3865 25.1785 21.4246 25.1806 21.4268 25.1833C21.429 25.1855 21.3957 25.1876 21.3282 25.1903C21.2494 25.192 21.1495 25.1942 21.0241 25.1973C20.7398 25.2008 20.3423 25.2051 19.8345 25.2113C18.7767 25.2183 17.2619 25.2288 15.3746 25.2415C11.5462 25.2537 6.20821 25.2703 0.108233 25.2896L0.00219307 25.29V25.1837C0.00175488 24.2781 0.00087613 23.3536 0.000437945 22.4139C0.000437945 21.944 0 21.4702 0 20.9928C0 20.7544 0 20.5146 0 20.2744V19.9135V19.7319V19.6414V19.5959V19.5731V19.5618V19.5561V19.553V19.5517C0.21734 19.3347 0.0609075 19.4917 0.109984 19.4432C8.81848 19.4607 16.5599 19.476 21.4277 19.4856H21.4943L21.4939 19.5517C21.4781 21.3306 21.4658 22.7411 21.4575 23.7229C21.4505 24.1901 21.4452 24.555 21.4413 24.8162C21.4387 24.93 21.436 25.021 21.4343 25.0936C21.4312 25.1553 21.429 25.1855 21.4268 25.1833Z" fill="#E0E0E0"/>
<path d="M159.271 95.2381C159.268 95.2359 159.266 95.2014 159.264 95.1357C159.262 95.0605 159.26 94.9655 159.257 94.847C159.253 94.5818 159.248 94.2126 159.241 93.7388C159.232 92.7666 159.22 91.3692 159.205 89.607L159.271 89.673C154.403 89.6826 146.662 89.6984 137.953 89.7155C138.001 89.6673 137.844 89.8235 138.061 89.6074V89.6087V89.6118V89.6175V89.6288V89.6516V89.6971V89.7876V89.9688V90.3297C138.061 90.5699 138.061 90.8092 138.061 91.0481C138.061 91.5254 138.06 91.9992 138.06 92.4691C138.06 93.4089 138.059 94.3333 138.058 95.239L137.952 95.1331C144.023 95.1524 149.335 95.169 153.145 95.1812C155.043 95.1939 156.565 95.2044 157.629 95.2114C158.147 95.2175 158.552 95.2219 158.842 95.2254C158.972 95.2285 159.076 95.2307 159.159 95.2324C159.23 95.2337 159.268 95.2359 159.271 95.2381C159.273 95.2403 159.239 95.2425 159.172 95.2451C159.093 95.2469 158.993 95.249 158.868 95.2521C158.584 95.2556 158.186 95.26 157.678 95.2661C156.62 95.2731 155.106 95.2836 153.218 95.2963C149.39 95.3085 144.052 95.3252 137.952 95.3444L137.846 95.3449V95.2385C137.846 94.3329 137.845 93.4085 137.844 92.4687C137.844 91.9988 137.844 91.525 137.844 91.0477C137.844 90.8092 137.844 90.5695 137.844 90.3293V89.9683V89.7872V89.6966V89.6511V89.6284V89.617V89.6113V89.6083V89.607C138.061 89.39 137.905 89.547 137.954 89.4985C146.662 89.516 154.404 89.5313 159.271 89.5409H159.338L159.338 89.607C159.322 91.3859 159.31 92.7964 159.301 93.7777C159.294 94.245 159.289 94.6098 159.285 94.871C159.282 94.9848 159.28 95.0758 159.278 95.1484C159.275 95.2101 159.273 95.2403 159.271 95.2381Z" fill="#E0E0E0"/>
<path d="M160.871 153.06C160.871 152.94 127.42 152.841 86.1644 152.841C44.8949 152.841 11.4502 152.94 11.4502 153.06C11.4502 153.18 44.8946 153.279 86.1644 153.279C127.42 153.279 160.871 153.182 160.871 153.06Z" fill="#263238"/>
<path d="M133.637 129.674C134.726 130.146 135.527 131.151 135.929 132.266C136.331 133.381 136.367 134.599 136.234 135.777C135.975 138.055 134.678 140.355 133.282 142.176C131.36 140.501 130.918 137.58 130.787 136.084C130.58 133.72 131.644 129.321 133.637 129.674Z" fill="#FF725E"/>
<path d="M135.513 145.937C135.206 144.649 135.743 143.236 136.732 142.356C137.722 141.475 139.106 141.102 140.428 141.203C141.039 141.25 141.7 141.428 142.05 141.93C142.377 142.4 142.34 143.056 142.075 143.563C141.809 144.07 141.35 144.449 140.864 144.754C139.199 145.797 137.396 146.501 135.513 145.937Z" fill="#FF725E"/>
<path d="M133.05 152.923C133.039 152.92 133.065 152.754 133.119 152.455C133.179 152.126 133.257 151.701 133.351 151.19C133.564 150.132 133.836 148.618 134.659 147.148C135.471 145.681 136.607 144.601 137.564 144.065C138.04 143.79 138.455 143.627 138.749 143.542C138.894 143.493 139.012 143.474 139.09 143.455C139.169 143.438 139.21 143.433 139.212 143.438C139.225 143.475 138.546 143.597 137.625 144.166C136.701 144.717 135.602 145.786 134.804 147.228C133.997 148.668 133.707 150.162 133.466 151.213C133.35 151.744 133.256 152.173 133.182 152.468C133.109 152.764 133.061 152.925 133.05 152.923Z" fill="#263238"/>
<path d="M133.123 133.095C133.129 133.095 133.137 133.165 133.147 133.299C133.156 133.451 133.168 133.646 133.182 133.886C133.21 134.396 133.239 135.135 133.269 136.048C133.328 137.874 133.374 140.397 133.363 143.184C133.35 145.972 133.282 148.495 133.207 150.321C133.169 151.233 133.133 151.971 133.101 152.481C133.084 152.722 133.071 152.916 133.061 153.068C133.05 153.202 133.041 153.272 133.036 153.272C133.03 153.272 133.027 153.201 133.027 153.067C133.03 152.915 133.033 152.72 133.036 152.479C133.049 151.947 133.067 151.214 133.089 150.317C133.134 148.492 133.183 145.97 133.196 143.183C133.207 140.398 133.179 137.876 133.15 136.051C133.136 135.153 133.125 134.42 133.117 133.888C133.115 133.647 133.114 133.452 133.113 133.3C133.115 133.166 133.118 133.095 133.123 133.095Z" fill="#263238"/>
<path d="M132.191 147.323C131.754 144.567 129.893 142.074 127.372 140.868C126.73 140.561 125.891 140.361 125.363 140.837C124.835 141.315 124.953 142.172 125.212 142.836C126.288 145.597 129.179 147.545 132.146 147.511" fill="#FF725E"/>
<path d="M127.683 143.03C127.688 143.019 127.832 143.083 128.091 143.207C128.221 143.269 128.379 143.344 128.552 143.452C128.725 143.56 128.933 143.665 129.139 143.82C129.349 143.968 129.582 144.125 129.81 144.324C130.049 144.51 130.281 144.735 130.524 144.972C130.997 145.459 131.474 146.041 131.881 146.713C132.282 147.389 132.572 148.083 132.775 148.731C132.866 149.059 132.954 149.37 133.001 149.668C133.066 149.964 133.09 150.244 133.116 150.5C133.152 150.754 133.139 150.988 133.148 151.191C133.157 151.394 133.144 151.569 133.133 151.712C133.112 151.997 133.095 152.154 133.083 152.153C133.045 152.152 133.111 151.52 132.999 150.512C132.966 150.261 132.935 149.985 132.865 149.696C132.814 149.402 132.722 149.098 132.628 148.777C132.421 148.142 132.131 147.463 131.738 146.798C131.338 146.138 130.873 145.564 130.414 145.079C130.178 144.842 129.952 144.617 129.721 144.43C129.5 144.229 129.273 144.068 129.071 143.916C128.245 143.325 127.666 143.062 127.683 143.03Z" fill="#263238"/>
<path d="M84.2908 66.152C84.2513 66.1533 84.2211 65.4477 84.0669 64.3215C83.9144 63.1958 83.6054 61.6514 83.0446 60.0116C82.4793 58.3723 81.7743 56.964 81.2029 55.9813C80.6324 54.9974 80.2231 54.4216 80.2546 54.3989C80.2673 54.3897 80.3808 54.5253 80.5754 54.7795C80.7726 55.0319 81.0364 55.4134 81.3409 55.8986C81.9522 56.8668 82.6888 58.2809 83.2602 59.9377C83.8272 61.5954 84.1142 63.163 84.2264 64.3023C84.2838 64.8719 84.3101 65.3348 84.3092 65.655C84.3127 65.9749 84.3065 66.1516 84.2908 66.152Z" fill="#263238"/>
<path d="M85.2433 59.2115C85.2127 59.2259 84.9826 58.7836 84.597 58.0784C84.2119 57.3731 83.6619 56.4097 82.9985 55.3802C82.3338 54.3512 81.6818 53.453 81.1976 52.8116C80.7138 52.1698 80.4053 51.7783 80.4312 51.7559C80.4531 51.7371 80.8054 52.0919 81.3242 52.7115C81.8435 53.3301 82.5205 54.2204 83.1904 55.2564C83.8587 56.2933 84.3906 57.2768 84.7407 58.0044C85.0913 58.7324 85.2696 59.1997 85.2433 59.2115Z" fill="#263238"/>
<path d="M65.5661 70.9113L58.0293 87.4709L64.5114 147.818C64.6599 149.203 65.8303 150.253 67.2251 150.253H102.579C103.983 150.253 105.157 149.19 105.295 147.796L111.249 87.6529L103.818 70.9113H65.5661Z" fill="#455A64"/>
<path d="M111.043 88.9952H57.5416C56.6573 88.9952 55.9404 88.2794 55.9404 87.3965C55.9404 86.5136 56.6573 85.7979 57.5416 85.7979H111.044C111.928 85.7979 112.645 86.5136 112.645 87.3965C112.644 88.2794 111.927 88.9952 111.043 88.9952Z" fill="#455A64"/>
<path d="M73.1521 70.9113L70.6387 83.0005H99.6242L97.5433 70.9113H73.1521Z" fill="#263238"/>
<path d="M72.6431 150.253H67.4414V153.149H72.6431V150.253Z" fill="#455A64"/>
<path d="M102.225 150.253H97.0234V153.149H102.225V150.253Z" fill="#455A64"/>
<path d="M99.6232 104.062C99.6232 104.062 99.6272 104.132 99.6294 104.276C99.6307 104.426 99.6329 104.641 99.6355 104.921C99.6386 105.498 99.643 106.343 99.6482 107.439C99.6548 109.652 99.6644 112.874 99.6767 116.942C99.6894 125.111 99.7074 136.668 99.7284 150.253V150.358H99.6232C90.5366 150.361 80.5403 150.364 70.0466 150.367H70.0431H69.9287V150.253C69.9379 132.772 69.9462 116.677 69.9528 104.062V103.971H70.0431C79.0903 103.991 86.4926 104.008 91.6404 104.019C94.1994 104.029 96.1966 104.037 97.5616 104.042C98.2342 104.046 98.7495 104.05 99.1031 104.052C99.4502 104.055 99.6232 104.062 99.6232 104.062C99.6232 104.062 99.437 104.068 99.0843 104.071C98.7267 104.073 98.2057 104.077 97.5256 104.081C96.1563 104.086 94.1525 104.094 91.5843 104.104C86.4501 104.115 79.0666 104.132 70.0426 104.151L70.1329 104.061C70.1395 116.677 70.1478 132.772 70.157 150.253L70.0431 150.139H70.0466C80.5403 150.142 90.5361 150.145 99.6232 150.148L99.5181 150.253C99.5391 136.696 99.5571 125.163 99.5698 117.011C99.5821 112.933 99.5917 109.702 99.5983 107.484C99.604 106.379 99.6079 105.527 99.611 104.945C99.6136 104.66 99.6158 104.441 99.6171 104.288C99.6193 104.14 99.6232 104.062 99.6232 104.062Z" fill="#263238"/>
<path d="M111.08 88.8315C111.08 88.8945 99.1803 88.9453 84.505 88.9453C69.8245 88.9453 57.9277 88.8941 57.9277 88.8315C57.9277 88.769 69.8245 88.7178 84.505 88.7178C99.1803 88.7178 111.08 88.7685 111.08 88.8315Z" fill="#263238"/>
<path d="M111.08 85.7979C111.08 85.8609 99.1803 85.9116 84.505 85.9116C69.8245 85.9116 57.9277 85.8604 57.9277 85.7979C57.9277 85.7349 69.8245 85.6841 84.505 85.6841C99.1803 85.6841 111.08 85.7349 111.08 85.7979Z" fill="#263238"/>
<path d="M102.579 150.269C102.579 150.332 94.5342 150.383 84.6128 150.383C74.6874 150.383 66.6445 150.332 66.6445 150.269C66.6445 150.207 74.6879 150.155 84.6128 150.155C94.5342 150.155 102.579 150.206 102.579 150.269Z" fill="#263238"/>
<path d="M81.5237 25.9089L51.2793 15.0018L43 37.8885L73.2444 48.7956L81.5237 25.9089Z" fill="#FAFAFA"/>
<path d="M51.4464 15.3463L81.1831 26.0685L73.0884 48.4483L43.3517 37.726L51.4464 15.3463ZM51.2837 15L43.0049 37.8877L73.2504 48.7938L81.5292 25.9061L51.2837 15Z" fill="#E0E0E0"/>
<path d="M78.4439 27.5323L52.6074 18.2148L46.0416 36.365L71.878 45.6825L78.4439 27.5323Z" fill="#FAFAFA"/>
<path d="M52.7948 18.595L78.0714 27.7093L71.7086 45.2999L46.432 36.1855L52.7948 18.595ZM52.6151 18.2134L46.0498 36.3642L71.8876 45.6807L78.4528 27.5299L52.6151 18.2134Z" fill="#E0E0E0"/>
<path d="M47.918 35.4269L71.0622 43.7723L73.0216 38.3553L68.9275 31.1546L62.8482 33.8058L64.3739 37.8789L57.626 26.5434L50.4061 28.5498L47.918 35.4269Z" fill="#E0E0E0"/>
<path d="M65.9802 28.3322C65.6002 29.3821 64.4397 29.9261 63.3882 29.5468C62.3367 29.1674 61.7918 28.0087 62.1718 26.9588C62.5517 25.909 63.7122 25.3649 64.7637 25.7443C65.8152 26.1236 66.3601 27.2823 65.9802 28.3322Z" fill="#E0E0E0"/>
<path d="M101.133 2.62671L105.874 19.372C105.939 19.6016 105.776 19.8486 105.51 19.9234L89.3379 24.4888C89.0737 24.5636 88.806 24.4381 88.7407 24.2092L83.0143 3.98198C82.9495 3.75244 83.1117 3.50547 83.376 3.43064L92.8134 0.763991L95.5197 0L101.133 2.62671Z" fill="#FAFAFA"/>
<path d="M95.5022 0.212096L100.965 2.76904L105.682 19.4266C105.699 19.4891 105.679 19.5442 105.659 19.5796C105.619 19.6511 105.545 19.7062 105.455 19.7315L89.2833 24.2969C89.2506 24.3065 89.2168 24.311 89.1836 24.311C89.0602 24.311 88.9599 24.248 88.9334 24.1546L83.2064 3.92797C83.172 3.80701 83.2746 3.66693 83.4301 3.62249L92.8675 0.955833L95.5022 0.212096ZM95.5197 0L92.8134 0.763991L83.376 3.43064C83.1117 3.50547 82.9495 3.75244 83.0143 3.98198L88.7407 24.2086C88.7931 24.3931 88.9762 24.5101 89.183 24.5101C89.2337 24.5101 89.2855 24.5034 89.3374 24.4882L105.509 19.9228C105.776 19.848 105.939 19.601 105.873 19.3715L101.133 2.62671L95.5197 0Z" fill="#E0E0E0"/>
<path d="M96.5075 3.48296L95.5215 0L101.135 2.62727L97.1071 3.76369C96.8405 3.83796 96.5723 3.7125 96.5075 3.48296Z" fill="#E0E0E0"/>
<path d="M90.2464 21.911L90.2166 21.8052L85.501 5.14879L85.6069 5.11898L98.6425 1.44023L98.6724 1.546L103.388 18.2024L103.282 18.2323L90.2464 21.911ZM85.772 5.30013L90.3986 21.6404L103.117 18.0506L98.4904 1.71027L85.772 5.30013Z" fill="#E0E0E0"/>
<path d="M98.4897 13.3761L86.0166 16.8962L87.1353 20.8477L99.6084 17.3276L98.4897 13.3761Z" fill="#E0E0E0"/>
</svg>
