<svg width="19" height="16" viewBox="0 0 19 16" fill="none" xmlns="http://www.w3.org/2000/svg">
    <path d="M12.1976 7.79409C12.1976 9.50686 10.8135 10.8909 9.10073 10.8909C7.38796 10.8909 6.00391 9.50686 6.00391 7.79409C6.00391 6.08132 7.38796 4.69727 9.10073 4.69727C10.8135 4.69727 12.1976 6.08132 12.1976 7.79409Z" stroke="#F07C33" stroke-width="0.9" stroke-linecap="round" stroke-linejoin="round"/>
    <path d="M9.10085 14.9511C12.1544 14.9511 15.0004 13.1518 16.9813 10.0377C17.7599 8.818 17.7599 6.76787 16.9813 5.54817C15.0004 2.43404 12.1544 0.634766 9.10085 0.634766C6.04727 0.634766 3.20131 2.43404 1.22037 5.54817C0.441842 6.76787 0.441842 8.818 1.22037 10.0377C3.20131 13.1518 6.04727 14.9511 9.10085 14.9511Z" stroke="#F07C33" stroke-width="0.9" stroke-linecap="round" stroke-linejoin="round"/>
</svg>
