<svg width="12" height="11" viewBox="0 0 12 11" fill="none" xmlns="http://www.w3.org/2000/svg">
<path d="M7.98667 5.33684C7.98667 6.38353 7.14086 7.22935 6.09417 7.22935C5.04747 7.22935 4.20166 6.38353 4.20166 5.33684C4.20166 4.29015 5.04747 3.44434 6.09417 3.44434C7.14086 3.44434 7.98667 4.29015 7.98667 5.33684Z" stroke="#F07C33" stroke-width="0.795796" stroke-linecap="round" stroke-linejoin="round"/>
<path d="M6.09455 9.71079C7.96062 9.71079 9.69982 8.61123 10.9104 6.70815C11.3862 5.96278 11.3862 4.70992 10.9104 3.96455C9.69982 2.06147 7.96062 0.961914 6.09455 0.961914C4.22847 0.961914 2.48927 2.06147 1.2787 3.96455C0.802933 4.70992 0.802933 5.96278 1.2787 6.70815C2.48927 8.61123 4.22847 9.71079 6.09455 9.71079Z" stroke="#F07C33" stroke-width="0.795796" stroke-linecap="round" stroke-linejoin="round"/>
</svg>
