<svg width="58" height="58" viewBox="0 0 58 58" fill="none" xmlns="http://www.w3.org/2000/svg">
<g clip-path="url(#clip0_3084_991)">
<path d="M47.125 0C50.1207 0 52.6821 1.06359 54.8092 3.19076C56.9364 5.31793 58 7.87934 58 10.875V47.125C58 50.1207 56.9364 52.6821 54.8092 54.8092C52.6821 56.9364 50.1207 58 47.125 58H40.026V35.5326H47.5404L48.6732 26.7721H40.026V21.1836C40.026 19.7739 40.3218 18.7166 40.9134 18.0117C41.505 17.3069 42.6567 16.9544 44.3685 16.9544L48.9753 16.9167V9.10026C47.3893 8.8737 45.1489 8.76042 42.2539 8.76042C38.8303 8.76042 36.0927 9.76736 34.041 11.7812C31.9894 13.7951 30.9635 16.6398 30.9635 20.3151V26.7721H23.4115V35.5326H30.9635V58H10.875C7.87934 58 5.31793 56.9364 3.19076 54.8092C1.06359 52.6821 0 50.1207 0 47.125V10.875C0 7.87934 1.06359 5.31793 3.19076 3.19076C5.31793 1.06359 7.87934 0 10.875 0H47.125Z" fill="#0082CB"/>
</g>
<defs>
<clipPath id="clip0_3084_991">
<rect width="58" height="58" fill="white"/>
</clipPath>
</defs>
</svg>
