<svg width="23" height="23" viewBox="0 0 23 23" fill="none" xmlns="http://www.w3.org/2000/svg">
<g clip-path="url(#clip0_4893_15131)">
<path d="M22.1626 11.4985C22.1626 5.45873 17.2664 0.5625 11.2266 0.5625C5.18676 0.5625 0.290527 5.45873 0.290527 11.4985C0.290527 16.957 4.28966 21.4813 9.51782 22.3017V14.6597H6.74109V11.4985H9.51782V9.0892C9.51782 6.34835 11.1505 4.83439 13.6485 4.83439C14.8447 4.83439 16.0965 5.04799 16.0965 5.04799V7.73928H14.7176C13.3591 7.73928 12.9353 8.58234 12.9353 9.44804V11.4985H15.9684L15.4835 14.6597H12.9353V22.3017C18.1635 21.4813 22.1626 16.957 22.1626 11.4985Z" fill="#0082CB"/>
<path d="M15.4836 14.6593L15.9685 11.4981H12.9355V9.44763C12.9355 8.58278 13.3592 7.73887 14.7177 7.73887H16.0967V5.04758C16.0967 5.04758 14.8452 4.83398 13.6486 4.83398C11.1507 4.83398 9.51794 6.34794 9.51794 9.08879V11.4981H6.74121V14.6593H9.51794V22.3013C10.6502 22.4785 11.8032 22.4785 12.9355 22.3013V14.6593H15.4836Z" fill="#F8F9FB"/>
</g>
<defs>
<clipPath id="clip0_4893_15131">
<rect width="21.8721" height="21.8721" fill="white" transform="translate(0.290527 0.564453)"/>
</clipPath>
</defs>
</svg>
