<svg width="11" height="10" viewBox="0 0 11 10" fill="none" xmlns="http://www.w3.org/2000/svg">
<path d="M5.30227 2.71506L4.97697 2.39947C4.91525 2.3396 4.85579 2.28215 4.79799 2.22632C4.69681 2.12857 4.60072 2.03574 4.50651 1.94338M5.30227 2.71506L4.82192 1.62168M5.30227 2.71506L5.6159 2.38788C5.68335 2.31752 5.74239 2.25348 5.7976 2.19359C5.90248 2.07984 5.99354 1.98108 6.10211 1.88247L6.10228 1.88231C6.94864 1.11277 8.04061 0.991436 8.86249 1.48573M5.30227 2.71506L8.86249 1.48573M4.50651 1.94338L4.82192 1.62168M4.50651 1.94338C4.50654 1.94341 4.50657 1.94344 4.5066 1.94347L4.82192 1.62168M4.50651 1.94338C3.76139 1.21329 2.73863 1.00903 1.92207 1.3616L1.92199 1.36163C1.10289 1.7151 0.530145 2.61727 0.550149 3.6299L0.55015 3.62993C0.565261 4.39749 0.88674 5.08013 1.35983 5.75982L1.35997 5.76003C2.38805 7.23879 3.78163 8.35225 5.27348 9.44401M4.82192 1.62168C3.96282 0.779842 2.7486 0.513998 1.74348 0.947983C0.741765 1.38026 0.0764182 2.45954 0.0997139 3.6388C0.117328 4.53347 0.493468 5.30374 0.990063 6.0172C2.0986 7.61169 3.60543 8.78697 5.15317 9.91397M5.27348 9.44401C5.24088 9.46777 5.20824 9.49151 5.17555 9.51522C5.20415 9.49448 5.2242 9.4878 5.2257 9.48728C5.22976 9.48587 5.23122 9.48569 5.2323 9.48555C5.2333 9.48542 5.23596 9.4851 5.24043 9.48499C5.2447 9.48489 5.25294 9.48492 5.26462 9.48628C5.27584 9.48758 5.2949 9.49063 5.31904 9.49849C5.34267 9.5062 5.37889 9.52104 5.41832 9.54974L5.30927 9.69954L5.30925 9.69956L5.15317 9.91397M5.27348 9.44401C6.35813 8.65346 7.38913 7.83823 8.27976 6.87474L8.61059 7.18055L8.27976 6.87473C9.0415 6.0507 9.66399 5.22156 9.91823 4.19716L9.91826 4.19704C10.185 3.12349 9.72817 2.00666 8.86249 1.48573M5.27348 9.44401C5.32168 9.47928 5.36997 9.51453 5.41837 9.54977L5.30929 9.69957L5.30928 9.69959L5.15317 9.91397M5.15317 9.91397C5.21169 9.95657 5.36965 9.93101 5.4401 9.87989L8.86249 1.48573" stroke="#F07C33" stroke-width="0.901046"/>
</svg>
