<svg width="22" height="23" viewBox="0 0 22 23" fill="none" xmlns="http://www.w3.org/2000/svg">
<path d="M16.862 0.529297H5.24248C2.41132 0.529297 0.116211 2.82441 0.116211 5.65557V17.2751C0.116211 20.1063 2.41132 22.4014 5.24248 22.4014H16.862C19.6932 22.4014 21.9883 20.1063 21.9883 17.2751V5.65557C21.9883 2.82441 19.6932 0.529297 16.862 0.529297Z" fill="url(#paint0_radial_4893_12104)"/>
<path d="M16.862 0.529297H5.24248C2.41132 0.529297 0.116211 2.82441 0.116211 5.65557V17.2751C0.116211 20.1063 2.41132 22.4014 5.24248 22.4014H16.862C19.6932 22.4014 21.9883 20.1063 21.9883 17.2751V5.65557C21.9883 2.82441 19.6932 0.529297 16.862 0.529297Z" fill="url(#paint1_radial_4893_12104)"/>
<path d="M11.0529 2.92188C8.73253 2.92188 8.44128 2.93204 7.53 2.97348C6.62042 3.01517 5.99955 3.15914 5.45633 3.37042C4.89432 3.58863 4.41767 3.88057 3.9428 4.35561C3.46751 4.83056 3.17557 5.30721 2.95668 5.86897C2.74479 6.41235 2.60066 7.03349 2.55973 7.94263C2.51898 8.854 2.5083 9.14534 2.5083 11.4657C2.5083 13.7862 2.51855 14.0765 2.55991 14.9878C2.60177 15.8973 2.74573 16.5182 2.95685 17.0614C3.17523 17.6234 3.46717 18.1001 3.9422 18.5749C4.41698 19.0502 4.89364 19.3429 5.45522 19.5611C5.99886 19.7724 6.61983 19.9163 7.52923 19.958C8.44059 19.9994 8.73159 20.0096 11.0518 20.0096C13.3724 20.0096 13.6627 19.9994 14.574 19.958C15.4836 19.9163 16.1051 19.7724 16.6488 19.5611C17.2105 19.3429 17.6865 19.0502 18.1612 18.5749C18.6365 18.1001 18.9283 17.6234 19.1473 17.0617C19.3573 16.5182 19.5015 15.8972 19.5443 14.9879C19.5852 14.0766 19.5959 13.7862 19.5959 11.4657C19.5959 9.14534 19.5852 8.85417 19.5443 7.9428C19.5015 7.03323 19.3573 6.41244 19.1473 5.86922C18.9283 5.30721 18.6365 4.83056 18.1612 4.35561C17.686 3.8804 17.2107 3.58846 16.6483 3.37051C16.1036 3.15914 15.4824 3.01509 14.5728 2.97348C13.6614 2.93204 13.3713 2.92188 11.0502 2.92188H11.0529ZM10.2864 4.46155C10.5139 4.46121 10.7677 4.46155 11.0529 4.46155C13.3341 4.46155 13.6045 4.46975 14.5053 4.51068C15.3383 4.54878 15.7905 4.68796 16.0916 4.80493C16.4904 4.95974 16.7746 5.14488 17.0735 5.444C17.3725 5.74303 17.5576 6.0278 17.7128 6.42654C17.8298 6.72728 17.9691 7.17941 18.0071 8.01243C18.048 8.91312 18.0569 9.18362 18.0569 11.4638C18.0569 13.7439 18.048 14.0145 18.0071 14.9151C17.969 15.7481 17.8298 16.2003 17.7128 16.5011C17.558 16.8998 17.3725 17.1838 17.0735 17.4826C16.7745 17.7817 16.4905 17.9667 16.0916 18.1216C15.7908 18.2391 15.3383 18.3779 14.5053 18.416C13.6046 18.457 13.3341 18.4658 11.0529 18.4658C8.77149 18.4658 8.50108 18.457 7.60048 18.416C6.76746 18.3776 6.31533 18.2384 6.0139 18.1214C5.61525 17.9665 5.3304 17.7815 5.03137 17.4825C4.73233 17.1834 4.54728 16.8993 4.39203 16.5004C4.27507 16.1996 4.13572 15.7475 4.09779 14.9144C4.05686 14.0138 4.04866 13.7433 4.04866 11.4616C4.04866 9.18011 4.05686 8.91098 4.09779 8.0103C4.13589 7.17728 4.27507 6.72514 4.39203 6.42397C4.54693 6.02523 4.73233 5.74047 5.03145 5.44144C5.33048 5.14241 5.61525 4.95726 6.01399 4.80211C6.31515 4.68463 6.76746 4.54579 7.60048 4.50752C8.38865 4.47189 8.69409 4.46121 10.2864 4.45941V4.46155ZM15.6135 5.88016C15.0475 5.88016 14.5883 6.33896 14.5883 6.90507C14.5883 7.4711 15.0475 7.93033 15.6135 7.93033C16.1796 7.93033 16.6388 7.4711 16.6388 6.90507C16.6388 6.33905 16.1796 5.87982 15.6135 5.87982V5.88016ZM11.0529 7.07809C8.62984 7.07809 6.66528 9.04264 6.66528 11.4657C6.66528 13.8889 8.62984 15.8525 11.0529 15.8525C13.476 15.8525 15.4398 13.8889 15.4398 11.4657C15.4398 9.04273 13.4758 7.07809 11.0527 7.07809H11.0529ZM11.0529 8.61776C12.6257 8.61776 13.9008 9.89275 13.9008 11.4657C13.9008 13.0386 12.6257 14.3137 11.0529 14.3137C9.47994 14.3137 8.20496 13.0386 8.20496 11.4657C8.20496 9.89275 9.47994 8.61776 11.0529 8.61776Z" fill="white"/>
<defs>
<radialGradient id="paint0_radial_4893_12104" cx="0" cy="0" r="1" gradientUnits="userSpaceOnUse" gradientTransform="translate(5.92598 24.086) rotate(-90) scale(21.6769 20.1612)">
<stop stop-color="#FFDD55"/>
<stop offset="0.1" stop-color="#FFDD55"/>
<stop offset="0.5" stop-color="#FF543E"/>
<stop offset="1" stop-color="#C837AB"/>
</radialGradient>
<radialGradient id="paint1_radial_4893_12104" cx="0" cy="0" r="1" gradientUnits="userSpaceOnUse" gradientTransform="translate(-3.54745 2.10486) rotate(78.681) scale(9.68968 39.9412)">
<stop stop-color="#3771C8"/>
<stop offset="0.128" stop-color="#3771C8"/>
<stop offset="1" stop-color="#6600FF" stop-opacity="0"/>
</radialGradient>
</defs>
</svg>
