<svg width="24" height="24" viewBox="0 0 24 24" fill="none" xmlns="http://www.w3.org/2000/svg">
<path d="M18.9503 15.4972C16.995 17.6124 14.7308 19.3987 12.3533 21.1297C9.09037 18.7437 6.03118 16.3072 3.77635 13.0639C2.74328 11.5797 2.03443 10.0794 2.00112 8.38755C1.95703 6.15572 3.21924 4.16219 5.033 3.37948C6.84237 2.59824 9.10073 3.05344 10.7415 4.66122C10.9461 4.86186 11.1546 5.06331 11.3744 5.27565C11.5002 5.39713 11.6296 5.52218 11.7642 5.65269L12.414 6.28314L13.0405 5.62952M18.9503 15.4972L19.6111 16.1081M18.9503 15.4972C20.6094 13.7024 21.9746 11.887 22.5325 9.6389C23.1206 7.27228 22.1148 4.80648 20.2001 3.65432C18.3783 2.5588 15.9649 2.83253 14.1019 4.52648M13.0405 5.62952C13.1847 5.47915 13.312 5.34105 13.4318 5.21121C13.6615 4.96202 13.8633 4.74323 14.1019 4.52648M13.0405 5.62952L14.1019 4.52648" stroke="black" strokeWidth="1.8"/>
</svg>
