<svg width="21" height="21" viewBox="0 0 21 21" fill="none" xmlns="http://www.w3.org/2000/svg">
<rect width="20.25" height="20.25" rx="2" fill="white"/>
<path d="M0 1.45054C0 0.649328 0.665782 0 1.48725 0H18.7647C19.5862 0 20.2519 0.649328 20.2519 1.45054V18.8014C20.2519 19.6026 19.5862 20.2519 18.7647 20.2519H1.48725C0.665782 20.2519 0 19.6026 0 18.8014V1.45054ZM6.25658 16.9534V7.80839H3.21753V16.9534H6.25658ZM4.73769 6.5591C5.79712 6.5591 6.45657 5.85787 6.45657 4.97944C6.43758 4.08203 5.79838 3.39979 4.75794 3.39979C3.7175 3.39979 3.03779 4.0833 3.03779 4.97944C3.03779 5.85787 3.69724 6.5591 4.71744 6.5591H4.73769ZM10.95 16.9534V11.8461C10.95 11.5727 10.9702 11.2993 11.0512 11.1044C11.2702 10.5589 11.7702 9.99306 12.6106 9.99306C13.7106 9.99306 14.1498 10.831 14.1498 12.0613V16.9534H17.1888V11.7082C17.1888 8.89819 15.6902 7.59194 13.6903 7.59194C12.0777 7.59194 11.355 8.47797 10.95 9.10198V9.13362H10.9297C10.9364 9.12306 10.9432 9.11251 10.95 9.10198V7.80839H7.91218C7.95015 8.66656 7.91218 16.9534 7.91218 16.9534H10.95Z" fill="#004191"/>
</svg>
