<svg width="224" height="201" viewBox="0 0 224 201" fill="none" xmlns="http://www.w3.org/2000/svg">
<path fill-rule="evenodd" clip-rule="evenodd" d="M21.3159 97.4775C14.5843 104.107 14.5011 114.938 21.1302 121.669C27.7593 128.401 38.5904 128.484 45.3221 121.855L66.8277 100.677L37.6205 133.587C32.1944 139.701 32.4349 148.974 38.1706 154.798C44.1905 160.911 54.0262 160.987 60.1392 154.967L80.2045 135.207L56.665 162.485C51.6232 168.328 51.9105 177.062 57.3254 182.561C63.0669 188.391 72.4477 188.463 78.278 182.722L90.6493 170.539C89.8779 176.207 91.6473 182.159 95.9717 186.55C103.383 194.076 115.491 194.169 123.017 186.758L147.332 162.813L140.104 173.695C136.71 178.804 137.362 185.592 141.665 189.963C146.688 195.063 154.895 195.126 159.996 190.103L210.238 140.627C215.257 135.684 215.319 127.61 210.377 122.591C206.024 118.171 199.121 117.524 194.023 121.059L179.524 131.112L202.004 108.974C209.53 101.563 209.623 89.4544 202.212 81.9287C197.888 77.5374 191.964 75.6768 186.284 76.3611L199.497 63.3501C205.334 57.6021 205.406 48.2108 199.658 42.3739C194.246 36.8785 185.526 36.4473 179.599 41.382L152.964 63.556L180.342 36.5953C186.457 30.5732 186.533 20.7341 180.511 14.6189C174.776 8.79544 165.511 8.40933 159.311 13.7355L126.41 42.0024L131.04 37.443C137.772 30.8139 137.855 19.9828 131.226 13.2511C124.597 6.51943 113.766 6.43631 107.034 13.0654L66.8028 52.6837L73.689 43.854C78.5789 37.584 78.0637 28.6606 72.4845 22.9951C66.3453 16.7609 56.3146 16.6839 50.0804 22.8232L12.128 60.1973C5.94128 66.2898 5.86487 76.244 11.9573 82.4307C17.562 88.1221 26.5435 88.7062 32.8381 83.7887L44.3454 74.7989L21.3159 97.4775Z" fill="#E6E6E6"/>
<path d="M51.7891 170.365H172.211" stroke="#313131" stroke-width="2" stroke-linecap="round"/>
<path d="M176.646 170.365H182.957" stroke="#313131" stroke-width="2" stroke-linecap="round"/>
<path d="M160.271 164.225H166.241" stroke="#313131" stroke-width="2" stroke-linecap="round"/>
<path d="M155.666 164.396H68.334" stroke="#313131" stroke-width="2" stroke-linecap="round"/>
<path d="M63.8994 164.225H57.9297" stroke="#313131" stroke-width="2" stroke-linecap="round"/>
<path d="M47.1836 170.365H40.5312" stroke="#313131" stroke-width="2" stroke-linecap="round"/>
<circle cx="193.01" cy="134.94" r="3.52391" fill="#F6A76E"/>
<circle cx="156.275" cy="7.73762" r="5.22395" fill="#F6A76E"/>
<circle cx="28.8809" cy="107.178" r="6.18948" fill="#F6A76E"/>
<path d="M218.448 137.592C218.927 138.332 219.793 138.893 220.562 139.281C219.72 139.3 218.723 139.442 217.966 139.927C217.11 140.476 216.35 141.605 215.817 142.549C215.705 142.746 215.603 142.937 215.51 143.117C215.503 142.918 215.491 142.705 215.474 142.483C215.388 141.406 215.151 140.059 214.497 139.192C214.026 138.568 213.245 138.073 212.52 137.711C213.33 137.701 214.251 137.568 214.943 137.114C215.36 136.841 215.754 136.412 216.105 135.943C216.458 135.471 216.782 134.94 217.055 134.446C217.207 134.17 217.345 133.905 217.463 133.665C217.484 133.904 217.511 134.167 217.545 134.443C217.613 134.978 217.711 135.565 217.854 136.115C217.995 136.661 218.186 137.188 218.448 137.592Z" stroke="#F56206" stroke-width="0.585896"/>
<path d="M14.1529 152.06C14.6324 152.801 15.4983 153.362 16.2668 153.749C15.425 153.768 14.4277 153.911 13.6714 154.396C12.8155 154.945 12.0552 156.074 11.5218 157.018C11.4105 157.214 11.3078 157.406 11.2147 157.585C11.2078 157.386 11.1965 157.173 11.1789 156.952C11.0934 155.875 10.8557 154.528 10.2025 153.661C9.73157 153.037 8.95049 152.541 8.22528 152.18C9.0348 152.169 9.95576 152.037 10.6482 151.583C11.0653 151.31 11.4587 150.881 11.8097 150.412C12.1634 149.94 12.487 149.409 12.7602 148.914C12.9123 148.639 13.0496 148.374 13.1685 148.134C13.1891 148.373 13.2158 148.636 13.2504 148.911C13.3178 149.447 13.4158 150.034 13.5587 150.584C13.7006 151.129 13.8914 151.657 14.1529 152.06Z" stroke="#F56206" stroke-width="0.585896"/>
<path d="M54.1822 7.3476C54.6617 8.08769 55.5276 8.64914 56.2961 9.03647C55.4543 9.0555 54.457 9.19804 53.7007 9.68326C52.8448 10.2323 52.0845 11.3611 51.5511 12.3048C51.4398 12.5016 51.3371 12.6929 51.244 12.8726C51.2371 12.6736 51.2258 12.4606 51.2082 12.2391C51.1227 11.1621 50.885 9.81488 50.2318 8.94836C49.7609 8.32363 48.9798 7.82839 48.2546 7.46712C49.0641 7.45646 49.9851 7.32402 50.6775 6.87012C51.0945 6.59674 51.488 6.16798 51.839 5.69905C52.1927 5.22665 52.5163 4.69585 52.7895 4.20136C52.9416 3.92606 53.0789 3.66063 53.1978 3.42089C53.2184 3.65978 53.2451 3.92291 53.2797 4.19846C53.3471 4.7341 53.4451 5.3213 53.588 5.87078C53.7299 6.41648 53.9207 6.94378 54.1822 7.3476Z" stroke="#F56206" stroke-width="0.585896"/>
<path d="M9.55529 44.2148C10.0347 44.9549 10.9006 45.5163 11.6691 45.9037C10.8274 45.9227 9.83009 46.0652 9.07374 46.5504C8.21785 47.0995 7.45756 48.2283 6.9241 49.172C6.81286 49.3688 6.71013 49.56 6.61709 49.7398C6.61018 49.5408 6.59884 49.3277 6.58125 49.1063C6.4957 48.0293 6.25802 46.6821 5.60483 45.8155C5.13391 45.1908 4.35284 44.6956 3.62762 44.3343C4.43714 44.3236 5.3581 44.1912 6.05054 43.7373C6.46759 43.4639 6.86103 43.0352 7.21209 42.5662C7.56575 42.0938 7.88932 41.563 8.16254 41.0685C8.31466 40.7933 8.45192 40.5278 8.57084 40.2881C8.59141 40.527 8.61812 40.7901 8.65279 41.0657C8.72017 41.6013 8.81817 42.1885 8.96103 42.738C9.1029 43.2837 9.29371 43.811 9.55529 44.2148Z" stroke="#F56206" stroke-width="0.585896"/>
<path d="M117.544 192.883C118.023 193.623 118.889 194.184 119.657 194.572C118.816 194.591 117.818 194.733 117.062 195.218C116.206 195.767 115.446 196.896 114.912 197.84C114.801 198.037 114.698 198.228 114.605 198.408C114.598 198.209 114.587 197.996 114.57 197.774C114.484 196.697 114.246 195.35 113.593 194.484C113.122 193.859 112.341 193.364 111.616 193.002C112.425 192.992 113.346 192.859 114.039 192.405C114.456 192.132 114.849 191.703 115.2 191.234C115.554 190.762 115.878 190.231 116.151 189.737C116.303 189.461 116.44 189.196 116.559 188.956C116.58 189.195 116.606 189.458 116.641 189.734C116.708 190.269 116.806 190.856 116.949 191.406C117.091 191.952 117.282 192.479 117.544 192.883Z" stroke="#F56206" stroke-width="0.585896"/>
<circle cx="169.495" cy="37.8528" r="2.1558" stroke="#F56206" stroke-width="0.831544"/>
<circle cx="37.6419" cy="66.0735" r="2.1558" stroke="#F56206" stroke-width="0.831544"/>
<path d="M73.4936 76.6671H69.9607C68.1003 76.6671 66.6334 75.0721 66.8379 73.2229C68.7728 55.7322 73.2762 49.9302 76.9881 46.3481C88.8089 32.3402 104.73 33.2829 111.213 35.5053C131.47 41.542 138.428 57.3028 138.428 73.235V92.8412C138.428 94.5965 137.005 96.0194 135.25 96.0194H130.187C129.054 96.0194 128.136 95.101 128.136 93.9681L127.694 72.8691C125.016 49.8362 107.929 45.5914 99.7204 46.3481C82.1912 48.7511 77.0511 65.03 76.6722 72.8691L76.6719 73.4905C76.671 75.2451 75.2483 76.6671 73.4936 76.6671Z" fill="#89A5B0"/>
<rect x="53.8105" y="82.9727" width="97.31" height="75.8677" rx="14.3022" fill="#F56206"/>
<rect x="53.8105" y="82.9727" width="97.31" height="63.4968" rx="14.3022" fill="#F07C33"/>
<path d="M96.1795 131.464L97.622 109.312C92.3744 105.647 93.375 100.089 94.5312 97.7681C98.3048 90.1926 108.342 92.8147 110.093 97.1647C113.245 103.277 109.61 107.809 107.398 109.312L108.565 131.464C105.685 140.359 96.8598 135.519 96.1795 131.464Z" fill="#313743"/>
<circle cx="145.616" cy="137.599" r="24.5694" fill="#D9D9D9"/>
<path fill-rule="evenodd" clip-rule="evenodd" d="M139.65 145.008L140.35 143.595C140.739 142.812 141.829 142.743 142.313 143.471L147.027 150.557C147.511 151.285 147.025 152.264 146.153 152.319L137.659 152.858C136.787 152.913 136.182 152.004 136.57 151.221L137.375 149.597C135.165 148.119 133.349 146.105 132.107 143.729C130.545 140.741 129.97 137.336 130.464 134.001C130.958 130.666 132.496 127.573 134.857 125.166C137.218 122.76 140.28 121.163 143.605 120.606C146.93 120.048 150.346 120.558 153.363 122.063C156.38 123.567 158.843 125.989 160.398 128.981C161.953 131.972 162.52 135.379 162.018 138.713C161.572 141.672 160.305 144.437 158.371 146.701C157.964 147.177 157.242 147.18 156.795 146.74L154.809 144.781C154.362 144.341 154.363 143.626 154.754 143.136C155.945 141.645 156.728 139.86 157.014 137.96C157.357 135.683 156.97 133.357 155.908 131.314C154.846 129.272 153.165 127.618 151.105 126.591C149.045 125.563 146.712 125.215 144.442 125.596C142.172 125.977 140.081 127.067 138.469 128.71C136.856 130.353 135.806 132.465 135.469 134.742C135.132 137.019 135.525 139.345 136.591 141.385C137.336 142.81 138.384 144.044 139.65 145.008Z" fill="#F56206"/>
</svg>
