<svg width="229" height="209" viewBox="0 0 229 209" fill="none" xmlns="http://www.w3.org/2000/svg">
<path fill-rule="evenodd" clip-rule="evenodd" d="M6.09186 114.093C-1.33148 121.206 -1.42068 132.83 5.89263 140.056C13.2059 147.282 25.1523 147.373 32.5757 140.26L65.9304 108.301L33.6819 143.656C27.6982 150.216 27.9654 160.168 34.2932 166.42C40.9343 172.982 51.7827 173.065 58.5237 166.606L80.6618 145.394L54.6908 174.678C49.1309 180.947 49.4496 190.32 55.4234 196.223C61.7574 202.481 72.1041 202.561 78.5333 196.4L92.183 183.321C91.334 189.404 93.2871 195.791 98.0574 200.504C106.233 208.583 119.589 208.685 127.888 200.733L154.718 175.025L146.742 186.708C143 192.19 143.72 199.476 148.467 204.167C154.009 209.642 163.061 209.711 168.685 204.322L224.122 151.204C229.656 145.901 229.723 137.235 224.271 131.848C219.468 127.103 211.855 126.408 206.232 130.201L190.235 140.994L215.04 117.226C223.339 109.274 223.439 96.2791 215.263 88.2009C210.493 83.4876 203.959 81.4895 197.695 82.222L212.273 68.2539C218.71 62.0866 218.787 52.008 212.446 45.7426C206.476 39.8437 196.857 39.3792 190.321 44.674L160.935 68.4781L191.143 39.5334C197.887 33.072 197.968 22.5128 191.324 15.9486C184.998 9.69758 174.778 9.28126 167.942 14.9961L131.614 45.364L136.749 40.4437C144.173 33.3308 144.262 21.7069 136.949 14.481C129.635 7.25504 117.689 7.16335 110.266 14.2762L65.8987 56.7875L73.4813 47.3274C78.8738 40.5996 78.3036 31.0227 72.1485 24.9412C65.3759 18.2494 54.3126 18.1645 47.438 24.7515L5.55748 64.8804C-1.26472 71.4173 -1.34669 82.0999 5.37439 88.7407C11.5576 94.85 21.4643 95.4787 28.4058 90.2023L41.0794 80.5688L6.09186 114.093Z" fill="#E6E6E6"/>
<rect x="24.5795" y="76.0538" width="158.641" height="99.1031" rx="10" transform="rotate(-12.5004 24.5795 76.0538)" fill="#F56206" stroke="#313131" stroke-width="2"/>
<path d="M49.1237 85C49.1237 87.9455 51.5115 90.3333 54.457 90.3333C57.4025 90.3333 59.7904 87.9455 59.7904 85C59.7904 82.0545 57.4025 79.6667 54.457 79.6667C51.5115 79.6667 49.1237 82.0545 49.1237 85ZM93.2358 24L93.91 23.2614L93.0306 22.4588L92.3919 23.4635L93.2358 24ZM134.124 66.1851C134.124 69.1306 136.512 71.5184 139.457 71.5184C142.403 71.5184 144.79 69.1306 144.79 66.1851C144.79 63.2395 142.403 60.8517 139.457 60.8517C136.512 60.8517 134.124 63.2395 134.124 66.1851ZM55.3009 85.5365L94.0797 24.5365L92.3919 23.4635L53.6131 84.4635L55.3009 85.5365ZM92.5617 24.7386L138.783 66.9237L140.131 65.4464L93.91 23.2614L92.5617 24.7386Z" fill="#313131"/>
<circle cx="93.3867" cy="25" r="6" fill="url(#paint0_radial_99_2293)"/>
<mask id="path-5-outside-1_99_2293" maskUnits="userSpaceOnUse" x="56.186" y="89.5705" width="114.828" height="45.8769" fill="black">
<rect fill="white" x="56.186" y="89.5705" width="114.828" height="45.8769"/>
<path d="M64.1132 132.655C63.4799 132.801 62.9633 132.75 62.5636 132.5C62.1601 132.234 61.8871 131.792 61.7446 131.175L58.6577 117.802C58.5153 117.185 58.569 116.676 58.8188 116.276C59.0649 115.86 59.4965 115.581 60.1136 115.439C61.364 115.15 62.1373 115.647 62.4335 116.93L65.228 129.037L71.7563 127.53C72.8444 127.279 73.5102 127.681 73.7539 128.737C74.0013 129.808 73.581 130.47 72.4929 130.721L64.1132 132.655ZM82.985 128.581C81.2961 128.971 79.7258 128.949 78.2742 128.514C76.8351 128.06 75.6064 127.257 74.5882 126.107C73.5825 124.936 72.8735 123.458 72.4612 121.671C72.0489 119.885 72.04 118.253 72.4347 116.777C72.8419 115.28 73.5945 114.02 74.6925 112.997C75.7905 111.974 77.1921 111.266 78.8972 110.872C80.6024 110.478 82.1727 110.501 83.608 110.939C85.0597 111.374 86.2883 112.176 87.294 113.347C88.3122 114.497 89.0255 115.958 89.4341 117.728C89.8465 119.514 89.8491 121.156 89.4419 122.652C89.051 124.145 88.3002 125.413 87.1897 126.456C86.0917 127.479 84.6901 128.188 82.985 128.581ZM82.2428 125.366C83.6719 125.036 84.67 124.284 85.237 123.11C85.8166 121.915 85.9021 120.433 85.4935 118.663C85.0812 116.877 84.3647 115.588 83.344 114.798C82.3196 113.991 81.0848 113.754 79.6394 114.088C78.2266 114.414 77.2285 115.166 76.6452 116.344C76.0743 117.502 75.9951 118.974 76.4074 120.76C76.816 122.531 77.5344 123.827 78.5625 124.65C79.6032 125.454 80.8299 125.692 82.2428 125.366ZM102.665 124.039C100.732 124.485 99.0079 124.498 97.4913 124.078C95.991 123.655 94.7399 122.866 93.7379 121.712C92.736 120.558 92.0307 119.096 91.6221 117.325C91.2023 115.507 91.196 113.849 91.6031 112.352C92.0265 110.852 92.836 109.579 94.0314 108.533C95.2269 107.488 96.7827 106.744 98.699 106.301C99.576 106.099 100.475 105.994 101.397 105.986C102.319 105.979 103.239 106.109 104.156 106.376C104.65 106.518 104.985 106.783 105.16 107.17C105.351 107.554 105.402 107.961 105.314 108.392C105.221 108.807 105.009 109.147 104.677 109.412C104.357 109.656 103.917 109.715 103.358 109.588C102.138 109.271 100.847 109.269 99.4825 109.584C97.7448 109.985 96.55 110.774 95.8979 111.951C95.2584 113.108 95.1485 114.596 95.5684 116.415C95.992 118.25 96.7509 119.537 97.8453 120.276C98.9559 121.012 100.38 121.179 102.118 120.778C103.043 120.565 103.984 120.194 104.94 119.665L104.164 116.304L101.971 116.81C100.964 117.042 100.356 116.703 100.146 115.794C99.9362 114.885 100.335 114.314 101.342 114.081L105.166 113.199C106.157 112.97 106.768 113.359 107.001 114.366L108.305 120.017C108.402 120.439 108.396 120.817 108.284 121.151C108.19 121.481 107.97 121.754 107.627 121.97C106.956 122.398 106.185 122.799 105.313 123.171C104.441 123.543 103.558 123.833 102.665 124.039ZM126.525 118.531C124.836 118.921 123.266 118.899 121.814 118.464C120.375 118.01 119.146 117.207 118.128 116.056C117.122 114.886 116.413 113.408 116.001 111.621C115.589 109.835 115.58 108.203 115.974 106.727C116.382 105.23 117.134 103.97 118.232 102.947C119.33 101.924 120.732 101.216 122.437 100.822C124.142 100.428 125.712 100.451 127.148 100.889C128.599 101.324 129.828 102.126 130.834 103.297C131.852 104.447 132.565 105.908 132.974 107.678C133.386 109.464 133.389 111.106 132.982 112.602C132.591 114.095 131.84 115.363 130.729 116.406C129.631 117.429 128.23 118.138 126.525 118.531ZM125.783 115.316C127.212 114.986 128.21 114.234 128.777 113.06C129.356 111.865 129.442 110.383 129.033 108.613C128.621 106.827 127.904 105.538 126.884 104.747C125.859 103.941 124.624 103.704 123.179 104.037C121.766 104.364 120.768 105.116 120.185 106.294C119.614 107.452 119.535 108.924 119.947 110.71C120.356 112.48 121.074 113.777 122.102 114.6C123.143 115.404 124.37 115.642 125.783 115.316ZM145.06 114.253C142.624 114.815 140.62 114.619 139.049 113.665C137.493 112.707 136.431 110.994 135.861 108.525L133.949 100.243C133.807 99.6259 133.86 99.1174 134.11 98.7177C134.356 98.3017 134.788 98.0224 135.405 97.88C136.655 97.5914 137.429 98.0885 137.725 99.3714L139.642 107.678C139.965 109.075 140.525 110.057 141.323 110.625C142.118 111.178 143.116 111.315 144.318 111.038C146.77 110.472 147.672 108.784 147.023 105.974L145.106 97.6677C144.81 96.3848 145.287 95.599 146.537 95.3104C147.138 95.1717 147.632 95.2373 148.019 95.5071C148.419 95.7569 148.69 96.1904 148.833 96.8075L150.745 105.09C151.314 107.558 151.118 109.562 150.156 111.101C149.195 112.64 147.496 113.691 145.06 114.253ZM161.544 110.397C160.927 110.539 160.417 110.477 160.013 110.211C159.609 109.945 159.337 109.504 159.194 108.887L156.349 96.5607L152.037 97.5559C150.982 97.7996 150.334 97.4017 150.094 96.3624C149.854 95.323 150.262 94.6815 151.318 94.4379L163.717 91.5759C164.772 91.3322 165.42 91.7301 165.66 92.7694C165.9 93.8088 165.492 94.4503 164.436 94.6939L160.125 95.6891L162.97 108.015C163.112 108.632 163.06 109.149 162.814 109.565C162.585 109.977 162.161 110.254 161.544 110.397Z"/>
</mask>
<path d="M64.1132 132.655C63.4799 132.801 62.9633 132.75 62.5636 132.5C62.1601 132.234 61.8871 131.792 61.7446 131.175L58.6577 117.802C58.5153 117.185 58.569 116.676 58.8188 116.276C59.0649 115.86 59.4965 115.581 60.1136 115.439C61.364 115.15 62.1373 115.647 62.4335 116.93L65.228 129.037L71.7563 127.53C72.8444 127.279 73.5102 127.681 73.7539 128.737C74.0013 129.808 73.581 130.47 72.4929 130.721L64.1132 132.655ZM82.985 128.581C81.2961 128.971 79.7258 128.949 78.2742 128.514C76.8351 128.06 75.6064 127.257 74.5882 126.107C73.5825 124.936 72.8735 123.458 72.4612 121.671C72.0489 119.885 72.04 118.253 72.4347 116.777C72.8419 115.28 73.5945 114.02 74.6925 112.997C75.7905 111.974 77.1921 111.266 78.8972 110.872C80.6024 110.478 82.1727 110.501 83.608 110.939C85.0597 111.374 86.2883 112.176 87.294 113.347C88.3122 114.497 89.0255 115.958 89.4341 117.728C89.8465 119.514 89.8491 121.156 89.4419 122.652C89.051 124.145 88.3002 125.413 87.1897 126.456C86.0917 127.479 84.6901 128.188 82.985 128.581ZM82.2428 125.366C83.6719 125.036 84.67 124.284 85.237 123.11C85.8166 121.915 85.9021 120.433 85.4935 118.663C85.0812 116.877 84.3647 115.588 83.344 114.798C82.3196 113.991 81.0848 113.754 79.6394 114.088C78.2266 114.414 77.2285 115.166 76.6452 116.344C76.0743 117.502 75.9951 118.974 76.4074 120.76C76.816 122.531 77.5344 123.827 78.5625 124.65C79.6032 125.454 80.8299 125.692 82.2428 125.366ZM102.665 124.039C100.732 124.485 99.0079 124.498 97.4913 124.078C95.991 123.655 94.7399 122.866 93.7379 121.712C92.736 120.558 92.0307 119.096 91.6221 117.325C91.2023 115.507 91.196 113.849 91.6031 112.352C92.0265 110.852 92.836 109.579 94.0314 108.533C95.2269 107.488 96.7827 106.744 98.699 106.301C99.576 106.099 100.475 105.994 101.397 105.986C102.319 105.979 103.239 106.109 104.156 106.376C104.65 106.518 104.985 106.783 105.16 107.17C105.351 107.554 105.402 107.961 105.314 108.392C105.221 108.807 105.009 109.147 104.677 109.412C104.357 109.656 103.917 109.715 103.358 109.588C102.138 109.271 100.847 109.269 99.4825 109.584C97.7448 109.985 96.55 110.774 95.8979 111.951C95.2584 113.108 95.1485 114.596 95.5684 116.415C95.992 118.25 96.7509 119.537 97.8453 120.276C98.9559 121.012 100.38 121.179 102.118 120.778C103.043 120.565 103.984 120.194 104.94 119.665L104.164 116.304L101.971 116.81C100.964 117.042 100.356 116.703 100.146 115.794C99.9362 114.885 100.335 114.314 101.342 114.081L105.166 113.199C106.157 112.97 106.768 113.359 107.001 114.366L108.305 120.017C108.402 120.439 108.396 120.817 108.284 121.151C108.19 121.481 107.97 121.754 107.627 121.97C106.956 122.398 106.185 122.799 105.313 123.171C104.441 123.543 103.558 123.833 102.665 124.039ZM126.525 118.531C124.836 118.921 123.266 118.899 121.814 118.464C120.375 118.01 119.146 117.207 118.128 116.056C117.122 114.886 116.413 113.408 116.001 111.621C115.589 109.835 115.58 108.203 115.974 106.727C116.382 105.23 117.134 103.97 118.232 102.947C119.33 101.924 120.732 101.216 122.437 100.822C124.142 100.428 125.712 100.451 127.148 100.889C128.599 101.324 129.828 102.126 130.834 103.297C131.852 104.447 132.565 105.908 132.974 107.678C133.386 109.464 133.389 111.106 132.982 112.602C132.591 114.095 131.84 115.363 130.729 116.406C129.631 117.429 128.23 118.138 126.525 118.531ZM125.783 115.316C127.212 114.986 128.21 114.234 128.777 113.06C129.356 111.865 129.442 110.383 129.033 108.613C128.621 106.827 127.904 105.538 126.884 104.747C125.859 103.941 124.624 103.704 123.179 104.037C121.766 104.364 120.768 105.116 120.185 106.294C119.614 107.452 119.535 108.924 119.947 110.71C120.356 112.48 121.074 113.777 122.102 114.6C123.143 115.404 124.37 115.642 125.783 115.316ZM145.06 114.253C142.624 114.815 140.62 114.619 139.049 113.665C137.493 112.707 136.431 110.994 135.861 108.525L133.949 100.243C133.807 99.6259 133.86 99.1174 134.11 98.7177C134.356 98.3017 134.788 98.0224 135.405 97.88C136.655 97.5914 137.429 98.0885 137.725 99.3714L139.642 107.678C139.965 109.075 140.525 110.057 141.323 110.625C142.118 111.178 143.116 111.315 144.318 111.038C146.77 110.472 147.672 108.784 147.023 105.974L145.106 97.6677C144.81 96.3848 145.287 95.599 146.537 95.3104C147.138 95.1717 147.632 95.2373 148.019 95.5071C148.419 95.7569 148.69 96.1904 148.833 96.8075L150.745 105.09C151.314 107.558 151.118 109.562 150.156 111.101C149.195 112.64 147.496 113.691 145.06 114.253ZM161.544 110.397C160.927 110.539 160.417 110.477 160.013 110.211C159.609 109.945 159.337 109.504 159.194 108.887L156.349 96.5607L152.037 97.5559C150.982 97.7996 150.334 97.4017 150.094 96.3624C149.854 95.323 150.262 94.6815 151.318 94.4379L163.717 91.5759C164.772 91.3322 165.42 91.7301 165.66 92.7694C165.9 93.8088 165.492 94.4503 164.436 94.6939L160.125 95.6891L162.97 108.015C163.112 108.632 163.06 109.149 162.814 109.565C162.585 109.977 162.161 110.254 161.544 110.397Z" fill="white"/>
<path d="M62.5636 132.5L62.0131 133.335L62.0233 133.341L62.0336 133.348L62.5636 132.5ZM58.8188 116.276L59.6668 116.806L59.6733 116.796L59.6795 116.786L58.8188 116.276ZM65.228 129.037L64.2536 129.262L64.4785 130.236L65.4529 130.011L65.228 129.037ZM63.8883 131.681C63.4135 131.79 63.1942 131.715 63.0935 131.652L62.0336 133.348C62.7324 133.785 63.5463 133.812 64.3381 133.63L63.8883 131.681ZM63.114 131.665C62.9849 131.58 62.8222 131.397 62.719 130.95L60.7703 131.4C60.952 132.187 61.3352 132.888 62.0131 133.335L63.114 131.665ZM62.719 130.95L59.6321 117.577L57.6834 118.027L60.7703 131.4L62.719 130.95ZM59.6321 117.577C59.5282 117.127 59.6005 116.912 59.6668 116.806L57.9708 115.746C57.5374 116.44 57.5024 117.243 57.6834 118.027L59.6321 117.577ZM59.6795 116.786C59.7466 116.672 59.9014 116.514 60.3385 116.413L59.8887 114.464C59.0916 114.648 58.3831 115.049 57.9581 115.767L59.6795 116.786ZM60.3385 116.413C60.8071 116.305 61.0084 116.383 61.0906 116.436C61.1784 116.493 61.3443 116.658 61.4591 117.155L63.4078 116.705C63.2265 115.92 62.8577 115.195 62.1722 114.754C61.481 114.31 60.6705 114.284 59.8887 114.464L60.3385 116.413ZM61.4591 117.155L64.2536 129.262L66.2024 128.812L63.4078 116.705L61.4591 117.155ZM65.4529 130.011L71.9812 128.504L71.5314 126.556L65.0031 128.062L65.4529 130.011ZM71.9812 128.504C72.3823 128.412 72.5254 128.481 72.5547 128.499C72.5773 128.513 72.6941 128.592 72.7795 128.961L74.7283 128.512C74.57 127.826 74.232 127.176 73.5888 126.787C72.9523 126.403 72.2184 126.397 71.5314 126.556L71.9812 128.504ZM72.7795 128.961C72.8677 129.343 72.7969 129.474 72.7802 129.5C72.7614 129.53 72.6655 129.655 72.268 129.747L72.7178 131.695C73.4084 131.536 74.0667 131.205 74.4682 130.573C74.8718 129.938 74.8875 129.202 74.7283 128.512L72.7795 128.961ZM72.268 129.747L63.8883 131.681L64.3381 133.63L72.7178 131.695L72.268 129.747ZM78.2742 128.514L77.9729 129.468L77.9801 129.47L77.9873 129.472L78.2742 128.514ZM74.5882 126.107L73.8297 126.758L73.8345 126.764L73.8394 126.769L74.5882 126.107ZM72.4347 116.777L71.4698 116.514L71.4686 116.519L72.4347 116.777ZM74.6925 112.997L75.3742 113.729L75.3742 113.729L74.6925 112.997ZM83.608 110.939L83.3159 111.896L83.3212 111.897L83.608 110.939ZM87.294 113.347L86.5355 113.999L86.5403 114.004L86.5451 114.01L87.294 113.347ZM89.4419 122.652L88.4769 122.39L88.4745 122.399L89.4419 122.652ZM87.1897 126.456L87.8715 127.188L87.8744 127.185L87.1897 126.456ZM85.237 123.11L84.3374 122.673L84.3365 122.675L85.237 123.11ZM83.344 114.798L82.7252 115.583L82.7316 115.588L83.344 114.798ZM76.6452 116.344L75.749 115.9L75.7482 115.902L76.6452 116.344ZM78.5625 124.65L77.9375 125.431L77.9445 125.437L77.9515 125.442L78.5625 124.65ZM82.7601 127.607C81.2156 127.964 79.8237 127.934 78.561 127.556L77.9873 129.472C79.6279 129.963 81.3765 129.979 83.2099 129.556L82.7601 127.607ZM78.5754 127.561C77.3123 127.162 76.2374 126.461 75.3371 125.444L73.8394 126.769C74.9754 128.053 76.3578 128.958 77.9729 129.468L78.5754 127.561ZM75.3467 125.455C74.4646 124.428 73.8183 123.105 73.4356 121.446L71.4868 121.896C71.9287 123.811 72.7005 125.444 73.8297 126.758L75.3467 125.455ZM73.4356 121.446C73.0527 119.788 73.056 118.325 73.4008 117.035L71.4686 116.519C71.0241 118.182 71.045 119.982 71.4868 121.896L73.4356 121.446ZM73.3996 117.039C73.7596 115.716 74.4171 114.621 75.3742 113.729L74.0107 112.266C72.7718 113.42 71.9241 114.844 71.4698 116.514L73.3996 117.039ZM75.3742 113.729C76.3239 112.844 77.5593 112.207 79.1221 111.846L78.6723 109.898C76.8249 110.324 75.257 111.104 74.0107 112.266L75.3742 113.729ZM79.1221 111.846C80.685 111.486 82.0744 111.516 83.3159 111.896L83.9001 109.983C82.2709 109.485 80.5198 109.471 78.6723 109.898L79.1221 111.846ZM83.3212 111.897C84.586 112.276 85.6521 112.97 86.5355 113.999L88.0525 112.695C86.9245 111.383 85.5333 110.472 83.8949 109.981L83.3212 111.897ZM86.5451 114.01C87.4343 115.014 88.0818 116.315 88.4598 117.953L90.4085 117.503C89.9693 115.6 89.1901 113.981 88.0428 112.684L86.5451 114.01ZM88.4598 117.953C88.8417 119.608 88.8336 121.079 88.477 122.39L90.4068 122.915C90.8645 121.232 90.8512 119.421 90.4085 117.503L88.4598 117.953ZM88.4745 122.399C88.1306 123.712 87.4767 124.815 86.5051 125.727L87.8744 127.185C89.1238 126.011 89.9713 124.578 90.4093 122.906L88.4745 122.399ZM86.508 125.725C85.5583 126.61 84.323 127.246 82.7601 127.607L83.2099 129.556C85.0573 129.129 86.6252 128.349 87.8715 127.188L86.508 125.725ZM82.4677 126.34C84.1504 125.952 85.4211 125.028 86.1375 123.545L84.3365 122.675C83.9188 123.54 83.1933 124.12 82.0179 124.392L82.4677 126.34ZM86.1367 123.546C86.8472 122.082 86.9091 120.349 86.4679 118.438L84.5191 118.888C84.8951 120.517 84.786 121.749 84.3374 122.673L86.1367 123.546ZM86.4679 118.438C86.0251 116.52 85.2225 114.988 83.9565 114.007L82.7316 115.588C83.5069 116.189 84.1373 117.234 84.5191 118.888L86.4679 118.438ZM83.9628 114.012C82.6657 112.99 81.1093 112.722 79.4145 113.113L79.8643 115.062C81.0602 114.786 81.9736 114.991 82.7252 115.583L83.9628 114.012ZM79.4145 113.113C77.7439 113.499 76.4801 114.424 75.749 115.9L77.5413 116.788C77.9769 115.908 78.7093 115.329 79.8643 115.062L79.4145 113.113ZM75.7482 115.902C75.0402 117.338 74.9902 119.067 75.4331 120.985L77.3818 120.535C77 118.881 77.1085 117.666 77.5421 116.786L75.7482 115.902ZM75.4331 120.985C75.8733 122.893 76.6776 124.422 77.9375 125.431L79.1875 123.87C78.3911 123.232 77.7587 122.168 77.3818 120.535L75.4331 120.985ZM77.9515 125.442C79.2558 126.449 80.797 126.726 82.4677 126.34L82.0179 124.392C80.8628 124.658 79.9506 124.458 79.1735 123.859L77.9515 125.442ZM97.4913 124.078L97.2197 125.041L97.2246 125.042L97.4913 124.078ZM93.7379 121.712L94.4931 121.056L93.7379 121.712ZM91.6031 112.352L90.6407 112.081L90.6382 112.09L91.6031 112.352ZM94.0314 108.533L94.6898 109.286L94.6898 109.286L94.0314 108.533ZM101.397 105.986L101.389 104.986L101.389 104.986L101.397 105.986ZM104.156 106.376L103.876 107.336L103.879 107.337L104.156 106.376ZM105.16 107.17L104.249 107.582L104.257 107.599L104.265 107.617L105.16 107.17ZM105.314 108.392L106.29 108.61L106.292 108.602L106.293 108.594L105.314 108.392ZM104.677 109.412L105.285 110.206L105.292 110.2L105.3 110.194L104.677 109.412ZM103.358 109.588L103.106 110.556L103.121 110.559L103.136 110.563L103.358 109.588ZM95.8979 111.951L95.0232 111.466L95.0228 111.467L95.8979 111.951ZM97.8453 120.276L97.2854 121.105L97.293 121.11L97.8453 120.276ZM104.94 119.665L105.424 120.54L106.084 120.175L105.914 119.44L104.94 119.665ZM104.164 116.304L105.138 116.079L104.913 115.104L103.939 115.329L104.164 116.304ZM108.284 121.151L107.336 120.835L107.329 120.854L107.323 120.874L108.284 121.151ZM107.627 121.97L107.094 121.123L107.088 121.127L107.627 121.97ZM105.313 123.171L104.92 122.251L105.313 123.171ZM102.44 123.064C100.628 123.483 99.0777 123.48 97.758 123.115L97.2246 125.042C98.9381 125.516 100.837 125.487 102.89 125.013L102.44 123.064ZM97.7629 123.116C96.4463 122.744 95.3645 122.06 94.4931 121.056L92.9828 122.367C94.1152 123.672 95.5357 124.566 97.2197 125.041L97.7629 123.116ZM94.4931 121.056C93.6168 120.047 92.9753 118.741 92.5965 117.101L90.6478 117.55C91.0862 119.45 91.8552 121.069 92.9828 122.367L94.4931 121.056ZM92.5965 117.101C92.2063 115.41 92.2122 113.923 92.5681 112.615L90.6382 112.09C90.1797 113.775 90.1983 115.603 90.6478 117.55L92.5965 117.101ZM92.5656 112.624C92.9353 111.314 93.6372 110.207 94.6898 109.286L93.373 107.781C92.0347 108.951 91.1178 110.39 90.6407 112.081L92.5656 112.624ZM94.6898 109.286C95.7351 108.372 97.1305 107.69 98.9239 107.276L98.4741 105.327C96.435 105.798 94.7187 106.604 93.373 107.781L94.6898 109.286ZM98.9239 107.276C99.7281 107.09 100.555 106.993 101.405 106.986L101.389 104.986C100.396 104.995 99.4239 105.108 98.4741 105.327L98.9239 107.276ZM101.405 106.986C102.227 106.98 103.049 107.095 103.876 107.336L104.435 105.416C103.428 105.122 102.412 104.978 101.389 104.986L101.405 106.986ZM103.879 107.337C104.157 107.417 104.22 107.519 104.249 107.582L106.071 106.759C105.75 106.048 105.143 105.62 104.432 105.415L103.879 107.337ZM104.265 107.617C104.353 107.794 104.379 107.973 104.334 108.191L106.293 108.594C106.426 107.95 106.349 107.314 106.055 106.724L104.265 107.617ZM104.338 108.175C104.295 108.366 104.207 108.507 104.053 108.63L105.3 110.194C105.811 109.786 106.148 109.247 106.29 108.61L104.338 108.175ZM104.069 108.618C104.061 108.623 104.04 108.639 103.975 108.648C103.902 108.658 103.776 108.657 103.579 108.613L103.136 110.563C103.857 110.727 104.641 110.698 105.285 110.206L104.069 108.618ZM103.609 108.62C102.217 108.258 100.761 108.263 99.2575 108.61L99.7074 110.559C100.932 110.276 102.059 110.283 103.106 110.556L103.609 108.62ZM99.2575 108.61C97.3384 109.053 95.8536 109.968 95.0232 111.466L96.7726 112.436C97.2463 111.581 98.1513 110.918 99.7074 110.559L99.2575 108.61ZM95.0228 111.467C94.2226 112.915 94.1415 114.679 94.594 116.639L96.5428 116.19C96.1556 114.513 96.2942 113.301 96.7731 112.435L95.0228 111.467ZM94.594 116.639C95.0503 118.616 95.9069 120.173 97.2854 121.105L98.4052 119.448C97.595 118.9 96.9336 117.883 96.5428 116.19L94.594 116.639ZM97.293 121.11C98.7021 122.044 100.432 122.194 102.343 121.753L101.893 119.804C100.328 120.165 99.2096 119.981 98.3976 119.443L97.293 121.11ZM102.343 121.753C103.371 121.515 104.398 121.107 105.424 120.54L104.456 118.79C103.569 119.28 102.716 119.614 101.893 119.804L102.343 121.753ZM105.914 119.44L105.138 116.079L103.189 116.528L103.965 119.89L105.914 119.44ZM103.939 115.329L101.746 115.835L102.196 117.784L104.389 117.278L103.939 115.329ZM101.746 115.835C101.37 115.922 101.25 115.858 101.246 115.856C101.245 115.856 101.235 115.851 101.215 115.821C101.191 115.785 101.153 115.709 101.12 115.569L99.1717 116.019C99.3176 116.651 99.646 117.255 100.274 117.604C100.879 117.94 101.566 117.93 102.196 117.784L101.746 115.835ZM101.12 115.569C101.088 115.429 101.089 115.344 101.095 115.302C101.099 115.265 101.107 115.257 101.108 115.256C101.11 115.253 101.19 115.143 101.566 115.056L101.117 113.107C100.486 113.252 99.8637 113.544 99.4675 114.111C99.0564 114.7 99.0259 115.387 99.1717 116.019L101.12 115.569ZM101.566 115.056L105.391 114.173L104.941 112.224L101.117 113.107L101.566 115.056ZM105.391 114.173C105.732 114.094 105.829 114.162 105.831 114.163C105.836 114.166 105.944 114.234 106.026 114.591L107.975 114.141C107.825 113.491 107.511 112.861 106.904 112.475C106.294 112.087 105.591 112.074 104.941 112.224L105.391 114.173ZM106.026 114.591L107.331 120.242L109.279 119.792L107.975 114.141L106.026 114.591ZM107.331 120.242C107.396 120.527 107.377 120.712 107.336 120.835L109.233 121.467C109.415 120.923 109.409 120.352 109.279 119.792L107.331 120.242ZM107.323 120.874C107.309 120.926 107.27 121.013 107.094 121.123L108.159 122.816C108.671 122.495 109.07 122.035 109.245 121.428L107.323 120.874ZM107.088 121.127C106.472 121.521 105.751 121.897 104.92 122.251L105.705 124.091C106.619 123.701 107.44 123.276 108.165 122.813L107.088 121.127ZM104.92 122.251C104.1 122.601 103.274 122.872 102.44 123.064L102.89 125.013C103.842 124.793 104.781 124.485 105.705 124.091L104.92 122.251ZM121.814 118.464L121.513 119.418L121.52 119.42L121.527 119.422L121.814 118.464ZM118.128 116.056L117.369 116.708L117.374 116.714L117.379 116.719L118.128 116.056ZM115.974 106.727L115.009 106.464L115.008 106.469L115.974 106.727ZM118.232 102.947L118.914 103.679L118.914 103.679L118.232 102.947ZM127.148 100.889L126.856 101.846L126.861 101.847L127.148 100.889ZM130.834 103.297L130.075 103.949L130.08 103.954L130.085 103.96L130.834 103.297ZM132.982 112.602L132.017 112.34L132.014 112.349L132.982 112.602ZM130.729 116.406L131.411 117.138L131.414 117.135L130.729 116.406ZM128.777 113.06L127.877 112.623L127.876 112.625L128.777 113.06ZM126.884 104.747L126.265 105.533L126.271 105.538L126.884 104.747ZM120.185 106.294L119.289 105.85L119.288 105.852L120.185 106.294ZM122.102 114.6L121.477 115.381L121.484 115.387L121.491 115.392L122.102 114.6ZM126.3 117.557C124.755 117.914 123.363 117.884 122.101 117.506L121.527 119.422C123.168 119.913 124.916 119.929 126.75 119.506L126.3 117.557ZM122.115 117.511C120.852 117.112 119.777 116.411 118.877 115.394L117.379 116.719C118.515 118.003 119.898 118.907 121.513 119.418L122.115 117.511ZM118.886 115.405C118.004 114.378 117.358 113.055 116.975 111.396L115.027 111.846C115.468 113.761 116.24 115.394 117.369 116.708L118.886 115.405ZM116.975 111.396C116.592 109.738 116.596 108.275 116.941 106.985L115.008 106.469C114.564 108.132 114.585 109.932 115.027 111.846L116.975 111.396ZM116.939 106.989C117.299 105.666 117.957 104.571 118.914 103.679L117.55 102.216C116.312 103.37 115.464 104.794 115.01 106.464L116.939 106.989ZM118.914 103.679C119.864 102.794 121.099 102.157 122.662 101.796L122.212 99.8476C120.365 100.274 118.797 101.054 117.55 102.216L118.914 103.679ZM122.662 101.796C124.225 101.436 125.614 101.466 126.856 101.846L127.44 99.9329C125.811 99.4352 124.059 99.4212 122.212 99.8476L122.662 101.796ZM126.861 101.847C128.126 102.226 129.192 102.92 130.075 103.949L131.592 102.645C130.464 101.332 129.073 100.422 127.435 99.9313L126.861 101.847ZM130.085 103.96C130.974 104.964 131.622 106.265 131.999 107.903L133.948 107.453C133.509 105.55 132.73 103.93 131.583 102.634L130.085 103.96ZM131.999 107.903C132.381 109.558 132.373 111.029 132.017 112.34L133.947 112.865C134.404 111.182 134.391 109.371 133.948 107.453L131.999 107.903ZM132.014 112.349C131.67 113.662 131.016 114.765 130.045 115.677L131.414 117.135C132.664 115.961 133.511 114.528 133.949 112.856L132.014 112.349ZM130.048 115.675C129.098 116.56 127.863 117.196 126.3 117.557L126.75 119.506C128.597 119.079 130.165 118.299 131.411 117.138L130.048 115.675ZM126.007 116.29C127.69 115.902 128.961 114.978 129.677 113.495L127.876 112.625C127.459 113.49 126.733 114.07 125.558 114.342L126.007 116.29ZM129.676 113.496C130.387 112.032 130.449 110.299 130.008 108.388L128.059 108.838C128.435 110.467 128.326 111.699 127.877 112.623L129.676 113.496ZM130.008 108.388C129.565 106.47 128.762 104.938 127.496 103.957L126.271 105.538C127.047 106.139 127.677 107.184 128.059 108.838L130.008 108.388ZM127.503 103.962C126.205 102.94 124.649 102.672 122.954 103.063L123.404 105.012C124.6 104.736 125.513 104.941 126.265 105.533L127.503 103.962ZM122.954 103.063C121.284 103.449 120.02 104.374 119.289 105.85L121.081 106.737C121.517 105.858 122.249 105.278 123.404 105.012L122.954 103.063ZM119.288 105.852C118.58 107.288 118.53 109.017 118.973 110.935L120.922 110.485C120.54 108.831 120.648 107.616 121.082 106.736L119.288 105.852ZM118.973 110.935C119.413 112.843 120.217 114.372 121.477 115.381L122.727 113.82C121.931 113.182 121.298 112.118 120.922 110.485L118.973 110.935ZM121.491 115.392C122.796 116.399 124.337 116.676 126.007 116.29L125.558 114.342C124.403 114.608 123.49 114.408 122.713 113.809L121.491 115.392ZM139.049 113.665L138.524 114.516L138.529 114.52L139.049 113.665ZM134.11 98.7177L134.958 99.2476L134.965 99.2373L134.971 99.2268L134.11 98.7177ZM141.323 110.625L140.743 111.44L140.753 111.447L141.323 110.625ZM148.019 95.5071L147.448 96.3276L147.468 96.3419L147.49 96.3551L148.019 95.5071ZM150.156 111.101L151.004 111.631L151.004 111.631L150.156 111.101ZM144.835 113.279C142.56 113.804 140.846 113.586 139.568 112.81L138.529 114.52C140.394 115.652 142.688 115.827 145.285 115.227L144.835 113.279ZM139.573 112.814C138.322 112.043 137.369 110.611 136.835 108.3L134.886 108.75C135.493 111.376 136.665 113.371 138.524 114.516L139.573 112.814ZM136.835 108.3L134.924 100.018L132.975 100.468L134.886 108.75L136.835 108.3ZM134.924 100.018C134.82 99.5679 134.892 99.3537 134.958 99.2476L133.262 98.1877C132.829 98.8811 132.794 99.6838 132.975 100.468L134.924 100.018ZM134.971 99.2268C135.038 99.1133 135.193 98.9553 135.63 98.8544L135.18 96.9056C134.383 97.0896 133.675 97.4901 133.25 98.2086L134.971 99.2268ZM135.63 98.8544C136.098 98.7462 136.3 98.8247 136.382 98.8775C136.47 98.934 136.636 99.0989 136.75 99.5964L138.699 99.1465C138.518 98.3611 138.149 97.636 137.464 97.1952C136.772 96.7509 135.962 96.7252 135.18 96.9056L135.63 98.8544ZM136.75 99.5964L138.668 107.903L140.617 107.453L138.699 99.1465L136.75 99.5964ZM138.668 107.903C139.02 109.43 139.671 110.677 140.743 111.44L141.903 109.811C141.379 109.438 140.909 108.72 140.617 107.453L138.668 107.903ZM140.753 111.447C141.839 112.202 143.146 112.334 144.543 112.012L144.093 110.063C143.085 110.296 142.397 110.154 141.894 109.804L140.753 111.447ZM144.543 112.012C145.956 111.686 147.088 110.991 147.715 109.819C148.326 108.676 148.349 107.274 147.998 105.749L146.049 106.199C146.345 107.484 146.242 108.331 145.951 108.876C145.676 109.391 145.132 109.823 144.093 110.063L144.543 112.012ZM147.998 105.749L146.08 97.4428L144.131 97.8927L146.049 106.199L147.998 105.749ZM146.08 97.4428C145.965 96.9454 146.042 96.7244 146.096 96.6352C146.147 96.5518 146.294 96.3929 146.762 96.2848L146.312 94.336C145.53 94.5165 144.813 94.8949 144.387 95.5972C143.964 96.2938 143.95 97.1072 144.131 97.8927L146.08 97.4428ZM146.762 96.2848C147.177 96.189 147.358 96.2651 147.448 96.3276L148.591 94.6866C147.906 94.2094 147.099 94.1544 146.312 94.336L146.762 96.2848ZM147.49 96.3551C147.596 96.4214 147.754 96.5822 147.858 97.0324L149.807 96.5826C149.626 95.7985 149.243 95.0924 148.549 94.659L147.49 96.3551ZM147.858 97.0324L149.77 105.315L151.719 104.865L149.807 96.5826L147.858 97.0324ZM149.77 105.315C150.304 107.629 150.082 109.333 149.308 110.571L151.004 111.631C152.155 109.79 152.324 107.488 151.719 104.865L149.77 105.315ZM149.308 110.571C148.533 111.811 147.112 112.753 144.835 113.279L145.285 115.227C147.879 114.628 149.856 113.469 151.004 111.631L149.308 110.571ZM160.013 110.211L159.463 111.046L159.463 111.046L160.013 110.211ZM156.349 96.5607L157.323 96.3358L157.098 95.3614L156.124 95.5863L156.349 96.5607ZM160.125 95.6891L159.9 94.7148L158.925 94.9397L159.15 95.9141L160.125 95.6891ZM162.814 109.565L161.954 109.056L161.947 109.067L161.941 109.078L162.814 109.565ZM161.319 109.422C160.882 109.523 160.674 109.449 160.563 109.376L159.463 111.046C160.159 111.506 160.972 111.555 161.769 111.371L161.319 109.422ZM160.563 109.376C160.434 109.291 160.272 109.109 160.168 108.662L158.22 109.111C158.401 109.899 158.785 110.599 159.463 111.046L160.563 109.376ZM160.168 108.662L157.323 96.3358L155.375 96.7856L158.22 109.111L160.168 108.662ZM156.124 95.5863L151.812 96.5815L152.262 98.5303L156.574 97.5351L156.124 95.5863ZM151.812 96.5815C151.431 96.6696 151.303 96.6004 151.283 96.5882C151.267 96.578 151.153 96.5031 151.068 96.1375L149.12 96.5873C149.275 97.261 149.605 97.9047 150.236 98.2924C150.864 98.678 151.588 98.6859 152.262 98.5303L151.812 96.5815ZM151.068 96.1375C150.984 95.7718 151.054 95.6546 151.064 95.6383C151.076 95.6185 151.161 95.5003 151.543 95.4123L151.093 93.4635C150.418 93.6191 149.771 93.9435 149.376 94.5652C148.979 95.1904 148.964 95.9136 149.12 96.5873L151.068 96.1375ZM151.543 95.4123L163.941 92.5503L163.492 90.6015L151.093 93.4635L151.543 95.4123ZM163.941 92.5503C164.323 92.4622 164.451 92.5314 164.471 92.5436C164.487 92.5538 164.601 92.6287 164.685 92.9943L166.634 92.5445C166.479 91.8708 166.149 91.2271 165.517 90.8394C164.89 90.4538 164.166 90.4459 163.492 90.6015L163.941 92.5503ZM164.685 92.9943C164.77 93.36 164.7 93.4772 164.69 93.4935C164.677 93.5133 164.593 93.6315 164.211 93.7195L164.661 95.6683C165.335 95.5127 165.982 95.1883 166.378 94.5666C166.775 93.9414 166.79 93.2182 166.634 92.5445L164.685 92.9943ZM164.211 93.7195L159.9 94.7148L160.35 96.6635L164.661 95.6683L164.211 93.7195ZM159.15 95.9141L161.995 108.24L163.944 107.79L161.099 95.4642L159.15 95.9141ZM161.995 108.24C162.099 108.687 162.032 108.922 161.954 109.056L163.675 110.074C164.088 109.375 164.126 108.577 163.944 107.79L161.995 108.24ZM161.941 109.078C161.891 109.167 161.759 109.321 161.319 109.422L161.769 111.371C162.563 111.188 163.278 110.787 163.688 110.052L161.941 109.078Z" fill="#313131" mask="url(#path-5-outside-1_99_2293)"/>
<path d="M186.887 103.5L191.387 123.5C192.22 126.333 192.987 132.2 189.387 133L170.887 137.5" stroke="#FC9656" stroke-opacity="0.65" stroke-width="3" stroke-linecap="round"/>
<path d="M37.582 109L33.082 89C32.2487 86.1667 31.482 80.3 35.082 79.5L53.582 75" stroke="#FC9656" stroke-opacity="0.6" stroke-width="3" stroke-linecap="round"/>
<path d="M165.387 139L156.387 141" stroke="#FC9656" stroke-width="3" stroke-linecap="round"/>
<circle cx="168.651" cy="171.427" r="3.35439" fill="#F6A76E"/>
<circle cx="155.238" cy="6.89745" r="4.97264" fill="#F6A76E"/>
<circle cx="11.1827" cy="98.7521" r="5.89173" fill="#F6A76E"/>
<path d="M214.436 130.496C214.9 131.213 215.748 131.754 216.491 132.123C215.68 132.137 214.707 132.268 213.974 132.738C213.162 133.259 212.439 134.33 211.932 135.229C211.816 135.433 211.711 135.63 211.616 135.814C211.61 135.61 211.599 135.39 211.581 135.161C211.499 134.136 211.273 132.857 210.654 132.035C210.196 131.429 209.43 130.95 208.727 130.605C209.509 130.6 210.409 130.478 211.081 130.038C211.476 129.779 211.85 129.372 212.184 128.926C212.52 128.477 212.827 127.973 213.087 127.502C213.241 127.224 213.379 126.956 213.497 126.717C213.517 126.957 213.544 127.224 213.579 127.504C213.643 128.014 213.736 128.572 213.872 129.094C214.007 129.613 214.188 130.114 214.436 130.496Z" stroke="#F56206" stroke-width="0.531163"/>
<path d="M19.9652 144.269C20.4296 144.986 21.2777 145.527 22.0202 145.896C21.2089 145.909 20.2359 146.04 19.5028 146.51C18.6911 147.031 17.9688 148.103 17.461 149.001C17.3458 149.205 17.2402 149.403 17.1456 149.587C17.1393 149.383 17.1281 149.163 17.1098 148.933C17.0284 147.908 16.8023 146.629 16.183 145.808C15.7258 145.201 14.9592 144.723 14.2558 144.377C15.0385 144.372 15.9387 144.251 16.6106 143.81C17.0057 143.551 17.3791 143.145 17.7129 142.699C18.0491 142.25 18.3568 141.745 18.6167 141.275C18.7704 140.996 18.9083 140.729 19.0261 140.49C19.0462 140.729 19.0728 140.996 19.1081 141.277C19.1722 141.786 19.2654 142.345 19.4012 142.867C19.5361 143.386 19.7173 143.886 19.9652 144.269Z" stroke="#F56206" stroke-width="0.531163"/>
<path d="M58.0706 6.51776C58.5351 7.23473 59.3831 7.77579 60.1257 8.14482C59.3144 8.15804 58.3414 8.28915 57.6083 8.75945C56.7966 9.28018 56.0742 10.352 55.5664 11.2503C55.4513 11.4541 55.3456 11.6516 55.2511 11.8356C55.2447 11.6319 55.2335 11.4118 55.2153 11.1822C55.1339 10.1572 54.9078 8.87825 54.2885 8.05671C53.8312 7.45012 53.0647 6.97153 52.3613 6.626C53.144 6.62123 54.0441 6.49983 54.7161 6.05936C55.1112 5.80037 55.4846 5.39364 55.8184 4.94777C56.1546 4.49875 56.4622 3.99405 56.7221 3.52366C56.8759 3.24537 57.0137 2.97767 57.1316 2.73862C57.1517 2.97827 57.1783 3.24522 57.2136 3.52569C57.2777 4.03522 57.3709 4.59356 57.5067 5.11587C57.6416 5.63475 57.8228 6.13511 58.0706 6.51776Z" stroke="#F56206" stroke-width="0.531163"/>
<path d="M15.5902 41.6096C16.0546 42.3265 16.9027 42.8676 17.6452 43.2366C16.8339 43.2498 15.8609 43.3809 15.1278 43.8512C14.3161 44.372 13.5938 45.4438 13.086 46.3421C12.9708 46.5458 12.8652 46.7434 12.7706 46.9274C12.7643 46.7237 12.7531 46.5036 12.7348 46.274C12.6534 45.249 12.4273 43.97 11.808 43.1485C11.3508 42.5419 10.5842 42.0633 9.88085 41.7178C10.6635 41.713 11.5637 41.5916 12.2356 41.1512C12.6307 40.8922 13.0041 40.4854 13.3379 40.0396C13.6741 39.5905 13.9818 39.0858 14.2417 38.6155C14.3954 38.3372 14.5333 38.0695 14.6511 37.8304C14.6712 38.0701 14.6978 38.337 14.7331 38.6175C14.7972 39.127 14.8904 39.6854 15.0262 40.2077C15.1611 40.7265 15.3423 41.2269 15.5902 41.6096Z" stroke="#F56206" stroke-width="0.531163"/>
<path d="M118.383 183.128C118.848 183.845 119.696 184.386 120.438 184.755C119.627 184.768 118.654 184.9 117.921 185.37C117.109 185.891 116.387 186.962 115.879 187.861C115.764 188.064 115.658 188.262 115.564 188.446C115.557 188.242 115.546 188.022 115.528 187.793C115.446 186.768 115.22 185.489 114.601 184.667C114.144 184.06 113.377 183.582 112.674 183.236C113.456 183.232 114.357 183.11 115.029 182.67C115.424 182.411 115.797 182.004 116.131 181.558C116.467 181.109 116.775 180.604 117.035 180.134C117.188 179.856 117.326 179.588 117.444 179.349C117.464 179.589 117.491 179.856 117.526 180.136C117.59 180.646 117.683 181.204 117.819 181.726C117.954 182.245 118.135 182.745 118.383 183.128Z" stroke="#F56206" stroke-width="0.531163"/>
<circle cx="162.848" cy="59.9781" r="2.07093" stroke="#F56206" stroke-width="0.753864"/>
<circle cx="42.315" cy="62.4244" r="2.07093" stroke="#F56206" stroke-width="0.753864"/>
<defs>
<radialGradient id="paint0_radial_99_2293" cx="0" cy="0" r="1" gradientUnits="userSpaceOnUse" gradientTransform="translate(93.3867 25) rotate(90) scale(6)">
<stop stop-color="#979797"/>
<stop offset="0.565" stop-color="#313131"/>
</radialGradient>
</defs>
</svg>
