<svg width="210" height="255" viewBox="0 0 210 255" fill="none" xmlns="http://www.w3.org/2000/svg">
<path d="M35.2767 224.134C-2.6847 202.357 -2.6847 167.057 35.2767 145.286C73.2382 123.514 134.795 123.514 172.771 145.271C210.748 167.027 210.738 202.342 172.771 224.119C134.805 245.895 73.2433 245.906 35.2767 224.134Z" fill="#F5F5F5"/>
<path d="M126.042 211.549L128.413 212.913L50.6843 224.98V223.248L126.042 211.549Z" fill="#E0E0E0"/>
<path d="M104.898 187.34C92.0981 194.798 92.0981 206.892 104.898 214.35C117.698 221.808 138.446 221.808 151.241 214.35C164.036 206.892 164.041 194.798 151.241 187.34C138.441 179.882 117.693 179.876 104.898 187.34Z" fill="#E0E0E0"/>
<path d="M159.568 188.638C163.212 188.321 167.252 188.09 170.134 190.343C171.489 191.384 172.434 192.858 173.46 194.222C174.569 195.685 175.803 197.05 177.149 198.299C177.832 198.986 178.624 199.556 179.492 199.987C180.464 200.388 181.51 200.575 182.561 200.535C186.952 200.535 191.03 198.113 194.411 195.285C195.317 194.529 196.239 193.642 196.48 192.502C196.876 190.6 195.262 188.874 193.621 187.833C188.999 184.896 183.247 183.208 177.994 181.805C172.388 180.229 166.588 179.447 160.764 179.482C157.14 179.551 153.534 180.016 150.011 180.868C147.882 181.383 144.797 182.024 143.15 183.57C142.774 183.89 142.499 184.311 142.356 184.783C142.213 185.255 142.208 185.758 142.343 186.233C142.755 187.329 144.023 187.762 145.148 188.03C149.836 189.137 154.82 189.049 159.568 188.638Z" fill="#E0E0E0"/>
<path d="M39.0588 83.1619V85.2552C39.0588 85.9183 39.5254 86.1868 40.0962 85.858L42.1217 84.6853V80.1973L40.0962 81.37C39.7943 81.5661 39.5429 81.8306 39.3627 82.1419C39.1824 82.4533 39.0783 82.8028 39.0588 83.1619Z" fill="#E0E0E0"/>
<path d="M42.1219 151.891L33.669 156.762C33.366 156.959 33.114 157.224 32.9336 157.536C32.7533 157.849 32.6498 158.199 32.6316 158.56V160.653C32.6316 161.316 33.0927 161.579 33.669 161.25L42.1219 156.379V151.891Z" fill="#E0E0E0"/>
<path d="M32.6316 81.394V83.4928C32.6316 84.1504 33.0927 84.4189 33.669 84.0901L42.1219 79.2185V74.7305L33.669 79.6021C33.3667 79.7979 33.1152 80.0623 32.9348 80.3737C32.7545 80.6852 32.6506 81.0348 32.6316 81.394Z" fill="#E0E0E0"/>
<path d="M37.2037 105.082L27.6036 110.617C27.3013 110.813 27.0497 111.077 26.8694 111.389C26.6891 111.7 26.5852 112.05 26.5662 112.409V114.508C26.5662 115.165 27.0272 115.434 27.6036 115.105L37.2037 109.57C37.5067 109.374 37.7587 109.109 37.939 108.796C38.1194 108.484 38.2229 108.133 38.2411 107.773V105.68C38.2411 105.028 37.78 104.759 37.2037 105.082Z" fill="#E0E0E0"/>
<path d="M42.1219 129.842L33.669 134.719C33.3667 134.915 33.1152 135.179 32.9348 135.491C32.7545 135.802 32.6506 136.152 32.6316 136.511V138.61C32.6316 139.267 33.0927 139.536 33.669 139.207L42.1219 134.335V129.842Z" fill="#E0E0E0"/>
<path d="M32.6316 59.3487V61.4475C32.6316 62.1051 33.0927 62.3736 33.669 62.0448L42.1219 57.1677V52.6797L33.669 57.5568C33.3667 57.7526 33.1152 58.017 32.9348 58.3284C32.7545 58.6399 32.6506 58.9895 32.6316 59.3487Z" fill="#E0E0E0"/>
<path d="M42.1219 184.957L33.669 189.834C33.3667 190.03 33.1152 190.294 32.9348 190.606C32.7545 190.917 32.6506 191.267 32.6316 191.626V193.725C32.6316 194.382 33.0927 194.651 33.669 194.322L42.1219 189.451V184.957Z" fill="#E0E0E0"/>
<path d="M23.0095 125.623V127.722C23.0095 128.379 23.4706 128.648 24.0469 128.319L33.6525 122.779C33.9544 122.583 34.2058 122.318 34.3861 122.007C34.5663 121.695 34.6704 121.346 34.6899 120.987V118.893C34.6899 118.23 34.2233 117.962 33.6525 118.291L24.0469 123.831C23.7446 124.027 23.4931 124.291 23.3128 124.602C23.1325 124.914 23.0286 125.264 23.0095 125.623Z" fill="#E0E0E0"/>
<path d="M32.6316 103.439V105.532C32.6316 106.195 33.0927 106.463 33.669 106.129L42.1219 101.258V96.7695L33.669 101.641C33.366 101.837 33.114 102.103 32.9336 102.415C32.7533 102.728 32.6498 103.078 32.6316 103.439Z" fill="#E0E0E0"/>
<path d="M31.8137 139.057V136.958C31.8137 136.301 31.3471 136.032 30.7763 136.361L21.1817 141.907C20.8799 142.104 20.6288 142.37 20.4486 142.682C20.2685 142.994 20.1642 143.344 20.1443 143.704V145.797C20.1443 146.461 20.6109 146.729 21.1817 146.395L30.7873 140.86C31.088 140.661 31.3377 140.394 31.516 140.081C31.6943 139.768 31.7963 139.417 31.8137 139.057Z" fill="#E0E0E0"/>
<path d="M27.6036 192.278L37.2037 186.732C37.5059 186.536 37.7575 186.272 37.9378 185.96C38.1181 185.649 38.222 185.299 38.2411 184.94V182.841C38.2411 182.184 37.78 181.915 37.2037 182.244L27.6036 187.779C27.3012 187.976 27.0496 188.241 26.8694 188.553C26.6891 188.866 26.5852 189.216 26.5662 189.576V191.664C26.5662 192.343 27.0272 192.612 27.6036 192.278Z" fill="#E0E0E0"/>
<path d="M31.8632 53.1336L22.2796 58.6683C21.9766 58.8646 21.7246 59.1299 21.5442 59.4423C21.3639 59.7548 21.2604 60.1055 21.2422 60.4657V62.559C21.2422 63.222 21.7033 63.4851 22.2796 63.1563L31.8852 57.6216C32.1873 57.4243 32.4386 57.1588 32.6188 56.8465C32.799 56.5343 32.9031 56.1841 32.9226 55.8242V53.7309C32.9006 53.0678 32.4341 52.8048 31.8632 53.1336Z" fill="#E0E0E0"/>
<path d="M37.2037 60.9976L27.6036 66.5377C27.3007 66.7328 27.0486 66.9971 26.8682 67.3087C26.6879 67.6202 26.5843 67.9702 26.5662 68.3296V70.4284C26.5662 71.086 27.0272 71.3545 27.6036 71.0257L37.2037 65.4856C37.5065 65.2904 37.7586 65.0262 37.939 64.7146C38.1193 64.403 38.2229 64.0531 38.2411 63.6937V61.5949C38.2411 60.9373 37.78 60.6962 37.2037 60.9976Z" fill="#E0E0E0"/>
<path d="M37.2037 83.0498L27.6036 88.5845C27.3013 88.7802 27.0497 89.0447 26.8694 89.3561C26.6891 89.6675 26.5852 90.0172 26.5662 90.3764V92.4806C26.5662 93.1382 27.0272 93.4067 27.6036 93.078L37.2037 87.5488C37.506 87.3518 37.7576 87.0864 37.9378 86.774C38.1181 86.4617 38.222 86.1113 38.2411 85.7514V83.6581C38.2411 82.984 37.78 82.7155 37.2037 83.0498Z" fill="#E0E0E0"/>
<path d="M27.6036 148.186L37.2037 142.651C37.506 142.454 37.7576 142.189 37.9378 141.877C38.1181 141.564 38.222 141.214 38.2411 140.854V138.761C38.2411 138.098 37.78 137.829 37.2037 138.163L27.6036 143.698C27.3013 143.894 27.0497 144.158 26.8694 144.47C26.6891 144.781 26.5852 145.131 26.5662 145.49V147.589C26.5662 148.246 27.0272 148.515 27.6036 148.186Z" fill="#E0E0E0"/>
<path d="M42.1219 162.912L33.669 167.789C33.3667 167.985 33.1152 168.249 32.9348 168.561C32.7545 168.872 32.6506 169.222 32.6316 169.581V171.68C32.6316 172.337 33.0927 172.606 33.669 172.277L42.1219 167.4V162.912Z" fill="#E0E0E0"/>
<path d="M131.849 36.5522V38.651C131.83 39.0102 131.726 39.3598 131.546 39.6713C131.365 39.9827 131.114 40.2471 130.812 40.4429L128.764 41.6101V37.1331L130.79 35.9659C131.388 35.6261 131.849 35.8946 131.849 36.5522Z" fill="#E0E0E0"/>
<path d="M128.764 108.787L137.223 103.916C137.771 103.587 138.26 103.856 138.26 104.513V106.612C138.24 106.971 138.135 107.32 137.955 107.631C137.775 107.942 137.524 108.207 137.223 108.404L128.764 113.303V108.787Z" fill="#E0E0E0"/>
<path d="M138.282 27.3523V29.462C138.262 29.8219 138.158 30.1721 137.978 30.4844C137.798 30.7966 137.547 31.0621 137.245 31.2594L128.764 36.1146V31.654L137.223 26.7824C137.815 26.4262 138.282 26.6892 138.282 27.3523Z" fill="#E0E0E0"/>
<path d="M133.704 56.3132L143.31 50.7786C143.859 50.4443 144.347 50.7128 144.347 51.3759V53.4692C144.327 53.829 144.223 54.179 144.043 54.4912C143.863 54.8034 143.612 55.069 143.31 55.2666L133.704 60.8122C133.156 61.141 132.667 60.8725 132.667 60.2149V58.1161C132.686 57.7553 132.789 57.404 132.97 57.0907C133.15 56.7775 133.402 56.5111 133.704 56.3132Z" fill="#E0E0E0"/>
<path d="M128.764 86.7435L137.223 81.8719C137.771 81.5431 138.26 81.8061 138.26 82.4692V84.5625C138.24 84.9224 138.136 85.2726 137.956 85.5848C137.776 85.8971 137.525 86.1626 137.223 86.3599L128.764 91.2315V86.7435Z" fill="#E0E0E0"/>
<path d="M138.282 5.30558V7.39889C138.26 7.75675 138.155 8.10462 137.975 8.41477C137.795 8.72493 137.545 8.98879 137.245 9.18532L128.764 14.0679V9.57987L137.223 4.70827C137.815 4.374 138.282 4.64251 138.282 5.30558Z" fill="#E0E0E0"/>
<path d="M128.764 141.859L137.223 136.987C137.771 136.658 138.26 136.921 138.26 137.584V139.678C138.24 140.038 138.136 140.388 137.956 140.7C137.776 141.012 137.525 141.278 137.223 141.475L128.764 146.347V141.859Z" fill="#E0E0E0"/>
<path d="M147.904 60.4819V62.5807C147.884 62.9396 147.779 63.2887 147.599 63.5999C147.419 63.9112 147.168 64.1758 146.867 64.3726L137.261 69.9127C136.685 70.2415 136.224 69.973 136.224 69.3099V67.2166C136.243 66.8567 136.347 66.5063 136.527 66.194C136.707 65.8816 136.959 65.6162 137.261 65.4192L146.867 59.8846C147.426 59.5558 147.904 59.8243 147.904 60.4819Z" fill="#E0E0E0"/>
<path d="M138.282 49.3979V51.4967C138.262 51.8556 138.157 52.2047 137.977 52.516C137.797 52.8272 137.546 53.0918 137.245 53.2886L128.764 58.1657V53.6722L137.223 48.8006C137.815 48.4718 138.282 48.7403 138.282 49.3979Z" fill="#E0E0E0"/>
<path d="M139.094 84.0775V81.9842C139.114 81.6245 139.218 81.2744 139.399 80.9622C139.579 80.65 139.83 80.3844 140.132 80.1868L149.737 74.6521C150.286 74.3234 150.775 74.5919 150.775 75.2494V77.3482C150.756 77.7075 150.652 78.0571 150.471 78.3685C150.291 78.68 150.039 78.9444 149.737 79.1402L140.132 84.6803C139.561 85.0091 139.094 84.7406 139.094 84.0775Z" fill="#E0E0E0"/>
<path d="M143.31 132.439L133.704 137.963C133.156 138.292 132.667 138.029 132.667 137.366V135.272C132.686 134.912 132.791 134.562 132.971 134.25C133.151 133.938 133.402 133.672 133.704 133.475L143.31 127.94C143.859 127.611 144.347 127.874 144.347 128.538V130.631C144.33 130.993 144.226 131.345 144.046 131.659C143.866 131.974 143.614 132.241 143.31 132.439Z" fill="#E0E0E0"/>
<path d="M133.704 12.2333L143.31 6.69316C143.859 6.36437 144.347 6.63288 144.347 7.29047V9.38925C144.327 9.74816 144.223 10.0973 144.042 10.4085C143.862 10.7198 143.611 10.9844 143.31 11.1812L133.704 16.7213C133.156 17.0501 132.667 16.7816 132.667 16.1185V14.0252C132.686 13.6661 132.791 13.3167 132.971 13.0053C133.151 12.6939 133.402 12.4294 133.704 12.2333Z" fill="#E0E0E0"/>
<path d="M133.704 34.2781L143.31 28.738C143.859 28.4092 144.347 28.6777 144.347 29.3407V31.434C144.328 31.7932 144.224 32.1426 144.044 32.454C143.863 32.7654 143.612 33.0299 143.31 33.226L133.704 38.7771C133.156 39.1059 132.667 38.8373 132.667 38.1798V36.081C132.686 35.7202 132.789 35.3689 132.97 35.0556C133.15 34.7423 133.402 34.4759 133.704 34.2781Z" fill="#E0E0E0"/>
<path d="M143.31 88.3412L133.704 93.8813C133.156 94.2101 132.667 93.9416 132.667 93.284V91.1852C132.687 90.8263 132.792 90.4772 132.972 90.166C133.152 89.8547 133.403 89.5901 133.704 89.3933L143.31 83.8532C143.859 83.5244 144.347 83.7929 144.347 84.456V86.5493C144.328 86.9084 144.224 87.2578 144.044 87.5692C143.863 87.8806 143.612 88.1451 143.31 88.3412Z" fill="#E0E0E0"/>
<path d="M128.764 119.813L137.245 114.947C137.793 114.612 138.282 114.881 138.282 115.544V117.637C138.262 117.997 138.158 118.347 137.978 118.659C137.797 118.971 137.546 119.237 137.245 119.435L128.764 124.301V119.813Z" fill="#E0E0E0"/>
<path d="M50.6846 142.684L119.977 182.649V15.4473L50.6846 55.4064V142.684Z" fill="#F07C33"/>
<path opacity="0.4" d="M50.6846 142.684L119.977 182.649V15.4473L50.6846 55.4064V142.684Z" fill="black"/>
<path d="M119.977 182.648L50.6846 142.684V222.569L119.977 182.648Z" fill="#E0E0E0"/>
<path d="M119.976 182.648L123.215 184.501V13.5781L119.976 15.4468V182.648Z" fill="#F07C33"/>
<path opacity="0.4" d="M119.976 182.648L123.215 184.501V13.5781L119.976 15.4468V182.648Z" fill="white"/>
<path opacity="0.1" d="M119.976 182.648L123.215 184.501V13.5781L119.976 15.4468V182.648Z" fill="black"/>
<path d="M123.215 184.501L128.786 181.295V1.8457L45.3108 49.9589L45.3163 229.403L50.6844 226.306V55.4059L123.215 13.5781V184.501Z" fill="#F07C33"/>
<path opacity="0.7" d="M123.215 184.501L128.786 181.295V1.8457L45.3108 49.9589L45.3163 229.403L50.6844 226.306V55.4059L123.215 13.5781V184.501Z" fill="white"/>
<path d="M128.786 1.84671L45.3111 49.9599L42.1221 48.1132L125.597 0L128.786 1.84671Z" fill="#F07C33"/>
<path opacity="0.85" d="M128.786 1.84671L45.3111 49.9599L42.1221 48.1132L125.597 0L128.786 1.84671Z" fill="white"/>
<path d="M45.3108 229.404V49.96L42.1218 48.1133L42.0669 227.535L45.3108 229.404Z" fill="#F07C33"/>
<path opacity="0.6" d="M42.1218 48.1133L42.0669 227.535L45.3108 229.404V49.96" fill="white"/>
<path d="M159.628 39.3233C160.242 39.2718 160.859 39.3087 161.462 39.4329C162.045 39.5403 162.603 39.7539 163.108 40.0631C163.588 40.3574 163.998 40.7519 164.31 41.2193C164.635 41.7217 164.824 42.2993 164.859 42.8962C164.909 43.3661 164.864 43.8411 164.728 44.2935C164.598 44.6831 164.413 45.0521 164.179 45.3895C163.948 45.717 163.691 46.0249 163.41 46.3101L162.609 47.1102C162.368 47.3511 162.149 47.6134 161.956 47.8938C161.777 48.141 161.672 48.4336 161.654 48.7377C161.642 48.8788 161.591 49.0136 161.506 49.1268C161.467 49.1818 161.416 49.2272 161.357 49.2595C161.298 49.2918 161.233 49.3102 161.165 49.3131L159.656 49.4391C159.584 49.4454 159.512 49.4375 159.443 49.4159C159.374 49.3943 159.31 49.3593 159.255 49.3131C159.198 49.2725 159.151 49.2181 159.121 49.1548C159.09 49.0916 159.076 49.0216 159.079 48.9514C159.053 48.4794 159.126 48.0072 159.294 47.565C159.446 47.1747 159.649 46.8062 159.897 46.4691C160.136 46.1407 160.405 45.8344 160.699 45.5539C160.99 45.2744 161.248 45.0059 161.5 44.7593C161.725 44.5322 161.925 44.2825 162.098 44.0141C162.249 43.7819 162.317 43.5058 162.29 43.2304C162.274 42.9874 162.199 42.7521 162.07 42.5449C161.942 42.3376 161.765 42.1648 161.555 42.0413C161.034 41.7407 160.428 41.6194 159.831 41.6961C159.294 41.7314 158.78 41.9321 158.362 42.2706C157.943 42.6092 157.64 43.0689 157.493 43.5866C157.454 43.7116 157.393 43.8285 157.312 43.9319C157.264 43.9774 157.207 44.0129 157.145 44.0364C157.082 44.0599 157.016 44.071 156.95 44.0689L155.347 44.2059C155.233 44.2148 155.12 44.1816 155.029 44.1127C154.983 44.0754 154.945 44.0287 154.919 43.9758C154.892 43.9229 154.877 43.865 154.875 43.8058C154.856 43.3039 154.962 42.805 155.182 42.3537C155.425 41.8337 155.757 41.3607 156.165 40.9563C156.611 40.5113 157.126 40.1412 157.691 39.8603C158.296 39.5578 158.954 39.3754 159.628 39.3233ZM161.357 50.5022C161.428 50.4942 161.499 50.5013 161.566 50.523C161.633 50.5448 161.695 50.5807 161.747 50.6283C161.801 50.6725 161.846 50.7275 161.878 50.7897C161.91 50.8519 161.929 50.9201 161.934 50.9899L162.082 52.7325C162.091 52.8736 162.046 53.0127 161.955 53.121C161.864 53.2292 161.734 53.2982 161.593 53.3134L159.886 53.4504C159.816 53.4588 159.745 53.4519 159.678 53.4301C159.61 53.4084 159.549 53.3723 159.497 53.3244C159.441 53.2811 159.395 53.2265 159.362 53.1641C159.329 53.1018 159.309 53.0331 159.305 52.9627L159.162 51.2201C159.155 51.1501 159.163 51.0794 159.185 51.0125C159.206 50.9456 159.242 50.8838 159.288 50.831C159.379 50.7228 159.509 50.654 159.65 50.6392L161.357 50.5022Z" fill="#F07C33"/>
<path d="M171.924 58.2569C172.388 58.3899 172.831 58.5873 173.241 58.8433C173.635 59.0825 173.983 59.3907 174.267 59.7529C174.532 60.1045 174.719 60.5079 174.816 60.9366C174.896 61.3493 174.889 61.7741 174.794 62.1838C174.7 62.5934 174.52 62.9787 174.267 63.3148C174.065 63.5689 173.826 63.7922 173.559 63.9779C173.299 64.1562 173.023 64.3121 172.736 64.4437L171.924 64.8163C171.68 64.9278 171.447 65.0598 171.226 65.2109C171.029 65.3488 170.873 65.5384 170.776 65.7589C170.726 65.8588 170.65 65.9438 170.557 66.0054C170.513 66.0353 170.463 66.0548 170.411 66.0624C170.359 66.07 170.305 66.0655 170.255 66.0493L169.108 65.7315C168.999 65.6992 168.907 65.6267 168.85 65.5287C168.821 65.4816 168.803 65.4286 168.797 65.3735C168.791 65.3185 168.798 65.2629 168.817 65.2109C168.932 64.8569 169.119 64.5305 169.366 64.2519C169.585 64.0029 169.836 63.7836 170.112 63.5998C170.381 63.4276 170.664 63.2773 170.958 63.1504C171.248 63.0244 171.506 62.9038 171.77 62.7833C171.997 62.6784 172.212 62.5498 172.412 62.3997C172.593 62.2643 172.721 62.0707 172.774 61.8517C172.831 61.6651 172.84 61.4675 172.802 61.2764C172.763 61.0853 172.679 60.9065 172.555 60.7557C172.254 60.3907 171.841 60.1346 171.38 60.0269C170.974 59.9069 170.541 59.9146 170.139 60.0489C169.738 60.1833 169.387 60.4377 169.135 60.7777C169.073 60.8586 168.997 60.9273 168.91 60.9804C168.813 61.0203 168.705 61.0203 168.608 60.9804L167.39 60.6352C167.346 60.625 167.306 60.6062 167.27 60.5798C167.234 60.5534 167.204 60.5201 167.181 60.4817C167.157 60.4419 167.141 60.3973 167.136 60.351C167.13 60.3047 167.134 60.2578 167.148 60.2132C167.274 59.8378 167.491 59.499 167.779 59.2269C168.098 58.9119 168.469 58.6559 168.877 58.4706C169.329 58.2662 169.811 58.1366 170.304 58.087C170.85 58.0347 171.401 58.0925 171.924 58.2569ZM170.112 66.9644C170.165 66.9791 170.215 67.004 170.258 67.0379C170.302 67.0717 170.338 67.1138 170.365 67.1617C170.394 67.2098 170.412 67.2635 170.419 67.3192C170.425 67.375 170.42 67.4315 170.403 67.485L170.03 68.8057C169.999 68.9131 169.927 69.0041 169.829 69.0585C169.732 69.113 169.616 69.1265 169.508 69.0961L168.219 68.7344C168.112 68.7013 168.022 68.6292 167.967 68.5325C167.912 68.4359 167.896 68.322 167.922 68.2138L168.295 66.8932C168.312 66.8376 168.339 66.7859 168.375 66.7409C168.412 66.6959 168.457 66.6585 168.508 66.631C168.559 66.6035 168.615 66.5864 168.673 66.5806C168.731 66.5748 168.789 66.5805 168.844 66.5973L170.112 66.9644Z" fill="#F07C33"/>
<g opacity="0.2">
<path d="M171.924 58.2569C172.388 58.3899 172.831 58.5873 173.241 58.8433C173.635 59.0825 173.983 59.3907 174.267 59.7529C174.532 60.1045 174.719 60.5079 174.816 60.9366C174.896 61.3493 174.889 61.7741 174.794 62.1838C174.7 62.5934 174.52 62.9787 174.267 63.3148C174.065 63.5689 173.826 63.7922 173.559 63.9779C173.299 64.1562 173.023 64.3121 172.736 64.4437L171.924 64.8163C171.68 64.9278 171.447 65.0598 171.226 65.2109C171.029 65.3488 170.873 65.5384 170.776 65.7589C170.726 65.8588 170.65 65.9438 170.557 66.0054C170.513 66.0353 170.463 66.0548 170.411 66.0624C170.359 66.07 170.305 66.0655 170.255 66.0493L169.108 65.7315C168.999 65.6992 168.907 65.6267 168.85 65.5287C168.821 65.4816 168.803 65.4286 168.797 65.3735C168.791 65.3185 168.798 65.2629 168.817 65.2109C168.932 64.8569 169.119 64.5305 169.366 64.2519C169.585 64.0029 169.836 63.7836 170.112 63.5998C170.381 63.4276 170.664 63.2773 170.958 63.1504C171.248 63.0244 171.506 62.9038 171.77 62.7833C171.997 62.6784 172.212 62.5498 172.412 62.3997C172.593 62.2643 172.721 62.0707 172.774 61.8517C172.831 61.6651 172.84 61.4675 172.802 61.2764C172.763 61.0853 172.679 60.9065 172.555 60.7557C172.254 60.3907 171.841 60.1346 171.38 60.0269C170.974 59.9069 170.541 59.9146 170.139 60.0489C169.738 60.1833 169.387 60.4377 169.135 60.7777C169.073 60.8586 168.997 60.9273 168.91 60.9804C168.813 61.0203 168.705 61.0203 168.608 60.9804L167.39 60.6352C167.346 60.625 167.306 60.6062 167.27 60.5798C167.234 60.5534 167.204 60.5201 167.181 60.4817C167.157 60.4419 167.141 60.3973 167.136 60.351C167.13 60.3047 167.134 60.2578 167.148 60.2132C167.274 59.8378 167.491 59.499 167.779 59.2269C168.098 58.9119 168.469 58.6559 168.877 58.4706C169.329 58.2662 169.811 58.1366 170.304 58.087C170.85 58.0347 171.401 58.0925 171.924 58.2569ZM170.112 66.9644C170.165 66.9791 170.215 67.004 170.258 67.0379C170.302 67.0717 170.338 67.1138 170.365 67.1617C170.394 67.2098 170.412 67.2635 170.419 67.3192C170.425 67.375 170.42 67.4315 170.403 67.485L170.03 68.8057C169.999 68.9131 169.927 69.0041 169.829 69.0585C169.732 69.113 169.616 69.1265 169.508 69.0961L168.219 68.7344C168.112 68.7013 168.022 68.6292 167.967 68.5325C167.912 68.4359 167.896 68.322 167.922 68.2138L168.295 66.8932C168.312 66.8376 168.339 66.7859 168.375 66.7409C168.412 66.6959 168.457 66.6585 168.508 66.631C168.559 66.6035 168.615 66.5864 168.673 66.5806C168.731 66.5748 168.789 66.5805 168.844 66.5973L170.112 66.9644Z" fill="black"/>
</g>
<path d="M177.868 52.0162C177.956 52.0792 178.017 52.1732 178.038 52.2792C178.049 52.3318 178.05 52.3861 178.039 52.4388C178.029 52.4915 178.008 52.5416 177.978 52.5861L177.226 53.6821C177.196 53.7273 177.158 53.7658 177.112 53.7951C177.067 53.8243 177.016 53.8437 176.962 53.8519C176.91 53.8627 176.855 53.8629 176.802 53.8526C176.75 53.8422 176.7 53.8215 176.655 53.7917L175.557 53.0629C175.469 52.9998 175.408 52.9058 175.387 52.7998C175.375 52.7473 175.375 52.6929 175.385 52.6402C175.396 52.5874 175.417 52.5373 175.447 52.4929L176.199 51.397C176.261 51.314 176.351 51.2569 176.453 51.2366C176.554 51.2164 176.659 51.2345 176.748 51.2874L177.868 52.0162ZM182.199 44.5197C182.591 44.7805 182.943 45.0982 183.242 45.4623C183.533 45.8039 183.76 46.1957 183.911 46.6185C184.059 47.0231 184.115 47.4555 184.076 47.8844C184.034 48.3406 183.871 48.7775 183.604 49.1502C183.41 49.4559 183.156 49.7188 182.857 49.9229C182.592 50.0941 182.304 50.2269 182.001 50.3174C181.705 50.405 181.402 50.4655 181.095 50.4983L180.234 50.5969C179.973 50.6237 179.716 50.6751 179.465 50.7503C179.243 50.8148 179.042 50.9378 178.883 51.1065C178.81 51.1873 178.715 51.2446 178.609 51.2709C178.559 51.2847 178.506 51.2875 178.455 51.2789C178.404 51.2704 178.355 51.2509 178.313 51.2216L177.352 50.575C177.263 50.5097 177.2 50.4143 177.176 50.3065C177.161 50.2547 177.159 50.2001 177.171 50.1474C177.182 50.0948 177.207 50.0459 177.242 50.0051C177.455 49.7137 177.723 49.4677 178.033 49.2817C178.313 49.1178 178.614 48.9925 178.927 48.9091C179.227 48.8275 179.534 48.7743 179.844 48.7502C180.151 48.7502 180.437 48.6899 180.706 48.657C180.948 48.629 181.188 48.5757 181.419 48.4981C181.621 48.4296 181.795 48.2967 181.913 48.12C182.019 47.9673 182.086 47.7912 182.108 47.6068C182.13 47.4225 182.106 47.2356 182.039 47.0624C181.877 46.6319 181.573 46.269 181.178 46.0322C180.84 45.7952 180.438 45.668 180.025 45.668C179.612 45.668 179.21 45.7952 178.872 46.0322C178.79 46.0877 178.699 46.1285 178.603 46.1527C178.502 46.161 178.402 46.1296 178.323 46.0651L177.297 45.3746C177.261 45.351 177.229 45.3204 177.205 45.2847C177.18 45.249 177.163 45.2088 177.154 45.1664C177.143 45.1221 177.143 45.0759 177.152 45.0313C177.162 44.9867 177.181 44.9448 177.209 44.9088C177.439 44.6021 177.741 44.3557 178.087 44.191C178.482 43.9979 178.907 43.8755 179.344 43.8293C179.825 43.7766 180.311 43.8025 180.783 43.906C181.291 44.0152 181.772 44.2238 182.199 44.5197Z" fill="#F07C33"/>
<g opacity="0.6">
<path d="M177.868 52.0162C177.956 52.0792 178.017 52.1732 178.038 52.2792C178.049 52.3318 178.05 52.3861 178.039 52.4388C178.029 52.4915 178.008 52.5416 177.978 52.5861L177.226 53.6821C177.196 53.7273 177.158 53.7658 177.112 53.7951C177.067 53.8243 177.016 53.8437 176.962 53.8519C176.91 53.8627 176.855 53.8629 176.803 53.8526C176.75 53.8422 176.7 53.8215 176.655 53.7917L175.557 53.0629C175.469 52.9998 175.409 52.9058 175.387 52.7998C175.376 52.7473 175.375 52.6929 175.386 52.6402C175.396 52.5874 175.417 52.5373 175.448 52.4929L176.2 51.397C176.261 51.314 176.351 51.2569 176.453 51.2366C176.554 51.2164 176.66 51.2345 176.748 51.2874L177.868 52.0162ZM182.199 44.5197C182.591 44.7805 182.943 45.0982 183.242 45.4623C183.534 45.8039 183.76 46.1957 183.911 46.6185C184.059 47.0231 184.116 47.4555 184.076 47.8844C184.034 48.3406 183.871 48.7775 183.604 49.1502C183.411 49.4559 183.157 49.7188 182.858 49.9229C182.592 50.0941 182.304 50.2269 182.001 50.3174C181.706 50.405 181.402 50.4655 181.096 50.4983L180.234 50.5969C179.973 50.6237 179.716 50.6751 179.465 50.7503C179.243 50.8148 179.042 50.9378 178.884 51.1065C178.81 51.1873 178.715 51.2446 178.609 51.2709C178.559 51.2847 178.507 51.2875 178.456 51.2789C178.404 51.2704 178.356 51.2509 178.313 51.2216L177.352 50.575C177.263 50.5097 177.2 50.4143 177.177 50.3065C177.162 50.2547 177.16 50.2001 177.171 50.1474C177.183 50.0948 177.207 50.0459 177.242 50.0051C177.455 49.7137 177.724 49.4677 178.033 49.2817C178.313 49.1178 178.614 48.9925 178.928 48.9091C179.227 48.8275 179.534 48.7743 179.844 48.7502C180.152 48.7502 180.437 48.6899 180.706 48.657C180.949 48.629 181.188 48.5757 181.419 48.4981C181.621 48.4296 181.795 48.2967 181.913 48.12C182.019 47.9673 182.086 47.7912 182.108 47.6068C182.13 47.4225 182.107 47.2356 182.04 47.0624C181.877 46.6319 181.573 46.269 181.178 46.0322C180.84 45.7952 180.438 45.668 180.025 45.668C179.613 45.668 179.21 45.7952 178.873 46.0322C178.791 46.0877 178.7 46.1285 178.604 46.1527C178.502 46.161 178.402 46.1296 178.324 46.0651L177.297 45.3746C177.261 45.351 177.23 45.3204 177.205 45.2847C177.181 45.249 177.163 45.2088 177.155 45.1664C177.144 45.1221 177.143 45.0759 177.152 45.0313C177.162 44.9867 177.181 44.9448 177.209 44.9088C177.44 44.6021 177.741 44.3557 178.088 44.191C178.482 43.9979 178.908 43.8755 179.345 43.8293C179.825 43.7766 180.311 43.8025 180.783 43.906C181.291 44.0152 181.772 44.2238 182.199 44.5197Z" fill="white"/>
</g>
<path d="M132.606 200.43C132.491 201.734 133.336 205.131 133.336 205.131C133.336 205.131 134.061 206.227 136.13 206.737L136.267 201.805L132.606 200.43Z" fill="#263238"/>
<path d="M136.108 206.744L140.181 204.683L140.631 200.732L136.191 203.9L136.108 206.744Z" fill="black"/>
<path d="M139.193 194.774L139.1 193.941C139.725 194.139 141.367 198.764 143.59 201.706C145.621 204.397 149.002 205.542 150.215 206.671C151.861 208.173 149.529 210.77 145.143 210.507C142.947 210.381 139.572 209.521 138.49 208.233C137.409 206.945 136.718 204.397 135.85 203.443C134.983 202.49 133.106 201.564 132.557 200.43C132.261 199.805 132.37 198.358 132.557 197.142C132.722 196.007 132.903 194.763 133.292 194.829C133.292 194.961 133.386 195.52 133.386 195.52C133.518 196.068 134.248 196.648 136.525 196.402C137.585 196.281 139.385 195.898 139.193 194.774Z" fill="#455A64"/>
<path d="M94.2828 175.223C93.5857 176.182 92.3562 182.894 92.3562 182.894C92.3562 182.894 93.9644 185.24 94.8921 185.952L97.8725 179.607L94.2828 175.223Z" fill="#263238"/>
<path d="M94.8921 185.903L100.359 184.654L102.39 180.445L96.6979 182.029L94.8921 185.903Z" fill="black"/>
<path d="M98.3556 170.947C98.0427 170.712 97.5926 171.32 96.5003 172.295C95.7373 172.98 94.0742 173.632 94.0742 175.583C94.1017 176.991 95.0128 178.729 95.913 180.186C96.8132 181.644 96.9449 182.959 96.9394 185.025C96.9394 187.535 96.4784 189.064 99.5631 191.294C102.033 193.075 107.05 193.404 108.153 192.39C110.041 190.631 105.634 188.209 104.915 184.598C103.927 179.611 103.817 178.783 103.954 175.282L98.3556 170.947Z" fill="#455A64"/>
<path d="M146.625 109.716C144.221 111.015 136.921 111.36 126.678 109.168L127.891 138.759C127.891 138.759 118.917 145.083 116.14 148.585C113.362 152.086 100.101 168.909 100.101 168.909L98.2677 171.025C97.1315 172.34 97.7188 174.121 99.0362 175.25C100.304 176.291 101.956 177.031 103.197 175.951L104.706 174.641C104.706 174.641 134.379 151.801 135.444 150.344C136.509 148.886 139.012 145.269 141.701 137.636C145.198 127.849 145.78 120.752 146.625 109.716Z" fill="#FFA8A7"/>
<path d="M146.625 109.715C140.137 112.69 127.117 111.655 127.117 111.655L127.716 138.703C124.434 140.697 121.362 143.018 118.549 145.63C114.663 149.367 108.735 157.138 108.735 157.138C110.771 162.842 116.551 165.505 116.551 165.505C116.551 165.505 128.72 156.995 135.526 152.184C139.089 149.663 141.767 148.26 142.838 144.167C143.68 141.033 144.328 137.85 144.781 134.637C145.368 131.103 145.642 127.081 145.983 124.11C146.563 119.335 146.777 114.523 146.625 109.715Z" fill="#F07C33"/>
<path opacity="0.4" d="M146.625 109.715C140.137 112.69 127.117 111.655 127.117 111.655L127.716 138.703C124.434 140.697 121.362 143.018 118.549 145.63C114.663 149.367 108.735 157.138 108.735 157.138C110.771 162.842 116.551 165.505 116.551 165.505C116.551 165.505 128.72 156.995 135.526 152.184C139.089 149.663 141.767 148.26 142.838 144.167C143.68 141.033 144.328 137.85 144.781 134.637C145.368 131.103 145.642 127.081 145.983 124.11C146.563 119.335 146.777 114.523 146.625 109.715Z" fill="black"/>
<path opacity="0.1" d="M135.801 144.804L134.764 129.854L130.921 126.287L127.628 135.082L127.705 138.721C125.579 140.015 123.535 141.439 121.585 142.984L122.134 144.305L125.257 151.84C125.257 151.84 124.159 156.98 124.62 159.818C128.215 157.298 132.305 154.421 135.373 152.256L135.801 144.804Z" fill="black"/>
<path d="M139.413 195.421V194.807C138.94 189.278 139.703 158.881 139.67 150.673C139.632 141.795 138.024 120.27 138.024 120.27C138.024 120.27 143.282 113.415 146.663 109.716C143.463 113.371 127.326 111.519 126.354 104.488C125.032 107.256 120.344 110.122 119.927 119.229C119.378 130.841 127.611 151.374 127.611 151.374C127.299 152.925 125.888 159.424 126.717 165.424C128.023 174.894 132.711 191.635 133.21 193.92L133.506 195.865C134.538 197.142 138.672 196.945 139.413 195.421Z" fill="#FFA8A7"/>
<path d="M139.786 134.425L139.314 122.298C139.314 122.298 144.204 121.032 146.186 116.922C146.556 114.539 146.703 112.126 146.625 109.716C146.625 109.716 142.349 111.7 136.339 110.231C132.55 109.222 129.091 107.243 126.305 104.488C126.305 104.488 125.152 105.617 122.787 109.141C121.656 110.828 119.746 115.169 119.581 118.566C119.202 126.304 121.678 134.567 121.678 134.567C122.94 140.628 126.772 151.659 126.772 151.659C126.772 151.659 125.312 159.692 126.047 165.452C126.783 171.211 129.115 177.721 129.115 177.721C129.115 177.721 135.62 179.913 139.901 177.37C139.901 177.37 140.099 157.342 140.176 149.527C140.252 141.713 139.786 134.425 139.786 134.425Z" fill="#F07C33"/>
<path opacity="0.3" d="M139.786 134.425L139.314 122.298C139.314 122.298 144.204 121.032 146.186 116.922C146.556 114.539 146.703 112.126 146.625 109.716C146.625 109.716 142.349 111.7 136.339 110.231C132.55 109.222 129.091 107.243 126.305 104.488C126.305 104.488 125.152 105.617 122.787 109.141C121.656 110.828 119.746 115.169 119.581 118.566C119.202 126.304 121.678 134.567 121.678 134.567C122.94 140.628 126.772 151.659 126.772 151.659C126.772 151.659 125.312 159.692 126.047 165.452C126.783 171.211 129.115 177.721 129.115 177.721C129.115 177.721 135.62 179.913 139.901 177.37C139.901 177.37 140.099 157.342 140.176 149.527C140.252 141.713 139.786 134.425 139.786 134.425Z" fill="black"/>
<path d="M161.829 83.6095C162.572 82.7692 163.007 81.7013 163.061 80.5817C163.114 79.4621 162.785 78.3576 162.126 77.4501C159.87 73.9265 154.551 75.302 154.551 75.302L153.124 73.0169C153.661 72.8753 154.22 72.8418 154.771 72.9182C155.767 72.9613 156.762 72.8201 157.707 72.5018C158.725 72.2233 159.611 71.5919 160.205 70.7208C160.488 70.2804 160.615 69.7583 160.568 69.2372C160.52 68.7161 160.299 68.2258 159.941 67.8439C160.469 67.8476 160.992 67.7391 161.474 67.5256C161.957 67.3121 162.389 66.9984 162.741 66.6056C163.093 66.2127 163.357 65.7496 163.516 65.2469C163.675 64.7442 163.725 64.2136 163.663 63.6902C163.642 63.371 163.525 63.0655 163.328 62.8134C163.04 62.563 162.695 62.3878 162.323 62.3037C161.319 61.9572 160.403 61.3962 159.639 60.6598C158.119 59.2076 157.477 57.5089 155.38 56.1389C153.599 54.9703 151.512 54.3527 149.38 54.3634C146.971 54.3634 144.803 55.0539 143.167 57.0431C140.477 57.0431 136.981 58.6377 134.582 65.2629C132.233 71.7839 133.089 79.4064 137.535 86.2179C140.472 90.7059 152.18 98.1749 160.556 95.2268C168.932 92.2786 165.408 83.8122 161.829 83.6095Z" fill="#263238"/>
<path d="M147.866 81.8398C154.37 83.0454 154.738 86.2895 155.067 89.1171C155.918 96.4985 154.452 108.691 153.969 111.376C153.969 111.376 145.231 108.719 145.33 108.286C145.428 107.853 147.866 81.8398 147.866 81.8398Z" fill="#FFA8A7"/>
<path d="M147.975 107.102C147.975 107.102 150.923 106.412 153.14 107.102C153.14 107.102 151.312 105.2 147.135 106.433L147.975 107.102Z" fill="#F28F8F"/>
<path d="M147.223 109.189C148.161 106.829 148.896 104.392 149.419 101.907C153.755 99.6819 154.705 96.3556 153.81 93.2321C151.944 86.8151 150.127 83.6916 148.458 81.8394C147.168 80.9298 142.552 79.6475 142.552 79.6475C141.729 79.5159 134.269 78.5789 131.992 78.3926C130.759 79.3454 129.822 80.6281 129.291 82.0915C128.852 83.445 128.083 84.6013 128.089 89.2482L128.951 97.5557C128.951 97.5557 129.181 100.044 128.309 101.49C127.436 102.937 123.879 105.584 122.238 109.162C122.238 109.162 122.435 114.609 132.469 116.883C140.631 118.735 146.685 115.787 146.685 115.787C147.043 113.606 147.223 111.4 147.223 109.189Z" fill="#F5F5F5"/>
<path d="M154.04 96.3111C153.768 95.9687 153.376 95.7417 152.943 95.6754C151.999 95.5603 151.104 96.0535 150.237 96.4426C148.617 97.1659 146.762 97.5385 145.077 97.018C143.255 96.4371 141.784 94.826 139.89 94.6616C138.084 94.5191 136.476 95.7576 135.142 96.9741C133.177 98.7934 131.355 100.81 129.104 102.279C128.139 102.897 127.138 103.458 126.107 103.961L125.663 104.427L125.575 104.514C125.24 104.871 124.9 105.249 124.56 105.649L124.433 105.797L124.071 106.241L123.895 106.46L123.594 106.865L123.412 107.117L123.132 107.528L122.968 107.786C122.869 107.939 122.781 108.093 122.693 108.252C122.606 108.411 122.6 108.405 122.556 108.482C122.43 108.717 122.304 108.959 122.194 109.205C122.228 109.581 122.315 109.95 122.452 110.301C122.668 110.87 122.958 111.408 123.314 111.901C123.462 112.104 123.621 112.307 123.808 112.52C125.18 114.093 127.721 115.858 132.425 116.904C134.283 117.328 136.184 117.533 138.09 117.513C138.732 117.513 139.347 117.474 139.934 117.425C140.521 117.376 141.076 117.304 141.581 117.222C142.278 117.113 142.909 116.981 143.48 116.839C144.561 116.593 145.614 116.24 146.625 115.786C146.876 114.3 147.037 112.799 147.108 111.293C147.108 110.975 147.141 110.635 147.152 110.285C147.163 109.934 147.152 109.567 147.152 109.189C147.701 107.638 148.211 106.23 148.584 105.002C148.672 104.695 148.76 104.399 148.842 104.12C149.049 103.398 149.22 102.667 149.353 101.928C152.366 100.405 153.733 98.3934 154.04 96.3111Z" fill="#EBEBEB"/>
<path d="M156.895 63.2252C157.372 64.2937 158.119 66.0035 156.428 72.7108C154.995 78.3934 152.822 79.3853 151.795 79.5826C150.769 79.7798 149.051 79.1223 147.821 78.6565L145.812 82.2129C145.994 83.7527 146.521 86.8379 145.505 88.7887C142.552 86.5365 139.539 83.8185 137.464 79.5661L140.708 72.4916C140.708 72.4916 138.825 73.3903 137.821 71.2477C136.893 69.2695 137.239 67.6145 138.617 66.7323C138.938 66.5271 139.306 66.4061 139.687 66.3807C140.067 66.3553 140.448 66.4262 140.794 66.5868C141.14 66.7475 141.44 66.9927 141.666 67.2997C141.891 67.6068 142.036 67.9657 142.086 68.3434C142.382 70.0366 144.029 70.1627 144.484 67.6474C144.621 66.8802 145.269 62.7155 148.244 61.7949C151.719 66.1733 156.208 65.587 156.895 63.2252Z" fill="#FFA8A7"/>
<path d="M149.221 69.0284C149.188 69.1757 149.112 69.3101 149.003 69.415C148.894 69.5198 148.757 69.5904 148.608 69.6181C148.459 69.6459 148.306 69.6295 148.166 69.5709C148.027 69.5124 147.908 69.4144 147.823 69.2889C147.739 69.1635 147.693 69.0161 147.692 68.8651C147.691 68.714 147.734 68.5659 147.816 68.4391C147.898 68.3122 148.016 68.2122 148.154 68.1514C148.293 68.0905 148.446 68.0716 148.595 68.0968C148.802 68.1378 148.984 68.2589 149.101 68.4335C149.218 68.6081 149.261 68.822 149.221 69.0284Z" fill="#263238"/>
<path d="M150.105 75.0496C150.09 75.147 150.056 75.2404 150.005 75.3246C149.954 75.4088 149.887 75.4821 149.807 75.5402C149.727 75.5983 149.637 75.64 149.541 75.663C149.445 75.6861 149.346 75.6899 149.249 75.6743C149.096 75.6544 148.954 75.5894 148.839 75.4877C148.724 75.3859 148.642 75.2522 148.604 75.1037C148.566 74.9552 148.573 74.7987 148.625 74.6544C148.677 74.5101 148.771 74.3847 148.895 74.2942C149.019 74.2038 149.167 74.1525 149.321 74.147C149.474 74.1415 149.626 74.1819 149.756 74.2632C149.886 74.3445 149.989 74.4629 150.051 74.603C150.113 74.7432 150.132 74.8988 150.105 75.0496Z" fill="#B16668"/>
<path d="M155.742 67.9705L154.518 66.6334C154.599 66.5475 154.697 66.4791 154.805 66.4323C154.914 66.3855 155.031 66.3613 155.149 66.3613C155.267 66.3613 155.384 66.3855 155.493 66.4323C155.601 66.4791 155.699 66.5475 155.78 66.6334C155.951 66.8167 156.042 67.0597 156.035 67.3098C156.028 67.56 155.923 67.7973 155.742 67.9705Z" fill="#263238"/>
<path d="M148.974 65.829L147.295 66.5305C147.243 66.4234 147.214 66.307 147.209 66.1884C147.204 66.0697 147.224 65.9513 147.267 65.8405C147.309 65.7296 147.374 65.6287 147.457 65.5438C147.54 65.4589 147.64 65.3919 147.75 65.3468C147.977 65.2552 148.231 65.2542 148.459 65.3439C148.686 65.4336 148.871 65.6073 148.974 65.829Z" fill="#263238"/>
<path d="M154.979 70.0895C154.947 70.2374 154.872 70.3725 154.763 70.4782C154.655 70.5838 154.518 70.6553 154.369 70.6838C154.22 70.7123 154.066 70.6966 153.926 70.6385C153.786 70.5804 153.666 70.4825 153.581 70.3571C153.497 70.2316 153.451 70.0841 153.449 69.9328C153.447 69.7814 153.491 69.633 153.573 69.5059C153.655 69.3787 153.773 69.2785 153.912 69.2176C154.05 69.1567 154.204 69.1379 154.353 69.1634C154.456 69.1824 154.553 69.2216 154.64 69.2786C154.727 69.3356 154.802 69.4094 154.861 69.4956C154.919 69.5818 154.959 69.6787 154.98 69.7806C155 69.8826 155 69.9876 154.979 70.0895Z" fill="#263238"/>
<path d="M151.444 68.5781L151.082 73.6689L153.799 73.0881L151.444 68.5781Z" fill="#F28F8F"/>
<path d="M147.821 78.6563C146.038 77.9932 142.025 75.8287 141.784 74.2012C141.852 75.0057 142.164 75.7704 142.678 76.3931C143.584 77.6206 147.157 79.8126 147.157 79.8126L147.821 78.6563Z" fill="#F28F8F"/>
<path d="M149.979 81.2355C149.787 80.6328 149.002 80.567 149.002 80.567C149.061 80.3297 149.067 80.0821 149.019 79.8422C148.97 79.6024 148.869 79.3763 148.722 79.1806C148.464 78.8847 147.8 78.8956 147.8 78.8956C147.997 78.4572 147.739 77.4763 147.207 77.3503C146.641 77.1873 146.034 77.2386 145.503 77.4944C144.972 77.7503 144.555 78.1926 144.331 78.7367L145.143 77.1476C145.875 76.9589 146.594 76.7228 147.295 76.4407C148.118 76.0297 148.08 75.1255 147.761 75.0762C147.041 75.0928 146.324 75.166 145.615 75.2954C144.715 75.4433 143.579 75.4378 143.271 75.9968C142.964 76.5557 142.624 77.2243 141.992 78.512C141.361 79.7998 141.185 80.156 141.268 80.9122C141.35 81.6684 141.339 83.1042 141.564 84.929C141.789 86.7538 141.427 87.1867 140.62 88.2169C140.071 88.9128 136.679 92.272 133.1 95.538L133.589 88.4142C133.589 88.4142 134.758 81.115 131.981 78.386C128.248 77.7832 126.442 79.482 125.613 81.4876C124.153 85.0276 124.582 95.1106 124.861 100.421C125.141 105.731 127.238 107.742 128.835 108.092C130.433 108.443 134.829 106.596 137.705 102.821C139.967 100.234 144.808 91.6911 145.516 90.502C146.037 89.5853 146.669 88.7367 147.399 87.9758C147.948 87.4278 148.387 85.2358 148.392 83.9316C148.508 84.3426 148.941 84.6659 149.282 84.4084C149.369 83.7782 150.039 81.6794 149.979 81.2355Z" fill="#FFA8A7"/>
<path d="M140.62 88.2177C140.91 87.8806 141.162 87.5132 141.372 87.1217C141.554 86.7101 141.635 86.2611 141.608 85.8121C141.608 85.3627 141.531 84.9188 141.482 84.4695C141.432 84.0201 141.394 83.5708 141.361 83.1214L141.284 81.7734L141.24 81.0994C141.209 80.8743 141.2 80.6467 141.213 80.4199C141.288 79.968 141.437 79.5312 141.652 79.1266C141.844 78.7211 142.047 78.3156 142.25 77.9156L142.86 76.71L143.167 76.1072C143.214 75.9978 143.283 75.8988 143.368 75.8161C143.454 75.7333 143.555 75.6683 143.666 75.625C144.096 75.4689 144.545 75.373 145 75.34C145.45 75.2907 145.889 75.203 146.34 75.1482C146.79 75.0934 147.234 75.0386 147.695 75.0277C147.769 75.0242 147.841 75.0476 147.898 75.0934C147.949 75.1401 147.986 75.1985 148.008 75.2633C148.035 75.3842 148.035 75.5096 148.008 75.6305C147.965 75.8675 147.85 76.0857 147.679 76.2552C147.316 76.5441 146.895 76.7499 146.444 76.858C146.01 77.0004 145.577 77.1265 145.143 77.247L145.192 77.2087L144.375 78.7978L144.248 78.7156C144.451 78.469 144.654 78.2279 144.88 78.0033C144.989 77.89 145.105 77.7804 145.225 77.6745C145.345 77.5618 145.477 77.4642 145.621 77.384C145.898 77.3328 146.179 77.298 146.46 77.2799C146.751 77.2458 147.046 77.2776 147.322 77.3731C147.574 77.5357 147.752 77.7889 147.822 78.08C147.912 78.3615 147.912 78.6643 147.822 78.9458L147.761 78.8581C147.973 78.8606 148.184 78.8938 148.387 78.9567C148.493 78.991 148.592 79.0449 148.678 79.1157C148.756 79.1913 148.823 79.2781 148.875 79.3732C149.075 79.754 149.126 80.1955 149.018 80.6117L148.969 80.5404C149.186 80.5637 149.395 80.6328 149.584 80.7432C149.774 80.8581 149.918 81.0367 149.99 81.2473C149.981 81.525 149.941 81.8008 149.869 82.0693L149.666 82.8639C149.534 83.4119 149.375 83.916 149.282 84.4421C149.194 84.5075 149.087 84.5428 148.977 84.5428C148.867 84.5428 148.76 84.5075 148.672 84.4421C148.504 84.3187 148.38 84.1435 148.321 83.9434H148.403C148.393 84.5603 148.325 85.1749 148.2 85.7792C148.086 86.3884 147.902 86.9823 147.651 87.5492C147.515 87.8271 147.329 88.0778 147.103 88.289C146.894 88.5136 146.696 88.7438 146.504 88.9849C146.131 89.4742 145.786 89.9846 145.472 90.5138C145.776 89.9794 146.113 89.465 146.482 88.9739C146.669 88.7273 146.866 88.4917 147.075 88.2616C147.303 88.0536 147.489 87.8045 147.624 87.5273C147.854 86.9589 148.022 86.3673 148.123 85.7627C148.239 85.1629 148.304 84.5542 148.316 83.9434V83.653L148.398 83.927C148.45 84.1101 148.562 84.2704 148.716 84.3818C148.79 84.4353 148.878 84.4641 148.969 84.4641C149.06 84.4641 149.148 84.4353 149.221 84.3818C149.315 83.8338 149.468 83.3187 149.6 82.7927L149.792 81.9981C149.862 81.7425 149.901 81.4793 149.907 81.2145C149.827 81.0324 149.697 80.8767 149.532 80.7653C149.367 80.6538 149.173 80.5911 148.974 80.5843H148.914V80.5185C149.008 80.1327 148.959 79.7259 148.777 79.3732C148.734 79.2876 148.675 79.2113 148.602 79.1492C148.53 79.087 148.445 79.0402 148.354 79.0115C148.164 78.9522 147.966 78.9226 147.767 78.9239H147.679L147.712 78.8362C147.794 78.5833 147.794 78.3109 147.712 78.0581C147.652 77.8011 147.497 77.5762 147.278 77.4279C147.023 77.3483 146.753 77.324 146.488 77.3566C146.211 77.3744 145.936 77.4092 145.664 77.4607C145.535 77.5381 145.414 77.6281 145.302 77.7293C145.187 77.8334 145.072 77.943 144.967 78.0526C144.748 78.2772 144.545 78.5184 144.347 78.7595L143.897 79.3075L144.226 78.6718L145.039 77.0826V77.0552H145.072C145.505 76.9402 145.939 76.8141 146.367 76.6771C146.794 76.5775 147.196 76.391 147.547 76.1291C147.697 75.98 147.799 75.789 147.838 75.5812C147.876 75.3894 147.838 75.1154 147.64 75.1373C147.192 75.1495 146.745 75.1861 146.301 75.2469C145.857 75.3017 145.412 75.3839 144.962 75.4332C144.516 75.4606 144.076 75.551 143.655 75.7017C143.556 75.7387 143.465 75.7957 143.389 75.8693C143.312 75.9428 143.252 76.0313 143.211 76.1291L142.904 76.7319L142.283 77.932C142.08 78.332 141.877 78.7376 141.68 79.1431C141.469 79.5351 141.324 79.959 141.251 80.398C141.227 80.6201 141.227 80.8443 141.251 81.0665L141.29 81.7405L141.356 83.0886C141.356 83.5379 141.416 83.9873 141.46 84.4366C141.504 84.886 141.57 85.3298 141.57 85.7847C141.589 86.239 141.501 86.6915 141.312 87.1053C141.118 87.4979 140.887 87.8705 140.62 88.2177Z" fill="#B16668"/>
<path d="M147.822 78.9627C147.865 78.8059 147.88 78.6425 147.865 78.4805C147.415 78.601 146.834 78.6613 146.46 78.7928C146.157 78.9078 145.908 79.1328 145.763 79.423C145.961 79.2148 146.504 78.9517 147.822 78.9627Z" fill="#B16668"/>
<path d="M147.426 80.9668C147.908 80.7008 148.458 80.5826 149.007 80.6271C149.038 80.4793 149.055 80.3288 149.056 80.1777C147.761 80.3586 147.426 80.9668 147.426 80.9668Z" fill="#B16668"/>
<path d="M148.332 84.2554C148.381 83.6766 148.368 83.0943 148.294 82.5183C148.228 82.173 148.206 81.9703 148.595 82.0305C148.985 82.0908 149.523 81.6141 149.419 81.9429C149.364 82.1127 148.672 82.4032 148.634 82.6498C148.583 83.1931 148.482 83.7306 148.332 84.2554Z" fill="#B16668"/>
<path d="M133.1 95.5389C132.112 96.3554 128.764 98.909 128.298 101.512C128.298 101.512 127.831 99.5611 129.752 97.3965C130.832 96.1598 131.989 94.9921 133.216 93.9004L133.1 95.5389Z" fill="#F28F8F"/>
<path d="M153.942 111.377C153.607 113.323 152.987 114.035 151 114.906C147.761 116.325 134.796 119.992 130.96 120.019C128.784 120.059 126.616 119.733 124.549 119.054C124.178 118.968 123.847 118.759 123.61 118.463C123.468 118.212 123.282 117.989 123.061 117.805C122.784 117.641 122.499 117.493 122.205 117.361C121.86 117.148 121.61 116.811 121.508 116.419C121.49 116.158 121.409 115.906 121.272 115.684C121.111 115.524 120.964 115.35 120.833 115.164C120.685 114.899 120.611 114.6 120.619 114.298C120.633 114.147 120.62 113.995 120.58 113.849C120.52 113.716 120.434 113.597 120.328 113.498C120.213 113.372 120.106 113.238 120.009 113.098C119.907 112.986 119.843 112.843 119.828 112.692C119.851 112.574 119.9 112.462 119.971 112.364C120.426 111.657 121.431 111.816 122.166 111.887C123.039 111.985 123.895 112.161 124.768 112.259C125.983 112.405 127.209 112.432 128.429 112.342V110.089C129.312 110.274 130.151 110.628 130.899 111.131C132.326 112.007 133.188 113.191 135.839 112.495C138.49 111.799 144.808 108.21 147.981 107.103C151.153 105.996 154.134 110.226 153.942 111.377Z" fill="#FFA8A7"/>
<path d="M50.6846 223.545L128.413 211.5V43.3398L50.6846 55.4065V223.545Z" fill="#455A64"/>
<path d="M126.042 41.9746L128.413 43.3391L50.6846 55.4058L54.7958 53.0385L126.042 41.9746Z" fill="#37474F"/>
<path d="M59.8071 142.47L114.202 134.031V202.382L59.8071 210.821V142.47Z" fill="#455A64"/>
<path opacity="0.1" d="M59.8071 142.47L114.202 134.031V202.382L59.8071 210.821V142.47Z" fill="black"/>
<path d="M63.8909 145.96L110.124 138.787V198.89L63.8909 206.063V145.96Z" fill="#455A64"/>
<path d="M59.8071 210.82L63.8909 206.064L110.124 198.891L114.202 202.381L59.8071 210.82Z" fill="#263238"/>
<path d="M59.8071 142.471L63.8909 145.961V206.065L59.8071 210.821V142.471Z" fill="#37474F"/>
<path d="M110.124 138.788L114.202 134.031V202.382L110.124 198.891V138.788Z" fill="#37474F"/>
<path d="M90.7097 59.7027L114.202 56.0586V124.403L90.7097 128.053V59.7027Z" fill="#455A64"/>
<path opacity="0.1" d="M90.7097 59.7027L114.202 56.0586V124.403L90.7097 128.053V59.7027Z" fill="black"/>
<path d="M94.7935 63.1904L110.124 60.8066V120.91L94.7935 123.294V63.1904Z" fill="#455A64"/>
<path d="M90.7097 128.052L94.7935 123.296L110.124 120.912L114.202 124.403L90.7097 128.052Z" fill="#263238"/>
<path d="M90.7097 59.7012L94.7935 63.1918V123.295L90.7097 128.052V59.7012Z" fill="#37474F"/>
<path d="M110.124 60.8096L114.202 56.0586V124.403L110.124 120.913V60.8096Z" fill="#37474F"/>
<path d="M59.8457 64.4742L83.3382 60.8301V129.175L59.8457 132.819V64.4742Z" fill="#455A64"/>
<path opacity="0.1" d="M59.8457 64.4742L83.3382 60.8301V129.175L59.8457 132.819V64.4742Z" fill="black"/>
<path d="M63.9238 67.9658L79.2543 65.582V125.685L63.9238 128.069V67.9658Z" fill="#455A64"/>
<path d="M59.8457 132.818L63.924 128.067L79.2545 125.684L83.3382 129.174L59.8457 132.818Z" fill="#263238"/>
<path d="M59.8457 64.4766L63.924 67.9672V128.07L59.8457 132.821V64.4766Z" fill="#37474F"/>
<path d="M79.2544 65.5811L83.3381 60.8301V129.175L79.2544 125.684V65.5811Z" fill="#37474F"/>
<path d="M117.94 121.592L119 122.655V140.218L117.94 139.155V121.592Z" fill="#E0E0E0"/>
<path d="M119 122.654L124.713 121.799V139.362L119 140.217V122.654Z" fill="#FAFAFA"/>
<path opacity="0.05" d="M124.713 126.633L119 127.466V130.902L124.713 130.08V126.633Z" fill="black"/>
<path d="M124.713 121.799L123.654 120.736L117.94 121.591L118.999 122.654L124.713 121.799Z" fill="#EBEBEB"/>
<path d="M121.19 125.981L123.813 128.611L124.862 127.246L122.238 124.616C122.169 124.543 122.082 124.489 121.986 124.458C121.89 124.427 121.788 124.421 121.689 124.441C121.472 124.492 121.28 124.617 121.145 124.794C121.01 124.971 120.941 125.189 120.948 125.411C120.95 125.625 121.037 125.83 121.19 125.981Z" fill="#E0E0E0"/>
<path opacity="0.1" d="M119 127.5L123.166 127.966V126.716L124.181 126.563L123.226 125.609L119 126.251V127.5Z" fill="black"/>
<path d="M110.42 129.006V131.751L125.306 129.527V126.781L110.42 129.006Z" fill="#FAFAFA"/>
<path d="M110.42 129.006L109.471 128.053V130.793L110.42 131.752V129.006Z" fill="#E0E0E0"/>
<path d="M125.306 126.78L124.351 125.826L109.471 128.051L110.42 129.004L125.306 126.78Z" fill="#EBEBEB"/>
<path d="M120.893 133.577C120.885 133.289 120.977 133.008 121.153 132.78C121.329 132.553 121.579 132.393 121.859 132.327C121.989 132.313 122.121 132.329 122.244 132.372C122.367 132.416 122.479 132.487 122.571 132.579C122.664 132.672 122.734 132.784 122.777 132.907C122.82 133.031 122.834 133.162 122.82 133.292C122.82 133.508 122.767 133.721 122.666 133.912C122.564 134.103 122.417 134.267 122.238 134.388V136.185C122.241 136.282 122.21 136.377 122.151 136.453C122.092 136.53 122.008 136.584 121.914 136.607H121.804C121.76 136.611 121.715 136.606 121.673 136.591C121.631 136.576 121.593 136.552 121.562 136.52C121.53 136.489 121.506 136.451 121.491 136.409C121.476 136.367 121.471 136.322 121.475 136.278V134.486C121.296 134.413 121.144 134.286 121.04 134.124C120.935 133.961 120.884 133.77 120.893 133.577Z" fill="#455A64"/>
<path d="M191.201 175.555C190.564 177.566 186.93 182.679 185.712 184.081C184.493 185.484 184.301 191.496 184.312 192.751C184.323 194.006 185.163 195.195 185.701 196C186.239 196.806 185.306 198.192 183.368 197.556C181.43 196.921 180.843 194.97 180.558 193.66C180.272 192.351 179.63 184.838 180.426 180.174C180.431 180.158 184.383 175.166 191.201 175.555Z" fill="#37474F"/>
<path d="M161.456 156.715C158.393 156.775 154.15 154.337 152.674 150.139C151.197 145.942 152.087 139.728 153.667 136.193C154.573 134.187 154.293 132.905 153.525 132.527C152.399 131.979 151.258 132.598 150.423 134.379C149.353 136.653 147.212 145.158 149.139 150.342C151.066 155.526 154.573 158.304 156.642 159.11L161.456 156.715Z" fill="#37474F"/>
<path d="M160.49 168.52C160.677 172.635 162.686 179.929 163.783 181.71C164.963 183.589 165.886 184.132 167.801 184.186C169.717 184.241 169.997 182.575 167.565 181.09C167.104 180.438 166.934 177.254 167.197 173.967C167.461 170.679 160.49 168.52 160.49 168.52Z" fill="#37474F"/>
<path d="M193.929 160.288C193.929 162.48 194.324 168.344 192.941 172.141C191.623 175.747 189.225 179.057 183.84 179.895C178.455 180.734 173.707 179.588 170.606 177.791C167.505 175.993 164.442 172.388 162.247 171.977C160.76 173.36 158.902 174.284 156.9 174.634C153.338 175.369 151.549 174.47 151.549 174.47C151.549 174.47 150.5 177.369 150.451 178.854C150.402 180.339 150.451 181.747 151.582 182.509C152.712 183.271 153.267 183.665 153.146 184.482C153.146 184.482 153.119 185.381 150.824 185.315C148.53 185.249 148.447 184.871 147.745 182.789C147.042 180.706 146.164 175.303 146.027 173.5C145.89 171.697 148.102 171.462 149.199 169.977C150.429 168.373 151.359 166.561 151.944 164.628C152.69 162.255 154.43 158.573 158.201 157.362C161.972 156.151 165.792 156.469 171.078 158.776C176.364 161.083 179.004 162.064 181.6 160.633C185.124 158.672 184.768 155.581 184.768 155.581C188.593 155.044 192.94 153.038 193.929 160.288Z" fill="#455A64"/>
<path d="M181.266 180.158L180.964 178.871L178.45 177.621L177.67 178.12C178.132 178.745 178.519 179.421 178.823 180.136C179.636 180.19 180.452 180.198 181.266 180.158Z" fill="#37474F"/>
<path d="M177.67 178.108C179.185 179.117 180.387 181.352 182.523 182.678C183.726 183.45 185.068 183.983 186.475 184.246C187.08 185.254 187.535 186.345 187.825 187.484C188.313 189.38 188.868 191.737 190.476 192.783C192.084 193.83 194.653 193.134 193.325 191.276C192.381 189.956 191.936 188.273 191.486 186.586C190.888 184.344 191.409 183.298 190.273 181.813C188.969 180.216 188.007 178.37 187.446 176.388C187.446 176.388 179.959 174.771 177.67 178.108Z" fill="#455A64"/>
<path d="M163.114 172.268C163.745 171.094 163.982 169.749 163.789 168.432C163.567 169.708 163.046 170.913 162.269 171.95C162.563 172.017 162.848 172.124 163.114 172.268Z" fill="#37474F"/>
<path d="M186.31 158.316C190.855 162.661 185.245 165.439 185.388 171.045C185.437 172.903 186.277 174.881 188.132 178.394C190.466 176.972 192.234 174.785 193.133 172.207C194.181 169.347 194.164 164.738 193.95 162.491C193.775 160.718 193.213 159.005 192.304 157.472C192.304 157.472 181.77 153.976 186.31 158.316Z" fill="#E0E0E0"/>
<path d="M181.842 160.513C183.685 161.373 185.749 161.649 187.754 161.302C188.797 161.146 189.776 160.705 190.584 160.028C191.392 159.351 191.997 158.465 192.331 157.466L184.559 157.285C184.085 158.66 183.117 159.81 181.842 160.513Z" fill="#37474F"/>
<path d="M188.906 147.044C190.103 145.641 193.204 144.534 194.84 145.92C195.762 146.704 193.303 150.956 193.303 150.956C193.303 150.956 190.13 149.252 188.906 147.044Z" fill="#37474F"/>
<path d="M190.179 148.513C191.694 149.773 193.303 150.957 193.303 150.957C193.303 150.957 195.762 146.704 194.84 145.921C194.197 145.532 192.084 145.877 190.179 148.513Z" fill="#FFA8A7"/>
<path d="M193.215 149.927C193.345 149.745 193.507 149.587 193.692 149.462C193.83 149.193 193.989 148.875 194.148 148.541C193.676 148.243 193.147 148.045 192.595 147.96C192.658 147.593 192.853 147.262 193.143 147.028C192.709 146.92 192.249 146.977 191.854 147.189C191.459 147.4 191.158 147.752 191.008 148.174C191.126 148.593 191.33 148.983 191.607 149.319C191.947 149.549 192.26 149.746 192.512 149.9C192.742 149.956 192.981 149.966 193.215 149.927Z" fill="#F28F8F"/>
<path d="M191.266 148.566C191.408 148.223 191.653 147.933 191.968 147.737C192.283 147.54 192.652 147.447 193.023 147.47C192.784 147.745 192.655 148.098 192.661 148.462C192.661 148.462 194.417 148.364 194.856 149.262C194.521 149.264 194.192 149.354 193.903 149.524C193.614 149.693 193.375 149.935 193.209 150.227C191.7 150.813 191.266 148.566 191.266 148.566Z" fill="#455A64"/>
<path d="M178.927 145.689C180.191 147.012 180.902 148.766 180.914 150.594L182.204 149.657C182.204 149.657 182.237 147.377 181.271 146.572C180.589 146.062 179.776 145.756 178.927 145.689Z" fill="#F28F8F"/>
<path d="M184.866 147.158C184.24 145.92 181.024 144.298 178.927 145.69C178.927 145.69 181.672 146.572 181.798 149.427L184.866 147.158Z" fill="#37474F"/>
<path d="M193.929 160.343C193.753 157.73 194.423 154.255 194.011 152.266C193.528 149.954 192.112 147.011 187.605 146.786C183.099 146.562 180.903 148.923 180.119 151.915C179.652 153.406 179.021 154.053 179.213 155.702C179.302 156.731 179.718 157.705 180.4 158.482C181.082 159.259 181.995 159.798 183.006 160.02C184.905 160.568 189.949 160.722 192.337 157.494L193.934 160.365" fill="#455A64"/>
<path d="M181.765 149.028C181.765 149.028 181.694 148.578 180.926 148.102C180.64 147.941 180.326 147.839 180.001 147.801C179.676 147.762 179.347 147.788 179.032 147.877C179.032 147.877 180.058 148.721 180.179 149.406C179.791 149.285 179.377 149.273 178.982 149.373C178.982 149.373 180.492 150.409 180.201 151.998C180.201 151.998 181.798 150.118 181.765 149.028Z" fill="#455A64"/>
<path d="M184.438 156.446C184.385 156.443 184.336 156.42 184.3 156.381C184.264 156.342 184.245 156.29 184.246 156.238L184.279 155.202C184.279 155.176 184.284 155.15 184.295 155.126C184.305 155.102 184.32 155.08 184.339 155.062C184.358 155.044 184.381 155.03 184.405 155.021C184.43 155.012 184.456 155.009 184.482 155.01C184.509 155.009 184.535 155.014 184.56 155.024C184.585 155.034 184.607 155.049 184.626 155.068C184.644 155.087 184.659 155.11 184.668 155.135C184.677 155.16 184.681 155.186 184.68 155.213L184.647 156.249C184.644 156.302 184.621 156.352 184.582 156.389C184.543 156.425 184.492 156.446 184.438 156.446Z" fill="#263238"/>
<path d="M185.393 157.099C185.356 157.098 185.32 157.086 185.289 157.066L184.438 156.485L183.571 157.033C183.549 157.047 183.524 157.056 183.498 157.06C183.472 157.065 183.445 157.064 183.42 157.057C183.394 157.051 183.37 157.04 183.349 157.025C183.328 157.009 183.31 156.99 183.296 156.967C183.282 156.944 183.273 156.919 183.269 156.893C183.264 156.867 183.265 156.84 183.271 156.814C183.277 156.788 183.289 156.763 183.304 156.742C183.32 156.72 183.34 156.702 183.362 156.688L184.339 156.096C184.372 156.074 184.41 156.062 184.449 156.062C184.488 156.062 184.526 156.074 184.559 156.096L185.514 156.748C185.558 156.778 185.588 156.824 185.599 156.876C185.609 156.929 185.598 156.983 185.569 157.027C185.548 157.053 185.521 157.074 185.49 157.086C185.46 157.099 185.426 157.103 185.393 157.099Z" fill="#263238"/>
<path d="M184.499 153.975C183.456 153.92 183.329 154.233 183.434 154.605C183.651 155.006 184.009 155.312 184.438 155.466C184.685 155.509 185.629 155.038 185.668 154.644C185.706 154.249 185.481 154.019 184.499 153.975Z" fill="#F28F8F"/>
<path d="M188.077 154.951C188.049 154.912 188.037 154.864 188.045 154.817C188.052 154.77 188.077 154.727 188.116 154.699C188.6 154.254 189.21 153.969 189.862 153.883C190.514 153.797 191.177 153.913 191.76 154.217C191.781 154.227 191.799 154.242 191.814 154.259C191.829 154.277 191.84 154.297 191.847 154.319C191.853 154.341 191.856 154.364 191.853 154.387C191.85 154.41 191.843 154.432 191.832 154.452C191.822 154.473 191.808 154.492 191.79 154.508C191.773 154.523 191.753 154.535 191.731 154.543C191.709 154.55 191.686 154.554 191.663 154.552C191.639 154.551 191.617 154.545 191.596 154.535C191.068 154.262 190.469 154.157 189.88 154.236C189.291 154.314 188.74 154.572 188.302 154.973C188.269 154.999 188.227 155.011 188.186 155.007C188.144 155.003 188.105 154.983 188.077 154.951Z" fill="#263238"/>
<path d="M188.379 155.543C188.377 155.526 188.377 155.51 188.379 155.493C188.362 155.449 188.362 155.399 188.379 155.355C188.396 155.31 188.43 155.274 188.473 155.252C188.87 155.1 189.296 155.035 189.721 155.06C190.146 155.086 190.561 155.202 190.937 155.4C190.976 155.425 191.004 155.464 191.014 155.51C191.025 155.555 191.017 155.602 190.992 155.641C190.968 155.681 190.929 155.71 190.884 155.723C190.839 155.735 190.791 155.729 190.751 155.707C190.421 155.536 190.059 155.436 189.689 155.413C189.318 155.391 188.947 155.446 188.599 155.576C188.565 155.598 188.523 155.608 188.483 155.602C188.442 155.596 188.405 155.575 188.379 155.543Z" fill="#263238"/>
<path d="M188.044 156.209C188.021 156.182 188.007 156.147 188.006 156.111C188.003 156.063 188.018 156.016 188.049 155.979C188.079 155.943 188.123 155.919 188.171 155.913C188.727 155.889 189.282 155.999 189.787 156.234C190.293 156.468 190.734 156.821 191.074 157.262C191.103 157.299 191.116 157.347 191.11 157.394C191.104 157.441 191.079 157.484 191.041 157.514C191.026 157.529 191.008 157.542 190.987 157.55C190.967 157.559 190.945 157.563 190.923 157.563C190.901 157.563 190.88 157.559 190.859 157.55C190.839 157.542 190.821 157.529 190.805 157.514C190.501 157.114 190.104 156.795 189.649 156.582C189.194 156.369 188.695 156.27 188.193 156.292C188.163 156.294 188.132 156.287 188.106 156.273C188.08 156.258 188.058 156.236 188.044 156.209Z" fill="#263238"/>
<path d="M181.941 154.693C181.974 154.659 181.992 154.614 181.992 154.567C181.992 154.52 181.974 154.475 181.941 154.441C181.553 153.91 181.011 153.511 180.389 153.298C179.766 153.084 179.094 153.066 178.461 153.246C178.417 153.261 178.381 153.292 178.36 153.333C178.338 153.374 178.333 153.421 178.345 153.465C178.357 153.511 178.386 153.55 178.426 153.574C178.466 153.599 178.514 153.607 178.559 153.597C179.131 153.436 179.738 153.454 180.298 153.651C180.858 153.847 181.343 154.211 181.688 154.693C181.704 154.71 181.724 154.725 181.745 154.734C181.767 154.744 181.791 154.749 181.814 154.749C181.838 154.749 181.862 154.744 181.883 154.734C181.905 154.725 181.925 154.71 181.941 154.693Z" fill="#263238"/>
<path d="M181.557 155.147C181.572 155.133 181.585 155.116 181.595 155.098C181.618 155.057 181.625 155.008 181.613 154.963C181.602 154.917 181.574 154.877 181.535 154.851C181.16 154.648 180.747 154.528 180.322 154.496C179.897 154.465 179.47 154.524 179.07 154.67C179.033 154.693 179.005 154.728 178.991 154.77C178.978 154.812 178.98 154.857 178.998 154.897C179.015 154.937 179.047 154.969 179.086 154.988C179.126 155.007 179.171 155.011 179.213 154.999C179.562 154.874 179.933 154.823 180.302 154.85C180.672 154.876 181.032 154.979 181.359 155.153C181.388 155.173 181.423 155.184 181.459 155.183C181.494 155.182 181.529 155.169 181.557 155.147Z" fill="#263238"/>
<path d="M181.814 155.877C181.842 155.854 181.86 155.82 181.864 155.784C181.871 155.737 181.86 155.689 181.834 155.65C181.807 155.61 181.767 155.582 181.721 155.57C181.174 155.487 180.615 155.537 180.092 155.715C179.568 155.894 179.095 156.196 178.713 156.595C178.68 156.629 178.662 156.674 178.662 156.721C178.662 156.768 178.68 156.813 178.713 156.847C178.729 156.863 178.748 156.876 178.768 156.884C178.789 156.893 178.811 156.897 178.834 156.897C178.856 156.897 178.879 156.893 178.899 156.884C178.92 156.876 178.939 156.863 178.955 156.847C179.303 156.483 179.735 156.208 180.213 156.047C180.691 155.885 181.201 155.842 181.699 155.921C181.72 155.922 181.741 155.919 181.761 155.911C181.781 155.904 181.799 155.892 181.814 155.877Z" fill="#263238"/>
<path d="M188.796 152.266C188.792 152.401 188.747 152.532 188.668 152.642C188.59 152.752 188.48 152.837 188.353 152.885C188.226 152.932 188.087 152.941 187.955 152.911C187.823 152.88 187.703 152.811 187.61 152.712C187.517 152.613 187.456 152.489 187.434 152.356C187.412 152.222 187.43 152.085 187.485 151.961C187.541 151.838 187.633 151.734 187.748 151.662C187.863 151.591 187.997 151.555 188.132 151.559C188.223 151.561 188.312 151.581 188.394 151.618C188.477 151.655 188.551 151.708 188.613 151.773C188.675 151.839 188.723 151.917 188.754 152.001C188.786 152.086 188.8 152.176 188.796 152.266Z" fill="#263238"/>
<path d="M183.269 152.03C183.264 152.165 183.22 152.296 183.141 152.406C183.062 152.516 182.952 152.6 182.825 152.648C182.698 152.696 182.56 152.705 182.428 152.674C182.296 152.644 182.175 152.575 182.083 152.476C181.99 152.377 181.928 152.253 181.906 152.119C181.884 151.986 181.902 151.849 181.958 151.725C182.014 151.602 182.105 151.498 182.22 151.426C182.335 151.354 182.469 151.318 182.605 151.323C182.786 151.33 182.958 151.408 183.082 151.54C183.206 151.672 183.273 151.848 183.269 152.03Z" fill="#263238"/>
</svg>
