<svg width="627" height="487" viewBox="0 0 627 487" fill="none" xmlns="http://www.w3.org/2000/svg">
<path d="M257.882 307.098L256.772 313.893L255.589 321.194L244.728 387.777H226.975L237.824 321.194L239.019 313.893L240.129 307.098H257.882Z" fill="#EBEBEB"/>
<path d="M255.312 307.098C254.37 313.845 253.369 320.579 252.355 327.301L249.217 347.492L245.934 367.646L244.245 377.712L242.483 387.777L243.931 377.663L245.439 367.562L248.614 347.383L251.896 327.229C252.97 320.506 254.105 313.796 255.312 307.098Z" fill="#C7C7C7"/>
<path d="M256.772 313.894L255.589 321.195H237.824L239.019 313.894H256.772Z" fill="#C7C7C7"/>
<path d="M345.549 307.098L346.659 313.893L347.842 321.194L358.704 387.777H376.457L365.607 321.194L364.412 313.893L363.302 307.098H345.549Z" fill="#EBEBEB"/>
<path d="M348.18 307.098C349.109 313.845 350.123 320.579 351.137 327.301L354.262 347.492L357.545 367.646L359.247 377.712L361.009 387.777L359.56 377.663L358.052 367.562L354.914 347.383L351.631 327.229C350.509 320.506 349.374 313.796 348.18 307.098Z" fill="#C7C7C7"/>
<path d="M346.659 313.894H364.412L365.607 321.195H347.842L346.659 313.894Z" fill="#C7C7C7"/>
<path d="M257.23 288.369H243.158L244.908 275.239H255.481L257.23 288.369Z" fill="#C7C7C7"/>
<path d="M263.122 268.163C264.382 261.028 259.619 254.223 252.484 252.964C245.349 251.704 238.544 256.467 237.284 263.602C236.025 270.737 240.788 277.542 247.923 278.802C255.058 280.061 261.863 275.298 263.122 268.163Z" fill="#DBDBDB"/>
<path d="M259.907 268.166C261.178 262.802 257.86 257.424 252.496 256.153C247.132 254.882 241.754 258.2 240.483 263.564C239.212 268.927 242.53 274.306 247.894 275.577C253.257 276.848 258.636 273.53 259.907 268.166Z" fill="white"/>
<path d="M258.534 265.281C258.442 264.091 258.104 262.934 257.544 261.881C256.983 260.828 256.211 259.903 255.276 259.162C254.334 258.431 253.254 257.899 252.1 257.598C250.947 257.297 249.744 257.234 248.566 257.412C247.395 257.596 246.277 258.025 245.283 258.669C244.289 259.314 243.442 260.16 242.797 261.153C242.115 262.216 241.669 263.411 241.488 264.66C241.307 265.909 241.395 267.182 241.747 268.394C242.346 270.489 243.747 272.262 245.645 273.331C247.496 274.382 249.67 274.717 251.752 274.272C253.766 273.841 255.572 272.734 256.869 271.134C258.15 269.553 258.89 267.603 258.981 265.57C258.981 265.486 258.981 265.401 258.896 265.401C258.812 265.401 258.812 265.474 258.812 265.57C258.766 266.393 258.608 267.205 258.341 267.984C258.063 268.749 257.694 269.479 257.243 270.156C256.767 270.814 256.216 271.413 255.602 271.943C254.97 272.47 254.277 272.92 253.538 273.282C252.475 273.783 251.32 274.056 250.146 274.086C248.972 274.115 247.805 273.899 246.719 273.451C245.63 272.99 244.654 272.298 243.858 271.423C243.062 270.548 242.465 269.51 242.109 268.382C241.743 267.224 241.631 266 241.781 264.794C241.931 263.588 242.339 262.428 242.978 261.395C243.595 260.414 244.415 259.577 245.383 258.94C246.351 258.303 247.445 257.881 248.59 257.702C250.137 257.456 251.721 257.632 253.176 258.212C254.631 258.792 255.903 259.754 256.857 260.996C257.316 261.637 257.689 262.335 257.967 263.072C258.236 263.821 258.414 264.599 258.498 265.389C258.498 265.389 258.534 265.317 258.534 265.281Z" fill="#EBEBEB"/>
<path d="M257.363 265.293C257.277 264.274 256.982 263.285 256.496 262.386C256.01 261.486 255.344 260.697 254.539 260.067C253.732 259.447 252.809 258.993 251.825 258.732C250.841 258.471 249.815 258.408 248.807 258.546C247.798 258.697 246.833 259.058 245.974 259.607C245.115 260.156 244.382 260.88 243.822 261.732C243.227 262.642 242.833 263.668 242.666 264.742C242.5 265.816 242.565 266.913 242.857 267.96C243.106 268.866 243.533 269.714 244.113 270.454C244.693 271.194 245.415 271.81 246.236 272.268C247.848 273.19 249.747 273.475 251.558 273.065C253.306 272.688 254.87 271.721 255.987 270.325C257.094 268.952 257.733 267.26 257.81 265.498C257.81 265.425 257.81 265.353 257.737 265.353C257.665 265.353 257.641 265.413 257.641 265.498C257.542 266.912 257.067 268.275 256.265 269.444C255.463 270.613 254.363 271.547 253.079 272.148C252.165 272.592 251.168 272.837 250.152 272.866C249.137 272.896 248.127 272.708 247.189 272.317C246.246 271.918 245.401 271.318 244.714 270.559C244.026 269.801 243.512 268.901 243.207 267.924C242.894 266.92 242.803 265.861 242.94 264.819C243.078 263.777 243.44 262.777 244.003 261.889C244.535 261.052 245.242 260.34 246.075 259.802C246.908 259.265 247.849 258.915 248.831 258.776C250.144 258.58 251.486 258.737 252.72 259.228C253.954 259.72 255.035 260.53 255.855 261.576C256.249 262.12 256.573 262.712 256.82 263.338C257.046 263.979 257.204 264.642 257.291 265.317L257.363 265.293Z" fill="#EBEBEB"/>
<path d="M256.193 265.305C256.106 264.457 255.847 263.635 255.432 262.89C255.017 262.145 254.454 261.492 253.779 260.972C252.422 259.94 250.715 259.481 249.024 259.693C248.177 259.805 247.364 260.095 246.638 260.544C245.912 260.994 245.29 261.592 244.812 262.3C244.295 263.064 243.949 263.931 243.797 264.841C243.645 265.751 243.691 266.683 243.931 267.574C244.134 268.35 244.492 269.078 244.983 269.713C245.475 270.347 246.09 270.876 246.791 271.267C248.175 272.04 249.796 272.272 251.341 271.918C252.83 271.572 254.153 270.719 255.082 269.505C256.002 268.339 256.541 266.92 256.627 265.438C256.627 265.365 256.627 265.305 256.543 265.305C256.528 265.306 256.514 265.311 256.502 265.317C256.489 265.324 256.478 265.334 256.469 265.345C256.46 265.356 256.453 265.369 256.449 265.383C256.446 265.397 256.444 265.411 256.446 265.425C256.352 266.613 255.949 267.755 255.275 268.738C254.602 269.721 253.682 270.509 252.608 271.025C251.839 271.405 250.998 271.617 250.14 271.646C249.283 271.675 248.429 271.521 247.636 271.194C246.834 270.863 246.116 270.357 245.534 269.715C244.952 269.072 244.52 268.308 244.269 267.477C244.019 266.632 243.954 265.742 244.079 264.87C244.204 263.997 244.516 263.162 244.993 262.42C245.448 261.73 246.048 261.146 246.75 260.709C247.451 260.271 248.24 259.991 249.06 259.886C250.145 259.758 251.244 259.886 252.27 260.26C253.304 260.652 254.209 261.32 254.889 262.191C255.225 262.636 255.501 263.123 255.71 263.639C255.913 264.169 256.054 264.719 256.132 265.281C256.132 265.281 256.205 265.317 256.193 265.305Z" fill="#EBEBEB"/>
<path d="M255.034 265.318C254.856 263.957 254.15 262.721 253.067 261.878C251.984 261.068 250.634 260.697 249.289 260.84C248.605 260.92 247.945 261.143 247.353 261.494C246.76 261.846 246.248 262.318 245.85 262.88C245.417 263.5 245.123 264.205 244.985 264.948C244.848 265.691 244.871 266.455 245.053 267.188C245.213 267.834 245.505 268.439 245.91 268.967C246.315 269.494 246.824 269.932 247.407 270.254C248.554 270.889 249.896 271.074 251.172 270.773C252.385 270.479 253.462 269.781 254.225 268.793C254.952 267.829 255.372 266.669 255.432 265.462C255.434 265.45 255.433 265.437 255.43 265.424C255.426 265.412 255.421 265.401 255.413 265.39C255.405 265.38 255.395 265.372 255.384 265.366C255.373 265.359 255.361 265.355 255.348 265.354C255.348 265.354 255.263 265.354 255.251 265.45C255.179 266.406 254.864 267.328 254.336 268.129C253.808 268.929 253.085 269.582 252.234 270.024C251.613 270.349 250.928 270.535 250.228 270.568C249.528 270.601 248.828 270.482 248.179 270.218C247.521 269.946 246.932 269.53 246.458 268.999C245.983 268.468 245.635 267.837 245.439 267.152C245.246 266.465 245.204 265.745 245.317 265.041C245.429 264.336 245.694 263.665 246.091 263.073C246.464 262.528 246.951 262.07 247.517 261.73C248.084 261.391 248.717 261.178 249.374 261.106C250.232 261.028 251.097 261.139 251.908 261.432C252.723 261.733 253.444 262.245 253.996 262.916C254.261 263.271 254.484 263.656 254.66 264.062C254.831 264.486 254.957 264.927 255.034 265.378V265.318Z" fill="#EBEBEB"/>
<path d="M359.971 288.369H345.886L347.636 275.239H358.221L359.971 288.369Z" fill="#C7C7C7"/>
<path d="M366.116 267.016C367.203 259.844 362.269 253.148 355.096 252.061C347.924 250.974 341.228 255.908 340.141 263.081C339.054 270.253 343.988 276.949 351.161 278.036C358.333 279.123 365.029 274.189 366.116 267.016Z" fill="#DBDBDB"/>
<path d="M362.786 267.362C363.617 261.913 359.873 256.822 354.424 255.991C348.975 255.16 343.884 258.904 343.053 264.353C342.222 269.803 345.966 274.894 351.415 275.725C356.864 276.555 361.955 272.812 362.786 267.362Z" fill="white"/>
<path d="M361.274 265.28C361.179 264.091 360.841 262.935 360.281 261.882C359.72 260.83 358.949 259.903 358.016 259.161C357.074 258.431 355.993 257.899 354.84 257.598C353.687 257.298 352.484 257.234 351.305 257.411C350.135 257.596 349.017 258.024 348.023 258.669C347.029 259.313 346.182 260.159 345.537 261.153C344.85 262.213 344.401 263.409 344.22 264.658C344.038 265.908 344.129 267.182 344.487 268.394C345.081 270.49 346.483 272.265 348.385 273.33C350.236 274.382 352.409 274.717 354.492 274.271C356.506 273.841 358.311 272.733 359.609 271.133C360.89 269.553 361.63 267.602 361.721 265.57C361.721 265.485 361.721 265.401 361.636 265.401C361.552 265.401 361.552 265.473 361.54 265.57C361.492 266.391 361.338 267.202 361.081 267.983C360.804 268.752 360.431 269.482 359.971 270.156C359.027 271.501 357.75 272.578 356.266 273.282C355.206 273.786 354.053 274.061 352.88 274.09C351.708 274.119 350.542 273.901 349.459 273.451C348.368 272.99 347.39 272.298 346.592 271.423C345.794 270.548 345.195 269.51 344.837 268.382C344.472 267.222 344.362 265.998 344.514 264.792C344.666 263.586 345.077 262.427 345.718 261.394C346.335 260.413 347.155 259.576 348.123 258.939C349.091 258.302 350.185 257.88 351.33 257.701C352.876 257.455 354.461 257.632 355.916 258.212C357.371 258.791 358.643 259.753 359.597 260.996C360.051 261.639 360.424 262.336 360.707 263.072C360.972 263.82 361.146 264.598 361.226 265.389C361.226 265.389 361.274 265.316 361.274 265.28Z" fill="#EBEBEB"/>
<path d="M360.104 265.293C360.012 264.276 359.714 263.288 359.228 262.39C358.743 261.491 358.08 260.701 357.279 260.067C356.472 259.447 355.55 258.993 354.566 258.732C353.582 258.471 352.556 258.408 351.547 258.546C350.536 258.695 349.569 259.056 348.708 259.605C347.847 260.154 347.111 260.879 346.55 261.732C345.955 262.642 345.561 263.668 345.394 264.742C345.228 265.816 345.293 266.913 345.585 267.96C345.834 268.866 346.261 269.714 346.841 270.454C347.422 271.194 348.143 271.81 348.964 272.268C350.577 273.188 352.475 273.472 354.286 273.065C356.038 272.691 357.607 271.723 358.728 270.325C359.829 268.949 360.467 267.259 360.55 265.498C360.55 265.425 360.55 265.353 360.466 265.353C360.381 265.353 360.381 265.413 360.369 265.498C360.273 266.911 359.8 268.273 359 269.443C358.2 270.612 357.102 271.546 355.819 272.148C354.906 272.592 353.908 272.837 352.893 272.866C351.877 272.896 350.867 272.708 349.93 272.317C348.984 271.92 348.136 271.321 347.446 270.562C346.756 269.803 346.24 268.903 345.935 267.924C345.626 266.92 345.537 265.861 345.674 264.82C345.812 263.778 346.172 262.779 346.731 261.889C347.265 261.054 347.973 260.344 348.806 259.807C349.639 259.269 350.578 258.918 351.559 258.776C352.877 258.575 354.224 258.728 355.463 259.22C356.701 259.712 357.787 260.525 358.607 261.576C359.006 262.118 359.33 262.71 359.573 263.338C359.81 263.976 359.968 264.64 360.043 265.317C360.054 265.317 360.065 265.315 360.076 265.311C360.086 265.307 360.096 265.301 360.104 265.293Z" fill="#EBEBEB"/>
<path d="M358.933 265.306C358.841 264.459 358.579 263.639 358.165 262.895C357.75 262.151 357.191 261.497 356.519 260.973C355.161 259.944 353.455 259.485 351.764 259.694C350.922 259.809 350.113 260.101 349.392 260.55C348.67 260.999 348.051 261.596 347.576 262.301C347.061 263.066 346.714 263.932 346.56 264.841C346.406 265.751 346.448 266.683 346.683 267.575C346.892 268.351 347.254 269.077 347.747 269.711C348.24 270.345 348.855 270.874 349.556 271.268C350.935 272.041 352.552 272.273 354.093 271.92C355.586 271.573 356.912 270.72 357.847 269.506C358.769 268.343 359.305 266.921 359.379 265.439C359.379 265.366 359.379 265.306 359.307 265.306C359.293 265.307 359.279 265.312 359.266 265.319C359.254 265.326 359.242 265.335 359.233 265.346C359.224 265.357 359.218 265.37 359.214 265.384C359.21 265.398 359.209 265.412 359.21 265.427C359.114 266.614 358.71 267.755 358.036 268.737C357.363 269.719 356.445 270.509 355.373 271.026C354.603 271.406 353.762 271.618 352.905 271.647C352.047 271.676 351.193 271.522 350.4 271.195C349.599 270.864 348.881 270.359 348.298 269.716C347.716 269.073 347.284 268.309 347.033 267.478C346.783 266.633 346.719 265.744 346.843 264.871C346.968 263.998 347.28 263.163 347.757 262.422C348.209 261.73 348.806 261.146 349.506 260.708C350.206 260.271 350.993 259.99 351.812 259.887C352.901 259.758 354.005 259.886 355.035 260.261C356.068 260.653 356.974 261.321 357.654 262.192C357.99 262.637 358.266 263.124 358.474 263.64C358.666 264.173 358.807 264.723 358.897 265.282C358.906 265.293 358.919 265.302 358.933 265.306Z" fill="#EBEBEB"/>
<path d="M357.762 265.318C357.679 264.644 357.464 263.994 357.128 263.403C356.793 262.813 356.344 262.295 355.807 261.879C354.724 261.069 353.375 260.699 352.03 260.841C351.344 260.915 350.682 261.136 350.089 261.488C349.496 261.839 348.985 262.314 348.59 262.88C348.158 263.5 347.863 264.205 347.726 264.948C347.588 265.691 347.612 266.455 347.794 267.189C347.954 267.834 348.245 268.44 348.65 268.967C349.055 269.495 349.565 269.933 350.147 270.254C351.29 270.888 352.628 271.073 353.9 270.773C355.116 270.477 356.196 269.78 356.966 268.794C357.692 267.829 358.113 266.669 358.173 265.463C358.176 265.451 358.177 265.438 358.176 265.426C358.174 265.414 358.169 265.402 358.162 265.392C358.155 265.381 358.146 265.372 358.135 265.366C358.125 265.36 358.113 265.356 358.1 265.354C358.075 265.354 358.05 265.365 358.032 265.383C358.014 265.401 358.004 265.425 358.004 265.451C357.916 266.412 357.582 267.334 357.035 268.129C356.487 268.924 355.745 269.564 354.878 269.989C354.258 270.312 353.576 270.496 352.878 270.529C352.18 270.563 351.483 270.444 350.835 270.182C350.177 269.911 349.588 269.494 349.114 268.963C348.639 268.432 348.291 267.801 348.095 267.116C347.902 266.43 347.86 265.709 347.973 265.005C348.085 264.301 348.35 263.629 348.747 263.037C349.12 262.492 349.606 262.033 350.173 261.694C350.74 261.354 351.373 261.141 352.03 261.07C352.884 260.992 353.745 261.104 354.552 261.396C355.369 261.694 356.09 262.206 356.64 262.88C356.913 263.232 357.141 263.617 357.316 264.027C357.487 264.451 357.613 264.892 357.69 265.342C357.69 265.342 357.774 265.33 357.762 265.318Z" fill="#EBEBEB"/>
<path d="M390.179 281.682H213.24V315.523H390.179V281.682Z" fill="#DBDBDB"/>
<path d="M249.615 281.682L236.774 315.523H213.916L226.757 281.682H249.615Z" fill="#EBEBEB"/>
<path d="M296.454 281.682L283.613 315.523H260.755L273.596 281.682H296.454Z" fill="#EBEBEB"/>
<path d="M343.28 281.682L330.451 315.523H307.593L320.434 281.682H343.28Z" fill="#EBEBEB"/>
<path d="M390.13 281.682L377.289 315.523H354.431L367.272 281.682H390.13Z" fill="#EBEBEB"/>
<path d="M386.606 346.818H216.825V368.24H386.606V346.818Z" fill="#DBDBDB"/>
<path d="M251.715 346.818L239.405 368.228H217.476L229.798 346.818H251.715Z" fill="#EBEBEB"/>
<path d="M296.671 346.818L284.349 368.228H262.408L274.73 346.818H296.671Z" fill="#EBEBEB"/>
<path d="M341.603 346.818L329.281 368.228H307.352L319.674 346.818H341.603Z" fill="#EBEBEB"/>
<path d="M386.546 346.818L374.224 368.228H352.295L364.617 346.818H386.546Z" fill="#EBEBEB"/>
<path d="M564.57 120.506H427.978C427.978 120.506 441.519 83.5159 462.361 83.5159C483.204 83.5159 489.733 109.041 489.733 109.041C489.733 109.041 503.793 95.1741 515.354 95.1741C526.916 95.1741 536.945 113.506 536.945 113.506C536.945 113.506 553.274 103.646 564.57 120.506Z" fill="#EBEBEB"/>
<path d="M198.492 33.7445H134.661C134.661 33.7445 148.914 13.083 160.162 13.083C171.41 13.083 174.717 26.8533 174.717 26.8533C174.717 26.8533 182.646 20.4328 189.996 21.5793C197.346 22.7258 198.492 33.7445 198.492 33.7445Z" fill="#EBEBEB"/>
<path d="M542.823 182.538H478.992C478.992 182.538 493.257 161.877 504.493 161.877C515.729 161.877 519.048 175.647 519.048 175.647C519.048 175.647 526.977 169.215 534.327 170.373C541.676 171.532 542.823 182.538 542.823 182.538Z" fill="#EBEBEB"/>
<path d="M163.204 85.5309H38.8606C38.8606 85.5309 55.8894 47.5148 74.101 45.1372C92.3125 42.7597 101.026 73.3778 101.026 73.3778C101.026 73.3778 112.781 62.5161 122.013 62.5161C131.246 62.5161 138.379 76.7691 138.379 76.7691C138.379 76.7691 156.892 67.0418 163.204 85.5309Z" fill="#EBEBEB"/>
<path d="M43.3384 388.079L107.326 387.789L171.326 387.681L299.302 387.476L427.29 387.681L491.278 387.789L555.265 388.079L491.278 388.369L427.29 388.477L299.302 388.682L171.326 388.477L107.326 388.369L43.3384 388.079Z" fill="#263238"/>
<path d="M301.716 483.193C441.747 483.193 555.265 469.961 555.265 453.637C555.265 437.314 441.747 424.081 301.716 424.081C161.684 424.081 48.1658 437.314 48.1658 453.637C48.1658 469.961 161.684 483.193 301.716 483.193Z" fill="#EBEBEB"/>
<path d="M359.088 457.248C361.599 458.093 433.455 458.346 436.207 456.621C437.257 455.969 437.896 445.505 438.319 432.845C438.415 430.106 438.488 427.282 438.56 424.397L444.377 386.079L396.344 385.766L391.806 424.108L391.987 432.556C391.987 432.556 364.435 444.769 361.623 446.978C358.811 449.186 356.59 456.391 359.088 457.248Z" fill="#EB9481"/>
<path d="M359.088 457.248C361.599 458.093 433.455 458.346 436.207 456.62C437.474 455.824 438.174 440.545 438.56 424.409L391.806 424.12L391.987 432.568C391.987 432.568 364.435 444.781 361.623 446.99C358.811 449.198 356.59 456.391 359.088 457.248Z" fill="white"/>
<path d="M359.088 457.247C361.599 458.092 433.455 458.346 436.207 456.62C437.257 455.968 437.896 445.505 438.319 432.845L391.987 432.543C391.987 432.543 364.435 444.756 361.623 446.965C358.811 449.174 356.59 456.391 359.088 457.247Z" fill="#F07C33"/>
<path d="M360.138 454.377C372.207 454.123 420.795 454.232 432.719 454.896C432.816 454.896 432.816 454.968 432.719 454.98C420.783 455.487 372.171 454.98 360.126 454.57C359.873 454.558 359.885 454.377 360.138 454.377Z" fill="#263238"/>
<path d="M366.257 444.396C367.604 444.358 368.945 444.602 370.192 445.114C371.439 445.625 372.565 446.392 373.498 447.365C375.184 449.09 376.143 451.397 376.177 453.809C376.177 453.882 376.033 453.882 376.02 453.809C375.627 451.431 374.473 449.244 372.733 447.575C370.992 445.907 368.759 444.846 366.366 444.553C366.345 444.567 366.319 444.573 366.294 444.568C366.269 444.564 366.247 444.55 366.233 444.529C366.218 444.508 366.213 444.482 366.217 444.457C366.222 444.432 366.236 444.41 366.257 444.396Z" fill="#263238"/>
<path d="M387.317 433.726C392.144 433.726 397.72 435.404 400.701 439.35C400.821 439.507 400.604 439.664 400.459 439.591C396.234 437.368 391.784 435.6 387.184 434.317C387.106 434.3 387.037 434.252 386.994 434.184C386.951 434.116 386.937 434.034 386.955 433.955C386.972 433.877 387.02 433.809 387.088 433.766C387.156 433.723 387.238 433.709 387.317 433.726Z" fill="#263238"/>
<path d="M383.588 435.163C388.415 435.163 393.991 436.84 396.972 440.799C397.092 440.944 396.875 441.113 396.73 441.028C392.508 438.801 388.057 437.037 383.455 435.766C383.387 435.738 383.331 435.687 383.297 435.622C383.263 435.556 383.253 435.481 383.269 435.409C383.284 435.337 383.325 435.273 383.383 435.228C383.442 435.183 383.514 435.16 383.588 435.163Z" fill="#263238"/>
<path d="M379.858 436.611C384.686 436.551 390.262 438.276 393.255 442.235C393.363 442.38 393.146 442.549 393.001 442.476C388.781 440.24 384.33 438.472 379.726 437.202C379.647 437.185 379.579 437.137 379.536 437.069C379.493 437.001 379.479 436.919 379.496 436.84C379.514 436.762 379.562 436.694 379.63 436.651C379.698 436.608 379.78 436.593 379.858 436.611Z" fill="#263238"/>
<path d="M376.129 438.046C380.957 438.046 386.544 439.712 389.525 443.67C389.634 443.815 389.417 443.984 389.272 443.912C385.052 441.676 380.6 439.907 375.996 438.638C375.918 438.62 375.85 438.572 375.807 438.504C375.764 438.436 375.75 438.354 375.767 438.276C375.785 438.197 375.833 438.129 375.901 438.086C375.969 438.043 376.051 438.029 376.129 438.046Z" fill="#263238"/>
<path d="M429.726 443.442C435.145 443.442 435.097 451.89 429.726 451.89C424.356 451.89 424.271 443.405 429.726 443.442Z" fill="#263238"/>
<path d="M382.514 427.909C385.096 431.276 389.055 433.413 392.482 435.79C392.563 435.836 392.653 435.862 392.745 435.866C392.837 435.871 392.93 435.854 393.014 435.816C393.099 435.779 393.173 435.722 393.232 435.65C393.29 435.579 393.331 435.494 393.351 435.404C393.37 435.408 393.389 435.407 393.408 435.402C393.427 435.397 393.444 435.388 393.458 435.375C393.472 435.362 393.483 435.346 393.489 435.328C393.496 435.31 393.498 435.29 393.496 435.271C393.161 430.847 391.666 426.589 389.163 422.925C387.667 420.813 384.601 418.834 382.151 420.849C379.702 422.865 380.993 425.954 382.514 427.909ZM382.296 423.915C382.803 418.677 387.522 422.708 388.56 424.313C389.214 425.36 389.798 426.448 390.31 427.571C391.326 429.911 392.224 432.299 393.001 434.728C391.396 433.449 389.682 432.314 388.029 431.108C386.062 429.671 382.031 426.811 382.296 423.915Z" fill="#263238"/>
<path d="M410.633 432.254C410.271 429.104 406.675 428.416 404.14 428.887C399.799 429.797 395.772 431.827 392.458 434.776C392.441 434.787 392.426 434.802 392.416 434.82C392.406 434.838 392.401 434.858 392.401 434.879C392.401 434.9 392.406 434.92 392.416 434.938C392.426 434.956 392.441 434.971 392.458 434.982C392.407 435.059 392.376 435.148 392.366 435.241C392.357 435.333 392.37 435.427 392.404 435.513C392.439 435.599 392.493 435.676 392.563 435.737C392.634 435.798 392.718 435.841 392.808 435.863C396.936 436.514 401.256 437.733 405.468 437.069C407.93 436.732 410.983 435.235 410.633 432.254ZM399.277 435.573C397.237 435.307 395.234 434.933 393.243 434.74C395.523 433.594 397.744 432.327 400.134 431.445C401.282 430.99 402.459 430.611 403.658 430.311C405.516 429.889 411.72 430.239 408.485 434.366C406.59 436.635 401.703 435.875 399.277 435.573Z" fill="#263238"/>
<path d="M514.979 208.912C514.979 208.912 459.185 303.82 457.689 310.481C455.396 320.728 443.207 421.839 443.207 421.839L385.156 420.801C385.156 420.801 395.161 331.638 404.635 302.275C411.466 281.118 460.694 210.951 460.694 210.951L514.979 208.912Z" fill="#37474F"/>
<path d="M390.455 411.894C398.794 411.833 428.338 411.507 439.429 412.533C439.451 412.533 439.473 412.542 439.489 412.558C439.505 412.574 439.513 412.595 439.513 412.618C439.513 412.64 439.505 412.662 439.489 412.677C439.473 412.693 439.451 412.702 439.429 412.702C435.615 413.245 398.794 412.388 390.455 412.123C390.436 412.129 390.417 412.13 390.398 412.128C390.379 412.125 390.362 412.117 390.346 412.106C390.331 412.095 390.318 412.08 390.309 412.063C390.301 412.046 390.296 412.027 390.296 412.008C390.296 411.989 390.301 411.97 390.309 411.953C390.318 411.936 390.331 411.922 390.346 411.911C390.362 411.899 390.379 411.892 390.398 411.889C390.417 411.886 390.436 411.888 390.455 411.894Z" fill="#263238"/>
<path d="M505.457 217.626C501.836 223.359 497.938 228.97 494.197 234.655C490.455 240.339 486.738 246.036 483.057 251.768C475.711 263.209 468.535 274.755 461.527 286.405C458.129 291.767 455.217 297.422 452.825 303.301C450.647 309.211 449.011 315.306 447.937 321.513C446.791 327.752 446.043 334.04 445.343 340.328C444.586 347.022 443.838 353.716 443.098 360.41C441.569 374.088 440.041 387.79 438.512 401.516C438.319 403.193 438.138 404.883 437.969 406.56C437.969 406.814 438.379 406.862 438.415 406.56C440.117 392.947 441.541 379.297 443.098 365.66L445.415 345.36C446.127 339.048 446.815 332.737 447.829 326.449C448.735 320.265 450.102 314.157 451.92 308.177C453.91 301.981 456.585 296.026 459.897 290.424C466.62 278.826 473.74 267.421 480.861 256.052C487.981 244.684 495.283 233.122 502.801 221.862C503.719 220.474 504.66 219.086 505.626 217.723C505.758 217.614 505.529 217.517 505.457 217.626Z" fill="#263238"/>
<path d="M465.654 465.224C468.297 465.393 539.599 446.602 541.819 444.237C541.917 444.093 541.975 443.927 541.988 443.754C542.266 441.413 538.621 432.663 536.063 421.451C535.906 420.739 534.566 417.336 532.683 412.738C527.506 400.126 518.273 378.451 518.273 378.451L471.725 390.399L488.862 424.855L491.179 432.953C491.179 432.953 467.633 451.792 465.485 454.676C463.337 457.561 463.023 465.031 465.654 465.224Z" fill="#EB9481"/>
<path d="M465.654 465.224C468.297 465.393 539.599 446.602 541.819 444.237C541.917 444.094 541.975 443.927 541.988 443.754C542.266 441.413 538.621 432.663 536.063 421.451C535.906 420.739 534.566 417.336 532.683 412.738L488.874 424.806L491.191 432.904C491.191 432.904 467.645 451.744 465.497 454.628C463.349 457.512 463.023 465.031 465.654 465.224Z" fill="white"/>
<path d="M465.654 465.214C468.297 465.407 539.599 446.604 541.819 444.239C542.664 443.346 540.818 433.703 536.063 421.453L491.191 432.967C491.191 432.967 467.645 451.782 465.497 454.69C463.349 457.599 463.023 465.033 465.654 465.214Z" fill="#F07C33"/>
<path d="M465.932 462.172C477.518 458.865 524.561 446.603 536.268 444.202C536.365 444.202 536.377 444.202 536.268 444.286C524.863 447.81 477.723 459.698 465.968 462.389C465.739 462.425 465.691 462.244 465.932 462.172Z" fill="#263238"/>
<path d="M469.323 450.972C470.61 450.601 471.961 450.501 473.288 450.68C474.616 450.859 475.892 451.312 477.035 452.01C479.101 453.252 480.613 455.239 481.259 457.562C481.259 457.634 481.138 457.67 481.114 457.562C480.121 455.354 478.438 453.529 476.318 452.36C474.198 451.191 471.756 450.742 469.359 451.081C469.352 451.092 469.341 451.101 469.329 451.107C469.317 451.112 469.303 451.114 469.29 451.112C469.276 451.111 469.263 451.105 469.253 451.096C469.243 451.088 469.235 451.076 469.231 451.064C469.226 451.051 469.226 451.037 469.229 451.024C469.232 451.011 469.239 450.999 469.248 450.989C469.258 450.98 469.27 450.973 469.283 450.97C469.297 450.967 469.31 450.968 469.323 450.972Z" fill="#263238"/>
<path d="M486.968 435.296C491.614 434.016 497.455 434.258 501.341 437.323C501.498 437.444 501.341 437.661 501.172 437.625C496.538 436.536 491.8 435.95 487.04 435.875C486.974 435.866 486.912 435.836 486.865 435.788C486.818 435.741 486.788 435.679 486.78 435.613C486.772 435.547 486.786 435.48 486.82 435.422C486.854 435.365 486.906 435.32 486.968 435.296Z" fill="#263238"/>
<path d="M483.733 437.636C488.38 436.357 494.221 436.599 498.107 439.664C498.264 439.785 498.107 440.002 497.926 439.966C493.289 438.9 488.551 438.338 483.793 438.288C483.707 438.296 483.621 438.269 483.554 438.214C483.487 438.159 483.445 438.079 483.437 437.992C483.429 437.906 483.456 437.82 483.512 437.753C483.567 437.686 483.647 437.644 483.733 437.636Z" fill="#263238"/>
<path d="M480.487 439.978C485.145 438.698 490.974 438.94 494.872 442.005C495.017 442.126 494.872 442.331 494.691 442.307C490.057 441.221 485.318 440.639 480.559 440.569C480.487 440.566 480.419 440.538 480.366 440.49C480.313 440.441 480.28 440.375 480.271 440.304C480.262 440.233 480.279 440.161 480.319 440.101C480.358 440.041 480.418 439.998 480.487 439.978Z" fill="#263238"/>
<path d="M477.252 442.308C481.898 441.04 487.74 441.282 491.626 444.347C491.783 444.468 491.626 444.673 491.457 444.637C486.82 443.563 482.083 442.984 477.324 442.911C477.244 442.921 477.164 442.898 477.1 442.848C477.037 442.799 476.996 442.726 476.987 442.646C476.977 442.566 477 442.485 477.049 442.422C477.099 442.358 477.172 442.317 477.252 442.308Z" fill="#263238"/>
<path d="M530.427 433.907C535.664 432.555 537.764 440.701 532.514 442.041C527.265 443.38 525.177 435.246 530.427 433.907Z" fill="#263238"/>
<path d="M480.837 430.89C484.204 433.485 488.573 434.511 492.483 435.971C492.572 435.996 492.667 435.999 492.758 435.981C492.849 435.962 492.934 435.923 493.007 435.865C493.08 435.807 493.138 435.734 493.177 435.649C493.216 435.565 493.235 435.473 493.231 435.38C493.251 435.379 493.271 435.374 493.288 435.365C493.305 435.355 493.32 435.341 493.331 435.324C493.342 435.308 493.348 435.289 493.35 435.269C493.351 435.249 493.348 435.229 493.34 435.211C491.889 431.009 489.358 427.264 486.002 424.349C484.023 422.696 480.547 421.549 478.689 424.132C476.83 426.715 478.882 429.382 480.837 430.89ZM479.63 427.089C478.785 421.887 484.373 424.603 485.785 425.882C486.687 426.724 487.53 427.627 488.307 428.585C489.892 430.582 491.37 432.661 492.736 434.813C490.854 433.992 488.911 433.34 487.004 432.58C484.711 431.687 480.088 429.949 479.618 427.089H479.63Z" fill="#263238"/>
<path d="M509.137 427.933C507.991 424.976 504.31 425.229 502.005 426.34C498.033 428.317 494.653 431.305 492.205 435.005C492.192 435.021 492.184 435.039 492.18 435.059C492.176 435.078 492.177 435.099 492.183 435.118C492.189 435.137 492.2 435.155 492.214 435.169C492.228 435.183 492.246 435.193 492.266 435.198C492.239 435.286 492.234 435.38 492.25 435.47C492.266 435.561 492.303 435.647 492.358 435.721C492.413 435.795 492.485 435.855 492.567 435.896C492.65 435.937 492.741 435.959 492.833 435.958C496.996 435.536 501.486 435.609 505.384 433.931C507.665 432.953 510.236 430.721 509.137 427.933ZM499 434.04C496.972 434.293 494.933 434.45 492.965 434.776C494.824 433.033 496.77 431.386 498.795 429.84C499.788 429.109 500.828 428.444 501.908 427.848C503.598 426.955 509.693 425.724 507.569 430.54C506.35 433.207 501.438 433.738 499 434.04Z" fill="#263238"/>
<path d="M485.676 422.599L537.837 408.913C537.837 408.913 487.897 310.639 488.356 303.856C488.718 297.822 524.936 245.106 526.975 235.234C530.246 219.074 522.377 204.64 514.75 195.709L460.803 210.915C460.803 210.915 465.099 220.244 472.992 226.134C472.992 226.134 439.091 282.736 438.223 301.37C437.354 320.004 485.676 422.599 485.676 422.599Z" fill="#37474F"/>
<path d="M484.687 412.944C492.242 410.783 490.045 411.302 497.636 409.214C501.353 408.201 525.768 401.527 529.389 401.177C529.473 401.177 529.509 401.297 529.389 401.334C526.058 402.83 501.534 409.082 497.805 410.023C490.178 411.954 492.338 411.314 484.687 413.173C484.602 413.185 484.542 412.944 484.687 412.944Z" fill="#263238"/>
<path d="M464.628 223.999C469.797 225.917 474.792 228.275 479.557 231.047C479.596 231.066 479.625 231.099 479.638 231.14C479.652 231.181 479.649 231.225 479.63 231.264C479.61 231.302 479.577 231.331 479.536 231.345C479.495 231.359 479.451 231.355 479.412 231.336C474.38 229.14 469.238 227.04 464.339 224.578C464.271 224.534 464.222 224.467 464.201 224.39C464.18 224.313 464.188 224.23 464.224 224.159C464.26 224.087 464.321 224.031 464.396 224.001C464.47 223.972 464.553 223.971 464.628 223.999Z" fill="#263238"/>
<path d="M470.965 222.67C471.348 223.618 471.67 224.589 471.93 225.578C472.213 226.35 472.34 227.17 472.304 227.992C472.288 228.019 472.265 228.042 472.238 228.058C472.21 228.074 472.179 228.083 472.147 228.083C472.115 228.083 472.084 228.074 472.057 228.058C472.029 228.042 472.006 228.019 471.99 227.992C471.538 227.27 471.196 226.485 470.977 225.663C470.651 224.757 470.301 223.864 470.011 222.959C469.806 222.38 470.759 222.09 470.965 222.67Z" fill="#263238"/>
<path d="M470.965 217.782C470.747 216.95 470.53 216.129 470.301 215.296C470.072 214.464 469.758 213.607 469.589 212.738C469.589 212.605 469.347 212.665 469.384 212.738C469.589 213.57 469.685 214.439 469.83 215.284C469.975 216.129 470.144 216.974 470.313 217.807C470.631 219.388 471.034 220.951 471.52 222.489C470.67 222.427 469.845 222.176 469.106 221.753C468.386 221.158 467.871 220.351 467.634 219.448C467.296 218.507 466.994 217.553 466.644 216.624C466.21 215.605 465.863 214.551 465.606 213.474C465.606 213.329 465.365 213.389 465.389 213.474C465.805 215.749 466.448 217.977 467.308 220.124C467.682 220.969 467.96 221.837 468.792 222.248C469.708 222.636 470.694 222.829 471.689 222.815C471.797 222.815 471.966 222.815 471.942 222.658C471.689 221.113 471.375 219.412 470.965 217.782Z" fill="#263238"/>
<path d="M471.858 228.016C469.806 231.722 467.465 235.258 465.268 238.878C463.072 242.499 461.092 246.023 459.089 249.643C455.058 256.957 451.317 264.464 447.901 272.091C446.212 275.865 444.603 279.682 443.074 283.544C441.484 287.387 440.173 291.34 439.152 295.372C438.192 299.395 438.012 303.566 438.621 307.657C439.384 311.853 440.465 315.984 441.855 320.016C444.651 329.249 448.054 338.288 452.041 347.074C452.174 347.363 452.656 347.146 452.548 346.844C449.7 338.807 446.755 330.793 444.184 322.707C441.71 314.814 438.765 306.632 440.129 298.244C440.891 294.221 442.039 290.28 443.557 286.477C445.021 282.567 446.582 278.701 448.239 274.879C451.522 267.336 455.191 260.01 458.956 252.709C461.056 248.618 463.265 244.575 465.401 240.495C467.537 236.416 469.637 232.192 472.039 228.234C472.111 228.004 471.966 227.908 471.858 228.016Z" fill="#263238"/>
<path d="M511.141 220.1C510.163 219.943 508.727 220.281 504.515 219.992C503.344 219.888 502.183 219.698 501.039 219.424C499.88 219.243 498.777 218.797 497.817 218.121C496.287 216.674 495.039 214.955 494.136 213.052C493.007 211.091 492.143 208.989 491.566 206.801C491.566 206.668 491.336 206.728 491.36 206.861C491.59 208.068 491.71 209.275 492.036 210.554C492.347 211.703 492.75 212.825 493.243 213.909C494.018 216.053 495.317 217.97 497.021 219.485C498.927 220.921 501.595 221.186 503.9 221.355C505.239 221.452 510.489 221.355 511.141 220.559C511.334 220.426 511.322 220.137 511.141 220.1Z" fill="#263238"/>
<path d="M524.887 397.69C518.306 384.318 511.869 370.861 505.577 357.32C499.286 343.779 493.179 330.138 487.257 316.396C485.619 313.169 484.313 309.785 483.359 306.294C482.551 302.469 483.733 299.053 485.35 295.589C488.359 289.308 491.724 283.204 495.428 277.305C499.048 271.368 502.959 265.563 506.784 259.734C510.741 254.024 514.367 248.092 517.646 241.969C520.615 236.043 522.268 229.731 521.424 223.093C520.579 216.455 517.719 210.325 514.665 204.495C513.857 202.963 513.024 201.442 512.251 199.897C512.191 199.789 512.01 199.897 512.082 200.006C515.486 206.113 518.756 212.521 520.349 219.316C521.17 222.702 521.423 226.201 521.098 229.671C520.674 233.173 519.687 236.584 518.177 239.772C515.341 245.999 511.382 251.744 507.653 257.453C503.924 263.161 499.953 269.099 496.236 275.012C492.46 280.932 488.992 287.043 485.845 293.321C484.469 296.133 482.961 299.065 482.623 302.215C482.261 305.679 483.504 308.986 484.844 312.111C490.637 325.701 496.743 339.181 502.947 352.59C509.15 365.998 515.582 379.454 522.111 392.778L524.525 397.811C524.682 398.088 524.984 397.895 524.887 397.69Z" fill="#263238"/>
<path d="M459.608 95.0569C460.815 89.5416 466.946 77.0626 479.05 79.5005C496.333 82.9883 498.831 116.286 507.436 126.665C523.016 145.468 523.523 164.077 510.755 167.058C496.441 170.389 482.514 154.99 482.997 121.801C483.323 101.019 477.469 91.8104 473.342 92.4259C469.215 93.0414 466.934 98.2913 466.934 98.2913L459.608 95.0569Z" fill="#263238"/>
<path d="M460.187 92.9928C461.042 90.4201 462.205 87.9604 463.651 85.6672C465.101 83.3175 467.025 81.2954 469.299 79.7294C471.653 78.1386 474.448 77.328 477.289 77.4122C480.105 77.4972 482.859 78.2633 485.314 79.6449C487.708 81.0772 489.766 83.0075 491.348 85.3051C492.913 87.5626 494.213 89.9922 495.222 92.5463C497.14 97.61 498.484 102.873 499.229 108.235C497.914 103.05 496.212 97.9714 494.136 93.0411C493.06 90.6304 491.737 88.3373 490.19 86.1982C488.687 84.0869 486.754 82.3181 484.518 81.0087C482.279 79.7318 479.767 79.0077 477.192 78.8967C474.643 78.7773 472.118 79.4338 469.951 80.7794C467.728 82.1814 465.797 84.0011 464.266 86.1378C463.467 87.2047 462.729 88.3168 462.058 89.4688C461.382 90.5791 460.767 91.7739 460.187 92.9928Z" fill="#263238"/>
<path d="M482.937 110.348C483.118 113.643 482.937 116.949 482.864 120.244C482.792 123.539 482.659 126.822 482.647 130.104C482.635 133.387 482.743 136.657 483.081 139.904C483.357 143.136 483.947 146.333 484.843 149.45C485.692 152.548 487.121 155.455 489.055 158.019C491.084 160.514 493.535 162.635 496.297 164.283C499.061 165.961 502.183 166.961 505.408 167.203C507.022 167.328 508.644 167.243 510.236 166.95C511.054 166.797 511.86 166.587 512.649 166.322C513.436 166.09 514.184 165.744 514.87 165.296C513.524 166.276 511.992 166.97 510.369 167.336C508.749 167.758 507.082 167.965 505.408 167.951C503.72 167.921 502.042 167.681 500.412 167.239C498.786 166.782 497.219 166.138 495.741 165.321C494.26 164.509 492.862 163.555 491.566 162.472L490.612 161.652L489.695 160.795C489.073 160.208 488.492 159.579 487.957 158.912C485.882 156.22 484.342 153.156 483.419 149.885C481.747 143.424 481.104 136.741 481.512 130.08C481.609 126.773 481.862 123.479 482.152 120.196C482.442 116.913 482.828 113.643 482.937 110.348Z" fill="#263238"/>
<path d="M458.618 95.1527C458.425 93.62 459.354 91.5322 460.32 91.158C461.285 90.7839 468.985 93.258 469.794 95.1045C470.602 96.951 467.488 98.9182 467.488 98.9182L458.618 95.1527Z" fill="#F07C33"/>
<path d="M467.839 149.51C463.096 156.28 428.797 184.292 410.091 185.329C401.642 185.788 368.599 182.192 361.237 179.162C352.197 175.445 370.071 153.058 375.719 154.011C382.791 155.218 407.87 157.861 412.866 157.994C420.88 158.199 445.452 144.719 461.998 141.207C470.554 139.408 471.508 144.296 467.839 149.51Z" fill="#EB9481"/>
<path d="M467.464 150.789C462.227 159.925 443.737 175.59 443.737 175.59L440.587 169.773L430.16 150.572C430.16 150.572 447.684 143.597 459.306 140.205C460.671 139.786 462.067 139.48 463.482 139.288C470.988 138.323 471.966 142.945 467.464 150.789Z" fill="#DBDBDB"/>
<path d="M467.464 150.79C462.227 159.926 443.737 175.591 443.737 175.591L440.588 169.774L438.439 165.815L430.148 150.584C430.148 150.584 447.684 143.585 459.306 140.193C460.673 139.786 462.069 139.484 463.482 139.288C463.63 139.277 463.78 139.277 463.928 139.288C471.025 138.516 471.894 143.102 467.464 150.79Z" fill="#DBDBDB"/>
<path d="M445.608 145.854C446.01 147.519 446.01 149.257 445.608 150.922C445.206 149.257 445.206 147.519 445.608 145.854ZM440.648 155.798C439.798 155.784 438.949 155.886 438.126 156.1C438.95 156.308 439.798 156.409 440.648 156.401C441.502 156.408 442.354 156.307 443.182 156.1C442.355 155.887 441.503 155.785 440.648 155.798ZM466.282 141.63C465.427 141.617 464.575 141.718 463.747 141.931C464.575 142.144 465.427 142.246 466.282 142.233C467.132 142.239 467.98 142.138 468.804 141.931C467.98 141.725 467.132 141.623 466.282 141.63ZM456.41 154.229C457.007 154.837 457.68 155.364 458.413 155.798C457.979 155.065 457.452 154.392 456.844 153.795C456.245 153.19 455.572 152.663 454.841 152.226C455.278 152.957 455.805 153.63 456.41 154.229ZM446.67 166.298C447.267 166.909 447.941 167.44 448.674 167.879C448.244 167.143 447.716 166.469 447.105 165.875C446.508 165.264 445.835 164.733 445.101 164.294C445.517 165.026 446.029 165.7 446.622 166.298H446.67Z" fill="white"/>
<path d="M446.96 171.306C445.21 167.77 437.486 153.529 435.616 150.56C435.483 150.355 435.326 150.379 435.422 150.56C438.844 157.675 442.647 164.601 446.815 171.306C446.864 171.451 447.008 171.402 446.96 171.306Z" fill="#263238"/>
<path d="M467.464 150.788C462.227 159.924 443.738 175.589 443.738 175.589L440.588 169.772L438.439 165.814C448.468 155.917 460.549 143.74 463.928 139.263C471.025 138.514 471.894 143.1 467.464 150.788Z" fill="#A6A6A6"/>
<path d="M450.363 192.873L453.103 223.045C456.793 222.874 460.471 222.504 464.122 221.934C473.748 220.49 483.285 218.504 492.688 215.984C502.017 213.571 512.951 210.24 525.454 205.799C525.454 205.799 497.178 154.796 477.663 140.724C477.216 140.399 476.782 140.097 476.335 139.819C476.25 139.747 476.166 139.711 476.082 139.65C467.211 134.038 459.185 138.443 454.744 144.695C453.622 146.264 442.76 170.956 443.303 179.235C443.798 186.513 450.363 192.873 450.363 192.873Z" fill="#DBDBDB"/>
<path d="M466.052 160.578C466.266 161.401 466.368 162.25 466.354 163.1C466.367 163.955 466.265 164.807 466.052 165.635C465.839 164.807 465.738 163.955 465.751 163.1C465.743 162.25 465.844 161.402 466.052 160.578ZM472.63 192.174C472.623 193.028 472.724 193.879 472.931 194.708C473.151 193.882 473.252 193.029 473.233 192.174C473.246 191.319 473.145 190.467 472.931 189.639C472.724 190.468 472.623 191.32 472.63 192.174ZM493.689 174.191C493.677 175.046 493.778 175.898 493.991 176.726C494.394 175.06 494.394 173.323 493.991 171.657C493.778 172.485 493.677 173.337 493.689 174.191ZM455.07 188.324C455.057 189.178 455.158 190.031 455.372 190.858C455.774 189.193 455.774 187.455 455.372 185.789C455.158 186.617 455.057 187.469 455.07 188.324ZM479.4 166.081C478.546 166.074 477.694 166.176 476.866 166.383C478.532 166.785 480.269 166.785 481.935 166.383C481.11 166.177 480.262 166.075 479.412 166.081H479.4ZM497.358 188.589C496.504 188.57 495.65 188.672 494.824 188.891C496.49 189.293 498.227 189.293 499.893 188.891C499.069 188.679 498.221 188.578 497.37 188.589H497.358ZM470.059 206.427C469.209 206.413 468.36 206.515 467.537 206.729C468.36 206.942 469.209 207.044 470.059 207.03C470.914 207.043 471.766 206.942 472.594 206.729C471.769 206.522 470.921 206.421 470.071 206.427H470.059ZM501.86 202.951C501.01 202.944 500.162 203.046 499.338 203.253C500.999 203.655 502.733 203.655 504.394 203.253C503.566 203.045 502.714 202.944 501.86 202.951ZM466.282 141.594C465.427 141.581 464.575 141.683 463.747 141.896C464.575 142.109 465.427 142.21 466.282 142.198C467.132 142.204 467.979 142.102 468.804 141.896C467.978 141.701 467.13 141.612 466.282 141.63V141.594ZM479.195 147.182C479.792 147.793 480.465 148.325 481.198 148.763C480.771 148.025 480.243 147.351 479.63 146.759C479.033 146.148 478.359 145.617 477.626 145.178C478.061 145.925 478.593 146.611 479.207 147.218L479.195 147.182ZM505.565 175.41C506.162 176.022 506.835 176.553 507.568 176.991C507.137 176.256 506.61 175.583 506 174.988C505.4 174.379 504.727 173.848 503.996 173.407C504.428 174.153 504.955 174.838 505.565 175.447V175.41ZM463.397 178.428C463.994 179.039 464.667 179.57 465.401 180.009C464.5 178.53 463.258 177.289 461.78 176.388C462.224 177.149 462.768 177.847 463.397 178.464V178.428ZM487.655 198.86C488.252 199.471 488.925 200.002 489.659 200.441C488.757 198.963 487.516 197.721 486.038 196.82C486.485 197.568 487.029 198.254 487.655 198.86ZM456.47 154.206C457.067 154.813 457.74 155.341 458.473 155.775C458.039 155.042 457.512 154.368 456.904 153.771C456.305 153.167 455.632 152.64 454.901 152.202C455.318 152.938 455.824 153.619 456.409 154.23L456.47 154.206ZM454.756 170.064C455.365 169.465 455.896 168.792 456.337 168.061C455.602 168.491 454.928 169.019 454.334 169.63C453.722 170.226 453.191 170.9 452.753 171.633C453.46 171.198 454.113 170.68 454.696 170.088L454.756 170.064ZM512.022 191.619C512.633 191.025 513.161 190.351 513.591 189.615C512.109 190.512 510.867 191.754 509.97 193.236C510.7 192.793 511.369 192.257 511.961 191.643L512.022 191.619ZM457.882 200.26C458.489 199.663 459.017 198.989 459.451 198.256C457.969 199.153 456.727 200.395 455.83 201.877C456.56 201.434 457.229 200.899 457.822 200.284L457.882 200.26ZM490.202 158.659C490.813 158.062 491.344 157.389 491.783 156.656C491.047 157.091 490.373 157.623 489.779 158.237C489.168 158.834 488.637 159.507 488.198 160.24C488.909 159.805 489.562 159.282 490.141 158.683L490.202 158.659ZM482.188 212.847C482.802 212.253 483.334 211.579 483.769 210.844C483.034 211.279 482.36 211.811 481.766 212.425C481.154 213.022 480.623 213.695 480.185 214.428C480.895 213.993 481.548 213.47 482.128 212.871L482.188 212.847ZM482.188 180.262C482.806 179.671 483.338 178.997 483.769 178.259C482.291 179.16 481.05 180.401 480.148 181.879C480.887 181.429 481.561 180.881 482.152 180.25L482.188 180.262Z" fill="white"/>
<path d="M470.542 139.132C470.373 140.339 465.569 148.183 460.332 148.389C458.618 148.449 457.858 139.156 457.858 139.156L457.64 138.48L454.659 129.055L465.328 120.884L466.885 119.786C466.885 119.786 467.525 122.429 468.297 125.712L468.406 126.182C468.406 126.363 468.502 126.532 468.538 126.713L468.9 128.198C468.985 128.584 469.069 128.958 469.142 129.405L469.395 130.611C469.971 133.422 470.354 136.269 470.542 139.132Z" fill="#EB9481"/>
<path d="M468.346 125.712C467.609 128.496 466.274 131.087 464.434 133.303C462.593 135.518 460.291 137.306 457.689 138.541L454.708 129.115L465.328 120.884L466.885 119.786C466.885 119.786 467.525 122.369 468.346 125.712Z" fill="#263238"/>
<path d="M441.432 114.85C441.348 132.204 451.739 134.22 455.48 134.232C458.872 134.232 470.445 133.858 472.376 116.6C474.307 99.3414 466.209 93.826 458.449 93.3795C450.689 92.933 441.517 97.4587 441.432 114.85Z" fill="#EB9481"/>
<path d="M471.375 117.769C468.539 118.059 467.754 112.109 467.754 112.109C467.754 112.109 461.973 112.278 459.861 103.999C460.085 106.489 461.033 108.86 462.589 110.818C462.589 110.818 452.343 110.021 447.829 101.573C447.829 101.573 449.651 105.882 451.293 107.39C448.687 106.655 446.405 105.065 444.812 102.877C444.812 102.877 443.146 107.849 441.807 109.237C441.807 109.237 439.828 100.499 443.46 95.9612C451.112 86.3063 463.675 94.7544 463.675 94.7544C463.675 94.7544 470.699 95.8164 473.209 101.078C477.083 109.128 471.375 117.769 471.375 117.769Z" fill="#263238"/>
<path d="M469.553 117.877C469.553 117.877 472.884 112.169 475.454 113.316C478.025 114.462 475.816 122.524 473.041 123.827C472.697 124.02 472.319 124.143 471.928 124.186C471.536 124.23 471.14 124.195 470.763 124.082C470.386 123.969 470.035 123.782 469.732 123.531C469.428 123.28 469.179 122.97 468.998 122.62L469.553 117.877Z" fill="#EB9481"/>
<path d="M443.605 111.338C444.013 111.267 444.416 111.17 444.812 111.048C445.238 111 445.636 110.814 445.946 110.517C446.031 110.409 446.077 110.275 446.077 110.137C446.077 109.999 446.031 109.865 445.946 109.757C445.74 109.576 445.489 109.453 445.22 109.4C444.951 109.347 444.673 109.366 444.413 109.455C443.861 109.56 443.367 109.865 443.025 110.312C442.959 110.414 442.922 110.532 442.918 110.653C442.914 110.775 442.944 110.895 443.004 111.001C443.063 111.107 443.151 111.194 443.257 111.253C443.363 111.313 443.483 111.342 443.605 111.338Z" fill="#263238"/>
<path d="M454.925 112.689C454.519 112.648 454.116 112.584 453.718 112.495C453.277 112.487 452.852 112.33 452.512 112.049C452.424 111.941 452.377 111.807 452.377 111.669C452.377 111.53 452.424 111.396 452.512 111.289C452.7 111.091 452.939 110.948 453.203 110.876C453.467 110.804 453.745 110.805 454.008 110.878C454.567 110.94 455.086 111.201 455.468 111.614C455.547 111.714 455.595 111.833 455.607 111.959C455.62 112.085 455.596 112.212 455.539 112.325C455.482 112.437 455.394 112.532 455.285 112.596C455.177 112.661 455.052 112.693 454.925 112.689Z" fill="#263238"/>
<path d="M452.656 116.236C452.656 116.236 452.741 116.236 452.741 116.345C452.741 117.552 452.898 118.903 453.948 119.277V119.35C452.656 119.181 452.403 117.371 452.656 116.236Z" fill="#263238"/>
<path d="M453.658 114.982C455.565 114.801 455.782 118.602 454.008 118.807C452.234 119.013 452.053 115.126 453.658 114.982Z" fill="#263238"/>
<path d="M454.418 115.139C454.768 115.344 455.118 115.706 455.529 115.73C455.939 115.754 456.325 115.32 456.615 114.922H456.675C456.675 115.658 456.482 116.43 455.71 116.587C454.937 116.744 454.503 116.104 454.213 115.38C454.177 115.272 454.285 115.066 454.418 115.139Z" fill="#263238"/>
<path d="M446.006 116.297C446.006 116.297 445.91 116.357 445.922 116.406C446.031 117.613 445.922 118.976 444.908 119.435C446.224 119.23 446.296 117.407 446.006 116.297Z" fill="#263238"/>
<path d="M444.86 115.126C442.941 115.126 443.038 118.94 444.86 118.964C446.682 118.988 446.477 115.15 444.86 115.126Z" fill="#263238"/>
<path d="M444.075 115.393C443.774 115.61 443.484 115.984 443.122 116.021C442.76 116.057 442.374 115.647 442.096 115.248H442.036C442.036 115.984 442.301 116.745 443.013 116.865C443.725 116.986 444.112 116.334 444.22 115.598C444.305 115.514 444.208 115.309 444.075 115.393Z" fill="#263238"/>
<path d="M447.998 121.559C447.998 121.559 447.829 123.297 447.829 124.178C449.454 124.128 451.077 124.299 452.656 124.685C453.03 124.793 453.006 124.479 452.584 124.25C451.324 123.572 449.892 123.283 448.469 123.417C448.408 123.188 448.782 120.678 448.65 120.678C448.002 120.759 447.368 120.93 446.767 121.185C447.008 117.456 447.853 113.787 448.034 110.07C448.034 110.041 448.023 110.013 448.002 109.993C447.982 109.972 447.954 109.961 447.925 109.961C447.897 109.961 447.869 109.972 447.849 109.993C447.828 110.013 447.817 110.041 447.817 110.07C446.797 113.964 446.166 117.95 445.934 121.969C445.97 122.416 447.672 121.716 447.998 121.559Z" fill="#263238"/>
<path d="M449.796 124.179C450.401 124.974 451.248 125.55 452.21 125.82C453.67 125.965 453.767 124.613 452.137 123.998C451.355 123.843 450.545 123.905 449.796 124.179Z" fill="#263238"/>
<path d="M452.234 125.82C451.684 125.727 451.17 125.485 450.75 125.12C451.015 124.649 451.691 124.118 453.284 124.878C453.537 125.433 453.163 125.916 452.234 125.82Z" fill="#FF99BA"/>
<path d="M467.995 137.055C470.12 137.055 473.692 137.586 478.519 141.255C478.519 141.255 468.454 149.353 459.089 149.353C455.746 149.353 454.744 144.682 454.744 144.682C454.744 144.682 459.246 137.127 467.995 137.055Z" fill="#EB9481"/>
<path d="M627 484.537H587.572C558.921 484.537 541.397 464.732 538.247 428.78C536.69 411.051 535.737 389.593 534.735 366.879C531.646 297.087 527.41 201.539 500.243 201.539H469.021V194.298H500.243C534.325 194.298 538.211 281.88 541.964 366.578C542.966 389.219 543.919 410.604 545.464 428.128C547.431 450.551 556.326 477.283 587.572 477.283H627V484.537Z" fill="#F07C33"/>
<path opacity="0.2" d="M491.952 194.273L490.407 201.515H469.021V194.273H491.952Z" fill="black"/>
<path d="M410.175 154.554H397.551V242.764H410.175V154.554Z" fill="#F07C33"/>
<path d="M397.563 161.071H349.566V235.341H397.563V161.071Z" fill="#F07C33"/>
<path opacity="0.2" d="M397.551 161.083V235.353H385.627L380.281 161.083H397.551Z" fill="black"/>
<path d="M312.733 174.406H349.554V185.51H312.733C311.472 185.51 310.262 185.009 309.371 184.117C308.479 183.225 307.978 182.016 307.978 180.755V179.174C307.976 178.548 308.098 177.929 308.336 177.35C308.575 176.772 308.925 176.246 309.366 175.803C309.808 175.361 310.333 175.009 310.91 174.77C311.488 174.53 312.107 174.406 312.733 174.406Z" fill="#DBDBDB"/>
<path d="M349.554 174.406H336.629V185.498H349.554V174.406Z" fill="#A6A6A6"/>
<path d="M312.733 210.915H349.554V222.018H312.733C311.472 222.018 310.262 221.517 309.371 220.626C308.479 219.734 307.978 218.524 307.978 217.263V215.682C307.976 215.057 308.098 214.437 308.336 213.859C308.575 213.281 308.925 212.755 309.366 212.312C309.808 211.869 310.333 211.518 310.91 211.278C311.488 211.039 312.107 210.915 312.733 210.915Z" fill="#DBDBDB"/>
<path d="M349.554 210.915H336.629V222.006H349.554V210.915Z" fill="#A6A6A6"/>
<path d="M484.771 191.122H447.274V205.93H484.771V191.122Z" fill="#F07C33"/>
<path d="M484.771 191.134H447.274V205.942H484.771V191.134Z" fill="#F07C33"/>
<path opacity="0.2" d="M460.441 191.134L459.21 205.942H447.274V191.134H460.441Z" fill="black"/>
<path d="M410.175 163.872H439.852C441.82 163.872 443.708 164.654 445.1 166.046C446.492 167.438 447.274 169.326 447.274 171.294V225.132C447.274 227.101 446.492 228.989 445.1 230.381C443.708 231.773 441.82 232.555 439.852 232.555H410.175V163.872Z" fill="#F07C33"/>
<path opacity="0.2" d="M425.961 163.872L420.614 232.555H410.187V163.872H425.961Z" fill="black"/>
<g opacity="0.2">
<path d="M423.197 177.748H420.832V218.661H423.197V177.748Z" fill="black"/>
<path d="M429.907 177.749H427.542V218.661H429.907V177.749Z" fill="black"/>
<path d="M436.617 177.749H434.252V218.661H436.617V177.749Z" fill="black"/>
</g>
<path d="M481.295 149.69C485.447 161.337 479.497 203.999 472.461 213.039C462.01 226.435 441.36 238.757 433.467 242.607C430.016 244.284 414.556 219.568 417.923 217.263C425.164 212.302 448.227 200.463 450.183 198.11C452.138 195.756 462.661 173.152 466.873 160.443C472.534 143.378 479.208 143.813 481.295 149.69Z" fill="#EB9481"/>
<path d="M433.443 242.68C422.497 248.932 400.713 248.015 397.744 247.11L393.906 245.903C389.332 244.611 388.101 242.089 388.101 242.089C388.101 242.089 382.381 242.161 381.753 238.71C381.053 234.836 389.224 235.487 393.942 233.098C404.804 227.631 418.587 216.817 421.543 214.935L433.443 242.68Z" fill="#EB9481"/>
<path d="M409.306 235.343C406.163 236.99 402.908 238.413 399.566 239.604C395.837 240.685 392.033 241.492 388.186 242.017C388.167 242.024 388.151 242.037 388.14 242.053C388.129 242.069 388.123 242.088 388.123 242.108C388.123 242.128 388.129 242.147 388.14 242.163C388.151 242.179 388.167 242.192 388.186 242.198C395.737 241.993 403.087 239.722 409.438 235.633C409.595 235.536 409.462 235.271 409.306 235.343Z" fill="#263238"/>
<path d="M413.554 241.389C410.344 242.716 404.684 245.009 393.894 245.806C393.894 245.806 393.894 245.866 393.894 245.878C400.746 246.352 407.595 244.91 413.675 241.715C413.868 241.57 413.771 241.304 413.554 241.389Z" fill="#263238"/>
<path d="M406.554 225.699C407.677 224.492 407.013 223.84 404.044 224.371C401.075 224.902 389.791 229.561 388.5 225.494C387.208 221.426 403.236 215.078 408.244 214.559C412.769 214.325 417.306 214.459 421.809 214.958C418.937 216.816 412.13 221.982 406.554 225.699Z" fill="#EB9481"/>
<path d="M469.649 152.624C476.951 137.26 483.613 141.327 484.252 156.522C484.468 167.073 483.992 177.628 482.828 188.117L456.362 180.538C456.362 180.538 464.979 162.46 469.649 152.624Z" fill="#DBDBDB"/>
<path d="M476.239 143.668C477.717 144.569 478.958 145.81 479.859 147.289C478.381 146.387 477.14 145.146 476.239 143.668ZM465.751 163.123C465.738 163.977 465.839 164.829 466.053 165.657C466.266 164.829 466.367 163.977 466.354 163.123C466.368 162.272 466.267 161.424 466.053 160.6C465.845 161.425 465.743 162.272 465.751 163.123ZM479.413 166.104C478.558 166.097 477.707 166.198 476.878 166.405C478.544 166.807 480.281 166.807 481.947 166.405C481.119 166.19 480.268 166.08 479.413 166.079V166.104ZM463.397 178.462C463.994 179.073 464.668 179.604 465.401 180.043C464.5 178.565 463.258 177.323 461.78 176.422C462.227 177.17 462.771 177.856 463.397 178.462ZM482.152 180.248C482.77 179.657 483.302 178.983 483.733 178.245C482.255 179.146 481.014 180.387 480.113 181.865C480.863 181.422 481.549 180.877 482.152 180.248Z" fill="white"/>
<path d="M467.139 157.307C466.149 159.322 465.111 161.302 464.073 163.341C464.25 162.4 464.395 161.446 464.508 160.481H464.435C464.29 161.229 464.109 161.977 463.965 162.726C463.904 163.088 463.832 163.45 463.759 163.812C463.759 163.884 463.759 163.957 463.759 164.041C462.951 165.586 462.154 167.143 461.346 168.712C460.429 170.595 459.572 172.489 458.703 174.384C457.834 176.279 457.025 178.596 456.048 180.515C456.879 180.861 457.745 181.12 458.63 181.287C458.86 181.372 458.98 181.142 458.739 181.106C458.498 181.07 456.518 180.286 456.494 180.274C457.363 178.355 458.437 176.544 459.354 174.662C460.272 172.779 461.213 170.92 462.094 169.026C463.88 165.188 465.449 161.241 467.223 157.391C467.223 157.295 467.139 157.259 467.139 157.307Z" fill="#263238"/>
<path d="M485.351 166.454C485.109 167.239 484.832 168.023 484.626 168.868C484.554 169.206 484.47 169.532 484.385 169.87C484.482 167.118 484.57 164.374 484.651 161.639C484.276 166.128 483.89 170.606 483.601 175.095C483.181 179.395 482.983 183.713 483.009 188.033C482.216 187.845 481.409 187.72 480.595 187.659C481.473 188.032 482.393 188.295 483.335 188.443C483.999 184.099 484.047 179.295 484.264 174.926C484.325 173.72 484.361 172.513 484.409 171.221C484.554 170.461 484.771 169.713 484.976 168.965C485.182 168.216 485.338 167.347 485.507 166.551C485.447 166.43 485.363 166.406 485.351 166.454Z" fill="#263238"/>
<path d="M481.754 184.111C478.025 182.783 462.577 177.907 459.174 177.075C458.932 177.014 458.836 177.147 459.077 177.231C466.481 179.983 474.032 182.324 481.694 184.243C481.79 184.28 481.851 184.135 481.754 184.111Z" fill="#263238"/>
<path d="M352.004 180.02C355.625 181.13 354.888 176.182 354.888 176.182C354.888 176.182 357.725 183.037 361.937 182.735C366.148 182.433 364.845 176.484 364.773 176.049C364.917 176.411 367.693 182.639 371.893 181.902C376.093 181.166 374.078 175.349 373.933 174.987C374.186 175.277 377.553 179.127 380.643 177.835C385.905 175.615 377.505 165.525 378.121 160.939L385.519 161.156C385.762 161.133 386.003 161.097 386.243 161.048L386.52 157.27C384.156 156.311 381.872 155.165 379.689 153.843C376.902 152.274 374.21 150.85 372.207 150.802C371.308 150.754 370.418 150.997 369.668 151.494C368.918 151.992 368.348 152.718 368.043 153.565C368.043 153.565 365.871 150.138 362.54 150.621C360.838 150.874 359.728 153.831 359.728 153.831C359.193 153.074 358.459 152.48 357.606 152.116C356.754 151.751 355.817 151.631 354.901 151.767C352.559 152.25 351.811 155.146 351.811 155.146C351.811 155.146 348.842 153.396 346.609 154.676C342.132 157.162 344.184 177.606 352.004 180.02Z" fill="#EB9481"/>
<path d="M379.038 160.504L385.482 161.095C385.726 161.072 385.967 161.036 386.207 160.987C394.341 159.514 399.41 150.197 393.448 149.534C388.97 149.015 384.119 154.965 379.593 153.77L379.038 160.504Z" fill="#EB9481"/>
<path d="M351.654 155.52H351.546C350.52 162.659 351.69 169.941 354.901 176.399C355.009 176.604 355.383 176.507 355.311 176.266C353.09 169.565 351.858 162.576 351.654 155.52Z" fill="#263238"/>
<path d="M359.728 153.673C359.728 153.588 359.595 153.588 359.583 153.673C358.496 161.544 360.26 169.545 364.555 176.229C364.712 176.459 365.086 176.507 364.917 176.229C362.238 171.571 359.728 160.299 359.728 153.673Z" fill="#263238"/>
<path d="M374.415 175.276C370.252 168.71 368.598 161.469 367.983 153.793C367.983 153.697 367.838 153.721 367.814 153.793C367.102 157.631 368.007 162.483 369.021 166.2C369.906 169.666 371.683 172.841 374.174 175.408C374.295 175.517 374.512 175.42 374.415 175.276Z" fill="#263238"/>
<path d="M248.251 452.26C245.753 453.093 174.222 452.888 171.495 451.162C170.469 450.51 169.89 440.083 169.552 427.471C169.467 424.756 169.419 421.944 169.371 419.084C169.371 415.704 169.274 412.277 169.25 408.946C169.166 394.005 169.371 380.85 169.371 380.85H215.944V408.946V419.084L215.702 427.471C215.702 427.471 243.05 439.805 245.874 442.026C248.698 444.247 250.75 451.488 248.251 452.26Z" fill="#AD6359"/>
<path d="M248.252 452.259C245.754 453.092 174.223 452.887 171.495 451.161C170.469 450.509 169.89 440.082 169.552 427.47C169.468 424.755 169.419 421.943 169.371 419.083C169.371 415.703 169.275 412.276 169.25 408.945H215.92V419.083L215.679 427.47C215.679 427.47 243.026 439.804 245.85 442.025C248.674 444.246 250.75 451.487 248.252 452.259Z" fill="white"/>
<path d="M248.469 452.418C246.84 452.961 216.379 453.069 194.16 452.611C189.019 452.49 184.324 452.357 180.547 452.188C175.321 451.947 171.821 451.669 171.254 451.307C169.987 450.499 169.395 435.196 169.106 419.048H215.896L215.654 427.496C215.654 427.496 243.159 439.902 245.959 442.135C248.759 444.368 251.028 451.573 248.469 452.418Z" fill="#F07C33"/>
<path d="M247.407 449.544C235.338 449.206 186.702 449.013 174.754 449.604C174.657 449.604 174.657 449.664 174.754 449.676C186.702 450.268 235.35 450.063 247.407 449.737C247.697 449.725 247.709 449.544 247.407 449.544Z" fill="#263238"/>
<path d="M217.404 424.816C212.661 423.923 206.856 424.635 203.224 428.002C203.079 428.135 203.224 428.328 203.429 428.28C207.967 426.826 212.648 425.867 217.392 425.42C217.472 425.421 217.55 425.391 217.607 425.335C217.665 425.28 217.698 425.204 217.7 425.124C217.702 425.044 217.671 424.966 217.616 424.909C217.56 424.851 217.484 424.818 217.404 424.816Z" fill="#263238"/>
<path d="M220.856 426.916C216.113 426.011 210.308 426.723 206.663 430.102C206.53 430.223 206.663 430.428 206.868 430.379C211.413 428.917 216.103 427.95 220.856 427.495C220.919 427.477 220.974 427.439 221.013 427.386C221.052 427.334 221.073 427.271 221.073 427.205C221.073 427.14 221.052 427.077 221.013 427.024C220.974 426.972 220.919 426.934 220.856 426.916Z" fill="#263238"/>
<path d="M224.247 428.968C219.504 428.063 213.699 428.775 210.066 432.142C209.921 432.275 210.066 432.48 210.259 432.431C214.799 430.982 219.48 430.019 224.223 429.559C224.292 429.548 224.355 429.514 224.401 429.462C224.448 429.41 224.475 429.343 224.477 429.273C224.48 429.204 224.459 429.135 224.417 429.079C224.375 429.024 224.315 428.984 224.247 428.968Z" fill="#263238"/>
<path d="M227.663 431.042C222.92 430.137 217.115 430.849 213.482 434.216C213.337 434.349 213.482 434.554 213.687 434.506C218.221 433.05 222.898 432.086 227.639 431.634C227.708 431.623 227.771 431.589 227.817 431.536C227.864 431.484 227.891 431.418 227.893 431.348C227.896 431.278 227.875 431.21 227.833 431.154C227.791 431.098 227.731 431.059 227.663 431.042Z" fill="#263238"/>
<path d="M226.202 413.869C224.344 411.299 220.868 412.445 218.889 414.098C215.532 417.013 213.002 420.759 211.551 424.96C211.543 424.978 211.54 424.998 211.541 425.018C211.543 425.038 211.549 425.057 211.56 425.074C211.571 425.09 211.585 425.104 211.603 425.114C211.62 425.124 211.64 425.129 211.659 425.129C211.659 425.491 211.997 425.877 212.396 425.721C216.318 424.284 220.699 423.234 224.054 420.628C226.021 419.107 227.964 416.307 226.202 413.869ZM217.899 422.317C215.992 423.065 214.049 423.729 212.166 424.55C213.535 422.396 215.014 420.313 216.596 418.31C217.37 417.349 218.213 416.446 219.118 415.607C220.53 414.316 226.13 411.6 225.273 416.814C224.802 419.674 220.18 421.412 217.899 422.317Z" fill="#263238"/>
<path d="M199.494 423.669C203.393 425.347 207.942 425.274 212.046 425.697C212.138 425.696 212.229 425.675 212.312 425.633C212.394 425.592 212.466 425.533 212.522 425.459C212.578 425.386 212.617 425.3 212.634 425.21C212.652 425.119 212.649 425.026 212.625 424.937C212.64 424.925 212.652 424.911 212.661 424.894C212.669 424.877 212.673 424.859 212.673 424.84C212.673 424.821 212.669 424.803 212.661 424.786C212.652 424.769 212.64 424.755 212.625 424.744C210.19 421.045 206.827 418.049 202.874 416.054C200.532 414.944 196.839 414.702 195.729 417.659C194.619 420.616 197.213 422.692 199.494 423.669ZM197.358 420.29C195.234 415.463 201.329 416.67 203.018 417.575C204.102 418.176 205.146 418.845 206.144 419.578C208.176 421.121 210.125 422.768 211.985 424.514C209.958 424.188 207.918 424.031 205.879 423.778C203.441 423.476 198.529 422.945 197.358 420.29Z" fill="#263238"/>
<path d="M222.558 415.764L164.845 416.801C164.845 416.801 156.989 365.739 151.823 333.987C149.868 322.051 148.323 312.83 147.696 310.054C146.199 303.429 116.957 198.263 116.957 198.263L158.908 198.202H173.245C173.245 198.202 172.328 215.786 172.871 217.633C180.354 243.086 195.645 288.222 200.424 303.948C207.749 328.121 222.558 415.764 222.558 415.764Z" fill="#A6A6A6"/>
<path d="M217.307 406.919C209.028 406.859 179.653 406.533 168.622 407.559C168.607 407.565 168.593 407.576 168.584 407.59C168.574 407.604 168.569 407.62 168.569 407.637C168.569 407.654 168.574 407.67 168.584 407.684C168.593 407.698 168.607 407.709 168.622 407.716C172.424 408.259 209.028 407.414 217.319 407.148C217.338 407.153 217.357 407.154 217.376 407.15C217.394 407.146 217.412 407.137 217.427 407.125C217.441 407.113 217.453 407.098 217.461 407.081C217.468 407.063 217.472 407.044 217.471 407.025C217.47 407.006 217.465 406.988 217.455 406.971C217.445 406.955 217.432 406.941 217.416 406.93C217.4 406.92 217.382 406.914 217.363 406.912C217.344 406.91 217.325 406.912 217.307 406.919Z" fill="#263238"/>
<path d="M165.787 363.397C163.791 350.194 161.567 337.023 159.113 323.885C157.906 317.428 156.59 310.983 154.901 304.575C153.211 298.166 151.063 291.83 148.867 285.543C144.546 273.039 140.418 260.476 136.544 247.828C132.67 235.18 129.062 222.484 125.683 209.679C125.248 208.062 124.826 206.445 124.355 204.852C124.355 204.719 124.126 204.779 124.15 204.852C125.465 211.296 127.167 217.681 128.796 224.053C130.426 230.425 132.176 236.773 133.998 243.097C137.667 255.793 141.645 268.401 145.934 280.92C148.07 287.148 150.291 293.363 152.185 299.675C154.08 305.987 155.553 312.383 156.868 318.828C159.535 331.91 161.804 345.077 163.904 358.244C166.004 371.411 167.802 384.795 169.564 398.07C169.794 399.748 170.011 401.438 170.228 403.127C170.288 403.598 171.037 403.598 170.988 403.127C169.625 389.888 167.754 376.625 165.787 363.397Z" fill="#263238"/>
<path d="M158.908 198.178L151.823 333.987C149.868 322.051 148.323 312.83 147.696 310.055C146.199 303.429 116.957 198.263 116.957 198.263L158.908 198.178Z" fill="#263238"/>
<path d="M176.673 463.701C174.174 464.533 102.644 464.328 99.916 462.59C98.8902 461.951 98.3109 451.523 97.973 438.912C97.8885 436.184 97.8402 433.384 97.792 430.524C97.792 427.133 97.6954 423.717 97.6713 420.386C97.5868 405.445 97.792 392.291 97.792 392.291H144.353V430.536L144.111 438.924C144.111 438.924 171.459 451.258 174.283 453.478C177.107 455.699 179.171 462.88 176.673 463.701Z" fill="#AD6359"/>
<path d="M176.672 463.701C174.174 464.533 102.643 464.328 99.9159 462.59C98.8901 461.951 98.3108 451.523 97.9729 438.912C97.8884 436.184 97.8401 433.384 97.7918 430.524C97.7918 427.133 97.6953 423.717 97.6711 420.386H144.341V430.536L144.099 438.924C144.099 438.924 171.447 451.258 174.271 453.478C177.095 455.699 179.171 462.88 176.672 463.701Z" fill="white"/>
<path d="M176.89 463.81C175.261 464.341 144.788 464.449 122.581 463.991C117.452 463.882 112.758 463.737 108.968 463.58C103.754 463.339 100.254 463.049 99.6752 462.687C98.4683 461.879 97.8166 446.588 97.5391 430.44H144.329L144.088 438.888C144.088 438.888 171.616 451.282 174.416 453.467C177.216 455.651 179.401 462.965 176.89 463.81Z" fill="#F07C33"/>
<path d="M175.864 460.925C163.795 460.599 115.146 460.394 103.211 460.986C103.114 460.986 103.114 461.058 103.211 461.07C115.146 461.649 163.807 461.456 175.864 461.13C176.117 461.118 176.117 460.937 175.864 460.925Z" fill="#263238"/>
<path d="M145.825 436.208C141.082 435.303 135.277 436.015 131.644 439.382C131.499 439.515 131.644 439.72 131.837 439.672C136.377 438.222 141.058 437.259 145.801 436.799C145.87 436.789 145.933 436.754 145.979 436.702C146.026 436.65 146.053 436.583 146.056 436.514C146.058 436.444 146.037 436.375 145.995 436.319C145.953 436.264 145.893 436.224 145.825 436.208Z" fill="#263238"/>
<path d="M149.241 438.285C144.498 437.379 138.693 438.092 135.06 441.459C134.915 441.591 135.06 441.797 135.265 441.748C139.803 440.291 144.484 439.328 149.229 438.876C149.297 438.864 149.359 438.828 149.404 438.775C149.45 438.722 149.475 438.655 149.477 438.585C149.478 438.516 149.455 438.448 149.412 438.393C149.369 438.338 149.309 438.3 149.241 438.285Z" fill="#263238"/>
<path d="M152.668 440.347C147.925 439.454 142.12 440.166 138.475 443.533C138.343 443.666 138.475 443.859 138.681 443.811C143.22 442.364 147.901 441.405 152.644 440.951C152.724 440.954 152.802 440.925 152.861 440.871C152.92 440.817 152.955 440.741 152.958 440.661C152.961 440.581 152.932 440.503 152.878 440.444C152.824 440.385 152.748 440.351 152.668 440.347Z" fill="#263238"/>
<path d="M156.083 442.424C151.34 441.531 145.535 442.243 141.903 445.611C141.758 445.743 141.903 445.936 142.096 445.888C146.636 444.442 151.317 443.484 156.059 443.028C156.139 443.031 156.217 443.002 156.276 442.948C156.335 442.894 156.37 442.818 156.373 442.738C156.376 442.658 156.348 442.58 156.293 442.521C156.239 442.463 156.163 442.428 156.083 442.424Z" fill="#263238"/>
<path d="M154.623 425.262C152.765 422.68 149.289 423.826 147.298 425.492C143.942 428.406 141.411 432.152 139.96 436.353C139.954 436.373 139.953 436.393 139.957 436.412C139.96 436.432 139.968 436.451 139.98 436.467C139.991 436.483 140.006 436.497 140.024 436.506C140.041 436.516 140.061 436.521 140.081 436.522C140.075 436.615 140.092 436.707 140.129 436.791C140.167 436.876 140.224 436.95 140.296 437.008C140.368 437.066 140.453 437.106 140.544 437.124C140.634 437.142 140.728 437.139 140.817 437.114C144.739 435.678 149.108 434.628 152.475 432.021C154.478 430.536 156.373 427.688 154.623 425.262ZM146.32 433.71C144.401 434.471 142.47 435.122 140.587 435.955C142.024 433.843 143.363 431.683 145.005 429.716C145.785 428.756 146.628 427.849 147.527 427C148.951 425.721 154.539 423.005 153.694 428.207C153.272 431.067 148.601 432.805 146.32 433.698V433.71Z" fill="#263238"/>
<path d="M127.927 435.062C131.838 436.739 136.375 436.667 140.491 437.089C140.584 437.09 140.677 437.068 140.76 437.026C140.844 436.984 140.916 436.923 140.972 436.848C141.027 436.772 141.064 436.685 141.079 436.593C141.094 436.5 141.087 436.406 141.058 436.317C141.077 436.31 141.094 436.3 141.108 436.286C141.122 436.273 141.133 436.256 141.14 436.237C141.147 436.219 141.15 436.199 141.148 436.179C141.147 436.16 141.141 436.141 141.131 436.124C138.671 432.429 135.289 429.442 131.319 427.458C128.977 426.348 125.284 426.107 124.174 429.063C123.064 432.02 125.622 434.084 127.927 435.062ZM125.803 431.67C123.679 426.843 129.774 428.05 131.464 428.967C132.549 429.559 133.594 430.225 134.589 430.958C136.618 432.509 138.568 434.16 140.431 435.906C138.391 435.568 136.351 435.424 134.312 435.17C131.862 434.868 126.95 434.337 125.779 431.67H125.803Z" fill="#263238"/>
<path d="M150.858 426.469H94.3884C94.3884 426.469 106.662 251.378 104.683 241.566C101.437 225.502 103.597 207.049 111.2 198.119H161.442C161.442 198.119 162.443 212.215 157.254 220.639C157.254 220.639 152.535 223.62 150.254 224.935L150.858 426.469Z" fill="#A6A6A6"/>
<path d="M145.596 417.334C137.776 417.141 140.032 417.08 132.2 416.972C128.374 416.911 103.235 416.561 99.6146 417.128C99.5301 417.128 99.5301 417.273 99.6146 417.285C103.235 417.901 128.362 417.816 132.2 417.792C140.02 417.792 137.776 417.684 145.596 417.563C145.62 417.555 145.641 417.54 145.656 417.519C145.671 417.498 145.679 417.474 145.679 417.448C145.679 417.423 145.671 417.398 145.656 417.377C145.641 417.357 145.62 417.342 145.596 417.334Z" fill="#263238"/>
<path d="M160.392 218.43C155.452 220.811 150.725 223.609 146.26 226.793C146.223 226.816 146.197 226.852 146.186 226.894C146.176 226.936 146.183 226.98 146.206 227.017C146.228 227.054 146.264 227.08 146.306 227.09C146.348 227.1 146.392 227.093 146.429 227.071C151.256 224.428 156.084 221.869 160.718 218.973C160.79 218.93 160.842 218.86 160.862 218.778C160.883 218.697 160.87 218.611 160.827 218.539C160.784 218.466 160.713 218.415 160.632 218.394C160.55 218.374 160.464 218.387 160.392 218.43Z" fill="#263238"/>
<path d="M153.983 217.706C153.697 218.68 153.471 219.672 153.307 220.675C153.102 221.462 153.049 222.281 153.151 223.088C153.151 223.245 153.404 223.233 153.476 223.088C153.855 222.328 154.116 221.514 154.249 220.675C154.49 219.745 154.756 218.828 154.961 217.899C155.106 217.307 154.176 217.102 153.983 217.706Z" fill="#263238"/>
<path d="M153.537 212.866C153.67 212.022 153.803 211.189 153.96 210.356C154.117 209.523 154.334 208.618 154.418 207.749C154.418 207.605 154.66 207.653 154.636 207.749C154.503 208.594 154.491 209.463 154.418 210.308C154.346 211.153 154.273 212.01 154.189 212.854C154.019 214.447 153.769 216.03 153.441 217.597C154.274 217.455 155.066 217.13 155.758 216.644C156.399 215.983 156.821 215.14 156.965 214.23C157.206 213.265 157.423 212.299 157.677 211.334C158.019 210.288 158.265 209.214 158.413 208.124C158.413 207.979 158.654 208.027 158.63 208.124C158.434 210.418 158.005 212.686 157.351 214.894C157.21 215.769 156.76 216.566 156.084 217.139C155.212 217.604 154.256 217.887 153.272 217.971C153.163 217.971 152.994 217.971 153.006 217.839C153.101 216.174 153.278 214.514 153.537 212.866Z" fill="#263238"/>
<path d="M112.842 240.925C112.48 237.232 111.876 233.563 111.478 229.87C110.723 222.477 111.172 215.01 112.805 207.76C112.805 207.628 112.624 207.567 112.6 207.76C111.171 214.128 110.507 220.642 110.621 227.167C110.947 233.684 112.106 240.104 112.202 246.633C112.299 253.163 111.792 259.849 111.369 266.438C110.947 273.028 110.512 279.714 110.09 286.339C108.376 312.999 106.795 339.658 105.166 366.33C104.715 373.764 104.281 381.207 103.863 388.657C103.428 396.224 102.897 403.803 102.656 411.394C102.656 412.046 103.597 411.998 103.657 411.394C104.792 398.01 105.444 384.578 106.3 371.194C107.157 357.81 107.918 344.643 108.714 331.367C109.511 318.092 110.319 304.816 111.128 291.541C111.514 284.911 111.916 278.281 112.335 271.652C112.721 265.05 113.204 258.437 113.3 251.823C113.353 248.185 113.2 244.546 112.842 240.925Z" fill="#263238"/>
<path d="M130.631 207.267C130.62 207.25 130.605 207.235 130.587 207.225C130.569 207.215 130.549 207.21 130.528 207.21C130.508 207.21 130.487 207.215 130.47 207.225C130.452 207.235 130.436 207.25 130.426 207.267C130.126 208.142 129.967 209.058 129.955 209.983C129.799 210.972 129.569 211.948 129.267 212.903C128.713 214.824 127.674 216.569 126.25 217.972C123.088 220.929 118.852 222.027 114.773 223.017C114.746 223.025 114.722 223.042 114.705 223.065C114.688 223.087 114.679 223.115 114.679 223.143C114.679 223.172 114.688 223.199 114.705 223.222C114.722 223.245 114.746 223.262 114.773 223.27C117.196 223.379 119.618 223.002 121.893 222.16C123.923 221.539 125.796 220.49 127.384 219.082C128.901 217.639 129.938 215.764 130.353 213.712C130.569 212.639 130.682 211.548 130.691 210.453C130.691 209.934 130.691 209.415 130.691 208.884C130.778 208.346 130.757 207.797 130.631 207.267Z" fill="#263238"/>
<path d="M154.285 139.537C155.323 147.744 171.398 178.253 188.512 191.77C194.787 196.73 228.061 199.663 236.388 199.011C246.127 198.263 247.588 175.079 242.133 173.269C235.314 171.012 203.767 168.224 197.575 166.028C190.044 163.3 176.335 145.789 163.3 134.951C156.602 129.339 153.489 133.225 154.285 139.537Z" fill="#AD6359"/>
<path d="M236.388 199.023C239.466 198.939 253.55 197.322 257.376 195.994C261.201 194.666 271.858 190.056 271.182 187.027C270.506 183.998 267.224 185.096 267.224 185.096C267.224 185.096 271.436 182.429 270.434 179.448C269.432 176.467 264.4 178.35 264.4 178.35C264.4 178.35 268.527 175.296 267.308 172.388C266.089 169.479 261.394 172.219 261.394 172.219C261.394 172.219 265.305 169.6 263.301 167.621C260.888 165.207 254.226 170.891 249.905 172.038C248.916 172.303 229.606 175.912 229.606 175.912L236.388 199.023Z" fill="#AD6359"/>
<path d="M261.89 171.989C256.978 176.117 254.117 177.082 247.866 177.939C247.845 177.947 247.826 177.961 247.813 177.979C247.8 177.997 247.793 178.019 247.793 178.042C247.793 178.064 247.8 178.086 247.813 178.105C247.826 178.123 247.845 178.137 247.866 178.144C254.057 177.855 257.823 177.167 262.095 172.219C262.276 171.977 262.083 171.796 261.89 171.989Z" fill="#263238"/>
<path d="M264.822 178.011C259.355 181.921 256.265 182.923 249.821 184.335C249.736 184.335 249.76 184.516 249.821 184.504C256.289 183.671 260.031 182.899 264.991 178.337C265.196 178.108 265.075 177.83 264.822 178.011Z" fill="#263238"/>
<path d="M266.885 185.157C261.322 188.5 257.979 189.816 251.51 190.359C251.478 190.359 251.447 190.371 251.424 190.394C251.402 190.417 251.389 190.447 251.389 190.479C251.389 190.511 251.402 190.542 251.424 190.565C251.447 190.587 251.478 190.6 251.51 190.6C257.15 190.94 262.698 189.05 266.958 185.338C267.284 185.085 267.235 184.952 266.885 185.157Z" fill="#263238"/>
<path d="M225.14 173.378C228.391 171.277 231.792 169.418 235.314 167.814C238.718 166.607 253.079 166.607 253.236 169.721C253.453 173.728 245.162 175.333 240.999 175.598C240.999 175.598 241.518 184.855 235.809 187.305C230.101 189.755 225.14 173.378 225.14 173.378Z" fill="#AD6359"/>
<path d="M252.946 170.844C250.533 174.633 245.017 174.621 240.998 175.176C240.938 175.179 240.879 175.198 240.827 175.23C240.775 175.262 240.732 175.306 240.702 175.359C240.672 175.412 240.656 175.472 240.655 175.533C240.654 175.593 240.668 175.654 240.697 175.707C240.697 179.606 239.49 185.085 236.05 187.39C235.942 187.462 236.05 187.619 236.135 187.559C240.129 185.58 241.747 180.318 241.517 176.009C245.645 175.514 251.172 175.285 252.983 170.856C252.995 170.832 252.958 170.82 252.946 170.844Z" fill="#263238"/>
<path d="M207.641 198.577C207.641 198.577 190.6 193.919 188.524 192.29C186.259 190.509 184.099 188.599 182.055 186.569C166.547 171.326 157.182 150.544 154.647 143.303C151.968 135.591 154.43 128.205 161.611 133.177C162.189 133.587 162.745 134.026 163.276 134.493C171.724 141.855 194.317 164.242 197.069 165.389C199.82 166.535 213.084 168.273 213.084 168.273L207.641 198.577Z" fill="#455A64"/>
<path d="M182.055 186.569C166.547 171.326 157.182 150.544 154.647 143.303C151.968 135.591 154.43 128.205 161.611 133.177L182.055 186.569Z" fill="#263238"/>
<path d="M207.58 167.742C206.787 170.071 206.13 172.444 205.613 174.85C205.022 177.264 204.406 179.678 203.912 182.091C202.837 186.825 202.031 191.616 201.498 196.441C201.498 196.47 201.509 196.497 201.53 196.518C201.55 196.538 201.578 196.549 201.606 196.549C201.635 196.549 201.663 196.538 201.683 196.518C201.704 196.497 201.715 196.47 201.715 196.441C203.018 191.71 203.984 186.87 204.974 182.067C205.468 179.653 205.915 177.312 206.41 174.947C206.905 172.581 207.496 170.119 207.761 167.778C207.766 167.754 207.761 167.729 207.748 167.709C207.734 167.688 207.713 167.674 207.689 167.669C207.665 167.664 207.64 167.669 207.62 167.683C207.599 167.697 207.585 167.718 207.58 167.742Z" fill="#263238"/>
<path d="M170.819 156.253C171.217 158.039 171.531 159.873 171.773 161.756C171.767 161.684 171.767 161.611 171.773 161.539C171.869 160.513 171.942 159.463 172.123 158.449C172.123 158.449 172.219 158.389 172.219 158.449C172.281 159.492 172.241 160.539 172.098 161.575C172.038 162.07 171.978 162.565 171.905 163.047C171.99 163.88 172.062 164.713 172.11 165.533C172.207 167.102 172.509 173.8 172.473 174.947C172.473 175.188 172.195 175.212 172.135 174.947C171.905 173.74 171.302 166.873 171.133 165.292C170.817 162.277 170.664 159.248 170.674 156.216C170.698 156.18 170.795 156.192 170.819 156.253Z" fill="#263238"/>
<path d="M172.738 206.384C170.324 208.557 167.38 211.731 150.435 212.913C149.373 212.913 148.287 212.998 147.201 212.913C130.884 212.455 107.99 199.638 106.626 198.624C106.626 198.624 124.21 151.05 147.466 132.79C150.785 130.171 157.906 131.462 162.359 134.154C163.952 135.119 169.214 143.917 170.276 151.931C171.338 159.944 175.14 204.212 172.738 206.384Z" fill="#455A64"/>
<path d="M159.523 146.079C155.42 146.417 149.542 139.32 147.611 134.01C147.478 133.648 148.54 130.184 149.627 125.912C150.278 123.317 150.942 120.421 151.352 117.729C151.437 117.174 153.163 118.478 153.163 118.478L156.518 119.854L167.621 124.415C166.137 127.634 165.055 131.022 164.399 134.505C164.363 134.882 164.363 135.262 164.399 135.639C164.404 135.7 164.404 135.76 164.399 135.82C164.362 137.956 163.481 145.717 159.523 146.079Z" fill="#AD6359"/>
<path d="M164.35 135.627C164.356 135.687 164.356 135.748 164.35 135.808C163.763 135.801 163.178 135.744 162.6 135.639C151.256 133.648 152.065 118.96 152.065 118.96L156.53 119.841L167.633 124.403C166.15 127.622 165.067 131.01 164.411 134.493C164.355 134.868 164.335 135.248 164.35 135.627Z" fill="#263238"/>
<path d="M150.206 100.048C148.046 106.01 150.351 123.654 154.454 127.806C160.404 133.84 170.602 134.842 175.779 127.577C180.812 120.553 177.397 97.5983 172.774 93.7846C165.956 88.1968 153.392 91.2502 150.206 100.048Z" fill="#AD6359"/>
<path d="M166.281 112.263C166.281 112.263 166.197 112.335 166.209 112.384C166.39 113.59 166.414 114.954 165.376 115.485C165.376 115.485 165.376 115.558 165.376 115.546C166.692 115.196 166.655 113.349 166.281 112.263Z" fill="#263238"/>
<path d="M165.063 111.152C163.132 111.248 163.469 115.098 165.256 115.013C167.042 114.929 166.68 111.067 165.063 111.152Z" fill="#263238"/>
<path d="M173.595 111.465C173.595 111.465 173.691 111.465 173.691 111.561C173.764 112.768 174.041 114.12 175.152 114.433C173.788 114.421 173.462 112.611 173.595 111.465Z" fill="#263238"/>
<path d="M174.561 110.127C176.467 109.825 176.974 113.663 175.176 113.952C173.378 114.242 172.956 110.392 174.561 110.127Z" fill="#263238"/>
<path d="M163.566 108.304C164.073 108.123 164.519 107.87 165.014 107.64C165.552 107.483 166.024 107.152 166.354 106.699C166.434 106.536 166.457 106.352 166.42 106.175C166.383 105.997 166.287 105.838 166.148 105.721C165.835 105.54 165.479 105.445 165.117 105.445C164.754 105.445 164.398 105.54 164.085 105.721C163.392 105.983 162.823 106.496 162.492 107.157C162.431 107.311 162.415 107.478 162.446 107.639C162.477 107.801 162.553 107.951 162.666 108.071C162.778 108.191 162.923 108.277 163.082 108.318C163.241 108.359 163.409 108.354 163.566 108.304Z" fill="#263238"/>
<path d="M175.768 108.822C175.24 108.764 174.716 108.676 174.199 108.557C173.634 108.539 173.091 108.335 172.654 107.978C172.546 107.835 172.488 107.661 172.488 107.483C172.488 107.304 172.546 107.131 172.654 106.988C172.902 106.724 173.218 106.533 173.566 106.435C173.915 106.338 174.284 106.337 174.633 106.433C175.372 106.509 176.056 106.858 176.552 107.41C176.656 107.547 176.718 107.71 176.731 107.881C176.743 108.052 176.706 108.223 176.622 108.373C176.539 108.523 176.414 108.646 176.262 108.725C176.11 108.805 175.938 108.839 175.768 108.822Z" fill="#263238"/>
<path d="M171.918 117.959C172.039 118.828 172.115 119.702 172.147 120.578C170.515 120.585 168.891 120.812 167.319 121.254C166.957 121.375 166.957 121.061 167.319 120.819C168.549 120.088 169.971 119.747 171.399 119.842C171.399 119.613 170.988 117.114 171.121 117.102C171.769 117.168 172.406 117.318 173.016 117.549C172.642 113.832 171.676 110.199 171.35 106.494C171.35 106.361 171.531 106.313 171.568 106.434C172.734 110.292 173.506 114.259 173.873 118.273C173.981 118.744 172.255 118.092 171.918 117.959Z" fill="#263238"/>
<path d="M151.485 114.76C154.527 114.543 154.14 107.109 154.14 107.109C154.14 107.109 158.775 106.215 160.959 99.8674C160.959 99.8674 166.994 103.488 171.978 102.571C179.798 101.05 179.46 90.8521 176.504 88.8125C172.304 85.9161 164.942 90.297 164.942 90.297C164.942 90.297 153.694 87.316 150.46 94.9434C149.007 95.0624 147.654 95.7277 146.673 96.805C145.692 97.8823 145.156 99.2915 145.173 100.748C144.884 106.24 149.229 114.917 151.485 114.76Z" fill="#263238"/>
<path d="M153.067 108.001C155.317 107.584 157.364 106.429 158.884 104.718C159.7 103.793 160.281 102.685 160.577 101.487C160.874 100.289 160.876 99.038 160.585 97.839C160.593 97.8177 160.607 97.7993 160.625 97.7862C160.643 97.7731 160.665 97.7661 160.688 97.7661C160.711 97.7661 160.732 97.7731 160.751 97.7862C160.769 97.7993 160.783 97.8177 160.791 97.839C161.152 99.0943 161.231 100.414 161.022 101.703C160.813 102.993 160.322 104.22 159.584 105.297C158.846 106.319 157.854 107.13 156.707 107.65C155.56 108.171 154.297 108.383 153.042 108.266C152.97 108.206 152.934 108.025 153.067 108.001Z" fill="#263238"/>
<path d="M164.64 90.635C165.61 89.0348 167.128 87.8421 168.913 87.2799C171.082 86.6642 173.403 86.8704 175.43 87.8592C176.236 88.2818 176.917 88.9091 177.404 89.6781C177.891 90.447 178.168 91.3306 178.206 92.2401C178.23 94.3504 177.527 96.4046 176.214 98.0572C176.214 98.0572 176.106 98.0572 176.142 98.0572C177.189 96.497 177.725 94.6496 177.674 92.7712C177.642 91.8774 177.357 91.0111 176.853 90.2723C176.349 89.5334 175.646 88.9521 174.826 88.5954C171.592 87.2075 166.885 87.4972 164.809 90.7919C164.749 90.8643 164.568 90.7436 164.64 90.635Z" fill="#263238"/>
<path d="M153.272 114.482C153.272 114.482 149.494 108.701 146.875 110.041C144.256 111.381 146.996 119.696 149.977 120.903C150.348 121.084 150.752 121.188 151.164 121.21C151.576 121.231 151.989 121.169 152.377 121.027C152.764 120.885 153.119 120.666 153.42 120.383C153.721 120.101 153.962 119.76 154.128 119.382L153.272 114.482Z" fill="#AD6359"/>
<path d="M147.66 112.396C147.66 112.396 147.66 112.456 147.66 112.48C148.614 112.993 149.45 113.701 150.113 114.557C150.776 115.414 151.252 116.4 151.51 117.452C151.394 117.236 151.233 117.047 151.037 116.899C150.841 116.751 150.615 116.647 150.375 116.596C150.135 116.544 149.886 116.545 149.646 116.599C149.407 116.653 149.182 116.759 148.987 116.909C148.987 116.909 148.987 117.03 148.987 117.018C149.362 116.911 149.761 116.924 150.128 117.053C150.496 117.183 150.814 117.424 151.039 117.742C151.414 118.278 151.729 118.852 151.98 119.456C152.077 119.649 152.415 119.552 152.355 119.335C152.524 116.595 150.544 112.758 147.66 112.396Z" fill="#263238"/>
<path d="M39.4282 486.438H0V479.196H39.4282C70.6618 479.196 79.5685 452.464 81.5357 430.041C83.0804 412.481 84.0218 391.095 85.0235 368.491C88.7768 283.793 92.6629 196.211 126.745 196.211H157.978V203.452H126.721C99.5662 203.452 95.3422 299.024 92.2405 368.793C91.2268 391.518 90.2733 412.976 88.7286 430.705C85.5907 466.633 68.0791 486.438 39.4282 486.438Z" fill="#F07C33"/>
<path opacity="0.2" d="M157.978 196.175V203.416H133.069L131.524 196.175H157.978Z" fill="black"/>
<path d="M266.33 246.575H279.63V153.67H266.33V246.575Z" fill="#F07C33"/>
<path d="M266.331 158.073H215.787V241.202H266.331V158.073Z" fill="#F07C33"/>
<path opacity="0.2" d="M266.33 158.073V241.202H253.779L248.143 158.073H266.33Z" fill="black"/>
<path d="M139.224 207.195H176.721V192.386H139.224V207.195Z" fill="#F07C33"/>
<path d="M176.721 192.398H139.224V207.206H176.721V192.398Z" fill="#F07C33"/>
<path opacity="0.2" d="M163.554 207.194L164.785 192.398H176.721V207.194H163.554Z" fill="black"/>
<path d="M215.787 236.279H184.143C182.175 236.279 180.287 235.497 178.895 234.105C177.503 232.713 176.721 230.826 176.721 228.857V171.362C176.721 169.394 177.503 167.506 178.895 166.114C180.287 164.722 182.175 163.94 184.143 163.94H215.787V236.279Z" fill="#F07C33"/>
<path opacity="0.2" d="M199.156 236.279L204.792 163.951H215.787V236.279H199.156Z" fill="black"/>
<g opacity="0.2">
<path d="M202.065 221.653H204.563V178.568H202.065V221.653Z" fill="black"/>
<path d="M195.005 221.653H197.503V178.568H195.005V221.653Z" fill="black"/>
<path d="M187.933 221.653H190.431V178.568H187.933V221.653Z" fill="black"/>
</g>
<path d="M136.918 149.518C135.711 166.945 134.336 202.439 142.035 212.854C152.137 226.516 180.655 234.807 189.103 237.293C192.724 238.367 201.401 214.362 199.253 210.911C197.105 207.459 167.669 200.049 165.352 198.022C163.035 195.994 155.697 167.705 152.209 153.295C147.696 135.12 137.413 142.639 136.918 149.518Z" fill="#AD6359"/>
<path d="M221.001 220.132C225.647 221.242 232.695 218.853 232.925 222.413C233.13 225.575 228.097 226.746 228.097 226.746C228.097 226.746 234.204 227.265 233.456 230.728C232.707 234.192 226.915 234.349 226.915 234.349C226.915 234.349 232.514 235.109 231.513 238.513C230.511 241.916 225.14 242.387 225.14 242.387C225.14 242.387 226.552 243.437 224.766 245.524C222.22 248.517 213.724 248.167 209.343 246.936C204.962 245.705 189.791 237.933 187.486 236.69L195.174 208.45C195.174 208.45 203.996 207.05 208.558 206.881C213.12 206.712 228.29 210.332 227.651 214.122C227.011 217.911 216.33 215.208 213.567 215.112C210.803 215.015 210.32 215.63 211.527 216.644C212.311 217.356 218.937 219.637 221.001 220.132Z" fill="#AD6359"/>
<path d="M227.819 226.685C220.687 227.892 217.356 227.096 210.815 224.272C210.682 224.211 210.573 224.392 210.706 224.465C216.861 227.784 220.904 229.292 227.892 227.011C228.242 226.915 228.169 226.637 227.819 226.685Z" fill="#263238"/>
<path d="M227.192 234.227C219.673 234.77 216.064 234.01 208.992 231.572C208.896 231.572 208.823 231.705 208.92 231.753C215.666 234.71 219.721 236.146 227.168 234.613C227.506 234.553 227.542 234.203 227.192 234.227Z" fill="#263238"/>
<path d="M225.044 242.338C217.718 242.338 213.723 241.662 207.158 238.428C207.128 238.413 207.093 238.41 207.061 238.42C207.028 238.429 207.001 238.451 206.984 238.48C206.967 238.509 206.962 238.544 206.97 238.577C206.977 238.61 206.997 238.638 207.025 238.657C213.397 242.616 218.382 243.485 225.019 242.567C225.466 242.495 225.502 242.338 225.044 242.338Z" fill="#263238"/>
<path d="M166.836 231.632C166.836 231.632 143.821 220.07 140.285 211.212C135.941 200.157 134.167 167.922 135.856 151.388C137.546 134.854 149.059 136.906 152.752 151.521C156.373 165.786 164.543 194.28 165.388 195.619C166.462 197.345 179.593 200.592 179.593 200.592" fill="#455A64"/>
<path d="M164.532 191.927C164.133 190.563 163.433 187.486 163.035 186.158C162.227 183.503 161.418 180.836 160.621 178.181C159.825 175.526 158.968 172.859 158.087 170.216C157.93 169.769 157.785 169.311 157.64 168.864C157.713 168.574 157.387 165.075 157.411 164.218C157.411 164.085 157.194 164.073 157.206 164.218C157.238 165.075 157.21 165.934 157.122 166.788C157.122 166.945 157.122 167.114 157.122 167.271C156.566 165.533 156.011 163.807 155.444 162.118C155.444 161.997 155.203 162.045 155.239 162.118C156.325 165.738 156.856 168.019 157.653 170.952C158.449 173.885 159.27 176.612 160.066 179.4C160.863 182.188 161.792 185.024 162.673 187.848C163.169 189.522 163.749 191.169 164.411 192.784C164.918 193.87 164.942 193.363 164.532 191.927Z" fill="#263238"/>
<path d="M138.572 201.666C138.102 198.685 137.631 195.632 137.269 192.687C136.533 186.653 136.062 180.715 135.797 174.681C135.64 171.229 135.386 167.802 135.193 164.362C135.193 164.327 135.179 164.293 135.154 164.268C135.129 164.243 135.096 164.229 135.06 164.229C135.025 164.229 134.991 164.243 134.967 164.268C134.942 164.293 134.928 164.327 134.928 164.362C134.928 167.428 134.819 170.481 134.928 173.546C134.928 173.993 134.928 174.44 134.928 174.886L134.783 174.259C134.336 172.509 133.709 170.795 133.323 169.021C133.312 169 133.294 168.984 133.273 168.976C133.252 168.967 133.228 168.966 133.206 168.973C133.184 168.981 133.166 168.995 133.154 169.015C133.142 169.035 133.138 169.058 133.141 169.081C133.576 170.843 133.805 172.702 134.216 174.427C134.433 175.308 134.65 176.19 134.891 177.071L135.012 177.445C135.085 179.207 135.169 180.969 135.29 182.731C135.617 188.778 136.314 194.799 137.378 200.761C138.107 204.66 139.16 208.491 140.528 212.214C140.534 212.233 140.547 212.249 140.563 212.26C140.579 212.271 140.598 212.277 140.618 212.277C140.638 212.277 140.657 212.271 140.673 212.26C140.689 212.249 140.702 212.233 140.709 212.214C139.996 209.233 139.055 204.647 138.572 201.666Z" fill="#263238"/>
<path d="M175.321 200.582C174.06 202.748 172.932 204.989 171.942 207.292C170.879 209.561 169.805 211.83 168.804 214.123C166.773 218.638 164.996 223.264 163.481 227.978C163.479 228.004 163.484 228.031 163.498 228.053C163.512 228.076 163.533 228.093 163.558 228.103C163.582 228.113 163.61 228.114 163.635 228.106C163.661 228.099 163.683 228.083 163.699 228.062C165.943 223.597 167.862 218.95 169.817 214.352C170.783 212.083 171.712 209.79 172.666 207.521C173.619 205.252 174.705 202.971 175.441 200.63C175.466 200.558 175.357 200.521 175.321 200.582Z" fill="#263238"/>
<path d="M301.909 138.127C301.749 138.127 301.596 138.063 301.482 137.95C301.369 137.837 301.306 137.683 301.306 137.523V120.543C301.306 120.383 301.369 120.229 301.482 120.116C301.596 120.003 301.749 119.939 301.909 119.939C302.069 119.939 302.223 120.003 302.336 120.116C302.449 120.229 302.513 120.383 302.513 120.543V137.523C302.513 137.683 302.449 137.837 302.336 137.95C302.223 138.063 302.069 138.127 301.909 138.127Z" fill="#263238"/>
<path d="M271.182 146.261C271.075 146.261 270.97 146.233 270.877 146.18C270.784 146.127 270.706 146.051 270.651 145.959L262.203 131.247C262.154 131.179 262.119 131.101 262.101 131.018C262.084 130.936 262.083 130.85 262.101 130.768C262.118 130.685 262.153 130.607 262.202 130.539C262.252 130.47 262.315 130.413 262.388 130.371C262.461 130.328 262.542 130.301 262.626 130.292C262.71 130.283 262.795 130.292 262.875 130.318C262.956 130.343 263.03 130.386 263.093 130.442C263.156 130.498 263.206 130.567 263.241 130.644L271.689 145.355C271.73 145.423 271.757 145.499 271.768 145.577C271.779 145.655 271.775 145.735 271.754 145.812C271.734 145.888 271.699 145.96 271.65 146.022C271.602 146.085 271.541 146.137 271.472 146.176C271.385 146.23 271.285 146.259 271.182 146.261Z" fill="#263238"/>
<path d="M262.348 267.334C262.241 267.335 262.137 267.306 262.046 267.25C261.979 267.206 261.921 267.149 261.876 267.082C261.831 267.015 261.801 266.94 261.786 266.861C261.771 266.782 261.773 266.701 261.791 266.622C261.808 266.544 261.842 266.47 261.889 266.405L270.337 251.705C270.377 251.636 270.43 251.576 270.493 251.527C270.556 251.479 270.628 251.443 270.704 251.423C270.781 251.402 270.861 251.396 270.94 251.407C271.019 251.417 271.095 251.443 271.164 251.482C271.233 251.522 271.293 251.575 271.342 251.638C271.39 251.701 271.426 251.772 271.447 251.849C271.468 251.926 271.473 252.006 271.463 252.085C271.453 252.164 271.427 252.24 271.387 252.309L262.939 267.008C262.884 267.115 262.799 267.204 262.693 267.262C262.588 267.32 262.468 267.345 262.348 267.334Z" fill="#263238"/>
<path d="M301.523 277.93C301.363 277.93 301.209 277.867 301.096 277.754C300.983 277.64 300.919 277.487 300.919 277.327V260.371C300.919 260.21 300.983 260.057 301.096 259.944C301.209 259.831 301.363 259.767 301.523 259.767C301.682 259.77 301.834 259.835 301.946 259.947C302.059 260.06 302.123 260.211 302.126 260.371V277.351C302.12 277.507 302.054 277.654 301.941 277.762C301.829 277.87 301.679 277.93 301.523 277.93Z" fill="#263238"/>
<path d="M340.746 267.526C340.64 267.526 340.537 267.497 340.446 267.444C340.355 267.392 340.279 267.316 340.227 267.224L331.779 252.525C331.739 252.456 331.713 252.38 331.703 252.301C331.693 252.222 331.698 252.142 331.719 252.065C331.74 251.989 331.775 251.917 331.824 251.854C331.872 251.791 331.933 251.738 332.002 251.698C332.071 251.659 332.147 251.633 332.226 251.623C332.305 251.612 332.385 251.618 332.461 251.639C332.538 251.659 332.61 251.695 332.673 251.744C332.736 251.792 332.789 251.853 332.828 251.921L341.277 266.621C341.317 266.689 341.344 266.764 341.355 266.843C341.366 266.921 341.362 267.001 341.342 267.077C341.321 267.154 341.286 267.226 341.237 267.288C341.189 267.351 341.128 267.403 341.059 267.442C340.965 267.5 340.856 267.529 340.746 267.526Z" fill="#263238"/>
<path d="M332.588 146.454C332.481 146.455 332.376 146.425 332.286 146.369C332.217 146.331 332.156 146.279 332.108 146.216C332.059 146.153 332.024 146.082 332.004 146.005C331.983 145.929 331.979 145.849 331.99 145.77C332.001 145.692 332.028 145.617 332.069 145.549L340.517 130.837C340.604 130.716 340.734 130.632 340.88 130.602C341.026 130.571 341.179 130.595 341.308 130.67C341.437 130.745 341.534 130.866 341.579 131.008C341.625 131.15 341.616 131.304 341.555 131.441L333.107 146.152C333.052 146.242 332.976 146.316 332.885 146.369C332.795 146.422 332.692 146.451 332.588 146.454Z" fill="#263238"/>
</svg>
