<svg width="238" height="173" viewBox="0 0 238 173" fill="none" xmlns="http://www.w3.org/2000/svg">
<g clip-path="url(#clip0_3266_2149)">
<path d="M238 151.021H0V151.14H238V151.021Z" fill="#EBEBEB"/>
<path d="M214.153 158.683H198.387V158.802H214.153V158.683Z" fill="#EBEBEB"/>
<path d="M157.661 159.975H153.523V160.094H157.661V159.975Z" fill="#EBEBEB"/>
<path d="M197.91 154.263H188.775V154.382H197.91V154.263Z" fill="#EBEBEB"/>
<path d="M45.5303 155.063H24.9705V155.182H45.5303V155.063Z" fill="#EBEBEB"/>
<path d="M52.7831 155.063H49.7686V155.182H52.7831V155.063Z" fill="#EBEBEB"/>
<path d="M107.17 157.073H62.5801V157.192H107.17V157.073Z" fill="#EBEBEB"/>
<path d="M112.819 129.793H20.9035C19.4056 129.793 18.1865 128.574 18.1865 127.076V-2.12589C18.1865 -3.62386 19.4056 -4.8429 20.9035 -4.8429H112.819C114.316 -4.8429 115.535 -3.62386 115.535 -2.12589V127.076C115.535 128.574 114.316 129.793 112.819 129.793ZM20.9035 -4.72342C19.4708 -4.72342 18.3055 -3.55817 18.3055 -2.12541V127.076C18.3055 128.509 19.4708 129.674 20.9035 129.674H112.819C114.251 129.674 115.416 128.509 115.416 127.076V-2.12589C115.416 -3.55817 114.251 -4.7239 112.819 -4.7239L20.9035 -4.72342Z" fill="#EBEBEB"/>
<path d="M215.775 129.793H123.861C122.363 129.793 121.144 128.574 121.144 127.076V-2.12589C121.144 -3.62386 122.363 -4.8429 123.861 -4.8429H215.775C217.274 -4.8429 218.492 -3.62386 218.492 -2.12589V127.076C218.493 128.574 217.274 129.793 215.775 129.793ZM123.861 -4.72342C122.429 -4.72342 121.263 -3.55817 121.263 -2.12541V127.076C121.263 128.509 122.429 129.674 123.861 129.674H215.775C217.208 129.674 218.373 128.509 218.373 127.076V-2.12589C218.373 -3.55817 217.208 -4.7239 215.775 -4.7239L123.861 -4.72342Z" fill="#EBEBEB"/>
<path d="M187.102 5.25354H48.2122V70.2361H187.102V5.25354Z" fill="#E6E6E6"/>
<path d="M189.195 5.25354H49.1899V70.2361H189.195V5.25354Z" fill="#F0F0F0"/>
<path d="M187.102 70.2361H48.2122V73.551H187.102V70.2361Z" fill="#E6E6E6"/>
<path d="M192.68 70.2361H52.6755V73.551H192.68V70.2361Z" fill="#F0F0F0"/>
<path d="M186.265 67.3069V8.18298L52.119 8.18298V67.3069L186.265 67.3069Z" fill="#FAFAFA"/>
<path d="M66.5129 67.3073L74.6659 8.18335H87.3884L79.235 67.3073H66.5129Z" fill="white"/>
<path d="M53.4753 64.3913C53.3596 64.3913 53.2659 64.2975 53.2659 64.1818V10.0887C53.2659 9.97305 53.3596 9.87927 53.4753 9.87927C53.591 9.87927 53.6847 9.97305 53.6847 10.0887V64.1823C53.6847 64.2975 53.591 64.3913 53.4753 64.3913Z" fill="#F0F0F0"/>
<path d="M81.9683 67.3073L90.1212 8.18335H95.0811L86.9282 67.3073H81.9683Z" fill="white"/>
<path d="M186.265 67.3069V8.18298H185.894V67.3069H186.265Z" fill="#E6E6E6"/>
<path opacity="0.6" d="M189.887 12.5996H50.9972L50.7278 9.32141H189.618L189.887 12.5996Z" fill="#EBEBEB"/>
<path opacity="0.6" d="M189.887 17.9761H50.9972L50.7278 14.6979H189.618L189.887 17.9761Z" fill="#EBEBEB"/>
<path opacity="0.6" d="M189.887 23.3524H50.9972L50.7278 20.0742H189.618L189.887 23.3524Z" fill="#EBEBEB"/>
<path opacity="0.6" d="M189.887 28.7289H50.9972L50.7278 25.4507H189.618L189.887 28.7289Z" fill="#EBEBEB"/>
<path opacity="0.6" d="M189.887 34.1054H50.9972L50.7278 30.8271H189.618L189.887 34.1054Z" fill="#EBEBEB"/>
<path opacity="0.6" d="M189.887 39.4817H50.9972L50.7278 36.2035H189.618L189.887 39.4817Z" fill="#EBEBEB"/>
<path d="M208.964 86.5719H187.768V151.022H208.964V86.5719Z" fill="#E6E6E6"/>
<path d="M203.304 151.022H208.964V142.125H197.37L203.304 151.022Z" fill="#FAFAFA"/>
<path d="M151.171 86.5719H129.975V151.022H151.171V86.5719Z" fill="#E6E6E6"/>
<path d="M208.964 86.5719H146.231V147.96H208.964V86.5719Z" fill="#FAFAFA"/>
<path d="M151.891 151.022H146.231V142.125H157.826L151.891 151.022Z" fill="#FAFAFA"/>
<path d="M204.573 109.447H150.622V124.809H204.573V109.447Z" fill="#F0F0F0"/>
<path d="M204.573 128.093H150.622V143.455H204.573V128.093Z" fill="#F0F0F0"/>
<path d="M193.871 111.09H161.324C160.095 111.09 159.1 110.093 159.1 108.865V108.117H196.096V108.865C196.096 110.093 195.099 111.09 193.871 111.09Z" fill="#FAFAFA"/>
<path d="M204.573 90.8007H150.622V106.163H204.573V90.8007Z" fill="#F0F0F0"/>
<path d="M193.871 92.4433H161.324C160.095 92.4433 159.1 91.447 159.1 90.2185V89.4702H196.096V90.2185C196.096 91.447 195.099 92.4433 193.871 92.4433Z" fill="#FAFAFA"/>
<path d="M193.871 129.736H161.324C160.095 129.736 159.1 128.739 159.1 127.511V126.762H196.096V127.511C196.096 128.739 195.099 129.736 193.871 129.736Z" fill="#FAFAFA"/>
<path d="M25.4265 100.313C26.6074 96.9226 35.9189 101.533 39.6974 107.151C42.214 110.892 43.7515 114.886 44.4693 120.251C44.3832 114.129 44.2856 107.553 44.1899 101.346C43.4259 99.7986 41.6809 96.2305 40.4257 93.403C36.2378 83.9697 26.2799 80.4568 22.8399 74.5006C18.3321 66.6966 18.3583 54.9898 22.1954 50.7653C25.5302 47.0944 36.5729 71.9169 37.8167 74.69C42.095 84.2286 43.3388 91.3077 44.1404 98.1654C44.049 92.3358 43.9619 86.9837 43.89 82.8539C43.6563 69.3841 43.364 65.0515 43.2303 63.7182C42.769 63.0671 42.225 62.3083 41.9084 61.9014C39.2362 58.4608 33.3066 54.3653 30.3435 49.364C26.0167 42.0617 26.7159 33.3218 29.7509 30.0674C32.9239 26.6645 38.5336 34.707 41.5119 42.6757C44.4902 50.6444 43.2174 58.2714 44.0528 64.8892C44.2275 66.1873 44.407 71.1172 44.5755 77.9559C45.4789 70.5979 47.2787 65.6684 50.614 61.075C54.7162 55.4254 58.2576 48.5453 61.6377 49.4344C65.0177 50.3236 63.1985 59.4271 60.5243 65.8179C58.1429 71.5094 46.3952 77.1862 44.664 81.762C44.8677 91.0316 45.05 102.775 45.179 113.709C46.1053 108.061 45.4684 107.587 49.2636 98.9403C51.5198 93.8 60.7699 87.4606 61.8733 90.9926C62.9557 94.4588 61.2997 101.199 57.8078 105.875C54.9908 109.646 48.7405 109.642 47.2939 111.982C46.9564 112.528 45.8407 114.621 45.2033 115.824C45.3542 129.173 45.4218 140.955 45.347 144.973L44.7406 145.013C44.7697 143.976 44.6964 137.186 44.5774 128.2C43.0599 123.418 32.8421 120.627 29.6857 115.655C26.3837 110.451 24.0099 104.379 25.4265 100.313Z" fill="#E6E6E6"/>
<path d="M35.0341 151.021H54.6453C55.7167 151.021 56.6402 150.267 56.853 149.216L58.2453 142.353H31.4341L32.8264 149.216C33.0392 150.267 33.9626 151.021 35.0341 151.021Z" fill="#F0F0F0"/>
<path d="M30.8733 145.014H58.806C59.4752 145.014 60.0379 144.511 60.1126 143.846L60.6838 138.772C60.7714 137.992 60.1616 137.309 59.3772 137.309H30.3021C29.5177 137.309 28.9075 137.992 28.9955 138.772L29.5667 143.846C29.6415 144.511 30.2041 145.014 30.8733 145.014Z" fill="#F0F0F0"/>
<path d="M84.6518 120.187H67.8933V151.022H84.6518V120.187Z" fill="#E0E0E0"/>
<path d="M127.368 151.021H71.25L65.3552 109.182H121.473L127.368 151.021Z" fill="#E6E6E6"/>
<path d="M135.554 151.021H73.48L67.5852 109.182H129.659L135.554 151.021Z" fill="#F0F0F0"/>
<path d="M79.5562 144.481L74.5906 115.723H123.583L128.549 144.481H79.5562Z" fill="white"/>
<path d="M100.607 144.481L83.9543 115.723H89.1789L105.832 144.481H100.607Z" fill="#FAFAFA"/>
<path d="M108.046 144.481L91.3933 115.723H100.302L116.955 144.481H108.046Z" fill="#FAFAFA"/>
<path d="M119 172.519C169.971 172.519 211.291 170.106 211.291 167.129C211.291 164.153 169.971 161.74 119 161.74C68.0289 161.74 26.7087 164.153 26.7087 167.129C26.7087 170.106 68.0289 172.519 119 172.519Z" fill="#F5F5F5"/>
<path d="M51.1448 72.8823C51.0122 72.8823 50.9008 72.7811 50.8893 72.6467L49.5505 56.5579C49.5385 56.4169 49.6433 56.2934 49.7849 56.2813C49.9174 56.2711 50.0494 56.3741 50.0615 56.5157L51.4003 72.6046C51.4123 72.7456 51.3075 72.8691 51.1659 72.8811C51.1587 72.8817 51.152 72.8823 51.1448 72.8823Z" fill="#F07C33"/>
<path d="M51.9398 82.4386C51.8072 82.4386 51.6957 82.3374 51.6843 82.203L51.2788 77.3327C51.2667 77.1917 51.3716 77.0682 51.5132 77.0562C51.6487 77.0387 51.7783 77.1483 51.7897 77.2905L52.1952 82.1608C52.2073 82.3018 52.1024 82.4253 51.9608 82.4374C51.9542 82.438 51.947 82.4386 51.9398 82.4386Z" fill="#F07C33"/>
<path d="M187.491 128.22H63.084C59.9099 128.22 57.0967 125.623 56.8321 122.448L49.8259 38.2302C49.562 35.056 51.9426 32.4585 55.1173 32.4585H179.525C182.699 32.4585 185.512 35.0554 185.777 38.2302L192.783 122.448C193.047 125.622 190.666 128.22 187.491 128.22Z" fill="white"/>
<path d="M187.491 128.46H63.084C59.7797 128.46 56.8677 125.772 56.5929 122.468L49.5867 38.2506C49.4523 36.6436 49.959 35.1283 51.0117 33.984C52.0595 32.8453 53.5176 32.218 55.1173 32.218H179.525C182.829 32.218 185.741 34.9065 186.016 38.2102L193.023 122.427C193.157 124.034 192.65 125.549 191.598 126.693C190.549 127.832 189.091 128.46 187.491 128.46ZM55.1173 32.6994C53.6538 32.6994 52.3216 33.2712 51.3659 34.31C50.4049 35.3536 49.9434 36.7388 50.0657 38.2108L57.0719 122.428C57.3268 125.489 60.0237 127.979 63.0846 127.979H187.492C188.956 127.979 190.288 127.407 191.245 126.368C192.205 125.324 192.667 123.939 192.544 122.468L185.537 38.2506C185.282 35.1897 182.586 32.6994 179.526 32.6994H55.1173Z" fill="#F07C33"/>
<path d="M179.525 32.4591H55.1176C51.9434 32.4591 49.5622 35.056 49.8261 38.2308H185.776C185.512 35.056 182.699 32.4591 179.525 32.4591Z" fill="#F07C33"/>
<path d="M58.0294 35.3446C58.0867 36.0321 57.5757 36.5894 56.8882 36.5894C56.2008 36.5894 55.597 36.0321 55.5398 35.3446C55.4825 34.6571 55.9935 34.0997 56.681 34.0997C57.3685 34.0997 57.9722 34.6571 58.0294 35.3446Z" fill="white"/>
<path d="M63.0909 35.3446C63.1481 36.0321 62.6371 36.5894 61.9497 36.5894C61.2622 36.5894 60.659 36.0321 60.6018 35.3446C60.5445 34.6571 61.0555 34.0997 61.743 34.0997C62.4305 34.0997 63.0336 34.6571 63.0909 35.3446Z" fill="white"/>
<path d="M68.1519 35.3446C68.2091 36.0321 67.6982 36.5894 67.0107 36.5894C66.3232 36.5894 65.7195 36.0321 65.6628 35.3446C65.6056 34.6571 66.1165 34.0997 66.804 34.0997C67.4915 34.0997 68.0946 34.6571 68.1519 35.3446Z" fill="white"/>
<path d="M176.695 117.183H72.0441C69.5207 117.183 67.2847 115.119 67.0744 112.595L62.1873 53.855C61.9776 51.3316 63.8701 49.2673 66.3935 49.2673H171.044C173.567 49.2673 175.803 51.3316 176.014 53.855L180.901 112.595C181.111 115.119 179.218 117.183 176.695 117.183Z" fill="#F0F0F0"/>
<path opacity="0.1" d="M144.33 59.5526L111.909 98.5864C107.462 103.941 110.279 112.104 117.083 113.575L169.667 124.948C176.929 126.519 182.997 119.338 180.238 112.44L160.074 62.0332C157.463 55.506 148.822 54.1448 144.33 59.5526Z" fill="#263238"/>
<path opacity="0.1" d="M72.1698 65.0253L60.8777 95.4327C59.3708 99.4902 62.6335 103.725 66.941 103.302L99.917 100.069C104.541 99.6149 106.822 94.2168 103.924 90.5848L82.2411 63.4105C79.3984 59.849 73.7563 60.7534 72.1698 65.0253Z" fill="#263238"/>
<path d="M155.514 49.7245L125.206 93.7317C121.078 99.7263 124.735 107.967 131.95 108.926L187.663 116.341C195.396 117.37 201.146 109.352 197.69 102.358L172.285 50.9356C168.989 44.2644 159.736 43.5956 155.514 49.7245Z" fill="#F07C33"/>
<path d="M133.272 104.982C131.246 104.712 129.485 103.434 128.561 101.565C127.638 99.6943 127.744 97.6228 128.846 96.0219L159.23 51.9038C160.332 50.3041 162.2 49.5094 164.226 49.7787C166.252 50.0487 168.013 51.326 168.937 53.1957L194.406 104.747C195.33 106.617 195.224 108.689 194.121 110.29C193.019 111.89 191.151 112.684 189.125 112.415L133.272 104.982Z" fill="white"/>
<path d="M161.639 65.3741L165.187 65.8465C167.469 66.1502 169.225 68.2259 169.109 70.4824L168.871 75.111C168.862 75.2809 168.842 75.449 168.813 75.6141L166.288 89.5628C165.924 91.5728 164.088 92.8731 162.004 92.5959C159.916 92.3182 158.235 90.5431 158.087 88.4595L157.063 74.0445C157.051 73.8776 157.05 73.7107 157.059 73.5451L157.297 68.911C157.413 66.6539 159.357 65.0704 161.639 65.3741ZM161.355 96.4407L162.323 96.5696C164.364 96.8414 165.935 98.6978 165.831 100.716C165.727 102.735 163.988 104.151 161.947 103.88L160.979 103.751C158.938 103.479 157.368 101.622 157.471 99.604C157.576 97.5855 159.315 96.1689 161.355 96.4407Z" fill="#F07C33"/>
<path d="M83.8251 56.4513L75.5035 88.0083C74.4015 92.1869 78.0486 96.0793 82.2898 95.2514L114.569 88.9531C119.105 88.068 120.877 82.5253 117.697 79.1722L93.7404 53.9134C90.5819 50.5838 84.9952 52.0136 83.8251 56.4513Z" fill="#F07C33"/>
<path d="M82.2284 92.6954C81.0547 92.9244 79.8334 92.5128 78.9627 91.5946C78.0915 90.6757 77.7516 89.4423 78.0547 88.2945L86.3974 56.6579C86.6998 55.5107 87.5814 54.6888 88.7557 54.4599C89.9294 54.2309 91.1508 54.6424 92.0214 55.5607L116.039 80.8834C116.91 81.8022 117.25 83.0356 116.947 84.1834C116.645 85.3306 115.763 86.1525 114.589 86.3815L82.2284 92.6954Z" fill="white"/>
<path d="M90.32 64.0854L92.3758 63.6841C93.6978 63.4263 95.0697 64.3066 95.4391 65.6496L96.1977 68.405C96.2254 68.5062 96.2471 68.608 96.2621 68.7105L97.5461 77.3604C97.7311 78.6071 96.9641 79.7187 95.7572 79.9543C94.5473 80.1905 93.2754 79.4717 92.7928 78.2805L89.4535 70.0348C89.4149 69.939 89.3818 69.842 89.3547 69.7432L88.5955 66.9842C88.2262 65.6418 88.998 64.3433 90.32 64.0854ZM96.1374 82.3313L96.6984 82.2217C97.8811 81.9909 99.1079 82.7784 99.4387 83.9798C99.7695 85.1819 99.079 86.343 97.8962 86.5738L97.3358 86.6834C96.1531 86.9142 94.9263 86.1267 94.5955 84.9252C94.2641 83.7232 94.9546 82.5621 96.1374 82.3313Z" fill="#F07C33"/>
</g>
<defs>
<clipPath id="clip0_3266_2149">
<rect width="238" height="173" fill="white"/>
</clipPath>
</defs>
</svg>
