<svg width="624" height="521" viewBox="0 0 624 521" fill="none" xmlns="http://www.w3.org/2000/svg">
<path d="M623.832 204.095C621.4 140.759 590.087 77.9643 537.669 42.5202C485.251 7.07619 412.269 2.23196 358.26 35.1787C324.605 55.6989 300.198 88.3748 279.873 122.194C268.735 140.729 257.116 161.159 237.092 169.252C211.063 179.813 182.452 165.431 154.923 159.925C122.788 153.484 89.4127 159.514 61.546 176.796C33.6793 194.079 13.4016 221.323 4.81413 253.018C-19.2032 352.881 50.6573 424.161 125.351 467.428C208.842 515.81 314.488 515.75 405.274 483.495C464.867 462.433 520.407 427.531 560.996 378.938C601.586 330.345 626.293 267.43 623.832 204.095Z" fill="#FCF2EC"/>
<path d="M541.808 361.978L559.263 361.625L567.867 361.468C570.731 361.468 573.581 361.468 576.431 361.403L575.843 361.978L575.778 347.399L576.431 348.039L559.119 347.961C553.34 347.961 547.574 347.817 541.808 347.752L542.161 347.399C542.161 349.791 542.043 352.197 541.991 354.629L541.808 361.978ZM541.808 361.978L541.611 354.747C541.611 352.302 541.468 349.831 541.441 347.359V347.006H541.808C547.574 346.941 553.34 346.797 559.119 346.797L576.431 346.719H577.085V347.399L577.007 362.017V362.605H576.431C573.516 362.605 570.587 362.605 567.671 362.54L558.963 362.383L541.808 361.978Z" fill="#EBEBEB"/>
<path d="M561.13 380.435L578.586 380.082L587.19 379.925C590.053 379.925 592.904 379.925 595.754 379.86L595.166 380.435V365.816L595.82 366.457L578.508 366.379C572.741 366.379 566.962 366.235 561.196 366.17L561.549 365.816C561.549 368.209 561.444 370.615 561.379 373.047L561.13 380.435ZM561.13 380.435L560.947 373.204C560.882 370.759 560.79 368.288 560.777 365.816V365.463H561.13C566.897 365.398 572.676 365.254 578.442 365.254L595.754 365.176H596.408V365.843L596.33 380.461V381.049H595.754C592.838 381.049 589.91 381.049 586.994 381.049L578.285 380.893L561.13 380.435Z" fill="#EBEBEB"/>
<path d="M124.849 210.952L142.318 210.586L150.922 210.429C153.772 210.429 156.623 210.429 159.473 210.363L158.898 210.952L158.819 196.32L159.473 196.974L142.161 196.883C136.395 196.883 130.629 196.739 124.849 196.673L125.202 196.32C125.202 198.713 125.098 201.119 125.032 203.551L124.849 210.952ZM124.849 210.952L124.666 203.708C124.666 201.263 124.522 198.792 124.496 196.32V195.967H124.849C130.629 195.967 136.395 195.758 142.161 195.758L159.473 195.68H160.127V196.347L160.061 210.978V211.553H159.473C156.557 211.553 153.628 211.553 150.726 211.488L142.017 211.331L124.849 210.952Z" fill="#EBEBEB"/>
<path d="M144.158 229.393L161.627 229.027L170.23 228.87C173.094 228.87 175.931 228.87 178.782 228.87L178.206 229.459L178.128 214.827L178.782 215.468L161.47 215.337C155.703 215.337 149.937 215.193 144.158 215.128L144.524 214.775C144.524 217.168 144.406 219.574 144.354 222.006L144.158 229.393ZM144.158 229.393L143.975 222.149C143.975 219.704 143.831 217.233 143.805 214.762V214.409H144.158C149.937 214.343 155.703 214.2 161.47 214.2L178.782 214.121H179.449V214.788L179.331 229.393V229.969H178.742C175.827 229.969 172.898 229.969 169.995 229.903L161.287 229.746L144.158 229.393Z" fill="#EBEBEB"/>
<path d="M163.401 210.946L180.857 210.58L189.461 210.423C192.324 210.423 195.175 210.423 198.025 210.358L197.437 210.946V196.315L198.091 196.969L180.779 196.877C174.999 196.877 169.233 196.733 163.467 196.668L163.82 196.315C163.82 198.708 163.702 201.114 163.65 203.546L163.401 210.946ZM163.401 210.946L163.205 203.703C163.205 201.258 163.061 198.786 163.035 196.315V195.962H163.401C169.168 195.962 174.934 195.753 180.713 195.753L198.025 195.727H198.679V196.393L198.601 211.025V211.6H198.025C195.109 211.6 192.18 211.6 189.265 211.535L180.556 211.378L163.401 210.946Z" fill="#EBEBEB"/>
<path d="M40.0132 387.326L57.4821 386.959L66.0857 386.803C68.9362 386.803 71.7867 386.803 74.6371 386.737L74.0618 387.312L73.9834 372.694L74.6371 373.335L57.3252 373.256C51.5589 373.256 45.7795 373.112 40.0132 373.047L40.3662 372.694C40.3662 375.087 40.2616 377.493 40.1963 379.925L40.0132 387.326ZM40.0132 387.326L39.8301 380.095C39.7648 377.65 39.6863 375.178 39.6602 372.707V372.354H40.0132C45.7795 372.289 51.5589 372.145 57.3252 372.145L74.6371 372.066H75.2909V372.733L75.2255 387.352V387.94H74.6371C71.7213 387.94 68.7924 387.94 65.8896 387.875L57.1813 387.718L40.0132 387.326Z" fill="#EBEBEB"/>
<path d="M46.6655 64.254L64.1344 63.8879L72.7381 63.7441C75.5886 63.7441 78.439 63.7441 81.2895 63.6656L80.7141 64.254L80.6357 49.6225L81.2895 50.2763L63.9775 50.1848C58.2112 50.1848 52.4318 50.0409 46.6655 49.9756L47.0186 49.6225C47.0186 52.0153 46.914 54.4212 46.8486 56.8533L46.6655 64.254ZM46.6655 64.254L46.4825 57.0102C46.4825 54.5651 46.3387 52.1069 46.3125 49.6225V49.2826H46.6655C52.4318 49.2826 58.2112 49.0864 63.9775 49.0733L81.2633 48.9688H81.9171V49.6225V64.254V64.8424H81.2633C78.3475 64.8424 75.4186 64.8424 72.5158 64.8424L63.8075 64.6986L46.6655 64.254Z" fill="#EBEBEB"/>
<path d="M27.353 82.7019L44.8219 82.3358L53.4125 82.1919C56.2761 82.1919 59.1265 82.1919 61.977 82.1135L61.3886 82.7019V68.0704L62.0424 68.7242L44.6519 68.6326C38.8856 68.6326 33.1063 68.4888 27.34 68.4234L27.693 68.0704C27.6538 70.4632 27.6538 72.8168 27.5361 75.3011L27.353 82.7019ZM27.353 82.7019L27.17 75.4319C27.1046 72.9868 27.0262 70.5286 27 68.0442V67.7174H27.3661C33.1324 67.7174 38.9118 67.5212 44.6781 67.5081L61.99 67.4297H62.6438V68.0835V82.715V83.2772H62.0685C59.1527 83.2772 56.2238 83.2772 53.321 83.2772L44.5996 83.1334L27.353 82.7019Z" fill="#EBEBEB"/>
<path d="M449.757 15.2853L467.213 14.9192L475.816 14.7753C478.68 14.7099 481.517 14.7753 484.381 14.7099L483.792 15.2853L483.727 0.640697L484.381 1.29447L467.069 1.21602C461.289 1.21602 455.523 1.07219 449.757 0.993736L450.11 0.640697C450.11 3.03351 449.992 5.43941 449.94 7.88453L449.757 15.2853ZM449.757 15.2853L449.561 8.04143C449.561 5.60939 449.417 3.13812 449.391 0.653775V0.300736H449.757C455.523 0.235358 461.289 0.0915253 467.069 0.0784498L484.381 0H485.034V0.653775L484.956 15.2853V15.8737H484.381C481.452 15.8737 478.536 15.8737 475.62 15.7952L466.912 15.6514L449.757 15.2853Z" fill="#EBEBEB"/>
<path d="M56.9401 146.414L270.895 146.414V137.039L56.9401 137.039V146.414Z" fill="#EBEBEB"/>
<path d="M258.892 146.414H249.504V177.442H258.892V146.414Z" fill="#EBEBEB"/>
<path d="M258.892 146.414H249.504V156.011H258.892V146.414Z" fill="#DBDBDB"/>
<path d="M78.3062 146.414H68.918V177.442H78.3062V146.414Z" fill="#EBEBEB"/>
<path d="M78.3062 146.414H68.918V156.011H78.3062V146.414Z" fill="#DBDBDB"/>
<path d="M230.949 137.04V77.2461H215.886V137.04H230.949Z" fill="#C7C7C7"/>
<path d="M230.969 80.6199V74.043H215.906V80.6199H230.969Z" fill="#DBDBDB"/>
<path d="M230.949 91.4672V89.0352H215.886V91.4672H230.949Z" fill="#DBDBDB"/>
<path d="M230.949 129.198V122.621H214.016V129.198H230.949Z" fill="#DBDBDB"/>
<path d="M215.887 137.047V67.2891H205.361V137.047H215.887Z" fill="#DBDBDB"/>
<path d="M213.836 100.683V73.8516H207.52V100.683H213.836Z" fill="#EBEBEB"/>
<path d="M137.894 137.069L187.504 88.0273L180.104 80.5417L130.495 129.583L137.894 137.069Z" fill="#C7C7C7"/>
<path d="M148.024 124.046L167.105 105.184L162.666 100.692L143.584 119.555L148.024 124.046Z" fill="#DBDBDB"/>
<path d="M205.375 137.056V84.0742H187.501V137.056H205.375Z" fill="#A6A6A6"/>
<path d="M205.375 131.435V126.492H187.501V131.435H205.375Z" fill="#C7C7C7"/>
<path d="M205.375 123.249V121.34H187.501V123.249H205.375Z" fill="#C7C7C7"/>
<path d="M243.309 137.045V87.2539H230.965V137.045H243.309Z" fill="#A6A6A6"/>
<path d="M243.309 131.775V127.133H230.965V131.775H243.309Z" fill="#C7C7C7"/>
<path d="M243.293 102.157V97.5156H230.95V102.157H243.293Z" fill="#C7C7C7"/>
<path d="M243.293 107.152V105.348H230.95V107.152H243.293Z" fill="#C7C7C7"/>
<path d="M100.196 73.2503C110.735 83.5669 112.5 99.519 110.278 113.484C110.278 113.811 109.728 113.719 109.728 113.484C109.728 110.306 109.833 107.155 109.82 104.017C109.82 103.873 109.715 103.729 109.65 103.586C106.814 101.72 104.469 99.1994 102.811 96.2371C101.059 92.7851 100.366 88.8756 99.0196 85.2667C98.8888 84.9137 99.255 85.0183 99.5034 85.2667C105.91 89.987 107.95 95.0734 109.794 101.873C109.777 98.2641 109.418 94.6653 108.722 91.1245C107.493 84.5569 104.465 78.4594 99.9741 73.5118C99.7518 73.3549 100.013 73.0673 100.196 73.2503Z" fill="#A6A6A6"/>
<path d="M548.54 366.442C559.079 376.758 560.844 392.71 558.621 406.675C558.621 407.002 558.072 406.91 558.072 406.675C558.072 403.498 558.177 400.347 558.164 397.208C558.164 397.065 558.059 396.921 557.994 396.777C555.158 394.911 552.813 392.391 551.155 389.428C549.403 385.977 548.71 382.067 547.363 378.458C547.233 378.105 547.599 378.21 547.847 378.458C554.254 383.178 556.294 388.265 558.138 395.064C558.12 391.456 557.761 387.857 557.065 384.316C555.837 377.748 552.808 371.651 548.318 366.703C548.096 366.546 548.357 366.259 548.54 366.442Z" fill="#384831"/>
<path d="M98.2626 74.4499C96.4451 74.4499 95.3075 77.405 93.8954 78.2549C93.7509 78.3841 93.5796 78.4797 93.3937 78.5346C93.2079 78.5895 93.0121 78.6024 92.8207 78.5724C92.6292 78.5423 92.4468 78.4701 92.2867 78.3609C92.1266 78.2517 91.9927 78.1083 91.8948 77.9411C90.4957 75.9928 92.4178 73.5739 94.2222 72.2271C93.0208 72.9398 91.7449 73.5186 90.4173 73.953C90.2403 74.0101 90.0533 74.0287 89.8686 74.0077C89.6839 73.9867 89.5057 73.9265 89.3461 73.8312C89.1865 73.736 89.049 73.6077 88.9429 73.4551C88.8367 73.3025 88.7643 73.129 88.7305 72.9462C88.116 70.3311 91.4502 69.102 93.7384 69.0236C92.627 68.2521 89.4497 66.16 91.1233 65.1009C92.797 64.0418 96.5758 67.0623 97.7919 68.056C99.5832 69.5074 101.715 71.6779 101.806 73.953C101.937 76.6466 99.5701 75.0122 98.2626 74.4499Z" fill="#DBDBDB"/>
<path d="M546.606 367.641C544.789 367.641 543.651 370.596 542.239 371.446C542.095 371.576 541.923 371.671 541.737 371.726C541.552 371.781 541.356 371.794 541.164 371.764C540.973 371.734 540.791 371.662 540.63 371.552C540.47 371.443 540.336 371.3 540.239 371.132C538.839 369.184 540.762 366.765 542.566 365.418C541.365 366.131 540.089 366.71 538.761 367.144C538.584 367.201 538.397 367.22 538.212 367.199C538.028 367.178 537.849 367.118 537.69 367.023C537.53 366.927 537.393 366.799 537.287 366.647C537.18 366.494 537.108 366.32 537.074 366.138C536.46 363.523 539.794 362.293 542.082 362.215C540.971 361.444 537.793 359.351 539.467 358.292C541.141 357.233 544.92 360.254 546.136 361.247C547.927 362.699 550.058 364.869 550.15 367.144C550.281 369.838 547.914 368.204 546.606 367.641Z" fill="#A85724"/>
<path d="M98.7446 74.8985C96.4303 73.8525 91.9715 75.3693 91.5923 74.4932C90.834 72.7019 94.3905 71.4858 96.2995 71.2374C94.5343 70.7667 91.1478 69.9299 91.2524 68.2954C91.3831 66.2164 96.4826 68.0078 99.0192 69.9691C102.249 72.4534 102.223 74.8462 101.634 75.317C100.954 75.9707 99.1238 75.0816 98.7446 74.8985Z" fill="#EBEBEB"/>
<path d="M547.088 368.09C544.774 367.044 540.315 368.561 539.936 367.685C539.178 365.893 542.734 364.677 544.643 364.429C542.878 363.958 539.492 363.121 539.596 361.487C539.727 359.408 544.826 361.199 547.363 363.16C550.593 365.645 550.566 368.038 549.978 368.508C549.298 369.162 547.468 368.273 547.088 368.09Z" fill="#F07C33"/>
<path d="M124.192 72.2277C113.274 82.1389 110.894 98.0126 112.646 112.043C112.646 112.356 113.182 112.291 113.195 112.043C113.313 108.865 113.339 105.714 113.47 102.576L113.653 102.158C116.557 100.399 118.997 97.9685 120.766 95.0706C122.662 91.684 123.499 87.8137 124.976 84.2571C125.12 83.9041 124.741 83.9956 124.492 84.1656C117.955 88.6374 115.68 93.6453 113.588 100.366C113.734 96.8106 114.22 93.2772 115.039 89.8142C116.499 83.2901 119.745 77.3007 124.414 72.5153C124.636 72.3453 124.414 72.0577 124.192 72.2277Z" fill="#A6A6A6"/>
<path d="M572.536 365.419C561.617 375.33 559.238 391.204 560.99 405.234C560.99 405.548 561.526 405.482 561.539 405.234C561.657 402.057 561.683 398.905 561.814 395.767L561.997 395.349C564.901 393.59 567.341 391.16 569.11 388.262C571.006 384.875 571.842 381.005 573.32 377.449C573.464 377.096 573.085 377.187 572.836 377.357C566.298 381.829 564.023 386.837 561.931 393.558C562.078 390.002 562.564 386.469 563.383 383.006C564.843 376.482 568.089 370.492 572.758 365.707C572.98 365.537 572.758 365.249 572.536 365.419Z" fill="#384831"/>
<path d="M126.111 73.5065C127.929 73.6372 128.949 76.5661 130.322 77.4291C130.461 77.5644 130.628 77.6669 130.812 77.7293C130.996 77.7917 131.191 77.8123 131.384 77.7898C131.577 77.7673 131.762 77.7021 131.927 77.599C132.091 77.4959 132.231 77.3575 132.335 77.1938C133.813 75.2978 131.982 72.8135 130.23 71.4013C131.394 72.1455 132.629 72.7719 133.917 73.2711C134.093 73.3351 134.28 73.3606 134.467 73.3461C134.653 73.3315 134.834 73.2772 134.998 73.1867C135.161 73.0963 135.303 72.9718 135.415 72.8217C135.526 72.6716 135.604 72.4994 135.643 72.3166C136.362 69.7015 133.028 68.3939 130.779 68.224C131.917 67.4917 135.186 65.5173 133.538 64.419C131.891 63.3207 128.007 66.1842 126.752 67.1256C124.908 68.5116 122.699 70.5906 122.529 72.8658C122.319 75.5463 124.699 74.0033 126.111 73.5065Z" fill="#DBDBDB"/>
<path d="M574.455 366.698C576.272 366.829 577.292 369.758 578.665 370.621C578.805 370.756 578.972 370.858 579.156 370.921C579.34 370.983 579.535 371.004 579.728 370.981C579.921 370.959 580.106 370.893 580.271 370.79C580.435 370.687 580.575 370.549 580.679 370.385C582.156 368.489 580.326 366.005 578.574 364.593C579.738 365.337 580.973 365.963 582.261 366.463C582.437 366.526 582.624 366.552 582.81 366.537C582.997 366.523 583.178 366.469 583.341 366.378C583.505 366.288 583.647 366.163 583.759 366.013C583.87 365.863 583.948 365.691 583.987 365.508C584.706 362.893 581.372 361.585 579.123 361.415C580.261 360.683 583.529 358.709 581.882 357.61C580.234 356.512 576.351 359.376 575.096 360.317C573.252 361.703 571.042 363.782 570.872 366.057C570.663 368.738 573.043 367.195 574.455 366.698Z" fill="#A85724"/>
<path d="M125.576 73.9324C127.93 72.9779 132.323 74.6515 132.729 73.8016C133.566 72.0364 130.114 70.6766 128.152 70.3758C129.931 69.9574 133.383 69.3298 133.304 67.6169C133.304 65.5379 128.074 67.1331 125.459 69.0029C122.138 71.3565 122.072 73.7493 122.582 74.2331C123.092 74.7169 125.184 74.1285 125.576 73.9324Z" fill="#EBEBEB"/>
<path d="M573.92 367.124C576.274 366.169 580.667 367.843 581.072 366.993C581.909 365.228 578.457 363.868 576.496 363.567C578.274 363.149 581.726 362.521 581.648 360.808C581.648 358.729 576.418 360.325 573.803 362.194C570.481 364.548 570.416 366.941 570.926 367.425C571.436 367.908 573.528 367.32 573.92 367.124Z" fill="#F07C33"/>
<path d="M113.024 98.3834C112.285 103.69 111.153 108.935 109.637 114.074C109.616 114.176 109.556 114.266 109.469 114.324C109.382 114.381 109.275 114.402 109.173 114.381C109.071 114.36 108.981 114.3 108.923 114.213C108.866 114.126 108.845 114.019 108.866 113.917C109.585 109.092 110.892 104.359 111.611 99.5341C112.393 94.6504 112.674 89.6995 112.448 84.7587C111.991 76.6258 109.833 67.9829 104.472 61.6151C104.355 61.4713 104.603 61.2621 104.721 61.3928C115.351 73.7884 113.664 88.969 113.651 90.3289C115.155 85.1772 116.698 79.3586 122.386 74.1284C122.634 73.9061 122.83 74.0107 122.791 74.3899C121.771 83.9088 119.13 88.8644 113.638 94.0031C113.455 95.4022 113.259 96.9059 113.024 98.3834Z" fill="#A6A6A6"/>
<path d="M561.367 391.575C560.629 396.882 559.497 402.126 557.981 407.265C557.96 407.368 557.899 407.458 557.812 407.515C557.725 407.573 557.619 407.594 557.517 407.573C557.414 407.552 557.325 407.491 557.267 407.404C557.209 407.317 557.189 407.211 557.209 407.109C557.929 402.284 559.236 397.55 559.955 392.725C560.737 387.842 561.018 382.891 560.792 377.95C560.334 369.817 558.177 361.174 552.816 354.807C552.698 354.663 552.947 354.453 553.064 354.584C563.695 366.98 562.008 382.16 561.995 383.52C563.499 378.369 565.042 372.55 570.729 367.32C570.978 367.097 571.174 367.202 571.135 367.581C570.115 377.1 567.474 382.056 561.982 387.195C561.799 388.594 561.603 390.097 561.367 391.575Z" fill="#384831"/>
<path d="M104.379 63.0089C102.47 62.159 99.8285 64.6041 97.9326 64.7611C97.7205 64.8125 97.5 64.8187 97.2854 64.7793C97.0707 64.74 96.8668 64.6559 96.6868 64.5326C96.5067 64.4093 96.3546 64.2495 96.2404 64.0636C96.1261 63.8777 96.0522 63.6698 96.0236 63.4535C95.5528 60.7207 98.7563 59.1909 101.254 58.7071C99.6455 58.6025 98.0764 59.034 96.4943 58.6025C96.2758 58.5817 96.0645 58.5134 95.8752 58.4023C95.6859 58.2911 95.5233 58.1399 95.3986 57.9592C95.274 57.7786 95.1905 57.5728 95.1539 57.3564C95.1173 57.14 95.1285 56.9182 95.1867 56.7065C95.8928 53.6338 99.9593 54.0915 102.365 55.1767C101.594 53.8692 99.3578 50.038 101.633 49.8158C103.908 49.5935 106.288 54.6014 107.059 56.2358C108.184 58.6417 109.308 61.976 108.249 64.3688C107.125 67.1539 105.543 64.2903 104.379 63.0089Z" fill="#DBDBDB"/>
<path d="M552.723 356.2C550.814 355.35 548.172 357.796 546.276 357.952C546.064 358.004 545.844 358.01 545.629 357.971C545.414 357.931 545.211 357.847 545.031 357.724C544.85 357.601 544.698 357.441 544.584 357.255C544.47 357.069 544.396 356.861 544.367 356.645C543.897 353.912 547.1 352.382 549.598 351.899C547.989 351.794 546.42 352.225 544.838 351.794C544.62 351.773 544.408 351.705 544.219 351.594C544.03 351.483 543.867 351.331 543.742 351.151C543.618 350.97 543.534 350.764 543.498 350.548C543.461 350.331 543.472 350.11 543.53 349.898C544.237 346.825 548.303 347.283 550.709 348.368C549.937 347.061 547.702 343.229 549.977 343.007C552.252 342.785 554.632 347.793 555.403 349.427C556.528 351.833 557.652 355.167 556.593 357.56C555.468 360.345 553.886 357.482 552.723 356.2Z" fill="#A85724"/>
<path d="M104.689 63.7429C102.82 61.4809 97.4325 60.814 97.4848 59.7157C97.5894 57.4798 101.891 58.0028 104.023 58.7219C102.427 57.3359 99.3022 54.7993 100.257 53.1125C101.447 51.0205 105.801 55.4269 107.474 58.7611C109.58 62.9584 108.35 65.4297 107.553 65.665C106.455 65.9657 105.003 64.109 104.689 63.7429Z" fill="#EBEBEB"/>
<path d="M553.033 356.934C551.163 354.672 545.776 354.005 545.829 352.907C545.933 350.671 550.235 351.194 552.366 351.913C550.771 350.527 547.646 347.991 548.601 346.304C549.79 344.212 554.145 348.618 555.818 351.953C557.923 356.15 556.694 358.621 555.897 358.856C554.798 359.157 553.347 357.3 553.033 356.934Z" fill="#F07C33"/>
<path d="M120.003 101.242L124.697 137.043H96.1797C96.7681 133.866 102.077 101.203 102.077 101.203L120.003 101.242Z" fill="#DBDBDB"/>
<path d="M569.824 392.039L574.518 427.84H546C546.588 424.663 551.897 392 551.897 392L569.824 392.039Z" fill="#37474F"/>
<path d="M385.383 44.0508V288.981H572.755V44.0508H385.383ZM567.812 283.986H390.325V49.0456H567.812V283.986Z" fill="#EBEBEB"/>
<path d="M567.815 49.0469V284.04H483.465V50.3283H478.535V284.04H390.328V49.0469H567.815Z" fill="white"/>
<path d="M483.465 50.3242H478.535V286.507H483.465V50.3242Z" fill="#EBEBEB"/>
<path d="M380.913 60.957L577.242 60.957V54.0793L380.913 54.0793V60.957Z" fill="#EBEBEB"/>
<path d="M380.913 68.6953L577.242 68.6953V61.8176L380.913 61.8176V68.6953Z" fill="#EBEBEB"/>
<path d="M380.913 76.4414L577.242 76.4414V69.5637L380.913 69.5637V76.4414Z" fill="#EBEBEB"/>
<path d="M380.913 84.1914L577.242 84.1914V77.3137L380.913 77.3137V84.1914Z" fill="#EBEBEB"/>
<path d="M380.913 91.9336L577.242 91.9336V85.0559L380.913 85.0559V91.9336Z" fill="#EBEBEB"/>
<path d="M380.913 99.6797L577.242 99.6797V92.802L380.913 92.802V99.6797Z" fill="#EBEBEB"/>
<path d="M380.913 107.414L577.242 107.414V100.536L380.913 100.536V107.414Z" fill="#EBEBEB"/>
<path d="M380.913 115.152L577.242 115.152V108.275L380.913 108.275V115.152Z" fill="#EBEBEB"/>
<path d="M380.913 122.895L577.242 122.895V116.017L380.913 116.017V122.895Z" fill="#EBEBEB"/>
<path d="M396.815 52.6914H395.586V211.271H396.815V52.6914Z" fill="#DBDBDB"/>
<path d="M394.016 217.029H398.396L397.298 210.727H395.114L394.016 217.029Z" fill="#DBDBDB"/>
<path d="M392.366 52.6914H391.137V282.101H392.366V52.6914Z" fill="#DBDBDB"/>
<path d="M389.559 286.736H393.952L392.854 280.434H390.67L389.559 286.736Z" fill="#DBDBDB"/>
<path d="M373.253 57.5352L584.906 57.5352V43.139L373.253 43.139V57.5352Z" fill="#DBDBDB"/>
<path d="M106.1 338.873C104.931 343.151 104.16 347.528 103.799 351.949C103.917 352.171 103.891 352.982 103.799 352.759C103.799 353.478 102.688 353.348 102.688 352.642C102.688 352.171 102.688 351.713 102.688 351.269C100.151 348.104 96.4508 346.104 93.4565 343.358C91.0573 341.184 89.3175 338.379 88.4355 335.264C85.9511 326.713 88.2786 317.665 85.2974 309.113C82.6823 301.765 78.1189 295.371 74.2093 288.715C70.0905 281.668 67.057 274.332 66.7563 266.016C66.5079 259.701 67.2662 251.293 72.065 246.56C77.1644 241.539 83.4929 245.252 87.4025 249.777C98.7128 262.774 103.956 279.183 106.074 295.972C107.238 305.256 108.454 314.605 108.166 323.993C107.979 329.01 107.287 333.995 106.1 338.873Z" fill="url(#paint0_linear_126_18861)"/>
<path d="M103.855 355.32C104.477 346.553 104.372 337.749 103.542 328.999C103.549 328.969 103.549 328.938 103.542 328.908C103.685 321.795 104.261 314.708 103.973 307.582C103.627 299.88 102.581 292.225 100.848 284.713C100.842 284.699 100.832 284.687 100.819 284.678C100.806 284.67 100.791 284.666 100.776 284.666C100.761 284.666 100.746 284.67 100.733 284.678C100.72 284.687 100.71 284.699 100.704 284.713C102.096 292.092 102.922 299.567 103.175 307.072C103.324 311.099 103.293 315.118 103.084 319.127C103.084 320.435 102.901 321.742 102.809 323.05C99.8528 303.094 92.6472 284.005 81.6793 267.074C81.5355 266.838 81.117 267.074 81.2609 267.322C89.1121 280.198 94.9252 294.211 98.4944 308.863C93.055 298.769 84.8305 290.479 78.7242 280.79C78.7242 280.79 78.6065 280.79 78.6327 280.79C84.1113 291.63 93.1727 300.155 98.8997 310.772C99.9065 315.1 100.717 319.48 101.332 323.848C102.146 329.886 102.583 335.969 102.639 342.062C99.3312 335.864 95.8924 329.928 93.1727 323.377C93.1073 323.207 92.8458 323.377 92.9111 323.495C95.2124 330.307 98.3244 337.642 102.665 343.448C102.665 347.75 102.561 352.064 102.299 356.366C101.633 367.86 99.6843 379.196 98.7559 390.65C98.7559 390.72 98.7835 390.786 98.8325 390.835C98.8815 390.884 98.948 390.912 99.0174 390.912C99.0868 390.912 99.1533 390.884 99.2023 390.835C99.2514 390.786 99.2789 390.72 99.2789 390.65C101.604 378.991 103.133 367.187 103.855 355.32Z" fill="#263238"/>
<path d="M91.6532 266.709C91.6532 266.617 91.4963 266.709 91.5225 266.709C93.6669 272.566 94.8044 278.45 96.282 284.465C96.2997 284.515 96.3345 284.556 96.3801 284.583C96.4257 284.609 96.4792 284.618 96.531 284.609C96.5827 284.599 96.6295 284.572 96.6629 284.531C96.6963 284.491 96.7143 284.439 96.7134 284.387C95.8943 278.28 94.1897 272.324 91.6532 266.709Z" fill="#263238"/>
<path d="M144.947 291.006C143.548 294.412 141.937 297.726 140.122 300.93C136.343 307.782 132.395 314.071 131.675 322.073C131.558 325.648 131.05 329.2 130.159 332.664C129.165 335.62 127.742 338.413 125.935 340.954C121.843 346.917 116.782 352.055 112.86 358.253C108.913 364.709 105.997 371.741 104.217 379.095C104.125 379.501 103.485 379.396 103.589 378.991C103.596 378.961 103.596 378.929 103.589 378.899C103.579 378.874 103.579 378.846 103.589 378.821C102.988 361.679 104.348 344.406 109.578 327.996C111.886 320.777 114.659 313.714 117.881 306.853C120.513 300.791 124.322 295.311 129.086 290.731C132.277 287.854 139.194 282.415 143.731 285.292C145.967 286.704 145.797 288.9 144.947 291.006Z" fill="url(#paint1_linear_126_18861)"/>
<path d="M127.729 329.874C124.704 334.846 121.377 339.627 117.765 344.191C116.105 346.362 114.418 348.506 112.77 350.729C111.986 351.749 111.11 352.769 110.391 353.867C110.848 352.076 111.28 350.258 111.698 348.467C113.921 339.811 116.039 331.077 119.334 322.748C122.709 314.684 126.686 306.887 131.233 299.421C131.351 299.225 131.024 299.081 130.906 299.277C127.284 305.226 123.61 311.176 120.576 317.452C118.888 320.952 117.42 324.555 116.183 328.239C117.577 320.425 119.53 312.721 122.028 305.187C122.028 305.122 121.949 305.07 121.923 305.187C118.676 312.781 116.642 320.838 115.895 329.063C115.15 331.286 114.47 333.535 113.83 335.797C111.136 345.381 108.769 355.07 106.573 364.798C106.527 358.406 107.078 352.024 108.22 345.734C108.22 345.59 108.024 345.564 107.998 345.734C106.323 352.289 105.762 359.078 106.337 365.818C105.509 369.523 104.698 373.223 103.905 376.919C102.232 384.765 100.153 392.858 99.1719 400.874C99.1719 400.915 99.1884 400.955 99.2178 400.985C99.2473 401.014 99.2872 401.031 99.3288 401.031C99.3704 401.031 99.4103 401.014 99.4397 400.985C99.4692 400.955 99.4857 400.915 99.4857 400.874C100.662 396.559 101.369 392.074 102.336 387.694C103.304 383.313 104.297 378.92 105.317 374.54C106.808 368.168 108.351 361.808 109.946 355.463C111.246 353.195 112.804 351.084 114.588 349.173C116.275 347.029 117.961 344.884 119.609 342.701C122.684 338.673 125.438 334.411 127.846 329.952C127.858 329.945 127.867 329.936 127.874 329.924C127.881 329.913 127.885 329.9 127.885 329.887C127.885 329.874 127.882 329.86 127.876 329.849C127.87 329.837 127.861 329.827 127.85 329.819C127.839 329.812 127.826 329.808 127.813 329.807C127.8 329.805 127.786 329.808 127.774 329.813C127.762 329.819 127.752 329.827 127.744 329.838C127.736 329.848 127.731 329.861 127.729 329.874Z" fill="#263238"/>
<path d="M128.457 322.551C124.675 327.371 121.406 332.573 118.703 338.071C118.703 338.071 118.782 338.215 118.821 338.15C122.103 333.011 125.359 327.82 128.601 322.682C128.654 322.551 128.51 322.472 128.457 322.551Z" fill="#263238"/>
<path d="M55.5123 307.283C57.7351 311.101 60.2587 315.69 59.3042 320.293C58.7027 323.196 56.5714 325.523 56.1922 328.517C55.3292 335.055 61.8539 339.396 66.5742 342.482C78.3421 350.21 94.4773 357.087 96.6478 372.856C96.7263 373.406 97.6939 373.275 97.6285 372.726C97.6344 372.691 97.6344 372.656 97.6285 372.621C97.6285 372.621 97.6285 372.621 97.6285 372.529C99.1766 364.568 99.101 356.376 97.4062 348.444C95.6541 340.324 92.176 333.015 87.9265 325.876C80.8396 313.807 73.3473 301.425 62.6385 292.18C59.6703 289.565 53.6033 285.015 51.2366 290.794C48.8699 296.574 52.7926 302.615 55.5123 307.283Z" fill="url(#paint2_linear_126_18861)"/>
<path d="M66.2705 332.845C74.1158 341.279 86.4721 346.012 93.1929 355.479C89.4469 341.08 82.3602 327.767 72.5075 316.619C72.4503 316.561 72.4181 316.484 72.4181 316.403C72.4181 316.322 72.4503 316.244 72.5075 316.187C72.5647 316.13 72.6423 316.098 72.7233 316.098C72.8042 316.098 72.8818 316.13 72.939 316.187C80.1195 323.173 85.863 331.498 89.8456 340.691C87.9885 334.276 85.5507 328.043 82.5626 322.071C82.4449 321.836 82.7718 321.64 82.9025 321.862C86.6082 328.376 89.2563 335.438 90.7478 342.783C99.5999 364.2 100.424 389.318 98.5931 411.9C98.5931 412.227 98.0701 412.24 98.0832 411.9C98.5931 394.104 98.3055 376.007 94.0429 358.63L93.7683 357.545C86.4591 347.359 74.155 342.639 66.1659 332.976C66.0613 332.937 66.2051 332.845 66.2705 332.845Z" fill="#263238"/>
<path d="M64.4732 325.642C68.5658 329.395 72.6061 333.239 76.6988 336.991C76.6988 336.991 76.6988 337.109 76.6988 337.07C72.0522 333.942 67.8703 330.174 64.277 325.877C64.2638 325.848 64.259 325.816 64.2632 325.784C64.2675 325.752 64.2806 325.722 64.3011 325.698C64.3216 325.673 64.3486 325.655 64.3791 325.645C64.4095 325.635 64.4421 325.634 64.4732 325.642Z" fill="#263238"/>
<path d="M63.8254 309.311C67.4433 315.254 71.5408 320.891 76.0771 326.166C76.0771 326.231 76.0771 326.336 75.9725 326.27C70.8894 321.451 66.6975 315.772 63.59 309.495C63.5657 309.463 63.5548 309.424 63.5597 309.385C63.5646 309.345 63.5849 309.31 63.6161 309.285C63.6474 309.261 63.6869 309.25 63.7262 309.255C63.7654 309.26 63.8011 309.28 63.8254 309.311Z" fill="#263238"/>
<path d="M82.2695 427.879H118.136L113.298 379.617H87.7874L82.2695 427.879Z" fill="#455A64"/>
<path d="M86.8789 387.462H114.089L113.305 379.617H87.7811L86.8789 387.462Z" fill="#263238"/>
<path d="M83.3776 381.969H117.008V374.267H83.3776V381.969Z" fill="#455A64"/>
<path d="M542.999 399.703H576.629V392.002H542.999V399.703Z" fill="#455A64"/>
<path d="M550.254 402H571.117L571 399.5H550.5L550.254 402Z" fill="#313C42"/>
<path d="M49.5859 427.884L118.141 427.57L186.683 427.453L323.792 427.23L460.902 427.453L529.444 427.57L597.999 427.884L529.444 428.198L460.902 428.316L323.792 428.538L186.683 428.316L118.141 428.198L49.5859 427.884Z" fill="#263238"/>
<path d="M323.796 520.47C471.828 520.47 591.831 511.736 591.831 500.962C591.831 490.187 471.828 481.453 323.796 481.453C175.765 481.453 55.7617 490.187 55.7617 500.962C55.7617 511.736 175.765 520.47 323.796 520.47Z" fill="#EBEBEB"/>
<path d="M351.13 118.806C351.622 123.514 353.413 127.994 356.303 131.744C359.193 135.493 363.067 138.367 367.495 140.043C371.923 141.719 376.729 142.132 381.377 141.236C386.026 140.339 390.334 138.169 393.821 134.967L406.609 136.837L400.215 125.788C401.685 122.189 402.315 118.302 402.057 114.422C401.799 110.543 400.659 106.774 398.724 103.401C396.789 100.029 394.111 97.1419 390.892 94.9606C387.674 92.7793 384 91.3609 380.151 90.8134C376.302 90.2658 372.378 90.6035 368.679 91.8008C364.98 92.9981 361.603 95.0234 358.804 97.7226C356.006 100.422 353.86 103.724 352.53 107.377C351.2 111.031 350.721 114.939 351.13 118.806Z" fill="white"/>
<path d="M358.781 97.704C361.565 94.9569 364.943 92.8867 368.654 91.6533C372.366 90.4199 376.311 90.0564 380.185 90.5909C384.1 91.1141 387.843 92.5279 391.126 94.7235C394.409 96.9191 397.145 99.8381 399.123 103.256C401.102 106.674 402.271 110.501 402.54 114.441C402.809 118.381 402.171 122.331 400.675 125.986V125.542L407.043 136.617L407.513 137.44L406.585 137.297L393.81 135.335L394.111 135.244C390.557 138.457 386.179 140.617 381.467 141.481C380.301 141.694 379.121 141.816 377.936 141.847C376.752 141.932 375.564 141.932 374.38 141.847C372.022 141.621 369.707 141.067 367.502 140.199C365.297 139.356 363.223 138.202 361.344 136.774C360.394 136.068 359.49 135.304 358.637 134.485C357.809 133.666 357.036 132.792 356.323 131.87C352.512 126.878 350.662 120.662 351.122 114.398C351.582 108.134 354.32 102.256 358.82 97.874L358.781 97.704ZM356.362 131.7C357.776 133.577 359.469 135.226 361.383 136.591C363.264 137.998 365.344 139.117 367.554 139.912C369.748 140.731 372.045 141.237 374.38 141.415C375.542 141.5 376.709 141.5 377.871 141.415C379.036 141.374 380.195 141.234 381.336 140.997C385.924 140.079 390.163 137.896 393.575 134.695L393.705 134.577H393.875L406.676 136.368L406.219 137.048L399.786 126.012L399.655 125.803L399.746 125.581C401.171 122.049 401.788 118.242 401.551 114.441C401.3 110.638 400.191 106.941 398.308 103.627C396.396 100.326 393.786 97.4833 390.659 95.2981C387.51 93.1124 383.899 91.6848 380.107 91.127C376.304 90.544 372.418 90.8347 368.744 91.9769C364.839 93.1922 361.287 95.3377 358.393 98.229C355.5 101.12 353.352 104.671 352.134 108.576C350.916 112.48 350.665 116.622 351.401 120.646C352.137 124.669 353.84 128.454 356.362 131.674V131.7Z" fill="#263238"/>
<path d="M410.448 361.027H209.621V506.898H410.448V361.027Z" fill="#F07C33"/>
<path d="M335.794 345.922H410.35L410.363 361.024H331.531L335.794 345.922Z" fill="#F07C33"/>
<g opacity="0.2">
<path d="M410.439 361.027H209.547V506.898H410.439V361.027Z" fill="black"/>
<path d="M335.807 345.926H410.387L410.4 360.975H331.543L335.807 345.926Z" fill="black"/>
</g>
<path d="M294.942 396.078L241.83 406.054L229.016 337.866L268.451 330.465L284.56 340.873L294.942 396.078Z" fill="#E0DFDF"/>
<path d="M324.211 414.483L282.519 380.105L326.663 326.565L357.622 352.098L359.941 371.16L324.211 414.483Z" fill="#E0DFDF"/>
<path opacity="0.2" d="M324.451 334.51L348.711 352.238L349.76 350.802L325.5 333.074L324.451 334.51Z" fill="#CAC5C5"/>
<path opacity="0.2" d="M321.786 338.151L346.047 355.879L347.096 354.443L322.836 336.715L321.786 338.151Z" fill="#CAC5C5"/>
<path opacity="0.2" d="M319.142 341.784L343.402 359.512L344.452 358.076L320.191 340.348L319.142 341.784Z" fill="#CAC5C5"/>
<path opacity="0.2" d="M316.501 345.412L352.047 371.387L353.096 369.951L317.55 343.976L316.501 345.412Z" fill="#CAC5C5"/>
<path d="M363.499 359.273H438.055L435.453 373.133H356.621L363.499 359.273Z" fill="#A85724"/>
<path d="M312.754 368.831L331.839 363.723C332.283 363.608 332.74 363.653 333.109 363.847C333.477 364.042 333.729 364.371 333.808 364.763C333.843 364.953 333.836 365.151 333.786 365.347C333.737 365.543 333.646 365.732 333.519 365.905C333.392 366.077 333.231 366.229 333.047 366.351C332.862 366.474 332.656 366.564 332.442 366.618L313.34 371.763C313.014 371.842 312.681 371.837 312.38 371.748C312.079 371.659 311.822 371.49 311.641 371.261C311.523 371.117 311.444 370.947 311.408 370.764C311.359 370.572 311.356 370.367 311.398 370.164C311.44 369.961 311.527 369.762 311.653 369.581C311.779 369.4 311.942 369.241 312.131 369.112C312.32 368.983 312.532 368.887 312.754 368.831Z" fill="#BDB7B7" fill-opacity="0.4"/>
<path d="M325.476 376.791L323.103 357.347C323.045 356.895 322.833 356.492 322.515 356.224C322.197 355.957 321.798 355.847 321.405 355.918C321.216 355.956 321.034 356.036 320.871 356.153C320.708 356.271 320.566 356.425 320.453 356.605C320.34 356.785 320.259 356.989 320.215 357.204C320.17 357.419 320.162 357.642 320.192 357.859L322.538 377.332C322.585 377.661 322.714 377.966 322.909 378.21C323.104 378.454 323.356 378.628 323.637 378.71C323.815 378.766 324.002 378.776 324.185 378.742C324.382 378.716 324.572 378.644 324.745 378.53C324.918 378.416 325.07 378.263 325.191 378.081C325.312 377.898 325.399 377.689 325.449 377.467C325.498 377.246 325.507 377.015 325.476 376.791Z" fill="#BDB7B7" fill-opacity="0.4"/>
<path d="M251.797 363.527L271.389 366.07C271.844 366.133 272.249 366.348 272.516 366.668C272.783 366.989 272.89 367.389 272.814 367.781C272.774 367.97 272.692 368.151 272.572 368.313C272.451 368.475 272.295 368.616 272.112 368.727C271.929 368.838 271.723 368.917 271.505 368.96C271.288 369.003 271.063 369.009 270.844 368.977L251.223 366.461C250.891 366.41 250.585 366.279 250.34 366.082C250.096 365.885 249.923 365.631 249.843 365.35C249.789 365.172 249.78 364.985 249.816 364.802C249.844 364.605 249.919 364.415 250.035 364.243C250.152 364.071 250.308 363.921 250.493 363.801C250.679 363.682 250.89 363.596 251.114 363.549C251.338 363.502 251.571 363.494 251.797 363.527Z" fill="#CAC5C5"/>
<path d="M260.529 375.737L265.738 356.854C265.855 356.414 265.813 355.96 265.621 355.592C265.429 355.223 265.101 354.97 264.711 354.886C264.522 354.849 264.324 354.853 264.128 354.9C263.932 354.947 263.742 355.035 263.569 355.159C263.397 355.283 263.244 355.44 263.121 355.622C262.998 355.804 262.906 356.007 262.851 356.219L257.606 375.118C257.525 375.44 257.528 375.771 257.615 376.072C257.702 376.372 257.869 376.628 258.097 376.811C258.241 376.93 258.409 377.011 258.592 377.049C258.784 377.1 258.988 377.106 259.191 377.067C259.394 377.027 259.592 376.944 259.774 376.821C259.955 376.698 260.116 376.538 260.246 376.352C260.375 376.166 260.472 375.956 260.529 375.737Z" fill="#CAC5C5"/>
<path d="M209.547 506.895H410.36L435.452 373.133H234.639L209.547 506.895Z" fill="#F07C33"/>
<path d="M363.669 458.956L282.496 464.304L287.713 416.199L368.886 410.852L363.669 458.956Z" fill="white"/>
<path d="M282.406 410.059L288.709 406.176L294.985 419.369L288.682 423.252L282.406 410.059Z" fill="#DBDBDB"/>
<path d="M358.047 454.187L364.349 450.316L370.626 463.51L364.323 467.38L358.047 454.187Z" fill="#DBDBDB"/>
<path d="M377.071 404.154L371.514 401.055L362.27 415.268L367.814 418.367L377.071 404.154Z" fill="#DBDBDB"/>
<path d="M290.758 458.298L285.214 455.199L275.957 469.425L281.514 472.511L290.758 458.298Z" fill="#DBDBDB"/>
<path d="M318.68 443.505L330.682 427.811C330.963 427.449 331.352 427.205 331.763 427.135C332.174 427.064 332.574 427.171 332.876 427.433C333.02 427.562 333.135 427.724 333.215 427.909C333.295 428.094 333.339 428.3 333.344 428.514C333.348 428.728 333.314 428.946 333.242 429.156C333.17 429.366 333.063 429.563 332.926 429.737L320.934 445.469C320.724 445.731 320.456 445.93 320.164 446.044C319.871 446.157 319.564 446.18 319.281 446.109C319.099 446.066 318.933 445.98 318.793 445.857C318.637 445.735 318.509 445.575 318.419 445.388C318.328 445.201 318.276 444.991 318.265 444.771C318.255 444.551 318.286 444.325 318.357 444.107C318.429 443.889 318.538 443.684 318.68 443.505Z" fill="#47555D"/>
<path d="M333.621 442.043L319.875 428.088C319.553 427.766 319.139 427.576 318.724 427.558C318.309 427.54 317.925 427.696 317.658 427.993C317.531 428.138 317.436 428.312 317.378 428.505C317.321 428.698 317.302 428.906 317.323 429.118C317.344 429.329 317.404 429.54 317.5 429.738C317.596 429.936 317.725 430.117 317.882 430.27L331.623 444.265C331.862 444.497 332.15 444.659 332.453 444.734C332.757 444.809 333.063 444.792 333.335 444.687C333.51 444.622 333.664 444.516 333.789 444.377C333.929 444.236 334.036 444.063 334.103 443.867C334.171 443.671 334.198 443.458 334.182 443.239C334.166 443.021 334.108 442.802 334.012 442.596C333.916 442.391 333.783 442.202 333.621 442.043Z" fill="#47555D"/>
<path d="M412.411 459.082L404.886 499.012H382.613" stroke="#FF8D4E" stroke-width="4.81572" stroke-linecap="round"/>
<path d="M371.78 498.719H350.41" stroke="#FF8D4E" stroke-width="4.81572" stroke-linecap="round"/>
<path d="M188.404 224.899C186.224 222.096 186.717 212.486 187.236 208.031L186.068 204.268L162.972 202.711V208.031C163.595 210.418 162.021 216.638 161.156 219.449H159.21L162.972 231.257H177.505C182.046 230.305 190.584 227.701 188.404 224.899Z" fill="#F19476"/>
<path d="M196.072 506.236L195.516 499.656H176.147V506.978V514.206C181.781 517.839 197.277 519.242 204.32 519.489C203.653 515.708 198.543 509.078 196.072 506.236Z" fill="#2C3438"/>
<path d="M207.307 315.258C191.071 317.062 154.839 319.587 139.8 315.258C139.42 322.284 138.49 336.963 137.806 339.469C137.122 341.976 125.178 440.017 119.292 488.725C119.292 491.846 124.29 495.143 126.789 496.402C130.676 497.261 138.638 498.979 139.382 498.979H144.073L171.417 350.008H175.405L171.417 502.967H175.405C181.291 503.821 193.919 504.676 197.337 501.258C203.034 444.67 213.004 328.246 207.307 315.258Z" fill="#263238"/>
<path d="M119.292 488.725C125.178 440.017 137.122 341.976 137.806 339.469C138.49 336.963 139.42 322.284 139.8 315.258C154.839 319.587 191.071 317.062 207.307 315.258C213.004 328.246 203.034 444.67 197.337 501.258C193.919 504.676 181.291 503.821 175.405 502.967H171.417L175.405 350.008H171.417L144.073 498.979M119.292 488.725C123.849 488.535 135.186 490.32 144.073 498.979M119.292 488.725C119.292 491.846 124.29 495.143 126.789 496.402C130.676 497.261 138.638 498.979 139.382 498.979C140.125 498.979 142.819 498.979 144.073 498.979" stroke="#1B303A" stroke-width="0.114225"/>
<path d="M134.965 337.559L136.48 307.185C124.936 304.697 121.837 307.318 121.731 308.939V338.117L120.774 340.03C118.542 346.28 119.313 354.114 119.977 357.25C120.615 358.717 121.997 358.552 122.608 358.287C124.011 361.731 126.381 360.997 127.391 360.2C127.71 362.56 130.235 361.98 131.457 361.396C132.286 362.671 134.141 364.425 134.965 365.143C141.263 366.657 143.097 359.778 141.901 360.2C140.944 360.538 138.366 359.809 137.197 359.403L136.48 351.909C137.245 351.654 138.446 353.184 138.951 353.982C138.249 357.489 139.987 359.057 140.944 359.403C144.515 360.678 144.93 358.499 144.691 357.25C144.117 357.378 143.389 355.709 143.097 354.859V347.684C142.331 344.941 137.357 339.791 134.965 337.559Z" fill="#F59476" stroke="black" stroke-width="0.114225"/>
<path d="M142.243 316.233L142.35 316.22L142.446 316.268C145.615 317.882 150.289 318.87 155.816 319.392C161.334 319.912 167.666 319.964 174.129 319.724C186.904 319.251 200.16 317.641 208.582 316.282V276.697L209.248 276.546C213.608 285.667 218.808 290.74 220.913 292.19C223.658 292.152 226.635 290.665 229.28 288.758C231.88 286.884 234.106 284.643 235.399 283.109C234.208 275.792 230.985 264.207 227.524 253.667C225.782 248.362 223.982 243.328 222.355 239.244C220.723 235.148 219.278 232.042 218.248 230.566C214.064 224.569 208.839 221.455 206.789 220.658L206.759 220.646L206.732 220.629C202.897 218.259 199.906 217.364 197.433 217.118C195.301 216.906 193.542 217.174 191.904 217.422C191.671 217.458 191.44 217.493 191.211 217.526C184.012 224.082 176.9 225.468 170.924 224.499C165.028 223.542 160.269 220.3 157.638 217.55C148.749 217.879 138.443 222.565 134.373 224.889C131.841 226.465 129.958 228.944 128.631 231.426C127.305 233.908 126.55 236.366 126.263 237.858L126.249 237.93L126.208 237.991C126.065 238.197 125.904 238.578 125.736 239.153C125.57 239.718 125.406 240.441 125.243 241.308C124.917 243.042 124.602 245.329 124.301 248.041C123.699 253.463 123.152 260.558 122.671 268.262C121.716 283.561 121.023 301.245 120.673 312.962C121.166 313.12 121.516 313.052 121.755 312.928C122.045 312.779 122.221 312.523 122.289 312.344L122.296 312.326L122.305 312.309C123.908 309.226 126.764 308.136 129.617 308.01C132.29 307.892 135.003 308.614 136.81 309.365L139.026 303.826L139.7 303.981C139.602 305.346 139.485 307.512 139.451 309.569C139.434 310.598 139.438 311.596 139.475 312.451C139.512 313.314 139.582 314.007 139.69 314.44C139.899 315.275 140.367 315.733 140.859 315.982C141.365 316.237 141.91 316.275 142.243 316.233Z" fill="#F07C33" stroke="#263238" stroke-width="0.7"/>
<path d="M190.938 218.148C190.408 216.559 188.858 213.195 186.898 212.453C183.233 216.489 175.829 224.372 175.197 223.992L175.177 223.975C175.183 223.982 175.189 223.988 175.197 223.992L181.534 229.472C182.086 229.825 183.375 230.319 184.117 229.472L190.938 218.148Z" fill="#E96C1E" stroke="#263238" stroke-width="0.114225"/>
<path d="M167.139 230.134L173.43 224.24L161.378 212.453C158.57 214.572 157.603 217 157.471 217.949C157.894 220.439 162.194 226.889 164.291 229.803C165.51 230.915 166.697 230.487 167.139 230.134Z" fill="#E96C1E" stroke="#263238" stroke-width="0.114225"/>
<path d="M157.34 188.556C157.34 188.556 156.624 186.056 154.958 187.821C153.292 189.587 156.525 195.268 157.089 196.357C157.702 197.262 158.475 198.049 159.368 198.679L158.396 190.182L157.34 188.556Z" fill="#F19476" stroke="#263238" stroke-width="0.114225" stroke-miterlimit="10" stroke-linecap="round"/>
<path d="M191.71 188.122C191.71 188.122 192.427 185.622 194.093 187.388C195.758 189.154 192.526 194.835 191.962 195.924C191.349 196.829 190.576 197.615 189.682 198.245L190.655 189.749L191.71 188.122Z" fill="#F19476" stroke="#263238" stroke-width="0.114225" stroke-miterlimit="10" stroke-linecap="round"/>
<path d="M191.125 185.315C191.125 185.315 190.834 199.186 190.269 200.187C190.269 202.348 188.29 207.954 186.426 209.809C184.562 211.665 175.398 214.34 173.251 213.775C172.034 213.455 166.763 213.053 163.974 209.81C161.847 207.336 160.09 205.022 159.285 201.293C157.984 199.385 157.464 185.315 157.464 185.315C157.464 185.315 157.464 173.719 160.09 168.434C160.8 166.433 184.548 167.288 186.84 167.861C189.132 168.434 189.987 171.008 189.696 173.155C189.406 175.301 191.988 179.141 191.988 179.141L191.125 185.315Z" fill="#F19476" stroke="#263238" stroke-width="0.114225" stroke-miterlimit="10" stroke-linecap="round"/>
<path d="M190.76 191.882L191.376 192.754C191.376 191.42 192.491 187.786 192.491 187.42C192.491 187.054 193.146 186.932 193.473 186.917V172.45C193.18 168.642 190.331 167.384 188.943 167.232C189.238 166.609 189.066 166.269 188.943 166.177C190.674 164.861 190.241 163.148 189.808 162.455C181.084 157.401 173.249 157.176 170.421 157.695C170.283 158.664 169.094 159.253 168.517 159.426C158.062 160.465 156.66 164.359 157.266 166.177C157.612 167.285 157.41 168.023 157.266 168.254C155.535 168.739 154.698 170.187 154.496 170.851L155.102 187.814C157.595 187.122 158.438 192.419 158.12 194.871L158.651 194.305C158.449 190.209 158.166 182.015 158.651 182.015C159.135 182.015 160.757 180.977 161.507 180.458V173.88C161.784 170.487 164.911 169.466 166.44 169.379H184.096C187.004 169.033 188.02 172.582 188.164 174.399V179.592C189.826 179.454 190.587 181.15 190.76 182.015C191.314 182.916 190.847 188.968 190.76 191.882Z" fill="#3A393D"/>
<path d="M186.117 184.264C184.789 183.403 181.254 183.05 179.464 184.264" stroke="black" stroke-width="0.228451" stroke-linecap="round" stroke-linejoin="round"/>
<path d="M169.828 184.643C168.345 183.749 164.704 183.749 163.277 185.36" stroke="black" stroke-width="0.228451" stroke-linecap="round" stroke-linejoin="round"/>
<ellipse cx="1.50374" cy="2.01065" rx="1.50374" ry="2.01065" transform="matrix(-1 0 0 1 184.293 186.293)" fill="#241715"/>
<ellipse cx="1.50374" cy="2.01065" rx="1.50374" ry="2.01065" transform="matrix(-1 0 0 1 168.184 186.492)" fill="#241715"/>
<path d="M173.847 197.15C173.847 197.068 174.724 196.936 176.152 196.785C176.513 196.756 176.854 196.692 176.922 196.444C176.958 196.073 176.882 195.699 176.703 195.372C176.381 194.49 176.045 193.569 175.694 192.6C174.296 188.658 173.292 185.423 173.453 185.364C173.613 185.306 174.875 188.463 176.274 192.405C176.605 193.379 176.927 194.305 177.248 195.187C177.467 195.628 177.522 196.132 177.404 196.61C177.35 196.744 177.264 196.863 177.153 196.957C177.043 197.051 176.912 197.118 176.771 197.15C176.57 197.199 176.364 197.222 176.157 197.219C174.729 197.253 173.847 197.238 173.847 197.15Z" fill="#263238"/>
<path d="M136.362 501.761C136.51 500.501 137.232 497.402 138.066 494.56C133.522 491.935 130.738 490.503 126.13 489.695L124.777 493.235C125.593 494.94 123.943 496.54 123.016 497.127C122.201 498.017 120.452 497.498 119.68 497.127C107.669 492.901 98.9824 492.771 96.1403 493.235C96.2886 502.058 110.907 507.723 118.197 509.453V512.419C123.313 515.459 129.473 516.466 131.913 516.589C134.212 516.441 135.342 511.214 135.62 508.619C135.62 506.766 136.115 503.275 136.362 501.761Z" fill="#2C3438"/>
<path d="M237.612 308.802C227.266 303.207 222.494 296.281 218.504 291.151C209.003 278.905 205.614 277.427 208.401 263.143L208.549 248.227L229.209 270.586C237.105 281.048 255.284 299.807 262.009 307.197C262.009 307.197 254.123 317.712 237.612 308.802Z" fill="#F07C33"/>
<path d="M247.604 302.827C250.904 302.075 254.364 302.528 257.359 304.105C261.307 306.131 267.483 309.267 268.285 309.51C269.488 309.869 270.27 309.225 270.396 316.488C270.537 318.386 270.466 320.295 270.185 322.178C269.932 323.022 264.136 331.679 262.225 330.476L262.088 330.381C261.575 331.105 260.984 331.771 260.325 332.365C259.85 332.777 257.158 332.724 258.552 329.198C258.552 329.198 256.715 333.22 255.29 332.682C253.432 331.985 253.727 330.201 254.413 328.681C253.548 329.853 252.471 330.792 251.711 329.737C250.222 327.752 253.6 320.7 253.6 320.7L254.002 316.477L251.415 314.165C251.415 314.165 242.188 314.387 242.41 307.831C242.547 304.854 244.986 303.461 247.604 302.827Z" fill="#DB9C7F"/>
<path d="M267.862 313.824L267.746 321.615L262.066 329.881" stroke="#241715" stroke-width="0.211665" stroke-miterlimit="10" stroke-linecap="round"/>
<path d="M263.826 313.883L263.383 321.906L258.59 329.232" stroke="#241715" stroke-width="0.211665" stroke-miterlimit="10" stroke-linecap="round"/>
<path d="M259.733 314.094L259.162 320.85L255.066 327.638" stroke="#241715" stroke-width="0.211665" stroke-miterlimit="10" stroke-linecap="round"/>
<path d="M248.053 312.291C248.053 312.291 248.972 319.258 246.723 320.736C244.475 322.214 240.854 307.857 243.345 307.667C246.998 307.456 248.053 312.291 248.053 312.291Z" fill="#DB9C7F"/>
<g style="mix-blend-mode:multiply">
<path d="M178.087 205.154C177.132 204.428 176.027 203.953 174.866 203.773C173.706 203.592 172.526 203.711 171.429 204.119C171.345 204.16 171.254 204.184 171.162 204.188C171.069 204.193 170.975 204.178 170.887 204.145C170.799 204.112 170.718 204.061 170.648 203.995C170.578 203.929 170.521 203.85 170.48 203.762C170.439 203.673 170.415 203.578 170.409 203.48C170.403 203.383 170.416 203.285 170.446 203.194C170.476 203.102 170.523 203.018 170.585 202.946C170.647 202.873 170.721 202.815 170.805 202.774C172.129 202.261 173.558 202.101 174.967 202.306C176.376 202.511 177.721 203.075 178.884 203.949C179.652 204.514 178.855 205.719 178.087 205.154Z" fill="#936A5D"/>
</g>
<path fill-rule="evenodd" clip-rule="evenodd" d="M376.413 105.967C374.369 105.967 372.713 107.623 372.713 109.666C372.713 110.892 371.719 111.886 370.493 111.886C369.267 111.886 368.273 110.892 368.273 109.666C368.273 105.171 371.917 101.527 376.413 101.527C380.908 101.527 384.552 105.171 384.552 109.666C384.552 111.283 384.078 112.796 383.261 114.066C382.749 114.862 382.15 115.621 381.599 116.307C381.498 116.432 381.399 116.555 381.301 116.676C380.843 117.242 380.423 117.762 380.035 118.296C379.077 119.612 378.632 120.601 378.632 121.505V122.985C378.632 124.211 377.638 125.205 376.413 125.205C375.187 125.205 374.193 124.211 374.193 122.985V121.505C374.193 119.14 375.354 117.183 376.445 115.684C376.906 115.051 377.411 114.426 377.87 113.858C377.962 113.744 378.052 113.633 378.14 113.524C378.688 112.843 379.155 112.243 379.527 111.664C379.897 111.089 380.112 110.406 380.112 109.666C380.112 107.623 378.456 105.967 376.413 105.967Z" fill="#28303F"/>
<path fill-rule="evenodd" clip-rule="evenodd" d="M376.393 127.812C377.668 127.812 378.701 128.378 378.701 129.077V130.762C378.701 131.46 377.668 132.026 376.393 132.026C375.119 132.026 374.086 131.46 374.086 130.762V129.077C374.086 128.378 375.119 127.812 376.393 127.812Z" fill="#28303F"/>
<path d="M432.065 490.048L431.812 499.564L433.233 499.663C439.578 500.012 465.535 501.206 469.784 499.945C474.527 498.532 455.002 494.011 455.002 494.011L455.001 490.001L432.065 490.048Z" fill="#F07C33"/>
<path d="M440.144 499.381C439.818 497.437 438.781 495.683 437.235 494.46C435.715 493.222 433.779 492.613 431.824 492.76L431.775 499.216L440.144 499.381Z" fill="#B94D09"/>
<path d="M464.5 496.559C464.5 496.559 471.339 498.589 470.486 499.708C469.633 500.828 443.352 500.662 431.776 499.566L431.817 499.057L462.45 499.52C462.45 499.52 463.217 496.608 464.5 496.559Z" fill="#B94D09"/>
<path d="M431.488 499.027C431.617 499.061 431.749 499.076 431.882 499.072L433.015 499.149L437.198 499.354C440.73 499.514 445.613 499.655 450.996 499.695C456.38 499.735 461.307 499.649 464.813 499.555L468.996 499.412L470.136 499.359L470.527 499.301L470.125 499.283L468.992 499.297L464.809 499.349C461.269 499.397 456.387 499.437 451.004 499.397C445.62 499.357 440.665 499.253 437.206 499.147L433.024 499.032L431.885 499.007L431.488 499.027Z" fill="#263238"/>
<path d="M462.475 499.864C462.67 499.174 462.939 498.507 463.277 497.875C463.691 497.292 464.17 496.758 464.704 496.283C463.987 496.54 463.392 497.056 463.036 497.73C462.599 498.351 462.4 499.108 462.475 499.864Z" fill="#263238"/>
<path d="M455.713 496.374C455.713 496.374 456.099 496.02 456.446 495.492C456.794 494.963 456.997 494.507 456.939 494.464C456.881 494.421 456.54 494.82 456.206 495.347C455.871 495.874 455.643 496.333 455.713 496.374Z" fill="#263238"/>
<path d="M453.85 495.379C453.85 495.379 454.275 495.2 454.673 494.844C455.072 494.489 455.346 494.164 455.299 494.107C455.252 494.049 454.887 494.284 454.488 494.64C454.089 494.995 453.802 495.322 453.85 495.379Z" fill="#263238"/>
<path d="M452.293 491.66C452.691 491.93 453.162 492.072 453.643 492.066C454.116 492.142 454.6 492.071 455.031 491.86C454.599 491.788 454.162 491.749 453.724 491.745C453.25 491.676 452.772 491.648 452.293 491.66Z" fill="#263238"/>
<path d="M456.507 494.386C456.999 494.463 457.499 494.463 457.99 494.385C458.524 494.319 459.051 494.206 459.565 494.049C459.878 493.959 460.179 493.836 460.466 493.683C460.641 493.583 460.774 493.421 460.837 493.228C460.862 493.118 460.855 493.003 460.816 492.896C460.778 492.79 460.709 492.697 460.619 492.629C460.057 492.35 459.416 492.274 458.804 492.414C458.192 492.554 457.648 492.901 457.264 493.397C457.032 493.69 456.863 494.026 456.765 494.386C456.713 494.639 456.708 494.782 456.735 494.791C456.884 494.333 457.113 493.906 457.412 493.53C457.751 493.145 458.193 492.865 458.685 492.722C458.972 492.623 459.276 492.583 459.578 492.605C459.88 492.627 460.175 492.709 460.445 492.848C460.677 493.02 460.514 493.315 460.315 493.448C460.054 493.597 459.778 493.716 459.49 493.802C458.992 493.972 458.48 494.099 457.96 494.184C457.075 494.302 456.52 494.384 456.507 494.386Z" fill="#263238"/>
<path d="M456.89 494.448C456.89 494.448 457.133 494.089 457.074 493.427C457.028 493.038 456.888 492.664 456.667 492.34C456.545 492.12 456.369 491.934 456.155 491.801C455.941 491.668 455.697 491.592 455.446 491.58C455.371 491.594 455.301 491.623 455.238 491.664C455.175 491.706 455.121 491.76 455.079 491.822C455.036 491.885 455.007 491.955 454.992 492.029C454.977 492.103 454.976 492.179 454.991 492.253C455.023 492.492 455.106 492.722 455.233 492.927C455.424 493.25 455.655 493.55 455.919 493.818C456.387 494.277 456.749 494.456 456.77 494.427C456.792 494.398 456.473 494.161 456.068 493.693C455.835 493.413 455.63 493.111 455.457 492.79C455.257 492.484 455.123 491.924 455.487 491.857C455.851 491.79 456.234 492.198 456.457 492.487C456.661 492.778 456.803 493.109 456.872 493.457C456.91 493.786 456.916 494.118 456.89 494.448Z" fill="#263238"/>
<path d="M432.002 492.734C432.002 492.734 432.646 492.638 433.702 492.804C435.055 492.973 436.334 493.51 437.402 494.358C438.451 495.229 439.244 496.368 439.696 497.654C440.035 498.636 440.069 499.301 440.119 499.294C440.147 499.14 440.15 498.983 440.128 498.828C440.084 498.404 440 497.985 439.878 497.576C439.47 496.222 438.668 495.021 437.574 494.126C436.463 493.249 435.12 492.717 433.71 492.597C433.282 492.563 432.851 492.575 432.426 492.632C432.28 492.642 432.137 492.676 432.002 492.734Z" fill="#263238"/>
<path d="M443.06 497.214C444.16 497.468 445.286 497.586 446.414 497.568C447.543 497.633 448.675 497.548 449.781 497.314C449.77 497.238 448.273 497.318 446.423 497.283C444.574 497.248 443.074 497.135 443.06 497.214Z" fill="#263238"/>
<path d="M438.552 497.168C438.489 497.177 438.676 497.485 438.819 497.838C438.962 498.191 439.057 498.486 439.135 498.487C439.212 498.489 439.261 498.121 439.022 497.73C438.784 497.34 438.595 497.11 438.552 497.168Z" fill="#263238"/>
<path d="M436.868 495.044C436.868 495.044 436.913 495.347 437.192 495.576C437.471 495.805 437.664 495.97 437.721 495.923C437.779 495.876 437.676 495.62 437.395 495.378C437.114 495.136 436.924 494.984 436.868 495.044Z" fill="#263238"/>
<path d="M434.47 494.059C434.481 494.134 434.789 494.127 435.131 494.257C435.473 494.387 435.705 494.559 435.762 494.512C435.82 494.465 435.704 494.121 435.22 493.986C434.736 493.852 434.459 493.983 434.47 494.059Z" fill="#263238"/>
<path d="M432.713 493.602C432.713 493.602 432.819 493.793 433.01 493.868C433.202 493.943 433.382 493.942 433.411 493.873C433.439 493.804 433.305 493.682 433.114 493.608C432.922 493.533 432.74 493.521 432.713 493.602Z" fill="#263238"/>
<path d="M509.308 484.27L509.055 493.787L510.475 493.886C516.82 494.235 542.777 495.429 547.026 494.167C551.769 492.755 532.245 488.234 532.245 488.234L532.243 484.223L509.308 484.27Z" fill="#F07C33"/>
<path d="M517.386 493.604C517.06 491.659 516.023 489.905 514.477 488.683C512.958 487.444 511.021 486.836 509.066 486.983L509.017 493.438L517.386 493.604Z" fill="#B94D09"/>
<path d="M541.742 490.782C541.742 490.782 548.581 492.812 547.728 493.931C546.876 495.051 520.594 494.884 509.018 493.789L509.059 493.28L539.692 493.743C539.692 493.743 540.459 490.83 541.742 490.782Z" fill="#B94D09"/>
<path d="M508.73 493.25C508.859 493.283 508.991 493.299 509.124 493.295L510.257 493.372L514.44 493.577C517.972 493.737 522.855 493.877 528.238 493.917C533.622 493.958 538.549 493.872 542.056 493.778L546.239 493.635L547.378 493.582L547.77 493.524L547.367 493.506L546.234 493.519L542.051 493.572C538.511 493.62 533.63 493.66 528.246 493.62C522.862 493.58 517.907 493.476 514.448 493.37L510.266 493.255L509.127 493.23L508.73 493.25Z" fill="#263238"/>
<path d="M539.718 494.086C539.912 493.396 540.181 492.73 540.519 492.097C540.933 491.515 541.412 490.981 541.947 490.506C541.229 490.763 540.634 491.279 540.278 491.953C539.841 492.574 539.642 493.331 539.718 494.086Z" fill="#263238"/>
<path d="M532.955 490.597C532.955 490.597 533.341 490.243 533.689 489.714C534.036 489.186 534.239 488.73 534.181 488.687C534.123 488.644 533.782 489.043 533.448 489.57C533.113 490.096 532.885 490.556 532.955 490.597Z" fill="#263238"/>
<path d="M531.096 489.602C531.096 489.602 531.521 489.423 531.919 489.067C532.318 488.711 532.592 488.387 532.545 488.329C532.498 488.272 532.133 488.507 531.734 488.862C531.335 489.218 531.049 489.544 531.096 489.602Z" fill="#263238"/>
<path d="M529.535 485.883C529.933 486.152 530.404 486.294 530.885 486.289C531.358 486.365 531.843 486.293 532.273 486.083C531.841 486.011 531.404 485.972 530.966 485.967C530.493 485.898 530.014 485.87 529.535 485.883Z" fill="#263238"/>
<path d="M533.75 488.609C534.241 488.686 534.741 488.685 535.233 488.608C535.766 488.542 536.293 488.429 536.808 488.271C537.12 488.182 537.421 488.059 537.708 487.906C537.884 487.805 538.016 487.643 538.079 487.451C538.104 487.341 538.097 487.225 538.059 487.119C538.02 487.013 537.951 486.92 537.861 486.851C537.299 486.572 536.658 486.496 536.046 486.637C535.435 486.777 534.89 487.124 534.506 487.62C534.274 487.912 534.105 488.249 534.008 488.609C533.955 488.862 533.95 489.005 533.977 489.013C534.126 488.556 534.355 488.129 534.654 487.752C534.994 487.368 535.435 487.088 535.927 486.945C536.214 486.846 536.518 486.806 536.82 486.828C537.123 486.849 537.418 486.932 537.687 487.071C537.919 487.243 537.756 487.538 537.557 487.67C537.296 487.819 537.02 487.938 536.732 488.025C536.234 488.195 535.722 488.322 535.203 488.406C534.317 488.525 533.762 488.607 533.75 488.609Z" fill="#263238"/>
<path d="M534.132 488.67C534.132 488.67 534.375 488.312 534.316 487.65C534.27 487.26 534.131 486.887 533.91 486.563C533.787 486.342 533.611 486.157 533.397 486.024C533.183 485.891 532.939 485.815 532.688 485.802C532.614 485.817 532.543 485.845 532.48 485.887C532.417 485.929 532.363 485.982 532.321 486.045C532.278 486.107 532.249 486.178 532.234 486.252C532.219 486.326 532.219 486.402 532.233 486.476C532.266 486.715 532.348 486.944 532.475 487.149C532.667 487.473 532.897 487.772 533.161 488.041C533.629 488.5 533.991 488.678 534.013 488.649C534.034 488.62 533.715 488.384 533.31 487.915C533.077 487.636 532.872 487.333 532.7 487.013C532.499 486.707 532.365 486.147 532.729 486.08C533.093 486.013 533.476 486.421 533.699 486.71C533.904 487.001 534.045 487.331 534.114 487.68C534.152 488.009 534.158 488.341 534.132 488.67Z" fill="#263238"/>
<path d="M509.245 486.956C509.245 486.956 509.888 486.861 510.944 487.027C512.297 487.195 513.577 487.733 514.644 488.58C515.693 489.451 516.486 490.591 516.938 491.877C517.277 492.859 517.311 493.524 517.362 493.517C517.389 493.363 517.392 493.206 517.37 493.051C517.326 492.627 517.242 492.207 517.12 491.799C516.712 490.445 515.91 489.244 514.816 488.349C513.706 487.471 512.362 486.939 510.952 486.819C510.524 486.785 510.094 486.797 509.668 486.855C509.522 486.864 509.379 486.898 509.245 486.956Z" fill="#263238"/>
<path d="M520.302 491.437C521.402 491.69 522.528 491.809 523.656 491.791C524.785 491.856 525.917 491.77 527.023 491.537C527.012 491.461 525.515 491.541 523.666 491.506C521.816 491.47 520.316 491.357 520.302 491.437Z" fill="#263238"/>
<path d="M515.794 491.391C515.731 491.4 515.919 491.708 516.061 492.06C516.204 492.413 516.299 492.709 516.377 492.71C516.454 492.711 516.503 492.343 516.264 491.953C516.026 491.563 515.837 491.333 515.794 491.391Z" fill="#263238"/>
<path d="M514.111 489.266C514.111 489.266 514.156 489.569 514.435 489.799C514.714 490.028 514.906 490.193 514.963 490.146C515.021 490.099 514.918 489.843 514.637 489.601C514.356 489.359 514.166 489.207 514.111 489.266Z" fill="#263238"/>
<path d="M511.712 488.281C511.723 488.357 512.032 488.35 512.373 488.48C512.715 488.61 512.947 488.782 513.004 488.735C513.062 488.687 512.946 488.343 512.462 488.209C511.978 488.074 511.701 488.206 511.712 488.281Z" fill="#263238"/>
<path d="M509.955 487.825C509.955 487.825 510.061 488.016 510.252 488.091C510.444 488.165 510.624 488.164 510.653 488.096C510.681 488.027 510.547 487.905 510.356 487.83C510.164 487.755 509.982 487.744 509.955 487.825Z" fill="#263238"/>
<path d="M452.572 338.103L439.311 414.02C439.311 414.02 431.274 486.005 430.937 487.924L430.683 490.162L457.626 490.162L483.255 352.617L452.572 338.103Z" fill="#37474F"/>
<path d="M489.126 393.558C493.244 411.51 508.328 486.825 508.328 486.825L534.155 484.431L519.465 388.366C519.231 385.859 518.665 383.387 517.78 381.001L493.639 315.762L448.236 289.734C447.788 289.734 440.886 306.551 441.836 318.205C442.336 323.419 444.349 328.422 447.671 332.714C450.562 336.512 454.584 341.81 455.48 343.041C456.92 345.002 489.126 393.558 489.126 393.558Z" fill="#37474F"/>
<path d="M476.569 183.746C477.476 190.401 476.81 197.176 474.627 203.528C474.093 205.08 473.183 206.834 471.566 207.058C471.653 209.303 469.191 211.888 466.96 212.198C465.812 212.364 464.859 213.866 464.072 214.718C463.326 215.569 462.315 216.145 461.202 216.354C460.09 216.562 458.939 216.391 457.935 215.867C456.932 215.343 456.133 214.498 455.667 213.466C455.201 212.434 455.095 211.276 455.366 210.177C455.869 208.167 456.904 206.329 458.362 204.856C461.199 201.658 463.033 196.568 464.657 192.583C465.22 192.684 465.567 182.129 465.928 177.827C467.372 176.852 473.4 177.588 474.873 178.549C476.345 179.509 476.338 182.021 476.569 183.746Z" fill="#263238"/>
<path d="M443.079 209.818C442.804 210.54 442.212 211.392 440.422 211.688C444.032 216.836 454.312 221.413 461.676 220.482C465.748 219.76 465.842 218.669 464.715 217.695C462.492 215.782 460.694 211.724 460.622 208.793L460.557 205.761L444.212 197.242C444.212 197.242 443.396 205.906 443.367 208.288C443.366 208.812 443.268 209.33 443.079 209.818Z" fill="#FFBE9D"/>
<mask id="mask0_126_18861" style="mask-type:luminance" maskUnits="userSpaceOnUse" x="439" y="196" width="26" height="24">
<path d="M442.223 209.178C441.949 209.9 441.357 210.752 439.566 211.048C443.176 216.195 453.457 220.772 460.82 219.841C464.892 219.119 464.986 218.029 463.86 217.054C461.636 215.141 459.839 211.084 459.766 208.153L459.701 205.121L443.357 196.602C443.357 196.602 442.541 205.265 442.512 207.647C442.51 208.171 442.413 208.69 442.223 209.178Z" fill="white"/>
</mask>
<g mask="url(#mask0_126_18861)">
<path opacity="0.3" d="M443.958 210.934C443.821 211.981 443.525 213.223 442.514 213.591C442.023 213.772 441.388 213.743 441.106 214.183C440.825 214.624 441.222 215.302 441.633 215.728C443.631 217.967 445.852 219.996 448.261 221.785C450.691 223.578 453.61 224.586 456.628 224.673C455.529 222.103 455.36 219.229 456.151 216.548C456.942 213.867 458.642 211.545 460.96 209.981C462.101 209.26 463.581 208.328 463.306 207.007C463.104 206.054 462.079 205.563 461.14 205.217L453.755 202.365C451.474 201.477 448.817 199.91 446.405 199.52C444.196 199.16 444.81 201.917 444.68 203.556C444.536 206.025 444.283 208.48 443.958 210.934Z" fill="#FFBE9D"/>
</g>
<path d="M443.079 209.818C442.804 210.54 442.212 211.392 440.422 211.688C444.032 216.836 454.312 221.413 461.676 220.482C465.748 219.76 465.842 218.669 464.715 217.695C462.492 215.782 460.694 211.724 460.622 208.793L460.557 205.761L444.212 197.242C444.212 197.242 443.396 205.906 443.367 208.288C443.366 208.812 443.268 209.33 443.079 209.818Z" stroke="#263238" stroke-width="0.721944" stroke-miterlimit="10"/>
<path d="M454.665 207.154C456.318 207.674 460.628 208.967 460.628 208.967L460.556 205.761L444.211 197.242C444.998 202.404 449.69 205.573 454.665 207.154Z" fill="#263238" stroke="#263238" stroke-width="0.721944" stroke-linecap="round" stroke-linejoin="round"/>
<path d="M448.793 160.988C443.855 164.172 439.696 167.485 437.863 177.874C436.029 188.263 440.411 195.324 440.411 195.324C441.451 197.079 442.686 198.711 444.093 200.19C446.901 203.33 459.109 207.366 462.676 207.127C466.242 206.889 470.87 200.753 472.624 191.967C474.378 183.181 472.675 181.137 470.184 169.861C467.693 158.584 461.593 157.472 461.593 157.472C461.593 157.472 455.572 156.627 448.793 160.988Z" fill="#FFBE9D"/>
<path d="M448.793 160.988C443.855 164.172 439.696 167.485 437.863 177.874C436.029 188.263 440.411 195.324 440.411 195.324C441.451 197.079 442.686 198.711 444.093 200.19C446.901 203.33 459.109 207.366 462.676 207.127C466.242 206.889 470.87 200.753 472.624 191.967C474.378 183.181 472.675 181.137 470.184 169.861C467.693 158.584 461.593 157.472 461.593 157.472C461.593 157.472 455.572 156.627 448.793 160.988Z" stroke="#263238" stroke-width="0.721944" stroke-linecap="round" stroke-linejoin="round"/>
<path d="M464.954 151.481C469.076 153.191 472.907 155.531 476.31 158.419C476.474 158.554 476.602 158.727 476.681 158.924C476.76 159.121 476.789 159.335 476.763 159.546C476.738 159.757 476.66 159.958 476.537 160.13C476.414 160.303 476.249 160.442 476.057 160.534C474.932 161.025 473.667 161.089 472.498 160.715C478.455 165.191 483.493 170.775 487.334 177.161C487.492 177.421 487.576 177.72 487.577 178.025C487.578 178.33 487.495 178.629 487.339 178.891C487.182 179.152 486.957 179.366 486.688 179.509C486.418 179.652 486.115 179.718 485.811 179.702C485.038 179.639 484.281 179.447 483.573 179.132C486.46 181.543 488.049 183.499 487.182 184.741C486.02 184.958 484.555 182.041 483.479 181.601C485.387 184.535 486.508 187.911 486.735 191.405C486.764 191.835 486.663 192.263 486.447 192.636C486.231 193.009 485.908 193.308 485.521 193.497C485.133 193.685 484.698 193.754 484.271 193.693C483.845 193.633 483.445 193.447 483.125 193.159L482.937 193L483.421 198.176C483.459 198.55 483.356 198.924 483.132 199.226C482.908 199.527 482.579 199.733 482.21 199.804C481.841 199.874 481.459 199.804 481.139 199.607C480.82 199.41 480.585 199.101 480.483 198.74C480.462 198.684 480.447 198.626 480.439 198.566C481.161 200.169 481.883 201.858 481.443 203.62C481.332 204.194 481.048 204.722 480.631 205.132C480.213 205.542 479.681 205.815 479.104 205.916C477.212 206.168 475.906 204.226 475.162 202.508C475.162 202.508 476.166 178.626 464.448 163.299C457.872 154.701 454.738 153.618 454.738 153.618C454.847 148.81 462.607 150.499 464.954 151.481Z" fill="#263238"/>
<path d="M458.786 152.595C455.596 150.61 451.249 148.986 447.755 147.65C440.362 144.762 431.41 145.809 425.267 150.913C425.085 151.064 424.949 151.263 424.873 151.486C424.797 151.71 424.783 151.95 424.835 152.181C424.886 152.411 425 152.623 425.164 152.793C425.329 152.963 425.536 153.084 425.765 153.144L427.736 153.664C424.819 154.129 422.131 155.528 420.076 157.649C419.869 157.865 419.739 158.143 419.704 158.44C419.67 158.737 419.734 159.037 419.886 159.295C420.038 159.552 420.27 159.753 420.547 159.866C420.823 159.98 421.13 160 421.419 159.923C415.62 163.395 411.357 168.941 409.492 175.438C409.355 175.892 409.361 176.377 409.509 176.828C409.658 177.279 409.941 177.673 410.321 177.957C410.701 178.24 411.16 178.4 411.634 178.415C412.108 178.429 412.575 178.297 412.972 178.037C413.867 177.454 414.689 176.765 415.419 175.986C412.871 179.376 410.898 183.161 409.579 187.191C409.239 188.223 408.965 189.443 409.839 190.266C410.15 190.537 410.532 190.714 410.94 190.775C411.348 190.837 411.765 190.78 412.142 190.613C413.528 190.057 414.221 188.707 414.842 187.429C414.041 189.401 413.613 191.503 413.578 193.631C413.573 193.859 413.64 194.084 413.771 194.272C413.902 194.46 414.089 194.601 414.306 194.675C414.522 194.75 414.757 194.753 414.975 194.684C415.194 194.616 415.385 194.479 415.52 194.295L416.365 193.14C415.481 195.229 415.143 197.509 415.385 199.765C415.626 202.021 416.438 204.178 417.744 206.034C417.848 206.182 417.988 206.302 418.15 206.382C418.312 206.462 418.492 206.501 418.673 206.494C418.854 206.486 419.031 206.434 419.186 206.341C419.342 206.248 419.471 206.117 419.563 205.961L421.816 202.048C421.144 203.68 420.473 205.572 421.274 207.145C421.996 208.589 424.48 208.748 425.072 207.485C424.913 208.784 426.451 210.048 427.858 209.903C429.439 209.752 430.688 208.546 431.793 207.413C439.864 213.188 444.066 212.033 445.005 203.413C445.257 201.124 443.286 200.388 440.362 195.327C440.362 195.327 436.926 188.7 438.745 184.931C439.42 185.745 439.979 186.649 440.406 187.617L442.882 191.45C442.882 191.45 442.102 190.909 442.593 186.592C443.077 183.102 443.842 179.656 444.882 176.29C450.448 158.205 468.294 165.576 467.984 167.771C467.991 167.771 465.746 156.927 458.786 152.595Z" fill="#263238"/>
<path d="M461.133 196.96C462.577 198.296 466.504 198.296 466.663 195.935C466.663 195.935 466.41 194.607 465.522 194.946" stroke="#263238" stroke-width="0.721944" stroke-linecap="round" stroke-linejoin="round"/>
<path d="M460.625 195.362C462.343 195.456 464.523 195.477 466.054 194.69C466.253 194.558 466.406 194.368 466.495 194.147C466.584 193.925 466.604 193.682 466.552 193.449C466.475 193.251 466.333 193.085 466.149 192.977C465.966 192.87 465.752 192.827 465.541 192.857" stroke="#263238" stroke-width="0.721944" stroke-linecap="round" stroke-linejoin="round"/>
<path d="M461.703 189.897C461.703 189.897 462.663 191.146 465.233 189.673C467.804 188.2 465.869 185.702 464.136 183.486C463.63 182.802 463.286 182.011 463.131 181.175C462.976 180.338 463.013 179.476 463.241 178.656" stroke="#263238" stroke-width="0.721944" stroke-linecap="round" stroke-linejoin="round"/>
<path d="M453.847 181.971C454.403 181.885 454.988 182.693 455.154 183.783C455.32 184.873 455.002 185.819 454.432 185.899C453.861 185.978 453.291 185.177 453.125 184.087C452.959 182.996 453.291 182.022 453.847 181.971Z" fill="#263238"/>
<path d="M467.049 181.213C467.215 182.303 466.897 183.249 466.327 183.335C465.756 183.422 465.179 182.613 465.013 181.523C464.847 180.433 465.164 179.487 465.735 179.401C466.305 179.314 466.883 180.13 467.049 181.213Z" fill="#263238"/>
<path d="M449.672 180.445C450.942 175.594 459.23 178.402 459.23 178.402" stroke="#263238" stroke-width="0.721944" stroke-linecap="round" stroke-linejoin="round"/>
<path d="M463.992 177.551C467.306 173.458 469.457 176.007 469.457 176.007" stroke="#263238" stroke-width="0.721944" stroke-linecap="round" stroke-linejoin="round"/>
<path d="M441.574 194.217C441.574 194.217 439.206 195.971 436.773 193.242C434.34 190.513 432.543 185.82 435.329 183.994C438.116 182.167 441.011 188.708 441.011 188.708L441.574 194.217Z" fill="#FFBE9D"/>
<mask id="mask1_126_18861" style="mask-type:luminance" maskUnits="userSpaceOnUse" x="433" y="183" width="9" height="12">
<path d="M441.457 194.158C441.457 194.158 439.089 195.912 436.656 193.183C434.223 190.454 432.426 185.762 435.212 183.935C437.999 182.109 440.894 188.65 440.894 188.65" fill="white"/>
</mask>
<g mask="url(#mask1_126_18861)">
<path opacity="0.3" d="M440.731 194.881C440.731 194.881 438.363 196.635 435.93 193.906C433.497 191.177 431.699 186.484 434.486 184.658C437.272 182.831 440.167 189.372 440.167 189.372" fill="#FFBE9D"/>
</g>
<path d="M441.574 194.217C441.574 194.217 439.206 195.971 436.773 193.242C434.34 190.513 432.543 185.82 435.329 183.994C438.116 182.167 441.011 188.708 441.011 188.708" stroke="#263238" stroke-width="0.721944" stroke-linecap="round" stroke-linejoin="round"/>
<path d="M473.653 223.522C461.798 219.848 447.988 215.689 439.801 211.379C439.801 211.379 441.519 206.853 443.107 206.138C443.107 206.138 447.013 206.001 453.323 208.484C461.705 211.791 473.4 223.039 473.653 223.522Z" fill="white" stroke="#263238" stroke-width="0.721944" stroke-linecap="round" stroke-linejoin="round"/>
<path d="M453.104 295.584C451.271 297.967 450.296 300.479 448.47 302.861C440.355 299.367 429.165 288.531 420.09 282.228C412.358 276.857 415.621 268.598 415.621 268.583C415.939 267.14 427.382 224.545 428.212 222.552C430.378 217.405 433.987 210.626 439.388 211.954C455.444 215.867 432.349 272.063 432.349 272.063C433.287 272.944 446.593 288.249 453.104 295.584Z" fill="#F07C33"/>
<mask id="mask2_126_18861" style="mask-type:luminance" maskUnits="userSpaceOnUse" x="414" y="211" width="40" height="92">
<path d="M453.108 295.58C451.275 297.963 450.3 300.475 448.474 302.857C440.359 299.363 429.169 288.527 420.094 282.224C412.362 276.853 415.625 268.594 415.625 268.58C415.943 267.136 427.386 224.541 428.216 222.548C430.382 217.401 433.991 210.622 439.391 211.95C455.447 215.863 432.353 272.059 432.353 272.059C433.291 272.94 446.596 288.245 453.108 295.58Z" fill="white"/>
</mask>
<g mask="url(#mask2_126_18861)">
<path opacity="0.3" d="M428.861 221.621C428.914 230.439 430.128 239.211 432.47 247.712L429.388 243.987C430.348 249.438 431.315 254.96 430.832 260.469C430.673 262.129 430.333 263.876 429.236 265.125C428.139 266.374 426.045 266.901 424.767 265.847C426.132 265.609 426.933 267.537 426.854 268.923C426.817 269.263 426.709 269.591 426.537 269.886C426.365 270.182 426.131 270.437 425.853 270.635C425.575 270.834 425.257 270.971 424.922 271.038C424.587 271.105 424.241 271.1 423.908 271.024C423.468 271.897 424.681 272.728 425.655 272.699C426.63 272.67 427.684 272.294 428.543 272.807C429.126 273.33 429.497 274.05 429.583 274.828C431.944 283.807 436.428 292.087 442.657 298.97C433.293 292.473 423.518 285.6 415.144 277.796C412.104 274.951 408.884 271.262 409.715 267.183C413.05 250.946 421.713 236.573 428.861 221.621Z" fill="black"/>
</g>
<path d="M453.104 295.584C451.271 297.967 450.296 300.479 448.47 302.861C440.355 299.367 429.165 288.531 420.09 282.228C412.358 276.857 415.621 268.598 415.621 268.583C415.939 267.14 427.382 224.545 428.212 222.552C430.378 217.405 433.987 210.626 439.388 211.954C455.444 215.867 432.349 272.063 432.349 272.063C433.287 272.944 446.593 288.249 453.104 295.584Z" stroke="#263238" stroke-width="0.721944" stroke-linecap="round" stroke-linejoin="round"/>
<path d="M478.999 227.608C486.37 234.827 492.145 247.62 491.207 257.93C489.929 271.899 491.07 263.539 493.178 277.422C495.935 295.586 496.325 317.129 496.325 317.129C476.833 322.305 452.936 318.999 441.927 308.682C441.537 290.367 449.803 282.209 442.649 265.366C438.317 255.258 431.184 243.873 429.827 232.943C428.831 224.908 427.921 218.678 432.419 214.469C434.438 212.662 437.038 211.638 439.747 211.581C464.004 210.541 478.999 227.608 478.999 227.608Z" fill="#F07C33"/>
<mask id="mask3_126_18861" style="mask-type:luminance" maskUnits="userSpaceOnUse" x="429" y="211" width="68" height="109">
<path d="M479.01 227.608C486.381 234.827 492.157 247.62 491.218 257.93C489.941 271.899 491.081 263.539 493.189 277.422C495.947 295.586 496.337 317.129 496.337 317.129C476.845 322.305 452.948 318.999 441.939 308.682C441.549 290.367 449.815 282.209 442.661 265.366C438.329 255.258 431.196 243.873 429.839 232.943C428.842 224.908 427.933 218.678 432.431 214.469C434.45 212.662 437.049 211.638 439.758 211.581C464.016 210.541 479.01 227.608 479.01 227.608Z" fill="white"/>
</mask>
<g mask="url(#mask3_126_18861)">
<path opacity="0.3" d="M455.918 232.253C459.277 239.031 461.968 246.12 463.953 253.42L449.514 245.024C454.262 252.466 460.459 258.877 467.736 263.874C467.066 264.125 466.464 264.528 465.976 265.052C465.489 265.575 465.13 266.205 464.928 266.892C464.721 268.128 464.775 269.395 465.087 270.61C466.714 278.895 470.443 286.624 475.916 293.055C471.72 291.2 467.954 288.496 464.856 285.113C459.86 279.793 454.871 274.458 450.568 268.559C449.998 267.78 448.475 266.827 447.529 267.036C448.89 273.783 451.77 280.131 455.949 285.599C460.128 291.068 465.497 295.514 471.649 298.599C469.404 299.841 466.112 300.541 463.867 299.285C461.621 298.029 459.882 296.073 458.185 294.152L450.229 285.135C452.027 296.852 459.752 308.165 470.667 312.786C474.011 314.193 476.919 316.465 479.092 319.37C465.968 321.572 452.381 316.828 441.934 308.62C441.479 299.235 445.255 290.535 445.544 278.298C445.731 271.122 439.862 258.264 435.603 250.446C431.892 243.645 429.784 235.444 428.982 227.741C428.766 225.625 428.123 220.615 432.39 214.392C433.632 212.638 443.111 206.14 455.918 232.253Z" fill="black"/>
</g>
<path d="M478.999 227.608C486.37 234.827 492.145 247.62 491.207 257.93C489.929 271.899 491.07 263.539 493.178 277.422C495.935 295.586 496.325 317.129 496.325 317.129C476.833 322.305 452.936 318.999 441.927 308.682C441.537 290.367 449.803 282.209 442.649 265.366C438.317 255.258 431.184 243.873 429.827 232.943C428.831 224.908 427.921 218.678 432.419 214.469C434.438 212.662 437.038 211.638 439.747 211.581C464.004 210.541 478.999 227.608 478.999 227.608Z" stroke="#263238" stroke-width="0.721944" stroke-linecap="round" stroke-linejoin="round"/>
<path d="M525.219 228.765L527.226 222.91C527.226 222.91 536.669 222.52 540.777 229.797L534.763 236.295C534.763 236.295 534.907 231.068 525.219 228.765Z" fill="white" stroke="#263238" stroke-width="0.721944" stroke-linecap="round" stroke-linejoin="round"/>
<path d="M459.844 238.207C459.844 238.207 462.183 254.213 477.553 269.72C485.993 278.239 493.183 277.372 493.183 277.372C493.183 277.372 472.586 264.681 459.844 238.207Z" fill="#263238"/>
<path d="M536.293 234.649C529.023 248.676 522.526 259.917 512.404 272.017C510.274 274.558 507.971 277.07 505.048 278.615C502.124 280.16 499.705 280.933 496.803 279.337C482.633 271.481 470.924 259.844 462.98 245.723C460.027 240.46 457.666 233.79 460.814 228.628C463.261 224.57 469.282 221.784 473.686 223.524C477.094 224.866 479.462 227.956 481.628 230.916C485.764 236.627 497.121 254.74 498.882 257.448C507.906 248.402 516.931 238.461 525.276 228.772C526.857 226.866 534.922 231.046 536.293 234.649Z" fill="#F07C33"/>
<mask id="mask4_126_18861" style="mask-type:luminance" maskUnits="userSpaceOnUse" x="459" y="223" width="78" height="58">
<path d="M536.289 234.653C529.019 248.68 522.522 259.921 512.4 272.02C510.27 274.562 507.967 277.074 505.044 278.619C502.12 280.164 499.701 280.936 496.799 279.341C482.629 271.485 470.92 259.848 462.976 245.727C460.023 240.464 457.662 233.794 460.81 228.632C463.258 224.574 469.279 221.788 473.682 223.527C477.09 224.87 479.458 227.96 481.624 230.92C485.76 236.631 497.117 254.744 498.878 257.452C507.903 248.406 516.927 238.465 525.272 228.776C526.854 226.87 534.918 231.05 536.289 234.653Z" fill="white"/>
</mask>
<g mask="url(#mask4_126_18861)">
<path opacity="0.3" d="M506.971 277.399C509.636 275.788 511.655 273.299 512.682 270.36C510.617 271.717 508.394 273.096 505.925 273.147C503.456 273.197 500.488 270.901 500.633 268.432C501.051 268.584 500.994 269.299 500.582 269.486C500.369 269.557 500.138 269.553 499.928 269.474C499.718 269.395 499.541 269.246 499.427 269.053C499.212 268.66 499.091 268.223 499.073 267.775C498.85 265.862 498.351 263.74 498.12 261.826C497.139 264.526 497.146 263.805 496.164 266.512C495.981 267.183 495.631 267.796 495.146 268.295C494.626 268.75 493.738 268.086 493.182 267.674C490.757 265.877 484.418 257.423 476.967 248.507C470.311 240.565 462.673 226.336 459.309 232.241C459.309 232.241 459.229 238.204 463.64 246.817C470.744 260.715 486.858 276.222 500.654 280.287C503.116 281.016 504.004 279.023 506.971 277.399Z" fill="black"/>
</g>
<path d="M536.293 234.649C529.023 248.676 522.526 259.917 512.404 272.017C510.274 274.558 507.971 277.07 505.048 278.615C502.124 280.16 499.705 280.933 496.803 279.337C482.633 271.481 470.924 259.844 462.98 245.723C460.027 240.46 457.666 233.79 460.814 228.628C463.261 224.57 469.282 221.784 473.686 223.524C477.094 224.866 479.462 227.956 481.628 230.916C485.764 236.627 497.121 254.74 498.882 257.448C507.906 248.402 516.931 238.461 525.276 228.772C526.857 226.866 534.922 231.046 536.293 234.649Z" stroke="#263238" stroke-width="0.721944" stroke-linecap="round" stroke-linejoin="round"/>
<path d="M444.744 173.704C443.453 176.924 443.29 180.486 444.282 183.811C442.932 189.521 445.003 191.752 446.787 191.954C446.459 192.919 446.253 193.92 446.173 194.936C446.121 195.377 446.163 195.824 446.298 196.248C446.432 196.671 446.655 197.061 446.953 197.391C447.261 197.711 447.671 197.914 448.113 197.964C448.554 198.014 448.999 197.908 449.371 197.665C449.245 198.57 449.245 199.489 449.371 200.394C449.43 200.824 449.581 201.237 449.814 201.603C450.047 201.969 450.357 202.281 450.721 202.516C451.095 202.737 451.535 202.82 451.964 202.75C452.393 202.68 452.783 202.462 453.068 202.134C451.385 205.881 455.356 207.491 455.695 207.13C455.306 207.166 454.974 206.747 454.851 206.321C454.078 203.7 455.825 202.625 455.775 200.091C455.703 196.647 452.62 197.311 452.764 198.055C452.88 197.658 453.486 190.749 450.245 191.348C449.689 191.449 452.23 185.941 449.039 185.146C448.483 185.002 447.761 185.464 447.927 186.02C452.894 161.048 466.452 166.159 466.452 166.159C462.294 161.698 449.075 161.474 444.744 173.704Z" fill="#263238"/>
<path d="M440.247 200.065C441.264 200.065 442.088 199.241 442.088 198.224C442.088 197.207 441.264 196.383 440.247 196.383C439.23 196.383 438.406 197.207 438.406 198.224C438.406 199.241 439.23 200.065 440.247 200.065Z" fill="#F07C33" stroke="#263238" stroke-width="0.721944" stroke-miterlimit="10"/>
<path d="M454.223 213.07C460.482 215.236 464.33 217.943 468.755 222.889" stroke="#263238" stroke-width="0.721944" stroke-linecap="round" stroke-linejoin="round"/>
<path d="M499.731 258.344C498.858 261.437 498.656 264.681 499.139 267.859L499.731 258.344Z" fill="#F07C33"/>
<path d="M499.731 258.344C498.858 261.437 498.656 264.681 499.139 267.859" stroke="#263238" stroke-width="0.721944" stroke-linecap="round" stroke-linejoin="round"/>
<path d="M500.683 264.559C500.514 267.075 501.054 269.589 502.242 271.814" stroke="#263238" stroke-width="0.721944" stroke-linecap="round" stroke-linejoin="round"/>
<path d="M438.965 257.332C443.63 265.021 447.073 273.386 449.173 282.131" stroke="#263238" stroke-width="0.721944" stroke-linecap="round" stroke-linejoin="round"/>
<path d="M467.122 258.041C464.87 256.918 462.699 255.64 460.625 254.215" stroke="#263238" stroke-width="0.721944" stroke-linecap="round" stroke-linejoin="round"/>
<path d="M443.48 235.105C446.906 241.454 451.553 247.063 457.154 251.609" stroke="#263238" stroke-width="0.721944" stroke-linecap="round" stroke-linejoin="round"/>
<path d="M482.262 278.551L486.861 318.871" stroke="#263238" stroke-width="0.721944" stroke-linecap="round" stroke-linejoin="round"/>
<path d="M481.316 270.289L481.93 275.668" stroke="#263238" stroke-width="0.721944" stroke-linecap="round" stroke-linejoin="round"/>
<path d="M430.863 272.328C426.872 273.348 422.65 272.947 418.922 271.195C420.11 270.637 421.402 270.332 422.714 270.3C424.026 270.267 425.331 270.508 426.546 271.007" stroke="#263238" stroke-width="0.721944" stroke-linecap="round" stroke-linejoin="round"/>
<path d="M421.992 263.434C422.875 264.863 424.064 266.079 425.474 266.994C426.883 267.909 428.478 268.5 430.143 268.725" stroke="#263238" stroke-width="0.721944" stroke-linecap="round" stroke-linejoin="round"/>
<path d="M428.133 241.566C430.626 244.907 433.119 248.244 435.612 251.58" stroke="#263238" stroke-width="0.721944" stroke-linecap="round" stroke-linejoin="round"/>
<path d="M447.852 263.434C454.365 275.664 463.845 286.062 475.423 293.676" stroke="#263238" stroke-width="0.721944" stroke-linecap="round" stroke-linejoin="round"/>
<path d="M443.902 254.828C444.581 256.566 445.317 258.277 446.111 259.961" stroke="#263238" stroke-width="0.721944" stroke-linecap="round" stroke-linejoin="round"/>
<path d="M478.891 246.779L483.172 241.66L478.891 246.779Z" fill="#F07C33"/>
<path d="M478.891 246.779L483.172 241.66" stroke="#263238" stroke-width="0.721944" stroke-linecap="round" stroke-linejoin="round"/>
<path d="M473.543 246.991C476.747 245.946 479.442 243.735 481.095 240.797L473.543 246.991Z" fill="#F07C33"/>
<path d="M473.543 246.991C476.747 245.946 479.442 243.735 481.095 240.797" stroke="#263238" stroke-width="0.721944" stroke-linecap="round" stroke-linejoin="round"/>
<path d="M551.038 216.044C549.485 218.349 540.847 230.123 540.847 230.123L527.676 222.937C527.762 222.068 529.297 216.892 529.323 215.686C529.351 214.643 529.194 213.604 528.861 212.616C528.503 211.37 527.976 210.18 527.294 209.077C526.563 208.154 527.354 206.794 528.396 207.091C529.437 207.388 531.513 209.943 532.379 213.675C533.244 217.406 545.756 205.305 548.344 206.888L551.038 216.044Z" fill="#FFBE9D"/>
<path d="M534.407 197.829C534.253 197.816 534.1 197.863 533.98 197.96C533.86 198.057 533.782 198.196 533.763 198.349L529.975 225.239C529.939 225.48 529.998 225.726 530.139 225.926C530.28 226.125 530.492 226.262 530.731 226.31L543.612 229.008C543.739 229.033 543.869 229.033 543.996 229.008C544.122 228.982 544.243 228.931 544.349 228.858C544.456 228.784 544.546 228.69 544.616 228.581C544.685 228.472 544.732 228.351 544.753 228.223L549.488 200.156C549.509 200.026 549.503 199.893 549.471 199.766C549.439 199.638 549.381 199.518 549.301 199.414C549.221 199.31 549.12 199.223 549.005 199.159C548.891 199.095 548.764 199.056 548.633 199.043L534.407 197.829Z" fill="#263238"/>
<path d="M534.533 199.677L530.921 223.716L544.355 226.246L547.852 200.826L534.533 199.677Z" fill="#F5F5F5"/>
<path d="M535.731 203.699L533.398 219.839L543.149 221.306L545.661 204.771L535.731 203.699Z" fill="#EBEBEB"/>
<path d="M541.752 217.589L535.982 216.677C535.556 216.609 535.156 216.9 535.089 217.326L535.047 217.59C534.98 218.016 535.271 218.416 535.697 218.484L541.467 219.396C541.893 219.464 542.293 219.173 542.36 218.747L542.402 218.482C542.469 218.056 542.178 217.656 541.752 217.589Z" fill="#F07C33"/>
<path d="M544.138 206.81L536.969 205.938L536.842 206.978L544.011 207.85L544.138 206.81Z" fill="#455A64"/>
<path d="M544.052 210.347L536.129 209.383L535.88 211.433L543.803 212.396L544.052 210.347Z" fill="#E0E0E0"/>
<path d="M543.579 213.64L535.656 212.676L535.407 214.726L543.33 215.689L543.579 213.64Z" fill="#E0E0E0"/>
<path d="M548.395 206.872C546.788 207.55 544.791 208.213 543.186 208.901C542.717 209.061 542.292 209.327 541.943 209.678C541.785 209.868 541.697 210.107 541.695 210.354C541.693 210.602 541.777 210.842 541.933 211.035C542.306 211.439 542.982 211.319 543.52 211.176L547.18 210.153C545.622 210.607 544.126 211.249 542.723 212.064C542.093 212.46 541.438 213.115 541.594 213.848C541.701 214.156 541.912 214.417 542.19 214.586C542.468 214.756 542.797 214.823 543.12 214.776C543.773 214.66 544.419 214.502 545.053 214.305C545.053 214.305 547.579 213.689 547.774 214.038C546.204 214.421 544.194 215.252 542.691 215.772C542.254 215.879 542.208 216.551 542.206 216.992C542.2 217.214 542.269 217.431 542.4 217.611C542.531 217.79 542.718 217.92 542.932 217.982C543.149 218 543.367 217.97 543.571 217.893L549.637 216.216" fill="#FFBE9D"/>
<defs>
<linearGradient id="paint0_linear_126_18861" x1="105.207" y1="248.301" x2="56.5229" y2="338.809" gradientUnits="userSpaceOnUse">
<stop stop-color="#E05905"/>
<stop offset="0.19" stop-color="#D36018"/>
<stop offset="1" stop-color="#5A2E13"/>
</linearGradient>
<linearGradient id="paint1_linear_126_18861" x1="142.487" y1="288.081" x2="103.876" y2="371.763" gradientUnits="userSpaceOnUse">
<stop stop-color="#E05905"/>
<stop offset="0.19" stop-color="#D36018"/>
<stop offset="1" stop-color="#5A2E13"/>
</linearGradient>
<linearGradient id="paint2_linear_126_18861" x1="95.2468" y1="291.234" x2="66.1" y2="371.856" gradientUnits="userSpaceOnUse">
<stop stop-color="#E05905"/>
<stop offset="0.19" stop-color="#D36018"/>
<stop offset="1" stop-color="#5A2E13"/>
</linearGradient>
</defs>
</svg>
