<svg width="284" height="319" viewBox="0 0 284 319" fill="none" xmlns="http://www.w3.org/2000/svg">
<path d="M10.562 315.208C10.0593 315.208 9.66933 315.069 9.392 314.792C9.132 314.515 9.002 314.116 9.002 313.596V298.126C9.002 297.589 9.132 297.181 9.392 296.904C9.66933 296.609 10.0247 296.462 10.458 296.462C10.8567 296.462 11.1513 296.54 11.342 296.696C11.55 296.835 11.7927 297.077 12.07 297.424L22.028 310.346H21.352V298.048C21.352 297.545 21.482 297.155 21.742 296.878C22.0193 296.601 22.4093 296.462 22.912 296.462C23.4147 296.462 23.796 296.601 24.056 296.878C24.316 297.155 24.446 297.545 24.446 298.048V313.648C24.446 314.133 24.3247 314.515 24.082 314.792C23.8393 315.069 23.51 315.208 23.094 315.208C22.6953 315.208 22.3747 315.13 22.132 314.974C21.9067 314.818 21.6553 314.567 21.378 314.22L11.446 301.298H12.096V313.596C12.096 314.116 11.966 314.515 11.706 314.792C11.446 315.069 11.0647 315.208 10.562 315.208ZM36.6412 315.26C34.8732 315.26 33.3219 314.87 31.9872 314.09C30.6699 313.31 29.6472 312.218 28.9192 310.814C28.1912 309.393 27.8272 307.729 27.8272 305.822C27.8272 304.383 28.0352 303.092 28.4512 301.948C28.8672 300.787 29.4566 299.799 30.2192 298.984C30.9992 298.152 31.9266 297.519 33.0012 297.086C34.0932 296.635 35.3066 296.41 36.6412 296.41C38.4266 296.41 39.9779 296.8 41.2952 297.58C42.6126 298.343 43.6352 299.426 44.3632 300.83C45.0912 302.234 45.4552 303.889 45.4552 305.796C45.4552 307.235 45.2472 308.535 44.8312 309.696C44.4152 310.857 43.8172 311.854 43.0372 312.686C42.2746 313.518 41.3472 314.159 40.2552 314.61C39.1806 315.043 37.9759 315.26 36.6412 315.26ZM36.6412 312.4C37.7679 312.4 38.7212 312.14 39.5012 311.62C40.2986 311.1 40.9052 310.346 41.3212 309.358C41.7546 308.37 41.9712 307.191 41.9712 305.822C41.9712 303.742 41.5032 302.13 40.5672 300.986C39.6486 299.842 38.3399 299.27 36.6412 299.27C35.5319 299.27 34.5786 299.53 33.7812 300.05C32.9839 300.553 32.3686 301.298 31.9352 302.286C31.5192 303.257 31.3112 304.435 31.3112 305.822C31.3112 307.885 31.7792 309.497 32.7152 310.658C33.6512 311.819 34.9599 312.4 36.6412 312.4ZM57.6139 315C57.0419 315 56.5999 314.853 56.2879 314.558C55.9932 314.246 55.8459 313.804 55.8459 313.232V298.438C55.8459 297.866 55.9932 297.433 56.2879 297.138C56.5999 296.826 57.0419 296.67 57.6139 296.67H62.6579C65.7259 296.67 68.0919 297.459 69.7559 299.036C71.4372 300.613 72.2779 302.875 72.2779 305.822C72.2779 307.295 72.0612 308.604 71.6279 309.748C71.2119 310.875 70.5879 311.828 69.7559 312.608C68.9412 313.388 67.9359 313.986 66.7399 314.402C65.5612 314.801 64.2005 315 62.6579 315H57.6139ZM59.1739 312.244H62.4499C63.5245 312.244 64.4519 312.114 65.2319 311.854C66.0292 311.577 66.6879 311.178 67.2079 310.658C67.7452 310.121 68.1439 309.453 68.4039 308.656C68.6639 307.841 68.7939 306.897 68.7939 305.822C68.7939 303.673 68.2652 302.069 67.2079 301.012C66.1505 299.955 64.5645 299.426 62.4499 299.426H59.1739V312.244ZM75.4257 315.208C75.0097 315.208 74.6717 315.113 74.4117 314.922C74.169 314.731 74.0217 314.48 73.9697 314.168C73.9177 313.839 73.9784 313.475 74.1517 313.076L81.0157 297.866C81.241 297.363 81.5097 297.008 81.8217 296.8C82.151 296.575 82.5237 296.462 82.9397 296.462C83.3384 296.462 83.6937 296.575 84.0057 296.8C84.335 297.008 84.6124 297.363 84.8377 297.866L91.7277 313.076C91.9184 313.475 91.9877 313.839 91.9357 314.168C91.8837 314.497 91.7364 314.757 91.4937 314.948C91.251 315.121 90.9304 315.208 90.5317 315.208C90.0464 315.208 89.665 315.095 89.3877 314.87C89.1277 314.627 88.8937 314.263 88.6857 313.778L86.9957 309.852L88.3997 310.762H77.4277L78.8317 309.852L77.1677 313.778C76.9424 314.281 76.7084 314.645 76.4657 314.87C76.223 315.095 75.8764 315.208 75.4257 315.208ZM82.8877 300.284L79.2477 308.942L78.5717 308.11H87.2557L86.6057 308.942L82.9397 300.284H82.8877ZM98.6181 315.208C98.0808 315.208 97.6648 315.061 97.3701 314.766C97.0928 314.454 96.9541 314.029 96.9541 313.492V299.452H91.8841C91.4334 299.452 91.0781 299.331 90.8181 299.088C90.5754 298.828 90.4541 298.481 90.4541 298.048C90.4541 297.597 90.5754 297.259 90.8181 297.034C91.0781 296.791 91.4334 296.67 91.8841 296.67H105.352C105.803 296.67 106.149 296.791 106.392 297.034C106.652 297.259 106.782 297.597 106.782 298.048C106.782 298.481 106.652 298.828 106.392 299.088C106.149 299.331 105.803 299.452 105.352 299.452H100.282V313.492C100.282 314.029 100.143 314.454 99.8661 314.766C99.5888 315.061 99.1728 315.208 98.6181 315.208ZM106.807 315.208C106.391 315.208 106.053 315.113 105.793 314.922C105.551 314.731 105.403 314.48 105.351 314.168C105.299 313.839 105.36 313.475 105.533 313.076L112.397 297.866C112.623 297.363 112.891 297.008 113.203 296.8C113.533 296.575 113.905 296.462 114.321 296.462C114.72 296.462 115.075 296.575 115.387 296.8C115.717 297.008 115.994 297.363 116.219 297.866L123.109 313.076C123.3 313.475 123.369 313.839 123.317 314.168C123.265 314.497 123.118 314.757 122.875 314.948C122.633 315.121 122.312 315.208 121.913 315.208C121.428 315.208 121.047 315.095 120.769 314.87C120.509 314.627 120.275 314.263 120.067 313.778L118.377 309.852L119.781 310.762H108.809L110.213 309.852L108.549 313.778C108.324 314.281 108.09 314.645 107.847 314.87C107.605 315.095 107.258 315.208 106.807 315.208ZM114.269 300.284L110.629 308.942L109.953 308.11H118.637L117.987 308.942L114.321 300.284H114.269ZM133.162 315.208C132.746 315.208 132.408 315.113 132.148 314.922C131.905 314.731 131.758 314.48 131.706 314.168C131.654 313.839 131.714 313.475 131.888 313.076L138.752 297.866C138.977 297.363 139.246 297.008 139.558 296.8C139.887 296.575 140.26 296.462 140.676 296.462C141.074 296.462 141.43 296.575 141.742 296.8C142.071 297.008 142.348 297.363 142.574 297.866L149.464 313.076C149.654 313.475 149.724 313.839 149.672 314.168C149.62 314.497 149.472 314.757 149.23 314.948C148.987 315.121 148.666 315.208 148.268 315.208C147.782 315.208 147.401 315.095 147.124 314.87C146.864 314.627 146.63 314.263 146.422 313.778L144.732 309.852L146.136 310.762H135.164L136.568 309.852L134.904 313.778C134.678 314.281 134.444 314.645 134.202 314.87C133.959 315.095 133.612 315.208 133.162 315.208ZM140.624 300.284L136.984 308.942L136.308 308.11H144.992L144.342 308.942L140.676 300.284H140.624ZM158.032 315.208C157.564 315.208 157.174 315.104 156.862 314.896C156.568 314.671 156.325 314.341 156.134 313.908L149.348 298.672C149.158 298.239 149.106 297.857 149.192 297.528C149.279 297.199 149.461 296.939 149.738 296.748C150.016 296.557 150.345 296.462 150.726 296.462C151.229 296.462 151.602 296.575 151.844 296.8C152.104 297.008 152.321 297.329 152.494 297.762L158.656 312.036H157.538L163.674 297.736C163.865 297.32 164.09 297.008 164.35 296.8C164.61 296.575 164.974 296.462 165.442 296.462C165.824 296.462 166.136 296.557 166.378 296.748C166.638 296.939 166.803 297.199 166.872 297.528C166.942 297.857 166.881 298.239 166.69 298.672L159.904 313.908C159.714 314.341 159.471 314.671 159.176 314.896C158.899 315.104 158.518 315.208 158.032 315.208ZM167.895 315.208C167.479 315.208 167.141 315.113 166.881 314.922C166.638 314.731 166.491 314.48 166.439 314.168C166.387 313.839 166.447 313.475 166.621 313.076L173.485 297.866C173.71 297.363 173.979 297.008 174.291 296.8C174.62 296.575 174.993 296.462 175.409 296.462C175.807 296.462 176.163 296.575 176.475 296.8C176.804 297.008 177.081 297.363 177.307 297.866L184.197 313.076C184.387 313.475 184.457 313.839 184.405 314.168C184.353 314.497 184.205 314.757 183.963 314.948C183.72 315.121 183.399 315.208 183.001 315.208C182.515 315.208 182.134 315.095 181.857 314.87C181.597 314.627 181.363 314.263 181.155 313.778L179.465 309.852L180.869 310.762H169.897L171.301 309.852L169.637 313.778C169.411 314.281 169.177 314.645 168.935 314.87C168.692 315.095 168.345 315.208 167.895 315.208ZM175.357 300.284L171.717 308.942L171.041 308.11H179.725L179.075 308.942L175.409 300.284H175.357ZM188.698 315.208C188.161 315.208 187.745 315.061 187.45 314.766C187.173 314.454 187.034 314.029 187.034 313.492V298.178C187.034 297.623 187.173 297.199 187.45 296.904C187.745 296.609 188.161 296.462 188.698 296.462C189.236 296.462 189.643 296.609 189.92 296.904C190.215 297.199 190.362 297.623 190.362 298.178V313.492C190.362 314.029 190.224 314.454 189.946 314.766C189.669 315.061 189.253 315.208 188.698 315.208ZM196.036 315C195.499 315 195.083 314.853 194.788 314.558C194.494 314.246 194.346 313.821 194.346 313.284V298.282C194.346 297.727 194.485 297.311 194.762 297.034C195.057 296.739 195.473 296.592 196.01 296.592C196.548 296.592 196.955 296.739 197.232 297.034C197.527 297.311 197.674 297.727 197.674 298.282V312.166H205.214C205.682 312.166 206.038 312.287 206.28 312.53C206.54 312.773 206.67 313.119 206.67 313.57C206.67 314.021 206.54 314.376 206.28 314.636C206.038 314.879 205.682 315 205.214 315H196.036ZM208.696 315.208C208.28 315.208 207.942 315.113 207.682 314.922C207.439 314.731 207.292 314.48 207.24 314.168C207.188 313.839 207.248 313.475 207.422 313.076L214.286 297.866C214.511 297.363 214.78 297.008 215.092 296.8C215.421 296.575 215.794 296.462 216.21 296.462C216.608 296.462 216.964 296.575 217.276 296.8C217.605 297.008 217.882 297.363 218.108 297.866L224.998 313.076C225.188 313.475 225.258 313.839 225.206 314.168C225.154 314.497 225.006 314.757 224.764 314.948C224.521 315.121 224.2 315.208 223.802 315.208C223.316 315.208 222.935 315.095 222.658 314.87C222.398 314.627 222.164 314.263 221.956 313.778L220.266 309.852L221.67 310.762H210.698L212.102 309.852L210.438 313.778C210.212 314.281 209.978 314.645 209.736 314.87C209.493 315.095 209.146 315.208 208.696 315.208ZM216.158 300.284L212.518 308.942L211.842 308.11H220.526L219.876 308.942L216.21 300.284H216.158ZM229.603 315C229.031 315 228.589 314.853 228.277 314.558C227.983 314.246 227.835 313.804 227.835 313.232V298.438C227.835 297.866 227.983 297.433 228.277 297.138C228.589 296.826 229.031 296.67 229.603 296.67H235.843C237.126 296.67 238.218 296.861 239.119 297.242C240.021 297.623 240.705 298.169 241.173 298.88C241.659 299.591 241.901 300.44 241.901 301.428C241.901 302.537 241.581 303.473 240.939 304.236C240.298 304.999 239.423 305.51 238.313 305.77V305.38C239.596 305.571 240.593 306.056 241.303 306.836C242.014 307.616 242.369 308.63 242.369 309.878C242.369 311.507 241.815 312.773 240.705 313.674C239.613 314.558 238.088 315 236.129 315H229.603ZM231.033 312.478H235.713C236.892 312.478 237.759 312.253 238.313 311.802C238.868 311.334 239.145 310.641 239.145 309.722C239.145 308.786 238.868 308.093 238.313 307.642C237.759 307.191 236.892 306.966 235.713 306.966H231.033V312.478ZM231.033 304.444H235.271C236.415 304.444 237.265 304.227 237.819 303.794C238.391 303.343 238.677 302.685 238.677 301.818C238.677 300.951 238.391 300.301 237.819 299.868C237.265 299.417 236.415 299.192 235.271 299.192H231.033V304.444ZM247.4 315C246.862 315 246.446 314.853 246.152 314.558C245.857 314.246 245.71 313.821 245.71 313.284V298.282C245.71 297.727 245.848 297.311 246.126 297.034C246.42 296.739 246.836 296.592 247.374 296.592C247.911 296.592 248.318 296.739 248.596 297.034C248.89 297.311 249.038 297.727 249.038 298.282V312.166H256.578C257.046 312.166 257.401 312.287 257.644 312.53C257.904 312.773 258.034 313.119 258.034 313.57C258.034 314.021 257.904 314.376 257.644 314.636C257.401 314.879 257.046 315 256.578 315H247.4ZM262.051 315C261.479 315 261.037 314.853 260.725 314.558C260.431 314.246 260.283 313.804 260.283 313.232V298.438C260.283 297.866 260.431 297.433 260.725 297.138C261.037 296.826 261.479 296.67 262.051 296.67H271.333C271.767 296.67 272.096 296.783 272.321 297.008C272.564 297.233 272.685 297.554 272.685 297.97C272.685 298.403 272.564 298.741 272.321 298.984C272.096 299.209 271.767 299.322 271.333 299.322H263.481V304.366H270.761C271.212 304.366 271.55 304.479 271.775 304.704C272.001 304.929 272.113 305.259 272.113 305.692C272.113 306.125 272.001 306.455 271.775 306.68C271.55 306.905 271.212 307.018 270.761 307.018H263.481V312.348H271.333C271.767 312.348 272.096 312.461 272.321 312.686C272.564 312.911 272.685 313.241 272.685 313.674C272.685 314.107 272.564 314.437 272.321 314.662C272.096 314.887 271.767 315 271.333 315H262.051Z" fill="#1C1F21"/>
<path fill-rule="evenodd" clip-rule="evenodd" d="M18.9255 121.798C9.74707 130.837 9.6337 145.605 18.6723 154.783C27.7108 163.962 42.4786 164.075 51.657 155.036L81.0141 126.127L41.1581 171.035C33.7598 179.371 34.0876 192.014 41.9081 199.956C50.1161 208.291 63.5266 208.394 71.8615 200.186L99.208 173.256L67.1233 210.437C60.2489 218.403 60.6407 230.312 68.0237 237.809C75.852 245.759 88.6424 245.857 96.5919 238.029L113.448 221.429C112.41 229.157 114.835 237.277 120.716 243.25C130.784 253.473 147.3 253.667 157.524 243.599L190.738 210.891L180.886 225.722C176.259 232.688 177.148 241.944 183.015 247.902C189.864 254.857 201.054 254.943 208.009 248.094L276.513 180.634C283.355 173.896 283.44 162.886 276.701 156.043C270.766 150.016 261.355 149.135 254.403 153.954L234.642 167.656L265.356 137.41C275.579 127.342 275.639 110.825 265.571 100.601C259.69 94.629 251.608 92.0794 243.865 92.9989L261.869 75.2692C269.828 67.432 269.926 54.6272 262.089 46.6688C254.71 39.176 242.821 38.5882 234.739 45.3165L198.436 75.5399L235.754 38.7904C244.092 30.5796 244.195 17.1643 235.984 8.8264C228.165 0.886338 215.532 0.359917 207.079 7.62194L162.182 46.1951L168.531 39.9434C177.709 30.9049 177.823 16.1371 168.784 6.95867C159.745 -2.21975 144.978 -2.33312 135.799 6.70545L80.948 60.7209L90.3316 48.689C96.9989 40.14 96.2963 27.9733 88.6893 20.2486C80.3187 11.7485 66.6423 11.6435 58.1421 20.0141L6.3953 70.9725C-2.04004 79.2794 -2.14423 92.8516 6.1626 101.287C13.8044 109.047 26.0504 109.843 34.6329 103.139L50.3147 90.8875L18.9255 121.798Z" fill="#E6E6E6"/>
<g filter="url(#filter0_d_157_1883)">
<path d="M154.165 42.3521L222.582 160.853C226.12 166.982 221.697 174.643 214.619 174.643H77.787C70.7095 174.643 66.2861 166.982 69.8249 160.853L138.241 42.3521C141.78 36.2229 150.627 36.2229 154.165 42.3521Z" stroke="#313131" stroke-width="3.2449" shape-rendering="crispEdges"/>
</g>
<g filter="url(#filter1_d_157_1883)">
<path d="M141.285 56.596C143.471 52.8103 148.935 52.8103 151.121 56.596L208.723 156.366C210.909 160.152 208.177 164.884 203.805 164.884H88.6003C84.2289 164.884 81.4968 160.152 83.6825 156.366L141.285 56.596Z" fill="white"/>
<path d="M149.715 57.4072L207.318 157.178C208.879 159.882 206.928 163.262 203.805 163.262H88.6003C85.4779 163.262 83.5264 159.882 85.0876 157.178L142.69 57.4072C144.251 54.7031 148.154 54.7031 149.715 57.4072Z" stroke="#313131" stroke-width="3.2449"/>
</g>
<g filter="url(#filter2_d_157_1883)">
<ellipse cx="145.866" cy="140.659" rx="9.25265" ry="9.25265" fill="#F56206"/>
<path d="M154.515 140.659C154.515 145.436 150.643 149.308 145.866 149.308C141.089 149.308 137.217 145.436 137.217 140.659C137.217 135.882 141.089 132.01 145.866 132.01C150.643 132.01 154.515 135.882 154.515 140.659Z" stroke="#313131" stroke-width="1.20736"/>
</g>
<g filter="url(#filter3_d_157_1883)">
<path d="M137.826 91.2273C137.589 86.6563 141.232 82.8203 145.809 82.8203V82.8203C150.429 82.8203 154.087 86.7249 153.786 91.3348L151.699 123.285C151.489 126.503 148.818 129.005 145.593 129.005V129.005C142.336 129.005 139.65 126.455 139.482 123.202L137.826 91.2273Z" fill="#F56206"/>
<path d="M153.183 91.2955L151.097 123.245C150.907 126.146 148.5 128.402 145.593 128.402C142.658 128.402 140.236 126.103 140.085 123.171L138.429 91.1961C138.21 86.9703 141.577 83.424 145.809 83.424C150.08 83.424 153.461 87.0337 153.183 91.2955Z" stroke="#313131" stroke-width="1.20736"/>
</g>
<path d="M70.3477 220.953H222.78" stroke="#313131" stroke-width="2" stroke-linecap="round"/>
<path d="M228.395 220.953H236.383" stroke="#313131" stroke-width="2" stroke-linecap="round"/>
<path d="M207.664 213.18H215.221" stroke="#313131" stroke-width="2" stroke-linecap="round"/>
<path d="M201.836 213.398H91.2891" stroke="#313131" stroke-width="2" stroke-linecap="round"/>
<path d="M85.6777 213.18H78.1211" stroke="#313131" stroke-width="2" stroke-linecap="round"/>
<path d="M64.5183 220.953H56.0977" stroke="#313131" stroke-width="2" stroke-linecap="round"/>
<circle cx="244.988" cy="169.562" r="4.46065" fill="#F6A76E"/>
<circle cx="198.492" cy="8.54619" r="6.61259" fill="#F6A76E"/>
<circle cx="37.2332" cy="134.417" r="7.83479" fill="#F6A76E"/>
<path d="M280.191 175.125C280.193 175.126 280.196 175.127 280.198 175.128C279.076 175.122 277.663 175.271 276.623 175.938C275.558 176.621 274.603 178.034 273.928 179.229C273.73 179.579 273.553 179.916 273.402 180.217C273.396 179.884 273.38 179.509 273.349 179.113C273.24 177.751 272.94 176.066 272.128 174.989C271.476 174.123 270.339 173.453 269.345 172.988C270.439 173.008 271.755 172.873 272.712 172.246C273.229 171.907 273.72 171.373 274.162 170.782C274.607 170.188 275.015 169.519 275.36 168.895C275.607 168.447 275.824 168.02 275.999 167.656C276.027 168.027 276.068 168.46 276.126 168.92C276.211 169.596 276.334 170.335 276.514 171.027C276.693 171.714 276.932 172.372 277.256 172.873C277.912 173.886 279.156 174.635 280.191 175.125Z" stroke="#F56206" stroke-width="0.585896"/>
<path d="M21.5858 193.442C21.588 193.443 21.5903 193.444 21.5925 193.445C20.4702 193.438 19.0571 193.587 18.0178 194.254C16.9521 194.938 15.9977 196.351 15.3225 197.545C15.1244 197.896 14.9476 198.232 14.7964 198.534C14.7902 198.201 14.7746 197.826 14.7431 197.43C14.6349 196.068 14.3348 194.383 13.5226 193.305C12.8704 192.44 11.7339 191.769 10.7392 191.304C11.8338 191.325 13.1497 191.189 14.1062 190.562C14.6231 190.224 15.1147 189.689 15.5569 189.098C16.0017 188.504 16.4094 187.836 16.7542 187.212C17.0017 186.764 17.2181 186.336 17.3939 185.972C17.4219 186.343 17.4623 186.776 17.5202 187.236C17.6052 187.912 17.7287 188.652 17.9084 189.343C18.0872 190.03 18.3261 190.689 18.6506 191.19C19.3065 192.202 20.551 192.952 21.5858 193.442Z" stroke="#F56206" stroke-width="0.585896"/>
<path d="M72.2616 10.262C72.2638 10.2631 72.2661 10.2641 72.2683 10.2652C71.1459 10.2587 69.7329 10.4076 68.6936 11.0743C67.6279 11.758 66.6734 13.1712 65.9983 14.3656C65.8001 14.7161 65.6234 15.0527 65.4722 15.3541C65.4659 15.021 65.4503 14.6462 65.4189 14.2501C65.3107 12.8879 65.0106 11.2029 64.1984 10.1254C63.5462 9.2602 62.4097 8.58949 61.415 8.12464C62.5096 8.14496 63.8254 8.0097 64.782 7.38268C65.2989 7.04387 65.7905 6.50941 66.2327 5.91875C66.6775 5.32461 67.0851 4.65603 67.43 4.03193C67.6775 3.58396 67.8939 3.15661 68.0697 2.79272C68.0977 3.16349 68.1381 3.59622 68.1959 4.05634C68.281 4.73237 68.4045 5.4721 68.5842 6.16331C68.7629 6.85074 69.0019 7.50896 69.3264 8.00992C69.9823 9.02235 71.2268 9.77219 72.2616 10.262Z" stroke="#F56206" stroke-width="0.585896"/>
<path d="M15.7694 56.93C15.7716 56.9311 15.7739 56.9321 15.7761 56.9332C14.6538 56.9266 13.2407 57.0756 12.2014 57.7423C11.1357 58.426 10.1813 59.8391 9.50607 61.0336C9.30795 61.384 9.13119 61.7207 8.98002 62.0221C8.97375 61.689 8.95815 61.3142 8.92669 60.9181C8.81849 59.5559 8.51841 57.8708 7.70618 56.7933C7.05401 55.9282 5.91752 55.2575 4.92281 54.7926C6.01743 54.8129 7.33326 54.6777 8.2898 54.0507C8.80668 53.7118 9.29831 53.1774 9.7405 52.5867C10.1853 51.9926 10.593 51.324 10.9378 50.6999C11.1853 50.2519 11.4017 49.8246 11.5775 49.4607C11.6055 49.8315 11.6459 50.2642 11.7037 50.7243C11.7888 51.4003 11.9123 52.1401 12.092 52.8313C12.2707 53.5187 12.5097 54.1769 12.8342 54.6779C13.4901 55.6903 14.7346 56.4402 15.7694 56.93Z" stroke="#F56206" stroke-width="0.585896"/>
<path d="M152.461 245.117C152.463 245.119 152.465 245.12 152.468 245.121C151.345 245.114 149.932 245.263 148.893 245.93C147.827 246.614 146.873 248.027 146.197 249.221C145.999 249.572 145.823 249.908 145.671 250.21C145.665 249.876 145.65 249.502 145.618 249.106C145.51 247.743 145.21 246.058 144.398 244.981C143.745 244.116 142.609 243.445 141.614 242.98C142.709 243 144.025 242.865 144.981 242.238C145.498 241.899 145.99 241.365 146.432 240.774C146.877 240.18 147.284 239.511 147.629 238.887C147.877 238.439 148.093 238.012 148.269 237.648C148.297 238.019 148.337 238.452 148.395 238.912C148.48 239.588 148.604 240.328 148.783 241.019C148.962 241.706 149.201 242.364 149.526 242.865C150.181 243.878 151.426 244.628 152.461 245.117Z" stroke="#F56206" stroke-width="0.585896"/>
<path d="M218.067 46.6653C218.067 48.2335 216.796 49.5047 215.228 49.5047C213.66 49.5047 212.388 48.2335 212.388 46.6653C212.388 45.0972 213.66 43.8259 215.228 43.8259C216.796 43.8259 218.067 45.0972 218.067 46.6653Z" stroke="#F56206" stroke-width="0.831544"/>
<path d="M51.1609 82.388C51.1609 83.9561 49.8897 85.2273 48.3216 85.2273C46.7534 85.2273 45.4822 83.9561 45.4822 82.388C45.4822 80.8198 46.7534 79.5486 48.3216 79.5486C49.8897 79.5486 51.1609 80.8198 51.1609 82.388Z" stroke="#F56206" stroke-width="0.831544"/>
<defs>
<filter id="filter0_d_157_1883" x="66.9531" y="36.1328" width="161.339" height="142.026" filterUnits="userSpaceOnUse" color-interpolation-filters="sRGB">
<feFlood flood-opacity="0" result="BackgroundImageFix"/>
<feColorMatrix in="SourceAlpha" type="matrix" values="0 0 0 0 0 0 0 0 0 0 0 0 0 0 0 0 0 0 127 0" result="hardAlpha"/>
<feOffset dx="1.89286" dy="0.946429"/>
<feGaussianBlur stdDeviation="0.473214"/>
<feComposite in2="hardAlpha" operator="out"/>
<feColorMatrix type="matrix" values="0 0 0 0 0 0 0 0 0 0 0 0 0 0 0 0 0 0 0.25 0"/>
<feBlend mode="normal" in2="BackgroundImageFix" result="effect1_dropShadow_157_1883"/>
<feBlend mode="normal" in="SourceGraphic" in2="effect1_dropShadow_157_1883" result="shape"/>
</filter>
<filter id="filter1_d_157_1883" x="82.9141" y="53.7578" width="129.417" height="113.018" filterUnits="userSpaceOnUse" color-interpolation-filters="sRGB">
<feFlood flood-opacity="0" result="BackgroundImageFix"/>
<feColorMatrix in="SourceAlpha" type="matrix" values="0 0 0 0 0 0 0 0 0 0 0 0 0 0 0 0 0 0 127 0" result="hardAlpha"/>
<feOffset dx="1.89286" dy="0.946429"/>
<feGaussianBlur stdDeviation="0.473214"/>
<feComposite in2="hardAlpha" operator="out"/>
<feColorMatrix type="matrix" values="0 0 0 0 0 0 0 0 0 0 0 0 0 0 0 0 0 0 0.25 0"/>
<feBlend mode="normal" in2="BackgroundImageFix" result="effect1_dropShadow_157_1883"/>
<feBlend mode="normal" in="SourceGraphic" in2="effect1_dropShadow_157_1883" result="shape"/>
</filter>
<filter id="filter2_d_157_1883" x="136.613" y="131.406" width="20.3149" height="19.7113" filterUnits="userSpaceOnUse" color-interpolation-filters="sRGB">
<feFlood flood-opacity="0" result="BackgroundImageFix"/>
<feColorMatrix in="SourceAlpha" type="matrix" values="0 0 0 0 0 0 0 0 0 0 0 0 0 0 0 0 0 0 127 0" result="hardAlpha"/>
<feOffset dx="1.20736" dy="0.60368"/>
<feGaussianBlur stdDeviation="0.30184"/>
<feComposite in2="hardAlpha" operator="out"/>
<feColorMatrix type="matrix" values="0 0 0 0 0.204167 0 0 0 0 0.203316 0 0 0 0 0.203316 0 0 0 0.25 0"/>
<feBlend mode="normal" in2="BackgroundImageFix" result="effect1_dropShadow_157_1883"/>
<feBlend mode="normal" in="SourceGraphic" in2="effect1_dropShadow_157_1883" result="shape"/>
</filter>
<filter id="filter3_d_157_1883" x="137.816" y="82.8203" width="18.403" height="47.391" filterUnits="userSpaceOnUse" color-interpolation-filters="sRGB">
<feFlood flood-opacity="0" result="BackgroundImageFix"/>
<feColorMatrix in="SourceAlpha" type="matrix" values="0 0 0 0 0 0 0 0 0 0 0 0 0 0 0 0 0 0 127 0" result="hardAlpha"/>
<feOffset dx="1.81104" dy="0.60368"/>
<feGaussianBlur stdDeviation="0.30184"/>
<feComposite in2="hardAlpha" operator="out"/>
<feColorMatrix type="matrix" values="0 0 0 0 0.203922 0 0 0 0 0.203922 0 0 0 0 0.203922 0 0 0 0.25 0"/>
<feBlend mode="normal" in2="BackgroundImageFix" result="effect1_dropShadow_157_1883"/>
<feBlend mode="normal" in="SourceGraphic" in2="effect1_dropShadow_157_1883" result="shape"/>
</filter>
</defs>
</svg>
