<svg width="706" height="349" viewBox="0 0 706 349" fill="none" xmlns="http://www.w3.org/2000/svg">
<path d="M0.00571867 51.1741C-0.381281 26.9481 18.9227 6.9221 43.0367 6.5331C67.1507 6.1441 87.0847 25.5371 87.4727 49.7621C87.8597 73.9881 68.5557 94.0141 44.4417 94.4031C20.3267 94.7921 0.392719 75.3991 0.00571867 51.1741ZM64.6497 50.1301C64.4647 38.5471 54.9337 29.2741 43.4037 29.4601C31.8737 29.6461 22.6437 39.2211 22.8287 50.8041C23.0137 62.3871 32.5447 71.6601 44.0747 71.4741C55.6047 71.2891 64.8347 61.7131 64.6497 50.1301Z" fill="#F5F5F5"/>
<path d="M0.00571896 51.1742C-0.381281 26.9482 18.9217 6.9222 43.0357 6.5332L43.4027 29.4612C31.8727 29.6472 22.6427 39.2232 22.8277 50.8062C23.0127 62.3892 32.5437 71.6612 44.0737 71.4752L44.4407 94.4032C20.3267 94.7922 0.393719 75.4002 0.00571896 51.1742Z" fill="#E0E0E0"/>
<path d="M39.1097 3.00696C67.3217 2.55196 89.8277 24.447 90.2807 52.789L63.5797 53.22C63.3627 39.669 53.0517 31.137 39.5627 31.355L39.1097 3.00696Z" fill="#EBEBEB"/>
<path d="M661.574 163.414C645.867 148.829 621.15 149.666 606.477 165.279C591.804 180.892 592.646 205.46 608.353 220.045C624.061 234.63 648.777 233.793 663.45 218.18C678.123 202.567 677.282 177.999 661.574 163.414ZM648.584 204.376C641.568 211.841 629.75 212.241 622.24 205.267C614.73 198.294 614.327 186.547 621.343 179.082C628.359 171.617 640.177 171.217 647.687 178.191C655.197 185.164 655.6 196.911 648.584 204.376Z" fill="#F5F5F5"/>
<path d="M606.477 165.279C621.15 149.666 645.866 148.83 661.574 163.414L647.687 178.191C640.177 171.218 628.359 171.618 621.343 179.082C614.327 186.547 614.73 198.294 622.24 205.267L608.353 220.044C592.646 205.46 591.804 180.893 606.477 165.279Z" fill="#EBEBEB"/>
<path d="M659.982 157.082C679.224 174.949 681.527 203.993 663.553 223.119L644.033 206.21C652.627 197.064 654.494 184.855 645.295 176.311L659.982 157.082Z" fill="#FAFAFA"/>
<path d="M594.326 0H583V45.243H594.326V0Z" fill="#E0E0E0"/>
<path d="M610.983 9.86914H599.657V45.2431H610.983V9.86914Z" fill="#E0E0E0"/>
<path d="M627.894 17.9492H616.568V45.2422H627.894V17.9492Z" fill="#E0E0E0"/>
<path d="M643.55 29.0342H632.224V45.2422H643.55V29.0342Z" fill="#E0E0E0"/>
<g filter="url(#filter0_f_4037_1070)">
<path d="M454.945 45.0518H187.616V220.398H454.945V45.0518Z" fill="#FAFAFA"/>
<path d="M454.946 220.398C454.944 218.71 454.865 151.998 454.739 45.053L454.946 45.26C381.584 45.275 288.552 45.293 187.638 45.313H187.617L187.877 45.053C187.869 107.411 187.862 166.753 187.856 220.398L187.617 220.159C344.91 220.299 452.803 220.396 454.946 220.398C452.805 220.4 344.91 220.497 187.617 220.637H187.378V220.397C187.371 166.752 187.364 107.41 187.357 45.052V44.792H187.617H187.638C288.552 44.812 381.584 44.831 454.946 44.845H455.153V45.052C455.026 151.998 454.948 218.711 454.946 220.398Z" fill="#263238"/>
<path d="M269.316 141.884L295.61 142.246C295.409 156.259 283.602 167.679 269.316 167.679C269.265 167.679 269.213 167.679 269.162 167.678L269.316 141.884Z" fill="#455A64"/>
<path d="M312.793 177.486C312.793 177.502 312.599 177.517 312.231 177.531C311.815 177.542 311.282 177.556 310.623 177.573C309.174 177.59 307.177 177.613 304.748 177.641L304.674 177.642L304.626 177.582C302.28 174.626 299.253 170.813 295.952 166.654C293.388 163.384 290.99 160.327 288.96 157.738L289.095 157.804C285.929 157.775 283.278 157.75 281.357 157.732C280.464 157.712 279.742 157.697 279.193 157.684C278.694 157.667 278.428 157.649 278.428 157.631C278.428 157.613 278.694 157.595 279.193 157.578C279.742 157.566 280.464 157.55 281.357 157.53C283.278 157.512 285.929 157.488 289.095 157.458L289.178 157.457L289.231 157.523C291.275 160.102 293.688 163.147 296.269 166.404C299.543 170.585 302.544 174.419 304.871 177.39L304.749 177.331C307.178 177.359 309.174 177.382 310.624 177.399C311.283 177.416 311.816 177.43 312.232 177.441C312.599 177.455 312.793 177.47 312.793 177.486Z" fill="#263238"/>
<path d="M322.225 180.516C322.225 180.627 318.416 180.717 313.718 180.717C309.019 180.717 305.21 180.627 305.21 180.516C305.21 180.405 309.018 180.315 313.718 180.315C318.416 180.315 322.225 180.405 322.225 180.516Z" fill="#263238"/>
<path d="M322.225 183.668C322.225 183.779 318.416 183.87 313.718 183.87C309.019 183.87 305.21 183.78 305.21 183.668C305.21 183.557 309.018 183.467 313.718 183.467C318.416 183.466 322.225 183.557 322.225 183.668Z" fill="#263238"/>
<path d="M265.157 138.142L264.788 163.935C250.503 163.738 238.861 152.156 238.861 138.142C238.861 123.991 250.732 112.347 265.158 112.347C279.584 112.347 291.455 123.991 291.455 138.142H265.157Z" fill="#F07C33"/>
<path d="M254.89 129.705C254.892 129.722 254.734 129.758 254.434 129.812C254.077 129.869 253.644 129.938 253.126 130.021C251.919 130.19 250.315 130.415 248.403 130.684L248.325 130.695L248.266 130.638C246.468 128.889 244.302 126.782 241.966 124.509C238.939 121.54 236.216 118.837 234.258 116.866C233.324 115.913 232.549 115.123 231.955 114.517C231.417 113.956 231.129 113.636 231.149 113.616C231.169 113.596 231.494 113.878 232.065 114.405C232.683 114.988 233.488 115.747 234.458 116.663C236.467 118.582 239.222 121.253 242.249 124.222C244.567 126.515 246.715 128.64 248.498 130.403L248.362 130.357C250.281 130.145 251.892 129.968 253.103 129.834C253.626 129.786 254.062 129.747 254.422 129.714C254.726 129.692 254.888 129.688 254.89 129.705Z" fill="#263238"/>
<path d="M224.488 112.48C224.488 112.591 220.679 112.681 215.981 112.681C211.282 112.681 207.473 112.591 207.473 112.48C207.473 112.369 211.281 112.279 215.981 112.279C220.679 112.278 224.488 112.369 224.488 112.48Z" fill="#263238"/>
<path d="M224.488 115.631C224.488 115.742 220.679 115.833 215.981 115.833C211.282 115.833 207.473 115.743 207.473 115.631C207.473 115.52 211.281 115.43 215.981 115.43C220.679 115.43 224.488 115.52 224.488 115.631Z" fill="#263238"/>
<path d="M357.149 87.1813L357.045 71.1523C352.325 71.1793 347.512 73.0463 343.821 76.3083C339.474 80.1503 336.689 85.9273 337.448 92.9093C337.531 93.6723 337.652 94.4473 337.822 95.2383C337.826 95.2573 337.829 95.2753 337.833 95.2943H337.835L357.149 90.9483V87.1813Z" fill="#F07C33"/>
<g opacity="0.3">
<path d="M357.149 87.1813L357.045 71.1523C352.325 71.1793 347.512 73.0463 343.821 76.3083C339.474 80.1503 336.689 85.9273 337.448 92.9093C337.531 93.6723 337.652 94.4473 337.822 95.2383C337.826 95.2573 337.829 95.2753 337.833 95.2943H337.835L357.149 90.9483V87.1813Z" fill="white"/>
</g>
<path d="M377.055 82.2469C374.355 76.6099 369.038 72.0939 361.467 71.3339C361.265 71.3139 361.061 71.2949 360.855 71.2799C360.725 71.2709 360.597 71.2579 360.466 71.2499C360.084 71.2289 359.696 71.2179 359.303 71.2159C359.285 71.2159 359.268 71.2149 359.25 71.2149H359.247C359.231 71.2149 359.215 71.2139 359.198 71.2139V71.2169L359.302 87.2459L359.327 91.0129L378.646 95.2279L378.67 95.2329C378.965 93.8789 379.106 92.4829 379.099 91.0769C379.084 88.0729 378.385 85.0249 377.055 82.2469Z" fill="#F07C33"/>
<g opacity="0.3">
<path d="M377.055 82.2469C374.355 76.6099 369.038 72.0939 361.467 71.3339C361.265 71.3139 361.061 71.2949 360.855 71.2799C360.725 71.2709 360.597 71.2579 360.466 71.2499C360.084 71.2289 359.696 71.2179 359.303 71.2159C359.285 71.2159 359.268 71.2149 359.25 71.2149H359.247C359.231 71.2149 359.215 71.2139 359.198 71.2139V71.2169L359.302 87.2459L359.327 91.0129L378.646 95.2279L378.67 95.2329C378.965 93.8789 379.106 92.4829 379.099 91.0769C379.084 88.0729 378.385 85.0249 377.055 82.2469Z" fill="black"/>
</g>
<path d="M358.184 92.9492L338.87 97.2952C340.852 106.138 348.743 112.747 358.184 112.747C367.671 112.747 375.595 106.073 377.528 97.1652L358.209 92.9502" fill="#F07C33"/>
<path d="M433.364 90.0637C433.364 90.2077 423.378 90.3237 411.063 90.3237C398.744 90.3237 388.76 90.2067 388.76 90.0637C388.76 89.9197 398.743 89.8037 411.063 89.8037C423.378 89.8037 433.364 89.9197 433.364 90.0637Z" fill="#263238"/>
<path d="M433.364 84.9797C433.364 85.1237 423.378 85.2397 411.063 85.2397C398.744 85.2397 388.76 85.1227 388.76 84.9797C388.76 84.8357 398.743 84.7197 411.063 84.7197C423.378 84.7197 433.364 84.8357 433.364 84.9797Z" fill="#263238"/>
<path d="M433.364 79.8958C433.364 80.0398 423.378 80.1558 411.063 80.1558C398.744 80.1558 388.76 80.0388 388.76 79.8958C388.76 79.7518 398.743 79.6357 411.063 79.6357C423.378 79.6347 433.364 79.7518 433.364 79.8958Z" fill="#263238"/>
<path d="M433.364 94.7932C433.364 94.9372 423.378 95.0532 411.063 95.0532C398.744 95.0532 388.76 94.9362 388.76 94.7932C388.76 94.6492 398.743 94.5332 411.063 94.5332C423.378 94.5332 433.364 94.6492 433.364 94.7932Z" fill="#263238"/>
<path d="M419.552 99.9416C419.552 100.086 412.693 100.202 404.235 100.202C395.774 100.202 388.917 100.085 388.917 99.9416C388.917 99.7976 395.774 99.6816 404.235 99.6816C412.694 99.6816 419.552 99.7976 419.552 99.9416Z" fill="#263238"/>
<path d="M346.577 136.743H341.983V188.052H346.577V136.743Z" fill="#F07C33"/>
<path d="M355.447 154.17H350.853V188.052H355.447V154.17Z" fill="#F07C33"/>
<path d="M364.317 143.121H359.723V188.313H364.317V143.121Z" fill="#F07C33"/>
<path d="M373.186 138.726H368.592V188.053H373.186V138.726Z" fill="#F07C33"/>
<path d="M382.056 155.213H377.462V188.052H382.056V155.213Z" fill="#F07C33"/>
<path d="M390.925 161.653H386.331V188.052H390.925V161.653Z" fill="#F07C33"/>
<path d="M399.795 142.009H395.201V188.051H399.795V142.009Z" fill="#F07C33"/>
<path d="M408.665 150.311H404.071V188.053H408.665V150.311Z" fill="#F07C33"/>
<path d="M417.534 143.677H412.94V188.052H417.534V143.677Z" fill="#F07C33"/>
<path d="M426.404 157.82H421.81V188.052H426.404V157.82Z" fill="#F07C33"/>
<path d="M435.274 152.068H430.68V188.052H435.274V152.068Z" fill="#F07C33"/>
<path d="M437.149 191.626C437.149 191.73 415.357 191.816 388.481 191.816C361.596 191.816 339.808 191.73 339.808 191.626C339.808 191.522 361.596 191.438 388.481 191.438C415.357 191.438 437.149 191.521 437.149 191.626Z" fill="#263238"/>
<path d="M348.537 195.665C348.537 195.769 347.011 195.854 345.128 195.854C343.245 195.854 341.718 195.769 341.718 195.665C341.718 195.561 343.244 195.476 345.128 195.476C347.01 195.476 348.537 195.561 348.537 195.665Z" fill="#263238"/>
<path d="M359.846 195.871C359.846 195.975 358.022 196.06 355.771 196.06C353.52 196.06 351.696 195.975 351.696 195.871C351.696 195.767 353.52 195.682 355.771 195.682C358.022 195.682 359.846 195.767 359.846 195.871Z" fill="#263238"/>
<path d="M369.492 195.871C369.492 195.975 367.668 196.06 365.418 196.06C363.167 196.06 361.343 195.975 361.343 195.871C361.343 195.767 363.167 195.682 365.418 195.682C367.668 195.682 369.492 195.767 369.492 195.871Z" fill="#263238"/>
<path d="M379.138 195.871C379.138 195.975 377.314 196.06 375.064 196.06C372.813 196.06 370.989 195.975 370.989 195.871C370.989 195.767 372.813 195.682 375.064 195.682C377.314 195.682 379.138 195.767 379.138 195.871Z" fill="#263238"/>
<path d="M388.784 195.871C388.784 195.975 386.96 196.06 384.71 196.06C382.459 196.06 380.635 195.975 380.635 195.871C380.635 195.767 382.459 195.682 384.71 195.682C386.96 195.682 388.784 195.767 388.784 195.871Z" fill="#263238"/>
<path d="M398.431 195.871C398.431 195.975 396.607 196.06 394.357 196.06C392.106 196.06 390.282 195.975 390.282 195.871C390.282 195.767 392.106 195.682 394.357 195.682C396.606 195.682 398.431 195.767 398.431 195.871Z" fill="#263238"/>
<path d="M408.077 195.871C408.077 195.975 406.253 196.06 404.003 196.06C401.752 196.06 399.928 195.975 399.928 195.871C399.928 195.767 401.752 195.682 404.003 195.682C406.252 195.682 408.077 195.767 408.077 195.871Z" fill="#263238"/>
<path d="M417.723 195.871C417.723 195.975 415.899 196.06 413.648 196.06C411.397 196.06 409.573 195.975 409.573 195.871C409.573 195.767 411.397 195.682 413.648 195.682C415.899 195.682 417.723 195.767 417.723 195.871Z" fill="#263238"/>
<path d="M427.369 195.871C427.369 195.975 425.545 196.06 423.294 196.06C421.043 196.06 419.219 195.975 419.219 195.871C419.219 195.767 421.043 195.682 423.294 195.682C425.545 195.682 427.369 195.767 427.369 195.871Z" fill="#263238"/>
<path d="M437.015 195.871C437.015 195.975 435.191 196.06 432.941 196.06C430.69 196.06 428.866 195.975 428.866 195.871C428.866 195.767 430.69 195.682 432.941 195.682C435.191 195.682 437.015 195.767 437.015 195.871Z" fill="#263238"/>
<g opacity="0.3">
<path d="M355.447 154.17H350.853V188.052H355.447V154.17Z" fill="white"/>
</g>
<g opacity="0.3">
<path d="M373.186 138.726H368.592V188.053H373.186V138.726Z" fill="white"/>
</g>
<g opacity="0.3">
<path d="M390.925 161.653H386.331V188.052H390.925V161.653Z" fill="white"/>
</g>
<g opacity="0.3">
<path d="M408.665 150.311H404.071V188.053H408.665V150.311Z" fill="white"/>
</g>
<g opacity="0.3">
<path d="M426.404 157.82H421.81V188.052H426.404V157.82Z" fill="white"/>
</g>
<path d="M220.096 78.0099C220.096 80.4519 218.116 82.4319 215.674 82.4319C213.232 82.4319 211.252 80.4519 211.252 78.0099C211.252 75.5679 213.232 73.5879 215.674 73.5879C218.116 73.5879 220.096 75.5669 220.096 78.0099Z" fill="#F07C33"/>
<path d="M296.125 74.5217C296.125 74.6657 281.214 74.7817 262.825 74.7817C244.43 74.7817 229.522 74.6647 229.522 74.5217C229.522 74.3777 244.43 74.2617 262.825 74.2617C281.214 74.2607 296.125 74.3777 296.125 74.5217Z" fill="#F07C33"/>
<path d="M256.261 79.8703C256.261 79.9063 255.894 79.9404 255.229 79.9714C254.565 80.0024 253.604 80.0304 252.416 80.0544C250.041 80.1014 246.759 80.1303 243.135 80.1303C239.51 80.1303 236.228 80.1014 233.853 80.0544C232.665 80.0314 231.704 80.0024 231.04 79.9714C230.376 79.9404 230.009 79.9063 230.009 79.8703C230.009 79.8343 230.376 79.8003 231.04 79.7693C231.704 79.7383 232.665 79.7103 233.853 79.6863C236.228 79.6393 239.51 79.6104 243.135 79.6104C246.759 79.6104 250.04 79.6393 252.416 79.6863C253.604 79.7103 254.565 79.7383 255.229 79.7693C255.893 79.7993 256.261 79.8333 256.261 79.8703Z" fill="#F07C33"/>
<path d="M182.172 60.9248H42.26V220.603H182.172V60.9248Z" fill="#FAFAFA"/>
<path d="M182.172 220.603C182.172 220.603 182.163 220.343 182.159 219.844C182.156 219.338 182.152 218.598 182.146 217.625C182.14 215.665 182.131 212.773 182.119 209.007C182.105 201.468 182.084 190.437 182.058 176.427C182.03 148.43 181.99 108.54 181.942 60.9251L182.172 61.1551C140.97 61.1641 93.099 61.1741 42.274 61.1851H42.26L42.52 60.9251C42.505 119.795 42.491 174.693 42.48 220.603L42.26 220.383C84.352 220.43 119.303 220.469 143.741 220.496C155.97 220.521 165.566 220.54 172.114 220.553C175.385 220.564 177.893 220.573 179.592 220.578C181.286 220.587 182.172 220.603 182.172 220.603C182.172 220.603 181.319 220.619 179.64 220.628C177.95 220.634 175.456 220.642 172.204 220.653C165.667 220.666 156.088 220.685 143.88 220.71C119.409 220.737 84.41 220.776 42.26 220.823H42.04V220.602C42.028 174.693 42.015 119.795 42 60.9241V60.6641H42.261H42.275C93.1 60.6751 140.971 60.6851 182.173 60.6941H182.403V60.9241C182.355 108.599 182.315 148.541 182.287 176.574C182.261 190.561 182.24 201.575 182.226 209.102C182.214 212.849 182.205 215.726 182.199 217.675C182.193 218.637 182.189 219.369 182.186 219.869C182.181 220.36 182.172 220.603 182.172 220.603Z" fill="#263238"/>
<path d="M170.145 142.458C170.099 142.553 168.596 141.682 165.646 140.748C162.72 139.841 158.205 138.964 152.743 139.79C150.034 140.224 147.1 141.043 144.233 142.525C141.347 143.971 138.597 146.116 135.866 148.543C133.122 150.964 130.399 153.713 127.257 156.255C124.115 158.756 120.51 161.122 116.269 162.202C114.164 162.744 111.96 162.885 109.853 162.589C107.742 162.301 105.748 161.611 103.908 160.754C100.223 159.017 97.071 156.735 93.95 154.832C90.851 152.891 87.735 151.352 84.584 150.633C81.452 149.871 78.411 149.717 75.675 149.95C70.169 150.431 66.003 152.38 63.377 153.954C60.738 155.567 59.494 156.78 59.423 156.695C59.401 156.671 59.708 156.369 60.316 155.816C60.914 155.253 61.869 154.495 63.179 153.638C65.78 151.947 69.981 149.857 75.611 149.277C78.408 148.995 81.534 149.111 84.769 149.862C88.023 150.566 91.275 152.143 94.409 154.079C97.572 155.983 100.724 158.234 104.301 159.902C107.841 161.607 112.005 162.366 116.034 161.275C120.063 160.252 123.58 157.97 126.67 155.524C129.762 153.04 132.498 150.308 135.282 147.882C138.056 145.451 140.884 143.278 143.874 141.818C146.841 140.324 149.865 139.522 152.644 139.122C158.248 138.363 162.83 139.367 165.76 140.395C167.24 140.907 168.341 141.43 169.065 141.817C169.79 142.21 170.16 142.43 170.145 142.458Z" fill="#F07C33"/>
<path d="M92.665 163.905H80.77V196.075H92.665V163.905Z" fill="#F07C33"/>
<path d="M143.139 163.905H131.244V196.075H143.139V163.905Z" fill="#F07C33"/>
<path d="M159.964 145.014H148.069V196.076H159.964V145.014Z" fill="#F07C33"/>
<path d="M77.272 185.947H65.377V196.774H77.272V185.947Z" fill="#F07C33"/>
<path d="M109.49 178.433H97.595V196.076H109.49V178.433Z" fill="#F07C33"/>
<path d="M126.315 174.383H114.42V196.076H126.315V174.383Z" fill="#F07C33"/>
<path d="M93.144 199.867C93.144 200.131 90.267 200.345 86.718 200.345C83.168 200.345 80.291 200.131 80.291 199.867C80.291 199.603 83.168 199.389 86.718 199.389C90.267 199.389 93.144 199.603 93.144 199.867Z" fill="#263238"/>
<path d="M78.343 199.867C78.343 200.131 75.465 200.345 71.917 200.345C68.367 200.345 65.49 200.131 65.49 199.867C65.49 199.603 68.367 199.389 71.917 199.389C75.465 199.389 78.343 199.603 78.343 199.867Z" fill="#263238"/>
<path d="M162.307 199.867C162.307 200.131 159.054 200.345 155.043 200.345C151.03 200.345 147.778 200.131 147.778 199.867C147.778 199.603 151.029 199.389 155.043 199.389C159.054 199.389 162.307 199.603 162.307 199.867Z" fill="#263238"/>
<path d="M137.372 200.345C141.384 200.345 144.637 200.131 144.637 199.867C144.637 199.603 141.384 199.389 137.372 199.389C133.36 199.389 130.107 199.603 130.107 199.867C130.107 200.131 133.36 200.345 137.372 200.345Z" fill="#263238"/>
<path d="M126.314 199.867C126.314 200.131 123.436 200.346 119.888 200.346C116.339 200.346 113.462 200.132 113.462 199.867C113.462 199.603 116.339 199.389 119.888 199.389C123.436 199.389 126.314 199.603 126.314 199.867Z" fill="#263238"/>
<path d="M108.931 199.867C108.931 200.131 106.053 200.346 102.505 200.346C98.956 200.346 96.078 200.132 96.078 199.867C96.078 199.603 98.955 199.389 102.505 199.389C106.053 199.389 108.931 199.603 108.931 199.867Z" fill="#263238"/>
<path d="M162.307 84.2041H65.097V124.574H162.307V84.2041Z" fill="#E0E0E0"/>
<path d="M85.293 96.9627C85.293 99.4657 83.264 101.495 80.761 101.495C78.258 101.495 76.229 99.4657 76.229 96.9627C76.229 94.4597 78.258 92.4307 80.761 92.4307C83.264 92.4307 85.293 94.4597 85.293 96.9627Z" fill="#263238"/>
<path d="M121.401 93.833H89.825V95.586H121.401V93.833Z" fill="#263238"/>
<path d="M151.251 97.8164H89.825V99.5694H151.251V97.8164Z" fill="white"/>
<path d="M85.293 110.895C85.293 113.398 83.264 115.427 80.761 115.427C78.258 115.427 76.229 113.398 76.229 110.895C76.229 108.392 78.258 106.363 80.761 106.363C83.264 106.363 85.293 108.392 85.293 110.895Z" fill="#F07C33"/>
<path d="M105.95 107.766H89.825V109.519H105.95V107.766Z" fill="#F07C33"/>
<path d="M151.251 111.749H89.825V113.502H151.251V111.749Z" fill="white"/>
<path d="M621.703 32.2607H468.062V207.607H621.703V32.2607Z" fill="#FAFAFA"/>
<path d="M621.702 207.607C621.702 207.607 621.693 207.322 621.689 206.774C621.686 206.22 621.682 205.408 621.676 204.339C621.67 202.189 621.661 199.013 621.649 194.877C621.635 186.601 621.614 174.487 621.588 159.103C621.56 128.359 621.52 84.551 621.472 32.261L621.702 32.491C576.458 32.5 523.89 32.51 468.077 32.521H468.061L468.321 32.261C468.306 96.908 468.292 157.193 468.281 207.606L468.061 207.386C514.287 207.433 552.67 207.472 579.506 207.499C592.935 207.524 603.472 207.543 610.661 207.556C614.253 207.567 617.007 207.575 618.871 207.581C620.731 207.591 621.702 207.607 621.702 207.607C621.702 207.607 620.763 207.623 618.919 207.631C617.064 207.637 614.325 207.645 610.751 207.656C603.574 207.669 593.053 207.689 579.646 207.713C552.777 207.74 514.346 207.779 468.062 207.826H467.842V207.605C467.83 157.192 467.817 96.907 467.802 32.26V32H468.062H468.078C523.89 32.011 576.459 32.021 621.703 32.031H621.933V32.261C621.885 84.612 621.845 128.471 621.817 159.251C621.791 174.613 621.77 186.709 621.756 194.973C621.744 199.09 621.735 202.25 621.729 204.39C621.723 205.448 621.719 206.252 621.716 206.8C621.711 207.34 621.702 207.607 621.702 207.607Z" fill="#263238"/>
<path d="M604.818 46.2803H480.353V146.125H604.818V46.2803Z" fill="#E0E0E0"/>
<path d="M493.137 128.374H489.052V129.551H493.137V128.374Z" fill="#263238"/>
<path d="M503.517 134.668H498.293V135.845H503.517V134.668Z" fill="#263238"/>
<path d="M521.702 134.668H516.478V135.845H521.702V134.668Z" fill="#263238"/>
<path d="M539.887 134.668H534.663V135.845H539.887V134.668Z" fill="#263238"/>
<path d="M558.072 134.668H552.848V135.845H558.072V134.668Z" fill="#263238"/>
<path d="M576.258 134.668H571.034V135.845H576.258V134.668Z" fill="#263238"/>
<path d="M594.443 134.668H589.219V135.845H594.443V134.668Z" fill="#263238"/>
<path d="M493.137 112.653H489.052V113.83H493.137V112.653Z" fill="#263238"/>
<path d="M493.137 83.0645H489.052V84.2415H493.137V83.0645Z" fill="#263238"/>
<path d="M493.137 68.1943H489.052V69.3713H493.137V68.1943Z" fill="#263238"/>
<path d="M493.344 97.8584H489.259V99.0354H493.344V97.8584Z" fill="#263238"/>
<path d="M594.296 129.552C594.296 129.561 594.148 129.57 593.858 129.579C593.545 129.585 593.119 129.594 592.573 129.605C591.417 129.616 589.756 129.633 587.63 129.654C583.312 129.674 577.108 129.702 569.452 129.737C554.081 129.757 532.888 129.783 509.479 129.813C504.611 129.812 499.838 129.81 495.267 129.809H495.01V129.552C495.045 109.504 495.076 91.8614 495.098 79.2004C495.131 72.9014 495.157 67.8424 495.175 64.3314C495.194 62.6094 495.209 61.2674 495.219 60.3294C495.229 59.8914 495.237 59.5484 495.242 59.2934C495.25 59.0604 495.258 58.9414 495.266 58.9414C495.274 58.9414 495.282 59.0604 495.29 59.2934C495.296 59.5494 495.303 59.8924 495.313 60.3294C495.323 61.2674 495.338 62.6094 495.357 64.3314C495.375 67.8434 495.402 72.9014 495.434 79.2004C495.456 91.8614 495.487 109.505 495.522 129.552L495.265 129.295C499.836 129.294 504.609 129.293 509.477 129.291C532.885 129.321 554.079 129.348 569.45 129.367C577.106 129.402 583.31 129.43 587.628 129.45C589.754 129.471 591.414 129.487 592.571 129.499C593.117 129.51 593.543 129.519 593.856 129.525C594.148 129.534 594.296 129.543 594.296 129.552Z" fill="#263238"/>
<path d="M595.447 98.4475C595.447 98.5915 573.904 98.7075 547.335 98.7075C520.757 98.7075 499.218 98.5905 499.218 98.4475C499.218 98.3035 520.757 98.1875 547.335 98.1875C573.904 98.1865 595.447 98.3035 595.447 98.4475Z" fill="#263238"/>
<path d="M595.447 83.6526C595.447 83.7966 573.904 83.9126 547.335 83.9126C520.757 83.9126 499.218 83.7956 499.218 83.6526C499.218 83.5096 520.757 83.3926 547.335 83.3926C573.904 83.3926 595.447 83.5086 595.447 83.6526Z" fill="#263238"/>
<path d="M595.447 68.7825C595.447 68.9265 573.904 69.0435 547.335 69.0435C520.757 69.0435 499.218 68.9265 499.218 68.7825C499.218 68.6385 520.757 68.5225 547.335 68.5225C573.904 68.5225 595.447 68.6395 595.447 68.7825Z" fill="#263238"/>
<path d="M595.447 113.242C595.447 113.386 573.904 113.502 547.335 113.502C520.757 113.502 499.218 113.385 499.218 113.242C499.218 113.099 520.757 112.982 547.335 112.982C573.904 112.981 595.447 113.098 595.447 113.242Z" fill="#263238"/>
<path d="M500.21 126.368C500.21 123.891 500.21 113.241 500.21 113.241L508.391 100.54L513.943 104.8L525.338 87.0993L532.059 91.8323L541.409 75.5033L549.006 81.6923L560.402 60.0303L572.674 84.2413L582.609 72.1273L594.297 68.7833V126.369H500.21V126.368Z" fill="#455A64"/>
<path d="M595.447 64.1226C595.447 64.1296 595.377 64.1356 595.241 64.1426C595.081 64.1476 594.883 64.1536 594.632 64.1616C594.065 64.1706 593.275 64.1826 592.26 64.1996C590.154 64.2156 587.122 64.2386 583.292 64.2676L583.406 64.2116C580.793 67.6346 577.545 71.8896 573.809 76.7826L573.748 76.8626H573.646C566.659 76.8756 558.477 76.8906 549.584 76.9066L549.798 76.7856C546.632 82.0586 543.216 87.7476 539.684 93.6286C536.237 99.3556 532.901 104.9 529.75 110.136L529.555 110.461L529.333 110.155C524.584 103.618 520.191 97.5706 516.308 92.2256L516.658 92.2146C511.705 99.9136 507.616 106.269 504.748 110.727C503.323 112.916 502.202 114.638 501.42 115.84C501.044 116.405 500.75 116.848 500.534 117.172C500.331 117.471 500.212 117.616 500.212 117.616C500.212 117.616 500.294 117.448 500.479 117.137C500.682 116.804 500.959 116.351 501.313 115.771C502.073 114.554 503.161 112.811 504.544 110.596C507.375 106.114 511.411 99.7256 516.301 91.9856L516.467 91.7226L516.652 91.9746C520.554 97.3056 524.967 103.337 529.74 109.858L529.322 109.877C532.468 104.638 535.799 99.0906 539.24 93.3596C542.778 87.4816 546.199 81.7966 549.371 76.5266L549.444 76.4046H549.586C558.479 76.4206 566.661 76.4356 573.648 76.4486L573.485 76.5286C577.258 71.6646 580.54 67.4346 583.179 64.0316L583.223 63.9746H583.294C587.125 64.0036 590.156 64.0266 592.262 64.0426C593.276 64.0586 594.067 64.0716 594.634 64.0796C594.885 64.0876 595.084 64.0936 595.243 64.0996C595.377 64.1086 595.447 64.1156 595.447 64.1226Z" fill="#F07C33"/>
<path d="M520.422 96.307C520.422 96.798 520.009 97.196 519.499 97.196C518.989 97.196 518.576 96.798 518.576 96.307C518.576 95.816 518.989 95.418 519.499 95.418C520.009 95.418 520.422 95.816 520.422 96.307Z" fill="#F07C33"/>
<path d="M548.176 80.5326C548.176 81.0236 547.763 81.4216 547.253 81.4216C546.743 81.4216 546.33 81.0236 546.33 80.5326C546.33 80.0416 546.743 79.6436 547.253 79.6436C547.763 79.6436 548.176 80.0416 548.176 80.5326Z" fill="#F07C33"/>
<path d="M569.753 76.6566C569.753 77.1476 569.34 77.5456 568.83 77.5456C568.32 77.5456 567.907 77.1476 567.907 76.6566C567.907 76.1656 568.32 75.7676 568.83 75.7676C569.339 75.7676 569.753 76.1656 569.753 76.6566Z" fill="#F07C33"/>
<path d="M599.208 160.97C599.208 161.114 572.944 161.23 540.554 161.23C508.152 161.23 481.894 161.113 481.894 160.97C481.894 160.826 508.152 160.71 540.554 160.71C572.945 160.71 599.208 160.826 599.208 160.97Z" fill="#263238"/>
<path d="M599.208 167.312C599.208 167.456 572.944 167.572 540.554 167.572C508.152 167.572 481.894 167.455 481.894 167.312C481.894 167.169 508.152 167.052 540.554 167.052C572.945 167.052 599.208 167.168 599.208 167.312Z" fill="#263238"/>
<path d="M599.208 173.654C599.208 173.798 572.944 173.914 540.554 173.914C508.152 173.914 481.894 173.797 481.894 173.654C481.894 173.511 508.152 173.394 540.554 173.394C572.945 173.394 599.208 173.511 599.208 173.654Z" fill="#263238"/>
<path d="M599.208 179.997C599.208 180.141 572.944 180.257 540.554 180.257C508.152 180.257 481.894 180.14 481.894 179.997C481.894 179.854 508.152 179.737 540.554 179.737C572.945 179.736 599.208 179.853 599.208 179.997Z" fill="#263238"/>
</g>
<path d="M216.932 290.288C216.236 290.288 215.696 290.096 215.312 289.712C214.952 289.328 214.772 288.776 214.772 288.056V266.636C214.772 265.892 214.952 265.328 215.312 264.944C215.696 264.536 216.188 264.332 216.788 264.332C217.34 264.332 217.748 264.44 218.012 264.656C218.3 264.848 218.636 265.184 219.02 265.664L232.808 283.556H231.872V266.528C231.872 265.832 232.052 265.292 232.412 264.908C232.796 264.524 233.336 264.332 234.032 264.332C234.728 264.332 235.256 264.524 235.616 264.908C235.976 265.292 236.156 265.832 236.156 266.528V288.128C236.156 288.8 235.988 289.328 235.652 289.712C235.316 290.096 234.86 290.288 234.284 290.288C233.732 290.288 233.288 290.18 232.952 289.964C232.64 289.748 232.292 289.4 231.908 288.92L218.156 271.028H219.056V288.056C219.056 288.776 218.876 289.328 218.516 289.712C218.156 290.096 217.628 290.288 216.932 290.288ZM249.262 290.36C247.438 290.36 245.854 289.988 244.51 289.244C243.166 288.5 242.122 287.444 241.378 286.076C240.634 284.684 240.262 283.052 240.262 281.18C240.262 279.764 240.466 278.504 240.874 277.4C241.306 276.272 241.918 275.312 242.71 274.52C243.502 273.704 244.45 273.092 245.554 272.684C246.658 272.252 247.894 272.036 249.262 272.036C251.086 272.036 252.67 272.408 254.014 273.152C255.358 273.896 256.402 274.952 257.146 276.32C257.89 277.688 258.262 279.308 258.262 281.18C258.262 282.596 258.046 283.868 257.614 284.996C257.206 286.124 256.606 287.096 255.814 287.912C255.022 288.704 254.074 289.316 252.97 289.748C251.866 290.156 250.63 290.36 249.262 290.36ZM249.262 286.94C250.15 286.94 250.93 286.724 251.602 286.292C252.274 285.86 252.79 285.224 253.15 284.384C253.534 283.52 253.726 282.452 253.726 281.18C253.726 279.26 253.318 277.832 252.502 276.896C251.686 275.936 250.606 275.456 249.262 275.456C248.374 275.456 247.594 275.672 246.922 276.104C246.25 276.512 245.722 277.148 245.338 278.012C244.978 278.852 244.798 279.908 244.798 281.18C244.798 283.076 245.206 284.516 246.022 285.5C246.838 286.46 247.918 286.94 249.262 286.94ZM274.557 290C273.765 290 273.153 289.796 272.721 289.388C272.313 288.956 272.109 288.344 272.109 287.552V267.068C272.109 266.276 272.313 265.676 272.721 265.268C273.153 264.836 273.765 264.62 274.557 264.62H281.541C285.789 264.62 289.065 265.712 291.369 267.896C293.697 270.08 294.861 273.212 294.861 277.292C294.861 279.332 294.561 281.144 293.961 282.728C293.385 284.288 292.521 285.608 291.369 286.688C290.241 287.768 288.849 288.596 287.193 289.172C285.561 289.724 283.677 290 281.541 290H274.557ZM276.717 286.184H281.253C282.741 286.184 284.025 286.004 285.105 285.644C286.209 285.26 287.121 284.708 287.841 283.988C288.585 283.244 289.137 282.32 289.497 281.216C289.857 280.088 290.037 278.78 290.037 277.292C290.037 274.316 289.305 272.096 287.841 270.632C286.377 269.168 284.181 268.436 281.253 268.436H276.717V286.184ZM304.859 290.36C303.587 290.36 302.447 290.12 301.439 289.64C300.455 289.136 299.675 288.464 299.099 287.624C298.547 286.784 298.271 285.836 298.271 284.78C298.271 283.484 298.607 282.464 299.279 281.72C299.951 280.952 301.043 280.4 302.555 280.064C304.067 279.728 306.095 279.56 308.639 279.56H310.439V282.152H308.675C307.187 282.152 305.999 282.224 305.111 282.368C304.223 282.512 303.587 282.764 303.203 283.124C302.843 283.46 302.663 283.94 302.663 284.564C302.663 285.356 302.939 286.004 303.491 286.508C304.043 287.012 304.811 287.264 305.795 287.264C306.587 287.264 307.283 287.084 307.883 286.724C308.507 286.34 308.999 285.824 309.359 285.176C309.719 284.528 309.899 283.784 309.899 282.944V278.804C309.899 277.604 309.635 276.74 309.107 276.212C308.579 275.684 307.691 275.42 306.443 275.42C305.747 275.42 304.991 275.504 304.175 275.672C303.383 275.84 302.543 276.128 301.655 276.536C301.199 276.752 300.791 276.812 300.431 276.716C300.095 276.62 299.831 276.428 299.639 276.14C299.447 275.828 299.351 275.492 299.351 275.132C299.351 274.772 299.447 274.424 299.639 274.088C299.831 273.728 300.155 273.464 300.611 273.296C301.715 272.84 302.771 272.516 303.779 272.324C304.811 272.132 305.747 272.036 306.587 272.036C308.315 272.036 309.731 272.3 310.835 272.828C311.963 273.356 312.803 274.16 313.355 275.24C313.907 276.296 314.183 277.664 314.183 279.344V287.984C314.183 288.728 314.003 289.304 313.643 289.712C313.283 290.096 312.767 290.288 312.095 290.288C311.423 290.288 310.895 290.096 310.511 289.712C310.151 289.304 309.971 288.728 309.971 287.984V286.256H310.259C310.091 287.096 309.755 287.828 309.251 288.452C308.771 289.052 308.159 289.52 307.415 289.856C306.671 290.192 305.819 290.36 304.859 290.36ZM326.779 290.36C325.219 290.36 323.911 290.096 322.855 289.568C321.823 289.04 321.055 288.272 320.551 287.264C320.047 286.232 319.795 284.96 319.795 283.448V275.78H317.923C317.347 275.78 316.903 275.636 316.591 275.348C316.279 275.036 316.123 274.616 316.123 274.088C316.123 273.536 316.279 273.116 316.591 272.828C316.903 272.54 317.347 272.396 317.923 272.396H319.795V269.12C319.795 268.376 319.987 267.812 320.371 267.428C320.779 267.044 321.343 266.852 322.063 266.852C322.783 266.852 323.335 267.044 323.719 267.428C324.103 267.812 324.295 268.376 324.295 269.12V272.396H328.111C328.687 272.396 329.131 272.54 329.443 272.828C329.755 273.116 329.911 273.536 329.911 274.088C329.911 274.616 329.755 275.036 329.443 275.348C329.131 275.636 328.687 275.78 328.111 275.78H324.295V283.196C324.295 284.348 324.547 285.212 325.051 285.788C325.555 286.364 326.371 286.652 327.499 286.652C327.907 286.652 328.267 286.616 328.579 286.544C328.891 286.472 329.167 286.424 329.407 286.4C329.695 286.376 329.935 286.472 330.127 286.688C330.319 286.88 330.415 287.288 330.415 287.912C330.415 288.392 330.331 288.824 330.163 289.208C330.019 289.568 329.743 289.82 329.335 289.964C329.023 290.06 328.615 290.144 328.111 290.216C327.607 290.312 327.163 290.36 326.779 290.36ZM338.291 290.36C337.019 290.36 335.879 290.12 334.871 289.64C333.887 289.136 333.107 288.464 332.531 287.624C331.979 286.784 331.703 285.836 331.703 284.78C331.703 283.484 332.039 282.464 332.711 281.72C333.383 280.952 334.475 280.4 335.987 280.064C337.499 279.728 339.527 279.56 342.071 279.56H343.871V282.152H342.107C340.619 282.152 339.431 282.224 338.543 282.368C337.655 282.512 337.019 282.764 336.635 283.124C336.275 283.46 336.095 283.94 336.095 284.564C336.095 285.356 336.371 286.004 336.923 286.508C337.475 287.012 338.243 287.264 339.227 287.264C340.019 287.264 340.715 287.084 341.315 286.724C341.939 286.34 342.431 285.824 342.791 285.176C343.151 284.528 343.331 283.784 343.331 282.944V278.804C343.331 277.604 343.067 276.74 342.539 276.212C342.011 275.684 341.123 275.42 339.875 275.42C339.179 275.42 338.423 275.504 337.607 275.672C336.815 275.84 335.975 276.128 335.087 276.536C334.631 276.752 334.223 276.812 333.863 276.716C333.527 276.62 333.263 276.428 333.071 276.14C332.879 275.828 332.783 275.492 332.783 275.132C332.783 274.772 332.879 274.424 333.071 274.088C333.263 273.728 333.587 273.464 334.043 273.296C335.147 272.84 336.203 272.516 337.211 272.324C338.243 272.132 339.179 272.036 340.019 272.036C341.747 272.036 343.163 272.3 344.267 272.828C345.395 273.356 346.235 274.16 346.787 275.24C347.339 276.296 347.615 277.664 347.615 279.344V287.984C347.615 288.728 347.435 289.304 347.075 289.712C346.715 290.096 346.199 290.288 345.527 290.288C344.855 290.288 344.327 290.096 343.943 289.712C343.583 289.304 343.403 288.728 343.403 287.984V286.256H343.691C343.523 287.096 343.187 287.828 342.683 288.452C342.203 289.052 341.591 289.52 340.847 289.856C340.103 290.192 339.251 290.36 338.291 290.36ZM365.34 290.288C364.62 290.288 364.056 290.096 363.648 289.712C363.264 289.304 363.072 288.728 363.072 287.984V275.78H361.416C360.84 275.78 360.396 275.636 360.084 275.348C359.772 275.036 359.616 274.616 359.616 274.088C359.616 273.536 359.772 273.116 360.084 272.828C360.396 272.54 360.84 272.396 361.416 272.396H364.368L363.072 273.584V272.36C363.072 269.888 363.696 268.04 364.944 266.816C366.192 265.568 367.992 264.836 370.344 264.62L371.568 264.512C372.048 264.464 372.432 264.548 372.72 264.764C373.008 264.956 373.2 265.22 373.296 265.556C373.392 265.868 373.404 266.192 373.332 266.528C373.26 266.864 373.104 267.164 372.864 267.428C372.648 267.668 372.36 267.8 372 267.824L371.496 267.86C370.128 267.956 369.132 268.304 368.508 268.904C367.884 269.504 367.572 270.416 367.572 271.64V272.972L366.996 272.396H370.632C371.208 272.396 371.652 272.54 371.964 272.828C372.276 273.116 372.432 273.536 372.432 274.088C372.432 274.616 372.276 275.036 371.964 275.348C371.652 275.636 371.208 275.78 370.632 275.78H367.572V287.984C367.572 289.52 366.828 290.288 365.34 290.288ZM382.532 290.36C380.708 290.36 379.124 289.988 377.78 289.244C376.436 288.5 375.392 287.444 374.648 286.076C373.904 284.684 373.532 283.052 373.532 281.18C373.532 279.764 373.736 278.504 374.144 277.4C374.576 276.272 375.188 275.312 375.98 274.52C376.772 273.704 377.72 273.092 378.824 272.684C379.928 272.252 381.164 272.036 382.532 272.036C384.356 272.036 385.94 272.408 387.284 273.152C388.628 273.896 389.672 274.952 390.416 276.32C391.16 277.688 391.532 279.308 391.532 281.18C391.532 282.596 391.316 283.868 390.884 284.996C390.476 286.124 389.876 287.096 389.084 287.912C388.292 288.704 387.344 289.316 386.24 289.748C385.136 290.156 383.9 290.36 382.532 290.36ZM382.532 286.94C383.42 286.94 384.2 286.724 384.872 286.292C385.544 285.86 386.06 285.224 386.42 284.384C386.804 283.52 386.996 282.452 386.996 281.18C386.996 279.26 386.588 277.832 385.772 276.896C384.956 275.936 383.876 275.456 382.532 275.456C381.644 275.456 380.864 275.672 380.192 276.104C379.52 276.512 378.992 277.148 378.608 278.012C378.248 278.852 378.068 279.908 378.068 281.18C378.068 283.076 378.476 284.516 379.292 285.5C380.108 286.46 381.188 286.94 382.532 286.94ZM397.514 290.288C396.77 290.288 396.194 290.096 395.786 289.712C395.402 289.304 395.21 288.728 395.21 287.984V274.376C395.21 273.632 395.402 273.068 395.786 272.684C396.17 272.3 396.71 272.108 397.406 272.108C398.102 272.108 398.642 272.3 399.026 272.684C399.41 273.068 399.602 273.632 399.602 274.376V276.644H399.242C399.578 275.204 400.238 274.112 401.222 273.368C402.206 272.624 403.514 272.18 405.146 272.036C405.65 271.988 406.046 272.12 406.334 272.432C406.646 272.72 406.826 273.176 406.874 273.8C406.922 274.4 406.778 274.892 406.442 275.276C406.13 275.636 405.65 275.852 405.002 275.924L404.21 275.996C402.746 276.14 401.642 276.596 400.898 277.364C400.154 278.108 399.782 279.164 399.782 280.532V287.984C399.782 288.728 399.59 289.304 399.206 289.712C398.822 290.096 398.258 290.288 397.514 290.288ZM421.746 290.288C421.002 290.288 420.426 290.084 420.018 289.676C419.634 289.244 419.442 288.656 419.442 287.912V266.708C419.442 265.94 419.634 265.352 420.018 264.944C420.426 264.536 421.002 264.332 421.746 264.332C422.49 264.332 423.054 264.536 423.438 264.944C423.846 265.352 424.05 265.94 424.05 266.708V287.912C424.05 288.656 423.858 289.244 423.474 289.676C423.09 290.084 422.514 290.288 421.746 290.288ZM431.366 290.288C430.646 290.288 430.094 290.096 429.71 289.712C429.326 289.304 429.134 288.728 429.134 287.984V274.376C429.134 273.632 429.326 273.068 429.71 272.684C430.094 272.3 430.634 272.108 431.33 272.108C432.026 272.108 432.566 272.3 432.95 272.684C433.334 273.068 433.526 273.632 433.526 274.376V276.824L433.13 275.924C433.658 274.652 434.474 273.692 435.578 273.044C436.706 272.372 437.978 272.036 439.394 272.036C440.81 272.036 441.974 272.3 442.886 272.828C443.798 273.356 444.482 274.16 444.938 275.24C445.394 276.296 445.622 277.64 445.622 279.272V287.984C445.622 288.728 445.43 289.304 445.046 289.712C444.662 290.096 444.11 290.288 443.39 290.288C442.67 290.288 442.106 290.096 441.698 289.712C441.314 289.304 441.122 288.728 441.122 287.984V279.488C441.122 278.12 440.858 277.124 440.33 276.5C439.826 275.876 439.034 275.564 437.954 275.564C436.634 275.564 435.578 275.984 434.786 276.824C434.018 277.64 433.634 278.732 433.634 280.1V287.984C433.634 289.52 432.878 290.288 431.366 290.288ZM456.6 290.36C455.568 290.36 454.476 290.252 453.324 290.036C452.172 289.82 451.14 289.448 450.228 288.92C449.844 288.68 449.568 288.404 449.4 288.092C449.256 287.756 449.196 287.432 449.22 287.12C449.268 286.784 449.388 286.496 449.58 286.256C449.796 286.016 450.06 285.86 450.372 285.788C450.708 285.716 451.068 285.776 451.452 285.968C452.412 286.424 453.312 286.748 454.152 286.94C454.992 287.108 455.82 287.192 456.636 287.192C457.788 287.192 458.64 287 459.192 286.616C459.768 286.208 460.056 285.68 460.056 285.032C460.056 284.48 459.864 284.06 459.48 283.772C459.12 283.46 458.568 283.232 457.824 283.088L454.224 282.404C452.736 282.116 451.596 281.576 450.804 280.784C450.036 279.968 449.652 278.924 449.652 277.652C449.652 276.5 449.964 275.504 450.588 274.664C451.236 273.824 452.124 273.176 453.252 272.72C454.38 272.264 455.676 272.036 457.14 272.036C458.196 272.036 459.18 272.156 460.092 272.396C461.028 272.612 461.928 272.96 462.792 273.44C463.152 273.632 463.392 273.884 463.512 274.196C463.656 274.508 463.692 274.832 463.62 275.168C463.548 275.48 463.404 275.768 463.188 276.032C462.972 276.272 462.696 276.428 462.36 276.5C462.048 276.548 461.688 276.476 461.28 276.284C460.536 275.9 459.816 275.624 459.12 275.456C458.448 275.288 457.8 275.204 457.176 275.204C456 275.204 455.124 275.408 454.548 275.816C453.996 276.224 453.72 276.764 453.72 277.436C453.72 277.94 453.888 278.36 454.224 278.696C454.56 279.032 455.076 279.26 455.772 279.38L459.372 280.064C460.932 280.352 462.108 280.88 462.9 281.648C463.716 282.416 464.124 283.448 464.124 284.744C464.124 286.496 463.44 287.876 462.072 288.884C460.704 289.868 458.88 290.36 456.6 290.36ZM469.93 290.252C469.21 290.252 468.658 290.036 468.274 289.604C467.89 289.172 467.698 288.572 467.698 287.804V274.592C467.698 273.8 467.89 273.2 468.274 272.792C468.658 272.36 469.21 272.144 469.93 272.144C470.65 272.144 471.202 272.36 471.586 272.792C471.994 273.2 472.198 273.8 472.198 274.592V287.804C472.198 288.572 472.006 289.172 471.622 289.604C471.238 290.036 470.674 290.252 469.93 290.252ZM469.93 268.796C469.09 268.796 468.43 268.592 467.95 268.184C467.494 267.752 467.266 267.164 467.266 266.42C467.266 265.652 467.494 265.064 467.95 264.656C468.43 264.248 469.09 264.044 469.93 264.044C470.794 264.044 471.454 264.248 471.91 264.656C472.366 265.064 472.594 265.652 472.594 266.42C472.594 267.164 472.366 267.752 471.91 268.184C471.454 268.592 470.794 268.796 469.93 268.796ZM485.046 296.84C483.75 296.84 482.49 296.72 481.266 296.48C480.066 296.24 478.974 295.868 477.99 295.364C477.534 295.124 477.222 294.836 477.054 294.5C476.91 294.164 476.862 293.816 476.91 293.456C476.982 293.12 477.126 292.82 477.342 292.556C477.582 292.292 477.87 292.112 478.206 292.016C478.542 291.92 478.89 291.968 479.25 292.16C480.306 292.688 481.302 293.024 482.238 293.168C483.198 293.336 484.014 293.42 484.686 293.42C486.294 293.42 487.494 293.024 488.286 292.232C489.102 291.464 489.51 290.312 489.51 288.776V285.536H489.834C489.474 286.76 488.718 287.744 487.566 288.488C486.438 289.208 485.154 289.568 483.714 289.568C482.13 289.568 480.75 289.208 479.574 288.488C478.398 287.744 477.486 286.712 476.838 285.392C476.19 284.072 475.866 282.536 475.866 280.784C475.866 279.464 476.046 278.276 476.406 277.22C476.79 276.14 477.318 275.216 477.99 274.448C478.686 273.68 479.514 273.092 480.474 272.684C481.458 272.252 482.538 272.036 483.714 272.036C485.202 272.036 486.498 272.408 487.602 273.152C488.73 273.872 489.462 274.832 489.798 276.032L489.438 276.932V274.376C489.438 273.632 489.63 273.068 490.014 272.684C490.422 272.3 490.974 272.108 491.67 272.108C492.39 272.108 492.942 272.3 493.326 272.684C493.71 273.068 493.902 273.632 493.902 274.376V288.236C493.902 291.092 493.146 293.24 491.634 294.68C490.122 296.12 487.926 296.84 485.046 296.84ZM484.938 286.148C485.874 286.148 486.678 285.932 487.35 285.5C488.022 285.068 488.538 284.456 488.898 283.664C489.282 282.848 489.474 281.888 489.474 280.784C489.474 279.128 489.066 277.832 488.25 276.896C487.434 275.936 486.33 275.456 484.938 275.456C484.002 275.456 483.198 275.672 482.526 276.104C481.854 276.536 481.326 277.148 480.942 277.94C480.582 278.732 480.402 279.68 480.402 280.784C480.402 282.44 480.81 283.748 481.626 284.708C482.442 285.668 483.546 286.148 484.938 286.148ZM500.761 290.288C500.041 290.288 499.489 290.096 499.105 289.712C498.721 289.304 498.529 288.728 498.529 287.984V266.6C498.529 265.856 498.721 265.292 499.105 264.908C499.489 264.524 500.041 264.332 500.761 264.332C501.481 264.332 502.033 264.524 502.417 264.908C502.825 265.292 503.029 265.856 503.029 266.6V275.924H502.525C503.053 274.652 503.869 273.692 504.973 273.044C506.101 272.372 507.373 272.036 508.789 272.036C510.205 272.036 511.369 272.3 512.281 272.828C513.193 273.356 513.877 274.16 514.333 275.24C514.789 276.296 515.017 277.64 515.017 279.272V287.984C515.017 288.728 514.825 289.304 514.441 289.712C514.057 290.096 513.505 290.288 512.785 290.288C512.065 290.288 511.501 290.096 511.093 289.712C510.709 289.304 510.517 288.728 510.517 287.984V279.488C510.517 278.12 510.253 277.124 509.725 276.5C509.221 275.876 508.429 275.564 507.349 275.564C506.029 275.564 504.973 275.984 504.181 276.824C503.413 277.64 503.029 278.732 503.029 280.1V287.984C503.029 289.52 502.273 290.288 500.761 290.288ZM527.615 290.36C526.055 290.36 524.747 290.096 523.691 289.568C522.659 289.04 521.891 288.272 521.387 287.264C520.883 286.232 520.631 284.96 520.631 283.448V275.78H518.759C518.183 275.78 517.739 275.636 517.427 275.348C517.115 275.036 516.959 274.616 516.959 274.088C516.959 273.536 517.115 273.116 517.427 272.828C517.739 272.54 518.183 272.396 518.759 272.396H520.631V269.12C520.631 268.376 520.823 267.812 521.207 267.428C521.615 267.044 522.179 266.852 522.899 266.852C523.619 266.852 524.171 267.044 524.555 267.428C524.939 267.812 525.131 268.376 525.131 269.12V272.396H528.947C529.523 272.396 529.967 272.54 530.279 272.828C530.591 273.116 530.747 273.536 530.747 274.088C530.747 274.616 530.591 275.036 530.279 275.348C529.967 275.636 529.523 275.78 528.947 275.78H525.131V283.196C525.131 284.348 525.383 285.212 525.887 285.788C526.391 286.364 527.207 286.652 528.335 286.652C528.743 286.652 529.103 286.616 529.415 286.544C529.727 286.472 530.003 286.424 530.243 286.4C530.531 286.376 530.771 286.472 530.963 286.688C531.155 286.88 531.251 287.288 531.251 287.912C531.251 288.392 531.167 288.824 530.999 289.208C530.855 289.568 530.579 289.82 530.171 289.964C529.859 290.06 529.451 290.144 528.947 290.216C528.443 290.312 527.999 290.36 527.615 290.36ZM539.776 290.36C538.744 290.36 537.652 290.252 536.5 290.036C535.348 289.82 534.316 289.448 533.404 288.92C533.02 288.68 532.744 288.404 532.576 288.092C532.432 287.756 532.372 287.432 532.396 287.12C532.444 286.784 532.564 286.496 532.756 286.256C532.972 286.016 533.236 285.86 533.548 285.788C533.884 285.716 534.244 285.776 534.628 285.968C535.588 286.424 536.488 286.748 537.328 286.94C538.168 287.108 538.996 287.192 539.812 287.192C540.964 287.192 541.816 287 542.368 286.616C542.944 286.208 543.232 285.68 543.232 285.032C543.232 284.48 543.04 284.06 542.656 283.772C542.296 283.46 541.744 283.232 541 283.088L537.4 282.404C535.912 282.116 534.772 281.576 533.98 280.784C533.212 279.968 532.828 278.924 532.828 277.652C532.828 276.5 533.14 275.504 533.764 274.664C534.412 273.824 535.3 273.176 536.428 272.72C537.556 272.264 538.852 272.036 540.316 272.036C541.372 272.036 542.356 272.156 543.268 272.396C544.204 272.612 545.104 272.96 545.968 273.44C546.328 273.632 546.568 273.884 546.688 274.196C546.832 274.508 546.868 274.832 546.796 275.168C546.724 275.48 546.58 275.768 546.364 276.032C546.148 276.272 545.872 276.428 545.536 276.5C545.224 276.548 544.864 276.476 544.456 276.284C543.712 275.9 542.992 275.624 542.296 275.456C541.624 275.288 540.976 275.204 540.352 275.204C539.176 275.204 538.3 275.408 537.724 275.816C537.172 276.224 536.896 276.764 536.896 277.436C536.896 277.94 537.064 278.36 537.4 278.696C537.736 279.032 538.252 279.26 538.948 279.38L542.548 280.064C544.108 280.352 545.284 280.88 546.076 281.648C546.892 282.416 547.3 283.448 547.3 284.744C547.3 286.496 546.616 287.876 545.248 288.884C543.88 289.868 542.056 290.36 539.776 290.36Z" fill="#F07C33"/>
<path d="M705.552 348.47C705.552 348.614 557.447 348.73 374.792 348.73C192.074 348.73 44 348.613 44 348.47C44 348.327 192.074 348.21 374.792 348.21C557.447 348.209 705.552 348.326 705.552 348.47Z" fill="#263238"/>
<path d="M87.1501 326.118C87.1421 326.114 87.1941 325.99 87.3021 325.753C87.4231 325.495 87.5851 325.149 87.7921 324.708C88.2081 323.785 88.7501 322.386 89.2321 320.526C90.1851 316.807 90.5171 311.125 89.1091 304.374C88.4551 300.994 87.4011 297.369 86.1131 293.525C84.8451 289.675 83.3721 285.589 82.1701 281.174C80.9801 276.769 80.0421 271.986 80.2231 266.973C80.4061 261.95 81.8921 256.936 83.5281 251.945C85.1601 246.946 86.8481 242.06 87.3541 237.145C87.9261 232.239 86.8761 227.422 84.6411 223.476C82.4761 219.488 79.7531 216.077 77.7141 212.543C75.6441 209.021 74.3491 205.4 73.5511 202.033C72.0041 195.243 72.5461 189.521 73.2871 185.75C74.0901 181.959 74.9861 180 74.9861 180C74.9941 180.003 74.9601 180.133 74.8851 180.382C74.8001 180.654 74.6861 181.019 74.5411 181.484C74.2411 182.453 73.8531 183.899 73.4851 185.788C72.8081 189.551 72.3291 195.233 73.9071 201.949C74.7211 205.28 76.0211 208.853 78.0841 212.326C80.1171 215.817 82.8531 219.214 85.0601 223.249C87.3421 227.239 88.4391 232.212 87.8581 237.195C87.3491 242.193 85.6481 247.112 84.0201 252.105C82.3851 257.092 80.9151 262.053 80.7291 266.992C80.5441 271.928 81.4591 276.665 82.6301 281.049C83.8131 285.443 85.2681 289.529 86.5211 293.391C87.7921 297.246 88.8341 300.901 89.4681 304.304C90.8391 311.104 90.4481 316.844 89.4271 320.575C88.9111 322.443 88.3351 323.839 87.8861 324.751C87.6591 325.184 87.4811 325.523 87.3481 325.777C87.2251 326.007 87.1581 326.122 87.1501 326.118Z" fill="#263238"/>
<path d="M80.4811 216.029C80.4811 216.029 76.3421 202.794 83.7671 195.044C84.0281 194.772 84.4861 194.901 84.5541 195.271C84.9501 197.457 85.4461 204.114 80.4811 216.029Z" fill="#E8505B"/>
<path d="M82.9611 199.454C83.0311 199.468 82.9131 200.399 82.6821 201.896C82.4101 203.578 82.0911 205.552 81.7381 207.734C81.3921 209.916 81.0781 211.89 80.8111 213.571C80.5841 215.066 80.4481 215.993 80.3731 215.987C80.3061 215.982 80.3131 215.04 80.4471 213.527C80.5841 212.015 80.8501 209.934 81.2261 207.651C81.5991 205.368 81.9981 203.311 82.3211 201.83C82.6451 200.347 82.8911 199.44 82.9611 199.454Z" fill="#263238"/>
<path d="M85.3431 247.244C85.3431 247.244 87.8741 233.61 98.0611 230.232C98.4191 230.114 98.7641 230.442 98.6501 230.801C97.9791 232.919 95.3031 239.035 85.3431 247.244Z" fill="#E8505B"/>
<path d="M95.2861 233.754C95.3421 233.799 94.8021 234.567 93.8981 235.782C92.8711 237.141 91.6651 238.737 90.3341 240.5C89.0071 242.266 87.8071 243.865 86.7851 245.226C85.8861 246.441 85.3321 247.197 85.2681 247.156C85.2111 247.12 85.6581 246.291 86.4841 245.016C87.3121 243.743 88.5211 242.029 89.9201 240.186C91.3181 238.342 92.6321 236.711 93.6111 235.553C94.5891 234.395 95.2311 233.708 95.2861 233.754Z" fill="#263238"/>
<path d="M82.5901 281.449C82.5901 281.449 81.0521 267.667 89.8191 261.477C90.1271 261.26 90.5531 261.473 90.5481 261.85C90.5201 264.071 89.7371 270.7 82.5901 281.449Z" fill="#E8505B"/>
<path d="M88.1871 265.652C88.2531 265.679 87.9591 266.571 87.4481 267.996C86.8601 269.595 86.1701 271.472 85.4071 273.546C84.6511 275.622 83.9671 277.5 83.3841 279.099C82.8761 280.523 82.5661 281.407 82.4931 281.387C82.4281 281.369 82.6151 280.446 83.0351 278.986C83.4581 277.528 84.1161 275.536 84.9201 273.366C85.7221 271.196 86.5061 269.253 87.1061 267.861C87.7061 266.468 88.1211 265.625 88.1871 265.652Z" fill="#263238"/>
<path d="M90.2641 315.853C90.2641 315.853 89.2211 302.025 98.2031 296.152C98.5181 295.946 98.9361 296.175 98.9181 296.551C98.8111 298.77 97.7901 305.368 90.2641 315.853Z" fill="#E8505B"/>
<path d="M96.4221 300.266C96.4871 300.295 96.1621 301.176 95.5991 302.582C94.9541 304.159 94.1971 306.01 93.3611 308.056C92.5311 310.103 91.7801 311.956 91.1401 313.533C90.5821 314.938 90.2401 315.81 90.1671 315.787C90.1031 315.767 90.3221 314.851 90.7951 313.407C91.2701 311.965 91.9991 309.998 92.8811 307.858C93.7601 305.718 94.6131 303.805 95.2631 302.435C95.9131 301.064 96.3571 300.236 96.4221 300.266Z" fill="#263238"/>
<path d="M74.5331 204.4C74.5331 204.4 62.2411 197.981 62.0001 187.252C61.9921 186.875 62.4071 186.641 62.7171 186.856C64.5441 188.118 69.6061 192.47 74.5331 204.4Z" fill="#E8505B"/>
<path d="M64.5531 190.937C64.6131 190.897 65.1881 191.639 66.0851 192.859C67.0831 194.24 68.2551 195.86 69.5501 197.651C70.8501 199.437 72.0261 201.053 73.0281 202.43C73.9261 203.646 74.4861 204.397 74.4281 204.446C74.3771 204.49 73.7151 203.82 72.7391 202.656C71.7651 201.491 70.4811 199.833 69.1291 197.954C67.7761 196.077 66.6021 194.342 65.7821 193.067C64.9621 191.792 64.4931 190.977 64.5531 190.937Z" fill="#263238"/>
<path d="M87.7331 232.824C87.7331 232.824 75.0741 227.163 74.1821 216.468C74.1511 216.092 74.5511 215.834 74.8731 216.029C76.7731 217.179 82.0901 221.216 87.7331 232.824Z" fill="#E8505B"/>
<path d="M76.9531 219.991C77.0101 219.947 77.6291 220.653 78.5981 221.817C79.6781 223.135 80.9471 224.681 82.3481 226.389C83.7541 228.093 85.0261 229.635 86.1091 230.948C87.0791 232.108 87.6841 232.823 87.6291 232.876C87.5811 232.923 86.8801 232.294 85.8351 231.192C84.7921 230.088 83.4101 228.511 81.9461 226.718C80.4821 224.926 79.2041 223.266 78.3091 222.043C77.4131 220.819 76.8961 220.035 76.9531 219.991Z" fill="#263238"/>
<path d="M80.4491 264.53C80.4491 264.53 71.7571 253.725 75.8341 243.797C75.9771 243.448 76.4511 243.4 76.6491 243.721C77.8171 245.61 80.7121 251.625 80.4491 264.53Z" fill="#E8505B"/>
<path d="M76.6961 248.196C76.7671 248.183 76.9971 249.093 77.3291 250.571C77.6911 252.236 78.1151 254.19 78.5851 256.35C79.0601 258.507 79.4911 260.459 79.8571 262.122C80.1931 263.596 80.4051 264.509 80.3321 264.531C80.2681 264.551 79.9301 263.672 79.5021 262.214C79.0761 260.757 78.5641 258.723 78.0781 256.46C77.5911 254.198 77.2101 252.138 76.9691 250.641C76.7281 249.143 76.6251 248.209 76.6961 248.196Z" fill="#263238"/>
<path d="M89.0581 301.84C89.0581 301.84 76.4961 295.967 75.7831 285.259C75.7581 284.883 76.1631 284.631 76.4821 284.831C78.3631 286.013 83.6121 290.138 89.0581 301.84Z" fill="#E8505B"/>
<path d="M78.4951 288.829C78.5531 288.787 79.1601 289.502 80.1101 290.682C81.1681 292.017 82.4101 293.585 83.7831 295.317C85.1601 297.044 86.4061 298.607 87.4671 299.939C88.4181 301.115 89.0101 301.84 88.9551 301.892C88.9061 301.938 88.2151 301.298 87.1891 300.178C86.1651 299.057 84.8091 297.457 83.3761 295.639C81.9421 293.823 80.6931 292.142 79.8181 290.903C78.9421 289.665 78.4381 288.871 78.4951 288.829Z" fill="#263238"/>
<path d="M114.08 247.318C114.092 247.319 114.097 247.423 114.096 247.624C114.09 247.865 114.083 248.157 114.074 248.51C114.037 249.343 113.987 250.468 113.925 251.872C113.763 254.828 113.537 258.95 113.267 263.88L113.266 263.892L113.263 263.909C112.366 268.927 109.811 274.489 106.378 279.888C103.86 283.866 101.22 287.482 98.9441 290.846C96.6531 294.2 94.7191 297.306 93.3701 300.059C92.0131 302.808 91.2241 305.17 90.7631 306.82C90.5421 307.648 90.3761 308.294 90.2811 308.737C90.1781 309.177 90.1151 309.408 90.0971 309.405C90.0791 309.402 90.1081 309.165 90.1781 308.717C90.2411 308.267 90.3751 307.611 90.5671 306.77C90.9711 305.095 91.7131 302.693 93.0401 299.9C94.3571 297.103 96.2731 293.955 98.5471 290.579C100.808 287.192 103.433 283.57 105.938 279.612C109.353 274.239 111.895 268.762 112.825 263.824L112.821 263.852C113.167 258.926 113.456 254.809 113.664 251.856C113.777 250.455 113.868 249.333 113.935 248.501C113.97 248.149 114 247.859 114.024 247.619C114.05 247.419 114.069 247.317 114.08 247.318Z" fill="#263238"/>
<path d="M106.6 278.856C106.6 278.856 111.92 266.05 105.228 257.66C104.993 257.366 104.524 257.452 104.424 257.815C103.831 259.956 102.735 266.541 106.6 278.856Z" fill="#E8505B"/>
<path d="M105.631 262.125C105.702 262.117 105.865 263.043 106.053 264.548C106.241 266.053 106.452 268.137 106.617 270.444C106.784 272.752 106.861 274.848 106.86 276.367C106.857 277.886 106.778 278.825 106.711 278.824C106.635 278.823 106.584 277.888 106.493 276.379C106.38 274.68 106.246 272.686 106.099 270.482C105.945 268.278 105.806 266.283 105.687 264.583C105.594 263.07 105.56 262.132 105.631 262.125Z" fill="#263238"/>
<g opacity="0.3">
<path d="M106.6 278.856C106.6 278.856 111.92 266.05 105.228 257.66C104.993 257.366 104.524 257.452 104.424 257.815C103.831 259.956 102.735 266.541 106.6 278.856Z" fill="black"/>
</g>
<path d="M90.1221 309.717C90.1221 309.717 94.3861 296.522 87.0361 288.702C86.7781 288.427 86.3181 288.552 86.2471 288.922C85.8291 291.104 85.2711 297.756 90.1221 309.717Z" fill="#E8505B"/>
<path d="M87.7991 293.119C87.8691 293.106 88.1071 294.015 88.4161 295.5C88.7261 296.984 89.1051 299.044 89.4561 301.331C89.8091 303.618 90.0561 305.701 90.1791 307.215C90.2991 308.729 90.2971 309.671 90.2301 309.676C90.1541 309.681 90.0271 308.753 89.8151 307.256C89.5641 305.572 89.2691 303.595 88.9441 301.41C88.6121 299.225 88.3111 297.248 88.0551 295.564C87.8391 294.064 87.7291 293.132 87.7991 293.119Z" fill="#263238"/>
<g opacity="0.3">
<path d="M90.1221 309.717C90.1221 309.717 94.3861 296.522 87.0361 288.702C86.7781 288.427 86.3181 288.552 86.2471 288.922C85.8291 291.104 85.2711 297.756 90.1221 309.717Z" fill="black"/>
</g>
<path d="M113.376 263.206C113.376 263.206 124.736 255.253 123.59 244.583C123.55 244.208 123.108 244.03 122.828 244.282C121.179 245.771 116.721 250.74 113.376 263.206Z" fill="#E8505B"/>
<g opacity="0.3">
<path d="M113.376 263.206C113.376 263.206 124.736 255.253 123.59 244.583C123.55 244.208 123.108 244.03 122.828 244.282C121.179 245.771 116.721 250.74 113.376 263.206Z" fill="black"/>
</g>
<path d="M121.534 248.566C121.598 248.598 121.239 249.466 120.59 250.837C119.942 252.208 119.001 254.08 117.902 256.116C116.804 258.153 115.745 259.964 114.93 261.245C114.112 262.525 113.543 263.275 113.486 263.238C113.422 263.196 113.881 262.38 114.614 261.057C115.43 259.562 116.387 257.808 117.445 255.869C118.498 253.926 119.451 252.168 120.263 250.67C120.996 249.344 121.47 248.535 121.534 248.566Z" fill="#263238"/>
<path d="M94.7031 296.634C94.7031 296.634 108.405 294.498 112.075 284.413C112.204 284.059 111.886 283.704 111.523 283.808C109.387 284.418 103.196 286.916 94.7031 296.634Z" fill="#E8505B"/>
<g opacity="0.3">
<path d="M94.7031 296.634C94.7031 296.634 108.405 294.498 112.075 284.413C112.204 284.059 111.886 283.704 111.523 283.808C109.387 284.418 103.196 286.916 94.7031 296.634Z" fill="black"/>
</g>
<path d="M108.475 287.085C108.519 287.142 107.813 287.763 106.627 288.708C105.441 289.653 103.773 290.919 101.889 292.263C100.006 293.609 98.2581 294.767 96.9621 295.559C95.6641 296.348 94.8221 296.771 94.7881 296.713C94.7491 296.648 95.5211 296.116 96.7611 295.252C98.1521 294.269 99.7841 293.116 101.588 291.841C103.389 290.561 105.019 289.401 106.407 288.414C107.648 287.546 108.431 287.028 108.475 287.085Z" fill="#263238"/>
<path d="M81.6321 321.851L77.6351 348.752H102.543L99.3131 321.851H81.6321Z" fill="#455A64"/>
<path d="M100.309 330.187C100.309 330.33 95.8121 330.446 90.2651 330.446C84.7171 330.446 80.2211 330.33 80.2211 330.187C80.2211 330.044 84.7171 329.928 90.2651 329.928C95.8121 329.927 100.309 330.043 100.309 330.187Z" fill="#263238"/>
<path d="M100.803 332.327C100.803 332.47 96.1581 332.586 90.4301 332.586C84.7001 332.586 80.0561 332.47 80.0561 332.327C80.0561 332.184 84.7001 332.068 90.4301 332.068C96.1581 332.068 100.803 332.184 100.803 332.327Z" fill="#263238"/>
<defs>
<filter id="filter0_f_4037_1070" x="35" y="25" width="593.933" height="202.823" filterUnits="userSpaceOnUse" color-interpolation-filters="sRGB">
<feFlood flood-opacity="0" result="BackgroundImageFix"/>
<feBlend mode="normal" in="SourceGraphic" in2="BackgroundImageFix" result="shape"/>
<feGaussianBlur stdDeviation="3.5" result="effect1_foregroundBlur_4037_1070"/>
</filter>
</defs>
</svg>
