<svg width="333" height="222" viewBox="0 0 333 222" fill="none" xmlns="http://www.w3.org/2000/svg">
<path d="M296.125 66.7218L291.876 87.2985L289.143 84.6323L284.488 87.9499L280.933 83.5361L272.956 89.3347L266.144 77.9368L258.541 82.3892L255.527 78.2321L245.874 83.6711L242.969 77.4537L249.735 44.6816L286.012 52.1715L296.125 66.7218Z" fill="#EBEBEB"/>
<path d="M286.012 52.1719L296.126 66.7204L283.545 64.123L286.012 52.1719Z" fill="#DBDBDB"/>
<path d="M290.972 91.4112L284.74 121.601L235.88 111.516L242.065 81.5664L244.97 87.7833L254.623 82.3443L257.637 86.5019L265.24 82.0495L272.052 93.447L280.03 87.6483L283.585 92.0621L288.239 88.745L290.972 91.4112Z" fill="#EBEBEB"/>
<path d="M221.038 87.8736L171.243 90.9549L167.288 27.034L204.26 24.7461L217.836 36.1325L221.038 87.8736Z" fill="#EBEBEB"/>
<path d="M204.26 24.7461L217.836 36.1325L205.014 36.9259L204.26 24.7461Z" fill="#DBDBDB"/>
<path d="M190.456 67.7526L190.264 66.3109C189.761 63.3224 190.58 59.9804 193.177 56.4834C195.518 53.3914 196.788 51.1412 196.648 48.6357C196.489 45.7955 194.601 44.0017 191.089 44.1424C189.084 44.2548 186.894 45.0478 185.561 46.184L184.028 42.7501C185.791 41.3106 188.915 40.2419 191.867 40.0763C198.271 39.7175 201.388 43.5097 201.625 47.7415C201.837 51.5288 199.874 54.3758 197.378 57.7C195.09 60.733 194.337 63.2336 194.663 66.0641L194.8 67.5088L190.456 67.7526ZM189.668 75.6176C189.552 73.557 190.864 72.031 192.812 71.9218C194.761 71.8125 196.179 73.1858 196.295 75.2464C196.404 77.1956 195.207 78.7709 193.147 78.8863C191.198 78.9956 189.777 77.5668 189.668 75.6176Z" fill="#DBDBDB"/>
<path d="M65.9256 56.8837L60.9146 54.6113L60.2197 56.1458C60.0155 56.5969 59.5728 56.8851 59.0778 56.9068C58.8042 56.9188 58.5307 56.9459 58.2586 56.9872C57.7702 57.0618 57.2809 56.8651 56.9932 56.4637L56.0124 55.0944L51.5382 58.3001L52.519 59.6689C52.8067 60.0707 52.8356 60.5969 52.6082 61.0356C52.4812 61.2798 52.368 61.5302 52.2686 61.7855C52.0887 62.2472 51.6736 62.5736 51.1808 62.622L49.5042 62.7863L50.0446 68.2617L51.7269 68.0943C52.2202 68.045 52.6868 68.2905 52.9545 68.7079C53.0274 68.8211 53.1033 68.933 53.1819 69.0431C53.2609 69.1532 53.3422 69.2611 53.4261 69.3663C53.7333 69.7522 53.8159 70.2703 53.6126 70.7196L52.9128 72.2652L57.9238 74.5376L58.6218 73C58.8265 72.5489 59.27 72.2612 59.7651 72.2399C60.0377 72.2284 60.3099 72.2017 60.5811 72.1609C61.0691 72.0872 61.5575 72.2834 61.8452 72.6848L62.8264 74.0545L67.3006 70.8489L66.3194 69.4791C66.0321 69.0777 66.0028 68.552 66.2297 68.1138C66.3558 67.8705 66.4681 67.621 66.5667 67.3666C66.7461 66.9048 67.1608 66.5776 67.6541 66.5287L69.3342 66.3622L68.7938 60.8868L67.1128 61.0529C66.6213 61.1013 66.156 60.8566 65.8892 60.4406C65.8159 60.3269 65.7395 60.2142 65.6601 60.1027C65.581 59.9926 65.4998 59.8847 65.4159 59.7795C65.1068 59.3919 65.0242 58.8711 65.2289 58.4195L65.9256 56.8837ZM63.0831 61.9493C64.5327 63.9726 64.0679 66.7854 62.045 68.235C60.0217 69.6847 57.2054 69.2225 55.7557 67.1992C54.3061 65.1759 54.7718 62.3569 56.7951 60.9072C58.818 59.458 61.6334 59.9264 63.0831 61.9493Z" fill="#EBEBEB"/>
<path d="M292.322 129.522L288.984 131.449L289.574 132.471C289.748 132.771 289.731 133.141 289.542 133.431C289.437 133.592 289.341 133.759 289.253 133.93C289.096 134.239 288.785 134.437 288.439 134.437H287.259V138.293H288.439C288.785 138.293 289.096 138.492 289.253 138.8C289.341 138.972 289.437 139.139 289.542 139.299C289.731 139.59 289.748 139.959 289.574 140.26L288.984 141.282L292.322 143.208L292.913 142.182C293.087 141.881 293.417 141.715 293.764 141.733C293.858 141.738 293.952 141.74 294.047 141.74C294.142 141.74 294.237 141.738 294.331 141.733C294.677 141.715 295.005 141.879 295.178 142.179L295.772 143.208L299.111 141.281L298.52 140.257C298.346 139.956 298.364 139.586 298.554 139.296C298.658 139.136 298.754 138.97 298.841 138.799C298.998 138.491 299.31 138.293 299.656 138.293H300.836V134.437H299.656C299.31 134.437 298.998 134.239 298.841 133.931C298.754 133.76 298.658 133.594 298.554 133.434C298.364 133.143 298.347 132.774 298.52 132.473L299.111 131.448L295.772 129.521L295.181 130.547C295.008 130.846 294.679 131.012 294.333 130.994C294.238 130.989 294.143 130.987 294.047 130.987C293.952 130.987 293.857 130.989 293.763 130.994C293.417 131.012 293.086 130.846 292.913 130.545L292.322 129.522ZM294.048 133.208C295.791 133.208 297.204 134.62 297.204 136.364C297.204 138.108 295.791 139.523 294.048 139.523C292.304 139.523 290.889 138.108 290.889 136.364C290.889 134.62 292.304 133.208 294.048 133.208Z" fill="#EBEBEB"/>
<path d="M76.0585 40.4775L72.9967 42.8187L73.7138 43.7555C73.9247 44.0312 73.9557 44.3998 73.8057 44.7123C73.7222 44.8851 73.6485 45.0627 73.5841 45.2447C73.4687 45.5706 73.185 45.8077 72.8418 45.8525L71.6718 46.0048L72.1695 49.8286L73.3395 49.6763C73.6827 49.6314 74.0175 49.7882 74.2124 50.0736C74.3212 50.233 74.4379 50.3858 74.5627 50.5314C74.7883 50.7951 74.8522 51.1597 74.719 51.4798L74.2657 52.5694L77.8248 54.0488L78.2781 52.9548C78.4113 52.6342 78.7172 52.4273 79.0635 52.3998C79.1577 52.3922 79.2518 52.3824 79.3459 52.3705C79.44 52.358 79.5337 52.3438 79.6261 52.3265C79.9662 52.2643 80.3134 52.3851 80.5234 52.6595L81.2458 53.6034L84.3081 51.2622L83.5901 50.3223C83.3792 50.0466 83.3486 49.6776 83.4995 49.365C83.5826 49.1927 83.6563 49.016 83.7206 48.8349C83.8365 48.5094 84.1198 48.2728 84.4626 48.2279L85.6329 48.0756L85.1352 44.2519L83.9648 44.4042C83.6221 44.4491 83.2877 44.2928 83.0924 44.0073C82.984 43.8488 82.8673 43.6969 82.743 43.5517C82.517 43.288 82.4521 42.9235 82.5853 42.6029L83.0391 41.5107L79.4796 40.0312L79.0253 41.1239C78.8926 41.4436 78.5871 41.6496 78.2421 41.6767C78.148 41.6843 78.053 41.694 77.9575 41.7065C77.8634 41.7189 77.7697 41.7331 77.6769 41.75C77.335 41.8126 76.9865 41.6909 76.7752 41.4148L76.0585 40.4775ZM78.2448 43.9096C79.9737 43.6845 81.5566 44.9028 81.7817 46.6318C82.0068 48.3607 80.7889 49.9467 79.06 50.1718C77.331 50.3969 75.7446 49.1759 75.5195 47.4469C75.2944 45.718 76.5159 44.1347 78.2448 43.9096Z" fill="#EBEBEB"/>
<path d="M53.1996 140.651C53.3746 136.354 53.3044 132.05 53.0229 127.759C52.4422 118.91 50.9854 110.129 48.9847 101.495C47.8588 96.6345 46.4717 91.8566 45.0269 87.0836C44.9834 86.9393 44.7534 86.9802 44.7934 87.1302C49.2618 103.956 52.9279 121.32 52.6757 138.81C52.6051 143.705 52.0386 148.513 51.5737 153.377C51.5613 153.507 51.7753 153.559 51.805 153.425C52.7268 149.263 53.0265 144.902 53.1996 140.651Z" fill="#EBEBEB"/>
<path d="M44.7929 87.1309C44.7929 87.1309 38.0237 104.313 39.5391 108.351C41.0549 112.39 44.1793 113.251 44.1793 113.251C44.1793 113.251 40.0377 119.165 42.9317 124.711C45.8261 130.257 52.2566 129.995 52.6837 136.283C52.6837 136.283 53.042 109.989 44.7929 87.1309Z" fill="#EBEBEB"/>
<path d="M51.948 125.426C51.9564 125.397 51.9542 125.367 51.9409 125.336C50.9903 113.653 48.9177 102.007 45.375 90.7721C45.3648 90.7388 45.3102 90.7495 45.3191 90.7841C46.6604 95.8102 47.8539 100.863 48.8737 105.944C47.9946 105.039 46.8447 104.518 45.6423 104.142C45.6197 104.135 45.6086 104.168 45.6299 104.177C46.882 104.718 48.0812 105.346 48.9661 106.406C49.1637 107.402 49.3573 108.398 49.5411 109.396C48.0284 107.705 45.9305 106.867 43.8312 106.069C43.8015 106.058 43.786 106.103 43.8148 106.115C46.0011 107.006 48.1789 108.153 49.6601 110.036C50.1764 112.888 50.6284 115.749 51.0196 118.619C49.9136 117.464 48.5487 116.688 46.9832 116.306C46.9361 116.295 46.9099 116.364 46.9574 116.378C48.5661 116.841 49.9496 117.742 51.0511 119C51.0591 119.009 51.0676 119.014 51.0764 119.019C51.2119 120.029 51.3397 121.04 51.4596 122.052C50.608 121.326 49.6667 120.773 48.6304 120.346C48.6029 120.335 48.5883 120.377 48.6149 120.389C49.6676 120.837 50.6147 121.483 51.4485 122.264C51.4605 122.275 51.4725 122.274 51.4845 122.278C51.5972 123.241 51.7096 124.203 51.8068 125.167C50.255 123.297 48.3361 121.944 46.0654 121.068C46.021 121.051 45.9984 121.119 46.041 121.137C48.2486 122.097 50.1947 123.618 51.6994 125.491C51.7407 125.543 51.7944 125.551 51.8419 125.536C51.9884 127.015 52.1194 128.495 52.2277 129.979C52.2291 130 52.2624 130.001 52.2615 129.981C52.1767 128.462 52.0705 126.944 51.948 125.426Z" fill="white"/>
<path d="M46.509 102.434C45.3351 101.627 43.8432 101.283 42.442 101.166C42.4082 101.163 42.4056 101.213 42.4384 101.218C43.8961 101.434 45.1206 101.962 46.4597 102.531C46.5179 102.556 46.5596 102.469 46.509 102.434Z" fill="white"/>
<path d="M47.3308 120.625C46.402 120.067 45.3422 119.752 44.2779 119.58C44.2406 119.575 44.2375 119.632 44.2739 119.638C45.3546 119.834 46.3119 120.219 47.294 120.697C47.3357 120.718 47.3704 120.649 47.3308 120.625Z" fill="white"/>
<path d="M70.9952 108.632C68.1722 110.617 65.4629 112.905 63.1603 115.481C60.7059 118.225 58.9157 121.341 57.6654 124.799C55.104 131.883 53.7 139.557 53.5722 147.086C53.5002 151.307 53.8758 155.495 54.7789 159.62C54.8118 159.77 55.036 159.727 55.0134 159.576C53.9096 152.318 53.95 144.912 55.1359 137.667C56.2996 130.559 58.1258 122.826 62.644 117.05C65.1042 113.904 68.1718 111.43 71.2043 108.872C71.3628 108.738 71.159 108.516 70.9952 108.632Z" fill="#EBEBEB"/>
<path d="M54.568 141.968C54.568 141.968 56.8928 138.053 60.2792 134.668C63.6656 131.282 66.5179 128.876 66.9579 126.637C67.3983 124.398 63.5657 122.749 63.5657 122.749C63.5657 122.749 68.2521 123.59 69.5344 121.623C70.8167 119.657 71.4356 108.266 71.4356 108.266C71.4356 108.266 62.9104 114.352 58.9379 122.885C54.9659 131.417 54.568 141.968 54.568 141.968Z" fill="#EBEBEB"/>
<path d="M68.4857 111.186C64.8986 114.709 61.2884 118.463 59.1759 123.092C58.4517 124.679 57.8354 126.325 57.2929 128.001C57.2915 128.004 57.2915 128.007 57.2902 128.009C57.1814 128.345 57.0709 128.682 56.9683 129.02C56.9581 129.037 56.9528 129.056 56.951 129.076C55.9067 132.533 55.1683 136.107 54.529 139.599C54.525 139.622 54.5592 139.634 54.5636 139.611C54.9308 137.833 55.3362 136.039 55.7886 134.249C55.8046 134.25 55.8219 134.247 55.8397 134.239C56.5647 133.935 57.2942 133.744 58.077 133.671C58.128 133.667 58.124 133.578 58.0721 133.581C57.3168 133.617 56.5771 133.749 55.8592 133.984C56.2721 132.371 56.721 130.762 57.2258 129.176C58.8717 128.773 60.5896 128.555 62.2821 128.515C62.2994 128.515 62.3025 128.488 62.2843 128.488C60.578 128.408 58.9743 128.555 57.3124 128.91C57.4003 128.638 57.4918 128.367 57.5828 128.096C58.6941 127.843 59.8103 127.63 60.9474 127.526C60.9679 127.524 60.9661 127.489 60.9457 127.489C59.8321 127.52 58.7345 127.636 57.6512 127.89C58.1152 126.517 58.6164 125.164 59.1723 123.846C59.6323 122.755 60.1793 121.72 60.7818 120.721C61.6934 120.514 62.5769 120.318 63.5111 120.234C63.5368 120.232 63.5342 120.19 63.5089 120.189C62.6608 120.134 61.7777 120.197 60.9572 120.441C61.4056 119.717 61.8767 119.007 62.3811 118.32C64.293 117.896 66.231 117.503 68.1869 117.871C68.2206 117.877 68.233 117.82 68.1997 117.812C66.338 117.322 64.4901 117.605 62.6377 117.971C62.8398 117.702 63.0467 117.436 63.2553 117.172C64.4288 116.809 65.5961 116.634 66.8273 116.611C66.8526 116.611 66.8566 116.574 66.8304 116.571C65.7067 116.464 64.586 116.573 63.5 116.867C65.0806 114.903 66.8264 113.059 68.5523 111.235C68.6331 111.152 68.5709 111.102 68.4857 111.186Z" fill="white"/>
<path d="M68.3907 118.951C67.8294 118.891 67.2589 118.828 66.695 118.892C66.6266 118.899 66.6324 119.011 66.7012 119.013C67.2624 119.029 67.8237 118.987 68.3849 119.017C68.4279 119.02 68.4333 118.955 68.3907 118.951Z" fill="white"/>
<path d="M62.2541 130C61.3581 129.989 60.4635 130.23 59.6265 130.528C59.6057 130.535 59.6172 130.57 59.639 130.565C60.5065 130.359 61.3843 130.275 62.2608 130.13C62.3327 130.118 62.3292 130.001 62.2541 130Z" fill="white"/>
<path d="M60.4151 126.183C60.0514 126.164 59.6581 126.228 59.2998 126.284C59.2629 126.29 59.2651 126.35 59.3033 126.351C59.6656 126.357 60.0643 126.367 60.4213 126.298C60.4843 126.286 60.4817 126.187 60.4151 126.183Z" fill="white"/>
<path d="M29.5762 120.72C32.3196 121.673 35.0409 122.9 37.4998 124.451C40.1207 126.105 42.2897 128.213 44.1007 130.722C47.8108 135.863 50.7208 141.75 52.5647 147.813C53.5983 151.212 54.2626 154.688 54.485 158.235C54.493 158.364 54.3016 158.381 54.2852 158.253C53.5007 152.124 51.7562 146.14 49.1219 140.551C46.5374 135.067 43.2722 129.231 38.2804 125.601C35.5622 123.624 32.5079 122.33 29.4625 120.961C29.3031 120.89 29.4168 120.664 29.5762 120.72Z" fill="#EBEBEB"/>
<path d="M50.5756 143.902C50.5756 143.902 47.7891 141.27 44.2664 139.313C40.7432 137.356 37.879 136.068 37.0052 134.358C36.1314 132.647 38.8518 130.427 38.8518 130.427C38.8518 130.427 35.2536 132.191 33.7613 130.896C32.269 129.601 29.1353 120.525 29.1353 120.525C29.1353 120.525 37.4416 123.481 42.628 129.468C47.8148 135.455 50.5756 143.902 50.5756 143.902Z" fill="#EBEBEB"/>
<path d="M50.1431 142.03C45.9886 134.233 40.4453 127.178 32.8493 122.522C32.8458 122.52 32.8427 122.525 32.8458 122.527C34.8456 123.801 36.6882 125.271 38.4056 126.878C36.868 126.835 35.3029 127.08 33.9398 127.82C33.9096 127.837 33.9314 127.878 33.9624 127.867C35.4818 127.353 36.9412 127.015 38.5574 127.09C38.5796 127.091 38.5938 127.08 38.6094 127.071C38.8789 127.327 39.1448 127.586 39.4081 127.848C38.6089 127.882 37.8004 127.996 37.0216 128.165C37.0007 128.169 37.0065 128.202 37.0278 128.198C37.8705 128.035 38.6933 127.978 39.5484 127.99C40.9404 129.388 42.2373 130.885 43.4663 132.438C42.9113 132.357 42.3296 132.405 41.7977 132.56C41.7582 132.571 41.7684 132.628 41.8097 132.623C42.4149 132.546 42.9903 132.556 43.591 132.598C43.8184 132.888 44.0484 133.175 44.2712 133.468C42.5632 133.365 40.8897 133.53 39.2301 133.959C39.2056 133.965 39.2123 134.003 39.2376 133.998C40.9497 133.662 42.676 133.554 44.4155 133.661C44.6273 133.942 44.828 134.231 45.0358 134.515C44.0168 134.484 43.0285 134.612 42.0348 134.859C41.9971 134.868 42.0077 134.928 42.0464 134.919C43.0684 134.686 44.1079 134.627 45.1526 134.677C46.0464 135.908 46.9024 137.167 47.7251 138.441C47.2896 138.351 46.8322 138.4 46.4078 138.52C46.3851 138.526 46.3913 138.558 46.4149 138.556C46.9037 138.498 47.3602 138.562 47.8401 138.623C48.5798 139.775 49.2951 140.938 49.9802 142.108C50.0388 142.208 50.1982 142.134 50.1431 142.03Z" fill="white"/>
<path d="M43.6807 135.562C42.8686 135.492 42.0433 135.62 41.2676 135.857C41.2454 135.864 41.2507 135.898 41.2747 135.893C42.0734 135.746 42.8651 135.691 43.6745 135.647C43.7273 135.645 43.7376 135.567 43.6807 135.562Z" fill="white"/>
<path d="M36.4351 126.059C36.0679 126.017 35.6847 126.065 35.322 126.124C35.2789 126.131 35.2922 126.194 35.3349 126.19C35.7007 126.151 36.0617 126.164 36.428 126.153C36.4875 126.152 36.4972 126.066 36.4351 126.059Z" fill="white"/>
<path d="M61.2893 169.687H42.5396L45.213 150.103L45.8963 145.082H57.9327L58.6156 150.103L61.2893 169.687Z" fill="#DBDBDB"/>
<path d="M58.6155 150.103H45.213L45.8963 145.082H57.9327L58.6155 150.103Z" fill="#C7C7C7"/>
<path d="M59.6536 143.34H44.1749V147.592H59.6536V143.34Z" fill="#DBDBDB"/>
<path d="M30.62 169.688L64.368 169.58L98.116 169.541L165.612 169.467L233.108 169.541L266.856 169.58L300.604 169.688L266.856 169.797L233.108 169.836L165.612 169.91L98.116 169.836L64.368 169.796L30.62 169.688Z" fill="#263238"/>
<path d="M166.5 202.782C236.813 202.782 293.813 196.536 293.813 188.831C293.813 181.127 236.813 174.881 166.5 174.881C96.1867 174.881 39.1866 181.127 39.1866 188.831C39.1866 196.536 96.1867 202.782 166.5 202.782Z" fill="#EBEBEB"/>
<path d="M255.885 191.83H120.607L140.168 80.8965H275.445L255.885 191.83Z" fill="#F07C33"/>
<path d="M186.467 69.4082H142.194L140.168 80.8967H187.548L186.467 69.4082Z" fill="#F07C33"/>
<g opacity="0.1">
<path d="M255.885 191.83H120.607L140.168 80.8965H275.445L255.885 191.83Z" fill="black"/>
<path d="M186.467 69.4082H142.194L140.168 80.8967H187.548L186.467 69.4082Z" fill="black"/>
</g>
<path d="M137.417 74.0942C137.242 73.4504 137.202 72.8061 137.195 72.1623C137.201 71.5181 137.24 70.8743 137.417 70.2305C137.592 70.8743 137.632 71.5185 137.639 72.1623C137.631 72.8066 137.592 73.4504 137.417 74.0942Z" fill="#263238"/>
<path d="M133.482 75.2327C133.009 74.7625 132.653 74.2244 132.324 73.6707C132.008 73.1099 131.72 72.5323 131.551 71.8867C132.025 72.3565 132.381 72.8946 132.708 73.4487C133.024 74.0099 133.312 74.5876 133.482 75.2327Z" fill="#263238"/>
<path d="M130.644 78.1838C129.999 78.0133 129.422 77.7256 128.86 77.4099C128.306 77.0822 127.768 76.7261 127.298 76.252C127.944 76.4216 128.522 76.7093 129.082 77.0258C129.636 77.3544 130.174 77.71 130.644 78.1838Z" fill="#263238"/>
<path d="M129.663 82.1595C129.019 82.3344 128.375 82.374 127.731 82.3815C127.087 82.3748 126.443 82.3358 125.799 82.1595C126.443 81.9837 127.087 81.9442 127.731 81.9375C128.375 81.945 129.018 81.9846 129.663 82.1595Z" fill="#263238"/>
<path d="M130.8 86.0938C130.33 86.5675 129.792 86.9236 129.238 87.2517C128.677 87.5683 128.1 87.856 127.454 88.0256C127.924 87.5514 128.462 87.1953 129.016 86.8676C129.577 86.552 130.155 86.2638 130.8 86.0938Z" fill="#263238"/>
<path d="M133.753 88.9336C133.582 89.5787 133.295 90.1564 132.979 90.7176C132.651 91.2721 132.295 91.8103 131.821 92.2796C131.991 91.634 132.278 91.0564 132.595 90.4956C132.923 89.9419 133.279 89.4038 133.753 88.9336Z" fill="#263238"/>
<path d="M137.728 89.9141C137.903 90.5583 137.943 91.2021 137.95 91.8459C137.944 92.4897 137.905 93.1339 137.728 93.7777C137.552 93.1339 137.513 92.4897 137.506 91.8459C137.514 91.2021 137.553 90.5583 137.728 89.9141Z" fill="#263238"/>
<path d="M141.663 88.7773C142.136 89.2475 142.492 89.7857 142.821 90.3393C143.137 90.9001 143.425 91.4777 143.594 92.1233C143.12 91.6536 142.764 91.1154 142.437 90.5613C142.121 89.9997 141.833 89.4225 141.663 88.7773Z" fill="#263238"/>
<path d="M144.501 85.8242C145.146 85.9947 145.723 86.2824 146.285 86.5981C146.839 86.9258 147.377 87.2819 147.847 87.7561C147.201 87.5865 146.623 87.2987 146.063 86.9822C145.509 86.6541 144.971 86.298 144.501 85.8242Z" fill="#263238"/>
<path d="M145.483 81.849C146.127 81.674 146.771 81.6345 147.415 81.627C148.058 81.6336 148.703 81.6727 149.346 81.849C148.702 82.0248 148.058 82.0643 147.415 82.071C146.77 82.0634 146.127 82.0243 145.483 81.849Z" fill="#263238"/>
<path d="M144.345 77.9143C144.815 77.4405 145.353 77.0844 145.907 76.7563C146.468 76.4402 147.045 76.152 147.691 75.9824C147.221 76.4566 146.683 76.8127 146.129 77.1404C145.568 77.4561 144.99 77.7438 144.345 77.9143Z" fill="#263238"/>
<path d="M141.393 75.0765C141.563 74.4313 141.851 73.8537 142.167 73.2925C142.494 72.7379 142.85 72.1998 143.325 71.7305C143.155 72.376 142.867 72.9537 142.551 73.5145C142.222 74.0681 141.866 74.6063 141.393 75.0765Z" fill="#263238"/>
<path d="M255.686 191.831H120.118L100.87 84.9238H236.438L255.686 191.831Z" fill="#F07C33"/>
<path d="M147.847 150.277C150.959 150.277 153.482 147.755 153.482 144.643C153.482 141.531 150.959 139.008 147.847 139.008C144.735 139.008 142.212 141.531 142.212 144.643C142.212 147.755 144.735 150.277 147.847 150.277Z" fill="#263238"/>
<path d="M192.391 150.277C195.503 150.277 198.026 147.755 198.026 144.643C198.026 141.531 195.503 139.008 192.391 139.008C189.279 139.008 186.757 141.531 186.757 144.643C186.757 147.755 189.279 150.277 192.391 150.277Z" fill="#263238"/>
<path d="M178.213 151.176L177.904 150.586C177.875 150.533 174.965 145.152 169.108 145.152C163.766 145.152 162.464 150.218 162.411 150.434L162.253 151.079L160.961 150.767L161.116 150.121C161.131 150.058 162.703 143.82 169.108 143.82C175.784 143.82 178.952 149.717 179.083 149.968L179.393 150.558L178.213 151.176Z" fill="#263238"/>
<path d="M246.69 143.996C246.979 143.934 247.267 143.866 247.554 143.793" stroke="#263238" stroke-miterlimit="10"/>
<path d="M249.259 143.287C256.05 140.994 261.738 135.651 262.273 129.409C263.452 115.645 246.69 108.042 248.421 92.1373C250.073 76.9654 265.987 75.8829 272.366 77.9799C279.412 80.2962 276.998 87.0686 270.618 86.1948C259.558 84.6799 252.606 72.6559 257.859 59.0162C261.784 48.826 271.567 44.9827 275.541 43.8105" stroke="#263238" stroke-miterlimit="10" stroke-dasharray="4 4"/>
<path d="M276.397 43.5737C276.947 43.4321 277.26 43.373 277.26 43.373" stroke="#263238" stroke-miterlimit="10"/>
<path d="M284.302 40.9213C283.169 37.412 275.585 38.6729 277.066 43.2577C278.546 47.8429 285.435 44.4307 284.302 40.9213Z" fill="#263238"/>
<path d="M272.941 39.5056C272.997 37.9667 275.139 36.7825 278.165 37.3286C281.191 37.8752 284.042 39.9136 284.042 39.9136C284.042 39.9136 281.049 41.7442 277.991 42.067C274.932 42.3902 272.884 41.052 272.941 39.5056Z" fill="#EBEBEB"/>
<path d="M284.042 39.9139C282.471 39.9245 280.901 39.8721 279.332 39.8242C277.763 39.7571 276.195 39.695 274.628 39.568C276.2 39.5565 277.769 39.6097 279.338 39.6577C280.907 39.7252 282.475 39.7878 284.042 39.9139Z" fill="#263238"/>
<path d="M275.983 38.1426C276.438 38.3459 276.858 38.6039 277.281 38.857C277.694 39.1269 278.11 39.3924 278.491 39.7126C278.037 39.5097 277.616 39.2517 277.193 38.9977C276.78 38.7282 276.365 38.4627 275.983 38.1426Z" fill="#263238"/>
<path d="M280.097 39.7676C279.699 40.1055 279.267 40.3892 278.837 40.6773C278.396 40.9491 277.959 41.2257 277.487 41.4472C277.884 41.1093 278.317 40.8252 278.747 40.5375C279.187 40.2657 279.625 39.99 280.097 39.7676Z" fill="#263238"/>
<path d="M280.553 38.9023C280.788 39.0031 280.982 39.1536 281.179 39.3006C281.365 39.4622 281.553 39.6199 281.701 39.8281C281.466 39.7277 281.272 39.5768 281.075 39.4298C280.89 39.2678 280.702 39.1097 280.553 38.9023Z" fill="#263238"/>
<path d="M275.825 48.6394C276.771 49.8546 279.2 49.5629 281.336 47.35C283.471 45.1366 284.591 41.8164 284.591 41.8164C284.591 41.8164 281.093 42.0815 278.424 43.6084C275.753 45.1349 274.874 47.4184 275.825 48.6394Z" fill="#EBEBEB"/>
<path d="M284.591 41.8164C283.31 42.7266 282.068 43.687 280.823 44.6438C279.59 45.6157 278.353 46.5836 277.157 47.6022C278.439 46.6924 279.68 45.7316 280.925 44.7748C282.158 43.8029 283.394 42.8349 284.591 41.8164Z" fill="#263238"/>
<path d="M279.089 47.9654C279.339 47.5343 279.529 47.0796 279.724 46.6263C279.902 46.1659 280.084 45.7072 280.206 45.2246C279.956 45.6553 279.765 46.1104 279.57 46.5637C279.393 47.0241 279.212 47.4828 279.089 47.9654Z" fill="#263238"/>
<path d="M281.476 44.2421C280.955 44.2008 280.438 44.2234 279.921 44.2407C279.405 44.2776 278.888 44.3096 278.376 44.4059C278.896 44.4476 279.413 44.425 279.93 44.4072C280.446 44.3699 280.962 44.3375 281.476 44.2421Z" fill="#263238"/>
<path d="M282.353 44.678C282.484 44.4591 282.554 44.2233 282.628 43.9889C282.684 43.7491 282.745 43.5112 282.743 43.2559C282.611 43.4748 282.542 43.7105 282.467 43.9449C282.412 44.1847 282.352 44.4231 282.353 44.678Z" fill="#263238"/>
<path d="M284.302 40.9212C283.602 41.1467 282.852 40.7631 282.627 40.0638C282.401 39.3645 282.785 38.615 283.484 38.389C284.183 38.163 284.933 38.5471 285.159 39.2464C285.385 39.9457 285.001 40.6956 284.302 40.9212Z" fill="#455A64"/>
<path d="M285.119 43.4522C284.42 43.6778 283.67 43.2942 283.444 42.5949C283.218 41.8956 283.602 41.1461 284.302 40.9201C285.001 40.6946 285.75 41.0782 285.976 41.7775C286.202 42.4763 285.818 43.2262 285.119 43.4522Z" fill="#455A64"/>
<path d="M75.7193 53.8076C77.2168 68.1224 90.0414 78.5178 104.355 77.0203C110.14 76.4149 115.283 73.9595 119.265 70.2922L132.304 72.2059L125.78 60.9331C127.363 57.0818 128.029 52.7954 127.568 48.3835C126.07 34.0688 113.246 23.6734 98.932 25.1708C84.6183 26.6683 74.2229 39.4929 75.7193 53.8076Z" fill="white"/>
<path d="M75.7193 53.8085C76.2642 58.5665 78.0032 63.2304 80.9793 67.02C81.6632 68.0124 82.5437 68.8416 83.3415 69.7399C84.2471 70.5284 85.0921 71.3942 86.0918 72.0687C87.9981 73.5369 90.1408 74.6882 92.3786 75.5698C94.607 76.5078 97.0048 76.9553 99.3953 77.2429C100.601 77.3077 101.809 77.4175 103.017 77.3119C104.227 77.2847 105.432 77.1551 106.623 76.9365C111.393 76.0728 115.91 73.8401 119.518 70.5702L119.209 70.6654L132.236 72.6648L133.181 72.8101L132.702 71.9767L126.217 60.682L126.247 61.1274C129.406 53.6882 128.694 44.829 124.642 37.8969C122.622 34.4262 119.804 31.4355 116.479 29.205C113.156 26.9682 109.301 25.5659 105.356 25.0315C101.406 24.5076 97.3415 24.8674 93.5697 26.1201C89.803 27.3886 86.349 29.5218 83.5183 32.2836C77.7658 37.7537 74.8734 45.9604 75.7193 53.8085ZM75.7193 53.8085C74.9267 45.9541 77.8766 37.7976 83.6333 32.4007C86.4912 29.7017 89.9515 27.6573 93.6847 26.4704C97.4241 25.3003 101.424 25.0211 105.276 25.6015C109.126 26.1923 112.854 27.626 116.041 29.8533C119.22 32.0859 121.902 35.0055 123.839 38.3591C125.814 41.7054 126.837 45.539 127.146 49.3872C127.39 53.248 126.761 57.1558 125.312 60.7416L125.218 60.9748L125.343 61.1881L131.904 72.4379L132.371 71.7498L119.319 69.9219L119.139 69.8968L119.011 70.017C115.561 73.2556 111.195 75.5164 106.53 76.4461C105.365 76.6814 104.184 76.8288 102.995 76.8759C101.808 77.0013 100.619 76.9135 99.4277 76.8706C97.0676 76.628 94.6885 76.2286 92.4664 75.3376C90.2359 74.5021 88.0797 73.4072 86.1796 71.9495C85.1799 71.2855 84.335 70.4311 83.4273 69.6521C82.6273 68.7643 81.7437 67.9444 81.0567 66.9604C78.067 63.2042 76.2966 58.5633 75.7193 53.8085Z" fill="#263238"/>
<path d="M100.372 41.3301C98.3001 41.3297 96.3068 42.1245 94.8035 43.5507C93.3002 44.9769 92.4016 46.9256 92.293 48.995C92.2068 50.6435 92.3059 52.3982 90.8334 53.5023C90.4949 53.7556 90.2202 54.0845 90.0311 54.4627C89.8421 54.841 89.744 55.2581 89.7447 55.681C89.7447 56.8583 90.6681 57.862 91.8702 57.862H108.874C110.077 57.862 111 56.8583 111 55.681C111 54.8237 110.596 54.016 109.911 53.5023C109.391 53.1145 109.003 52.5749 108.801 51.9577" stroke="#F07C33" stroke-width="1.5" stroke-linecap="round" stroke-linejoin="round"/>
<path d="M105.115 41.3297H109.451C110.364 41.3297 110.821 41.3297 110.941 41.6131C111.061 41.8965 110.752 42.2366 110.132 42.9167L106.096 46.8277C105.475 47.5079 104.993 47.848 105.115 48.1314C105.236 48.4148 105.863 48.4148 106.776 48.4148H111M103.915 57.8616C103.915 58.8011 103.542 59.7022 102.877 60.3665C102.213 61.0309 101.312 61.4041 100.372 61.4041C99.4328 61.4041 98.5317 61.0309 97.8674 60.3665C97.203 59.7022 96.8298 58.8011 96.8298 57.8616M98.6011 39.1156C98.6011 40.0933 99.3946 41.3297 100.372 41.3297C101.35 41.3297 102.144 40.0933 102.144 39.1156C102.144 38.1378 101.35 37.7871 100.372 37.7871C99.3946 37.7871 98.6011 38.1378 98.6011 39.1156Z" stroke="#F07C33" stroke-width="1.5" stroke-linecap="round" stroke-linejoin="round"/>
</svg>
