<svg width="1290" height="1290" viewBox="0 0 1290 1290" fill="none" xmlns="http://www.w3.org/2000/svg">
<path d="M1290 986.592H0V987.237H1290V986.592Z" fill="#EBEBEB"/>
<path d="M1160.74 1028.1H1075.29V1028.75H1160.74V1028.1Z" fill="#EBEBEB"/>
<path d="M854.547 1035.12H832.127V1035.77H854.547V1035.12Z" fill="#EBEBEB"/>
<path d="M1072.71 1004.16H1023.2V1004.81H1072.71V1004.16Z" fill="#EBEBEB"/>
<path d="M246.777 1008.5H135.347V1009.14H246.777V1008.5Z" fill="#EBEBEB"/>
<path d="M286.096 1008.5H269.765V1009.14H286.096V1008.5Z" fill="#EBEBEB"/>
<path d="M580.887 1019.38H339.192V1020.03H580.887V1019.38Z" fill="#EBEBEB"/>
<path d="M611.46 871.524H113.288C109.385 871.517 105.645 869.962 102.888 867.2C100.131 864.438 98.582 860.695 98.582 856.792V156.503C98.616 152.622 100.18 148.912 102.933 146.178C105.687 143.444 109.408 141.907 113.288 141.9H611.46C615.367 141.9 619.114 143.452 621.877 146.215C624.64 148.977 626.192 152.725 626.192 156.632V856.792C626.192 860.699 624.64 864.446 621.877 867.209C619.114 869.972 615.367 871.524 611.46 871.524ZM113.288 142.416C109.556 142.423 105.98 143.91 103.344 146.551C100.708 149.192 99.227 152.771 99.227 156.503V856.792C99.227 860.524 100.708 864.103 103.344 866.744C105.98 869.385 109.556 870.872 113.288 870.879H611.46C615.194 870.872 618.773 869.386 621.414 866.745C624.054 864.105 625.54 860.526 625.547 856.792V156.503C625.54 152.769 624.054 149.19 621.414 146.549C618.773 143.909 615.194 142.423 611.46 142.416H113.288Z" fill="#EBEBEB"/>
<path d="M1169.54 871.524H671.342C667.437 871.517 663.694 869.963 660.933 867.202C658.171 864.44 656.617 860.697 656.61 856.792V156.503C656.651 152.62 658.22 148.91 660.978 146.176C663.736 143.443 667.459 141.906 671.342 141.9H1169.54C1173.42 141.913 1177.13 143.454 1179.88 146.187C1182.63 148.921 1184.19 152.627 1184.22 156.503V856.792C1184.22 860.69 1182.68 864.43 1179.92 867.191C1177.17 869.952 1173.44 871.51 1169.54 871.524ZM671.342 142.416C667.608 142.423 664.029 143.909 661.389 146.549C658.748 149.19 657.262 152.769 657.255 156.503V856.792C657.262 860.526 658.748 864.105 661.389 866.745C664.029 869.386 667.608 870.872 671.342 870.879H1169.54C1173.27 870.872 1176.85 869.386 1179.49 866.745C1182.13 864.105 1183.62 860.526 1183.63 856.792V156.503C1183.62 152.769 1182.13 149.19 1179.49 146.549C1176.85 143.909 1173.27 142.423 1169.54 142.416H671.342Z" fill="#EBEBEB"/>
<path d="M747.401 449.075L1102.87 449.075V216.281L747.401 216.281V449.075Z" fill="#E6E6E6"/>
<path d="M736.538 449.075L1097.79 449.075V216.281L736.538 216.281V449.075Z" fill="#F0F0F0"/>
<path d="M747.401 494.741L1102.87 494.741V449.049L747.401 449.049V494.741Z" fill="#E6E6E6"/>
<path d="M718.504 494.741L1079.76 494.741V449.049L718.504 449.049V494.741Z" fill="#F0F0F0"/>
<path d="M1082.62 433.904V231.478L751.734 231.478V433.904H1082.62Z" fill="#FAFAFA"/>
<path d="M1008.01 433.879L965.746 231.478H899.801L942.061 433.879H1008.01Z" fill="white"/>
<path d="M1075.6 418.785C1075.75 418.785 1075.89 418.757 1076.02 418.701C1076.16 418.644 1076.28 418.562 1076.38 418.459C1076.48 418.356 1076.56 418.233 1076.61 418.099C1076.66 417.964 1076.69 417.82 1076.69 417.676V241.359C1076.69 241.071 1076.57 240.796 1076.37 240.593C1076.16 240.389 1075.89 240.275 1075.6 240.275C1075.46 240.272 1075.32 240.297 1075.18 240.35C1075.05 240.404 1074.93 240.483 1074.83 240.585C1074.73 240.686 1074.65 240.807 1074.59 240.94C1074.54 241.073 1074.51 241.216 1074.52 241.359V417.676C1074.51 417.82 1074.54 417.964 1074.59 418.099C1074.65 418.233 1074.73 418.356 1074.83 418.459C1074.93 418.562 1075.05 418.644 1075.18 418.701C1075.31 418.757 1075.46 418.785 1075.6 418.785Z" fill="#F0F0F0"/>
<path d="M927.897 433.879L885.637 231.478H859.914L902.2 433.879H927.897Z" fill="white"/>
<path d="M753.67 433.904V231.478H751.735V433.904H753.67Z" fill="#E6E6E6"/>
<path opacity="0.6" d="M732.979 254.362H1088.45L1089.84 237.36H734.372L732.979 254.362Z" fill="#EBEBEB"/>
<path opacity="0.6" d="M732.979 282.226H1088.45L1089.84 265.25H734.372L732.979 282.226Z" fill="#EBEBEB"/>
<path opacity="0.6" d="M732.979 310.09H1088.45L1089.84 293.114H734.372L732.979 310.09Z" fill="#EBEBEB"/>
<path opacity="0.6" d="M732.979 337.98H1088.45L1089.84 320.978H734.372L732.979 337.98Z" fill="#EBEBEB"/>
<path opacity="0.6" d="M732.979 365.844H1088.45L1089.84 348.842H734.372L732.979 365.844Z" fill="#EBEBEB"/>
<path opacity="0.6" d="M732.979 393.708H1088.45L1089.84 376.706H734.372L732.979 393.708Z" fill="#EBEBEB"/>
<path d="M1051.84 817.292H977.304V831.998H1051.84V817.292Z" fill="#E6E6E6"/>
<path d="M836.72 986.592H850.472V648.431H836.72V986.592Z" fill="#E6E6E6"/>
<path d="M789.042 831.998H977.278V817.292H789.042V831.998Z" fill="#F5F5F5"/>
<path d="M1051.84 897.711H977.304V912.417H1051.84V897.711Z" fill="#E6E6E6"/>
<path d="M789.042 912.391H977.278V897.685H789.042V912.391Z" fill="#F5F5F5"/>
<path d="M1051.84 656.481H977.304V671.187H1051.84V656.481Z" fill="#E6E6E6"/>
<path d="M789.042 671.161H977.278V656.455H789.042V671.161Z" fill="#F5F5F5"/>
<path d="M1051.84 736.874H977.304V751.58H1051.84V736.874Z" fill="#E6E6E6"/>
<path d="M789.042 751.58H977.278V736.874H789.042V751.58Z" fill="#F5F5F5"/>
<path d="M1024.98 986.592H1038.73V648.431H1024.98V986.592Z" fill="#E6E6E6"/>
<path d="M963.527 986.592H977.278V648.431H963.527V986.592Z" fill="#F5F5F5"/>
<path d="M789.042 986.592H802.793V648.431H789.042V986.592Z" fill="#F5F5F5"/>
<path d="M168.681 986.592H309.497L309.497 713.396H168.681L168.681 986.592Z" fill="#E6E6E6"/>
<path d="M206.271 986.592H168.654V948.872H245.693L206.271 986.592Z" fill="#FAFAFA"/>
<path d="M552.584 986.592H693.4V713.396H552.584V986.592Z" fill="#E6E6E6"/>
<path d="M168.68 973.589H585.428V713.37H168.68L168.68 973.589Z" fill="#FAFAFA"/>
<path d="M547.811 986.592H585.402V948.872H508.389L547.811 986.592Z" fill="#FAFAFA"/>
<path d="M197.834 875.471H556.248V810.352H197.834V875.471Z" fill="#F0F0F0"/>
<path d="M197.834 954.497H556.248V889.377H197.834V954.497Z" fill="#F0F0F0"/>
<path d="M488.136 817.318H265.972C262.838 817.318 259.833 816.073 257.617 813.857C255.401 811.641 254.156 808.636 254.156 805.502V804.702H499.927V805.502C499.927 808.631 498.685 811.633 496.475 813.848C494.265 816.063 491.266 817.311 488.136 817.318Z" fill="#FAFAFA"/>
<path d="M197.834 796.42H556.248V731.301H197.834V796.42Z" fill="#F0F0F0"/>
<path d="M488.136 738.267H265.972C262.838 738.267 259.833 737.022 257.617 734.806C255.401 732.59 254.156 729.585 254.156 726.451V725.651H499.927V726.451C499.927 729.58 498.685 732.582 496.475 734.797C494.265 737.012 491.266 738.26 488.136 738.267Z" fill="#FAFAFA"/>
<path d="M488.136 896.369H265.972C262.838 896.369 259.833 895.124 257.617 892.908C255.401 890.692 254.156 887.687 254.156 884.553V883.753H499.927V884.553C499.927 887.682 498.685 890.684 496.475 892.899C494.265 895.114 491.266 896.362 488.136 896.369Z" fill="#FAFAFA"/>
<path d="M191.101 449.075L546.573 449.075V216.281L191.101 216.281L191.101 449.075Z" fill="#E6E6E6"/>
<path d="M180.265 449.075L541.517 449.075V216.281L180.265 216.281L180.265 449.075Z" fill="#F0F0F0"/>
<path d="M191.101 494.741L546.573 494.741V449.049L191.101 449.049V494.741Z" fill="#E6E6E6"/>
<path d="M162.179 494.741L523.431 494.741V449.049L162.179 449.049V494.741Z" fill="#F0F0F0"/>
<path d="M526.32 433.904V231.478L195.435 231.478V433.904H526.32Z" fill="#FAFAFA"/>
<path d="M451.706 433.879L409.446 231.478H343.501L385.761 433.879H451.706Z" fill="white"/>
<path d="M519.276 418.785C519.421 418.785 519.564 418.757 519.697 418.701C519.83 418.644 519.951 418.562 520.052 418.459C520.153 418.356 520.232 418.233 520.285 418.099C520.338 417.964 520.363 417.82 520.36 417.676V241.359C520.363 241.216 520.338 241.073 520.285 240.94C520.231 240.807 520.152 240.686 520.05 240.585C519.949 240.483 519.828 240.404 519.695 240.35C519.562 240.297 519.42 240.272 519.276 240.275C518.989 240.275 518.713 240.389 518.51 240.593C518.307 240.796 518.193 241.071 518.193 241.359V417.676C518.189 417.82 518.215 417.964 518.268 418.099C518.321 418.233 518.4 418.356 518.501 418.459C518.602 418.562 518.722 418.644 518.856 418.701C518.989 418.757 519.132 418.785 519.276 418.785Z" fill="#F0F0F0"/>
<path d="M371.597 433.879L329.337 231.478H303.614L345.875 433.879H371.597Z" fill="white"/>
<path d="M197.37 433.904V231.478H195.435V433.904H197.37Z" fill="#E6E6E6"/>
<path opacity="0.6" d="M176.652 254.362H532.125L533.518 237.36H178.046L176.652 254.362Z" fill="#EBEBEB"/>
<path opacity="0.6" d="M176.652 263.96H532.125L533.518 246.958H178.046L176.652 263.96Z" fill="#EBEBEB"/>
<path opacity="0.6" d="M176.652 273.532H532.125L533.518 256.555H178.046L176.652 273.532Z" fill="#EBEBEB"/>
<path opacity="0.6" d="M176.652 283.129H532.125L533.518 266.127H178.046L176.652 283.129Z" fill="#EBEBEB"/>
<path opacity="0.6" d="M176.652 292.701H532.125L533.518 275.725H178.046L176.652 292.701Z" fill="#EBEBEB"/>
<path opacity="0.6" d="M176.652 302.299H532.125L533.518 285.296H178.046L176.652 302.299Z" fill="#EBEBEB"/>
<path d="M247.732 705.037H260.013V568.064H247.732L247.732 705.037Z" fill="#F5F5F5"/>
<path d="M249.28 704.959H252.763L252.763 567.987H249.28L249.28 704.959Z" fill="#FAFAFA"/>
<path d="M254.208 704.959H255.575L255.575 567.987H254.208L254.208 704.959Z" fill="#FAFAFA"/>
<path d="M299.357 713.396H208.438C208.438 710.358 209.645 707.444 211.793 705.296C213.942 703.147 216.855 701.941 219.893 701.941H287.876C290.915 701.941 293.828 703.147 295.976 705.296C298.125 707.444 299.332 710.358 299.332 713.396H299.357Z" fill="#F0F0F0"/>
<path d="M231.787 653.101C232.722 653.094 233.617 652.72 234.279 652.058C234.94 651.397 235.315 650.502 235.322 649.566V559.86C235.322 558.922 234.949 558.023 234.286 557.361C233.623 556.698 232.724 556.325 231.787 556.325C231.321 556.322 230.858 556.411 230.426 556.587C229.995 556.763 229.602 557.023 229.271 557.351C228.94 557.68 228.677 558.071 228.498 558.501C228.319 558.932 228.227 559.394 228.227 559.86V649.67C228.26 650.591 228.65 651.464 229.314 652.104C229.978 652.744 230.865 653.102 231.787 653.101Z" fill="#F0F0F0"/>
<path d="M198.841 600.624H308.878L296.21 523.74H211.509L198.841 600.624Z" fill="#E0E0E0"/>
<path d="M645 1103.1C921.273 1103.1 1145.24 1090.03 1145.24 1073.9C1145.24 1057.77 921.273 1044.69 645 1044.69C368.727 1044.69 144.764 1057.77 144.764 1073.9C144.764 1090.03 368.727 1103.1 645 1103.1Z" fill="#F5F5F5"/>
<path d="M268.626 522.086L266.053 522.272L269.48 569.853L272.053 569.667L268.626 522.086Z" fill="#F3640E"/>
<path d="M273.802 594.23L271.229 594.416L272.519 612.326L275.092 612.141L273.802 594.23Z" fill="#F3640E"/>
<path d="M871.292 813.113H318.759C312.608 813.002 306.717 810.619 302.219 806.422C297.722 802.225 294.938 796.511 294.404 790.383L267.262 413.368C267.009 410.46 267.369 407.532 268.317 404.772C269.265 402.011 270.781 399.48 272.766 397.341C274.752 395.203 277.164 393.503 279.846 392.353C282.529 391.203 285.422 390.628 288.341 390.664H840.873C847.02 390.774 852.908 393.154 857.405 397.345C861.901 401.537 864.688 407.244 865.229 413.368L892.37 790.383C892.622 793.292 892.263 796.221 891.315 798.983C890.367 801.745 888.852 804.277 886.867 806.418C884.881 808.559 882.47 810.26 879.788 811.414C877.105 812.567 874.211 813.145 871.292 813.113Z" fill="#F3640E"/>
<path d="M873.408 813.113H320.875C314.725 813.002 308.833 810.619 304.336 806.422C299.838 802.225 297.054 796.511 296.52 790.383L269.378 413.368C269.126 410.46 269.485 407.532 270.433 404.772C271.381 402.011 272.897 399.48 274.883 397.341C276.868 395.203 279.28 393.503 281.962 392.353C284.645 391.203 287.538 390.628 290.457 390.664H842.989C849.136 390.774 855.024 393.154 859.521 397.345C864.017 401.537 866.804 407.244 867.345 413.368L894.486 790.383C894.743 793.293 894.386 796.224 893.44 798.987C892.493 801.751 890.978 804.285 888.992 806.427C887.006 808.568 884.593 810.27 881.909 811.422C879.224 812.573 876.328 813.149 873.408 813.113Z" fill="#F3640E"/>
<path opacity="0.5" d="M873.408 813.113H320.875C314.725 813.002 308.833 810.619 304.336 806.422C299.838 802.225 297.054 796.511 296.52 790.383L269.378 413.368C269.126 410.46 269.485 407.532 270.433 404.772C271.381 402.011 272.897 399.48 274.883 397.341C276.868 395.203 279.28 393.503 281.962 392.353C284.645 391.203 287.538 390.628 290.457 390.664H842.989C849.136 390.774 855.024 393.154 859.521 397.345C864.017 401.537 866.804 407.244 867.345 413.368L894.486 790.383C894.743 793.293 894.386 796.224 893.44 798.987C892.493 801.751 890.978 804.285 888.992 806.427C887.006 808.568 884.593 810.27 881.909 811.422C879.224 812.573 876.328 813.149 873.408 813.113Z" fill="white"/>
<path d="M843.815 402.016H291.282H289.425C275.312 403.177 278.202 424.668 292.443 424.668H845.905C860.172 424.668 859.966 403.177 845.673 402.016H843.815Z" fill="#F3640E"/>
<path d="M305.678 413.368C305.732 414.033 305.647 414.702 305.426 415.332C305.206 415.962 304.856 416.538 304.399 417.025C303.942 417.511 303.388 417.896 302.773 418.155C302.158 418.414 301.495 418.541 300.828 418.528C299.426 418.508 298.08 417.97 297.051 417.017C296.022 416.064 295.382 414.764 295.255 413.368C295.201 412.705 295.286 412.038 295.505 411.41C295.724 410.782 296.072 410.206 296.526 409.72C296.98 409.235 297.531 408.849 298.143 408.589C298.755 408.328 299.415 408.198 300.08 408.208C301.486 408.221 302.838 408.756 303.872 409.71C304.907 410.663 305.55 411.967 305.678 413.368Z" fill="#FAFAFA"/>
<path d="M323.403 413.368C323.457 414.033 323.371 414.702 323.151 415.332C322.93 415.962 322.58 416.538 322.123 417.025C321.666 417.511 321.112 417.896 320.497 418.155C319.882 418.414 319.22 418.541 318.552 418.528C317.15 418.508 315.805 417.97 314.776 417.017C313.747 416.064 313.107 414.764 312.98 413.368C312.926 412.705 313.011 412.038 313.23 411.41C313.448 410.782 313.796 410.206 314.25 409.72C314.705 409.235 315.256 408.849 315.867 408.589C316.479 408.328 317.139 408.198 317.804 408.208C319.211 408.221 320.563 408.756 321.597 409.71C322.631 410.663 323.275 411.967 323.403 413.368Z" fill="#FAFAFA"/>
<path d="M341.102 413.368C341.156 414.031 341.071 414.698 340.852 415.326C340.633 415.954 340.285 416.529 339.831 417.015C339.377 417.501 338.826 417.886 338.214 418.147C337.602 418.407 336.942 418.537 336.277 418.528C334.873 418.514 333.525 417.978 332.495 417.024C331.465 416.07 330.826 414.766 330.705 413.368C330.647 412.704 330.729 412.035 330.946 411.405C331.164 410.776 331.511 410.199 331.966 409.712C332.421 409.225 332.974 408.84 333.588 408.58C334.201 408.321 334.863 408.194 335.529 408.208C336.931 408.227 338.277 408.766 339.306 409.718C340.335 410.671 340.975 411.971 341.102 413.368Z" fill="#FAFAFA"/>
<path d="M858.753 775.497H330.24C328.007 775.459 325.868 774.594 324.237 773.069C322.607 771.543 321.601 769.466 321.416 767.241L299.099 457.202C299 456.138 299.128 455.065 299.475 454.055C299.822 453.044 300.38 452.119 301.112 451.34C301.844 450.562 302.733 449.948 303.721 449.54C304.708 449.132 305.771 448.938 306.839 448.972H835.481C837.711 449.003 839.85 449.862 841.481 451.384C843.113 452.905 844.119 454.979 844.305 457.202L866.647 767.241C866.744 768.318 866.609 769.404 866.252 770.425C865.894 771.446 865.322 772.379 864.575 773.161C863.827 773.943 862.921 774.556 861.916 774.959C860.912 775.362 859.833 775.545 858.753 775.497Z" fill="white"/>
<path d="M636.047 657.384L627.43 537.879L601.372 522.192H529.622L539.374 657.384H636.047Z" fill="white"/>
<path d="M636.047 658.623H539.375C539.055 658.63 538.745 658.513 538.509 658.297C538.273 658.08 538.131 657.781 538.111 657.462L528.384 522.27C528.372 522.1 528.395 521.929 528.453 521.769C528.511 521.609 528.602 521.463 528.719 521.341C528.833 521.213 528.972 521.111 529.128 521.04C529.283 520.969 529.452 520.931 529.622 520.928H601.372C601.599 520.936 601.82 520.998 602.017 521.109L628.075 536.795C628.251 536.895 628.399 537.037 628.507 537.208C628.615 537.379 628.679 537.574 628.694 537.775L637.26 657.281C637.278 657.455 637.257 657.631 637.199 657.796C637.141 657.961 637.047 658.111 636.925 658.236C636.812 658.356 636.677 658.453 636.526 658.519C636.375 658.586 636.212 658.621 636.047 658.623ZM540.587 656.043H634.68L626.218 538.524L601.14 523.431H530.964L540.587 656.043Z" fill="#F3640E"/>
<path d="M627.43 537.879L601.372 522.192L610.944 542.987L627.43 537.879Z" fill="#EBEBEB"/>
<path d="M610.944 544.225C610.706 544.224 610.473 544.155 610.272 544.028C610.071 543.9 609.911 543.718 609.809 543.503L600.237 522.708C600.125 522.464 600.093 522.191 600.143 521.927C600.194 521.664 600.326 521.423 600.521 521.237C600.725 521.062 600.98 520.956 601.248 520.933C601.517 520.91 601.785 520.971 602.017 521.108L628.075 536.795C628.285 536.921 628.455 537.105 628.565 537.324C628.675 537.543 628.719 537.789 628.694 538.033C628.661 538.271 628.561 538.494 628.406 538.677C628.25 538.859 628.046 538.994 627.817 539.065L611.305 544.225H610.944ZM604.21 525.34L611.615 541.465L624.515 537.517L604.21 525.34Z" fill="#F3640E"/>
<path d="M570.18 583.08C570.218 583.781 570.113 584.483 569.871 585.142C569.629 585.801 569.256 586.404 568.772 586.914C568.289 587.423 567.707 587.829 567.062 588.106C566.417 588.383 565.722 588.525 565.02 588.524C563.547 588.498 562.136 587.927 561.059 586.921C559.982 585.916 559.316 584.548 559.189 583.08C559.122 582.372 559.208 581.657 559.439 580.984C559.671 580.311 560.043 579.696 560.531 579.178C561.02 578.66 561.613 578.253 562.271 577.982C562.929 577.712 563.638 577.585 564.349 577.611C565.824 577.643 567.235 578.22 568.311 579.229C569.387 580.239 570.053 581.61 570.18 583.08Z" fill="#F3640E"/>
<path d="M605.526 583.08C605.588 583.787 605.5 584.498 605.267 585.168C605.034 585.838 604.661 586.45 604.173 586.965C603.685 587.48 603.093 587.885 602.437 588.154C601.781 588.422 601.075 588.549 600.366 588.524C598.89 588.498 597.476 587.928 596.395 586.923C595.314 585.919 594.643 584.55 594.509 583.08C594.467 582.377 594.569 581.673 594.81 581.01C595.05 580.348 595.423 579.742 595.907 579.23C596.39 578.717 596.973 578.309 597.62 578.031C598.268 577.752 598.965 577.609 599.669 577.611C601.151 577.631 602.571 578.203 603.654 579.214C604.737 580.225 605.404 581.604 605.526 583.08Z" fill="#F3640E"/>
<path d="M615.537 618.529C615.223 618.524 614.923 618.402 614.694 618.188C614.465 617.973 614.324 617.681 614.298 617.368C613.653 608.571 599.876 601.424 583.596 601.424C572.786 601.424 563.085 604.649 558.286 609.809C557.301 610.76 556.529 611.909 556.021 613.182C555.514 614.454 555.284 615.82 555.345 617.188C555.357 617.357 555.336 617.527 555.282 617.688C555.228 617.849 555.143 617.998 555.031 618.126C554.806 618.385 554.488 618.544 554.146 618.568C553.803 618.592 553.466 618.479 553.207 618.254C552.948 618.029 552.789 617.71 552.765 617.368C552.688 615.658 552.97 613.951 553.592 612.355C554.214 610.76 555.163 609.313 556.377 608.106C561.537 602.456 572.038 598.921 583.519 598.921C601.398 598.921 615.975 606.945 616.698 617.188C616.708 617.35 616.686 617.514 616.634 617.668C616.581 617.822 616.498 617.965 616.39 618.087C616.283 618.209 616.152 618.309 616.005 618.38C615.859 618.452 615.699 618.494 615.537 618.504V618.529Z" fill="#F3640E"/>
<path d="M549.979 572.038C549.664 572.031 549.362 571.912 549.127 571.702C548.892 571.466 548.761 571.146 548.761 570.812C548.761 570.479 548.892 570.159 549.127 569.922L554.623 564.014C554.858 563.787 555.173 563.66 555.5 563.66C555.827 563.66 556.141 563.787 556.377 564.014C556.492 564.129 556.584 564.266 556.647 564.416C556.709 564.567 556.741 564.728 556.741 564.891C556.741 565.054 556.709 565.216 556.647 565.366C556.584 565.517 556.492 565.653 556.377 565.768L550.882 571.677C550.763 571.795 550.622 571.887 550.467 571.95C550.312 572.012 550.146 572.042 549.979 572.038Z" fill="#F3640E"/>
<path d="M612.956 572.038C612.643 572.023 612.344 571.905 612.105 571.702L605.784 565.794C605.664 565.679 605.569 565.54 605.504 565.388C605.44 565.235 605.406 565.07 605.406 564.904C605.406 564.738 605.44 564.574 605.504 564.421C605.569 564.268 605.664 564.13 605.784 564.014C606.019 563.787 606.334 563.66 606.661 563.66C606.988 563.66 607.302 563.787 607.538 564.014L613.859 569.922C613.974 570.037 614.066 570.174 614.129 570.325C614.191 570.475 614.223 570.636 614.223 570.799C614.223 570.962 614.191 571.124 614.129 571.274C614.066 571.425 613.974 571.562 613.859 571.677C613.614 571.906 613.292 572.035 612.956 572.038Z" fill="#F3640E"/>
<path d="M521.831 684.087H527.662L536.073 695.284L535.273 684.087H541.155L542.6 704.314H536.64L528.281 693.195L529.081 704.314H523.198L521.831 684.087Z" fill="#F3640E"/>
<path d="M545.231 694.201C545.032 692.827 545.127 691.427 545.509 690.092C545.892 688.758 546.553 687.52 547.45 686.461C548.43 685.497 549.604 684.752 550.894 684.276C552.184 683.8 553.561 683.604 554.932 683.7C557.839 683.542 560.695 684.513 562.904 686.409C564.928 688.424 566.101 691.139 566.181 693.994C566.394 695.963 566.128 697.955 565.407 699.799C564.739 701.285 563.619 702.522 562.208 703.334C560.514 704.242 558.607 704.679 556.687 704.598C554.713 704.661 552.749 704.291 550.933 703.515C549.342 702.751 548.001 701.552 547.063 700.057C545.956 698.296 545.325 696.279 545.231 694.201ZM551.501 694.201C551.476 695.784 551.985 697.329 552.946 698.587C553.348 699.03 553.844 699.381 554.396 699.612C554.949 699.844 555.546 699.952 556.145 699.928C556.717 699.968 557.29 699.869 557.815 699.64C558.341 699.411 558.803 699.059 559.163 698.613C559.904 697.203 560.15 695.586 559.86 694.02C559.871 692.503 559.361 691.027 558.415 689.841C558.002 689.405 557.5 689.062 556.944 688.835C556.388 688.609 555.79 688.503 555.19 688.525C554.629 688.5 554.07 688.609 553.558 688.842C553.047 689.076 552.599 689.427 552.249 689.866C551.494 691.196 551.229 692.748 551.501 694.252V694.201Z" fill="#F3640E"/>
<path d="M578.307 684.087H587.595C589.126 684.039 590.651 684.293 592.084 684.835C593.218 685.31 594.225 686.044 595.025 686.977C595.837 687.924 596.459 689.019 596.857 690.202C597.275 691.472 597.535 692.789 597.631 694.123C597.829 695.81 597.698 697.518 597.244 699.154C596.889 700.287 596.259 701.315 595.412 702.147C594.705 702.895 593.816 703.446 592.832 703.747C591.632 704.095 590.392 704.285 589.143 704.314H579.88L578.307 684.087ZM584.886 688.68L585.685 699.722H587.208C588.149 699.784 589.092 699.634 589.968 699.283C590.546 698.949 590.971 698.403 591.155 697.761C591.45 696.616 591.521 695.424 591.361 694.252C591.411 692.678 590.929 691.134 589.994 689.866C589.515 689.433 588.951 689.104 588.338 688.9C587.725 688.695 587.077 688.62 586.434 688.68H584.886Z" fill="#F3640E"/>
<path d="M612.621 700.96H605.526L604.778 704.314H598.405L604.546 684.087H611.46L620.516 704.314H613.963L612.621 700.96ZM610.996 696.6L608.261 689.325L606.558 696.6H610.996Z" fill="#F3640E"/>
<path d="M617.574 684.087H636.563L636.924 689.092H630.552L631.635 704.314H625.392L624.308 689.092H617.935L617.574 684.087Z" fill="#F3640E"/>
<path d="M651.114 700.96H644.019L643.271 704.314H636.898L643.039 684.087H649.85L658.88 704.314H652.353L651.114 700.96ZM649.489 696.6L646.728 689.325L645 696.6H649.489Z" fill="#F3640E"/>
<path d="M912.521 446.546C914.817 445.385 917.681 443.966 920.106 442.496C922.531 441.025 925.266 439.606 927.846 438.058C932.877 434.936 937.985 431.866 942.81 428.461C952.5 421.83 961.583 414.353 969.951 406.118C971.009 405.137 971.938 404.054 972.944 402.996L974.415 401.422L975.137 400.648L975.498 400.235C975.137 400.932 975.498 400.726 975.498 400.055C975.725 399.133 975.855 398.191 975.885 397.243C975.826 391.757 975.195 386.292 974.002 380.937C971.706 369.379 968.223 357.459 964.791 345.797L974.802 341.411C981.12 352.6 986.397 364.345 990.566 376.499C992.907 383.068 994.399 389.909 995.003 396.856C995.161 399.015 995.092 401.186 994.797 403.331C994.414 406.365 993.337 409.27 991.649 411.82L991.211 412.413L990.875 412.826L990.488 413.316L989.688 414.296L988.089 416.231C987.031 417.496 985.999 418.811 984.864 420.024C976.04 429.815 966.198 438.637 955.503 446.34C950.343 450.158 944.874 453.822 939.275 457.15C936.514 458.827 933.702 460.427 930.839 462.001C927.975 463.574 925.188 465.019 921.886 466.567L912.521 446.546Z" fill="#FFB573"/>
<path d="M889.558 1053.1C891.49 1053.06 893.41 1052.8 895.286 1052.33C895.381 1052.3 895.466 1052.25 895.534 1052.18C895.602 1052.1 895.65 1052.01 895.673 1051.92C895.685 1051.82 895.67 1051.72 895.629 1051.63C895.588 1051.54 895.523 1051.46 895.441 1051.4C894.692 1050.91 888.139 1046.68 885.611 1047.82C885.331 1047.95 885.09 1048.15 884.913 1048.4C884.736 1048.66 884.63 1048.95 884.604 1049.26C884.504 1049.75 884.529 1050.25 884.678 1050.73C884.827 1051.2 885.095 1051.63 885.456 1051.97C886.641 1052.83 888.098 1053.23 889.558 1053.1ZM893.815 1051.61C890.074 1052.36 887.236 1052.23 886.075 1051.22C885.843 1050.98 885.674 1050.69 885.583 1050.37C885.493 1050.05 885.485 1049.71 885.559 1049.39C885.569 1049.25 885.614 1049.12 885.691 1049.01C885.768 1048.89 885.874 1048.8 885.998 1048.74C887.365 1048.15 891.158 1050.06 893.815 1051.61Z" fill="#F3640E"/>
<path d="M895.26 1052.33H895.518C895.594 1052.28 895.657 1052.22 895.702 1052.14C895.747 1052.07 895.772 1051.98 895.776 1051.89C895.776 1051.61 895.776 1045.39 893.403 1043.33C893.119 1043.05 892.776 1042.85 892.4 1042.73C892.024 1042.61 891.626 1042.57 891.235 1042.63C890.829 1042.63 890.435 1042.78 890.121 1043.03C889.806 1043.29 889.589 1043.65 889.507 1044.05C889.017 1046.63 892.938 1051.14 895.002 1052.33C895.087 1052.35 895.176 1052.35 895.26 1052.33ZM891.571 1043.58C891.99 1043.59 892.395 1043.74 892.706 1044.02C894.067 1046.03 894.77 1048.41 894.718 1050.83C892.654 1049.18 890.203 1045.67 890.513 1044.2C890.513 1043.97 890.694 1043.66 891.339 1043.58H891.571Z" fill="#F3640E"/>
<path d="M893.248 382.021C890.668 394.921 885.508 420.72 894.409 429.363C894.409 429.363 890.9 442.263 867.086 442.263C840.874 442.263 854.573 429.363 854.573 429.363C868.867 425.958 868.48 415.354 866.003 405.369L893.248 382.021Z" fill="#FFB573"/>
<path d="M849.542 434.524C845.44 435.091 848.949 424.436 850.6 423.326C854.47 420.746 904.419 417.16 904.083 423.326C903.877 425.906 902.638 431.066 900.471 432.769C898.304 434.472 885.456 429.157 849.542 434.524Z" fill="#263238"/>
<path d="M857.695 430.86C854.419 431.969 854.728 421.237 855.838 419.947C858.418 416.954 898.846 406.582 900.033 412.439C900.497 415.019 900.73 420.179 899.336 422.011C897.943 423.842 886.075 420.824 857.695 430.86Z" fill="#263238"/>
<path d="M842.654 358.904C842.491 358.911 842.33 358.88 842.182 358.812C842.034 358.745 841.904 358.644 841.802 358.517C841.015 357.502 840 356.685 838.839 356.134C837.679 355.583 836.405 355.312 835.12 355.343C834.986 355.361 834.849 355.352 834.719 355.316C834.588 355.28 834.466 355.218 834.36 355.134C834.254 355.049 834.166 354.944 834.102 354.825C834.037 354.706 833.998 354.575 833.985 354.44C833.963 354.175 834.045 353.911 834.213 353.704C834.381 353.497 834.623 353.363 834.888 353.331C836.512 353.248 838.132 353.559 839.61 354.237C841.088 354.916 842.38 355.941 843.376 357.227C843.549 357.436 843.632 357.705 843.608 357.976C843.584 358.246 843.454 358.496 843.247 358.672C843.072 358.797 842.868 358.877 842.654 358.904Z" fill="#263238"/>
<path d="M837.648 371.52C836.478 375.636 834.741 379.569 832.488 383.207C833.435 383.751 834.488 384.082 835.576 384.175C836.663 384.269 837.758 384.124 838.783 383.749L837.648 371.52Z" fill="#FF5652"/>
<path d="M838.913 368.398C839.094 370.127 838.294 371.623 837.159 371.726C836.023 371.83 834.966 370.54 834.811 368.785C834.656 367.031 835.43 365.56 836.539 365.457C837.649 365.354 838.732 366.644 838.913 368.398Z" fill="#263238"/>
<path d="M837.055 365.509L832.772 364.709C832.772 364.709 835.223 367.753 837.055 365.509Z" fill="#263238"/>
<path d="M920.286 1051.84H898.666L900.369 1001.79H921.989L920.286 1051.84Z" fill="#FFB573"/>
<path d="M896.963 1049.34H921.241C921.66 1049.33 922.067 1049.47 922.386 1049.74C922.705 1050.01 922.913 1050.39 922.97 1050.81L925.73 1070C925.785 1070.49 925.736 1070.98 925.587 1071.45C925.438 1071.91 925.192 1072.34 924.865 1072.7C924.539 1073.07 924.139 1073.36 923.692 1073.55C923.245 1073.75 922.761 1073.85 922.273 1073.85C913.811 1073.72 909.734 1073.2 899.053 1073.2C892.474 1073.2 882.876 1073.9 873.821 1073.9C864.765 1073.9 864.249 1064.92 868.041 1064.12C884.966 1060.46 887.649 1055.45 893.351 1050.65C894.367 1049.81 895.643 1049.34 896.963 1049.34Z" fill="#263238"/>
<g opacity="0.2">
<path d="M921.989 1001.79H900.368L899.491 1027.59H921.112L921.989 1001.79Z" fill="black"/>
</g>
<path d="M834.295 459.24C821.065 454.096 808.105 448.284 795.466 441.825C782.41 435.446 769.973 427.871 758.314 419.198C755.199 416.758 752.251 414.112 749.49 411.278C748.768 410.504 748.045 409.781 747.349 408.878C746.531 407.956 745.773 406.982 745.078 405.963C743.175 403.191 741.988 399.991 741.621 396.649C741.337 393.481 741.769 390.289 742.885 387.31C743.78 384.915 745.004 382.657 746.523 380.602C749.015 377.194 751.957 374.139 755.269 371.52C761.115 366.865 767.427 362.827 774.103 359.471C777.302 357.769 780.553 356.246 783.856 354.827C787.158 353.408 790.409 352.067 793.943 350.854L798.51 360.787C787.261 367.882 775.6 375.7 767.034 384.42C765.117 386.362 763.429 388.518 762.003 390.844C760.765 392.882 760.79 394.405 760.997 394.276C761.203 394.147 760.997 394.276 761.358 394.534L762.39 395.643C762.777 396.107 763.319 396.572 763.809 397.062C765.995 399.073 768.313 400.935 770.749 402.635C776.075 406.406 781.624 409.852 787.364 412.955C793.169 416.206 799.155 419.276 805.244 422.217C817.421 428.048 830.012 433.646 842.37 438.755L834.295 459.24Z" fill="#FFB573"/>
<path d="M804.96 353.847L808.52 346.107L792.214 340.56C792.214 340.56 787.054 355.808 793.169 362.825C795.724 362.423 798.14 361.392 800.198 359.825C802.256 358.258 803.892 356.203 804.96 353.847Z" fill="#FFB573"/>
<path d="M808.443 329.363L795.466 325.596L792.215 340.457L808.443 346.107V329.363Z" fill="#FFB573"/>
<path d="M976.143 346.855L978.027 328.795L961.308 332.82C961.308 332.82 961.05 349.796 969.9 352.48L976.143 346.855Z" fill="#FFB573"/>
<path d="M969.977 316.076L959.063 321.158L961.308 332.691L978.026 328.743L969.977 316.076Z" fill="#FFB573"/>
<path d="M896.654 356.685C897.453 378.125 898.227 387.181 888.552 399.178C873.975 417.238 847.479 413.497 840.306 392.728C833.856 374.048 833.65 342.134 853.671 331.607C858.072 329.267 862.999 328.09 867.983 328.189C872.967 328.287 877.844 329.657 882.15 332.169C886.456 334.682 890.048 338.252 892.587 342.543C895.125 346.834 896.525 351.702 896.654 356.685Z" fill="#FFB573"/>
<path d="M887.313 399.152C908.366 390.044 922.195 370.772 916.364 340.895C910.766 312.231 891.416 309.393 883.418 315.327C875.42 321.261 855.476 312.412 843.505 322.474C822.865 339.941 842.37 358.594 852.587 369.869C858.675 382.407 866.673 408.053 887.313 399.152Z" fill="#263238"/>
<path d="M878.567 335.761C881.136 339.056 884.612 341.526 888.568 342.867C892.525 344.209 896.787 344.362 900.829 343.309C904.871 342.255 908.517 340.041 911.315 336.94C914.114 333.839 915.943 329.986 916.577 325.857C917.21 321.728 916.621 317.504 914.882 313.706C913.143 309.908 910.329 306.703 906.789 304.485C903.249 302.268 899.137 301.136 894.961 301.229C890.785 301.321 886.727 302.635 883.289 305.008C878.586 308.461 875.447 313.64 874.562 319.407C873.676 325.174 875.117 331.056 878.567 335.761Z" fill="#F3640E"/>
<path d="M884.037 317.34C881.018 300.054 897.35 286.741 919.228 293.165C941.106 299.59 929.548 318.965 925.033 334.445C920.518 349.925 932.334 364.683 937.236 352.892C942.138 341.102 933.882 337.412 933.882 337.412C933.882 337.412 957.102 343.424 935.534 369.611C913.965 395.798 894.434 366.876 899.723 349.822C904.006 336.122 886.901 333.671 884.037 317.34Z" fill="#263238"/>
<path d="M862.184 323.867C852.2 318.707 835.301 314.45 825.677 330.653C821.137 338.393 822.891 348.713 822.891 348.713L852.277 350.648L862.184 323.867Z" fill="#263238"/>
<path d="M819.434 343.604C819.261 343.591 819.099 343.511 818.984 343.381C818.868 343.251 818.808 343.082 818.815 342.908C818.815 342.469 819.563 332.098 825.833 325.596C840.977 309.858 858.728 323.016 863.784 327.273C863.893 327.388 863.956 327.539 863.961 327.698C863.965 327.856 863.911 328.01 863.809 328.132C863.707 328.253 863.564 328.332 863.407 328.355C863.25 328.377 863.091 328.341 862.959 328.253C858.083 324.074 841.106 311.561 826.839 326.473C820.905 332.639 820.182 342.882 820.182 342.985C820.18 343.077 820.158 343.167 820.118 343.25C820.077 343.333 820.02 343.406 819.949 343.465C819.878 343.523 819.795 343.566 819.707 343.59C819.618 343.614 819.525 343.619 819.434 343.604Z" fill="#263238"/>
<path d="M856.173 368.94C856.057 372.999 854.554 376.896 851.916 379.982C848.355 384.162 844.176 382.098 843.324 377.402C842.473 373.249 843.324 366.05 847.814 363.548C852.303 361.045 856.224 364.244 856.173 368.94Z" fill="#FFB573"/>
<path d="M851.529 565.33C851.529 565.33 852.923 715.357 865.926 798.949C876.452 866.467 895.88 1022.61 895.88 1022.61H925.369C925.369 1022.61 928.233 871.859 922.789 805.089C909.296 636.099 944.151 604.494 916.029 565.33H851.529Z" fill="#263238"/>
<path opacity="0.1" d="M851.529 565.33C851.529 565.33 852.923 715.357 865.926 798.949C876.452 866.467 895.88 1022.61 895.88 1022.61H925.369C925.369 1022.61 928.233 871.859 922.789 805.089C909.296 636.099 944.151 604.494 916.029 565.33H851.529Z" fill="white"/>
<path opacity="0.3" d="M867.035 633.39C877.355 678.669 869.124 749.98 863.474 781.379C857.489 733.7 854.47 671.909 852.974 626.579C858.314 617.962 863.371 617.394 867.035 633.39Z" fill="black"/>
<path d="M891.855 1023.18H929.394L931.355 1010.02L891.648 1008.68L891.855 1023.18Z" fill="#F3640E"/>
<path d="M902.561 438.6C906.096 431.582 925.084 427.171 935.456 427.196L943.196 461.665C943.196 461.665 922.556 492.341 913.939 489.091C903.799 485.35 895.002 453.745 902.561 438.6Z" fill="#F3640E"/>
<path d="M880.683 1014.74C880.726 1014.67 880.749 1014.58 880.749 1014.49C880.749 1014.41 880.726 1014.32 880.683 1014.25C880.635 1014.15 880.556 1014.07 880.459 1014.02C880.361 1013.97 880.25 1013.95 880.141 1013.97C879.058 1014.15 869.512 1015.64 868.222 1018.38C868.084 1018.63 868.012 1018.91 868.012 1019.19C868.012 1019.47 868.084 1019.75 868.222 1020C868.443 1020.41 868.761 1020.76 869.148 1021.01C869.535 1021.27 869.979 1021.43 870.441 1021.47C873.562 1021.78 878.181 1017.45 880.503 1014.82L880.683 1014.74ZM869.228 1018.71C870.105 1017.27 875.059 1015.93 878.826 1015.23C875.42 1018.69 872.427 1020.62 870.673 1020.39C870.369 1020.36 870.078 1020.25 869.826 1020.08C869.574 1019.91 869.368 1019.68 869.228 1019.41C869.171 1019.31 869.142 1019.2 869.142 1019.09C869.142 1018.97 869.171 1018.86 869.228 1018.76C869.228 1018.76 869.202 1018.74 869.228 1018.71Z" fill="#F3640E"/>
<path d="M880.683 1014.74C880.726 1014.67 880.748 1014.58 880.748 1014.49C880.748 1014.41 880.726 1014.32 880.683 1014.25C880.528 1014.07 876.709 1009.66 873.175 1009.42C872.666 1009.38 872.153 1009.44 871.669 1009.61C871.185 1009.77 870.741 1010.04 870.363 1010.38C869.305 1011.33 869.408 1012.16 869.666 1012.68C870.775 1014.89 877.638 1015.67 880.399 1015.08C880.47 1015.05 880.533 1015 880.583 1014.94C880.632 1014.88 880.667 1014.81 880.683 1014.74ZM870.595 1011.49C870.708 1011.31 870.847 1011.16 871.008 1011.02C871.277 1010.77 871.599 1010.57 871.951 1010.45C872.302 1010.33 872.676 1010.29 873.046 1010.33C875.446 1010.92 877.602 1012.25 879.212 1014.12C876.142 1014.38 871.188 1013.45 870.517 1012.11C870.474 1012.01 870.459 1011.9 870.472 1011.79C870.486 1011.68 870.528 1011.58 870.595 1011.49Z" fill="#F3640E"/>
<path d="M903.206 1005.58L883.444 1014.38L874.646 996.035L863.139 972.041L861.771 969.254L881.534 960.457L883.056 963.604L894.202 986.85L903.206 1005.58Z" fill="#FFB573"/>
<path opacity="0.2" d="M894.202 986.85L874.646 996.035L863.139 972.041L883.056 963.604L894.202 986.85Z" fill="black"/>
<path d="M828.36 565.33C828.36 565.33 765.228 722.4 782.333 796.188C797.813 862.984 866.183 989.482 866.183 989.482L892.68 976.22C892.68 976.22 850.393 823.51 845.827 790.331C836.9 725.831 894.253 634.68 894.253 565.33H828.36Z" fill="#263238"/>
<path opacity="0.1" d="M828.36 565.33C828.36 565.33 765.228 722.4 782.333 796.188C797.813 862.984 866.183 989.482 866.183 989.482L892.68 976.22C892.68 976.22 850.393 823.51 845.827 790.331C836.9 725.831 894.253 634.68 894.253 565.33H828.36Z" fill="white"/>
<path d="M879.935 1011.62L899.543 997.351C899.873 997.092 900.288 996.964 900.707 996.993C901.126 997.022 901.52 997.204 901.813 997.505L915.358 1011.41C915.687 1011.77 915.935 1012.2 916.087 1012.67C916.239 1013.13 916.291 1013.63 916.24 1014.11C916.188 1014.6 916.035 1015.07 915.79 1015.49C915.545 1015.92 915.213 1016.28 914.816 1016.57C907.876 1021.42 904.29 1023.43 895.673 1029.7C890.358 1033.57 879.78 1042.11 872.453 1047.45C865.125 1052.79 859.553 1045.83 862.133 1042.96C873.691 1030.06 876.116 1022.07 877.922 1014.82C878.202 1013.55 878.913 1012.42 879.935 1011.62Z" fill="#263238"/>
<path d="M864.481 995.08L898.614 979.471L894.254 965.565L857.695 982.232L864.481 995.08Z" fill="#F3640E"/>
<path d="M845.105 436.949C842.292 429.621 817.628 421.469 805.244 418.889L799.8 459.446C799.8 459.446 820.027 488.497 828.876 486.098C839.351 483.26 851.193 452.661 845.105 436.949Z" fill="#F3640E"/>
<path d="M818.041 434.911C818.041 434.911 807.721 438.522 828.361 565.329H916.081C914.61 529.622 914.559 507.589 931.561 434.266C919.269 431.729 906.809 430.091 894.28 429.364C881.019 428.408 867.706 428.408 854.445 429.364C837.442 430.86 818.041 434.911 818.041 434.911Z" fill="#F3640E"/>
<path d="M917.448 560.195L921.396 567.935C921.705 568.555 920.983 569.174 919.977 569.174H827.922C827.122 569.174 826.477 568.787 826.426 568.271L825.626 560.531C825.626 559.989 826.271 559.525 827.122 559.525H915.9C916.195 559.478 916.497 559.516 916.772 559.635C917.046 559.754 917.28 559.948 917.448 560.195Z" fill="#F3640E"/>
<path opacity="0.3" d="M917.448 560.195L921.396 567.935C921.705 568.555 920.983 569.174 919.977 569.174H827.922C827.122 569.174 826.477 568.787 826.426 568.271L825.626 560.531C825.626 559.989 826.271 559.525 827.122 559.525H915.9C916.195 559.478 916.497 559.516 916.772 559.635C917.046 559.754 917.28 559.948 917.448 560.195Z" fill="white"/>
<path d="M905.58 570.18H907.953C908.443 570.18 908.805 569.922 908.753 569.638L907.644 559.318C907.644 559.009 907.205 558.776 906.741 558.776H904.341C903.877 558.776 903.516 559.009 903.541 559.318L904.651 569.638C904.625 569.87 905.038 570.18 905.58 570.18Z" fill="#263238"/>
<path d="M847.814 570.18H850.188C850.652 570.18 851.013 569.922 850.987 569.638L849.878 559.318C849.878 559.009 849.439 558.776 848.949 558.776H846.576C846.085 558.776 845.75 559.009 845.776 559.318L846.885 569.638C846.911 569.87 847.324 570.18 847.814 570.18Z" fill="#263238"/>
</svg>
