<svg width="169" height="124" viewBox="0 0 169 124" fill="none" xmlns="http://www.w3.org/2000/svg">
<g clip-path="url(#clip0_3596_3459)">
<path d="M37.5207 34.2086L5.99316 55.2139L37.0489 101.456L68.5765 80.4512L37.5207 34.2086Z" fill="#F5F5F5"/>
<path d="M52.2872 78.2736L51.9219 80.4564L36.2441 78.2176L36.6094 76.0068L52.2872 78.2736Z" fill="#E0E0E0"/>
<path d="M44.3922 70.3818L46.6399 70.7177L44.1393 86.0812L41.8916 85.7734L44.3922 70.3818Z" fill="#E0E0E0"/>
<path d="M29.9506 50.8479C29.9787 50.8759 26.8038 53.0307 22.8984 55.6333C18.9649 58.2359 15.79 60.3347 15.7619 60.3067C15.7338 60.2788 18.9087 58.1239 22.8141 55.5214C26.7476 52.9188 29.9225 50.8199 29.9506 50.8479Z" fill="#E0E0E0"/>
<path d="M41.5545 47.966C41.5826 47.994 36.3285 51.548 29.8102 55.8577C23.3199 60.1953 18.0097 63.6654 17.9816 63.6374C17.9535 63.6094 23.2075 60.0554 29.7259 55.7457C36.2442 51.4081 41.5264 47.938 41.5545 47.966Z" fill="#E0E0E0"/>
<path d="M43.8865 51.4362C43.9146 51.4642 38.6606 55.0182 32.1422 59.3279C25.6519 63.6655 20.3417 67.1356 20.3136 67.1076C20.2855 67.0796 25.5395 63.5256 32.0579 59.2159C38.5482 54.8783 43.8584 51.3802 43.8865 51.4362Z" fill="#E0E0E0"/>
<path d="M46.1902 54.8781C46.2183 54.9061 40.9643 58.4601 34.4459 62.7698C27.9556 67.1074 22.6454 70.5775 22.6173 70.5495C22.5892 70.5215 27.8432 66.9675 34.3616 62.6578C40.88 58.3482 46.1621 54.8501 46.1902 54.8781Z" fill="#E0E0E0"/>
<path d="M48.5222 58.3478C48.5503 58.3758 43.2963 61.9299 36.7779 66.2395C30.2876 70.5771 24.9774 74.0472 24.9493 74.0192C24.9212 73.9912 30.1753 70.4372 36.6936 66.1276C43.212 61.7899 48.4941 58.3198 48.5222 58.3478Z" fill="#E0E0E0"/>
<path d="M142.931 65.1935L116.448 82.8379L142.521 121.66L169.004 104.016L142.931 65.1935Z" fill="#F5F5F5"/>
<path d="M155.345 102.2L155.036 104.047L141.887 102.144L142.168 100.297L155.345 102.2Z" fill="#E0E0E0"/>
<path d="M148.714 95.5957L150.596 95.8476L148.489 108.776L146.606 108.497L148.714 95.5957Z" fill="#E0E0E0"/>
<path d="M136.576 79.1683C136.604 79.1963 133.935 81.0153 130.648 83.1981C127.36 85.3809 124.663 87.1439 124.635 87.1159C124.607 87.088 127.276 85.269 130.563 83.0861C133.879 80.9033 136.548 79.1403 136.576 79.1683Z" fill="#E0E0E0"/>
<path d="M146.326 76.7336C146.354 76.7616 141.943 79.7559 136.492 83.3939C131.042 87.0319 126.574 89.9423 126.574 89.9144C126.546 89.8864 130.957 86.892 136.436 83.254C141.859 79.644 146.298 76.7056 146.326 76.7336Z" fill="#E0E0E0"/>
<path d="M148.265 79.6447C148.293 79.6727 143.882 82.6671 138.431 86.3051C132.98 89.9431 128.513 92.8535 128.513 92.8255C128.485 92.7975 132.896 89.8032 138.375 86.1651C143.797 82.5551 148.237 79.6167 148.265 79.6447Z" fill="#E0E0E0"/>
<path d="M150.231 82.5549C150.26 82.5829 145.848 85.5772 140.398 89.2152C134.947 92.8532 130.48 95.7636 130.48 95.7357C130.452 95.7077 134.863 92.7133 140.341 89.0753C145.764 85.4373 150.203 82.5269 150.231 82.5549Z" fill="#E0E0E0"/>
<path d="M152.17 85.465C152.198 85.493 147.787 88.4874 142.336 92.1254C136.885 95.7634 132.418 98.6738 132.418 98.6458C132.39 98.6178 136.801 95.6235 142.28 91.9855C147.703 88.3475 152.142 85.4371 152.17 85.465Z" fill="#E0E0E0"/>
<path d="M101.058 35.9186L72.1699 20.5303L49.4192 62.9005L78.3074 78.2888L101.058 35.9186Z" fill="#F5F5F5"/>
<path d="M73.3594 65.0357L71.5331 65.6514L66.8691 52.8344L68.6954 52.2188L73.3594 65.0357Z" fill="#E0E0E0"/>
<path d="M76.1686 55.8291L76.843 57.6761L64.0591 62.0417L63.3848 60.1947L76.1686 55.8291Z" fill="#E0E0E0"/>
<path d="M85.2442 36.9397C85.2161 36.9957 82.2941 35.4565 78.6977 33.5536C75.1014 31.6506 72.2075 30.0555 72.2356 29.9995C72.2637 29.9436 75.1857 31.4827 78.782 33.3857C82.3784 35.3166 85.2723 36.8838 85.2442 36.9397Z" fill="#E0E0E0"/>
<path d="M92.1845 44.5514C92.1564 44.6074 87.3238 42.0608 81.3674 38.8705C75.4109 35.7083 70.6064 33.0777 70.6064 33.0497C70.6345 32.9938 75.4671 35.5404 81.4236 38.7306C87.38 41.9209 92.1845 44.5234 92.1845 44.5514Z" fill="#E0E0E0"/>
<path d="M90.4706 47.7409C90.4425 47.7968 85.61 45.2502 79.6535 42.06C73.6971 38.8977 68.8926 36.2672 68.8926 36.2392C68.9207 36.1832 73.7533 38.7298 79.7097 41.9201C85.6942 45.0823 90.4987 47.6849 90.4706 47.7409Z" fill="#E0E0E0"/>
<path d="M88.7568 50.904C88.7287 50.9599 83.8961 48.4133 77.9396 45.2231C71.9832 42.0608 67.1787 39.4303 67.1787 39.4023C67.2068 39.3463 72.0394 41.8929 77.9958 45.0832C83.9804 48.2454 88.7849 50.848 88.7568 50.904Z" fill="#E0E0E0"/>
<path d="M87.0702 54.0661C87.0421 54.122 82.2096 51.5754 76.2531 48.3852C70.2967 45.2229 65.4922 42.5924 65.4922 42.5644C65.5203 42.5084 70.3529 45.055 76.3093 48.2453C82.2658 51.4355 87.0983 54.0381 87.0702 54.0661Z" fill="#E0E0E0"/>
<path opacity="0.2" d="M87.211 0H86.4805V12.3132H87.211V0Z" fill="black"/>
<path d="M69.9316 27.2013H103.788C103.788 27.2013 100.669 12.3135 86.6209 12.3135C74.0899 12.3135 69.9316 27.2013 69.9316 27.2013Z" fill="#F07C33"/>
<path d="M87.211 0H86.4805V12.3132H87.211V0Z" fill="#F07C33"/>
<path d="M162.201 123.076C162.201 123.104 125.872 123.16 81.0863 123.16C36.3006 123.16 0 123.132 0 123.076C0 123.048 36.3006 122.992 81.1144 122.992C125.9 123.02 162.201 123.048 162.201 123.076Z" fill="#263238"/>
<path d="M8.99081 105.559C9.94609 105.587 10.8452 106.118 11.4633 106.818C12.0814 107.518 12.4748 108.413 12.7276 109.337C13.2053 111.1 12.9243 113.198 12.3905 114.961C10.4799 114.29 9.27178 112.247 8.73795 111.156C7.89505 109.448 7.38932 105.866 8.99081 105.559Z" fill="#F07C33"/>
<path d="M15.144 117.116C14.5259 116.249 14.5259 115.045 15.0035 114.094C15.4811 113.142 16.4083 112.471 17.4198 112.163C17.8974 112.023 18.4313 111.967 18.8527 112.219C19.2461 112.471 19.3865 112.974 19.3584 113.422C19.3022 113.87 19.0775 114.29 18.7965 114.654C17.8412 115.913 16.7174 116.976 15.144 117.116Z" fill="#F07C33"/>
<path d="M15.3691 123.021C15.3691 123.021 15.341 122.881 15.2848 122.657C15.2286 122.405 15.1724 122.069 15.0881 121.65C14.9476 120.81 14.6948 119.607 14.8915 118.263C15.06 116.948 15.5939 115.801 16.1558 115.129C16.4368 114.793 16.6896 114.542 16.8863 114.402C16.9706 114.318 17.0549 114.262 17.1111 114.234C17.1673 114.206 17.1954 114.178 17.1954 114.178C17.2235 114.206 16.7458 114.486 16.212 115.185C15.6782 115.857 15.1724 116.976 15.0038 118.291C14.8353 119.607 15.06 120.782 15.1724 121.65C15.2286 122.069 15.2848 122.433 15.341 122.657C15.3691 122.881 15.3691 123.021 15.3691 123.021Z" fill="#263238"/>
<path d="M9.60868 108.245C9.60868 108.245 9.63677 108.301 9.69297 108.385C9.74916 108.497 9.80535 108.637 9.88964 108.805C10.0582 109.169 10.3111 109.728 10.5921 110.4C11.1821 111.743 11.9407 113.59 12.7555 115.689C13.5703 117.76 14.2446 119.663 14.7222 121.034C14.9751 121.734 15.1437 122.293 15.2842 122.685C15.3403 122.881 15.3965 123.021 15.4246 123.133C15.4527 123.245 15.4808 123.301 15.4527 123.301C15.4527 123.301 15.4246 123.245 15.3965 123.161C15.3403 123.049 15.3123 122.909 15.228 122.713C15.0875 122.321 14.8908 121.762 14.6379 121.09C14.1322 119.719 13.4298 117.844 12.615 115.745C11.8002 113.674 11.0416 111.799 10.4797 110.456C10.1987 109.784 9.97393 109.253 9.83345 108.861C9.74916 108.693 9.69297 108.525 9.66487 108.413C9.60868 108.301 9.58058 108.245 9.60868 108.245Z" fill="#263238"/>
<path d="M13.0649 119.103C11.9411 117.172 9.80576 115.857 7.58614 115.717C7.02421 115.689 6.3218 115.773 6.06893 116.276C5.81607 116.78 6.15322 117.396 6.54657 117.816C8.14807 119.551 10.8734 120.166 13.093 119.271" fill="#F07C33"/>
<path d="M8.45703 117.229C8.45703 117.229 8.59751 117.229 8.82228 117.229C8.93467 117.229 9.07515 117.257 9.24373 117.284C9.41231 117.312 9.58089 117.34 9.77756 117.396C9.97424 117.452 10.199 117.48 10.4238 117.564C10.6486 117.62 10.9014 117.732 11.1543 117.844C11.66 118.068 12.1658 118.348 12.6715 118.74C13.1772 119.131 13.5987 119.551 13.9358 119.971C14.1044 120.195 14.2449 120.391 14.3854 120.615C14.5259 120.811 14.6101 121.006 14.7225 121.202C14.8349 121.37 14.8911 121.566 14.9473 121.706C15.0035 121.846 15.0597 121.986 15.0878 122.098C15.144 122.322 15.2002 122.434 15.1721 122.434C15.144 122.434 15.0035 121.958 14.6382 121.23C14.5259 121.062 14.4416 120.867 14.3011 120.671C14.1887 120.475 14.0201 120.279 13.8515 120.055C13.5144 119.635 13.0929 119.215 12.6153 118.852C12.1096 118.488 11.6038 118.18 11.1262 117.956C10.8733 117.844 10.6486 117.76 10.4238 117.676C10.199 117.592 9.97424 117.536 9.77756 117.48C8.96277 117.284 8.45703 117.257 8.45703 117.229Z" fill="#263238"/>
<path d="M135.987 29.5239C135.172 29.7198 134.751 30.6713 134.667 31.5108C134.582 32.3503 134.695 33.2459 134.329 34.0014C133.936 34.869 132.981 35.5126 132.953 36.4641C132.925 37.0518 133.29 37.5835 133.262 38.1712C133.234 39.1226 132.25 39.8502 132.222 40.8017C132.194 41.4733 132.644 42.145 132.531 42.8166C132.447 43.3483 132.025 43.7681 131.857 44.2718C131.52 45.2793 132.194 46.3707 133.093 46.9583C134.105 47.602 135.397 47.7419 136.521 47.3781C137.645 47.0143 138.6 46.1468 139.05 45.0554C139.555 43.852 139.443 42.4808 139.331 41.1935C138.993 37.1357 138.741 33.0779 138.572 28.9922" fill="#263238"/>
<path d="M133.599 43.852C133.571 43.824 133.824 43.7681 133.964 43.4043C134.048 43.2364 134.076 42.9845 134.048 42.7326C134.048 42.4528 133.936 42.173 133.852 41.8371C133.767 41.5013 133.627 41.1095 133.711 40.6898C133.796 40.242 134.105 39.9062 134.386 39.5424C134.526 39.3745 134.667 39.1786 134.779 38.9547C134.863 38.7588 134.891 38.507 134.835 38.2831C134.695 37.8353 134.245 37.4995 134.02 36.9678C133.908 36.716 133.908 36.4081 133.964 36.1563C134.02 35.9044 134.133 35.6525 134.245 35.4287C134.47 34.9809 134.695 34.5611 134.807 34.1134C135.004 33.2179 134.919 32.3783 135.06 31.6787C135.172 30.9791 135.481 30.4474 135.762 30.1955C135.903 30.0556 136.043 29.9716 136.128 29.9437C136.212 29.9157 136.268 29.8877 136.268 29.8877C136.268 29.9157 136.071 29.9716 135.79 30.2515C135.509 30.5313 135.257 31.0351 135.144 31.7067C135.088 32.0425 135.088 32.4343 135.06 32.8261C135.032 33.2459 135.032 33.6936 134.919 34.1414C134.835 34.6171 134.582 35.0369 134.357 35.4846C134.133 35.9324 133.964 36.4361 134.133 36.9118C134.301 37.3876 134.751 37.7234 134.947 38.2551C135.032 38.507 135.004 38.7868 134.891 39.0107C134.779 39.2346 134.638 39.4305 134.498 39.6264C134.217 39.9902 133.908 40.326 133.852 40.7178C133.767 41.1095 133.88 41.4733 133.992 41.8092C134.076 42.145 134.189 42.4528 134.189 42.7326C134.189 43.0125 134.161 43.2644 134.076 43.4323C133.992 43.6282 133.88 43.7401 133.796 43.7961C133.655 43.8241 133.599 43.852 133.599 43.852Z" fill="#455A64"/>
<path d="M131.379 50.4844L128.85 57.7604L118.286 58.3201L116.516 62.2379L127.558 63.3573C129.749 64.2528 132.278 63.1614 133.093 60.9227L136.043 52.7231L131.379 50.4844Z" fill="#D39F8B"/>
<path d="M153.266 119.13C153.266 119.13 145.512 94.6158 145.343 93.8042C145.202 93.0766 148.153 75.4463 148.518 70.8848L138.038 71.2765C138.038 71.2765 138.038 71.3045 138.038 71.3605L133.599 71.6124L137.588 121.733H142.421L141.943 105.082C144.921 113.03 149.164 121.117 149.164 121.117L153.266 119.13Z" fill="#D39F8B"/>
<path d="M142.14 111.07C142.14 110.93 142.084 105.501 142.084 105.501C142.027 105.837 140.229 100.8 140.285 100.492C140.285 100.324 142.14 111.07 142.14 111.07Z" fill="#A36957"/>
<path d="M140.06 98.0859C140.06 98.0859 140.032 98.1979 140.032 98.3938C140.032 98.5897 140.032 98.8695 140.032 99.2333C140.032 99.4012 140.06 99.5971 140.088 99.793C140.117 99.9889 140.145 100.213 140.201 100.437C140.285 100.884 140.426 101.388 140.594 101.892C140.931 102.899 141.325 103.795 141.606 104.438C141.746 104.718 141.858 104.998 141.943 105.194C142.027 105.362 142.083 105.474 142.083 105.474C142.083 105.474 142.055 105.362 141.999 105.194C141.943 104.998 141.83 104.746 141.718 104.41C141.465 103.767 141.1 102.871 140.763 101.864C140.594 101.36 140.454 100.884 140.369 100.437C140.313 100.213 140.285 99.9889 140.257 99.793C140.229 99.5971 140.201 99.4012 140.201 99.2333C140.173 98.8975 140.145 98.6176 140.145 98.4218C140.088 98.1979 140.088 98.0859 140.06 98.0859Z" fill="#A36957"/>
<path d="M137.504 121.985V121.537L142.449 121.313V123.16L142.14 123.188C140.791 123.272 135.256 123.496 134.329 123.216C133.346 122.937 137.504 121.985 137.504 121.985Z" fill="#455A64"/>
<path d="M142.533 123.076C142.533 123.076 142.505 123.076 142.449 123.076C142.364 123.076 142.308 123.076 142.196 123.104C141.943 123.104 141.662 123.132 141.297 123.132C140.538 123.16 139.498 123.188 138.347 123.188C137.195 123.188 136.155 123.188 135.396 123.16C135.031 123.16 134.75 123.132 134.497 123.132C134.413 123.132 134.329 123.132 134.244 123.132C134.329 123.132 134.385 123.132 134.497 123.132C134.75 123.132 135.031 123.132 135.396 123.16C136.155 123.16 137.195 123.188 138.347 123.188C139.498 123.188 140.538 123.16 141.297 123.132C141.662 123.132 141.943 123.104 142.196 123.104C142.28 123.104 142.364 123.104 142.449 123.104C142.477 123.076 142.533 123.076 142.533 123.076Z" fill="#263238"/>
<path d="M135.902 123.217C135.874 123.217 135.874 122.993 135.734 122.797C135.593 122.573 135.425 122.461 135.425 122.461C135.425 122.433 135.65 122.545 135.79 122.769C135.931 122.993 135.931 123.245 135.902 123.217Z" fill="#263238"/>
<path d="M137.363 122.489C137.363 122.489 137.279 122.405 137.194 122.293C137.11 122.181 137.082 122.069 137.082 122.069C137.082 122.069 137.166 122.153 137.251 122.265C137.307 122.377 137.363 122.489 137.363 122.489Z" fill="#263238"/>
<path d="M137.756 122.293C137.756 122.293 137.672 122.265 137.588 122.181C137.503 122.097 137.447 122.041 137.447 122.013C137.447 122.013 137.532 122.041 137.616 122.125C137.7 122.209 137.756 122.265 137.756 122.293Z" fill="#263238"/>
<path d="M138.01 121.817C138.01 121.845 137.897 121.845 137.757 121.845C137.616 121.845 137.504 121.845 137.504 121.817C137.504 121.789 137.616 121.789 137.757 121.789C137.869 121.789 138.01 121.789 138.01 121.817Z" fill="#263238"/>
<path d="M138.094 121.481C138.094 121.509 137.982 121.565 137.813 121.565C137.644 121.565 137.504 121.537 137.504 121.537C137.504 121.509 137.644 121.537 137.785 121.509C137.953 121.509 138.066 121.481 138.094 121.481Z" fill="#263238"/>
<path d="M137.195 122.069C137.195 122.069 137.082 122.097 136.886 122.069C136.801 122.069 136.661 122.041 136.549 121.985C136.492 121.957 136.436 121.957 136.352 121.901C136.324 121.873 136.296 121.845 136.268 121.817C136.268 121.761 136.268 121.705 136.324 121.705C136.633 121.537 136.914 121.705 137.026 121.873C137.082 121.957 137.11 122.041 137.139 122.069C137.139 122.125 137.139 122.153 137.139 122.153C137.139 122.153 137.11 122.041 136.998 121.873C136.942 121.789 136.858 121.733 136.717 121.705C136.605 121.677 136.436 121.677 136.352 121.733C136.296 121.761 136.324 121.817 136.38 121.873C136.436 121.901 136.492 121.929 136.549 121.957C136.661 121.985 136.773 122.013 136.886 122.041C137.054 122.069 137.195 122.041 137.195 122.069Z" fill="#263238"/>
<path d="M137.11 122.069C137.11 122.069 137.054 121.985 137.082 121.845C137.082 121.789 137.11 121.705 137.166 121.621C137.223 121.565 137.307 121.453 137.419 121.453C137.504 121.453 137.532 121.537 137.504 121.593C137.504 121.649 137.475 121.705 137.447 121.733C137.391 121.817 137.335 121.873 137.307 121.929C137.194 122.041 137.138 122.069 137.11 122.069C137.138 122.069 137.194 122.013 137.279 121.901C137.335 121.845 137.363 121.789 137.419 121.705C137.475 121.649 137.504 121.509 137.419 121.509C137.335 121.509 137.251 121.593 137.223 121.649C137.166 121.705 137.138 121.789 137.138 121.845C137.082 121.985 137.11 122.069 137.11 122.069Z" fill="#263238"/>
<path d="M142.421 121.733C142.421 121.733 142.28 121.733 142.055 121.761C141.831 121.789 141.522 121.873 141.269 122.097C141.016 122.321 140.847 122.601 140.763 122.796C140.679 123.02 140.679 123.16 140.679 123.132C140.679 123.132 140.679 123.104 140.679 123.02C140.679 122.964 140.707 122.852 140.735 122.768C140.791 122.545 140.96 122.265 141.241 122.041C141.522 121.817 141.831 121.733 142.055 121.705C142.168 121.705 142.252 121.705 142.336 121.705C142.393 121.705 142.421 121.733 142.421 121.733Z" fill="#263238"/>
<path d="M140.061 122.684C140.061 122.712 139.752 122.74 139.33 122.74C138.937 122.74 138.6 122.684 138.6 122.684C138.6 122.656 138.909 122.684 139.33 122.684C139.723 122.684 140.061 122.656 140.061 122.684Z" fill="#263238"/>
<path d="M141.015 122.656C141.015 122.656 140.987 122.712 140.959 122.796C140.931 122.88 140.903 122.936 140.903 122.936C140.875 122.936 140.875 122.852 140.903 122.768C140.931 122.712 140.987 122.656 141.015 122.656Z" fill="#263238"/>
<path d="M141.381 122.209C141.381 122.209 141.353 122.265 141.297 122.321C141.241 122.377 141.185 122.405 141.185 122.405C141.185 122.405 141.213 122.349 141.269 122.293C141.325 122.237 141.353 122.209 141.381 122.209Z" fill="#263238"/>
<path d="M141.886 122.013C141.886 122.041 141.83 122.041 141.746 122.041C141.662 122.069 141.634 122.097 141.605 122.097C141.605 122.097 141.634 122.013 141.718 121.985C141.83 121.957 141.886 121.985 141.886 122.013Z" fill="#263238"/>
<path d="M142.252 121.901C142.252 121.929 142.224 121.929 142.196 121.957C142.168 121.985 142.111 121.985 142.111 121.957C142.111 121.929 142.139 121.929 142.168 121.901C142.224 121.901 142.252 121.901 142.252 121.901Z" fill="#263238"/>
<path d="M149.081 121.565L148.884 121.145L153.295 118.935L154.082 120.614L153.801 120.754C152.593 121.369 147.648 123.86 146.692 123.972C145.653 124.112 149.081 121.565 149.081 121.565Z" fill="#455A64"/>
<path d="M154.081 120.502C154.081 120.502 154.053 120.53 153.997 120.558C153.941 120.586 153.856 120.642 153.772 120.67C153.547 120.782 153.294 120.922 152.985 121.062C152.311 121.397 151.384 121.845 150.316 122.321C149.277 122.797 148.321 123.216 147.619 123.496C147.282 123.636 147.029 123.748 146.804 123.832C146.72 123.86 146.636 123.888 146.579 123.916C146.523 123.944 146.495 123.944 146.495 123.944C146.495 123.944 146.523 123.916 146.579 123.916C146.636 123.888 146.72 123.86 146.804 123.832C147.029 123.748 147.31 123.608 147.619 123.468C148.321 123.16 149.277 122.769 150.316 122.293C151.356 121.817 152.311 121.369 152.985 121.062C153.294 120.922 153.575 120.782 153.8 120.67C153.884 120.642 153.941 120.586 154.025 120.558C154.053 120.502 154.081 120.502 154.081 120.502Z" fill="#263238"/>
<path d="M148.125 123.328C148.097 123.328 148.012 123.16 147.788 123.02C147.591 122.88 147.366 122.852 147.366 122.824C147.366 122.796 147.591 122.796 147.816 122.964C148.041 123.132 148.125 123.328 148.125 123.328Z" fill="#263238"/>
<path d="M149.136 122.069C149.136 122.069 149.024 122.041 148.912 121.957C148.799 121.873 148.715 121.817 148.715 121.789C148.715 121.789 148.827 121.817 148.94 121.901C149.052 121.985 149.136 122.069 149.136 122.069Z" fill="#263238"/>
<path d="M149.417 121.733C149.417 121.761 149.332 121.733 149.22 121.705C149.108 121.677 149.023 121.621 149.023 121.621C149.023 121.593 149.108 121.621 149.22 121.649C149.332 121.677 149.417 121.705 149.417 121.733Z" fill="#263238"/>
<path d="M149.445 121.202C149.445 121.23 149.361 121.286 149.221 121.342C149.08 121.398 148.996 121.426 148.968 121.426C148.968 121.398 149.052 121.342 149.193 121.286C149.333 121.23 149.445 121.174 149.445 121.202Z" fill="#263238"/>
<path d="M149.39 120.865C149.39 120.865 149.305 120.977 149.165 121.061C149.024 121.145 148.884 121.173 148.884 121.145C148.884 121.117 148.996 121.089 149.137 121.005C149.277 120.921 149.39 120.865 149.39 120.865Z" fill="#263238"/>
<path d="M148.799 121.761C148.799 121.761 148.686 121.817 148.518 121.901C148.434 121.929 148.321 121.957 148.181 121.985C148.125 121.985 148.04 122.013 147.984 121.985C147.956 121.985 147.9 121.957 147.872 121.929C147.844 121.901 147.844 121.845 147.872 121.789C148.068 121.509 148.434 121.565 148.602 121.649C148.686 121.705 148.743 121.761 148.771 121.789C148.799 121.845 148.827 121.873 148.827 121.873C148.827 121.873 148.743 121.761 148.574 121.677C148.49 121.649 148.377 121.621 148.265 121.621C148.153 121.649 148.012 121.705 147.928 121.789C147.9 121.845 147.928 121.901 148.012 121.901C148.068 121.901 148.153 121.901 148.209 121.901C148.321 121.901 148.434 121.873 148.546 121.845C148.686 121.789 148.799 121.733 148.799 121.761Z" fill="#263238"/>
<path d="M148.743 121.789C148.743 121.789 148.659 121.733 148.631 121.593C148.603 121.537 148.603 121.453 148.603 121.341C148.631 121.258 148.659 121.146 148.771 121.09C148.855 121.062 148.996 121.202 149.024 121.257C149.052 121.313 148.94 121.285 148.94 121.313C148.94 121.397 148.912 121.481 148.884 121.537C148.827 121.733 148.771 121.789 148.743 121.789C148.743 121.761 148.799 121.705 148.827 121.565C148.855 121.509 148.855 121.425 148.855 121.341C148.855 121.258 148.855 121.146 148.771 121.174C148.687 121.202 148.659 121.313 148.631 121.369C148.603 121.453 148.631 121.537 148.631 121.593C148.687 121.733 148.743 121.789 148.743 121.789Z" fill="#263238"/>
<path d="M153.435 119.326C153.435 119.326 153.295 119.382 153.098 119.494C152.902 119.606 152.677 119.802 152.508 120.11C152.368 120.418 152.34 120.725 152.34 120.949C152.368 121.173 152.424 121.313 152.396 121.313C152.396 121.313 152.368 121.285 152.368 121.229C152.34 121.173 152.312 121.089 152.312 120.977C152.283 120.753 152.312 120.418 152.452 120.11C152.621 119.802 152.873 119.578 153.07 119.466C153.183 119.41 153.267 119.382 153.323 119.354C153.407 119.326 153.435 119.326 153.435 119.326Z" fill="#263238"/>
<path d="M151.664 121.146C151.664 121.146 151.412 121.342 151.046 121.509C150.681 121.677 150.372 121.761 150.372 121.761C150.372 121.733 150.681 121.621 151.018 121.481C151.384 121.286 151.664 121.118 151.664 121.146Z" fill="#263238"/>
<path d="M152.564 120.754C152.592 120.754 152.564 120.837 152.564 120.893C152.564 120.977 152.564 121.033 152.564 121.033C152.536 121.033 152.508 120.977 152.508 120.893C152.508 120.81 152.536 120.726 152.564 120.754Z" fill="#263238"/>
<path d="M152.704 120.194C152.732 120.194 152.704 120.25 152.676 120.334C152.648 120.39 152.62 120.446 152.592 120.446C152.564 120.446 152.592 120.39 152.62 120.306C152.648 120.222 152.676 120.166 152.704 120.194Z" fill="#263238"/>
<path d="M153.07 119.774C153.07 119.802 153.014 119.83 152.957 119.858C152.901 119.914 152.873 119.97 152.845 119.97C152.817 119.97 152.845 119.886 152.901 119.83C153.014 119.774 153.07 119.774 153.07 119.774Z" fill="#263238"/>
<path d="M153.379 119.551C153.379 119.551 153.379 119.607 153.351 119.635C153.323 119.663 153.295 119.691 153.267 119.663C153.267 119.663 153.267 119.607 153.295 119.579C153.323 119.551 153.379 119.523 153.379 119.551Z" fill="#263238"/>
<path d="M147.844 62.5736L147.029 52.5831L151.243 52.6671C151.243 52.6671 151.44 51.1839 150.822 47.9656C150.428 45.9787 149.108 44.7754 147.619 44.0478V44.0198L147.478 43.9918C145.596 43.1243 143.601 42.9844 143.601 42.9844L138.431 43.0403C138.431 43.0403 134.47 42.5366 132.278 45.3631C131.435 46.4545 128.822 53.8704 128.822 53.8704L135.032 56.8648L134.442 52.751C134.442 52.751 134.554 55.7174 134.947 56.6689C135.172 57.2006 135.762 58.8237 135.762 58.8237L135.678 63.749L147.844 62.5736Z" fill="#F07C33"/>
<path d="M145.005 51.1561L144.219 54.4023H151.468L150.99 48.9453L145.005 51.1561Z" fill="#F07C33"/>
<path d="M151.468 54.4016C151.468 54.3737 151.103 54.3457 150.513 54.3177C149.923 54.2897 149.108 54.2617 148.181 54.2617C147.282 54.2617 146.439 54.3177 145.849 54.3457C145.259 54.4016 144.894 54.4296 144.894 54.4576C144.894 54.4856 145.259 54.4576 145.849 54.4576C146.439 54.4296 147.254 54.4296 148.181 54.4016C149.08 54.4016 149.895 54.4016 150.513 54.4016C151.103 54.4296 151.468 54.4296 151.468 54.4016Z" fill="#263238"/>
<path d="M144.669 48.917C144.641 48.917 144.641 49.2248 144.641 49.7565C144.641 50.2603 144.669 50.9879 144.697 51.7434C144.725 52.527 144.753 53.2266 144.809 53.7304C144.837 54.2341 144.865 54.5699 144.893 54.5699C144.922 54.5699 144.922 54.2621 144.922 53.7304C144.922 53.2266 144.893 52.499 144.865 51.7434C144.837 50.9599 144.809 50.2603 144.753 49.7565C144.725 49.2248 144.697 48.917 144.669 48.917Z" fill="#263238"/>
<g opacity="0.3">
<path d="M138.066 51.7432C138.066 51.7432 139.668 63.6646 144.22 63.3288C144.22 63.3288 146.271 63.3008 146.917 61.9576V61.4259L138.066 51.7432Z" fill="black"/>
</g>
<g opacity="0.3">
<path d="M144.668 49.6172L143.825 55.438L144.387 56.4734L145.286 54.4585H144.893L144.668 49.6172Z" fill="black"/>
</g>
<path d="M135.818 58.8234C135.818 58.8234 135.762 58.7395 135.706 58.5436C135.622 58.3477 135.537 58.0958 135.425 57.76C135.2 57.0884 134.947 56.1649 134.723 55.1295C134.526 54.094 134.414 53.1146 134.386 52.415C134.357 52.0791 134.357 51.7713 134.357 51.5754C134.357 51.3795 134.357 51.2676 134.386 51.2676C134.414 51.2676 134.414 51.6873 134.498 52.387C134.554 53.0866 134.666 54.0381 134.891 55.0735C135.088 56.1089 135.341 57.0324 135.537 57.704C135.622 58.0119 135.706 58.2917 135.762 58.4876C135.79 58.7115 135.818 58.7954 135.818 58.8234Z" fill="#263238"/>
<path d="M137.644 62.2375C137.616 62.2375 137.503 61.9857 137.391 61.6498C137.279 61.314 137.251 61.0342 137.279 61.0342C137.307 61.0342 137.419 61.286 137.532 61.6219C137.616 61.9577 137.672 62.2375 137.644 62.2375Z" fill="#263238"/>
<path d="M138.262 62.1818C138.234 62.1818 138.094 61.818 138.094 61.3142C138.094 60.8105 138.206 60.4187 138.234 60.4467C138.262 60.4467 138.234 60.8385 138.234 61.3142C138.262 61.79 138.319 62.1818 138.262 62.1818Z" fill="#263238"/>
<path d="M135.2 56.9763C135.172 57.0042 133.739 56.3326 131.969 55.4371C130.199 54.5696 128.794 53.814 128.794 53.786C128.822 53.758 130.255 54.4296 132.025 55.3252C133.795 56.1927 135.2 56.9483 135.2 56.9763Z" fill="#263238"/>
<path d="M137.757 44.0196C137.785 42.5924 137.785 41.1092 137.785 41.1092C137.785 41.1092 135.959 40.7454 135.65 38.3667C135.341 36.0999 136.184 30.7549 136.184 30.7549C138.853 29.7474 141.607 30.6709 143.433 32.7978L142.983 44.2994C142.927 45.6427 141.747 46.6502 140.314 46.5942C138.853 46.5102 137.729 45.3629 137.757 44.0196Z" fill="#D39F8B"/>
<path d="M136.043 35.0084C136.043 35.1763 136.155 35.3162 136.324 35.3162C136.493 35.3162 136.633 35.2043 136.633 35.0363C136.633 34.8684 136.521 34.7285 136.352 34.7285C136.212 34.7285 136.071 34.8405 136.043 35.0084Z" fill="#263238"/>
<path d="M135.931 34.6164C135.959 34.6444 136.212 34.5045 136.521 34.5045C136.858 34.5045 137.083 34.6724 137.111 34.6444C137.139 34.6164 137.083 34.5605 136.998 34.4765C136.886 34.3925 136.717 34.3086 136.521 34.3086C136.324 34.3086 136.127 34.3646 136.043 34.4485C135.959 34.5045 135.931 34.5884 135.931 34.6164Z" fill="#263238"/>
<path d="M139.387 35.2047C139.387 35.3726 139.499 35.5125 139.668 35.5125C139.836 35.5125 139.977 35.4005 139.977 35.2326C139.977 35.0647 139.864 34.9248 139.696 34.9248C139.555 34.9248 139.415 35.0647 139.387 35.2047Z" fill="#263238"/>
<path d="M139.387 34.8127C139.415 34.8407 139.668 34.7008 139.977 34.7008C140.314 34.7008 140.539 34.8687 140.567 34.8407C140.595 34.8127 140.539 34.7567 140.455 34.6728C140.342 34.5888 140.174 34.5049 139.977 34.5049C139.78 34.5049 139.584 34.5609 139.499 34.6448C139.387 34.7288 139.359 34.7847 139.387 34.8127Z" fill="#263238"/>
<path d="M138.123 37.2189C138.123 37.1909 137.926 37.1629 137.589 37.1069C137.505 37.1069 137.421 37.0789 137.421 37.023C137.393 36.967 137.449 36.883 137.477 36.7711C137.561 36.5752 137.645 36.3513 137.73 36.1275C138.095 35.232 138.376 34.4764 138.32 34.4764C138.292 34.4484 137.954 35.176 137.589 36.0715C137.505 36.2954 137.421 36.4913 137.336 36.7151C137.308 36.7991 137.252 36.911 137.28 37.051C137.308 37.1069 137.364 37.1629 137.421 37.1909C137.477 37.2189 137.533 37.2189 137.561 37.2189C137.898 37.2189 138.123 37.2468 138.123 37.2189Z" fill="#263238"/>
<path d="M137.785 41.1091C137.785 41.1091 139.387 41.249 141.016 40.3535C141.016 40.3535 140.201 41.9766 137.813 41.6968L137.785 41.1091Z" fill="#A36957"/>
<path d="M140.426 33.8614C140.37 33.9733 140.117 33.9174 139.836 33.8614C139.555 33.8054 139.302 33.7495 139.274 33.6375C139.246 33.5256 139.527 33.3577 139.921 33.4416C140.286 33.5256 140.511 33.7775 140.426 33.8614Z" fill="#263238"/>
<path d="M137.139 33.3858C137.111 33.4978 136.858 33.5537 136.549 33.5537C136.24 33.5537 135.959 33.5537 135.931 33.4418C135.903 33.3298 136.156 33.134 136.521 33.134C136.914 33.106 137.167 33.2739 137.139 33.3858Z" fill="#263238"/>
<path d="M138.123 38.0037C138.067 37.9757 137.982 38.0316 137.954 38.0876C137.926 38.1716 137.926 38.2555 138.01 38.3115C138.067 38.3675 138.179 38.3675 138.235 38.3115C138.291 38.2555 138.32 38.1436 138.291 38.0876C138.263 38.0037 138.151 37.9757 138.067 38.0037" fill="#A36957"/>
<path d="M138.206 38.0314C138.235 38.0314 138.15 37.9475 138.01 37.9754C137.954 38.0034 137.869 38.0594 137.841 38.1433C137.813 38.2273 137.841 38.3672 137.954 38.4512C138.066 38.5351 138.178 38.5071 138.263 38.4512C138.347 38.3952 138.375 38.2833 138.375 38.2273C138.347 38.0874 138.235 38.0594 138.235 38.0874C138.235 38.1154 138.263 38.1433 138.263 38.2553C138.263 38.3113 138.235 38.3392 138.206 38.3672C138.178 38.3952 138.094 38.3952 138.066 38.3672C138.038 38.3392 138.01 38.2833 138.01 38.2273C138.01 38.1713 138.038 38.1433 138.094 38.1154C138.122 38.0314 138.178 38.0594 138.206 38.0314Z" fill="#263238"/>
<path d="M142.337 35.5966C142.056 36.2402 141.353 36.7719 141.466 37.4715C141.522 37.9193 141.831 38.367 141.775 38.8148C141.69 39.4025 141.1 39.7942 141.016 40.3539C140.904 41.0536 141.606 41.6133 141.859 42.2569C142.252 43.2084 141.747 44.2998 141.747 45.3072C141.719 46.9024 143.095 48.3855 144.669 48.4975C145.315 48.5534 146.045 48.3576 146.354 47.7979C146.635 47.3501 146.579 46.7624 146.748 46.2587C147.001 45.5031 147.703 44.9714 147.872 44.1878C148.153 42.7886 146.439 41.6133 146.551 40.186C146.607 39.5704 146.973 39.0387 147.141 38.451C147.366 37.6674 147.169 36.7999 146.635 36.1842C146.214 35.6805 145.596 35.3447 145.231 34.813C144.809 34.1973 144.809 33.4138 144.669 32.6862C144.303 30.9231 142.955 29.384 141.269 28.7683C139.555 28.1526 137.56 28.4605 136.127 29.5519C136.127 29.5519 135.706 31.3989 137.616 31.7067C139.527 32.0145 140.398 31.6507 140.623 32.4063C140.623 32.4063 140.398 33.3018 141.185 34.1414C141.943 35.0089 142.674 34.841 142.337 35.5966Z" fill="#263238"/>
<path d="M145.371 48.3859C145.371 48.3859 145.314 48.3859 145.202 48.3579C145.09 48.3299 144.921 48.302 144.724 48.218C144.331 48.0781 143.741 47.7423 143.263 47.1266C143.011 46.8188 142.786 46.455 142.645 46.0072C142.477 45.5874 142.392 45.0837 142.392 44.58C142.392 44.0763 142.449 43.5166 142.589 42.9849C142.673 42.705 142.758 42.4532 142.87 42.1733C142.982 41.8935 143.095 41.6416 143.179 41.3618C143.263 41.0819 143.235 40.8021 143.179 40.5502C143.095 40.2704 142.982 40.0185 142.87 39.7946C142.758 39.5428 142.617 39.2909 142.533 39.039C142.449 38.7872 142.421 38.5073 142.477 38.2275C142.589 37.6958 142.898 37.304 143.095 36.9122C143.292 36.5204 143.348 36.1006 143.348 35.7089C143.32 34.9533 142.982 34.3936 142.73 34.0578C142.449 33.722 142.252 33.61 142.252 33.582C142.252 33.582 142.477 33.694 142.786 34.0018C143.067 34.3096 143.432 34.8973 143.46 35.6809C143.488 36.0727 143.404 36.5204 143.207 36.9402C143.011 37.36 142.702 37.7517 142.617 38.2275C142.505 38.7032 142.758 39.2069 143.011 39.7107C143.123 39.9625 143.263 40.2144 143.348 40.4942C143.432 40.7741 143.432 41.1099 143.348 41.3897C143.263 41.6696 143.123 41.9494 143.039 42.2013C142.926 42.4532 142.842 42.733 142.786 42.9849C142.645 43.5166 142.561 44.0483 142.589 44.552C142.589 45.5595 142.926 46.455 143.404 47.0427C143.882 47.6583 144.415 47.9661 144.809 48.1341C145.146 48.3579 145.371 48.3859 145.371 48.3859Z" fill="#455A64"/>
<path d="M145.091 34.2814C145.091 34.2814 144.95 34.3094 144.669 34.3374C144.388 34.3654 143.995 34.3933 143.517 34.3094C143.039 34.2254 142.449 34.0016 142.056 33.4139C141.859 33.134 141.803 32.7982 141.663 32.4624C141.55 32.1546 141.326 31.8747 141.017 31.6788C140.398 31.287 139.668 31.2311 139.05 31.1751C138.404 31.0912 137.814 30.9792 137.42 30.6714C136.999 30.3915 136.802 29.9998 136.746 29.7479C136.718 29.608 136.718 29.496 136.718 29.4401C136.718 29.3561 136.746 29.3281 136.746 29.3281C136.774 29.3281 136.718 29.468 136.802 29.7479C136.858 29.9998 137.083 30.3356 137.476 30.6154C137.87 30.8953 138.432 31.0072 139.078 31.0632C139.696 31.1471 140.455 31.1751 141.101 31.5949C141.438 31.7908 141.691 32.1266 141.803 32.4624C141.916 32.7982 142 33.134 142.168 33.3859C142.506 33.9176 143.068 34.1415 143.545 34.2534C144.023 34.3374 144.416 34.3374 144.669 34.3374C144.95 34.2534 145.091 34.2534 145.091 34.2814Z" fill="#455A64"/>
<path d="M144.388 31.9869C144.388 31.9869 144.276 32.0428 144.051 32.0428C143.826 32.0428 143.517 32.0148 143.152 31.8469C142.983 31.763 142.786 31.651 142.618 31.4831C142.449 31.3152 142.309 31.1193 142.168 30.8954C141.915 30.4757 141.663 29.944 141.157 29.7201C140.651 29.4962 140.061 29.5522 139.583 29.5802C139.078 29.6361 138.628 29.6361 138.235 29.5802C137.841 29.5242 137.56 29.3563 137.392 29.2164C137.308 29.1324 137.251 29.0764 137.223 29.0205C137.195 28.9645 137.167 28.9365 137.195 28.9365C137.195 28.9365 137.28 29.0205 137.448 29.1604C137.617 29.3003 137.898 29.4123 138.263 29.4682C138.628 29.5242 139.078 29.4962 139.583 29.4402C140.089 29.4123 140.651 29.3283 141.241 29.5802C141.522 29.6921 141.747 29.916 141.915 30.1399C142.084 30.3637 142.196 30.6156 142.337 30.8115C142.449 31.0354 142.59 31.2313 142.73 31.3712C142.871 31.5111 143.039 31.651 143.208 31.735C143.545 31.9029 143.854 31.9589 144.051 31.9589C144.276 31.9868 144.388 31.9869 144.388 31.9869Z" fill="#455A64"/>
<path d="M146.214 47.7976C146.186 47.7976 146.298 47.6017 146.382 47.2659C146.495 46.93 146.579 46.3983 146.579 45.7547C146.551 45.111 146.41 44.3554 145.989 43.6278C145.792 43.264 145.483 42.9282 145.23 42.5364C145.118 42.3406 145.005 42.1167 144.949 41.8648C144.893 41.613 144.921 41.3611 145.005 41.1092C145.174 40.6335 145.455 40.2137 145.511 39.766C145.595 39.3182 145.371 38.9264 145.146 38.5626C145.034 38.3667 144.921 38.1988 144.837 38.0029C144.753 37.807 144.696 37.6111 144.668 37.4153C144.612 37.0235 144.668 36.6597 144.696 36.3518C144.781 35.7082 144.724 35.1765 144.556 34.8687C144.415 34.5328 144.219 34.4489 144.219 34.4209C144.219 34.4209 144.219 34.4209 144.247 34.4489C144.275 34.4489 144.303 34.4769 144.331 34.5049C144.415 34.5608 144.5 34.6728 144.584 34.8407C144.753 35.1765 144.837 35.7082 144.781 36.3518C144.753 36.6877 144.724 37.0235 144.753 37.3873C144.781 37.7511 144.977 38.1149 145.202 38.4787C145.315 38.6746 145.427 38.8425 145.511 39.0664C145.595 39.2902 145.624 39.5421 145.595 39.766C145.539 40.2417 145.23 40.6615 145.09 41.1372C145.005 41.3611 144.977 41.585 145.034 41.8088C145.09 42.0327 145.174 42.2286 145.286 42.4245C145.539 42.8163 145.848 43.1521 146.045 43.5159C146.466 44.2715 146.635 45.0551 146.635 45.7267C146.635 46.3703 146.523 46.9021 146.41 47.2379C146.354 47.4058 146.298 47.5457 146.242 47.6297C146.242 47.7416 146.214 47.7976 146.214 47.7976Z" fill="#455A64"/>
<path d="M134.778 99.9328C134.778 99.9328 132.896 82.0786 132.783 75.4742C132.671 68.8699 135.761 62.3494 135.761 62.3494L147.871 61.8457C147.871 61.8457 150.259 68.534 150.315 71.3605C150.4 76.8175 148.854 82.2185 149.023 86.5562L149.416 99.9328" fill="#263238"/>
<path d="M149.811 77.9648C149.811 77.9648 149.754 78.0208 149.614 78.1048C149.586 78.1328 149.53 78.1607 149.501 78.1887C149.473 78.2167 149.417 78.2727 149.389 78.3007C149.305 78.3846 149.192 78.4686 149.108 78.6085C148.715 79.0842 148.434 79.9238 148.153 80.9872C148.012 81.5189 147.844 82.1066 147.535 82.6942C147.45 82.8342 147.366 82.9741 147.254 83.114C147.198 83.17 147.141 83.2539 147.085 83.3099L146.889 83.5058C146.636 83.7577 146.327 83.9536 145.989 84.0935C145.315 84.4013 144.557 84.5412 143.854 84.877C143.152 85.2129 142.618 85.8845 142.309 86.6401C141.972 87.3957 141.775 88.2072 141.466 88.9348C141.185 89.6624 140.82 90.39 140.202 90.8378C139.612 91.3135 138.853 91.4255 138.207 91.4534C137.561 91.4814 136.942 91.4814 136.409 91.5654C135.875 91.6493 135.397 91.8172 135.06 92.0691C134.723 92.321 134.526 92.6568 134.442 92.9646C134.358 93.2445 134.358 93.4963 134.386 93.6642C134.414 93.8321 134.47 93.8881 134.442 93.8881C134.442 93.8881 134.386 93.8042 134.358 93.6642C134.301 93.4963 134.301 93.2445 134.386 92.9646C134.47 92.6568 134.667 92.321 135.032 92.0411C135.369 91.7613 135.875 91.5654 136.409 91.4814C136.97 91.3975 137.561 91.3975 138.207 91.3695C138.853 91.3135 139.555 91.2016 140.117 90.7538C140.679 90.3341 141.044 89.6344 141.325 88.9068C141.606 88.1792 141.803 87.3677 142.168 86.6121C142.505 85.8285 143.067 85.1289 143.798 84.7931C144.528 84.4293 145.287 84.2894 145.961 84.0095C146.299 83.8696 146.608 83.7017 146.832 83.4498L147.001 83.2819C147.057 83.226 147.113 83.142 147.141 83.086C147.254 82.9741 147.31 82.8062 147.394 82.6663C147.703 82.1066 147.872 81.5189 148.012 80.9872C148.293 79.9238 148.602 79.0562 149.024 78.5805C149.108 78.4406 149.221 78.3566 149.305 78.2727C149.361 78.2447 149.389 78.1887 149.417 78.1607C149.445 78.1327 149.501 78.1048 149.53 78.0768C149.754 77.9928 149.811 77.9648 149.811 77.9648Z" fill="#FAFAFA"/>
<path d="M149.895 69.709C149.895 69.709 149.895 69.7929 149.923 69.9608C149.923 70.1288 149.895 70.3526 149.838 70.6325C149.698 71.2202 149.276 72.0037 148.462 72.7313C148.068 73.0951 147.591 73.4589 147.057 73.7668C146.523 74.0746 145.905 74.3824 145.315 74.7462C144.697 75.082 144.079 75.4738 143.517 76.0055C142.955 76.5093 142.533 77.1809 142.168 77.9085C141.775 78.6081 141.438 79.3357 140.988 79.9793C140.763 80.2872 140.51 80.567 140.229 80.8189C139.948 81.0707 139.639 81.2666 139.302 81.4346C138.656 81.7704 138.01 81.9663 137.42 82.1622C136.83 82.358 136.268 82.498 135.762 82.7218C135.284 82.9177 134.835 83.1416 134.498 83.3935C134.161 83.6453 133.88 83.8972 133.711 84.1211C133.346 84.5688 133.261 84.9046 133.233 84.9046C133.233 84.9046 133.261 84.8207 133.318 84.6808C133.374 84.5409 133.486 84.317 133.683 84.0931C133.852 83.8412 134.132 83.5894 134.47 83.3375C134.807 83.0856 135.256 82.8338 135.734 82.6379C136.24 82.414 136.802 82.2461 137.392 82.0782C137.982 81.8823 138.628 81.6864 139.246 81.3506C139.555 81.1827 139.864 80.9868 140.145 80.7629C140.426 80.5111 140.679 80.2592 140.876 79.9514C141.325 79.3357 141.662 78.6081 142.028 77.9085C142.421 77.1809 142.842 76.5093 143.404 75.9775C143.966 75.4458 144.612 75.0541 145.231 74.7182C145.849 74.3824 146.439 74.0746 147.001 73.7668C147.534 73.4589 148.012 73.1231 148.405 72.7593C149.192 72.0597 149.642 71.2761 149.782 70.7164C149.923 70.0448 149.866 69.709 149.895 69.709Z" fill="#FAFAFA"/>
<path d="M132.84 76.3974C132.84 76.3974 132.84 76.3694 132.812 76.3414C132.812 76.3134 132.784 76.2574 132.756 76.1735C132.728 76.0336 132.699 75.7817 132.784 75.5018C132.952 74.9421 133.57 74.2146 134.554 73.8787C135.06 73.7108 135.621 73.5989 136.211 73.459C136.802 73.2911 137.42 73.0952 137.897 72.5914C138.122 72.3396 138.319 72.0597 138.487 71.7519C138.656 71.4441 138.768 71.1083 138.909 70.7445C139.162 70.0448 139.358 69.2893 139.808 68.5896C140.229 67.89 140.932 67.4143 141.634 67.1624C142.337 66.9106 143.067 66.7986 143.741 66.6307C144.416 66.4908 145.034 66.2949 145.568 66.015C146.101 65.7072 146.523 65.3154 146.804 64.8957C147.422 64.0561 147.562 63.1886 147.591 62.6289C147.591 62.0412 147.506 61.7334 147.534 61.7334C147.534 61.7334 147.647 62.0412 147.647 62.6289C147.647 63.2166 147.506 64.0841 146.888 64.9516C146.579 65.3714 146.158 65.7912 145.624 66.099C145.09 66.4068 144.444 66.6027 143.769 66.7426C143.095 66.9106 142.393 67.0225 141.69 67.2744C140.988 67.5262 140.342 67.974 139.92 68.6456C139.499 69.3172 139.302 70.0728 139.049 70.7724C138.909 71.1362 138.796 71.4721 138.628 71.8079C138.459 72.1437 138.234 72.4235 138.01 72.6754C137.504 73.1791 136.858 73.403 136.268 73.5429C135.678 73.6828 135.116 73.7948 134.61 73.9627C133.627 74.2985 133.008 74.9701 132.84 75.5018C132.756 75.7817 132.756 76.0056 132.784 76.1455C132.812 76.3414 132.84 76.3974 132.84 76.3974Z" fill="#FAFAFA"/>
<path d="M148.854 91.5088C148.854 91.5088 148.854 91.5648 148.883 91.6767C148.883 91.7886 148.883 91.9565 148.826 92.1804C148.714 92.6002 148.405 93.1879 147.759 93.6916C147.45 93.9435 147.084 94.1673 146.635 94.3632C146.213 94.5591 145.736 94.699 145.23 94.839C144.724 94.9789 144.218 95.1468 143.713 95.3987C143.207 95.6225 142.729 95.9583 142.336 96.4061C141.915 96.8259 141.577 97.3016 141.184 97.7214C140.791 98.1412 140.341 98.477 139.892 98.7288C138.964 99.2325 138.009 99.4005 137.222 99.4284C136.436 99.4284 135.79 99.2605 135.396 99.1206C135.2 99.0367 135.031 98.9807 134.919 98.9247C134.806 98.8688 134.75 98.8408 134.75 98.8408C134.75 98.8408 134.806 98.8688 134.919 98.8967C135.031 98.9527 135.171 99.0087 135.396 99.0646C135.818 99.2046 136.436 99.3445 137.222 99.3165C138.009 99.2885 138.936 99.1206 139.835 98.6169C140.285 98.365 140.706 98.0292 141.1 97.6374C141.493 97.2177 141.83 96.7699 142.252 96.3222C142.673 95.8744 143.151 95.5106 143.685 95.2867C144.19 95.0349 144.724 94.8949 145.23 94.727C145.736 94.5871 146.185 94.4472 146.635 94.2513C147.056 94.0834 147.421 93.8595 147.731 93.6356C148.349 93.1599 148.686 92.6002 148.798 92.1804C148.882 91.7606 148.826 91.5088 148.854 91.5088Z" fill="#FAFAFA"/>
<path d="M147.479 54.4297L145.147 54.4857C145.006 55.2692 144.613 55.801 144.613 55.801C142.646 52.4148 141.129 47.8813 140.764 46.0623C140.82 45.8664 140.876 45.6705 140.96 45.4466C141.045 45.1948 140.96 44.691 140.932 44.4112C140.876 44.0194 140.764 43.4597 140.707 43.2079C140.595 42.4243 140.483 42.3124 140.202 42.3963C139.836 42.5082 140.342 44.5511 140.061 44.6071C139.893 44.6351 139.696 43.9355 139.64 43.3478C139.584 42.7601 139.331 40.9971 139.134 40.8851C138.853 40.7172 138.6 40.9971 138.684 41.5568C138.769 42.1444 138.853 43.8515 138.544 43.8795C138.235 43.9075 137.982 40.9691 137.982 40.9691C137.982 40.9691 138.038 40.3254 137.673 40.3534C137.027 40.3814 137.533 43.4597 137.589 43.7676C137.617 43.9634 137.308 44.0194 137.28 43.7955C137.252 43.5717 137.083 40.8572 136.437 40.8851C135.931 40.9131 136.83 43.4317 136.549 44.0194C136.268 44.6071 136.072 42.0325 135.594 42.0605C135.425 42.0605 135.285 42.1165 135.622 43.5717C135.791 44.3552 136.296 45.8104 136.746 46.9858C137.504 51.0156 140.792 63.9725 145.99 61.5938C148.883 60.2785 150.064 54.4017 150.064 54.4017L147.479 54.4297Z" fill="#D39F8B"/>
<path d="M137.477 43.9912C137.477 43.9912 137.505 43.9912 137.533 43.9912C137.561 43.9912 137.645 43.9353 137.645 43.8233C137.645 43.6554 137.617 43.4035 137.561 43.0677C137.533 42.7319 137.421 42.3401 137.421 41.8644C137.421 41.6405 137.421 41.3886 137.449 41.1088C137.449 40.9689 137.449 40.829 137.477 40.717C137.505 40.5771 137.589 40.4372 137.673 40.4652C137.786 40.4652 137.842 40.5491 137.87 40.661C137.898 40.773 137.926 40.9129 137.898 41.0248C137.954 41.7524 138.039 42.536 138.207 43.3476C138.235 43.4595 138.263 43.5435 138.292 43.6554C138.32 43.7114 138.32 43.7673 138.348 43.8233C138.376 43.8513 138.376 43.8793 138.404 43.9073C138.432 43.9352 138.46 43.9632 138.516 43.9912C138.629 43.9912 138.657 43.9073 138.685 43.8513C138.713 43.7953 138.713 43.7394 138.741 43.6834C138.769 43.5715 138.769 43.4595 138.797 43.3476C138.825 42.8998 138.825 42.4241 138.769 41.9483C138.769 41.6965 138.685 41.4726 138.741 41.2487C138.769 41.1368 138.797 41.0248 138.882 40.9969C138.91 40.9689 138.966 40.9689 138.994 40.9689C139.022 40.9689 139.05 40.9969 139.05 40.9969C139.078 41.0248 139.078 40.9969 139.078 41.0248C139.163 41.2207 139.219 41.4726 139.275 41.7245C139.331 41.9763 139.359 42.2282 139.415 42.4801C139.443 42.7319 139.5 42.9838 139.528 43.2636C139.556 43.5155 139.584 43.7953 139.668 44.0472C139.696 44.1871 139.753 44.2991 139.809 44.439C139.837 44.4949 139.865 44.5789 139.921 44.6349C139.949 44.6629 140.005 44.7188 140.09 44.6908C140.174 44.6629 140.202 44.6069 140.202 44.5789C140.258 44.411 140.23 44.2711 140.23 44.1311C140.23 43.9912 140.202 43.8513 140.202 43.7114C140.174 43.4875 140.146 43.2356 140.146 43.0118C140.146 42.8998 140.146 42.7879 140.146 42.6759C140.146 42.62 140.174 42.564 140.174 42.536C140.174 42.508 140.202 42.508 140.202 42.508H140.23C140.427 42.4241 140.483 42.6759 140.539 42.8998C140.595 43.1237 140.624 43.3476 140.652 43.5714C140.736 44.0192 140.82 44.439 140.876 44.8587C140.904 45.0546 140.904 45.2785 140.848 45.4744C140.792 45.6703 140.708 45.8662 140.652 46.0621V46.0901V46.1181C140.989 47.6292 141.466 48.9725 141.916 50.1758C142.366 51.3792 142.815 52.4146 143.208 53.2541C143.602 54.0937 143.939 54.7373 144.192 55.1851C144.304 55.409 144.417 55.5489 144.473 55.6888C144.529 55.8007 144.585 55.8567 144.585 55.8567C144.585 55.8567 144.557 55.8007 144.501 55.6888C144.445 55.5489 144.332 55.381 144.22 55.1851C143.995 54.7373 143.658 54.0657 143.265 53.2262C142.871 52.3866 142.45 51.3512 142.028 50.1478C141.607 48.9445 141.129 47.6012 140.792 46.1181V46.146C140.848 45.9501 140.933 45.7543 140.989 45.5584C141.073 45.3345 141.045 45.1106 141.017 44.8867C140.961 44.439 140.876 44.0192 140.792 43.5714C140.736 43.3476 140.736 43.1237 140.68 42.8998C140.652 42.7879 140.624 42.6759 140.567 42.564C140.539 42.508 140.483 42.4521 140.399 42.3961C140.314 42.3681 140.23 42.3681 140.174 42.3961H140.118C140.09 42.3961 140.062 42.4241 140.062 42.4241C140.033 42.4521 140.005 42.48 139.977 42.536C139.949 42.592 139.949 42.6759 139.921 42.7319C139.921 42.8438 139.921 42.9838 139.921 43.0957C139.921 43.3196 139.949 43.5715 139.977 43.7953C139.977 43.9353 140.005 44.0752 140.005 44.2151C140.005 44.355 140.005 44.4949 139.977 44.5789C139.977 44.6069 139.949 44.6069 139.977 44.6069C139.977 44.6069 139.977 44.6069 139.949 44.5789C139.921 44.5509 139.893 44.4949 139.865 44.439C139.809 44.327 139.781 44.1871 139.753 44.0752C139.696 43.8233 139.64 43.5714 139.612 43.2916C139.584 43.0397 139.556 42.7599 139.5 42.508C139.472 42.2562 139.415 42.0043 139.359 41.7524C139.303 41.5006 139.275 41.2487 139.134 40.9969C139.134 40.9689 139.078 40.9129 139.05 40.8849C139.022 40.8569 138.994 40.8569 138.938 40.829C138.853 40.801 138.769 40.829 138.713 40.8569C138.572 40.9409 138.544 41.0808 138.516 41.2207C138.488 41.3607 138.488 41.4726 138.516 41.6125C138.544 41.7245 138.544 41.8364 138.544 41.9763C138.572 42.4521 138.601 42.8998 138.572 43.3476C138.572 43.4595 138.544 43.5715 138.544 43.6834C138.544 43.7394 138.516 43.7953 138.488 43.8233C138.488 43.8513 138.46 43.8513 138.46 43.8793C138.46 43.9073 138.432 43.8793 138.432 43.9073C138.46 43.8793 138.432 43.9073 138.432 43.8793C138.432 43.8793 138.404 43.8513 138.404 43.8233C138.376 43.7673 138.376 43.7394 138.348 43.6834C138.32 43.5715 138.292 43.4875 138.263 43.3756C138.095 42.564 138.011 41.7804 137.954 41.0528C137.954 40.9129 137.954 40.773 137.898 40.6331C137.87 40.5771 137.842 40.4931 137.786 40.4372C137.73 40.3812 137.645 40.3532 137.589 40.3532H137.617C137.505 40.3252 137.421 40.4092 137.364 40.4652C137.308 40.5211 137.308 40.6051 137.28 40.689C137.252 40.829 137.252 40.9689 137.252 41.1088C137.252 41.3886 137.252 41.6405 137.252 41.8644C137.252 42.3401 137.364 42.7319 137.421 43.0677C137.477 43.4035 137.505 43.6554 137.533 43.8233C137.561 43.9073 137.477 43.9632 137.449 43.9632C137.505 43.9912 137.477 43.9912 137.477 43.9912Z" fill="#A36957"/>
<path d="M119.185 58.2638C119.185 58.2638 118.399 58.2358 117.556 58.4597C116.095 58.8515 113.594 60.3627 113.51 62.2097H115.336C115.336 62.2097 114.325 64.3645 114.606 64.1686C115.392 63.6369 116.938 62.0977 116.938 62.0977L119.185 58.2638Z" fill="#D39F8B"/>
<path d="M143.995 25.7456C143.967 25.7456 143.798 24.2624 143.63 22.3875C143.461 20.5405 143.377 19.0293 143.405 19.0293C143.433 19.0293 143.601 20.5125 143.77 22.3875C143.939 24.2624 144.051 25.7456 143.995 25.7456Z" fill="#263238"/>
<path d="M151.974 19.141C152.002 19.1689 150.766 20.932 149.221 23.1148C147.675 25.2976 146.383 27.0326 146.355 27.0046C146.327 26.9767 147.563 25.2136 149.108 23.0308C150.654 20.848 151.946 19.113 151.974 19.141Z" fill="#263238"/>
<path d="M155.29 27.2005C155.29 27.2285 153.857 27.5643 152.087 27.9281C150.316 28.2919 148.855 28.5438 148.855 28.5158C148.855 28.4878 150.288 28.152 152.058 27.7882C153.857 27.4244 155.29 27.1445 155.29 27.2005Z" fill="#263238"/>
<path d="M59.7327 65.6241L49.7866 116.5L48.4941 123.161L114.83 122.825C117.808 122.797 120.449 120.166 121.404 116.276L133.177 68.2546C133.907 65.2883 132.306 62.21 130.058 62.21L62.9357 62.2939C61.4185 62.2659 60.1261 63.6372 59.7327 65.6241Z" fill="#F07C33"/>
<g opacity="0.5">
<path d="M59.7327 65.6241L49.7866 116.5L48.4941 123.161L114.83 122.825C117.808 122.797 120.449 120.166 121.404 116.276L133.177 68.2546C133.907 65.2883 132.306 62.21 130.058 62.21L62.9357 62.2939C61.4185 62.2659 60.1261 63.6372 59.7327 65.6241Z" fill="black"/>
</g>
<path d="M108.48 113.058L101.456 56.6968C101.175 54.3741 99.3209 52.667 97.1294 52.667L81.7326 52.723C80.5806 52.723 79.513 53.1987 78.6982 54.0662L71.3931 61.818L28.5741 62.0419C25.9612 62.0419 23.9382 64.5325 24.3035 67.303L30.8218 119.41C31.1028 121.705 32.9572 123.44 35.1206 123.44L109.745 123.3C118.061 123.468 118.848 121.034 118.848 121.034C109.323 123.076 108.48 113.058 108.48 113.058Z" fill="#F07C33"/>
<g opacity="0.5">
<path d="M76.2814 101.78L73.7527 104.466L54.3662 87.1159L56.8949 84.4014L76.2814 101.78Z" fill="white"/>
<path d="M72.7128 83.8135L75.4944 86.3041L57.9622 105.082L55.1807 102.591L72.7128 83.8135Z" fill="white"/>
</g>
<path d="M119.13 29.0477C118.961 28.9637 118.821 28.7958 118.821 28.5999L118.708 25.9973C118.708 25.8294 118.764 25.6895 118.905 25.5776C119.045 25.4656 119.186 25.4376 119.354 25.4656C119.776 25.5776 120.225 25.4656 120.619 25.2138C120.984 24.9899 121.209 24.6261 121.265 24.2623C121.321 23.8985 121.209 23.4787 120.956 23.1429C120.675 22.7791 120.253 22.5272 119.86 22.4713C119.017 22.3873 118.09 23.031 117.865 23.8705C117.781 24.1503 117.5 24.3182 117.219 24.2343C116.938 24.1503 116.77 23.8705 116.854 23.5906C117.219 22.2474 118.624 21.2679 119.973 21.4078C120.675 21.4918 121.349 21.8836 121.799 22.4713C122.22 23.031 122.417 23.7306 122.305 24.4022C122.192 25.0458 121.799 25.6615 121.209 26.0533C120.787 26.3331 120.282 26.501 119.776 26.529L119.86 28.5439C119.86 28.8238 119.635 29.0756 119.354 29.0756C119.27 29.0756 119.186 29.0756 119.13 29.0477Z" fill="#F07C33"/>
<path d="M119.889 30.1115C119.917 30.3354 119.72 30.5593 119.495 30.5593C119.27 30.5873 119.046 30.3914 119.046 30.1675C119.018 29.9436 119.214 29.7197 119.439 29.7197C119.664 29.7197 119.889 29.8597 119.889 30.1115Z" fill="#F07C33"/>
<path d="M110.11 25.3819C110.11 25.3819 110.11 25.326 110.138 25.214C110.138 25.1021 110.167 24.9342 110.195 24.7103C110.195 24.4864 110.251 24.2345 110.335 23.8987C110.363 23.7308 110.391 23.5629 110.448 23.395C110.504 23.2271 110.56 23.0312 110.616 22.8353C110.897 22.0517 111.319 21.1003 112.021 20.1768C112.723 19.2533 113.707 18.3298 114.971 17.6302C115.589 17.2664 116.32 17.0145 117.05 16.7626C117.809 16.5947 118.624 16.4268 119.438 16.4548C119.86 16.4268 120.281 16.4828 120.703 16.5388C120.928 16.5668 121.124 16.6227 121.349 16.6507C121.574 16.6787 121.77 16.7347 121.995 16.8186C122.866 17.0425 123.709 17.4343 124.496 17.966C126.097 18.9734 127.474 20.6245 128.204 22.6114C128.57 23.6189 128.766 24.7103 128.766 25.8017C128.795 26.9211 128.57 28.0405 128.176 29.0759L128.036 29.3837L128.008 29.4397L128.036 29.4677C128.738 31.0908 129.441 32.6579 130.115 34.1971L130.227 34.0572C128.766 33.4975 127.362 32.9658 126.013 32.4341L125.957 32.4061L125.929 32.4341C124.749 33.5534 123.372 34.309 121.967 34.7288C120.562 35.1206 119.129 35.1486 117.837 34.9247C116.544 34.7008 115.364 34.1971 114.381 33.5534C113.398 32.9098 112.611 32.1542 112.021 31.3427C111.431 30.5591 111.038 29.7195 110.729 28.9919C110.476 28.2364 110.307 27.5927 110.223 27.033C110.195 26.7532 110.167 26.5293 110.138 26.3054C110.138 26.1095 110.138 25.9136 110.138 25.7737C110.138 25.6338 110.138 25.5218 110.138 25.4379C110.11 25.4099 110.11 25.3819 110.11 25.3819C110.11 25.3819 110.11 25.4099 110.11 25.4939C110.11 25.5778 110.11 25.6898 110.11 25.8297C110.11 25.9696 110.11 26.1655 110.11 26.3614C110.138 26.5853 110.167 26.8091 110.195 27.089C110.251 27.6487 110.419 28.3203 110.672 29.0759C110.953 29.8035 111.347 30.643 111.965 31.4546C112.583 32.2661 113.37 33.0497 114.353 33.6934C115.336 34.337 116.516 34.8687 117.837 35.0926C119.157 35.3445 120.59 35.3165 122.051 34.9247C123.484 34.5329 124.917 33.7493 126.097 32.602L126.013 32.6299C127.362 33.1617 128.766 33.6934 130.227 34.2531L130.452 34.337L130.368 34.1131C129.694 32.574 129.019 30.9789 128.317 29.3837V29.4677L128.457 29.1319C128.851 28.0405 129.075 26.8931 129.047 25.7737C129.047 24.6543 128.851 23.5349 128.485 22.4995C127.727 20.4566 126.322 18.8055 124.692 17.7701C123.878 17.2664 123.007 16.8466 122.136 16.6227C121.911 16.5388 121.686 16.5108 121.489 16.4548C121.265 16.4268 121.04 16.3709 120.843 16.3429C120.394 16.3149 119.972 16.2589 119.551 16.2589C118.708 16.2309 117.893 16.3988 117.106 16.5947C116.348 16.8186 115.617 17.0985 114.999 17.4623C113.707 18.1899 112.723 19.1134 112.021 20.0648C111.319 21.0163 110.897 21.9678 110.644 22.7793C110.588 22.9752 110.532 23.1711 110.476 23.339C110.419 23.5069 110.391 23.7028 110.363 23.8428C110.307 24.1506 110.251 24.4304 110.251 24.6543C110.223 24.8782 110.223 25.0461 110.223 25.158C110.082 25.326 110.082 25.3819 110.11 25.3819Z" fill="#263238"/>
</g>
<defs>
<clipPath id="clip0_3596_3459">
<rect width="169" height="124" fill="white"/>
</clipPath>
</defs>
</svg>
