<svg width="349" height="206" viewBox="0 0 349 206" fill="none" xmlns="http://www.w3.org/2000/svg">
<path d="M349 178.282H76.769V178.418H349V178.282Z" fill="#EBEBEB"/>
<path d="M321.723 187.046H303.689V187.182H321.723V187.046Z" fill="#EBEBEB"/>
<path d="M257.106 188.523H252.373V188.66H257.106V188.523Z" fill="#EBEBEB"/>
<path d="M303.144 181.99H292.695V182.126H303.144V181.99Z" fill="#EBEBEB"/>
<path d="M128.848 182.904H105.331V183.04H128.848V182.904Z" fill="#EBEBEB"/>
<path d="M137.144 182.904H133.696V183.04H137.144V182.904Z" fill="#EBEBEB"/>
<path d="M199.353 185.203H148.35V185.339H199.353V185.203Z" fill="#EBEBEB"/>
<path d="M205.814 154H100.679C98.9657 154 97.5713 152.605 97.5713 150.892V3.10779C97.5713 1.39437 98.9657 0 100.679 0H205.814C207.527 0 208.921 1.39437 208.921 3.10779V150.892C208.921 152.605 207.527 154 205.814 154ZM100.679 0.13666C99.0402 0.13666 97.7074 1.4695 97.7074 3.10833V150.893C97.7074 152.531 99.0402 153.864 100.679 153.864H205.814C207.452 153.864 208.785 152.531 208.785 150.893V3.10779C208.785 1.4695 207.452 0.136115 205.814 0.136115L100.679 0.13666Z" fill="#EBEBEB"/>
<path d="M323.579 154H218.445C216.731 154 215.337 152.605 215.337 150.892V3.10779C215.337 1.39437 216.732 0 218.445 0H323.579C325.293 0 326.687 1.39437 326.687 3.10779V150.892C326.687 152.605 325.293 154 323.579 154ZM218.445 0.13666C216.806 0.13666 215.474 1.4695 215.474 3.10833V150.893C215.474 152.531 216.806 153.864 218.445 153.864H323.579C325.218 153.864 326.551 152.531 326.551 150.893V3.10779C326.551 1.4695 325.218 0.136115 323.579 0.136115L218.445 0.13666Z" fill="#EBEBEB"/>
<path d="M290.782 11.5488H131.916V85.8776H290.782V11.5488Z" fill="#E6E6E6"/>
<path d="M293.175 11.5488H133.034V85.8776H293.175V11.5488Z" fill="#F0F0F0"/>
<path d="M290.782 85.877H131.916V89.6686H290.782V85.877Z" fill="#E6E6E6"/>
<path d="M297.163 85.877H137.021V89.6686H297.163V85.877Z" fill="#F0F0F0"/>
<path d="M289.825 82.527V14.8994L136.385 14.8994V82.527L289.825 82.527Z" fill="#FAFAFA"/>
<path d="M152.849 82.527L162.174 14.8994H176.727L167.4 82.527H152.849Z" fill="white"/>
<path d="M137.936 79.1921C137.804 79.1921 137.696 79.0849 137.696 78.9526V17.0794C137.696 16.9471 137.804 16.8398 137.936 16.8398C138.068 16.8398 138.175 16.9471 138.175 17.0794V78.9531C138.175 79.0849 138.068 79.1921 137.936 79.1921Z" fill="#F0F0F0"/>
<path d="M170.527 82.527L179.852 14.8994H185.526L176.2 82.527H170.527Z" fill="white"/>
<path d="M289.825 82.527V14.8994H289.4V82.527H289.825Z" fill="#E6E6E6"/>
<path opacity="0.6" d="M293.968 19.9509H135.101L134.793 16.2012H293.659L293.968 19.9509Z" fill="#EBEBEB"/>
<path opacity="0.6" d="M293.968 26.1003H135.101L134.793 22.3506H293.659L293.968 26.1003Z" fill="#EBEBEB"/>
<path opacity="0.6" d="M293.968 32.2507H135.101L134.793 28.501H293.659L293.968 32.2507Z" fill="#EBEBEB"/>
<path opacity="0.6" d="M293.968 38.4001H135.101L134.793 34.6504H293.659L293.968 38.4001Z" fill="#EBEBEB"/>
<path opacity="0.6" d="M293.968 44.5495H135.101L134.793 40.7998H293.659L293.968 44.5495Z" fill="#EBEBEB"/>
<path opacity="0.6" d="M293.968 50.6999H135.101L134.793 46.9502H293.659L293.968 50.6999Z" fill="#EBEBEB"/>
<path d="M315.788 104.562H291.543V178.282H315.788V104.562Z" fill="#E6E6E6"/>
<path d="M309.314 178.281H315.788V168.104H302.526L309.314 178.281Z" fill="#FAFAFA"/>
<path d="M249.683 104.562H225.438V178.282H249.683V104.562Z" fill="#E6E6E6"/>
<path d="M315.788 104.562H244.033V174.78H315.788V104.562Z" fill="#FAFAFA"/>
<path d="M250.507 178.281H244.033V168.104H257.295L250.507 178.281Z" fill="#FAFAFA"/>
<path d="M310.766 130.728H249.055V148.299H310.766V130.728Z" fill="#F0F0F0"/>
<path d="M310.766 152.056H249.055V169.628H310.766V152.056Z" fill="#F0F0F0"/>
<path d="M298.524 132.606H261.297C259.891 132.606 258.752 131.466 258.752 130.061V129.205H301.07V130.061C301.069 131.466 299.93 132.606 298.524 132.606Z" fill="#FAFAFA"/>
<path d="M310.766 109.399H249.055V126.971H310.766V109.399Z" fill="#F0F0F0"/>
<path d="M298.524 111.279H261.297C259.891 111.279 258.752 110.139 258.752 108.734V107.878H301.07V108.734C301.069 110.139 299.93 111.279 298.524 111.279Z" fill="#FAFAFA"/>
<path d="M298.524 153.933H261.297C259.891 153.933 258.752 152.793 258.752 151.388V150.532H301.07V151.388C301.069 152.793 299.93 153.933 298.524 153.933Z" fill="#FAFAFA"/>
<path d="M105.853 120.281C107.204 116.403 117.854 121.676 122.176 128.103C125.055 132.382 126.814 136.95 127.635 143.087C127.536 136.085 127.424 128.562 127.315 121.463C126.441 119.693 124.445 115.612 123.009 112.378C118.219 101.587 106.829 97.5693 102.894 90.7565C97.7382 81.83 97.7682 68.4395 102.157 63.6074C105.972 59.4085 118.603 87.8011 120.025 90.9732C124.919 101.884 126.342 109.981 127.258 117.825C127.154 111.157 127.054 105.035 126.972 100.311C126.705 84.904 126.37 79.9484 126.217 78.4233C125.69 77.6785 125.067 76.8106 124.705 76.3451C121.649 72.4097 114.866 67.7252 111.477 62.0045C106.528 53.6519 107.328 43.6551 110.799 39.9326C114.429 36.0402 120.845 45.2395 124.252 54.3543C127.659 63.4691 126.203 72.193 127.158 79.7627C127.358 81.2474 127.563 86.8864 127.756 94.7087C128.789 86.2924 130.848 80.654 134.663 75.3999C139.355 68.9377 143.406 61.0681 147.272 62.0851C151.138 63.1022 149.058 73.515 145.999 80.8249C143.275 87.3351 129.838 93.8283 127.857 99.0622C128.09 109.665 128.299 123.097 128.446 135.604C129.506 129.144 128.777 128.601 133.118 118.711C135.699 112.832 146.28 105.581 147.542 109.62C148.78 113.585 146.886 121.295 142.892 126.643C139.669 130.957 132.52 130.952 130.865 133.628C130.479 134.253 129.203 136.647 128.474 138.023C128.647 153.292 128.724 166.769 128.639 171.365L127.945 171.411C127.978 170.224 127.894 162.457 127.758 152.179C126.022 146.71 114.335 143.517 110.725 137.83C106.948 131.878 104.233 124.932 105.853 120.281Z" fill="#E6E6E6"/>
<path d="M116.842 178.282H139.274C140.5 178.282 141.556 177.419 141.799 176.218L143.392 168.367H112.724L114.317 176.218C114.56 177.419 115.617 178.282 116.842 178.282Z" fill="#F0F0F0"/>
<path d="M112.083 171.41H144.033C144.799 171.41 145.442 170.835 145.528 170.074L146.181 164.27C146.281 163.378 145.584 162.598 144.687 162.598H111.43C110.532 162.598 109.834 163.378 109.935 164.27L110.589 170.074C110.674 170.835 111.318 171.41 112.083 171.41Z" fill="#F0F0F0"/>
<path d="M173.596 143.012H154.427V178.282H173.596V143.012Z" fill="#E0E0E0"/>
<path d="M222.456 178.281H158.267L151.524 130.425H215.713L222.456 178.281Z" fill="#E6E6E6"/>
<path d="M231.82 178.281H160.818L154.075 130.425H225.077L231.82 178.281Z" fill="#F0F0F0"/>
<path d="M167.768 170.801L162.088 137.906H218.127L223.807 170.801H167.768Z" fill="white"/>
<path d="M191.847 170.801L172.799 137.906H178.775L197.823 170.801H191.847Z" fill="#FAFAFA"/>
<path d="M200.356 170.801L181.308 137.906H191.498L210.546 170.801H200.356Z" fill="#FAFAFA"/>
<path d="M212.884 202.872C271.186 202.872 318.45 200.112 318.45 196.707C318.45 193.302 271.186 190.542 212.884 190.542C154.582 190.542 107.319 193.302 107.319 196.707C107.319 200.112 154.582 202.872 212.884 202.872Z" fill="#F5F5F5"/>
<path d="M118.837 90.696C118.717 90.696 118.617 90.6045 118.606 90.4831L117.397 75.9449C117.386 75.8175 117.48 75.7059 117.608 75.695C117.728 75.6857 117.847 75.7788 117.858 75.9068L119.068 90.445C119.079 90.5724 118.984 90.684 118.856 90.6949C118.85 90.6954 118.844 90.696 118.837 90.696Z" fill="#EB894C"/>
<path d="M119.555 99.3302C119.436 99.3302 119.335 99.2387 119.325 99.1173L118.958 94.7164C118.947 94.589 119.042 94.4774 119.17 94.4665C119.292 94.4507 119.409 94.5498 119.42 94.6783L119.786 99.0792C119.797 99.2066 119.702 99.3182 119.574 99.3291C119.568 99.3296 119.562 99.3302 119.555 99.3302Z" fill="#EB894C"/>
<path d="M242.043 140.7H129.626C126.757 140.7 124.215 138.353 123.976 135.484L117.645 59.3834C117.407 56.5151 119.558 54.168 122.427 54.168H234.844C237.712 54.168 240.254 56.5146 240.493 59.3834L246.825 135.484C247.063 138.353 244.912 140.7 242.043 140.7Z" fill="white"/>
<path d="M242.043 140.916H129.626C126.64 140.916 124.009 138.488 123.76 135.502L117.429 59.4013C117.308 57.9493 117.766 56.5799 118.717 55.546C119.664 54.517 120.981 53.9502 122.427 53.9502H234.845C237.83 53.9502 240.461 56.3796 240.71 59.3649L247.041 135.465C247.163 136.917 246.705 138.286 245.753 139.32C244.806 140.349 243.489 140.916 242.043 140.916ZM122.427 54.3852C121.104 54.3852 119.901 54.9019 119.037 55.8406C118.169 56.7836 117.752 58.0353 117.862 59.3654L124.193 135.466C124.423 138.232 126.861 140.481 129.626 140.481H242.044C243.367 140.481 244.57 139.965 245.434 139.026C246.302 138.083 246.719 136.831 246.609 135.502L240.277 59.4013C240.047 56.6355 237.611 54.3852 234.845 54.3852H122.427Z" fill="#EB894C"/>
<path d="M234.844 54.1689H122.427C119.558 54.1689 117.407 56.5156 117.645 59.3843H240.493C240.254 56.5156 237.712 54.1689 234.844 54.1689Z" fill="#EB894C"/>
<path d="M125.058 56.7752C125.11 57.3965 124.648 57.9001 124.027 57.9001C123.406 57.9001 122.86 57.3965 122.809 56.7752C122.757 56.154 123.219 55.6504 123.84 55.6504C124.461 55.6504 125.007 56.154 125.058 56.7752Z" fill="white"/>
<path d="M129.632 56.7752C129.683 57.3965 129.222 57.9001 128.6 57.9001C127.979 57.9001 127.434 57.3965 127.382 56.7752C127.331 56.154 127.792 55.6504 128.414 55.6504C129.035 55.6504 129.58 56.154 129.632 56.7752Z" fill="white"/>
<path d="M134.205 56.7752C134.257 57.3965 133.795 57.9001 133.174 57.9001C132.553 57.9001 132.007 57.3965 131.956 56.7752C131.904 56.154 132.366 55.6504 132.987 55.6504C133.609 55.6504 134.154 56.154 134.205 56.7752Z" fill="white"/>
<path d="M232.287 130.727H137.722C135.442 130.727 133.422 128.861 133.232 126.581L128.816 73.502C128.626 71.2218 130.336 69.3564 132.616 69.3564H227.181C229.461 69.3564 231.481 71.2218 231.672 73.502L236.088 126.581C236.278 128.861 234.567 130.727 232.287 130.727Z" fill="#F0F0F0"/>
<path opacity="0.1" d="M203.042 78.6505L173.746 113.922C169.727 118.761 172.273 126.137 178.42 127.466L225.937 137.743C232.499 139.163 237.982 132.674 235.489 126.441L217.268 80.8921C214.909 74.9939 207.101 73.764 203.042 78.6505Z" fill="#263238"/>
<path opacity="0.1" d="M137.836 83.5957L127.632 111.073C126.271 114.739 129.219 118.565 133.111 118.184L162.909 115.262C167.087 114.852 169.149 109.974 166.53 106.692L146.937 82.1366C144.368 78.9182 139.27 79.7355 137.836 83.5957Z" fill="#263238"/>
<path d="M213.148 69.7697L185.761 109.536C182.03 114.952 185.335 122.398 191.855 123.266L242.198 129.966C249.186 130.896 254.382 123.65 251.259 117.33L228.302 70.864C225.324 64.8358 216.962 64.2314 213.148 69.7697Z" fill="#EB894C"/>
<path d="M193.05 119.701C191.219 119.457 189.627 118.302 188.793 116.613C187.958 114.923 188.054 113.051 189.05 111.605L216.506 71.7385C217.501 70.2929 219.189 69.5748 221.02 69.8182C222.851 70.0621 224.442 71.2163 225.277 72.9058L248.291 119.489C249.127 121.179 249.03 123.051 248.034 124.497C247.038 125.943 245.35 126.661 243.52 126.418L193.05 119.701Z" fill="white"/>
<path d="M218.682 83.9107L221.888 84.3375C223.95 84.6119 225.537 86.4876 225.432 88.5266L225.217 92.7092C225.209 92.8627 225.191 93.0146 225.165 93.1638L222.883 105.768C222.554 107.584 220.895 108.759 219.012 108.509C217.125 108.258 215.607 106.654 215.473 104.771L214.548 91.7455C214.537 91.5947 214.536 91.4438 214.543 91.2941L214.758 87.1067C214.863 85.0671 216.62 83.6363 218.682 83.9107ZM218.426 111.983L219.3 112.1C221.145 112.345 222.564 114.023 222.47 115.847C222.376 117.671 220.805 118.95 218.96 118.705L218.086 118.589C216.241 118.343 214.823 116.665 214.916 114.842C215.01 113.018 216.582 111.738 218.426 111.983Z" fill="#EB894C"/>
<path d="M148.368 75.8485L140.849 104.364C139.853 108.14 143.148 111.657 146.981 110.909L176.149 105.218C180.247 104.418 181.849 99.4096 178.976 96.3796L157.328 73.5553C154.474 70.5466 149.426 71.8386 148.368 75.8485Z" fill="#EB894C"/>
<path d="M146.925 108.6C145.865 108.807 144.761 108.435 143.974 107.605C143.187 106.775 142.88 105.66 143.154 104.623L150.692 76.0355C150.966 74.9989 151.762 74.2562 152.823 74.0493C153.884 73.8424 154.988 74.2143 155.774 75.0441L177.477 97.9262C178.265 98.7565 178.572 99.871 178.298 100.908C178.024 101.945 177.228 102.687 176.167 102.894L146.925 108.6Z" fill="white"/>
<path d="M154.238 82.7469L156.096 82.3843C157.29 82.1513 158.53 82.9467 158.864 84.1603L159.549 86.6501C159.574 86.7416 159.594 86.8336 159.607 86.9262L160.768 94.7425C160.935 95.869 160.242 96.8735 159.151 97.0864C158.058 97.2998 156.908 96.6503 156.472 95.5739L153.455 88.1229C153.42 88.0363 153.39 87.9487 153.366 87.8594L152.68 85.3663C152.346 84.1532 153.043 82.9799 154.238 82.7469ZM159.495 99.2343L160.002 99.1352C161.07 98.9267 162.179 99.6383 162.478 100.724C162.777 101.81 162.153 102.859 161.084 103.068L160.578 103.167C159.509 103.375 158.4 102.664 158.101 101.578C157.802 100.492 158.426 99.4428 159.495 99.2343Z" fill="#EB894C"/>
<path d="M98.8943 119.492L96.2686 124.367L98.0826 125.344L100.708 120.469L98.8943 119.492Z" fill="#E0E0E0"/>
<path d="M99.3848 119.757L96.759 124.632L98.5731 125.609L101.199 120.734L99.3848 119.757Z" fill="#EBEBEB"/>
<path d="M99.2942 121.228C99.1725 121.454 99.2569 121.736 99.4831 121.858C99.7092 121.979 99.991 121.895 100.113 121.669C100.234 121.443 100.15 121.161 99.9238 121.039C99.6979 120.917 99.4159 121.002 99.2942 121.228Z" fill="white"/>
<path d="M98.5033 120.226C98.5261 120.223 98.5692 120.437 98.5995 120.704C98.6298 120.971 98.6358 121.189 98.613 121.192C98.5902 121.194 98.5472 120.98 98.5168 120.713C98.4865 120.447 98.4805 120.228 98.5033 120.226Z" fill="#EBEBEB"/>
<path d="M98.2127 120.765C98.2355 120.762 98.2786 120.976 98.3089 121.243C98.3392 121.51 98.3452 121.728 98.3226 121.731C98.2999 121.733 98.2568 121.519 98.2265 121.252C98.1962 120.986 98.1899 120.767 98.2127 120.765Z" fill="#EBEBEB"/>
<path d="M97.9221 121.305C97.9449 121.302 97.988 121.516 98.0183 121.783C98.0486 122.05 98.0546 122.268 98.0318 122.271C98.009 122.273 97.9659 122.059 97.9356 121.793C97.9056 121.526 97.8995 121.307 97.9221 121.305Z" fill="#EBEBEB"/>
<path d="M97.632 121.844C97.6548 121.841 97.6978 122.055 97.7279 122.322C97.7582 122.589 97.7642 122.807 97.7417 122.81C97.7191 122.812 97.6758 122.598 97.6455 122.331C97.6152 122.065 97.6092 121.846 97.632 121.844Z" fill="#EBEBEB"/>
<path d="M97.3415 122.383C97.3642 122.38 97.4073 122.594 97.4374 122.861C97.4677 123.128 97.4737 123.346 97.4512 123.349C97.4284 123.352 97.3853 123.137 97.355 122.871C97.3247 122.604 97.3187 122.385 97.3415 122.383Z" fill="#EBEBEB"/>
<path d="M97.0509 122.922C97.0737 122.919 97.1168 123.134 97.1471 123.4C97.1774 123.667 97.1834 123.885 97.1606 123.888C97.1378 123.89 97.0948 123.676 97.0645 123.41C97.0341 123.143 97.0281 122.925 97.0509 122.922Z" fill="#EBEBEB"/>
<path d="M96.7604 123.462C96.7832 123.459 96.8263 123.674 96.8566 123.94C96.8869 124.207 96.8929 124.425 96.8701 124.428C96.8473 124.431 96.8042 124.217 96.7739 123.95C96.7436 123.683 96.7376 123.464 96.7604 123.462Z" fill="#EBEBEB"/>
<path d="M98.7646 119.753C98.7873 119.75 98.8304 119.965 98.8607 120.231C98.891 120.498 98.897 120.716 98.8743 120.719C98.8515 120.721 98.8084 120.507 98.7781 120.241C98.7478 119.974 98.7418 119.755 98.7646 119.753Z" fill="#EBEBEB"/>
<path d="M99.0881 119.595C99.1109 119.592 99.1439 119.718 99.1617 119.876C99.1797 120.034 99.1757 120.164 99.1529 120.167C99.1301 120.169 99.0971 120.043 99.0793 119.885C99.0615 119.728 99.0653 119.598 99.0881 119.595Z" fill="#EBEBEB"/>
<path d="M95.5592 123.49L97.7812 119.129C97.7812 119.129 96.9224 118.426 96.7699 116.662C96.6689 115.494 97.37 114.692 97.4651 114.255C97.5235 113.988 96.9522 113.74 96.698 113.639C96.4571 113.544 96.0145 113.468 95.6639 113.742C95.0139 114.249 94.5656 116.06 94.5656 116.06C94.5656 116.06 94.5694 116.48 94.1158 116.235L92.4984 115.364C92.2888 115.251 92.0451 115.209 91.8124 115.26C91.608 115.305 91.3914 115.423 91.2677 115.704C90.9847 116.346 91.1605 116.796 91.0906 116.925C91.0207 117.055 90.7204 117.186 90.6496 117.628C90.5784 118.07 90.6769 118.082 90.5809 118.26C90.485 118.438 90.2731 118.909 90.2383 119.245C90.2035 119.581 90.2631 119.781 90.2631 119.781C90.2631 119.781 89.8757 120.337 89.8792 120.765C89.8839 121.326 90.7971 122.189 91.3466 122.224C91.6035 122.241 92.6898 122.53 93.2044 122.661C93.7189 122.791 95.2353 123.043 95.5592 123.49Z" fill="#E0E0E0"/>
<path d="M96.112 123.85L98.4585 119.493C98.4585 119.493 97.5994 118.79 97.4472 117.026C97.3462 115.859 97.4667 115.024 97.5619 114.587C97.6202 114.32 97.483 114.044 97.2285 113.943C96.9876 113.847 96.667 113.789 96.3166 114.063C95.6667 114.571 95.2432 116.424 95.2432 116.424C95.2432 116.424 95.2469 116.844 94.7934 116.6L93.176 115.728C92.9663 115.615 92.7226 115.573 92.49 115.624C92.2856 115.669 92.069 115.788 91.9452 116.069C91.6625 116.71 91.838 117.16 91.7682 117.29C91.6983 117.419 91.398 117.55 91.3271 117.992C91.256 118.435 91.3544 118.446 91.2585 118.624C91.1626 118.802 90.9507 119.273 90.9156 119.609C90.8808 119.946 90.9404 120.145 90.9404 120.145C90.9404 120.145 90.5778 120.702 90.5565 121.129C90.5352 121.557 91.1195 122.101 91.3464 122.223C91.5731 122.346 93.3673 122.894 93.8817 123.025C94.3962 123.156 95.7882 123.404 96.112 123.85Z" fill="#EBEBEB"/>
<path d="M94.8836 115.108C94.9063 115.103 94.9882 115.377 95.0897 115.715C95.1906 116.052 95.2733 116.326 95.2512 116.334C95.2302 116.342 95.112 116.079 95.0103 115.738C94.9079 115.398 94.8615 115.113 94.8836 115.108Z" fill="#EBEBEB"/>
<path d="M95.1102 114.479C95.1327 114.474 95.2079 114.721 95.3238 115.019C95.4408 115.317 95.5174 115.57 95.4944 115.577C95.4741 115.584 95.3642 115.349 95.2465 115.048C95.1282 114.746 95.0877 114.483 95.1102 114.479Z" fill="#EBEBEB"/>
<path d="M95.4372 113.978C95.462 113.972 95.5181 114.176 95.6288 114.408C95.745 114.642 95.8016 114.853 95.7791 114.86C95.7575 114.867 95.6699 114.678 95.5536 114.442C95.4384 114.2 95.4169 113.981 95.4372 113.978Z" fill="#EBEBEB"/>
<path d="M95.8515 113.635C95.8728 113.627 95.9464 113.765 96.0158 113.945C96.0852 114.124 96.124 114.276 96.1027 114.284C96.0814 114.292 96.0078 114.154 95.9384 113.974C95.8691 113.795 95.8302 113.643 95.8515 113.635Z" fill="#EBEBEB"/>
<path d="M96.3191 113.554C96.3389 113.542 96.3987 113.614 96.4526 113.715C96.5067 113.816 96.5337 113.905 96.5129 113.915C96.4924 113.925 96.4326 113.853 96.3795 113.754C96.3266 113.655 96.2996 113.566 96.3191 113.554Z" fill="#EBEBEB"/>
<path d="M94.5959 115.945C94.6171 115.936 94.694 116.084 94.7672 116.274C94.8403 116.463 94.8824 116.624 94.8611 116.632C94.8398 116.64 94.7632 116.493 94.6898 116.303C94.6166 116.113 94.5746 115.953 94.5959 115.945Z" fill="#EBEBEB"/>
<path d="M91.1452 116.045C91.1655 116.035 91.3221 116.298 91.4949 116.633C91.6677 116.967 91.7912 117.247 91.7706 117.258C91.7503 117.268 91.5938 117.005 91.421 116.671C91.2484 116.335 91.125 116.056 91.1452 116.045Z" fill="#EBEBEB"/>
<path d="M91.5686 115.321C91.5891 115.31 91.6885 115.464 91.7912 115.664C91.8939 115.864 91.9605 116.034 91.94 116.045C91.9197 116.055 91.82 115.902 91.7173 115.702C91.6149 115.502 91.5483 115.331 91.5686 115.321Z" fill="#EBEBEB"/>
<path d="M90.8231 117.236C90.8416 117.224 90.9822 117.404 91.1109 117.653C91.2404 117.902 91.3067 118.121 91.286 118.129C91.2642 118.138 91.1645 117.936 91.0373 117.692C90.9105 117.446 90.8036 117.249 90.8231 117.236Z" fill="#EBEBEB"/>
<path d="M90.6072 118.202C90.6279 118.193 90.7386 118.388 90.8541 118.638C90.9698 118.888 91.0467 119.099 91.0259 119.108C91.0051 119.118 90.8944 118.923 90.7787 118.673C90.6633 118.423 90.5864 118.212 90.6072 118.202Z" fill="#EBEBEB"/>
<path d="M90.261 119.297C90.2831 119.289 90.391 119.525 90.5313 119.811C90.6708 120.098 90.7905 120.328 90.7704 120.34C90.7516 120.352 90.5984 120.138 90.4566 119.847C90.3146 119.557 90.2402 119.305 90.261 119.297Z" fill="#EBEBEB"/>
<path d="M90.019 120.244C90.04 120.237 90.167 120.511 90.3318 120.845C90.4943 121.181 90.6326 121.449 90.6133 121.461C90.5935 121.474 90.421 121.22 90.2572 120.881C90.0911 120.544 89.9972 120.252 90.019 120.244Z" fill="#EBEBEB"/>
<path d="M32.2009 92.3866L29.5911 93.4717L32.5071 100.486L35.1169 99.4005L32.2009 92.3866Z" fill="#E0E0E0"/>
<path d="M31.4958 92.6796L28.886 93.7646L31.802 100.779L34.4118 99.6935L31.4958 92.6796Z" fill="#EBEBEB"/>
<path d="M32.9216 98.3198C32.7864 97.9945 32.4132 97.8407 32.0879 97.9757C31.7626 98.1109 31.6088 98.4841 31.7438 98.8095C31.879 99.1348 32.2522 99.2886 32.5775 99.1536C32.9029 99.0183 33.0569 98.6449 32.9216 98.3198Z" fill="white"/>
<path d="M34.6735 98.3456C34.6564 98.3721 34.3912 98.2324 34.0811 98.0338C33.7708 97.8352 33.5331 97.6526 33.5502 97.6263C33.5672 97.5997 33.8322 97.7395 34.1425 97.9381C34.4526 98.1367 34.6902 98.319 34.6735 98.3456Z" fill="#EBEBEB"/>
<path d="M34.3505 97.5692C34.3334 97.5958 34.0684 97.456 33.7581 97.2574C33.4478 97.0588 33.2101 96.8762 33.2272 96.8499C33.2442 96.8234 33.5092 96.9631 33.8195 97.1617C34.1298 97.3603 34.3675 97.5427 34.3505 97.5692Z" fill="#EBEBEB"/>
<path d="M34.0279 96.7941C34.0109 96.8206 33.7457 96.6809 33.4356 96.4823C33.1253 96.2837 32.8876 96.1011 32.9047 96.0745C32.9217 96.048 33.1867 96.1877 33.497 96.3863C33.8073 96.5852 34.045 96.7675 34.0279 96.7941Z" fill="#EBEBEB"/>
<path d="M33.7054 96.0177C33.6884 96.0443 33.4232 95.9045 33.1131 95.7059C32.8028 95.5073 32.5651 95.3247 32.5822 95.2982C32.5992 95.2716 32.8642 95.4114 33.1745 95.61C33.4848 95.8086 33.7225 95.9912 33.7054 96.0177Z" fill="#EBEBEB"/>
<path d="M33.3827 95.242C33.3657 95.2686 33.1007 95.1288 32.7904 94.9302C32.4801 94.7316 32.2424 94.549 32.2594 94.5227C32.2764 94.4964 32.5414 94.6359 32.8517 94.8345C33.1618 95.0329 33.3995 95.2155 33.3827 95.242Z" fill="#EBEBEB"/>
<path d="M33.0602 94.4659C33.0431 94.4925 32.7779 94.3527 32.4679 94.1541C32.1575 93.9555 31.9199 93.7729 31.9369 93.7464C31.9539 93.7199 32.2189 93.8596 32.5292 94.0582C32.8393 94.2571 33.077 94.4397 33.0602 94.4659Z" fill="#EBEBEB"/>
<path d="M32.7377 93.6896C32.7206 93.7161 32.4554 93.5764 32.1453 93.3778C31.835 93.1792 31.5974 92.9966 31.6144 92.97C31.6314 92.9435 31.8964 93.083 32.2067 93.2818C32.5168 93.4807 32.7544 93.6633 32.7377 93.6896Z" fill="#EBEBEB"/>
<path d="M34.9506 99.0331C34.9335 99.0596 34.6683 98.9199 34.3582 98.7213C34.0479 98.5227 33.8102 98.3401 33.8273 98.3138C33.8443 98.2872 34.1093 98.427 34.4196 98.6256C34.7299 98.8242 34.9676 99.0068 34.9506 99.0331Z" fill="#EBEBEB"/>
<path d="M34.839 99.5142C34.822 99.5407 34.6594 99.4668 34.4759 99.3491C34.2923 99.2314 34.157 99.1147 34.1741 99.0884C34.1911 99.0619 34.3536 99.1357 34.5372 99.2535C34.7208 99.3709 34.8558 99.4876 34.839 99.5142Z" fill="#EBEBEB"/>
<path d="M33.7471 92.3872L36.4655 98.5261C36.4655 98.5261 37.9569 98.2203 39.9666 99.5847C41.2965 100.488 41.5431 101.927 41.9261 102.408C42.1603 102.701 42.9179 102.307 43.2455 102.124C43.556 101.951 44.0196 101.545 44.0314 100.935C44.0534 99.8041 42.5147 97.7602 42.5147 97.7602C42.5147 97.7602 42.0646 97.4008 42.717 97.1296L45.0442 96.1621C45.346 96.0366 45.6015 95.8139 45.7487 95.5221C45.878 95.2659 45.9388 94.9326 45.7472 94.5579C45.3092 93.7016 44.6786 93.4992 44.6009 93.3127C44.5235 93.1263 44.644 92.6935 44.2348 92.235C43.8255 91.7766 43.7283 91.8716 43.6219 91.6153C43.5152 91.3591 43.1974 90.726 42.8695 90.3976C42.5417 90.0693 42.2777 89.9604 42.2777 89.9604C42.2777 89.9604 42.021 89.0665 41.5624 88.7001C40.9614 88.2197 39.2528 88.4451 38.7398 88.9991C38.4999 89.2583 37.2519 90.1645 36.6673 90.5988C36.0828 91.0328 34.5019 92.4286 33.7471 92.3872Z" fill="#E0E0E0"/>
<path d="M32.8845 92.6631L35.4907 98.9312C35.4907 98.9312 36.9822 98.6254 38.9918 99.9898C40.3217 100.893 41.1054 101.743 41.4886 102.223C41.7227 102.516 42.1352 102.609 42.4628 102.426C42.7731 102.252 43.1122 101.961 43.1243 101.351C43.1463 100.22 41.5402 98.1651 41.5402 98.1651C41.5402 98.1651 41.0901 97.8057 41.7425 97.5344L44.0697 96.5669C44.3715 96.4414 44.627 96.2188 44.7742 95.927C44.9035 95.6708 44.9643 95.3374 44.7727 94.9628C44.3347 94.1065 43.7038 93.9041 43.6264 93.7175C43.549 93.5312 43.6695 93.0984 43.2603 92.6398C42.851 92.1815 42.7538 92.2764 42.6474 92.0202C42.541 91.764 42.2229 91.1309 41.895 90.8025C41.5672 90.4742 41.3032 90.3652 41.3032 90.3652C41.3032 90.3652 41.0242 89.4974 40.5879 89.1049C40.1514 88.7125 39.0662 88.8633 38.7401 88.9988C38.414 89.1342 36.2777 90.5693 35.6928 91.0036C35.108 91.4379 33.6396 92.7044 32.8845 92.6631Z" fill="#EBEBEB"/>
<path d="M43.252 98.9212C43.238 98.95 42.8751 98.8 42.4286 98.6161C41.982 98.4315 41.6191 98.2823 41.6294 98.252C41.6391 98.2229 42.0216 98.3248 42.4721 98.5109C42.9224 98.6963 43.2658 98.8936 43.252 98.9212Z" fill="#EBEBEB"/>
<path d="M43.7259 99.7073C43.7114 99.7356 43.3833 99.6011 42.9658 99.4671C42.547 99.3333 42.2124 99.1968 42.2239 99.1653C42.2342 99.1377 42.5793 99.2241 43.0016 99.3589C43.4253 99.4951 43.7407 99.6797 43.7259 99.7073Z" fill="#EBEBEB"/>
<path d="M43.9764 100.489C43.9608 100.521 43.6956 100.404 43.3527 100.321C43.0024 100.242 42.7286 100.119 42.7411 100.09C42.7529 100.061 43.0299 100.131 43.3808 100.211C43.7387 100.298 43.9906 100.465 43.9764 100.489Z" fill="#EBEBEB"/>
<path d="M43.9822 101.227C43.9725 101.257 43.7613 101.215 43.5106 101.134C43.2597 101.052 43.0643 100.963 43.0741 100.932C43.0838 100.903 43.295 100.944 43.5457 101.026C43.7964 101.107 43.9917 101.197 43.9822 101.227Z" fill="#EBEBEB"/>
<path d="M43.6641 101.795C43.6596 101.826 43.5311 101.827 43.3774 101.798C43.2236 101.768 43.1046 101.719 43.1119 101.689C43.1192 101.658 43.2476 101.657 43.3987 101.686C43.5499 101.715 43.6686 101.764 43.6641 101.795Z" fill="#EBEBEB"/>
<path d="M42.611 97.892C42.6012 97.9218 42.3783 97.8762 42.1128 97.7898C41.8473 97.7034 41.6402 97.6092 41.65 97.5794C41.6598 97.5496 41.8827 97.5954 42.1481 97.6816C42.4134 97.7678 42.6205 97.8619 42.611 97.892Z" fill="#EBEBEB"/>
<path d="M45.4898 94.1319C45.4833 94.1627 45.0681 94.1016 44.5624 93.9957C44.0565 93.8897 43.6518 93.7788 43.6583 93.7482C43.6648 93.7174 44.08 93.7785 44.586 93.8845C45.0914 93.9902 45.4964 94.1011 45.4898 94.1319Z" fill="#EBEBEB"/>
<path d="M45.8951 95.2098C45.8886 95.2406 45.6389 95.2138 45.3373 95.1499C45.0358 95.086 44.7966 95.0094 44.8031 94.9786C44.8096 94.9478 45.0593 94.9746 45.3609 95.0385C45.6624 95.1023 45.9016 95.1792 45.8951 95.2098Z" fill="#EBEBEB"/>
<path d="M44.5013 92.7585C44.4983 92.7891 44.185 92.7823 43.8083 92.7037C43.4311 92.6258 43.1411 92.5073 43.1506 92.4783C43.1601 92.4475 43.4609 92.5158 43.8316 92.5922C44.2018 92.6696 44.5048 92.7265 44.5013 92.7585Z" fill="#EBEBEB"/>
<path d="M43.6596 91.6927C43.6518 91.7232 43.3485 91.6721 42.9823 91.5787C42.6159 91.4853 42.3254 91.3849 42.3332 91.3546C42.3409 91.324 42.644 91.3751 43.0104 91.4685C43.3768 91.5617 43.6673 91.6621 43.6596 91.6927Z" fill="#EBEBEB"/>
<path d="M42.7938 90.3764C42.7835 90.407 42.4389 90.3178 42.0129 90.2191C41.5868 90.1194 41.2382 90.0476 41.2425 90.0155C41.2462 89.9852 41.6066 90.0072 42.0387 90.1082C42.4707 90.2084 42.8038 90.3476 42.7938 90.3764Z" fill="#EBEBEB"/>
<path d="M41.9953 89.299C41.9853 89.3283 41.5839 89.2258 41.0852 89.1116C40.5873 88.9939 40.1816 88.9088 40.1858 88.8782C40.1898 88.8464 40.6088 88.8822 41.111 89.0009C41.6139 89.1159 42.0059 89.2687 41.9953 89.299Z" fill="#EBEBEB"/>
<path d="M19.9034 167.079C18.3696 166.288 16.5634 166.185 14.8605 166.466C13.9456 166.618 12.9919 166.891 12.3693 167.578C11.7467 168.266 11.629 169.475 12.3435 170.065C12.769 170.417 13.3623 170.47 13.9143 170.464C15.2472 170.448 16.7264 170.214 17.7916 171.016C18.3992 171.473 18.8037 172.234 19.5302 172.459C20.241 172.679 21.043 172.26 21.4199 171.618C21.7968 170.977 21.8093 170.175 21.6335 169.452C21.6335 169.452 21.4484 167.876 19.9034 167.079Z" fill="#EBEBEB"/>
<path d="M23.4175 160.295C22.4796 161.635 20.6565 161.192 19.8115 160.374C18.9662 159.556 18.6091 158.371 18.2837 157.241C17.5406 154.659 16.7915 151.95 17.344 149.321C17.5093 148.534 17.8031 147.751 18.3556 147.167C18.9079 146.584 19.7574 146.237 20.5341 146.442C21.4532 146.685 22.0245 147.585 22.4372 148.442C23.6509 150.959 24.2936 153.749 24.3029 156.544C24.3076 157.849 24.1538 159.218 23.4175 160.295Z" fill="#EBEBEB"/>
<path d="M25.993 162.218C24.9747 161.009 24.7813 159.246 25.2344 157.732C25.6877 156.218 26.7113 154.93 27.8912 153.878C29.2745 152.645 30.9006 151.686 32.6485 151.071C33.3365 150.829 34.0621 150.638 34.7882 150.708C35.5142 150.777 36.245 151.148 36.5837 151.794C37.0843 152.749 36.6042 153.907 36.085 154.852C35.1704 156.517 34.1245 158.109 32.9604 159.61C32.0239 160.818 30.951 162.009 29.5237 162.555C28.0963 163.1 26.6136 163.036 25.857 162.046" fill="#EBEBEB"/>
<path d="M23.4811 180.503C23.4636 180.504 23.435 180.287 23.3962 179.894C23.3531 179.451 23.299 178.895 23.2344 178.233C23.157 177.534 23.0548 176.702 22.8607 175.796C22.6671 174.893 22.3644 173.914 21.9751 172.921C21.5722 171.933 21.0808 171.036 20.5065 170.318C19.9362 169.598 19.2733 169.076 18.6499 168.775C18.0288 168.468 17.4715 168.343 17.0863 168.288C16.6979 168.248 16.4805 168.218 16.4802 168.2C16.48 168.183 16.6979 168.18 17.0971 168.191C17.4923 168.217 18.0726 168.317 18.7275 168.615C19.3845 168.906 20.088 169.436 20.6861 170.172C21.2889 170.905 21.7983 171.822 22.2083 172.827C22.6043 173.837 22.9026 174.826 23.0877 175.75C23.272 176.671 23.3564 177.512 23.4117 178.217C23.4646 178.923 23.4844 179.494 23.4941 179.889C23.5027 180.283 23.4981 180.502 23.4811 180.503Z" fill="#E0E0E0"/>
<path d="M23.3663 179.225C23.3575 179.224 23.3523 179.127 23.35 178.942C23.3505 178.73 23.3513 178.463 23.3523 178.135C23.3543 177.434 23.3538 176.419 23.3162 175.167C23.2541 172.661 23.0384 169.966 22.6219 166.164C22.2275 162.59 21.6978 158.431 21.139 155.726C21.019 155.111 20.8986 154.558 20.7849 154.073C20.6764 153.587 20.584 153.168 20.4949 152.83C20.4182 152.511 20.3559 152.251 20.306 152.044C20.2654 151.864 20.2484 151.768 20.2567 151.766C20.2649 151.763 20.2985 151.855 20.3549 152.03C20.4165 152.234 20.4941 152.49 20.5893 152.804C20.6932 153.14 20.7999 153.556 20.9216 154.04C21.0484 154.523 21.1816 155.075 21.3128 155.689C21.8658 158.139 22.4511 161.564 22.8716 165.374C23.2891 169.183 23.4772 172.652 23.4938 175.163C23.5088 176.419 23.482 177.435 23.4499 178.137C23.4299 178.465 23.4136 178.732 23.4006 178.944C23.3866 179.129 23.3751 179.225 23.3663 179.225Z" fill="#E0E0E0"/>
<path d="M23.3498 172.535C23.3323 172.535 23.3353 172.235 23.3559 171.691C23.3869 171.149 23.4616 170.366 23.6143 169.406C23.7761 168.448 24.0025 167.311 24.3577 166.075C24.5117 165.51 24.8736 164.157 25.7504 162.134C26.9055 159.394 28.4751 157.153 29.8403 155.766C30.1606 155.398 30.5173 155.132 30.8026 154.871C30.9501 154.747 31.0806 154.622 31.2135 154.523C31.3473 154.431 31.4715 154.346 31.5867 154.266C32.036 153.959 32.2877 153.797 32.297 153.811C32.3373 153.866 31.2907 154.482 29.9688 155.888C28.6524 157.292 27.1267 159.517 25.9811 162.234C25.3422 163.708 24.8966 165.022 24.5806 166.138C24.2154 167.362 23.9727 168.488 23.7894 169.436C23.6153 170.386 23.5144 171.162 23.4535 171.699C23.4029 172.237 23.3669 172.536 23.3498 172.535Z" fill="#E0E0E0"/>
<path d="M29.8152 184.335L29.1448 193.518H17.348L16.6775 184.335H29.8152Z" fill="#E0E0E0"/>
<path d="M30.9546 180.716H15.27V184.335H30.9546V180.716Z" fill="#E0E0E0"/>
<path d="M30.9547 193.167V194.17H30.2178H15.5293V193.167H30.9547Z" fill="#EBEBEB"/>
<path d="M29.4953 195.936L30.2178 194.17H16.0913L16.9341 195.936H29.4953Z" fill="#E0E0E0"/>
<path d="M16.8967 187.336C16.894 187.338 16.9128 187.367 16.9518 187.42C16.9987 187.482 17.0565 187.559 17.1282 187.654C17.2957 187.869 17.5259 188.163 17.8154 188.534L17.846 188.573L17.8755 188.532C18.3075 187.935 18.8846 187.136 19.5638 186.197H19.4666C19.9688 186.908 20.5283 187.7 21.1289 188.55L21.181 188.624L21.2393 188.555C21.8527 187.825 22.5192 187.032 23.2107 186.209L23.0969 186.208C23.1313 186.251 23.1681 186.298 23.2054 186.344C23.8167 187.111 24.4086 187.852 24.9681 188.554L25.0269 188.628L25.0813 188.551C25.6796 187.704 26.2389 186.913 26.7443 186.198L26.6476 186.203C27.4671 187.136 28.1623 187.929 28.6958 188.536L28.7321 188.578L28.7599 188.531C29.0299 188.078 29.2451 187.716 29.4013 187.454C29.4685 187.337 29.5226 187.242 29.5659 187.167C29.6022 187.101 29.6192 187.066 29.6162 187.064C29.613 187.062 29.5897 187.094 29.5476 187.155C29.4998 187.228 29.4397 187.319 29.3655 187.431C29.2017 187.689 28.9758 188.044 28.6923 188.489L28.7564 188.484C28.2315 187.869 27.5475 187.067 26.741 186.122L26.6902 186.062L26.6441 186.126C26.1339 186.838 25.5699 187.626 24.9661 188.469L25.079 188.466C24.5208 187.763 23.9305 187.02 23.3206 186.253C23.2835 186.206 23.2465 186.159 23.2122 186.116L23.1558 186.046L23.0982 186.115C22.4085 186.939 21.744 187.733 21.1324 188.465L21.2428 188.469C20.6363 187.623 20.0712 186.835 19.5641 186.127L19.5147 186.059L19.4666 186.127C18.8017 187.077 18.2369 187.884 17.8139 188.488L17.874 188.486C17.5727 188.125 17.3333 187.838 17.1592 187.629C17.0816 187.539 17.0187 187.466 16.9676 187.407C16.9235 187.358 16.8995 187.334 16.8967 187.336Z" fill="#F5F5F5"/>
<path d="M16.5134 184.275C16.5134 184.315 19.4693 184.348 23.1149 184.348C26.7617 184.348 29.717 184.315 29.717 184.275C29.717 184.234 26.7617 184.201 23.1149 184.201C19.4693 184.201 16.5134 184.234 16.5134 184.275Z" fill="#F5F5F5"/>
<path d="M15.9175 194.269C15.9175 194.309 19.13 194.342 23.0919 194.342C27.0553 194.342 30.2671 194.309 30.2671 194.269C30.2671 194.228 27.0553 194.195 23.0919 194.195C19.13 194.195 15.9175 194.228 15.9175 194.269Z" fill="#F5F5F5"/>
<path d="M85.77 149.322C90.1837 149.322 93.7617 145.744 93.7617 141.331C93.7617 136.917 90.1837 133.339 85.77 133.339C81.3563 133.339 77.7783 136.917 77.7783 141.331C77.7783 145.744 81.3563 149.322 85.77 149.322Z" fill="#EBEBEB"/>
<path d="M93.1408 139.965C93.277 139.958 93.4263 140.167 93.537 140.58C93.649 140.992 93.6978 141.609 93.6006 142.367C93.5055 143.123 93.2392 144.014 92.7378 144.911C92.2399 145.806 91.4883 146.698 90.502 147.401C89.508 148.093 88.415 148.5 87.4042 148.667C86.3906 148.838 85.4619 148.788 84.7178 148.623C83.972 148.459 83.4075 148.205 83.0576 147.961C82.7062 147.718 82.5589 147.507 82.6118 147.381C82.7277 147.105 83.5795 147.26 84.8483 147.193C86.1058 147.14 87.8382 146.789 89.3329 145.741C90.8226 144.687 91.737 143.174 92.2104 142.008C92.7007 140.836 92.8423 139.981 93.1408 139.965Z" fill="#E0E0E0"/>
<path d="M86.1363 143.268C86.9673 143.194 87.8035 142.866 88.3397 142.281C88.6593 141.932 88.9531 141.403 88.9163 140.932C88.8795 140.46 88.5223 140.001 88.052 139.949C87.7181 139.913 87.3963 140.075 87.1128 140.255C86.8295 140.435 86.5515 140.643 86.2242 140.717C85.7551 140.823 85.2745 140.637 84.8314 140.451C84.3883 140.263 83.9147 140.067 83.4416 140.153C83.1772 140.201 82.8223 140.307 82.6805 140.673C82.6805 140.673 82.4416 141.194 82.922 141.89C83.353 142.515 84.494 143.416 86.1363 143.268Z" fill="white"/>
<path d="M82.5049 138.722C82.3729 138.456 82.0668 138.304 81.7786 138.34C81.6876 138.344 81.6042 138.374 81.5314 138.424C81.5289 138.425 81.5264 138.426 81.5241 138.428L81.5274 138.427C81.308 138.578 81.184 138.9 81.2351 139.177C81.3055 139.559 81.7608 139.814 82.1257 139.681C82.4903 139.549 82.6774 139.07 82.5049 138.722Z" fill="white"/>
<path d="M90.1084 138.747C89.9764 138.481 89.6703 138.33 89.3821 138.366C89.2912 138.37 89.2078 138.4 89.1349 138.449C89.1324 138.45 89.1299 138.451 89.1276 138.453L89.1309 138.452C88.9115 138.604 88.7875 138.926 88.8386 139.202C88.909 139.584 89.3643 139.839 89.7289 139.707C90.0936 139.574 90.2807 139.095 90.1084 138.747Z" fill="white"/>
<path d="M87.0677 103.594C90.3654 103.594 93.0387 100.921 93.0387 97.6234C93.0387 94.3257 90.3654 91.6523 87.0677 91.6523C83.77 91.6523 81.0967 94.3257 81.0967 97.6234C81.0967 100.921 83.77 103.594 87.0677 103.594Z" fill="#EBEBEB"/>
<path d="M92.5744 96.6027C92.6761 96.5972 92.7878 96.754 92.8705 97.0623C92.9541 97.3698 92.9907 97.8309 92.918 98.3969C92.8469 98.9619 92.6481 99.6279 92.2734 100.298C91.9012 100.967 91.3399 101.633 90.6031 102.158C89.8603 102.675 89.0438 102.979 88.2884 103.104C87.5313 103.231 86.8373 103.194 86.2813 103.071C85.7241 102.949 85.3023 102.759 85.0408 102.577C84.7783 102.395 84.6684 102.237 84.7077 102.143C84.7944 101.937 85.4308 102.053 86.3787 102.003C87.3182 101.963 88.6125 101.701 89.7293 100.918C90.8423 100.13 91.5255 99 91.8792 98.1289C92.2458 97.2531 92.3515 96.6147 92.5744 96.6027Z" fill="#E0E0E0"/>
<path d="M86.7939 96.5999C86.173 96.6557 85.5482 96.9002 85.1477 97.3375C84.909 97.5982 84.6896 97.9934 84.7169 98.3458C84.7445 98.6982 85.0112 99.0415 85.3628 99.0796C85.6123 99.1067 85.8527 98.9857 86.0643 98.8512C86.276 98.7165 86.4836 98.5612 86.7283 98.5058C87.0787 98.4267 87.4378 98.5654 87.7689 98.7052C88.1 98.8449 88.4537 98.9915 88.8073 98.9273C89.0049 98.8915 89.2701 98.8129 89.3761 98.5391C89.3761 98.5391 89.5546 98.1499 89.1957 97.6297C88.8737 97.1629 88.0209 96.4897 86.7939 96.5999Z" fill="white"/>
<path d="M84.6281 95.6749C84.5294 95.476 84.301 95.3628 84.0854 95.3896C84.0175 95.3926 83.9552 95.4149 83.9008 95.452C83.8991 95.453 83.897 95.4538 83.8953 95.455L83.8978 95.4543C83.734 95.5677 83.6413 95.8084 83.6794 96.0148C83.732 96.3 84.0721 96.4906 84.3449 96.3917C84.6171 96.2928 84.7569 95.9346 84.6281 95.6749Z" fill="white"/>
<path d="M90.3088 95.6935C90.2101 95.4946 89.9814 95.3814 89.7661 95.4082C89.6982 95.4112 89.6358 95.4337 89.5815 95.4706C89.5797 95.4716 89.5777 95.4723 89.576 95.4736L89.5782 95.4728C89.4144 95.5863 89.3218 95.8269 89.3598 96.0333C89.4124 96.3183 89.7525 96.5092 90.025 96.4103C90.298 96.3113 90.4378 95.9532 90.3088 95.6935Z" fill="white"/>
<path d="M13.9502 142.03C16.8886 142.03 19.2706 139.648 19.2706 136.71C19.2706 133.772 16.8886 131.39 13.9502 131.39C11.0119 131.39 8.62988 133.772 8.62988 136.71C8.62988 139.648 11.0119 142.03 13.9502 142.03Z" fill="#EBEBEB"/>
<path d="M18.8569 135.801C18.9476 135.796 19.047 135.936 19.1206 136.21C19.195 136.485 19.2276 136.895 19.163 137.4C19.0996 137.903 18.9225 138.496 18.5887 139.093C18.2571 139.689 17.7569 140.283 17.1002 140.751C16.4386 141.212 15.7107 141.483 15.0378 141.594C14.3631 141.707 13.7447 141.674 13.2493 141.564C12.7526 141.455 12.377 141.286 12.144 141.124C11.9101 140.962 11.8122 140.821 11.8473 140.737C11.9244 140.554 12.4914 140.657 13.3362 140.612C14.1732 140.577 15.3265 140.343 16.3216 139.646C17.3134 138.944 17.922 137.937 18.2373 137.161C18.5641 136.38 18.6583 135.812 18.8569 135.801Z" fill="#E0E0E0"/>
<path d="M14.194 138C14.7472 137.95 15.304 137.733 15.6609 137.343C15.8737 137.111 16.0691 136.758 16.0445 136.444C16.02 136.13 15.7823 135.825 15.469 135.79C15.2469 135.766 15.0325 135.874 14.8439 135.994C14.6553 136.114 14.4702 136.253 14.2523 136.302C13.94 136.372 13.6199 136.249 13.3251 136.124C13.0301 136 12.715 135.869 12.4 135.926C12.2239 135.958 11.9877 136.028 11.8933 136.272C11.8933 136.272 11.7343 136.619 12.0541 137.083C12.3411 137.499 13.1007 138.098 14.194 138Z" fill="white"/>
<path d="M11.7765 134.974C11.6886 134.796 11.485 134.695 11.2929 134.719C11.2323 134.722 11.1769 134.742 11.1283 134.775C11.1268 134.776 11.1251 134.777 11.1236 134.777L11.1258 134.777C10.9798 134.878 10.8972 135.092 10.9312 135.276C10.978 135.53 11.2811 135.7 11.524 135.612C11.7667 135.524 11.8912 135.205 11.7765 134.974Z" fill="white"/>
<path d="M16.8383 134.99C16.7504 134.813 16.5467 134.712 16.3546 134.736C16.294 134.738 16.2387 134.758 16.1901 134.792C16.1886 134.793 16.1868 134.793 16.1853 134.794L16.1876 134.793C16.0416 134.894 15.9589 135.109 15.993 135.293C16.0398 135.547 16.3429 135.717 16.5858 135.629C16.8285 135.541 16.953 135.222 16.8383 134.99Z" fill="white"/>
<path d="M100.312 178.819L91.394 178.866L91.4442 188.326L100.362 188.279L100.312 178.819Z" fill="#EBEBEB"/>
<path d="M109.196 178.761L100.279 178.81L100.33 188.269L109.247 188.221L109.196 178.761Z" fill="#F5F5F5"/>
<path d="M91.4112 181.473C97.3374 181.522 103.278 181.488 109.204 181.391C109.326 181.39 109.325 181.203 109.203 181.202C103.277 181.169 97.3359 181.198 91.4107 181.311C91.306 181.313 91.3068 181.473 91.4112 181.473Z" fill="#E0E0E0"/>
<path d="M102.045 188.112L85.843 188.199L85.8846 195.908L102.086 195.821L102.045 188.112Z" fill="#EBEBEB"/>
<path d="M118.17 188.025L101.969 188.112L102.01 195.821L118.212 195.734L118.17 188.025Z" fill="#F5F5F5"/>
<path d="M85.8488 190.346C96.612 190.467 107.413 190.358 118.175 190.186C118.297 190.184 118.297 189.997 118.174 189.996C107.411 189.94 96.6093 189.946 85.8481 190.183C85.7436 190.185 85.7441 190.344 85.8488 190.346Z" fill="#E0E0E0"/>
<path d="M84.8211 146.1L72.0998 142.019L56.8753 141.963C56.8753 141.963 45.1259 145.627 43.6998 146.384L43.0436 178.049L42.5334 196.106L84.0281 195.884V174.014L84.8211 146.1Z" fill="#F07C33"/>
<path d="M43.6997 146.384C43.6997 146.384 38.9584 150.285 36.4899 156.811C34.7981 161.285 30.9509 171.21 30.9509 171.21L43.0044 175.484L45.7306 156.236L43.6997 146.384Z" fill="#F07C33"/>
<path d="M83.3446 145.627C83.3446 145.627 86.4843 145.894 89.5613 150.827C91.7317 154.307 97.0183 169.537 97.0183 169.537L83.1047 174.399L79.7461 171.813L83.3446 145.627Z" fill="#F07C33"/>
<path d="M43.0436 154.215C43.0797 154.215 43.1088 159.551 43.1088 166.131C43.1088 172.714 43.0795 178.049 43.0436 178.049C43.0076 178.049 42.9785 172.714 42.9785 166.131C42.9783 159.551 43.0076 154.215 43.0436 154.215Z" fill="#263238"/>
<path d="M42.4457 155.357C42.4412 155.371 42.1953 155.309 41.8241 155.138C41.4532 154.969 40.9633 154.676 40.4974 154.258C40.0326 153.839 39.689 153.383 39.4809 153.033C39.2717 152.682 39.1841 152.444 39.1973 152.438C39.2347 152.413 39.6627 153.343 40.5846 154.161C41.496 154.99 42.4663 155.317 42.4457 155.357Z" fill="white"/>
<path d="M83.4562 156.413C83.4572 156.415 83.4256 156.432 83.3633 156.464C83.2951 156.498 83.2027 156.544 83.0848 156.603C82.8323 156.725 82.4707 156.899 82.0076 157.123C81.7726 157.236 81.5122 157.36 81.2274 157.497C80.9386 157.625 80.6171 157.747 80.2757 157.887C79.5885 158.156 78.8198 158.501 77.93 158.772C77.4887 158.919 77.0266 159.072 76.5455 159.232C76.0628 159.389 75.5477 159.507 75.0212 159.653C74.7572 159.724 74.4885 159.795 74.2157 159.868C74.079 159.903 73.9425 159.944 73.8025 159.975C73.662 160.004 73.5205 160.033 73.3777 160.062C72.8072 160.179 72.2199 160.299 71.6181 160.422C69.1964 160.84 66.5013 161.126 63.6624 161.14C60.8226 161.125 58.1269 160.838 55.7051 160.419C55.103 160.296 54.5157 160.176 53.9451 160.059C53.8026 160.029 53.6609 160 53.5204 159.972C53.3804 159.94 53.2439 159.899 53.1071 159.864C52.8344 159.792 52.5656 159.72 52.3017 159.649C51.7752 159.503 51.2598 159.385 50.7774 159.228C50.296 159.068 49.8342 158.914 49.3929 158.767C48.5031 158.495 47.7347 158.15 47.0477 157.881C46.7063 157.741 46.3847 157.619 46.0962 157.49C45.8117 157.354 45.5512 157.229 45.3163 157.117C44.8535 156.893 44.4918 156.718 44.2396 156.596C44.1216 156.537 44.0292 156.491 43.9611 156.458C43.8987 156.426 43.8672 156.408 43.8682 156.406C43.8692 156.404 43.9027 156.418 43.9671 156.446C44.0367 156.477 44.1309 156.519 44.2511 156.572C44.5056 156.689 44.8705 156.856 45.3376 157.071C45.5735 157.18 45.8352 157.301 46.121 157.434C46.4108 157.559 46.7331 157.676 47.0752 157.813C47.7637 158.075 48.5331 158.414 49.4227 158.68C49.8638 158.824 50.3256 158.974 50.8065 159.131C51.2886 159.285 51.8035 159.4 52.329 159.545C52.5927 159.614 52.8607 159.684 53.1332 159.756C53.2697 159.791 53.4062 159.831 53.5457 159.861C53.6859 159.89 53.8272 159.918 53.9697 159.947C54.5392 160.062 55.125 160.18 55.7259 160.301C58.1425 160.712 60.8303 160.994 63.6619 161.01C66.4928 160.995 69.1802 160.714 71.5963 160.304C72.1971 160.183 72.7832 160.065 73.3524 159.95C73.4947 159.922 73.6362 159.893 73.7765 159.865C73.9162 159.834 74.0525 159.794 74.1889 159.76C74.4614 159.688 74.7297 159.618 74.9934 159.549C75.5191 159.405 76.034 159.29 76.5159 159.136C76.997 158.979 77.4589 158.829 77.8999 158.685C78.7898 158.42 79.5591 158.081 80.2479 157.819C80.59 157.682 80.9126 157.565 81.2024 157.44C81.4884 157.308 81.7501 157.186 81.986 157.077C82.4531 156.863 82.818 156.696 83.0727 156.579C83.1932 156.526 83.2874 156.484 83.357 156.453C83.4216 156.424 83.4552 156.411 83.4562 156.413Z" fill="white"/>
<path d="M89.5402 152.027C89.5462 152.034 89.4891 152.096 89.3804 152.203C89.2722 152.31 89.1094 152.459 88.9033 152.637C88.4913 152.993 87.8972 153.459 87.2022 153.917C86.5062 154.374 85.8435 154.735 85.3531 154.972C85.108 155.091 84.9068 155.182 84.7656 155.238C84.6246 155.296 84.5449 155.324 84.5412 155.316C84.5329 155.298 84.8337 155.147 85.3113 154.89C85.7889 154.633 86.4396 154.262 87.1309 153.808C87.8214 153.353 88.4197 152.903 88.845 152.566C89.2697 152.229 89.5269 152.012 89.5402 152.027Z" fill="white"/>
<path d="M42.8415 158.186C42.8392 158.194 42.7569 158.179 42.6091 158.144C42.4611 158.112 42.2504 158.048 41.9952 157.955C41.4848 157.772 40.8018 157.442 40.1324 156.949C39.4642 156.453 38.9482 155.897 38.6231 155.463C38.4598 155.246 38.3374 155.064 38.2622 154.932C38.1856 154.801 38.147 154.727 38.1548 154.722C38.1738 154.71 38.3541 154.992 38.6955 155.406C39.0356 155.821 39.5528 156.357 40.21 156.844C40.8687 157.329 41.5329 157.666 42.029 157.869C42.5252 158.074 42.8475 158.164 42.8415 158.186Z" fill="white"/>
<path d="M82.7386 160.764C82.7396 160.766 82.7083 160.782 82.6462 160.813C82.5783 160.845 82.4864 160.889 82.3689 160.944C82.1175 161.06 81.7576 161.226 81.297 161.439C81.0631 161.546 80.8039 161.664 80.5206 161.794C80.2333 161.915 79.9135 162.028 79.5739 162.159C78.8904 162.411 78.1255 162.737 77.2412 162.984C76.8026 163.119 76.3433 163.26 75.8649 163.408C75.3853 163.551 74.8739 163.654 74.351 163.786C74.0887 163.849 73.822 163.914 73.551 163.979C73.4153 164.01 73.2795 164.047 73.1408 164.074C73.0015 164.099 72.861 164.124 72.7195 164.149C72.1535 164.249 71.5712 164.352 70.9739 164.458C68.5735 164.804 65.9062 165.007 63.1054 164.928C60.3046 164.819 57.6561 164.44 55.284 163.934C54.6952 163.789 54.1209 163.647 53.5627 163.51C53.4232 163.475 53.2847 163.441 53.1474 163.407C53.0107 163.371 52.8777 163.325 52.7444 163.284C52.4785 163.201 52.2165 163.12 51.959 163.039C51.4461 162.873 50.9427 162.736 50.4736 162.56C50.006 162.382 49.5572 162.21 49.1287 162.046C48.2628 161.741 47.5215 161.364 46.8563 161.068C46.5262 160.914 46.2146 160.78 45.9361 160.639C45.6622 160.491 45.4114 160.356 45.1853 160.234C44.74 159.991 44.3919 159.801 44.1489 159.669C44.0355 159.605 43.9468 159.556 43.8812 159.519C43.8213 159.485 43.791 159.466 43.7923 159.464C43.7933 159.462 43.8258 159.477 43.8879 159.507C43.9551 159.541 44.046 159.587 44.1619 159.646C44.4074 159.773 44.759 159.955 45.2091 160.189C45.4365 160.308 45.6884 160.439 45.9639 160.584C46.2437 160.72 46.5563 160.851 46.8871 161.001C47.5541 161.291 48.2964 161.661 49.1625 161.96C49.591 162.121 50.0398 162.29 50.5072 162.465C50.9757 162.638 51.4789 162.772 51.9911 162.936C52.2483 163.015 52.5098 163.095 52.7752 163.177C52.9085 163.217 53.0412 163.262 53.1777 163.298C53.315 163.332 53.4532 163.365 53.5925 163.399C54.1495 163.534 54.7225 163.674 55.3103 163.817C57.6774 164.315 60.3181 164.69 63.1102 164.798C65.9025 164.876 68.5618 164.678 70.9563 164.339C71.5522 164.236 72.1332 164.135 72.698 164.037C72.8392 164.012 72.9792 163.988 73.1185 163.964C73.257 163.937 73.3925 163.901 73.528 163.87C73.7985 163.806 74.0647 163.744 74.3264 163.682C74.8484 163.552 75.3593 163.452 75.8384 163.311C76.3165 163.167 76.7756 163.029 77.2139 162.897C78.098 162.656 78.8634 162.336 79.5481 162.092C79.8882 161.964 80.209 161.855 80.4973 161.737C80.7818 161.611 81.042 161.496 81.277 161.393C81.7416 161.19 82.1047 161.031 82.3582 160.921C82.4779 160.87 82.5716 160.831 82.6409 160.801C82.7043 160.774 82.7376 160.762 82.7386 160.764Z" fill="white"/>
<path d="M90.9571 153.7C90.9631 153.706 90.8854 153.789 90.7397 153.933C90.5944 154.077 90.3783 154.279 90.107 154.525C89.5646 155.016 88.7937 155.672 87.9066 156.351C87.0187 157.029 86.1842 157.602 85.5681 157.997C85.2603 158.195 85.0081 158.35 84.831 158.453C84.6542 158.556 84.5543 158.609 84.5495 158.601C84.5447 158.594 84.6354 158.526 84.8037 158.41C84.994 158.279 85.2327 158.115 85.517 157.92C86.1186 157.506 86.9421 156.923 87.8274 156.247C88.7118 155.57 89.4897 154.928 90.0464 154.455C90.3091 154.232 90.5298 154.044 90.7056 153.895C90.8616 153.763 90.9511 153.693 90.9571 153.7Z" fill="white"/>
<path d="M61.4602 181.447C61.4605 181.452 61.3973 181.458 61.2771 181.467C61.1439 181.476 60.9691 181.487 60.7507 181.5C60.522 181.515 60.242 181.526 59.9167 181.532C59.5913 181.541 59.2209 181.55 58.8112 181.546C57.9917 181.552 57.0164 181.516 55.9347 181.459C54.8535 181.39 53.6666 181.286 52.4254 181.135C51.1846 180.978 50.008 180.788 48.9426 180.591C47.8794 180.382 46.9247 180.179 46.1318 179.972C45.7336 179.876 45.3764 179.777 45.0631 179.689C44.749 179.603 44.48 179.525 44.2621 179.454C44.0538 179.388 43.8867 179.334 43.7597 179.294C43.6453 179.256 43.5859 179.234 43.5872 179.229C43.5884 179.225 43.6505 179.239 43.7673 179.269C43.896 179.303 44.065 179.349 44.2762 179.406C44.4961 179.469 44.7666 179.54 45.0819 179.618C45.3964 179.7 45.7543 179.793 46.1533 179.883C46.9475 180.077 47.9025 180.27 48.9644 180.473C50.0288 180.663 51.2029 180.849 52.4412 181.005C53.6797 181.156 54.8635 181.263 55.942 181.339C57.0209 181.402 57.9939 181.448 58.8117 181.454C59.2204 181.464 59.5903 181.461 59.9154 181.459C60.2405 181.46 60.5203 181.457 60.7489 181.45C60.9676 181.446 61.1426 181.443 61.2759 181.441C61.3963 181.441 61.46 181.443 61.4602 181.447Z" fill="white"/>
<path d="M58.2919 184.265C58.2919 184.269 58.2381 184.274 58.1356 184.279C58.0192 184.283 57.8702 184.288 57.6863 184.295C57.4912 184.303 57.2523 184.305 56.975 184.3C56.6978 184.297 56.3817 184.296 56.0331 184.279C55.3348 184.258 54.5056 184.195 53.5864 184.108C52.6683 184.014 51.6609 183.886 50.6085 183.723C48.5032 183.391 46.6151 182.997 45.2529 182.696C44.5716 182.546 44.0219 182.418 43.6425 182.326C43.4641 182.282 43.3196 182.246 43.2067 182.218C43.1072 182.191 43.0557 182.176 43.0567 182.171C43.0577 182.167 43.1113 182.174 43.2124 182.192C43.3269 182.214 43.4732 182.242 43.6535 182.277C44.052 182.358 44.6009 182.469 45.2719 182.606C46.6384 182.884 48.5273 183.263 50.6286 183.594C51.6792 183.756 52.6833 183.887 53.5987 183.989C54.5149 184.081 55.3413 184.155 56.0374 184.186C56.385 184.209 56.7 184.217 56.9765 184.226C57.253 184.238 57.4915 184.243 57.6863 184.243C57.8699 184.247 58.0187 184.25 58.1354 184.252C58.2378 184.256 58.2917 184.26 58.2919 184.265Z" fill="white"/>
<path d="M84.0281 178.702C84.0286 178.704 84.01 178.711 83.9735 178.721C83.9291 178.732 83.8755 178.745 83.8104 178.762C83.6554 178.799 83.4453 178.848 83.1803 178.909C82.6328 179.037 81.8366 179.204 80.8501 179.395C78.877 179.778 76.1333 180.224 73.0818 180.541C70.0288 180.855 67.2518 180.98 65.2419 181.009C64.2371 181.024 63.4236 181.023 62.8618 181.011C62.5898 181.004 62.3739 180.999 62.2149 180.995C62.1475 180.992 62.0924 180.99 62.0469 180.988C62.009 180.986 61.9895 180.983 61.9895 180.981C61.9895 180.979 62.009 180.976 62.0469 180.974C62.0927 180.973 62.1478 180.971 62.2152 180.969C62.3742 180.966 62.5901 180.963 62.8621 180.959C63.4236 180.956 64.2363 180.943 65.2401 180.916C67.2475 180.864 70.0198 180.724 73.0685 180.41C76.1158 180.094 78.8577 179.663 80.8335 179.304C81.8216 179.125 82.6198 178.971 83.1703 178.859C83.4372 178.808 83.6491 178.766 83.8054 178.736C83.8718 178.725 83.9261 178.715 83.9712 178.707C84.008 178.702 84.0276 178.7 84.0281 178.702Z" fill="white"/>
<path d="M84.0281 182.171C84.0286 182.173 84.0073 182.179 83.9658 182.188C83.9164 182.199 83.8556 182.211 83.7804 182.227C83.6069 182.261 83.3679 182.306 83.0654 182.364C82.4438 182.479 81.5429 182.64 80.4264 182.818C79.3108 183.002 77.9779 183.194 76.4955 183.389C75.0118 183.573 73.3771 183.752 71.6565 183.885C69.9347 184.011 68.2904 184.076 66.7945 184.089C65.2985 184.08 63.9506 184.048 62.8233 183.944C62.5413 183.921 62.2726 183.904 62.0191 183.878C61.7664 183.847 61.528 183.819 61.3043 183.792C61.0819 183.765 60.8743 183.74 60.6827 183.717C60.4921 183.69 60.3193 183.657 60.163 183.632C59.8595 183.579 59.6198 183.537 59.4457 183.506C59.3703 183.492 59.3092 183.48 59.2599 183.471C59.2181 183.462 59.197 183.456 59.1973 183.454C59.1978 183.452 59.2196 183.453 59.2621 183.457C59.312 183.464 59.3738 183.471 59.4502 183.481C59.625 183.505 59.8657 183.539 60.1705 183.582C60.3271 183.603 60.5001 183.633 60.6907 183.655C60.8826 183.675 61.0899 183.697 61.3126 183.72C61.536 183.744 61.7744 183.769 62.0269 183.795C62.2801 183.819 62.5486 183.832 62.8301 183.853C63.9556 183.944 65.301 183.967 66.7937 183.969C68.2869 183.949 69.9276 183.881 71.6468 183.755C73.3649 183.622 74.9978 183.447 76.4807 183.27C77.9624 183.081 79.2956 182.9 80.4123 182.727C81.5299 182.561 82.4327 182.414 83.0569 182.314C83.3612 182.267 83.6013 182.229 83.7762 182.202C83.8523 182.191 83.9139 182.183 83.9637 182.176C84.0058 182.17 84.0279 182.169 84.0281 182.171Z" fill="white"/>
<path d="M76.2855 168.941C76.287 168.942 76.267 168.961 76.2264 168.997C76.1801 169.036 76.1202 169.088 76.0448 169.152C75.8768 169.292 75.6404 169.49 75.3391 169.741C74.7179 170.255 73.8308 170.99 72.7374 171.896C70.5429 173.719 67.5267 176.255 64.2372 179.105C60.9476 181.958 58.0083 184.584 55.8924 186.497C54.8405 187.451 53.987 188.225 53.3897 188.766C53.0984 189.029 52.8697 189.235 52.7074 189.381C52.6328 189.447 52.5734 189.499 52.5279 189.539C52.4868 189.574 52.4652 189.591 52.4635 189.589C52.4617 189.588 52.4808 189.567 52.5186 189.529C52.5622 189.487 52.6185 189.432 52.6894 189.362C52.8479 189.211 53.0708 188.999 53.3551 188.729C53.9346 188.181 54.7799 187.394 55.8303 186.429C57.9306 184.498 60.8612 181.86 64.1519 179.007C67.442 176.156 70.4688 173.63 72.6787 171.825C73.7835 170.922 74.6821 170.197 75.3072 169.701C75.6153 169.458 75.857 169.267 76.0285 169.132C76.1074 169.072 76.1698 169.023 76.2181 168.986C76.2615 168.954 76.2843 168.939 76.2855 168.941Z" fill="#263238"/>
<g opacity="0.3">
<path d="M63.9021 179.388L55.2808 186.993C62.7057 183.628 69.0479 178.508 73.1728 171.478L63.9021 179.388Z" fill="black"/>
</g>
<g opacity="0.3">
<path d="M84.0281 174.014C85.8922 170.235 85.9343 162.826 84.0524 158.741C84.1646 163.335 84.1543 169.431 84.0281 174.014Z" fill="black"/>
</g>
<path d="M84.028 155.084C84.0641 155.084 84.0931 164.218 84.0931 175.483C84.0931 186.752 84.0638 195.884 84.028 195.884C83.9919 195.884 83.9629 186.752 83.9629 175.483C83.9629 164.218 83.9919 155.084 84.028 155.084Z" fill="#263238"/>
<path d="M80.9657 123.477C81.5823 122.123 82.2097 120.728 82.2981 119.237C82.3867 117.745 81.8115 116.114 80.5379 115.408C79.361 114.755 77.8909 115.016 76.6369 114.538C75.0901 113.948 74.1406 112.353 73.4834 110.793C72.8262 109.233 73.8007 108.691 72.6582 107.466C71.1422 105.84 70.1379 105.588 68.1513 106.516C66.7603 105.483 61.8915 103.558 60.4759 103.483C58.3764 103.371 55.9813 103.485 54.4808 104.957C53.3165 106.1 52.5609 107.569 51.1448 108.379C49.1973 109.494 46.7702 108.454 44.5266 108.486C44.069 108.492 43.5338 108.597 43.336 109.01C43.1647 109.366 43.3282 109.786 43.491 110.146C44.0412 111.365 44.5912 112.583 45.1415 113.801C44.1918 114.216 43.0502 114.162 42.1433 113.661C42.1904 116.023 43.0995 118.36 44.6619 120.133C44.2704 119.842 43.6651 120.119 43.4572 120.56C43.2491 121.001 43.3285 121.52 43.4449 121.993C44.1605 124.898 46.1821 127.454 48.8439 128.82C51.5055 130.185 54.7611 130.336 57.5376 129.223L69.8724 130.431C70.1925 131.403 70.9992 132.187 71.9582 132.458C73.3652 131.465 73.5991 130.895 73.5991 130.895C74.4364 131.548 73.7747 131.214 74.4364 131.548C75.9519 132.313 78.2373 131.497 78.6207 129.798C78.7812 129.088 78.9951 128.408 79.4848 127.933C79.9859 127.447 80.6882 127.272 81.3121 126.975C82.2953 126.507 83.1228 125.697 83.6272 124.708C82.6272 124.695 81.6401 124.238 80.9657 123.477Z" fill="#263238"/>
<path d="M62.1579 105.483L61.5371 105.515C55.291 105.83 50.3263 110.885 50.1382 117.137C49.9629 122.957 49.844 129.393 50.0393 132.501C50.4435 138.934 56.9318 139.611 56.9318 139.611C56.9355 139.678 56.9105 140.643 56.8754 141.963C56.7622 146.211 60.1749 149.718 64.4243 149.718C68.5505 149.718 71.9126 146.406 71.9749 142.28L72.3421 117.983C72.581 111.271 68.8743 105.537 62.1579 105.483Z" fill="#FFBE9D"/>
<path d="M56.9315 139.61C56.9315 139.61 61.0006 139.644 65.1872 136.71C65.1872 136.71 63.3799 141.514 56.928 141.259L56.9315 139.61Z" fill="#EB996E"/>
<path d="M61.0554 120.014C61.1802 120.147 61.9348 119.567 63.0112 119.562C64.0864 119.541 64.8788 120.103 64.9948 119.967C65.0519 119.907 64.9244 119.667 64.5793 119.413C64.2394 119.159 63.6606 118.915 62.9904 118.923C62.32 118.932 61.7575 119.188 61.4346 119.45C61.105 119.712 60.9941 119.955 61.0554 120.014Z" fill="#263238"/>
<path d="M62.0162 122.02C62.0232 122.48 62.4184 122.853 62.899 122.855C63.3784 122.857 63.7626 122.486 63.7556 122.026C63.7488 121.566 63.3534 121.192 62.8737 121.19C62.3934 121.189 62.0094 121.56 62.0162 122.02Z" fill="#263238"/>
<path d="M58.1924 127.436C58.1944 127.38 57.574 127.304 56.5712 127.227C56.3173 127.214 56.0758 127.176 56.0245 127.006C55.9556 126.826 56.0478 126.549 56.1552 126.249C56.3621 125.625 56.578 124.972 56.8052 124.288C57.7043 121.497 58.3417 119.207 58.229 119.172C58.116 119.137 57.296 121.371 56.3967 124.161C56.181 124.849 55.9747 125.505 55.7785 126.132C55.6977 126.424 55.5496 126.758 55.6977 127.13C55.775 127.315 55.9674 127.443 56.1314 127.478C56.296 127.519 56.4382 127.515 56.5635 127.516C57.5695 127.519 58.1917 127.493 58.1924 127.436Z" fill="#263238"/>
<path d="M61.3041 115.79C61.4025 116.031 62.2678 115.87 63.2977 115.946C64.329 116.001 65.1703 116.269 65.2948 116.042C65.3501 115.934 65.1946 115.71 64.849 115.49C64.5061 115.27 63.9669 115.071 63.3488 115.031C62.7309 114.993 62.1734 115.122 61.8085 115.297C61.4406 115.473 61.2612 115.675 61.3041 115.79Z" fill="#263238"/>
<path d="M51.3432 117.743C51.4516 117.94 52.2959 117.743 53.3137 117.735C54.3321 117.708 55.1728 117.876 55.285 117.675C55.3344 117.579 55.1706 117.401 54.8194 117.238C54.4716 117.076 53.9308 116.946 53.3205 116.956C52.7101 116.967 52.1674 117.116 51.8165 117.29C51.4624 117.465 51.2956 117.649 51.3432 117.743Z" fill="#263238"/>
<path d="M72.0566 122.776C72.1641 122.723 76.4133 121.245 76.4947 125.653C76.5761 130.06 72.1343 129.233 72.1243 129.106C72.1142 128.98 72.0566 122.776 72.0566 122.776Z" fill="#FFBE9D"/>
<path d="M73.4396 127.412C73.4589 127.397 73.5175 127.464 73.6483 127.521C73.776 127.577 73.9944 127.613 74.2225 127.522C74.6849 127.343 75.0633 126.596 75.0701 125.802C75.0738 125.4 74.9827 125.02 74.8349 124.706C74.6941 124.386 74.4818 124.165 74.2463 124.128C74.0122 124.078 73.8486 124.221 73.797 124.346C73.7402 124.47 73.77 124.558 73.7467 124.566C73.7347 124.577 73.6508 124.494 73.6831 124.311C73.6996 124.223 73.7494 124.118 73.8514 124.032C73.9556 123.944 74.1103 123.897 74.2739 123.912C74.6142 123.929 74.9258 124.236 75.0886 124.58C75.2699 124.926 75.3819 125.353 75.3776 125.804C75.3659 126.693 74.9263 127.532 74.2927 127.728C73.9841 127.815 73.7239 127.726 73.5884 127.624C73.4496 127.518 73.4246 127.42 73.4396 127.412Z" fill="#EB996E"/>
<path d="M78.0722 115.778C77.1896 114.204 77.0173 112.347 76.5549 110.602C76.0926 108.858 75.1674 107.041 73.4819 106.397L73.4433 106.413C71.9314 105.765 70.0507 105.714 68.7741 106.745C68.5152 104.449 66.5499 102.592 64.3289 101.956C62.1084 101.319 58.5174 101.588 56.3555 102.402C54.6842 103.032 53.0523 104.362 51.0609 106.324C50.2219 107.151 49.4457 108.044 48.7527 108.997L46.6752 114.952C46.4621 115.1 46.2748 115.283 46.1167 115.488C45.3205 116.524 46.7341 117.878 47.7331 117.036C47.7392 117.031 47.7449 117.026 47.7509 117.021C47.9433 117.365 48.0858 117.713 48.2363 118.06L48.2361 118.068L48.2686 118.134C48.3633 118.35 48.4615 118.567 48.5814 118.781L48.5829 118.767L49.9344 125.429C50.0699 123.624 50.0799 117.333 50.2154 115.527C53.0077 115.47 55.5568 114.401 57.4747 112.37C58.4866 111.299 59.2938 109.946 60.6289 109.323C62.3505 108.518 64.3662 109.177 66.1467 109.841L66.072 109.771C66.9962 110.223 67.8319 110.856 68.5187 111.622C68.0348 115.171 68.3238 118.825 69.3652 122.253C69.5222 122.769 69.9575 123.836 70.4567 124.041C71.4372 124.446 71.726 123.445 72.3331 122.923C72.7799 122.54 73.4311 122.503 74.1416 122.521C74.5836 121.433 75.0555 119.591 75.4532 117.979C76.0463 118.174 76.6814 118.237 77.2988 118.144C77.1195 117.686 76.9401 117.228 76.7608 116.77C77.0038 116.931 77.2562 117.097 77.5437 117.146C77.8315 117.194 78.1659 117.094 78.3014 116.836C78.4759 116.502 78.2568 116.107 78.0722 115.778Z" fill="#263238"/>
<path d="M66.7365 107.437C66.7235 107.453 67.0018 107.612 67.3674 108.04C67.7296 108.466 68.1303 109.202 68.3051 110.195C68.395 110.688 68.4461 111.239 68.4326 111.831C68.4218 112.422 68.3602 113.054 68.2998 113.721C68.2415 114.387 68.1779 115.091 68.2042 115.826C68.2175 116.193 68.253 116.566 68.3239 116.94C68.3965 117.308 68.4837 117.708 68.7529 118.028C68.9671 118.289 69.3325 118.412 69.6525 118.353C69.9746 118.304 70.2641 118.139 70.4785 117.911C70.9028 117.438 71.0195 116.828 71.1342 116.292L70.999 116.305C71.2084 116.794 71.4235 117.278 71.7501 117.668C72.0709 118.06 72.5212 118.325 72.9843 118.377C73.2147 118.403 73.4484 118.371 73.649 118.275C73.8534 118.181 74.0044 118.017 74.1088 117.842C74.209 117.664 74.2636 117.467 74.2579 117.276C74.2513 117.085 74.181 116.903 74.0628 116.772L73.9934 116.831C74.476 117.406 74.9919 117.721 75.3498 117.897C75.5304 117.985 75.6754 118.039 75.7736 118.073C75.8725 118.105 75.9246 118.118 75.9259 118.114C75.9274 118.11 75.8778 118.088 75.7824 118.049C75.6877 118.008 75.5469 117.947 75.3721 117.853C75.0252 117.666 74.5261 117.343 74.064 116.773L73.9946 116.832C74.2055 117.066 74.209 117.469 74.0157 117.788C73.9185 117.945 73.78 118.091 73.6002 118.171C73.4211 118.253 73.2085 118.281 72.9978 118.255C72.5728 118.203 72.1528 117.955 71.8528 117.582C71.545 117.21 71.3366 116.739 71.13 116.248L71.0423 116.04L70.9947 116.262C70.8798 116.798 70.757 117.382 70.3703 117.809C70.1785 118.013 69.9133 118.162 69.631 118.204C69.3485 118.252 69.0535 118.153 68.8664 117.929C68.6312 117.651 68.541 117.273 68.4707 116.911C68.401 116.546 68.3652 116.18 68.3512 115.819C68.3231 115.097 68.3833 114.398 68.4376 113.732C68.494 113.065 68.5516 112.43 68.5571 111.831C68.5653 111.232 68.5075 110.674 68.4093 110.173C68.2185 109.167 67.7939 108.422 67.4115 108.001C67.0255 107.579 66.7365 107.437 66.7365 107.437Z" fill="#455A64"/>
<path d="M46.7276 113.239C46.7261 113.241 46.7432 113.256 46.7782 113.284C46.821 113.316 46.8726 113.356 46.936 113.404C47.0049 113.458 47.0928 113.522 47.204 113.585C47.3134 113.651 47.4382 113.731 47.5902 113.799C48.1803 114.096 49.1305 114.399 50.3281 114.356C51.5143 114.316 52.9456 113.928 54.2364 113.012C55.5403 112.118 56.6969 110.784 57.6526 109.249C58.1372 108.481 58.536 107.693 58.9722 106.966C59.4058 106.239 59.8814 105.568 60.4514 105.043C61.0147 104.515 61.6636 104.13 62.3273 103.962C62.6581 103.871 62.99 103.857 63.3058 103.871C63.6221 103.895 63.9209 103.966 64.1954 104.063C64.7449 104.261 65.1845 104.577 65.5163 104.899C65.8492 105.224 66.0698 105.565 66.2198 105.856C66.4986 106.453 66.5064 106.832 66.5296 106.826C66.5321 106.826 66.5309 106.803 66.5259 106.759C66.5189 106.705 66.5104 106.64 66.4998 106.561C66.4725 106.388 66.4039 106.138 66.2724 105.83C66.1279 105.53 65.91 105.178 65.5754 104.839C65.2416 104.504 64.7958 104.174 64.232 103.963C63.9502 103.86 63.6424 103.783 63.3143 103.755C62.9875 103.737 62.6394 103.75 62.2967 103.841C61.6075 104.01 60.9363 104.404 60.3572 104.941C59.7712 105.476 59.2843 106.158 58.846 106.89C58.4045 107.622 58.0055 108.409 57.5254 109.169C56.5767 110.693 55.4369 112.012 54.1575 112.898C52.8903 113.806 51.4925 114.196 50.3236 114.249C49.1457 114.306 48.2066 114.024 47.6155 113.746C47.0199 113.465 46.7397 113.221 46.7276 113.239Z" fill="#455A64"/>
<path d="M46.2066 110.403C46.2011 110.412 46.2817 110.47 46.4332 110.569C46.583 110.67 46.8134 110.796 47.1074 110.93C47.4007 111.068 47.7654 111.198 48.1794 111.309C48.5951 111.413 49.0615 111.494 49.5561 111.524C50.0513 111.548 50.5236 111.518 50.9484 111.46C51.3721 111.395 51.7486 111.305 52.0551 111.2C52.3619 111.098 52.6049 110.999 52.7647 110.914C52.9259 110.833 53.0126 110.784 53.0081 110.774C52.9963 110.749 52.6374 110.923 52.0243 111.099C51.7185 111.189 51.3463 111.266 50.9298 111.323C50.5121 111.372 50.0495 111.397 49.5644 111.373C49.0798 111.344 48.6227 111.27 48.2129 111.175C47.8052 111.073 47.4435 110.956 47.1495 110.833C46.5589 110.592 46.2211 110.379 46.2066 110.403Z" fill="#455A64"/>
<path d="M51.2397 120.199C51.3644 120.332 52.119 119.752 53.1957 119.747C54.2707 119.726 55.0633 120.288 55.1793 120.152C55.2364 120.091 55.1089 119.851 54.7638 119.597C54.4239 119.344 53.8451 119.1 53.1747 119.108C52.5042 119.116 51.9417 119.373 51.6189 119.634C51.2893 119.897 51.1786 120.14 51.2397 120.199Z" fill="#263238"/>
<path d="M52.7599 122.189C52.7669 122.649 53.1621 123.022 53.6427 123.024C54.1221 123.026 54.506 122.655 54.4993 122.195C54.4925 121.735 54.097 121.361 53.6174 121.359C53.1368 121.358 52.7528 121.729 52.7599 122.189Z" fill="#263238"/>
<path d="M57.4724 129.558C57.9916 129.372 59.5214 129.138 60.0693 129.078L60.71 128.92C61 129.317 60.9965 130.382 60.7293 130.799C60.453 131.229 59.9574 131.488 59.4507 131.557C59.0896 131.607 58.6926 131.558 58.4169 131.32C58.4169 131.32 57.6244 130.944 57.4724 129.558Z" fill="#EB996E"/>
<path d="M59.0721 131.51C59.0651 131.469 59.5003 131.55 60.0258 131.201C60.2813 131.029 60.5345 130.745 60.678 130.363C60.8227 129.984 60.8711 129.517 60.7574 129.062C60.7511 129.038 60.7448 129.014 60.7391 128.992L60.8528 129.064C59.8983 129.212 59.036 129.334 58.4114 129.412C57.7867 129.49 57.3998 129.524 57.3955 129.497C57.3913 129.469 57.7705 129.385 58.3896 129.27C59.0085 129.155 59.8673 129.011 60.8215 128.862L60.9126 128.848L60.9352 128.934C60.9417 128.959 60.9485 128.986 60.9555 129.012C61.0807 129.514 61.0211 130.022 60.8528 130.433C60.6857 130.848 60.3915 131.154 60.1034 131.323C59.8139 131.496 59.5387 131.548 59.3548 131.55C59.169 131.553 59.0703 131.521 59.0721 131.51Z" fill="#263238"/>
<path d="M59.3325 131.582C59.194 131.582 59.0746 131.561 59.0495 131.533L59.04 131.522L59.0408 131.512L59.0388 131.502L59.0483 131.487C59.0625 131.468 59.0868 131.466 59.1515 131.462C59.2945 131.451 59.6296 131.426 60.0083 131.175C60.1736 131.064 60.4766 130.809 60.6484 130.352C60.7987 129.959 60.83 129.521 60.7371 129.114C59.8585 129.249 59.038 129.365 58.4151 129.443C57.3755 129.573 57.3705 129.542 57.3642 129.501C57.358 129.462 57.3532 129.43 58.3833 129.239C59.0292 129.12 59.8933 128.975 60.8162 128.831L60.9354 128.812L60.9858 129.005C61.1042 129.48 61.0674 129.992 60.8816 130.444C60.7283 130.825 60.4503 131.155 60.1192 131.35C59.7891 131.547 59.4986 131.579 59.3548 131.582C59.3476 131.582 59.34 131.582 59.3325 131.582ZM59.2474 131.516C59.2784 131.518 59.3137 131.519 59.3543 131.519C59.4918 131.517 59.7698 131.486 60.0876 131.296C60.4072 131.108 60.6757 130.789 60.824 130.42C61.0046 129.98 61.0406 129.482 60.9254 129.02L60.8896 128.883L60.8262 128.893C59.9038 129.036 59.0405 129.181 58.3951 129.301C57.9365 129.386 57.6926 129.438 57.5628 129.47C57.6961 129.462 57.9445 129.438 58.4074 129.38C59.0282 129.303 59.8462 129.187 60.7223 129.052L60.6887 128.922L60.9397 129.082L60.8573 129.095C60.8378 129.098 60.8185 129.101 60.7992 129.104C60.8934 129.522 60.861 129.971 60.707 130.374C60.5753 130.725 60.3394 131.028 60.0433 131.227C59.717 131.444 59.4224 131.498 59.2474 131.516Z" fill="#263238"/>
<path d="M37.0653 146.615L38.1593 170.154L40.0835 172.224L42.5332 175.198C42.5332 175.198 40.0835 185.085 36.4963 185.96C32.9091 186.835 29.0238 185.51 27.8862 182.36C26.7489 179.211 27.329 173.7 27.6791 170.169C28.029 166.637 29.6892 147.345 29.6892 147.345L33.8715 145.626L37.0653 146.615Z" fill="#FFBE9D"/>
<path d="M37.0344 146.873C37.0344 146.873 37.3187 144.813 37.0344 143.462C36.7501 142.113 34.9028 139.27 34.9028 139.27C34.9028 139.27 35.1871 136.57 34.9028 136.144C34.6185 135.717 33.9791 134.154 32.7712 135.717C32.7712 135.717 31.9184 133.87 31.3501 133.728C30.7819 133.586 30.4976 133.728 30.4976 133.728L31.9898 131.738C31.9898 131.738 32.0747 131.342 31.9946 130.925C31.9187 130.529 31.5665 130.246 31.1636 130.246C30.9164 130.246 30.6817 130.354 30.5206 130.542L26.8736 134.794C26.8736 134.794 24.5997 138.915 24.6708 139.413C24.742 139.91 26.0208 141.544 26.0208 141.544C26.0208 141.544 29.2892 146.021 29.5734 146.873C29.8577 147.726 29.7154 148.721 29.7154 148.721L37.0344 146.873Z" fill="#FFBE9D"/>
<path d="M27.9229 138.483C27.9064 138.48 27.9494 138.17 28.0484 137.672C28.1505 137.178 28.3078 136.487 28.6352 135.777C28.9628 135.067 29.4304 134.51 29.8366 134.198C30.0385 134.04 30.2175 133.934 30.3465 133.873C30.4752 133.811 30.5506 133.787 30.5539 133.794C30.5654 133.816 30.2741 133.941 29.8952 134.269C29.5145 134.591 29.0735 135.138 28.7534 135.832C28.4331 136.526 28.2627 137.205 28.1383 137.693C28.0168 138.183 27.9417 138.487 27.9229 138.483Z" fill="#EB996E"/>
<path d="M31.1391 138.621C31.1234 138.618 31.1447 138.435 31.2223 138.149C31.2997 137.863 31.4407 137.476 31.6541 137.075C31.8682 136.675 32.1119 136.343 32.3065 136.119C32.5011 135.896 32.6411 135.777 32.6529 135.788C32.6834 135.815 32.1855 136.35 31.769 137.137C31.3463 137.92 31.1787 138.632 31.1391 138.621Z" fill="#EB996E"/>
<path d="M34.7947 139.15C34.7628 139.167 34.7248 139.157 34.7097 139.129C34.6947 139.1 34.7082 139.063 34.7401 139.046C34.7719 139.03 34.8099 139.039 34.825 139.068C34.8402 139.096 34.8265 139.133 34.7947 139.15Z" fill="#EB996E"/>
<path d="M34.7558 140.298C34.72 140.293 34.7425 139.865 34.8061 139.341C34.8352 139.101 34.868 138.882 34.898 138.719L34.986 138.754C34.8565 138.909 34.7678 138.999 34.7523 138.987C34.7365 138.976 34.7971 138.865 34.9073 138.696L35.0065 138.544L34.9952 138.731C34.9852 138.897 34.9647 139.117 34.9356 139.357C34.872 139.881 34.7916 140.302 34.7558 140.298Z" fill="#EB996E"/>
<path d="M37.3926 154.347C37.3949 154.346 37.3986 154.366 37.4039 154.406C37.4092 154.453 37.4159 154.511 37.4237 154.581C37.4392 154.746 37.4602 154.972 37.487 155.256C37.5319 155.843 37.5887 156.693 37.6463 157.744C37.7623 159.845 37.8888 162.749 38.0085 165.957C38.1285 169.167 38.2201 172.072 38.2785 174.176C38.304 175.219 38.3248 176.067 38.3393 176.667C38.3433 176.953 38.3463 177.179 38.3489 177.344C38.3486 177.415 38.3481 177.473 38.3479 177.521C38.3468 177.561 38.3453 177.581 38.3431 177.581C38.3408 177.581 38.3381 177.561 38.3346 177.521C38.3313 177.474 38.3273 177.416 38.3226 177.345C38.3143 177.18 38.303 176.954 38.2887 176.668C38.2642 176.069 38.2294 175.221 38.1866 174.179C38.1074 172.066 37.9985 169.166 37.8785 165.962C37.7523 162.76 37.6378 159.86 37.5544 157.748C37.5051 156.706 37.465 155.859 37.4367 155.259C37.4204 154.974 37.4074 154.749 37.3979 154.583C37.3951 154.512 37.3926 154.454 37.3909 154.407C37.3899 154.367 37.3904 154.347 37.3926 154.347Z" fill="#EB996E"/>
<path d="M106.557 153.103C106.557 153.103 100.948 174.648 100.009 177.141C98.1528 182.072 96.8858 184.417 94.7853 185.648C92.4889 186.993 88.3824 186.227 87.4129 184.031C86.5256 182.022 84.1731 173.654 84.1731 173.654L91.3766 171.057L99.9694 153.052L106.557 153.103Z" fill="#FFBE9D"/>
<path d="M119.382 142.983C119.734 143.238 112.165 149.863 112.165 149.863L106.557 153.102L104.709 159.984L98.8496 156.366C98.8496 156.366 100.971 149.503 101.957 149.031C103.676 148.206 104.007 145.443 104.622 145.545C105.237 145.648 105.505 145.637 105.3 146.662C105.095 147.687 105.013 148.14 105.013 148.14L111.489 146.263C111.489 146.263 115.077 142.778 116.204 142.983C116.855 143.101 116.932 143.188 116.932 143.188C116.932 143.188 118.021 141.998 119.382 142.983Z" fill="#FFBE9D"/>
<path d="M111.489 146.263C111.492 146.272 111.383 146.313 111.184 146.381C110.96 146.454 110.677 146.547 110.34 146.657C109.598 146.888 108.622 147.194 107.543 147.531C106.462 147.866 105.485 148.168 104.743 148.398C104.405 148.504 104.121 148.592 103.896 148.662C103.696 148.726 103.584 148.756 103.581 148.748C103.578 148.74 103.684 148.692 103.879 148.615C104.075 148.538 104.36 148.433 104.715 148.311C105.424 148.065 106.41 147.745 107.504 147.406C108.598 147.068 109.591 146.774 110.313 146.569C110.674 146.466 110.966 146.385 111.17 146.332C111.373 146.28 111.487 146.255 111.489 146.263Z" fill="#EB996E"/>
<path d="M112.592 148.078C112.586 148.072 112.644 147.998 112.757 147.87C112.869 147.742 113.034 147.56 113.24 147.337C113.652 146.891 114.228 146.281 114.87 145.613C115.504 144.96 116.076 144.37 116.521 143.912C116.719 143.688 116.829 143.468 116.846 143.305C116.867 143.141 116.819 143.052 116.833 143.048C116.838 143.046 116.849 143.067 116.867 143.109C116.882 143.152 116.901 143.22 116.896 143.308C116.895 143.487 116.787 143.732 116.592 143.97C116.186 144.431 115.605 145.031 114.964 145.703C114.322 146.371 113.735 146.971 113.306 147.401C113.091 147.616 112.916 147.788 112.793 147.905C112.67 148.023 112.599 148.085 112.592 148.078Z" fill="#EB996E"/>
<path d="M92.8149 168.042C92.8479 168.057 91.9067 170.272 90.7131 172.989C89.5189 175.708 88.5246 177.899 88.4916 177.885C88.4585 177.87 89.3995 175.655 90.5936 172.937C91.7873 170.219 92.7818 168.028 92.8149 168.042Z" fill="#EB996E"/>
<path d="M117.739 195.883C117.739 195.92 93.0566 195.949 62.6159 195.949C32.1646 195.949 7.48706 195.919 7.48706 195.883C7.48706 195.847 32.1646 195.818 62.6159 195.818C93.0566 195.818 117.739 195.848 117.739 195.883Z" fill="#263238"/>
<path d="M98.3327 130.244L98.2427 140.251L101.966 140.284L102.056 130.277L98.3327 130.244Z" fill="#F07C33"/>
<g opacity="0.3">
<path d="M98.3327 130.244L98.2427 140.251L101.966 140.284L102.056 130.277L98.3327 130.244Z" fill="black"/>
</g>
<path d="M97.3266 130.235L97.2366 140.242L100.96 140.276L101.05 130.269L97.3266 130.235Z" fill="#F07C33"/>
<path d="M99.9098 132.687C99.9056 133.151 99.5261 133.523 99.062 133.519C98.5979 133.515 98.2253 133.135 98.2295 132.671C98.2338 132.207 98.6132 131.835 99.0773 131.839C99.5411 131.843 99.9138 132.223 99.9098 132.687Z" fill="white"/>
<path d="M102.035 131.788C102.064 131.808 101.859 132.145 101.578 132.541C101.298 132.937 101.048 133.242 101.02 133.222C100.992 133.202 101.196 132.865 101.477 132.469C101.757 132.073 102.008 131.768 102.035 131.788Z" fill="#F07C33"/>
<path d="M102.025 132.895C102.054 132.915 101.849 133.252 101.568 133.648C101.288 134.044 101.038 134.349 101.01 134.33C100.982 134.31 101.186 133.973 101.467 133.577C101.747 133.181 101.998 132.876 102.025 132.895Z" fill="#F07C33"/>
<path d="M102.016 134.003C102.044 134.023 101.839 134.36 101.559 134.756C101.278 135.152 101.028 135.457 101 135.437C100.972 135.417 101.177 135.08 101.457 134.684C101.738 134.288 101.988 133.983 102.016 134.003Z" fill="#F07C33"/>
<path d="M102.006 135.109C102.034 135.129 101.829 135.466 101.549 135.862C101.268 136.258 101.018 136.563 100.99 136.543C100.962 136.524 101.167 136.187 101.447 135.791C101.728 135.395 101.978 135.09 102.006 135.109Z" fill="#F07C33"/>
<path d="M101.996 136.217C102.024 136.237 101.819 136.574 101.539 136.97C101.258 137.366 101.008 137.671 100.98 137.651C100.952 137.631 101.157 137.294 101.437 136.898C101.718 136.502 101.968 136.197 101.996 136.217Z" fill="#F07C33"/>
<path d="M101.986 137.323C102.014 137.343 101.809 137.68 101.529 138.076C101.248 138.472 100.998 138.777 100.97 138.757C100.942 138.737 101.147 138.4 101.427 138.004C101.708 137.608 101.958 137.303 101.986 137.323Z" fill="#F07C33"/>
<path d="M101.976 138.431C102.004 138.45 101.799 138.787 101.519 139.183C101.238 139.58 100.988 139.884 100.96 139.865C100.932 139.845 101.137 139.508 101.417 139.112C101.698 138.716 101.948 138.411 101.976 138.431Z" fill="#F07C33"/>
<path d="M102.034 130.811C102.062 130.831 101.858 131.168 101.577 131.564C101.297 131.96 101.047 132.265 101.019 132.246C100.991 132.226 101.195 131.889 101.476 131.492C101.756 131.097 102.006 130.792 102.034 130.811Z" fill="#F07C33"/>
<path d="M101.66 130.28C101.688 130.3 101.576 130.506 101.41 130.74C101.244 130.975 101.087 131.148 101.059 131.129C101.031 131.109 101.143 130.903 101.309 130.668C101.474 130.434 101.632 130.26 101.66 130.28Z" fill="#F07C33"/>
<path d="M103.853 139.522L104.135 130.681C104.135 130.681 106.107 130.316 107.886 127.656C109.062 125.896 108.651 124.015 108.882 123.24C109.022 122.766 110.142 122.872 110.633 122.933C111.098 122.991 111.864 123.257 112.181 123.996C112.767 125.366 111.9 128.623 111.9 128.623C111.9 128.623 111.528 129.285 112.459 129.293L115.779 129.323C116.21 129.327 116.632 129.472 116.956 129.756C117.241 130.005 117.48 130.382 117.431 130.934C117.32 132.196 116.65 132.756 116.648 133.022C116.645 133.288 117.007 133.756 116.734 134.519C116.461 135.281 116.296 135.213 116.292 135.578C116.289 135.944 116.214 136.874 115.976 137.438C115.738 138.001 115.47 138.264 115.47 138.264C115.47 138.264 115.599 139.483 115.22 140.157C114.724 141.041 112.526 141.611 111.626 141.189C111.205 140.991 109.232 140.502 108.304 140.261C107.375 140.019 104.755 139.098 103.853 139.522Z" fill="#F07C33"/>
<g opacity="0.3">
<path d="M103.853 139.522L104.135 130.681C104.135 130.681 106.107 130.316 107.886 127.656C109.062 125.896 108.651 124.015 108.882 123.24C109.022 122.766 110.142 122.872 110.633 122.933C111.098 122.991 111.864 123.257 112.181 123.996C112.767 125.366 111.9 128.623 111.9 128.623C111.9 128.623 111.528 129.285 112.459 129.293L115.779 129.323C116.21 129.327 116.632 129.472 116.956 129.756C117.241 130.005 117.48 130.382 117.431 130.934C117.32 132.196 116.65 132.756 116.648 133.022C116.645 133.288 117.007 133.756 116.734 134.519C116.461 135.281 116.296 135.213 116.292 135.578C116.289 135.944 116.214 136.874 115.976 137.438C115.738 138.001 115.47 138.264 115.47 138.264C115.47 138.264 115.599 139.483 115.22 140.157C114.724 141.041 112.526 141.611 111.626 141.189C111.205 140.991 109.232 140.502 108.304 140.261C107.375 140.019 104.755 139.098 103.853 139.522Z" fill="black"/>
</g>
<path d="M102.663 139.611L102.744 130.668C102.744 130.668 104.717 130.304 106.495 127.643C107.672 125.883 108.208 124.457 108.439 123.682C108.579 123.208 109.037 122.89 109.527 122.952C109.992 123.01 110.551 123.198 110.867 123.937C111.453 125.307 110.509 128.611 110.509 128.611C110.509 128.611 110.138 129.272 111.069 129.281L114.389 129.31C114.819 129.314 115.242 129.46 115.566 129.743C115.85 129.992 116.09 130.369 116.041 130.921C115.93 132.184 115.26 132.743 115.258 133.009C115.255 133.275 115.617 133.743 115.344 134.506C115.071 135.268 114.905 135.2 114.902 135.566C114.899 135.931 114.824 136.862 114.586 137.425C114.348 137.988 114.08 138.252 114.08 138.252C114.08 138.252 114.169 139.449 113.83 140.145C113.491 140.84 112.092 141.193 111.626 141.189C111.161 141.184 107.842 140.49 106.914 140.248C105.984 140.007 103.565 139.187 102.663 139.611Z" fill="#F07C33"/>
<path d="M112.225 126.841C112.251 126.863 111.925 127.27 111.467 127.719C111.01 128.169 110.597 128.487 110.575 128.461C110.552 128.435 110.926 128.077 111.38 127.63C111.835 127.184 112.199 126.817 112.225 126.841Z" fill="#F07C33"/>
<path d="M112.415 125.647C112.441 125.668 112.144 126.045 111.695 126.42C111.246 126.794 110.871 127.075 110.849 127.052C110.824 127.024 111.169 126.697 111.614 126.326C112.058 125.955 112.389 125.624 112.415 125.647Z" fill="#F07C33"/>
<path d="M112.334 124.567C112.358 124.585 112.129 124.909 111.737 125.191C111.348 125.462 111.047 125.691 111.024 125.667C110.999 125.642 111.275 125.362 111.663 125.091C112.042 124.819 112.305 124.542 112.334 124.567Z" fill="#F07C33"/>
<path d="M111.976 123.664C111.998 123.69 111.801 123.893 111.535 124.116C111.269 124.339 111.035 124.499 111.013 124.472C110.991 124.446 111.189 124.244 111.455 124.021C111.721 123.797 111.954 123.638 111.976 123.664Z" fill="#F07C33"/>
<path d="M111.307 123.128C111.324 123.158 111.2 123.271 111.03 123.382C110.859 123.492 110.705 123.559 110.685 123.531C110.665 123.503 110.789 123.389 110.962 123.277C111.135 123.165 111.289 123.099 111.307 123.128Z" fill="#F07C33"/>
<path d="M111.952 128.415C111.974 128.441 111.764 128.654 111.482 128.891C111.201 129.128 110.955 129.298 110.933 129.272C110.911 129.246 111.121 129.033 111.403 128.796C111.684 128.559 111.93 128.388 111.952 128.415Z" fill="#F07C33"/>
<path d="M117.328 131.581C117.347 131.61 116.904 131.94 116.339 132.32C115.774 132.7 115.3 132.985 115.281 132.956C115.262 132.927 115.705 132.597 116.27 132.217C116.835 131.838 117.309 131.553 117.328 131.581Z" fill="#F07C33"/>
<path d="M117.289 130.065C117.308 130.093 117.051 130.3 116.714 130.528C116.378 130.755 116.089 130.916 116.07 130.887C116.051 130.859 116.308 130.652 116.645 130.424C116.982 130.197 117.27 130.036 117.289 130.065Z" fill="#F07C33"/>
<path d="M116.8 133.747C116.817 133.778 116.472 133.992 116.058 134.27C115.642 134.548 115.312 134.785 115.29 134.757C115.268 134.732 115.567 134.448 115.988 134.167C116.409 133.885 116.785 133.717 116.8 133.747Z" fill="#F07C33"/>
<path d="M116.3 135.465C116.32 135.493 116.012 135.755 115.611 136.05C115.21 136.345 114.868 136.562 114.848 136.534C114.828 136.507 115.136 136.245 115.537 135.95C115.938 135.655 116.28 135.438 116.3 135.465Z" fill="#F07C33"/>
<path d="M115.894 137.5C115.916 137.525 115.575 137.855 115.097 138.19C114.62 138.527 114.194 138.737 114.178 138.708C114.161 138.677 114.554 138.421 115.026 138.089C115.498 137.757 115.871 137.473 115.894 137.5Z" fill="#F07C33"/>
<path d="M115.452 139.211C115.475 139.238 115.069 139.613 114.513 140.003C113.959 140.395 113.468 140.651 113.451 140.621C113.434 140.591 113.891 140.291 114.441 139.901C114.994 139.514 115.43 139.186 115.452 139.211Z" fill="#F07C33"/>
<path d="M112.815 108.014L111.533 114.444L113.926 114.921L115.207 108.491L112.815 108.014Z" fill="#263238"/>
<path d="M113.46 108.143L112.179 114.573L114.572 115.05L115.853 108.62L113.46 108.143Z" fill="#455A64"/>
<path d="M113.208 113.157C113.268 112.859 113.558 112.665 113.856 112.725C114.154 112.784 114.348 113.074 114.288 113.372C114.229 113.67 113.939 113.864 113.641 113.804C113.343 113.745 113.149 113.455 113.208 113.157Z" fill="white"/>
<path d="M111.73 113.476C111.715 113.46 111.888 113.268 112.117 113.047C112.346 112.826 112.544 112.661 112.559 112.677C112.575 112.693 112.402 112.885 112.173 113.106C111.944 113.326 111.746 113.492 111.73 113.476Z" fill="#455A64"/>
<path d="M111.872 112.764C111.857 112.748 112.029 112.556 112.258 112.335C112.487 112.114 112.685 111.949 112.701 111.965C112.717 111.981 112.544 112.173 112.315 112.394C112.086 112.614 111.888 112.78 111.872 112.764Z" fill="#455A64"/>
<path d="M112.014 112.053C111.998 112.037 112.171 111.845 112.4 111.624C112.629 111.404 112.827 111.238 112.843 111.254C112.858 111.27 112.686 111.462 112.457 111.683C112.228 111.903 112.029 112.069 112.014 112.053Z" fill="#455A64"/>
<path d="M112.156 111.341C112.14 111.325 112.313 111.133 112.542 110.912C112.771 110.692 112.969 110.526 112.985 110.542C113 110.558 112.827 110.75 112.598 110.971C112.369 111.192 112.171 111.357 112.156 111.341Z" fill="#455A64"/>
<path d="M112.297 110.63C112.282 110.614 112.455 110.422 112.684 110.201C112.912 109.981 113.111 109.815 113.126 109.831C113.142 109.847 112.969 110.039 112.74 110.26C112.511 110.48 112.313 110.646 112.297 110.63Z" fill="#455A64"/>
<path d="M112.439 109.918C112.424 109.902 112.596 109.71 112.825 109.489C113.054 109.269 113.253 109.103 113.268 109.119C113.284 109.136 113.111 109.327 112.882 109.548C112.653 109.769 112.455 109.934 112.439 109.918Z" fill="#455A64"/>
<path d="M112.581 109.207C112.565 109.191 112.738 108.999 112.967 108.778C113.196 108.558 113.394 108.392 113.41 108.408C113.425 108.425 113.253 108.616 113.024 108.837C112.794 109.058 112.596 109.223 112.581 109.207Z" fill="#455A64"/>
<path d="M111.612 114.104C111.596 114.087 111.769 113.896 111.998 113.675C112.227 113.454 112.425 113.289 112.441 113.305C112.456 113.321 112.284 113.513 112.055 113.734C111.826 113.954 111.627 114.12 111.612 114.104Z" fill="#455A64"/>
<path d="M111.788 114.492C111.772 114.476 111.87 114.357 112.005 114.227C112.141 114.096 112.263 114.003 112.279 114.019C112.294 114.036 112.197 114.155 112.062 114.285C111.926 114.416 111.804 114.509 111.788 114.492Z" fill="#455A64"/>
<path d="M111.506 108.276L110.244 113.932C110.244 113.932 108.93 113.926 107.46 115.421C106.487 116.41 106.522 117.671 106.279 118.142C106.13 118.43 105.422 118.225 105.114 118.125C104.822 118.031 104.361 117.766 104.247 117.252C104.037 116.298 104.994 114.308 104.994 114.308C104.994 114.308 105.314 113.927 104.716 113.808L102.582 113.383C102.306 113.328 102.052 113.183 101.878 112.961C101.725 112.766 101.617 112.494 101.716 112.144C101.942 111.345 102.441 111.067 102.476 110.896C102.51 110.725 102.334 110.379 102.603 109.922C102.872 109.465 102.97 109.529 103.017 109.294C103.064 109.059 103.226 108.469 103.448 108.136C103.669 107.802 103.874 107.666 103.874 107.666C103.874 107.666 103.94 106.865 104.267 106.478C104.694 105.969 106.178 105.871 106.706 106.253C106.953 106.432 108.163 106.987 108.731 107.256C109.299 107.525 110.873 108.439 111.506 108.276Z" fill="#263238"/>
<path d="M112.282 108.363L111.137 114.11C111.137 114.11 109.823 114.103 108.353 115.599C107.38 116.588 106.861 117.44 106.618 117.911C106.469 118.199 106.136 118.348 105.828 118.248C105.536 118.153 105.199 117.964 105.086 117.45C104.876 116.497 105.887 114.485 105.887 114.485C105.887 114.485 106.207 114.105 105.609 113.986L103.476 113.561C103.199 113.506 102.945 113.36 102.772 113.138C102.619 112.943 102.511 112.672 102.609 112.322C102.835 111.523 103.335 111.245 103.369 111.074C103.403 110.903 103.228 110.557 103.497 110.1C103.765 109.643 103.864 109.707 103.911 109.472C103.957 109.237 104.119 108.647 104.341 108.313C104.563 107.98 104.768 107.843 104.768 107.843C104.768 107.843 104.857 107.061 105.16 106.655C105.463 106.249 106.407 106.193 106.706 106.252C107.005 106.312 109.056 107.165 109.625 107.434C110.193 107.703 111.65 108.526 112.282 108.363Z" fill="#455A64"/>
<path d="M104.567 115.415C104.553 115.398 104.813 115.176 105.162 114.943C105.512 114.709 105.816 114.555 105.827 114.574C105.838 114.594 105.554 114.778 105.207 115.01C104.86 115.242 104.58 115.434 104.567 115.415Z" fill="#455A64"/>
<path d="M104.298 116.161C104.284 116.144 104.521 115.937 104.857 115.751C105.191 115.565 105.467 115.43 105.478 115.448C105.491 115.468 105.229 115.637 104.897 115.822C104.566 116.006 104.312 116.178 104.298 116.161Z" fill="#455A64"/>
<path d="M104.219 116.866C104.206 116.851 104.392 116.671 104.68 116.537C104.963 116.41 105.184 116.3 105.197 116.318C105.21 116.338 104.998 116.484 104.715 116.61C104.437 116.739 104.234 116.886 104.219 116.866Z" fill="#455A64"/>
<path d="M104.339 117.49C104.328 117.47 104.48 117.364 104.678 117.253C104.877 117.142 105.046 117.067 105.057 117.087C105.068 117.107 104.916 117.213 104.718 117.324C104.52 117.435 104.35 117.51 104.339 117.49Z" fill="#455A64"/>
<path d="M104.704 117.917C104.697 117.896 104.79 117.838 104.913 117.788C105.037 117.737 105.144 117.713 105.154 117.734C105.163 117.754 105.069 117.812 104.944 117.863C104.819 117.914 104.712 117.938 104.704 117.917Z" fill="#455A64"/>
<path d="M104.935 114.435C104.924 114.416 105.085 114.304 105.295 114.186C105.505 114.068 105.684 113.988 105.695 114.008C105.706 114.027 105.545 114.139 105.335 114.257C105.125 114.375 104.946 114.455 104.935 114.435Z" fill="#455A64"/>
<path d="M101.862 111.741C101.853 111.72 102.178 111.561 102.588 111.386C102.999 111.21 103.338 111.085 103.347 111.106C103.356 111.126 103.031 111.285 102.62 111.461C102.21 111.636 101.871 111.761 101.862 111.741Z" fill="#455A64"/>
<path d="M101.701 112.721C101.692 112.701 101.883 112.599 102.128 112.493C102.372 112.388 102.578 112.32 102.587 112.341C102.595 112.361 102.405 112.463 102.16 112.568C101.915 112.673 101.71 112.742 101.701 112.721Z" fill="#455A64"/>
<path d="M102.466 110.411C102.459 110.389 102.707 110.293 103.008 110.164C103.309 110.037 103.551 109.924 103.562 109.945C103.572 109.964 103.345 110.11 103.04 110.239C102.735 110.369 102.472 110.431 102.466 110.411Z" fill="#455A64"/>
<path d="M102.998 109.366C102.988 109.346 103.219 109.215 103.513 109.074C103.807 108.933 104.054 108.835 104.063 108.855C104.073 108.875 103.842 109.006 103.548 109.147C103.254 109.288 103.007 109.386 102.998 109.366Z" fill="#455A64"/>
<path d="M103.508 108.105C103.497 108.087 103.757 107.916 104.105 107.758C104.453 107.6 104.753 107.517 104.76 107.537C104.767 107.559 104.483 107.676 104.139 107.832C103.794 107.988 103.519 108.125 103.508 108.105Z" fill="#455A64"/>
<path d="M104.001 107.058C103.99 107.038 104.297 106.846 104.703 106.664C105.108 106.478 105.454 106.374 105.462 106.395C105.469 106.416 105.138 106.554 104.736 106.738C104.333 106.919 104.012 107.077 104.001 107.058Z" fill="#455A64"/>
</svg>
