<svg width="24" height="25" viewBox="0 0 24 25" fill="none" xmlns="http://www.w3.org/2000/svg">
<path d="M13.4 2.5H6C5.46957 2.5 4.96086 2.71071 4.58579 3.08579C4.21071 3.46086 4 3.96957 4 4.5V20.5C4 21.0304 4.21071 21.5391 4.58579 21.9142C4.96086 22.2893 5.46957 22.5 6 22.5H18C18.5304 22.5 19.0391 22.2893 19.4142 21.9142C19.7893 21.5391 20 21.0304 20 20.5V13.1M2 6.5H6M2 10.5H6M2 14.5H6M2 18.5H6M18.4 3.09999C18.8168 2.83093 19.3133 2.71284 19.8066 2.76538C20.3 2.81793 20.7604 3.03794 21.1112 3.38876C21.4621 3.73957 21.6821 4.20001 21.7346 4.69336C21.7872 5.1867 21.6691 5.68315 21.4 6.09999L16 11.5L12 12.5L13 8.49999L18.4 3.09999Z" stroke="#767177" stroke-width="2" stroke-linecap="round" stroke-linejoin="round"/>
</svg>
