<svg width="224" height="201" viewBox="0 0 224 201" fill="none" xmlns="http://www.w3.org/2000/svg">
<path fill-rule="evenodd" clip-rule="evenodd" d="M20.6628 99.7697C14.4167 105.921 14.3395 115.97 20.4904 122.216C26.6413 128.462 36.6911 128.54 42.9371 122.389L62.8977 102.732L35.7915 133.274C30.7568 138.947 30.9799 147.551 36.3019 152.956C41.8876 158.628 51.0137 158.698 56.6857 153.112L75.3141 134.768L53.4629 160.089C48.7848 165.511 49.0514 173.615 54.0756 178.717C59.4029 184.126 68.107 184.193 73.5168 178.866L84.9939 167.564C84.2788 172.823 85.9207 178.344 89.9326 182.418C96.809 189.401 108.044 189.487 115.027 182.611L137.591 160.39L130.882 170.49C127.733 175.231 128.338 181.529 132.331 185.584C136.991 190.317 144.606 190.376 149.339 185.715L195.957 139.807C200.614 135.222 200.671 127.729 196.086 123.073C192.047 118.971 185.642 118.371 180.911 121.651L167.454 130.982L188.316 110.438C195.299 103.561 195.385 92.3264 188.509 85.3436C184.497 81.2697 179.001 79.5432 173.732 80.1775L185.991 68.1056C191.407 62.7723 191.474 54.0584 186.14 48.6426C181.119 43.5436 173.028 43.1436 167.528 47.7223L142.804 68.306L168.217 43.2799C173.891 37.6923 173.961 28.5629 168.374 22.8889C163.053 17.4855 154.456 17.1273 148.704 22.0692L118.169 48.3028L122.472 44.066C128.718 37.9151 128.795 27.8653 122.644 21.6193C116.493 15.3732 106.443 15.2961 100.197 21.447L62.8765 58.1991L69.2583 50.0161C73.7955 44.1984 73.3174 35.9188 68.1407 30.662C62.4443 24.8775 53.1373 24.8061 47.3528 30.5024L12.1382 65.1805C6.39785 70.8334 6.32695 80.0695 11.9799 85.8099C17.1802 91.0907 25.5138 91.6327 31.3544 87.0699L42.0204 78.7374L20.6628 99.7697Z" fill="#E6E6E6"/>
<circle cx="170.365" cy="180.092" r="3.52391" fill="#F6796E"/>
<circle cx="156.274" cy="7.24739" r="5.22395" fill="#F6A76E"/>
<circle cx="41.2593" cy="102.938" r="6.18948" fill="#F6A76E"/>
<rect x="87.13" y="120.241" width="34.6871" height="49.935" rx="15.7711" fill="#F56206" stroke="#263238" stroke-width="2.10281"/>
<mask id="path-6-inside-1_906_3321" fill="white">
<path fill-rule="evenodd" clip-rule="evenodd" d="M115.668 44.5595C135.375 49.6264 149.938 67.5133 149.938 88.8014V134.003H152.756C157.585 134.003 161.5 137.918 161.5 142.747C161.5 147.576 157.585 151.491 152.756 151.491H56.1948C51.3656 151.491 47.4507 147.576 47.4507 142.747C47.4507 137.918 51.3656 134.003 56.1948 134.003H58.5817V88.8014C58.5817 67.3578 73.3579 49.3654 93.2839 44.4506C93.4915 38.449 98.4223 33.6475 104.474 33.6475C110.563 33.6475 115.517 38.5072 115.668 44.5595Z"/>
</mask>
<path fill-rule="evenodd" clip-rule="evenodd" d="M115.668 44.5595C135.375 49.6264 149.938 67.5133 149.938 88.8014V134.003H152.756C157.585 134.003 161.5 137.918 161.5 142.747C161.5 147.576 157.585 151.491 152.756 151.491H56.1948C51.3656 151.491 47.4507 147.576 47.4507 142.747C47.4507 137.918 51.3656 134.003 56.1948 134.003H58.5817V88.8014C58.5817 67.3578 73.3579 49.3654 93.2839 44.4506C93.4915 38.449 98.4223 33.6475 104.474 33.6475C110.563 33.6475 115.517 38.5072 115.668 44.5595Z" fill="#F56206"/>
<path d="M115.668 44.5595L113.566 44.6121L113.606 46.2005L115.145 46.5961L115.668 44.5595ZM149.938 134.003H147.835V136.106H149.938V134.003ZM58.5817 134.003V136.106H60.6845V134.003H58.5817ZM93.2839 44.4506L93.7875 46.4922L95.3305 46.1116L95.3854 44.5233L93.2839 44.4506ZM152.041 88.8014C152.041 66.5304 136.805 47.823 116.192 42.523L115.145 46.5961C133.945 51.4299 147.835 68.4961 147.835 88.8014H152.041ZM152.041 134.003V88.8014H147.835V134.003H152.041ZM152.756 131.9H149.938V136.106H152.756V131.9ZM163.603 142.747C163.603 136.756 158.747 131.9 152.756 131.9V136.106C156.424 136.106 159.397 139.079 159.397 142.747H163.603ZM152.756 153.594C158.747 153.594 163.603 148.738 163.603 142.747H159.397C159.397 146.415 156.424 149.388 152.756 149.388V153.594ZM56.1948 153.594H152.756V149.388H56.1948V153.594ZM45.3479 142.747C45.3479 148.738 50.2042 153.594 56.1948 153.594V149.388C52.5269 149.388 49.5535 146.415 49.5535 142.747H45.3479ZM56.1948 131.9C50.2042 131.9 45.3479 136.756 45.3479 142.747H49.5535C49.5535 139.079 52.5269 136.106 56.1948 136.106V131.9ZM58.5817 131.9H56.1948V136.106H58.5817V131.9ZM56.4789 88.8014V134.003H60.6845V88.8014H56.4789ZM92.7803 42.409C71.9372 47.55 56.4789 66.3678 56.4789 88.8014H60.6845C60.6845 68.3478 74.7786 51.1808 93.7875 46.4922L92.7803 42.409ZM95.3854 44.5233C95.5541 39.6502 99.5592 35.7503 104.474 35.7503V31.5447C97.2853 31.5447 91.429 37.2479 91.1823 44.3779L95.3854 44.5233ZM104.474 35.7503C109.419 35.7503 113.443 39.6974 113.566 44.6121L117.77 44.507C117.591 37.317 111.707 31.5447 104.474 31.5447V35.7503Z" fill="#263238" mask="url(#path-6-inside-1_906_3321)"/>
<path d="M56.5737 143.523H87.7837" stroke="#FD8941" stroke-width="4" stroke-linecap="round"/>
<path d="M97.0053 53.9741C89.9408 53.8081 72.1213 59.6913 68.2073 80.6167C68.1671 80.8318 68.147 80.9394 68.1357 81.0604C68.1245 81.1815 68.1245 81.2981 68.1245 81.5314V111.351" stroke="#FD8941" stroke-width="4" stroke-linecap="round"/>
<path d="M68.1245 121.129L68.2632 129.693" stroke="#FD8941" stroke-width="4" stroke-linecap="round"/>
<path d="M93.0098 154.958C92.2132 158.442 96.5655 166.871 103.169 165.42" stroke="#FD8941" stroke-width="3" stroke-linecap="round"/>
<path d="M218.448 137.101C218.928 137.841 219.794 138.402 220.562 138.789C219.72 138.808 218.723 138.951 217.967 139.436C217.111 139.985 216.351 141.114 215.817 142.058C215.706 142.255 215.603 142.446 215.51 142.625C215.503 142.427 215.492 142.213 215.474 141.992C215.389 140.915 215.151 139.568 214.498 138.701C214.027 138.077 213.246 137.581 212.521 137.22C213.33 137.209 214.251 137.077 214.944 136.623C215.361 136.35 215.754 135.921 216.105 135.452C216.459 134.98 216.782 134.449 217.056 133.954C217.208 133.679 217.345 133.414 217.464 133.174C217.484 133.413 217.511 133.676 217.546 133.951C217.613 134.487 217.711 135.074 217.854 135.624C217.996 136.169 218.187 136.697 218.448 137.101Z" stroke="#F56206" stroke-width="0.585896"/>
<path d="M14.1529 151.57C14.6324 152.31 15.4983 152.872 16.2668 153.259C15.425 153.278 14.4277 153.421 13.6714 153.906C12.8155 154.455 12.0552 155.584 11.5218 156.527C11.4105 156.724 11.3078 156.916 11.2147 157.095C11.2078 156.896 11.1965 156.683 11.1789 156.462C11.0934 155.385 10.8557 154.038 10.2025 153.171C9.73157 152.546 8.95049 152.051 8.22528 151.69C9.0348 151.679 9.95576 151.547 10.6482 151.093C11.0653 150.819 11.4587 150.391 11.8097 149.922C12.1634 149.449 12.487 148.919 12.7602 148.424C12.9123 148.149 13.0496 147.883 13.1685 147.644C13.1891 147.882 13.2158 148.146 13.2504 148.421C13.3178 148.957 13.4158 149.544 13.5587 150.093C13.7006 150.639 13.8914 151.166 14.1529 151.57Z" stroke="#F56206" stroke-width="0.585896"/>
<path d="M54.1822 6.85639C54.6617 7.59648 55.5276 8.15793 56.2961 8.54525C55.4543 8.56429 54.457 8.70683 53.7007 9.19205C52.8448 9.74113 52.0845 10.8699 51.5511 11.8136C51.4398 12.0104 51.3371 12.2016 51.244 12.3814C51.2371 12.1824 51.2258 11.9693 51.2082 11.7479C51.1227 10.6709 50.885 9.32367 50.2318 8.45715C49.7609 7.83242 48.9798 7.33718 48.2546 6.97591C49.0641 6.96524 49.9851 6.83281 50.6775 6.37891C51.0945 6.10553 51.488 5.67677 51.839 5.20784C52.1927 4.73544 52.5163 4.20464 52.7895 3.71015C52.9416 3.43485 53.0789 3.16942 53.1978 2.92968C53.2184 3.16857 53.2451 3.4317 53.2797 3.70725C53.3471 4.24289 53.4451 4.83009 53.588 5.37957C53.7299 5.92527 53.9207 6.45257 54.1822 6.85639Z" stroke="#F56206" stroke-width="0.585896"/>
<path d="M9.5548 43.7236C10.0342 44.4637 10.9001 45.0251 11.6686 45.4124C10.8269 45.4315 9.8296 45.574 9.07326 46.0592C8.21736 46.6083 7.45707 47.7371 6.92361 48.6808C6.81237 48.8776 6.70964 49.0688 6.6166 49.2485C6.60969 49.0496 6.59835 48.8365 6.58076 48.6151C6.49521 47.538 6.25753 46.1909 5.60434 45.3243C5.13342 44.6996 4.35235 44.2044 3.62713 43.8431C4.43665 43.8324 5.35761 43.7 6.05005 43.2461C6.46711 42.9727 6.86055 42.544 7.2116 42.075C7.56527 41.6026 7.88883 41.0718 8.16206 40.5773C8.31417 40.302 8.45144 40.0366 8.57035 39.7969C8.59092 40.0358 8.61763 40.2989 8.6523 40.5744C8.71969 41.1101 8.81768 41.6973 8.96054 42.2468C9.10241 42.7925 9.29322 43.3198 9.5548 43.7236Z" stroke="#F56206" stroke-width="0.585896"/>
<path d="M117.543 192.393C118.023 193.133 118.888 193.694 119.657 194.081C118.815 194.1 117.818 194.243 117.062 194.728C116.206 195.277 115.445 196.406 114.912 197.35C114.801 197.547 114.698 197.738 114.605 197.917C114.598 197.719 114.587 197.505 114.569 197.284C114.483 196.207 114.246 194.86 113.593 193.993C113.122 193.369 112.341 192.873 111.615 192.512C112.425 192.501 113.346 192.369 114.038 191.915C114.455 191.642 114.849 191.213 115.2 190.744C115.554 190.272 115.877 189.741 116.15 189.246C116.302 188.971 116.44 188.706 116.559 188.466C116.579 188.705 116.606 188.968 116.641 189.243C116.708 189.779 116.806 190.366 116.949 190.916C117.091 191.461 117.282 191.989 117.543 192.393Z" stroke="#F56206" stroke-width="0.585896"/>
<circle cx="164.269" cy="63.011" r="2.1558" stroke="#DE536A" stroke-width="0.831544"/>
<circle cx="37.6414" cy="65.5833" r="2.1558" stroke="#DE536A" stroke-width="0.831544"/>
</svg>
