<svg width="241" height="212" viewBox="0 0 241 212" fill="none" xmlns="http://www.w3.org/2000/svg">
<path fill-rule="evenodd" clip-rule="evenodd" d="M30.4427 107.625C23.711 114.254 23.6279 125.085 30.257 131.817C36.8861 138.549 47.7172 138.632 54.4489 132.003L75.9595 110.82L46.7476 143.734C41.3214 149.848 41.5619 159.121 47.2977 164.946C53.3176 171.059 63.1532 171.135 69.2663 165.115L89.3367 145.35L65.7923 172.634C60.7504 178.477 61.0377 187.211 66.4526 192.71C72.1941 198.54 81.5749 198.612 87.4053 192.87L99.776 180.688C99.0049 186.356 100.774 192.307 105.099 196.699C112.51 204.224 124.618 204.317 132.144 196.906L156.46 172.961L149.231 183.843C145.837 188.952 146.488 195.741 150.792 200.111C155.815 205.212 164.022 205.275 169.123 200.252L219.365 150.775C224.384 145.833 224.446 137.758 219.504 132.739C215.151 128.319 208.248 127.672 203.15 131.207L188.65 141.261L211.131 119.122C218.657 111.711 218.75 99.6025 211.339 92.0768C207.015 87.6858 201.091 85.8252 195.412 86.5091L208.624 73.4986C214.461 67.7506 214.533 58.3592 208.785 52.5224C203.373 47.027 194.653 46.5958 188.726 51.5305L162.086 73.7092L189.469 46.7431C195.584 40.7211 195.66 30.8819 189.638 24.7667C183.903 18.9433 174.638 18.5572 168.438 23.8833L135.532 52.1549L140.167 47.5904C146.899 40.9613 146.982 30.1303 140.353 23.3986C133.724 16.6669 122.893 16.5838 116.161 23.2129L75.935 62.8259L82.816 54.0028C87.7059 47.7328 87.1906 38.8094 81.6115 33.144C75.4722 26.9098 65.4416 26.8328 59.2074 32.972L21.2549 70.3462C15.0682 76.4386 14.9918 86.3928 21.0843 92.5795C26.6889 98.2709 35.6705 98.855 41.9651 93.9375L53.4648 84.9537L30.4427 107.625Z" fill="#E6E6E6"/>
<path d="M64.1699 185.683H184.592" stroke="#313131" stroke-width="2" stroke-linecap="round"/>
<path d="M189.027 185.683H195.338" stroke="#313131" stroke-width="2" stroke-linecap="round"/>
<path d="M172.652 179.542H178.622" stroke="#313131" stroke-width="2" stroke-linecap="round"/>
<path d="M168.047 179.713H80.7148" stroke="#313131" stroke-width="2" stroke-linecap="round"/>
<path d="M76.2803 179.542H70.3105" stroke="#313131" stroke-width="2" stroke-linecap="round"/>
<path d="M59.5645 185.683H52.9121" stroke="#313131" stroke-width="2" stroke-linecap="round"/>
<circle cx="202.135" cy="145.089" r="3.52391" fill="#F6A76E"/>
<circle cx="165.4" cy="17.887" r="5.22395" fill="#F6A76E"/>
<circle cx="38.0059" cy="117.326" r="6.18948" fill="#F6A76E"/>
<path d="M227.574 147.74C228.053 148.48 228.919 149.042 229.688 149.429C228.846 149.448 227.849 149.591 227.092 150.076C226.236 150.625 225.476 151.754 224.943 152.697C224.831 152.894 224.729 153.085 224.636 153.265C224.629 153.066 224.617 152.853 224.6 152.632C224.514 151.555 224.277 150.207 223.623 149.341C223.152 148.716 222.371 148.221 221.646 147.86C222.456 147.849 223.377 147.717 224.069 147.263C224.486 146.989 224.88 146.561 225.231 146.092C225.584 145.619 225.908 145.088 226.181 144.594C226.333 144.319 226.47 144.053 226.589 143.813C226.61 144.052 226.637 144.315 226.671 144.591C226.739 145.127 226.837 145.714 226.98 146.263C227.121 146.809 227.312 147.336 227.574 147.74Z" stroke="#F56206" stroke-width="0.585896"/>
<path d="M23.2779 162.209C23.7574 162.949 24.6233 163.51 25.3918 163.898C24.55 163.917 23.5527 164.059 22.7964 164.545C21.9405 165.094 21.1802 166.222 20.6468 167.166C20.5355 167.363 20.4328 167.554 20.3397 167.734C20.3328 167.535 20.3215 167.322 20.3039 167.1C20.2184 166.023 19.9807 164.676 19.3275 163.81C18.8566 163.185 18.0755 162.69 17.3503 162.328C18.1598 162.318 19.0808 162.185 19.7732 161.731C20.1903 161.458 20.5837 161.029 20.9347 160.56C21.2884 160.088 21.612 159.557 21.8852 159.063C22.0373 158.787 22.1746 158.522 22.2935 158.282C22.3141 158.521 22.3408 158.784 22.3754 159.06C22.4428 159.595 22.5408 160.183 22.6837 160.732C22.8256 161.278 23.0164 161.805 23.2779 162.209Z" stroke="#F56206" stroke-width="0.585896"/>
<path d="M63.3072 17.496C63.7867 18.2361 64.6526 18.7976 65.4211 19.1849C64.5793 19.2039 63.582 19.3465 62.8257 19.8317C61.9698 20.3808 61.2095 21.5095 60.6761 22.4533C60.5648 22.65 60.4621 22.8413 60.369 23.021C60.3621 22.822 60.3508 22.609 60.3332 22.3875C60.2477 21.3105 60.01 19.9633 59.3568 19.0968C58.8859 18.4721 58.1048 17.9768 57.3796 17.6156C58.1891 17.6049 59.1101 17.4725 59.8025 17.0186C60.2195 16.7452 60.613 16.3164 60.964 15.8475C61.3177 15.3751 61.6413 14.8443 61.9145 14.3498C62.0666 14.0745 62.2039 13.8091 62.3228 13.5693C62.3434 13.8082 62.3701 14.0713 62.4047 14.3469C62.4721 14.8825 62.5701 15.4697 62.713 16.0192C62.8549 16.5649 63.0457 17.0922 63.3072 17.496Z" stroke="#F56206" stroke-width="0.585896"/>
<path d="M18.6803 54.3622C19.1597 55.1023 20.0256 55.6638 20.7941 56.0511C19.9524 56.0702 18.9551 56.2127 18.1987 56.6979C17.3429 57.247 16.5826 58.3758 16.0491 59.3195C15.9379 59.5162 15.8351 59.7075 15.7421 59.8872C15.7352 59.6882 15.7238 59.4752 15.7062 59.2537C15.6207 58.1767 15.383 56.8295 14.7298 55.963C14.2589 55.3383 13.4778 54.843 12.7526 54.4818C13.5621 54.4711 14.4831 54.3387 15.1755 53.8848C15.5926 53.6114 15.986 53.1826 16.3371 52.7137C16.6908 52.2413 17.0143 51.7105 17.2875 51.216C17.4397 50.9407 17.5769 50.6753 17.6958 50.4355C17.7164 50.6744 17.7431 50.9376 17.7778 51.2131C17.8452 51.7488 17.9432 52.3359 18.086 52.8854C18.2279 53.4311 18.4187 53.9584 18.6803 54.3622Z" stroke="#F56206" stroke-width="0.585896"/>
<path d="M126.669 203.032C127.148 203.772 128.014 204.334 128.782 204.721C127.941 204.74 126.943 204.883 126.187 205.368C125.331 205.917 124.571 207.046 124.037 207.989C123.926 208.186 123.823 208.377 123.73 208.557C123.723 208.358 123.712 208.145 123.695 207.924C123.609 206.847 123.371 205.499 122.718 204.633C122.247 204.008 121.466 203.513 120.741 203.152C121.55 203.141 122.471 203.009 123.164 202.555C123.581 202.281 123.974 201.853 124.325 201.384C124.679 200.911 125.003 200.38 125.276 199.886C125.428 199.611 125.565 199.345 125.684 199.105C125.705 199.344 125.731 199.607 125.766 199.883C125.833 200.419 125.931 201.006 126.074 201.555C126.216 202.101 126.407 202.628 126.669 203.032Z" stroke="#F56206" stroke-width="0.585896"/>
<circle cx="178.621" cy="48.0013" r="2.1558" stroke="#F56206" stroke-width="0.831544"/>
<circle cx="46.7669" cy="76.222" r="2.1558" stroke="#F56206" stroke-width="0.831544"/>
<path d="M122.33 134.366L120.233 147.907" stroke="#313131" stroke-width="2.75071" stroke-linecap="round"/>
<path d="M133.462 133.869L135.351 141.141" stroke="#313131" stroke-width="2.75071" stroke-linecap="round"/>
<path d="M143.583 130.271L150.465 140.442" stroke="#313131" stroke-width="2.75071" stroke-linecap="round"/>
<path d="M150.538 122.316L156.387 126.802" stroke="#313131" stroke-width="2.75071" stroke-linecap="round"/>
<path d="M155.318 112.265L168.269 115.408" stroke="#313131" stroke-width="2.75071" stroke-linecap="round"/>
<path d="M166.396 67.331L150.866 77.8376C150.363 78.1781 150.231 78.8621 150.572 79.3654L151.832 81.228C152.172 81.7313 152.856 81.8633 153.36 81.5228L168.889 71.0162C179.569 63.7908 184.453 65.603 190.258 66.8485C190.32 66.8618 190.383 66.8813 190.442 66.9049C217.958 77.9496 225.65 71.1249 231.115 67.3712C231.627 67.0193 231.772 66.3183 231.423 65.8035L230.039 63.7576C229.721 63.2873 229.09 63.1416 228.587 63.4048C213.141 71.4823 203.7 66.2676 190.168 62.6635C180.94 60.772 172.843 62.9694 166.396 67.331Z" fill="white" stroke="#313131" stroke-width="1.10028" stroke-linecap="round"/>
<path d="M69.7885 134.714L85.0408 124.395C85.5441 124.054 86.2282 124.186 86.5687 124.69L87.8288 126.552C88.1693 127.056 88.0374 127.74 87.5341 128.08L72.2817 138.399C61.7259 145.54 61.689 150.737 60.7285 156.587C58.7109 185.74 51.7931 190.577 46.611 194.201L46.5079 194.273C45.9984 194.629 45.2925 194.503 44.9441 193.988L43.5594 191.941C43.2416 191.471 43.3402 190.833 43.7703 190.463C56.76 179.297 55.3645 168.643 56.9243 154.832C58.5094 145.625 63.4505 139.002 69.7885 134.714Z" fill="white" stroke="#313131" stroke-width="1.10028" stroke-linecap="round"/>
<mask id="path-25-inside-1_96_1796" fill="white">
<path fill-rule="evenodd" clip-rule="evenodd" d="M123.809 83.8496C122.958 82.5913 123.288 80.8812 124.546 80.0299L125.16 79.6145C126.184 78.9215 127.508 79.0113 128.424 79.7473L137.745 73.4409C142.898 69.9549 149.629 70.5956 154.033 74.6093L162.644 68.7834L168.037 76.7552L159.455 82.5615C161.629 88.1736 159.731 94.7412 154.535 98.2569L145.302 104.503C145.959 105.73 145.595 107.281 144.417 108.078L143.803 108.493C142.544 109.345 140.834 109.015 139.983 107.756L123.809 83.8496Z"/>
</mask>
<path fill-rule="evenodd" clip-rule="evenodd" d="M123.809 83.8496C122.958 82.5913 123.288 80.8812 124.546 80.0299L125.16 79.6145C126.184 78.9215 127.508 79.0113 128.424 79.7473L137.745 73.4409C142.898 69.9549 149.629 70.5956 154.033 74.6093L162.644 68.7834L168.037 76.7552L159.455 82.5615C161.629 88.1736 159.731 94.7412 154.535 98.2569L145.302 104.503C145.959 105.73 145.595 107.281 144.417 108.078L143.803 108.493C142.544 109.345 140.834 109.015 139.983 107.756L123.809 83.8496Z" fill="#F56206"/>
<path d="M124.546 80.0299L123.929 79.1186L124.546 80.0299ZM125.16 79.6145L125.776 80.5258L125.16 79.6145ZM128.424 79.7473L127.735 80.605L128.368 81.1137L129.04 80.6586L128.424 79.7473ZM154.033 74.6093L153.291 75.4224L153.932 76.006L154.649 75.5206L154.033 74.6093ZM162.644 68.7834L163.555 68.1669L162.939 67.2556L162.027 67.8721L162.644 68.7834ZM168.037 76.7552L168.654 77.6665L169.565 77.05L168.948 76.1387L168.037 76.7552ZM159.455 82.5615L158.838 81.6502L158.112 82.1414L158.429 82.9589L159.455 82.5615ZM154.535 98.2569L153.918 97.3456L154.535 98.2569ZM145.302 104.503L144.685 103.592L143.863 104.148L144.332 105.023L145.302 104.503ZM123.929 79.1186C122.168 80.3104 121.706 82.7045 122.898 84.4661L124.72 83.233C124.209 82.4781 124.407 81.452 125.162 80.9412L123.929 79.1186ZM124.543 78.7032L123.929 79.1186L125.162 80.9412L125.776 80.5258L124.543 78.7032ZM129.113 78.8896C127.831 77.8597 125.979 77.7321 124.543 78.7032L125.776 80.5258C126.39 80.1109 127.184 80.1628 127.735 80.605L129.113 78.8896ZM137.129 72.5296L127.807 78.836L129.04 80.6586L138.362 74.3522L137.129 72.5296ZM154.774 73.7961C150.004 69.448 142.712 68.7523 137.129 72.5296L138.362 74.3522C143.084 71.1576 149.255 71.7432 153.291 75.4224L154.774 73.7961ZM154.649 75.5206L163.26 69.6947L162.027 67.8721L153.416 73.698L154.649 75.5206ZM161.732 69.4L167.126 77.3717L168.948 76.1387L163.555 68.1669L161.732 69.4ZM167.42 75.8439L158.838 81.6502L160.071 83.4728L168.654 77.6665L167.42 75.8439ZM155.151 99.1682C160.782 95.3587 162.836 88.2439 160.481 82.164L158.429 82.9589C160.422 88.1032 158.68 94.1236 153.918 97.3456L155.151 99.1682ZM145.918 105.415L155.151 99.1682L153.918 97.3456L144.685 103.592L145.918 105.415ZM145.033 108.989C146.683 107.873 147.193 105.703 146.272 103.984L144.332 105.023C144.726 105.758 144.507 106.689 143.8 107.167L145.033 108.989ZM144.419 109.405L145.033 108.989L143.8 107.167L143.186 107.582L144.419 109.405ZM139.072 108.373C140.263 110.135 142.658 110.596 144.419 109.405L143.186 107.582C142.431 108.093 141.405 107.895 140.894 107.14L139.072 108.373ZM122.898 84.4661L139.072 108.373L140.894 107.14L124.72 83.233L122.898 84.4661Z" fill="#313131" mask="url(#path-25-inside-1_96_1796)"/>
<mask id="path-27-inside-2_96_1796" fill="white">
<path fill-rule="evenodd" clip-rule="evenodd" d="M102.616 133.363L112.394 126.748C113.31 127.619 114.739 127.768 115.829 127.03L116.258 126.74C117.516 125.889 117.846 124.179 116.995 122.921L114.226 118.828C114.322 118.781 114.416 118.727 114.507 118.665L127.866 109.627C128.907 108.923 129.18 107.507 128.476 106.466C127.771 105.424 126.356 105.151 125.314 105.856L111.955 114.894C111.864 114.955 111.779 115.022 111.7 115.094L105.922 106.555C106.019 106.508 106.113 106.454 106.204 106.392L119.563 97.3541C120.604 96.6495 120.878 95.234 120.173 94.1925C119.468 93.1509 118.053 92.8779 117.011 93.5825L103.652 102.621C103.561 102.682 103.476 102.749 103.396 102.821L101.001 99.2802C100.15 98.0219 98.4394 97.692 97.1812 98.5433L96.7522 98.8335C95.7327 99.5232 95.3227 100.777 95.6565 101.897L85.8272 108.547C80.6526 112.048 78.749 118.575 80.8796 124.171L72.4524 129.872L77.8457 137.844L86.2729 132.143C90.6749 136.203 97.4417 136.864 102.616 133.363Z"/>
</mask>
<path fill-rule="evenodd" clip-rule="evenodd" d="M102.616 133.363L112.394 126.748C113.31 127.619 114.739 127.768 115.829 127.03L116.258 126.74C117.516 125.889 117.846 124.179 116.995 122.921L114.226 118.828C114.322 118.781 114.416 118.727 114.507 118.665L127.866 109.627C128.907 108.923 129.18 107.507 128.476 106.466C127.771 105.424 126.356 105.151 125.314 105.856L111.955 114.894C111.864 114.955 111.779 115.022 111.7 115.094L105.922 106.555C106.019 106.508 106.113 106.454 106.204 106.392L119.563 97.3541C120.604 96.6495 120.878 95.234 120.173 94.1925C119.468 93.1509 118.053 92.8779 117.011 93.5825L103.652 102.621C103.561 102.682 103.476 102.749 103.396 102.821L101.001 99.2802C100.15 98.0219 98.4394 97.692 97.1812 98.5433L96.7522 98.8335C95.7327 99.5232 95.3227 100.777 95.6565 101.897L85.8272 108.547C80.6526 112.048 78.749 118.575 80.8796 124.171L72.4524 129.872L77.8457 137.844L86.2729 132.143C90.6749 136.203 97.4417 136.864 102.616 133.363Z" fill="#F56206"/>
<path d="M112.394 126.748L113.152 125.951L112.51 125.341L111.777 125.837L112.394 126.748ZM116.995 122.921L116.083 123.537L116.995 122.921ZM114.226 118.828L113.744 117.839L112.604 118.394L113.314 119.444L114.226 118.828ZM111.7 115.094L110.788 115.711L111.499 116.761L112.438 115.91L111.7 115.094ZM105.922 106.555L105.441 105.566L104.3 106.121L105.011 107.171L105.922 106.555ZM106.204 106.392L106.82 107.303L106.204 106.392ZM119.563 97.3541L118.946 96.4428L119.563 97.3541ZM117.011 93.5825L117.628 94.4938L117.011 93.5825ZM103.652 102.621L103.036 101.709L103.652 102.621ZM103.396 102.821L102.485 103.438L103.196 104.488L104.135 103.636L103.396 102.821ZM95.6565 101.897L96.2731 102.808L96.9415 102.356L96.711 101.583L95.6565 101.897ZM80.8796 124.171L81.4962 125.082L82.218 124.594L81.9079 123.78L80.8796 124.171ZM72.4524 129.872L71.8358 128.961L70.9245 129.578L71.5411 130.489L72.4524 129.872ZM77.8457 137.844L76.9343 138.461L77.5509 139.372L78.4622 138.756L77.8457 137.844ZM86.2729 132.143L87.0188 131.334L86.3782 130.743L85.6563 131.232L86.2729 132.143ZM111.777 125.837L102 132.452L103.233 134.274L113.01 127.659L111.777 125.837ZM115.212 126.119C114.559 126.561 113.701 126.473 113.152 125.951L111.636 127.545C112.918 128.765 114.918 128.975 116.445 127.942L115.212 126.119ZM115.641 125.829L115.212 126.119L116.445 127.942L116.874 127.651L115.641 125.829ZM116.083 123.537C116.594 124.292 116.396 125.318 115.641 125.829L116.874 127.651C118.636 126.46 119.098 124.066 117.906 122.304L116.083 123.537ZM113.314 119.444L116.083 123.537L117.906 122.304L115.137 118.211L113.314 119.444ZM113.89 117.754C113.842 117.787 113.793 117.815 113.744 117.839L114.708 119.817C114.85 119.748 114.989 119.668 115.123 119.577L113.89 117.754ZM127.249 108.716L113.89 117.754L115.123 119.577L128.482 110.539L127.249 108.716ZM127.564 107.082C127.929 107.621 127.787 108.352 127.249 108.716L128.482 110.539C130.027 109.494 130.432 107.394 129.387 105.849L127.564 107.082ZM125.931 106.767C126.469 106.403 127.2 106.544 127.564 107.082L129.387 105.849C128.342 104.304 126.242 103.899 124.698 104.945L125.931 106.767ZM112.572 115.805L125.931 106.767L124.698 104.945L111.338 113.983L112.572 115.805ZM112.438 115.91C112.479 115.873 112.524 115.838 112.572 115.805L111.338 113.983C111.204 114.073 111.078 114.172 110.961 114.279L112.438 115.91ZM105.011 107.171L110.788 115.711L112.611 114.478L106.834 105.938L105.011 107.171ZM105.587 105.481C105.539 105.513 105.49 105.541 105.441 105.566L106.404 107.544C106.547 107.475 106.686 107.394 106.82 107.303L105.587 105.481ZM118.946 96.4428L105.587 105.481L106.82 107.303L120.179 98.2654L118.946 96.4428ZM119.262 94.809C119.626 95.3472 119.485 96.0787 118.946 96.4428L120.179 98.2654C121.724 97.2203 122.129 95.1207 121.084 93.5759L119.262 94.809ZM117.628 94.4938C118.166 94.1297 118.897 94.2708 119.262 94.809L121.084 93.5759C120.039 92.0311 117.94 91.626 116.395 92.6712L117.628 94.4938ZM104.269 103.532L117.628 94.4938L116.395 92.6712L103.036 101.709L104.269 103.532ZM104.135 103.636C104.176 103.599 104.221 103.564 104.269 103.532L103.036 101.709C102.901 101.8 102.775 101.899 102.657 102.006L104.135 103.636ZM100.089 99.8967L102.485 103.438L104.308 102.205L101.912 98.6636L100.089 99.8967ZM97.7977 99.4546C98.5527 98.9438 99.5787 99.1418 100.089 99.8967L101.912 98.6636C100.72 96.9021 98.3262 96.4402 96.5646 97.6319L97.7977 99.4546ZM97.3688 99.7448L97.7977 99.4546L96.5646 97.6319L96.1357 97.9222L97.3688 99.7448ZM96.711 101.583C96.5104 100.91 96.7584 100.158 97.3688 99.7448L96.1357 97.9222C94.707 98.8887 94.135 100.644 94.6021 102.211L96.711 101.583ZM86.4438 109.458L96.2731 102.808L95.04 100.986L85.2107 107.636L86.4438 109.458ZM81.9079 123.78C79.9548 118.65 81.7015 112.667 86.4438 109.458L85.2107 107.636C79.6037 111.429 77.5431 118.5 79.8514 124.563L81.9079 123.78ZM73.0689 130.784L81.4962 125.082L80.2631 123.26L71.8358 128.961L73.0689 130.784ZM78.757 137.228L73.3637 129.256L71.5411 130.489L76.9343 138.461L78.757 137.228ZM85.6563 131.232L77.2291 136.933L78.4622 138.756L86.8894 133.054L85.6563 131.232ZM102 132.452C97.2575 135.66 91.054 135.055 87.0188 131.334L85.5269 132.952C90.2959 137.35 97.6258 138.068 103.233 134.274L102 132.452Z" fill="#313131" mask="url(#path-27-inside-2_96_1796)"/>
<path d="M80.0889 87.291L92.8372 90.1382" stroke="#313131" stroke-width="2.75071" stroke-linecap="round"/>
<path d="M91.6953 75.6514L97.4913 79.739" stroke="#313131" stroke-width="2.75071" stroke-linecap="round"/>
<path d="M97.8154 61.6611L104.647 71.7586" stroke="#313131" stroke-width="2.75071" stroke-linecap="round"/>
<path d="M113.301 61.0339L114.989 68.0089" stroke="#313131" stroke-width="2.75071" stroke-linecap="round"/>
<path d="M128.399 54.3916L126.476 67.7063" stroke="#313131" stroke-width="2.75071" stroke-linecap="round"/>
<path d="M97.087 105.335L87.3194 111.355C83.0056 114.654 83.3441 116.375 83.7985 120.555" stroke="#FC9656" stroke-width="1.5" stroke-linecap="round"/>
<path d="M143.858 100.199L153.865 93.6166C158.179 90.3181 156.927 87.7938 156.473 83.6141" stroke="#FC9656" stroke-width="1.5" stroke-linecap="round"/>
<path d="M82.322 126.709L76.9082 130.391" stroke="#FC9656" stroke-width="1.5" stroke-linecap="round"/>
<path d="M163.883 75.8477L158.469 79.53" stroke="#FC9656" stroke-width="1.5" stroke-linecap="round"/>
</svg>
