<svg width="21" height="21" viewBox="0 0 21 21" fill="none" xmlns="http://www.w3.org/2000/svg">
<circle cx="10.125" cy="10.125" r="10.125" fill="white"/>
<path d="M0 10.1261C0 14.2725 2.49335 17.8346 6.06124 19.4007C6.03276 18.6937 6.05618 17.8448 6.23749 17.0755C6.43218 16.2535 7.54041 11.5578 7.54041 11.5578C7.54041 11.5578 7.21694 10.9112 7.21694 9.95569C7.21694 8.45507 8.08666 7.33434 9.16982 7.33434C10.0909 7.33434 10.5359 8.02614 10.5359 8.85457C10.5359 9.78046 9.94532 11.1654 9.64162 12.4482C9.38792 13.5223 10.1802 14.3984 11.2399 14.3984C13.1584 14.3984 14.4506 11.9343 14.4506 9.01469C14.4506 6.79537 12.9558 5.13424 10.2371 5.13424C7.16544 5.13424 5.25188 7.42492 5.25188 9.98361C5.25188 10.8658 5.51199 11.4879 5.9194 11.9697C6.10673 12.191 6.13275 12.28 6.06496 12.5341C6.01638 12.7204 5.90484 13.1689 5.85864 13.3467C5.79124 13.6032 5.58342 13.6948 5.35163 13.6002C3.93685 13.0226 3.27795 11.4732 3.27795 9.73157C3.27795 6.8551 5.7039 3.40595 10.515 3.40595C14.381 3.40595 16.9256 6.20356 16.9256 9.2066C16.9256 13.1789 14.7172 16.1465 11.4618 16.1465C10.3686 16.1465 9.3403 15.5556 8.98803 14.8843C8.98803 14.8843 8.40017 17.2174 8.27565 17.6679C8.06095 18.4487 7.64072 19.229 7.25649 19.8372C8.1882 20.1127 9.15474 20.2525 10.1263 20.2524C15.7181 20.2524 20.2519 15.7188 20.2519 10.1261C20.2519 4.53365 15.7181 0 10.1263 0C4.53404 0 0 4.53365 0 10.1261Z" fill="#CB1F27"/>
</svg>
