<svg width="225" height="201" viewBox="0 0 225 201" fill="none" xmlns="http://www.w3.org/2000/svg">
<path fill-rule="evenodd" clip-rule="evenodd" d="M15.3914 97.173C8.14042 104.313 8.05086 115.98 15.1913 123.231C22.3318 130.482 33.9983 130.571 41.2493 123.431L64.4212 100.612L32.9537 136.068C27.109 142.654 27.368 152.642 33.5462 158.916C40.0304 165.501 50.6248 165.582 57.2094 159.098L78.8295 137.807L53.4682 167.197C48.0375 173.49 48.347 182.898 54.1795 188.821C60.3639 195.101 70.4683 195.178 76.7484 188.994L90.0728 175.873C89.2423 181.978 91.1483 188.388 95.8059 193.118C103.789 201.224 116.831 201.324 124.937 193.341L151.128 167.549L143.342 179.271C139.687 184.774 140.389 192.086 145.024 196.793C150.435 202.287 159.275 202.355 164.769 196.945L218.887 143.651C224.293 138.328 224.359 129.63 219.036 124.225C214.347 119.463 206.912 118.767 201.421 122.574L185.803 133.403L210.018 109.557C218.124 101.575 218.224 88.532 210.241 80.4258C205.584 75.6961 199.203 73.6919 193.086 74.4286L207.318 60.4141C213.605 54.2227 213.682 44.1069 207.491 37.8198C201.662 31.9005 192.269 31.4361 185.885 36.7514L157.189 60.6416L186.684 31.5954C193.271 25.1089 193.353 14.5107 186.866 7.92382C180.689 1.65117 170.709 1.2353 164.031 6.97229L128.584 37.4269L133.58 32.5075C140.83 25.367 140.92 13.7004 133.78 6.4495C126.639 -0.801448 114.973 -0.891016 107.722 6.24945L64.3941 48.9168L71.8044 39.4151C77.0715 32.6615 76.5165 23.0498 70.5069 16.9473C63.8942 10.2322 53.0898 10.1492 46.3747 16.762L5.49467 57.0192C-1.16925 63.5816 -1.25156 74.3036 5.31083 80.9675C11.3478 87.0979 21.0222 87.7271 27.8024 82.4303L40.1869 72.7552L15.3914 97.173Z" fill="#E6E6E6"/>
<g filter="url(#filter0_d_84_427)">
<circle cx="112.97" cy="100.956" r="58.4414" fill="white"/>
<circle cx="112.97" cy="100.956" r="57.4414" stroke="#313131" stroke-width="2"/>
</g>
<g filter="url(#filter1_d_84_427)">
<circle cx="112.972" cy="100.956" r="67.4053" stroke="#313131" stroke-width="2" shape-rendering="crispEdges"/>
</g>
<path d="M56.0166 175.502H176.438" stroke="#313131" stroke-width="2" stroke-linecap="round"/>
<path d="M180.875 175.502H187.186" stroke="#313131" stroke-width="2" stroke-linecap="round"/>
<path d="M164.499 169.361H170.469" stroke="#313131" stroke-width="2" stroke-linecap="round"/>
<path d="M159.894 169.532H72.5615" stroke="#313131" stroke-width="2" stroke-linecap="round"/>
<path d="M68.127 169.361H62.1572" stroke="#313131" stroke-width="2" stroke-linecap="round"/>
<path d="M51.4111 175.502H44.7588" stroke="#313131" stroke-width="2" stroke-linecap="round"/>
<circle cx="193.983" cy="134.909" r="3.52391" fill="#F6A76E"/>
<circle cx="157.247" cy="7.70637" r="5.22395" fill="#F6A76E"/>
<circle cx="29.8535" cy="107.146" r="6.18948" fill="#F6A76E"/>
<path d="M219.421 137.56C219.9 138.3 220.766 138.861 221.534 139.248C220.693 139.267 219.695 139.41 218.939 139.895C218.083 140.444 217.323 141.573 216.789 142.517C216.678 142.714 216.575 142.905 216.482 143.084C216.475 142.886 216.464 142.672 216.446 142.451C216.361 141.374 216.123 140.027 215.47 139.16C214.999 138.536 214.218 138.04 213.493 137.679C214.302 137.668 215.223 137.536 215.916 137.082C216.333 136.809 216.726 136.38 217.077 135.911C217.431 135.439 217.755 134.908 218.028 134.413C218.18 134.138 218.317 133.873 218.436 133.633C218.457 133.872 218.483 134.135 218.518 134.41C218.585 134.946 218.683 135.533 218.826 136.083C218.968 136.628 219.159 137.156 219.421 137.56Z" stroke="#F56206" stroke-width="0.585896"/>
<path d="M15.1256 152.028C15.605 152.768 16.4709 153.33 17.2394 153.717C16.3977 153.736 15.4004 153.879 14.6441 154.364C13.7882 154.913 13.0279 156.042 12.4944 156.985C12.3832 157.182 12.2804 157.374 12.1874 157.553C12.1805 157.354 12.1692 157.141 12.1516 156.92C12.066 155.843 11.8283 154.496 11.1751 153.629C10.7042 153.004 9.92315 152.509 9.19793 152.148C10.0075 152.137 10.9284 152.005 11.6209 151.551C12.0379 151.277 12.4313 150.849 12.7824 150.38C13.1361 149.907 13.4596 149.377 13.7329 148.882C13.885 148.607 14.0222 148.341 14.1412 148.102C14.1617 148.34 14.1884 148.604 14.2231 148.879C14.2905 149.415 14.3885 150.002 14.5313 150.551C14.6732 151.097 14.864 151.624 15.1256 152.028Z" stroke="#F56206" stroke-width="0.585896"/>
<path d="M55.1549 7.31537C55.6343 8.05546 56.5002 8.61692 57.2687 9.00424C56.427 9.02328 55.4297 9.16581 54.6734 9.65103C53.8175 10.2001 53.0572 11.3289 52.5237 12.2726C52.4125 12.4694 52.3097 12.6606 52.2167 12.8403C52.2098 12.6414 52.1984 12.4283 52.1809 12.2069C52.0953 11.1298 51.8576 9.78266 51.2044 8.91613C50.7335 8.29141 49.9524 7.79617 49.2272 7.43489C50.0368 7.42423 50.9577 7.29179 51.6501 6.8379C52.0672 6.56452 52.4606 6.13575 52.8117 5.66683C53.1654 5.19443 53.4889 4.66362 53.7622 4.16913C53.9143 3.89384 54.0515 3.62841 54.1705 3.38866C54.191 3.62755 54.2177 3.89068 54.2524 4.16624C54.3198 4.70188 54.4178 5.28907 54.5606 5.83855C54.7025 6.38426 54.8933 6.91156 55.1549 7.31537Z" stroke="#F56206" stroke-width="0.585896"/>
<path d="M10.5279 44.1816C11.0074 44.9217 11.8733 45.4831 12.6418 45.8704C11.8 45.8895 10.8027 46.032 10.0464 46.5172C9.19051 47.0663 8.43022 48.1951 7.89675 49.1388C7.78552 49.3356 7.68278 49.5268 7.58974 49.7066C7.58284 49.5076 7.5715 49.2945 7.5539 49.0731C7.46836 47.9961 7.23068 46.6489 6.57749 45.7823C6.10657 45.1576 5.32549 44.6624 4.60028 44.3011C5.4098 44.2904 6.33076 44.158 7.0232 43.7041C7.44025 43.4307 7.83369 43.002 8.18475 42.533C8.53841 42.0606 8.86198 41.5298 9.1352 41.0353C9.28731 40.76 9.42458 40.4946 9.5435 40.2549C9.56406 40.4938 9.59078 40.7569 9.62544 41.0324C9.69283 41.5681 9.79083 42.1553 9.93368 42.7048C10.0756 43.2505 10.2664 43.7778 10.5279 44.1816Z" stroke="#F56206" stroke-width="0.585896"/>
<path d="M118.516 192.852C118.996 193.592 119.862 194.153 120.63 194.54C119.788 194.559 118.791 194.702 118.035 195.187C117.179 195.736 116.418 196.865 115.885 197.809C115.774 198.006 115.671 198.197 115.578 198.376C115.571 198.178 115.56 197.964 115.542 197.743C115.457 196.666 115.219 195.319 114.566 194.452C114.095 193.828 113.314 193.332 112.589 192.971C113.398 192.96 114.319 192.828 115.011 192.374C115.429 192.101 115.822 191.672 116.173 191.203C116.527 190.731 116.85 190.2 117.123 189.705C117.276 189.43 117.413 189.165 117.532 188.925C117.552 189.164 117.579 189.427 117.614 189.702C117.681 190.238 117.779 190.825 117.922 191.375C118.064 191.92 118.255 192.448 118.516 192.852Z" stroke="#F56206" stroke-width="0.585896"/>
<circle cx="170.469" cy="37.8206" r="2.1558" stroke="#F56206" stroke-width="0.831544"/>
<circle cx="38.6145" cy="66.0413" r="2.1558" stroke="#F56206" stroke-width="0.831544"/>
<path d="M145.157 84.2461C146.711 82.5193 146.571 79.8596 144.845 78.3054C143.118 76.7513 140.458 76.8913 138.904 78.6181L105.823 115.374C104.284 117.085 101.678 117.298 99.8806 115.86L84.8041 103.799C82.99 102.348 80.3429 102.642 78.8916 104.456C77.4403 106.27 77.7345 108.917 79.5486 110.369L94.6251 122.43C99.9022 126.652 107.556 126.025 112.077 121.002L145.157 84.2461Z" fill="#F56206" stroke="#333333" stroke-width="2" stroke-linecap="round" stroke-linejoin="round"/>
<defs>
<filter id="filter0_d_84_427" x="54.5283" y="42.5146" width="119.882" height="118.883" filterUnits="userSpaceOnUse" color-interpolation-filters="sRGB">
<feFlood flood-opacity="0" result="BackgroundImageFix"/>
<feColorMatrix in="SourceAlpha" type="matrix" values="0 0 0 0 0 0 0 0 0 0 0 0 0 0 0 0 0 0 127 0" result="hardAlpha"/>
<feOffset dx="2" dy="1"/>
<feGaussianBlur stdDeviation="0.5"/>
<feComposite in2="hardAlpha" operator="out"/>
<feColorMatrix type="matrix" values="0 0 0 0 0 0 0 0 0 0 0 0 0 0 0 0 0 0 0.25 0"/>
<feBlend mode="normal" in2="BackgroundImageFix" result="effect1_dropShadow_84_427"/>
<feBlend mode="normal" in="SourceGraphic" in2="effect1_dropShadow_84_427" result="shape"/>
</filter>
<filter id="filter1_d_84_427" x="44.5664" y="32.5508" width="139.811" height="138.811" filterUnits="userSpaceOnUse" color-interpolation-filters="sRGB">
<feFlood flood-opacity="0" result="BackgroundImageFix"/>
<feColorMatrix in="SourceAlpha" type="matrix" values="0 0 0 0 0 0 0 0 0 0 0 0 0 0 0 0 0 0 127 0" result="hardAlpha"/>
<feOffset dx="2" dy="1"/>
<feGaussianBlur stdDeviation="0.5"/>
<feComposite in2="hardAlpha" operator="out"/>
<feColorMatrix type="matrix" values="0 0 0 0 0 0 0 0 0 0 0 0 0 0 0 0 0 0 0.25 0"/>
<feBlend mode="normal" in2="BackgroundImageFix" result="effect1_dropShadow_84_427"/>
<feBlend mode="normal" in="SourceGraphic" in2="effect1_dropShadow_84_427" result="shape"/>
</filter>
</defs>
</svg>
