<svg width="229" height="200" viewBox="0 0 229 200" fill="none" xmlns="http://www.w3.org/2000/svg">
<path fill-rule="evenodd" clip-rule="evenodd" d="M15.42 96.3941C7.99668 103.507 7.90748 115.131 15.2208 122.357C22.5341 129.583 34.4805 129.674 41.9038 122.562L65.661 99.798L33.4124 135.153C27.4287 141.713 27.6959 151.666 34.0237 157.918C40.6648 164.48 51.5132 164.563 58.2542 158.104L80.3922 136.892L54.4213 166.175C48.8613 172.444 49.1801 181.818 55.1539 187.72C61.4879 193.979 71.8345 194.058 78.2638 187.898L91.9134 174.819C91.0645 180.901 93.0176 187.288 97.7879 192.002C105.964 200.08 119.319 200.182 127.618 192.231L154.449 166.522L146.473 178.205C142.73 183.687 143.45 190.973 148.198 195.664C153.739 201.139 162.791 201.209 168.416 195.819L223.853 142.701C229.387 137.398 229.453 128.733 224.001 123.346C219.199 118.601 211.585 117.906 205.963 121.699L189.965 132.491L214.771 108.723C223.069 100.771 223.169 87.7766 214.993 79.6984C210.223 74.9851 203.689 72.9869 197.426 73.7194L212.004 59.7514C218.44 53.5841 218.517 43.5054 212.176 37.24C206.206 31.3412 196.588 30.8766 190.051 36.1715L160.666 59.9756L190.874 31.0308C197.617 24.5694 197.698 14.0102 191.055 7.44608C184.728 1.19502 174.508 0.778699 167.672 6.49356L131.345 36.8616L136.48 31.9408C143.904 24.8279 143.993 13.204 136.679 5.97805C129.366 -1.24789 117.42 -1.33957 109.996 5.77329L65.6292 48.2849L73.2118 38.8248C78.6042 32.0971 78.0341 22.5201 71.879 16.4386C65.1063 9.74679 54.043 9.6619 47.1685 16.249L5.28795 56.3778C-1.53425 62.9147 -1.61622 73.5973 5.10486 80.2381C11.2881 86.3475 21.1948 86.9761 28.1363 81.6997L40.8098 72.0662L15.42 96.3941Z" fill="#E6E6E6"/>
<path d="M43.1328 151.484H196.037" stroke="#313131" stroke-width="1.81317" stroke-linecap="round"/>
<path d="M201.273 151.497H206.758" stroke="#313131" stroke-width="1.81317" stroke-linecap="round"/>
<path d="M186.314 145.265H192.547" stroke="#313131" stroke-width="1.81317" stroke-linecap="round"/>
<path d="M182.575 145.514H157.894" stroke="#313131" stroke-width="1.81317" stroke-linecap="round"/>
<path d="M32.7368 151.248H38.472" stroke="#313131" stroke-width="1.81317" stroke-linecap="round"/>
<path d="M46.1987 144.766H52.4333" stroke="#313131" stroke-width="1.81317" stroke-linecap="round"/>
<path d="M56.6221 144.766H62.8548" stroke="#313131" stroke-width="1.81317" stroke-linecap="round"/>
<path d="M172.344 155.539L136.29 139.467C98.3802 150.51 69.8097 132.531 60.2632 122.161C44.275 105.678 45.0162 90.0252 47.695 77.6578C60.2632 42.0193 103.943 34.8083 125.781 39.5415C188.829 50.467 189.447 103.212 166.576 122.161L179.556 150.8C183.018 158.382 176.191 157.118 172.344 155.539Z" fill="#F56206" stroke="#313131" stroke-width="1.81317"/>
<path d="M99.1978 74.9006C107.866 74.3909 106.666 67.2845 104.621 62.9435C104.313 62.2901 104.353 61.5021 104.85 60.9782C109.556 56.019 116.072 59.0766 117.987 60.8519C125.462 67.4054 122.196 76.2414 119.554 79.9666C119.495 80.0495 119.428 80.1257 119.355 80.1969C109.463 89.8912 107.406 95.8546 107.604 97.8203C107.615 97.9359 107.629 98.0512 107.629 98.1674V105.206C107.629 106.207 108.441 107.019 109.442 107.019H112.77C113.772 107.019 114.583 106.207 114.583 105.206V97.9928C114.939 93.9679 124.325 88.0857 128.937 82.4557C141.662 66.9187 129.923 57.7445 123.758 54.933C107.066 47.9487 97.074 56.659 94.1642 61.8872C89.6087 71.2315 95.3405 74.4291 98.9055 74.8916C99.0015 74.904 99.1012 74.9063 99.1978 74.9006Z" fill="white" stroke="#313131" stroke-width="1.81317"/>
<circle cx="111.101" cy="120.655" r="8.44433" fill="white" stroke="#313131" stroke-width="1.81317"/>
<circle cx="166.987" cy="172.317" r="3.19472" fill="#F6A76E"/>
<circle cx="154.212" cy="15.6188" r="4.73595" fill="#F6A76E"/>
<circle cx="17.0126" cy="103.102" r="5.61128" fill="#F6A76E"/>
<path d="M210.579 133.341C211.013 134.012 211.798 134.521 212.495 134.872C211.732 134.89 210.828 135.019 210.142 135.459C209.366 135.957 208.677 136.98 208.193 137.835C208.092 138.014 207.999 138.187 207.915 138.35C207.909 138.17 207.898 137.977 207.882 137.776C207.805 136.799 207.589 135.578 206.997 134.792C206.57 134.226 205.862 133.777 205.205 133.45C205.939 133.44 206.774 133.32 207.401 132.908C207.779 132.661 208.136 132.272 208.454 131.847C208.775 131.418 209.068 130.937 209.316 130.489C209.454 130.239 209.578 129.999 209.686 129.781C209.705 129.998 209.729 130.236 209.76 130.486C209.822 130.972 209.91 131.504 210.04 132.002C210.169 132.497 210.342 132.975 210.579 133.341Z" stroke="#F56206" stroke-width="0.531163"/>
<path d="M25.3672 146.458C25.8019 147.129 26.5869 147.638 27.2836 147.99C26.5205 148.007 25.6164 148.136 24.9307 148.576C24.1547 149.074 23.4655 150.097 22.9818 150.953C22.881 151.131 22.7879 151.304 22.7035 151.467C22.6972 151.287 22.687 151.094 22.671 150.893C22.5935 149.917 22.378 148.695 21.7858 147.91C21.3589 147.343 20.6508 146.894 19.9933 146.567C20.7272 146.557 21.5621 146.437 22.1899 146.026C22.568 145.778 22.9247 145.389 23.2429 144.964C23.5636 144.536 23.8569 144.054 24.1046 143.606C24.2425 143.357 24.3669 143.116 24.4747 142.899C24.4934 143.115 24.5176 143.354 24.549 143.603C24.6101 144.089 24.699 144.621 24.8285 145.12C24.9571 145.614 25.1301 146.092 25.3672 146.458Z" stroke="#F56206" stroke-width="0.531163"/>
<path d="M61.6573 15.2641C62.0919 15.935 62.8769 16.4441 63.5736 16.7952C62.8105 16.8125 61.9064 16.9417 61.2207 17.3816C60.4448 17.8794 59.7555 18.9027 59.2719 19.7582C59.171 19.9366 59.0779 20.11 58.9935 20.2729C58.9873 20.0926 58.977 19.8994 58.9611 19.6986C58.8835 18.7222 58.668 17.5009 58.0758 16.7153C57.6489 16.149 56.9408 15.7 56.2833 15.3724C57.0172 15.3628 57.8522 15.2427 58.4799 14.8312C58.858 14.5834 59.2147 14.1947 59.533 13.7695C59.8536 13.3413 60.1469 12.8601 60.3946 12.4118C60.5325 12.1622 60.657 11.9216 60.7648 11.7042C60.7834 11.9208 60.8076 12.1593 60.8391 12.4091C60.9002 12.8947 60.989 13.4271 61.1185 13.9252C61.2471 14.42 61.4201 14.898 61.6573 15.2641Z" stroke="#F56206" stroke-width="0.531163"/>
<path d="M21.1998 48.686C21.6344 49.3569 22.4194 49.8659 23.1161 50.2171C22.353 50.2343 21.4489 50.3635 20.7632 50.8034C19.9873 51.3012 19.298 52.3245 18.8144 53.1801C18.7135 53.3585 18.6204 53.5319 18.536 53.6948C18.5298 53.5144 18.5195 53.3213 18.5035 53.1205C18.426 52.1441 18.2105 50.9228 17.6183 50.1372C17.1914 49.5708 16.4833 49.1218 15.8258 48.7943C16.5597 48.7847 17.3946 48.6646 18.0224 48.2531C18.4005 48.0053 18.7572 47.6165 19.0754 47.1914C19.3961 46.7632 19.6894 46.2819 19.9371 45.8336C20.075 45.5841 20.1995 45.3434 20.3073 45.1261C20.3259 45.3426 20.3501 45.5812 20.3816 45.831C20.4426 46.3166 20.5315 46.849 20.661 47.3471C20.7896 47.8418 20.9626 48.3199 21.1998 48.686Z" stroke="#F56206" stroke-width="0.531163"/>
<path d="M119.1 183.468C119.534 184.139 120.319 184.648 121.016 184.999C120.253 185.017 119.349 185.146 118.663 185.586C117.887 186.083 117.198 187.107 116.714 187.962C116.613 188.141 116.52 188.314 116.436 188.477C116.43 188.297 116.419 188.104 116.403 187.903C116.326 186.926 116.11 185.705 115.518 184.919C115.091 184.353 114.383 183.904 113.726 183.577C114.46 183.567 115.295 183.447 115.922 183.035C116.3 182.787 116.657 182.399 116.975 181.974C117.296 181.545 117.589 181.064 117.837 180.616C117.975 180.366 118.099 180.126 118.207 179.908C118.226 180.125 118.25 180.363 118.281 180.613C118.343 181.099 118.431 181.631 118.561 182.129C118.69 182.624 118.863 183.102 119.1 183.468Z" stroke="#F56206" stroke-width="0.531163"/>
<circle cx="161.46" cy="66.1731" r="1.95441" stroke="#F56206" stroke-width="0.753864"/>
<circle cx="46.6614" cy="68.5032" r="1.95441" stroke="#F56206" stroke-width="0.753864"/>
</svg>
