<svg width="234" height="201" viewBox="0 0 234 201" fill="none" xmlns="http://www.w3.org/2000/svg">
<path fill-rule="evenodd" clip-rule="evenodd" d="M15.4525 97.2008C8.26184 104.282 8.17303 115.851 15.2541 123.042C22.3352 130.233 33.9047 130.321 41.0953 123.24L64.0756 100.61L32.8693 135.772C27.0732 142.303 27.33 152.208 33.4569 158.43C39.8872 164.96 50.3934 165.04 56.9232 158.61L78.3579 137.502L53.2123 166.641C47.8268 172.882 48.1337 182.212 53.9177 188.086C60.0507 194.314 70.071 194.39 76.2989 188.258L89.5119 175.246C88.6886 181.3 90.5787 187.657 95.1975 192.347C103.114 200.385 116.048 200.485 124.087 192.568L150.061 166.989L142.339 178.615C138.714 184.072 139.41 191.323 144.007 195.992C149.372 201.44 158.139 201.507 163.588 196.142L217.255 143.292C222.616 138.013 222.682 129.388 217.403 124.027C212.753 119.305 205.38 118.614 199.934 122.39L184.445 133.13L208.459 109.481C216.498 101.565 216.597 88.6309 208.681 80.5921C204.062 75.902 197.736 73.9145 191.669 74.6448L205.782 60.7471C212.017 54.6073 212.094 44.5756 205.954 38.3408C200.173 32.4707 190.859 32.0102 184.527 37.2813L156.076 60.9683L185.321 32.1682C191.854 25.7356 191.934 15.2256 185.502 8.69348C179.376 2.473 169.479 2.06059 162.857 7.74986L127.703 37.9518L132.658 33.0731C139.848 25.9921 139.937 14.4225 132.856 7.23191C125.775 0.0412698 114.205 -0.047568 107.015 7.03351L64.0437 49.3499L71.3964 39.9221C76.6197 33.2246 76.0693 23.6928 70.1097 17.6411C63.5519 10.9818 52.8374 10.8996 46.1782 17.4573L5.63819 57.3797C-0.970299 63.8875 -1.05192 74.5203 5.45589 81.1288C11.4427 87.2082 21.0365 87.8322 27.7603 82.5794L40.0477 72.9802L15.4525 97.2008Z" fill="#E6E6E6"/>
<circle cx="180.075" cy="179.715" r="3.52391" fill="#F6A76E"/>
<circle cx="165.984" cy="6.87043" r="5.22395" fill="#F6A76E"/>
<circle cx="50.9688" cy="102.56" r="6.18948" fill="#F6A76E"/>
<path d="M228.158 136.724C228.637 137.464 229.503 138.025 230.272 138.412C229.43 138.431 228.433 138.574 227.676 139.059C226.82 139.608 226.06 140.737 225.527 141.681C225.415 141.878 225.313 142.069 225.22 142.249C225.213 142.05 225.201 141.837 225.184 141.615C225.098 140.538 224.861 139.191 224.207 138.324C223.736 137.7 222.955 137.204 222.23 136.843C223.04 136.832 223.961 136.7 224.653 136.246C225.07 135.973 225.464 135.544 225.815 135.075C226.168 134.603 226.492 134.072 226.765 133.577C226.917 133.302 227.054 133.037 227.173 132.797C227.194 133.036 227.221 133.299 227.255 133.574C227.323 134.11 227.421 134.697 227.564 135.247C227.705 135.792 227.896 136.32 228.158 136.724Z" stroke="#F56206" stroke-width="0.585896"/>
<path d="M23.8619 151.192C24.3414 151.932 25.2073 152.494 25.9757 152.881C25.134 152.9 24.1367 153.043 23.3804 153.528C22.5245 154.077 21.7642 155.206 21.2307 156.15C21.1195 156.346 21.0168 156.538 20.9237 156.717C20.9168 156.518 20.9055 156.305 20.8879 156.084C20.8023 155.007 20.5647 153.66 19.9115 152.793C19.4406 152.168 18.6595 151.673 17.9343 151.312C18.7438 151.301 19.6647 151.169 20.3572 150.715C20.7742 150.441 21.1677 150.013 21.5187 149.544C21.8724 149.071 22.196 148.541 22.4692 148.046C22.6213 147.771 22.7586 147.505 22.8775 147.266C22.898 147.505 22.9248 147.768 22.9594 148.043C23.0268 148.579 23.1248 149.166 23.2677 149.716C23.4095 150.261 23.6003 150.789 23.8619 151.192Z" stroke="#F56206" stroke-width="0.585896"/>
<path d="M63.8912 6.47943C64.3706 7.21953 65.2366 7.78098 66.005 8.1683C65.1633 8.18734 64.166 8.32988 63.4097 8.8151C62.5538 9.36418 61.7935 10.4929 61.26 11.4367C61.1488 11.6334 61.0461 11.8247 60.953 12.0044C60.9461 11.8054 60.9348 11.5924 60.9172 11.3709C60.8316 10.2939 60.594 8.94672 59.9408 8.08019C59.4698 7.45547 58.6888 6.96023 57.9636 6.59895C58.7731 6.58829 59.694 6.45586 60.3865 6.00196C60.8035 5.72858 61.197 5.29981 61.548 4.83089C61.9017 4.35849 62.2253 3.82769 62.4985 3.3332C62.6506 3.0579 62.7879 2.79247 62.9068 2.55272C62.9273 2.79161 62.9541 3.05474 62.9887 3.3303C63.0561 3.86594 63.1541 4.45314 63.297 5.00262C63.4388 5.54832 63.6296 6.07562 63.8912 6.47943Z" stroke="#F56206" stroke-width="0.585896"/>
<path d="M19.2643 43.3456C19.7437 44.0857 20.6096 44.6472 21.3781 45.0345C20.5364 45.0536 19.5391 45.1961 18.7827 45.6813C17.9268 46.2304 17.1665 47.3592 16.6331 48.3029C16.5218 48.4996 16.4191 48.6909 16.3261 48.8706C16.3192 48.6716 16.3078 48.4586 16.2902 48.2371C16.2047 47.1601 15.967 45.8129 15.3138 44.9464C14.8429 44.3217 14.0618 43.8264 13.3366 43.4652C14.1461 43.4545 15.0671 43.3221 15.7595 42.8682C16.1766 42.5948 16.57 42.166 16.9211 41.6971C17.2747 41.2247 17.5983 40.6939 17.8715 40.1994C18.0236 39.9241 18.1609 39.6587 18.2798 39.4189C18.3004 39.6578 18.3271 39.921 18.3618 40.1965C18.4292 40.7321 18.5272 41.3193 18.67 41.8688C18.8119 42.4145 19.0027 42.9418 19.2643 43.3456Z" stroke="#F56206" stroke-width="0.585896"/>
<path d="M127.253 192.016C127.732 192.756 128.598 193.317 129.366 193.704C128.525 193.723 127.527 193.866 126.771 194.351C125.915 194.9 125.155 196.029 124.621 196.973C124.51 197.17 124.407 197.361 124.314 197.541C124.307 197.342 124.296 197.129 124.279 196.907C124.193 195.83 123.955 194.483 123.302 193.616C122.831 192.992 122.05 192.496 121.325 192.135C122.134 192.124 123.055 191.992 123.748 191.538C124.165 191.265 124.558 190.836 124.909 190.367C125.263 189.895 125.587 189.364 125.86 188.869C126.012 188.594 126.149 188.329 126.268 188.089C126.289 188.328 126.315 188.591 126.35 188.866C126.417 189.402 126.515 189.989 126.658 190.539C126.8 191.084 126.991 191.612 127.253 192.016Z" stroke="#F56206" stroke-width="0.585896"/>
<circle cx="173.978" cy="62.6341" r="2.1558" stroke="#F56206" stroke-width="0.831544"/>
<circle cx="47.3509" cy="65.2054" r="2.1558" stroke="#F56206" stroke-width="0.831544"/>
<path d="M52.9131 170.788H173.335" stroke="#313131" stroke-width="2" stroke-linecap="round"/>
<path d="M177.771 170.788H184.081" stroke="#313131" stroke-width="2" stroke-linecap="round"/>
<path d="M161.396 164.647H167.365" stroke="#313131" stroke-width="2" stroke-linecap="round"/>
<path d="M156.79 164.818H69.458" stroke="#313131" stroke-width="2" stroke-linecap="round"/>
<path d="M65.0234 164.647H59.0537" stroke="#313131" stroke-width="2" stroke-linecap="round"/>
<path d="M48.3076 170.788H41.6553" stroke="#313131" stroke-width="2" stroke-linecap="round"/>
<path d="M71.5381 153.359L65.7168 62.1611H160.019L153.422 153.359C152.495 164.584 145.617 167.718 140.615 167.718H83.9563C73.0174 167.718 71.4087 156.852 71.5381 153.359Z" fill="white" stroke="#313131" stroke-width="2"/>
<g filter="url(#filter0_i_83_54)">
<path d="M98.3145 38.489V50.907L126.391 50.2954V38.489C125.423 32.9141 121.241 31.2503 119.27 31.1152H104.911C100.875 32.3571 98.8318 36.5485 98.3145 38.489Z" fill="#B5B5B5"/>
</g>
<path d="M98.3145 38.489V50.907L126.391 50.2954V38.489C125.423 32.9141 121.241 31.2503 119.27 31.1152H104.911C100.875 32.3571 98.8318 36.5485 98.3145 38.489Z" stroke="#313131" stroke-width="2"/>
<g filter="url(#filter1_i_83_54)">
<path d="M166.229 61.7734H59.1191C59.1191 50.9073 67.1396 46.6385 71.1499 45.8623H154.198C164.133 49.2774 166.358 57.8927 166.229 61.7734Z" fill="#F56206"/>
</g>
<path d="M166.229 61.7734H59.1191C59.1191 50.9073 67.1396 46.6385 71.1499 45.8623H154.198C164.133 49.2774 166.358 57.8927 166.229 61.7734Z" stroke="#313131" stroke-width="2"/>
<path d="M139.389 152.892C137.773 159.032 131.795 155.962 131.795 152.892L137.127 76.7122C139.146 70.0074 145.609 73.3997 145.044 76.7122L139.389 152.892Z" fill="#F56206" stroke="#313131" stroke-width="2"/>
<path d="M84.5215 151.702L79.0957 77.7526C80.504 71.4961 86.6 72.9478 87.4672 77.7526L92.8932 151.702C91.9218 159.742 85.1486 156.549 84.5215 151.702Z" fill="#F56206" stroke="#313131" stroke-width="2"/>
<path d="M108.469 152.872V76.8183C110.017 71.2059 116.21 73.8187 116.21 76.8183V152.872C113.5 159.065 108.469 155.388 108.469 152.872Z" fill="#F56206" stroke="#313131" stroke-width="2"/>
<defs>
<filter id="filter0_i_83_54" x="97.3145" y="30.1152" width="30.9762" height="22.7135" filterUnits="userSpaceOnUse" color-interpolation-filters="sRGB">
<feFlood flood-opacity="0" result="BackgroundImageFix"/>
<feBlend mode="normal" in="SourceGraphic" in2="BackgroundImageFix" result="shape"/>
<feColorMatrix in="SourceAlpha" type="matrix" values="0 0 0 0 0 0 0 0 0 0 0 0 0 0 0 0 0 0 127 0" result="hardAlpha"/>
<feOffset dx="3" dy="3"/>
<feGaussianBlur stdDeviation="0.45"/>
<feComposite in2="hardAlpha" operator="arithmetic" k2="-1" k3="1"/>
<feColorMatrix type="matrix" values="0 0 0 0 0 0 0 0 0 0 0 0 0 0 0 0 0 0 0.25 0"/>
<feBlend mode="normal" in2="shape" result="effect1_innerShadow_83_54"/>
</filter>
<filter id="filter1_i_83_54" x="58.1191" y="44.8623" width="110.114" height="18.9111" filterUnits="userSpaceOnUse" color-interpolation-filters="sRGB">
<feFlood flood-opacity="0" result="BackgroundImageFix"/>
<feBlend mode="normal" in="SourceGraphic" in2="BackgroundImageFix" result="shape"/>
<feColorMatrix in="SourceAlpha" type="matrix" values="0 0 0 0 0 0 0 0 0 0 0 0 0 0 0 0 0 0 127 0" result="hardAlpha"/>
<feOffset dx="1" dy="4"/>
<feGaussianBlur stdDeviation="0.5"/>
<feComposite in2="hardAlpha" operator="arithmetic" k2="-1" k3="1"/>
<feColorMatrix type="matrix" values="0 0 0 0 0.9 0 0 0 0 0.5433 0 0 0 0 0.285 0 0 0 1 0"/>
<feBlend mode="normal" in2="shape" result="effect1_innerShadow_83_54"/>
</filter>
</defs>
</svg>
