<svg width="16" height="16" viewBox="0 0 16 16" fill="none" xmlns="http://www.w3.org/2000/svg">
    <mask id="path-1-inside-1_4949_1692" fill="white">
        <path fill-rule="evenodd" clip-rule="evenodd" d="M14.8741 12.0946C15.5892 10.8968 16 9.49637 16 8C16 3.58172 12.4183 0 8 0C3.58172 0 0 3.58172 0 8C0 12.4183 3.58172 16 8 16C9.50002 16 10.9036 15.5872 12.1034 14.8689L15.8893 15.8834L14.8741 12.0946Z"/>
    </mask>
    <path d="M14.8741 12.0946L14.1005 11.6328C13.9756 11.8419 13.9408 12.0926 14.0038 12.3278L14.8741 12.0946ZM12.1034 14.8689L12.3366 13.9986C12.101 13.9354 11.8498 13.9705 11.6405 14.0958L12.1034 14.8689ZM15.8893 15.8834L15.6561 16.7537C15.9671 16.837 16.2989 16.7481 16.5265 16.5205C16.7541 16.2929 16.843 15.9611 16.7597 15.6502L15.8893 15.8834ZM15.099 8C15.099 9.32929 14.7344 10.5707 14.1005 11.6328L15.6478 12.5564C16.4439 11.2229 16.901 9.66345 16.901 8H15.099ZM8 0.901046C11.9206 0.901046 15.099 4.07936 15.099 8H16.901C16.901 3.08409 12.9159 -0.901046 8 -0.901046V0.901046ZM0.901046 8C0.901046 4.07936 4.07936 0.901046 8 0.901046V-0.901046C3.08409 -0.901046 -0.901046 3.08409 -0.901046 8H0.901046ZM8 15.099C4.07936 15.099 0.901046 11.9206 0.901046 8H-0.901046C-0.901046 12.9159 3.08409 16.901 8 16.901V15.099ZM11.6405 14.0958C10.5768 14.7327 9.33253 15.099 8 15.099V16.901C9.66751 16.901 11.2305 16.4417 12.5662 15.642L11.6405 14.0958ZM11.8702 15.7393L15.6561 16.7537L16.1225 15.013L12.3366 13.9986L11.8702 15.7393ZM16.7597 15.6502L15.7445 11.8614L14.0038 12.3278L15.019 16.1166L16.7597 15.6502Z" fill="#F07C33" mask="url(#path-1-inside-1_4949_1692)"/>
</svg>
