<svg width="11" height="11" viewBox="0 0 11 11" fill="none" xmlns="http://www.w3.org/2000/svg">
<mask id="path-1-inside-1_4893_15685" fill="white">
<path fill-rule="evenodd" clip-rule="evenodd" d="M9.89374 7.98426C10.3561 7.20976 10.6217 6.30427 10.6217 5.33674C10.6217 2.47995 8.30583 0.164062 5.44904 0.164062C2.59225 0.164062 0.276367 2.47995 0.276367 5.33674C0.276367 8.19352 2.59225 10.5094 5.44904 10.5094C6.41889 10.5094 7.3264 10.2425 8.10212 9.77812L10.5502 10.4341L9.89374 7.98426Z"/>
</mask>
<path d="M9.89374 7.98426L9.12006 7.52242C8.99524 7.73152 8.96037 7.98224 9.0234 8.21747L9.89374 7.98426ZM8.10212 9.77812L8.33532 8.90777C8.09972 8.84465 7.84859 8.87973 7.63931 9.00501L8.10212 9.77812ZM10.5502 10.4341L10.317 11.3044C10.6279 11.3877 10.9597 11.2988 11.1873 11.0712C11.4149 10.8436 11.5038 10.5118 11.4205 10.2009L10.5502 10.4341ZM9.72067 5.33674C9.72067 6.13719 9.50135 6.88367 9.12006 7.52242L10.6674 8.4461C11.2108 7.53586 11.5228 6.47135 11.5228 5.33674H9.72067ZM5.44904 1.06511C7.80819 1.06511 9.72067 2.97758 9.72067 5.33674H11.5228C11.5228 1.98231 8.80346 -0.736984 5.44904 -0.736984V1.06511ZM1.17741 5.33674C1.17741 2.97758 3.08989 1.06511 5.44904 1.06511V-0.736984C2.09462 -0.736984 -0.624679 1.98231 -0.624679 5.33674H1.17741ZM5.44904 9.60836C3.08989 9.60836 1.17741 7.69589 1.17741 5.33674H-0.624679C-0.624679 8.69116 2.09462 11.4105 5.44904 11.4105V9.60836ZM7.63931 9.00501C6.99955 9.388 6.2514 9.60836 5.44904 9.60836V11.4105C6.58638 11.4105 7.65325 11.097 8.56493 10.5512L7.63931 9.00501ZM7.86891 10.6485L10.317 11.3044L10.7834 9.56373L8.33532 8.90777L7.86891 10.6485ZM11.4205 10.2009L10.7641 7.75105L9.0234 8.21747L9.67982 10.6673L11.4205 10.2009Z" fill="#F07C33" mask="url(#path-1-inside-1_4893_15685)"/>
</svg>
