<svg width="102" height="106" viewBox="0 0 102 106" fill="none" xmlns="http://www.w3.org/2000/svg">
<path id="XMLID_1_" d="M101.406 105.29C87.7222 107.674 55.1975 90.8036 39.2677 73.5897C21.8709 55.0005 15.6939 41.6031 9.95266 9.47919C8.57737 10.9461 7.58029 12.2641 6.49153 13.284C5.2194 14.5561 3.88996 15.748 2.52615 16.7221C2.12503 17.0086 0.887294 16.8023 0.463261 16.3783C0.0392288 15.9542 0.027786 14.7509 0.314305 14.3039C3.13365 10.1094 6.0676 6.07537 9.02447 1.90379C10.0215 0.585843 11.328 0.379572 12.7033 1.45688C17.7115 5.75464 22.7999 9.9951 27.7851 14.4304C28.8853 15.4618 29.5958 17.1351 30.7419 18.7396C26.3754 19.9199 24.7137 16.7454 22.3414 15.2898C19.8316 13.8114 17.6082 11.886 14.64 9.76577C14.9034 19.6333 16.8287 28.435 20.1636 36.8356C32.3456 67.6301 54.9111 87.8582 85.3844 99.6515C89.3726 101.164 93.5099 102.207 97.521 103.583C98.6556 103.984 99.6297 104.5 101.406 105.29Z" fill="black"/>
</svg>
