<svg width="24" height="16" viewBox="0 0 24 16" fill="none" xmlns="http://www.w3.org/2000/svg">
<path fill-rule="evenodd" clip-rule="evenodd" d="M12.1748 6.81359C14.0661 6.81359 15.5993 5.37095 15.5993 3.59136C15.5993 1.81178 14.0661 0.369141 12.1748 0.369141C10.2835 0.369141 8.75025 1.81178 8.75025 3.59136C8.75025 5.37095 10.2835 6.81359 12.1748 6.81359ZM12.1743 15.4073C15.957 15.4073 19.0234 13.9647 19.0234 12.1851C19.0234 10.4055 15.957 8.96289 12.1743 8.96289C8.39169 8.96289 5.32526 10.4055 5.32526 12.1851C5.32526 13.9647 8.39169 15.4073 12.1743 15.4073ZM5.76049 8.98242C2.94134 9.146 0.758789 10.2767 0.758789 11.6473C0.758789 12.7772 2.24217 13.7441 4.34271 14.1404C3.87332 13.5424 3.61256 12.8805 3.61256 12.1843C3.61256 10.9562 4.42391 9.83506 5.76049 8.98242ZM20.7352 12.1843C20.7352 12.8805 20.4744 13.5424 20.005 14.1404C22.1056 13.7441 23.5889 12.7772 23.5889 11.6473C23.5889 10.2767 21.4064 9.146 18.5872 8.98242C19.9238 9.83506 20.7352 10.9562 20.7352 12.1843ZM16.4181 6.31485C16.9811 5.53938 17.3104 4.6017 17.3104 3.59165C17.3104 3.25648 17.2741 2.92927 17.2051 2.61332C17.4188 2.55109 17.6458 2.51758 17.8812 2.51758C19.142 2.51758 20.1642 3.47934 20.1642 4.66573C20.1642 5.85212 19.142 6.81387 17.8812 6.81387C17.3244 6.81387 16.8143 6.62638 16.4181 6.31485ZM6.46661 2.51758C6.70198 2.51758 6.92902 2.55109 7.14266 2.61332C7.07363 2.92927 7.03737 3.25648 7.03737 3.59165C7.03737 4.6017 7.36664 5.53938 7.9297 6.31485C7.5335 6.62638 7.02333 6.81387 6.46661 6.81387C5.20574 6.81387 4.18359 5.85212 4.18359 4.66573C4.18359 3.47934 5.20574 2.51758 6.46661 2.51758Z" fill="#FD9B5E"/>
</svg>
